o convex_0
v 0.097072 0.169424 0.602443
v -0.008833 -0.254405 0.231720
v 0.008781 -0.254405 0.231720
v 0.044097 0.216450 -0.003796
v -0.244291 0.134093 0.567116
v -0.244247 -0.095438 -0.009592
v 0.208967 -0.213127 0.037512
v -0.144154 -0.195486 0.578953
v 0.208967 -0.160204 0.573034
v -0.244291 0.240038 0.043307
v 0.203066 0.210603 0.043369
v -0.244247 -0.236715 0.043307
v 0.138290 0.222347 0.508298
v -0.244247 -0.083645 0.602443
v 0.208967 0.122249 0.602443
v -0.126496 0.228244 0.496399
v 0.208967 -0.136617 -0.009653
v 0.132433 -0.230818 0.472909
v 0.073513 0.251831 0.278824
v 0.079458 -0.148411 0.614219
v -0.085323 0.145837 0.614280
v -0.173614 0.151734 -0.015511
v -0.120595 -0.236665 0.449419
v 0.208967 0.128196 -0.009653
v -0.055863 -0.207280 -0.009653
v -0.244247 -0.236715 0.196393
v -0.244291 0.240038 0.190536
v 0.126532 -0.207280 0.567116
v -0.132441 0.198809 0.578953
v 0.049954 0.240038 0.072777
v 0.197165 -0.007134 0.614219
v 0.203066 0.169424 0.561258
v -0.244247 -0.130770 0.572911
v 0.032340 -0.236715 0.049226
v -0.055863 0.251831 0.325680
v -0.167713 -0.154258 -0.015572
v -0.238390 0.092815 0.602443
v -0.132396 -0.118927 0.614280
v 0.097117 -0.248459 0.319946
v 0.150091 0.234141 0.372845
v -0.238390 0.086968 -0.015511
v 0.208967 -0.213127 0.214149
v 0.126532 0.210603 0.561258
v -0.038204 -0.254405 0.308047
v -0.179515 0.187065 0.561197
v 0.120631 0.234141 0.466990
v 0.061800 -0.213127 -0.003735
v 0.038241 -0.248459 0.137514
v -0.144154 -0.219024 0.514093
v 0.208967 -0.118927 0.602443
v -0.014778 0.251831 0.184617
v 0.120631 0.128146 0.614219
v -0.191272 0.028098 0.614280
v 0.203066 0.210603 0.202373
v 0.126532 0.192913 -0.009653
v -0.108837 -0.219024 0.537707
v -0.102936 0.198809 -0.009653
v -0.214831 -0.160204 0.567177
v -0.102936 0.163527 -0.015572
v 0.150091 -0.230818 0.425806
v -0.167713 -0.166052 0.596586
v -0.120595 0.240038 0.420010
v -0.197129 0.151734 0.596586
v 0.132433 -0.189590 -0.009653
f 47 25 64 
f 5 10 12 
f 10 6 12 
f 9 7 15 
f 15 7 17 
f 15 17 24 
f 5 12 26 
f 10 5 27 
f 18 9 28 
f 20 8 28 
f 21 1 29 
f 4 10 30 
f 11 4 30 
f 19 11 30 
f 14 5 33 
f 5 26 33 
f 10 27 35 
f 12 6 36 
f 25 12 36 
f 5 14 37 
f 20 31 38 
f 31 21 38 
f 11 19 40 
f 13 32 40 
f 6 10 41 
f 10 22 41 
f 36 6 41 
f 7 9 42 
f 39 7 42 
f 1 15 43 
f 29 1 43 
f 16 29 43 
f 32 13 43 
f 15 32 43 
f 2 3 44 
f 12 2 44 
f 18 23 44 
f 26 12 44 
f 23 26 44 
f 3 39 44 
f 39 18 44 
f 27 5 45 
f 16 27 45 
f 29 16 45 
f 19 35 46 
f 40 19 46 
f 13 40 46 
f 43 13 46 
f 16 43 46 
f 12 25 47 
f 7 34 47 
f 34 12 47 
f 3 2 48 
f 2 12 48 
f 34 7 48 
f 12 34 48 
f 39 3 48 
f 7 39 48 
f 26 23 49 
f 9 15 50 
f 28 9 50 
f 20 28 50 
f 15 31 50 
f 31 20 50 
f 30 10 51 
f 19 30 51 
f 10 35 51 
f 35 19 51 
f 15 1 52 
f 1 21 52 
f 31 15 52 
f 21 31 52 
f 37 14 53 
f 21 37 53 
f 14 38 53 
f 38 21 53 
f 24 11 54 
f 15 24 54 
f 32 15 54 
f 11 40 54 
f 40 32 54 
f 4 11 55 
f 11 24 55 
f 23 18 56 
f 18 28 56 
f 28 8 56 
f 49 23 56 
f 8 49 56 
f 10 4 57 
f 22 10 57 
f 4 55 57 
f 33 26 58 
f 26 49 58 
f 49 8 58 
f 24 17 59 
f 17 36 59 
f 41 22 59 
f 36 41 59 
f 55 24 59 
f 22 57 59 
f 57 55 59 
f 9 18 60 
f 18 39 60 
f 42 9 60 
f 39 42 60 
f 8 20 61 
f 14 33 61 
f 38 14 61 
f 20 38 61 
f 58 8 61 
f 33 58 61 
f 27 16 62 
f 35 27 62 
f 16 46 62 
f 46 35 62 
f 21 29 63 
f 5 37 63 
f 37 21 63 
f 45 5 63 
f 29 45 63 
f 17 7 64 
f 36 17 64 
f 25 36 64 
f 7 47 64 
o convex_1
v 0.309033 0.057564 0.537729
v 0.208967 -0.177881 0.031576
v 0.208967 -0.154331 0.007981
v 0.332569 -0.177881 0.060980
v 0.297250 0.128215 0.037445
v 0.208967 -0.136653 0.596596
v 0.208967 0.128215 0.596596
v 0.208967 0.128215 -0.009686
v 0.350242 -0.036578 0.384661
v 0.344351 0.075212 0.290581
v 0.338460 -0.177881 0.202250
v 0.297250 -0.077806 0.549466
v 0.208967 -0.177881 0.431791
v 0.261959 -0.036578 -0.009686
v 0.261959 0.128215 0.514133
v 0.350242 0.010463 0.214048
v 0.261959 0.039916 0.602465
v 0.226627 -0.148428 0.573061
v 0.338460 0.075212 0.408196
v 0.332569 0.045759 0.113979
v 0.338460 -0.048353 0.455326
v 0.303141 0.128215 0.202310
v 0.214858 -0.130780 -0.009686
v 0.314924 -0.171979 0.037505
v 0.261959 0.110538 0.573001
v 0.267850 -0.048353 0.596536
v 0.267850 0.057564 -0.003696
v 0.350242 0.033983 0.390529
v 0.320801 0.010463 0.525931
v 0.303141 0.128215 0.043374
v 0.208967 -0.066031 0.608394
v 0.320801 -0.077777 0.490598
v 0.214858 -0.160203 0.561203
v 0.256068 -0.119005 0.573001
v 0.326692 0.075212 0.472932
v 0.338460 -0.177881 0.113979
v 0.350242 0.045759 0.243451
v 0.303141 -0.007185 0.561264
v 0.338460 0.028141 0.467063
v 0.309033 0.022238 0.037505
v 0.350242 -0.042451 0.255249
v 0.208967 0.063437 0.608394
v 0.344351 0.010463 0.161049
v 0.273714 0.075212 0.584799
v 0.279605 0.010463 0.002173
v 0.244300 0.092890 -0.009686
v 0.238409 -0.095454 0.602465
v 0.320801 -0.048353 0.514133
v 0.220749 0.128215 0.596596
v 0.244300 -0.095454 -0.009686
v 0.326692 0.028141 0.084575
v 0.297250 0.104665 0.472932
v 0.250177 0.128215 0.567132
v 0.344351 0.063437 0.219977
v 0.344351 -0.013088 0.443528
f 93 112 119 
f 67 66 70 
f 67 70 71 
f 67 71 72 
f 71 69 72 
f 66 68 75 
f 70 66 77 
f 66 75 77 
f 69 71 79 
f 75 73 85 
f 69 79 86 
f 83 74 86 
f 67 72 87 
f 72 78 87 
f 66 67 88 
f 68 66 88 
f 67 87 88 
f 73 80 92 
f 74 83 92 
f 69 86 94 
f 86 74 94 
f 91 69 94 
f 71 70 95 
f 75 85 96 
f 70 77 97 
f 77 75 97 
f 75 82 97 
f 82 70 97 
f 82 75 98 
f 70 82 98 
f 76 90 98 
f 75 96 98 
f 96 76 98 
f 89 65 99 
f 75 68 100 
f 68 80 100 
f 74 92 101 
f 92 80 101 
f 90 76 102 
f 81 90 102 
f 93 65 102 
f 92 83 103 
f 65 93 103 
f 83 99 103 
f 99 65 103 
f 68 88 104 
f 73 75 105 
f 80 73 105 
f 75 100 105 
f 100 80 105 
f 71 95 106 
f 95 81 106 
f 80 68 107 
f 68 84 107 
f 101 80 107 
f 84 101 107 
f 65 89 108 
f 102 65 108 
f 81 102 108 
f 88 78 109 
f 78 91 109 
f 91 94 109 
f 104 88 109 
f 94 104 109 
f 72 69 110 
f 78 72 110 
f 69 91 110 
f 91 78 110 
f 90 81 111 
f 95 70 111 
f 81 95 111 
f 70 98 111 
f 98 90 111 
f 76 96 112 
f 96 85 112 
f 102 76 112 
f 93 102 112 
f 79 71 113 
f 71 106 113 
f 106 81 113 
f 81 108 113 
f 108 89 113 
f 87 78 114 
f 78 88 114 
f 88 87 114 
f 84 68 115 
f 94 84 115 
f 68 104 115 
f 104 94 115 
f 86 79 116 
f 83 86 116 
f 99 83 116 
f 99 116 117 
f 89 99 117 
f 79 113 117 
f 113 89 117 
f 116 79 117 
f 84 94 118 
f 94 74 118 
f 101 84 118 
f 74 101 118 
f 85 73 119 
f 73 92 119 
f 92 103 119 
f 103 93 119 
f 112 85 119 
o convex_2
v 0.267850 0.281286 -0.080310
v 0.485606 0.298906 0.025688
v 0.485606 0.287155 0.025688
v 0.314956 0.287155 0.284593
v 0.314956 0.357788 0.025648
v 0.226652 0.228286 0.190453
v 0.467960 0.234180 -0.021422
v 0.397302 0.228286 0.266927
v 0.403209 0.334222 0.243412
v 0.456171 0.345999 -0.068532
v 0.338458 0.234180 -0.097976
v 0.250179 0.346012 0.019800
v 0.332576 0.346012 -0.097976
v 0.226652 0.228286 0.049203
v 0.332576 0.334222 0.255189
v 0.409091 0.245956 -0.109753
v 0.479724 0.345999 0.019800
v 0.420855 0.293037 0.266927
v 0.379656 0.357788 0.102081
v 0.256087 0.346012 -0.044977
v 0.409091 0.228286 -0.039088
v 0.479724 0.240062 0.025688
v 0.473842 0.263615 -0.062643
v 0.344365 0.234180 0.284593
v 0.350247 0.316564 -0.115642
v 0.303192 0.310695 0.255189
v 0.379656 0.310695 0.290522
v 0.261968 0.245956 -0.068492
v 0.361985 0.346012 0.231594
v 0.426762 0.257733 0.243412
v 0.391420 0.357788 -0.009685
v 0.338458 0.251851 -0.115642
v 0.420855 0.316564 -0.103865
v 0.385538 0.351893 -0.092087
v 0.479724 0.345999 -0.027311
v 0.391420 0.251851 0.290522
v 0.261968 0.316564 -0.074421
v 0.309049 0.228286 0.266927
v 0.226652 0.234180 0.190453
v 0.473842 0.240062 -0.056714
v 0.467960 0.316577 -0.074421
v 0.379656 0.346012 0.231594
v 0.485606 0.275391 -0.027311
v 0.314956 0.351893 -0.080310
v 0.309049 0.316564 -0.103865
v 0.414973 0.357788 0.049203
v 0.244297 0.298919 -0.027311
v 0.409091 0.234180 -0.092087
v 0.414973 0.228286 0.219857
v 0.350247 0.322446 0.284593
v 0.356129 0.275378 0.296411
v 0.414973 0.310695 0.266927
v 0.332576 0.357788 0.084536
v 0.391420 0.310695 -0.115642
v 0.309049 0.251851 0.278704
v 0.273732 0.234180 -0.056754
v 0.332576 0.228286 -0.044977
v 0.309049 0.245956 -0.103865
v 0.261968 0.346012 0.055092
v 0.462079 0.269509 -0.080269
v 0.438526 0.228286 0.013871
v 0.250179 0.346012 -0.027311
v 0.438526 0.351893 -0.056714
v 0.273732 0.346012 -0.068492
f 164 156 183 
f 127 125 133 
f 122 121 137 
f 121 136 137 
f 127 133 140 
f 122 137 149 
f 141 122 149 
f 124 138 150 
f 135 130 151 
f 144 132 153 
f 129 152 153 
f 136 121 154 
f 143 127 155 
f 137 146 155 
f 149 137 155 
f 127 149 155 
f 120 147 156 
f 125 127 157 
f 127 143 157 
f 133 125 158 
f 123 145 158 
f 145 131 158 
f 141 126 159 
f 152 129 160 
f 129 154 160 
f 128 136 161 
f 138 148 161 
f 121 122 162 
f 122 141 162 
f 154 121 162 
f 141 159 162 
f 159 142 162 
f 142 160 162 
f 160 154 162 
f 139 124 163 
f 124 150 163 
f 153 132 163 
f 150 153 163 
f 132 144 164 
f 144 151 164 
f 120 156 164 
f 150 138 165 
f 136 154 165 
f 161 136 165 
f 138 161 165 
f 147 133 166 
f 156 147 166 
f 130 135 167 
f 126 140 167 
f 140 130 167 
f 135 159 167 
f 159 126 167 
f 127 140 168 
f 126 141 168 
f 149 127 168 
f 141 149 168 
f 145 123 169 
f 134 145 169 
f 146 128 169 
f 148 134 169 
f 128 161 169 
f 161 148 169 
f 143 155 170 
f 155 146 170 
f 169 123 170 
f 146 169 170 
f 136 128 171 
f 137 136 171 
f 128 146 171 
f 146 137 171 
f 124 131 172 
f 138 124 172 
f 148 138 172 
f 135 151 173 
f 151 144 173 
f 152 135 173 
f 144 153 173 
f 153 152 173 
f 125 157 174 
f 157 143 174 
f 123 158 174 
f 158 125 174 
f 170 123 174 
f 143 170 174 
f 133 147 175 
f 140 133 176 
f 130 140 176 
f 175 130 176 
f 133 175 176 
f 147 120 177 
f 151 130 177 
f 120 164 177 
f 164 151 177 
f 130 175 177 
f 175 147 177 
f 131 145 178 
f 145 134 178 
f 134 148 178 
f 172 131 178 
f 148 172 178 
f 135 152 179 
f 159 135 179 
f 142 159 179 
f 160 142 179 
f 152 160 179 
f 140 126 180 
f 126 168 180 
f 168 140 180 
f 131 124 181 
f 124 139 181 
f 139 156 181 
f 133 158 181 
f 158 131 181 
f 166 133 181 
f 156 166 181 
f 153 150 182 
f 129 153 182 
f 154 129 182 
f 150 165 182 
f 165 154 182 
f 156 139 183 
f 139 163 183 
f 163 132 183 
f 132 164 183 
o convex_3
v -0.391449 -0.360362 0.037426
v -0.244298 -0.160222 0.225746
v -0.256086 -0.160222 0.225746
v -0.338509 -0.248557 -0.115642
v -0.479731 -0.236783 0.019800
v -0.403214 -0.301491 0.284593
v -0.250180 -0.342671 0.025688
v -0.244298 -0.160222 0.031577
v -0.473825 -0.342691 -0.056754
v -0.326721 -0.325020 0.266927
v -0.267850 -0.342671 -0.068532
v -0.397308 -0.219092 0.255189
v -0.320838 -0.160222 0.043355
v -0.456178 -0.236783 -0.068492
v -0.467966 -0.342691 0.060981
v -0.379685 -0.342691 0.243412
v -0.391449 -0.348568 -0.097976
v -0.320838 -0.160222 0.196302
v -0.244298 -0.236763 0.196302
v -0.350273 -0.242660 0.290522
v -0.261968 -0.266169 -0.074380
v -0.420861 -0.272027 0.266927
v -0.397308 -0.242660 -0.109753
v -0.297286 -0.289698 0.266967
v -0.244298 -0.313246 -0.021422
v -0.332603 -0.360362 0.055092
v -0.485613 -0.295575 0.025648
v -0.338509 -0.307369 -0.115642
v -0.344367 -0.342691 0.243412
v -0.409096 -0.313265 -0.109753
v -0.479731 -0.236783 -0.027311
v -0.326721 -0.283820 0.290522
v -0.467966 -0.266149 -0.074421
v -0.420861 -0.319123 0.237523
v -0.379685 -0.219092 0.272815
v -0.320838 -0.348568 -0.092087
v -0.385567 -0.360362 0.084536
v -0.479731 -0.342691 0.025648
v -0.279615 -0.242660 -0.080269
v -0.379685 -0.313265 0.290522
v -0.385567 -0.201441 0.219857
v -0.297286 -0.301472 0.255189
v -0.485613 -0.307369 -0.027311
v -0.391449 -0.254434 0.290522
v -0.261968 -0.348568 -0.033199
v -0.414978 -0.236783 0.249260
v -0.420861 -0.295575 0.266927
v -0.297286 -0.313246 -0.097976
v -0.467966 -0.348568 -0.033159
v -0.332603 -0.354445 -0.056754
v -0.397308 -0.330897 0.261078
v -0.250180 -0.277924 -0.050825
v -0.273733 -0.348568 0.055132
v -0.391449 -0.248557 -0.115642
v -0.456178 -0.348568 0.055092
v -0.314956 -0.160222 0.037426
v -0.397308 -0.354445 -0.056754
v -0.379685 -0.236783 -0.103865
v -0.462060 -0.330897 -0.074421
v -0.314956 -0.325020 0.249260
v -0.432649 -0.248557 -0.097976
v -0.426743 -0.260292 0.243412
v -0.314956 -0.160222 0.208039
v -0.309074 -0.248557 -0.103865
f 231 211 247 
f 186 185 191 
f 186 191 196 
f 196 188 201 
f 186 196 201 
f 191 185 202 
f 202 185 207 
f 202 190 208 
f 191 202 208 
f 211 200 213 
f 188 196 214 
f 196 197 214 
f 210 188 214 
f 185 203 215 
f 193 207 215 
f 207 185 215 
f 214 197 216 
f 185 186 218 
f 203 185 218 
f 200 211 219 
f 184 209 220 
f 212 199 220 
f 209 212 220 
f 198 217 221 
f 191 204 222 
f 212 193 223 
f 199 212 223 
f 193 215 223 
f 215 203 223 
f 188 195 224 
f 201 188 224 
f 190 202 225 
f 207 193 225 
f 202 207 225 
f 210 214 226 
f 216 192 226 
f 214 216 226 
f 192 221 226 
f 221 210 226 
f 205 189 227 
f 218 195 227 
f 203 218 227 
f 189 223 227 
f 223 203 227 
f 208 190 228 
f 194 208 228 
f 219 194 228 
f 195 188 229 
f 227 195 229 
f 205 227 229 
f 189 205 230 
f 205 210 230 
f 210 221 230 
f 221 217 230 
f 204 194 231 
f 194 219 231 
f 219 211 231 
f 192 200 232 
f 184 220 232 
f 221 192 232 
f 209 184 233 
f 200 219 233 
f 228 209 233 
f 219 228 233 
f 198 199 234 
f 217 198 234 
f 223 189 234 
f 199 223 234 
f 189 230 234 
f 230 217 234 
f 204 191 235 
f 194 204 235 
f 208 194 235 
f 191 208 235 
f 190 212 236 
f 212 209 236 
f 228 190 236 
f 209 228 236 
f 206 187 237 
f 187 211 237 
f 211 213 237 
f 199 198 238 
f 220 199 238 
f 198 221 238 
f 232 220 238 
f 221 232 238 
f 196 191 239 
f 197 196 239 
f 206 197 239 
f 184 232 240 
f 232 200 240 
f 233 184 240 
f 200 233 240 
f 191 187 241 
f 187 206 241 
f 239 191 241 
f 206 239 241 
f 200 192 242 
f 213 200 242 
f 192 216 242 
f 216 213 242 
f 212 190 243 
f 193 212 243 
f 190 225 243 
f 225 193 243 
f 197 206 244 
f 216 197 244 
f 213 216 244 
f 206 237 244 
f 237 213 244 
f 188 210 245 
f 210 205 245 
f 229 188 245 
f 205 229 245 
f 186 201 246 
f 218 186 246 
f 195 218 246 
f 224 195 246 
f 201 224 246 
f 187 191 247 
f 211 187 247 
f 191 222 247 
f 222 204 247 
f 204 231 247 
o convex_4
v -0.250182 0.092895 0.596575
v -0.267844 -0.160222 0.031543
v -0.244291 -0.160222 0.031543
v -0.250182 0.122315 0.007992
v -0.350229 0.051673 0.355197
v -0.250182 -0.124901 0.573024
v -0.320807 -0.160222 0.043408
v -0.303156 0.128215 0.043408
v -0.326698 -0.071906 0.478882
v -0.244291 0.128215 0.567152
v -0.350229 -0.018911 0.214074
v -0.326698 0.075220 0.472950
v -0.320807 -0.160222 0.202329
v -0.244291 0.081121 -0.009686
v -0.303156 -0.013067 0.561279
v -0.244291 -0.148448 0.437654
v -0.350229 -0.042487 0.384620
v -0.332578 0.028126 0.102194
v -0.303156 0.128215 0.202329
v -0.261953 -0.042487 -0.009686
v -0.244291 -0.071906 0.602508
v -0.344349 0.075220 0.278793
v -0.344349 0.004579 0.449399
v -0.244291 0.128215 0.025670
v -0.309036 0.063447 0.537669
v -0.279625 0.016353 0.002120
v -0.244291 -0.083680 -0.009686
v -0.344349 0.057574 0.202329
v -0.291385 -0.077807 0.561279
v -0.273734 0.004579 0.596575
v -0.261953 0.128215 0.520051
v -0.350229 -0.054260 0.278793
v -0.338469 0.075220 0.414104
v -0.244291 -0.160222 0.225819
v -0.326698 -0.007194 0.514118
v -0.279625 0.092895 0.567152
v -0.338469 -0.077807 0.402358
v -0.320807 -0.077807 0.490628
v -0.344349 0.010480 0.161100
v -0.314917 0.028126 0.049280
v -0.338469 0.045801 0.461145
v -0.261953 -0.071906 0.596575
v -0.291385 0.045801 0.573024
v -0.244291 -0.136675 0.525983
v -0.297266 0.010480 0.019797
v -0.244291 0.069348 0.602508
v -0.350229 0.039900 0.243497
v -0.314917 0.098768 0.402358
v -0.261953 0.045801 -0.009686
v -0.338469 -0.036586 0.467017
v -0.314917 -0.048359 0.531796
v -0.314917 -0.160222 0.037415
v -0.250182 -0.154321 0.372935
v -0.279625 -0.107227 0.537669
f 276 285 301 
f 249 250 254 
f 254 250 260 
f 255 251 261 
f 257 250 261 
f 250 257 263 
f 252 258 264 
f 257 255 266 
f 263 257 268 
f 266 255 269 
f 252 264 270 
f 251 255 271 
f 255 257 271 
f 261 251 271 
f 257 261 271 
f 250 249 274 
f 261 250 274 
f 267 261 274 
f 255 265 275 
f 269 255 275 
f 257 266 278 
f 258 254 279 
f 254 260 279 
f 264 258 279 
f 260 264 279 
f 269 252 280 
f 266 269 280 
f 259 278 280 
f 260 250 281 
f 250 263 281 
f 262 272 282 
f 248 257 283 
f 259 272 283 
f 257 278 283 
f 278 259 283 
f 264 260 284 
f 256 284 285 
f 284 260 285 
f 254 258 286 
f 265 254 286 
f 275 265 286 
f 265 255 287 
f 254 265 287 
f 252 270 288 
f 272 259 288 
f 280 252 288 
f 259 280 288 
f 270 282 288 
f 282 272 288 
f 253 268 289 
f 276 253 289 
f 262 276 289 
f 268 277 289 
f 277 262 289 
f 272 262 290 
f 277 248 290 
f 262 277 290 
f 248 283 290 
f 283 272 290 
f 253 260 291 
f 260 263 291 
f 268 253 291 
f 263 268 291 
f 255 273 292 
f 287 255 292 
f 254 287 292 
f 257 248 293 
f 268 257 293 
f 277 268 293 
f 248 277 293 
f 258 252 294 
f 252 269 294 
f 269 275 294 
f 286 258 294 
f 275 286 294 
f 278 266 295 
f 266 280 295 
f 280 278 295 
f 255 261 296 
f 261 267 296 
f 273 255 296 
f 267 273 296 
f 270 264 297 
f 282 270 297 
f 284 256 297 
f 264 284 297 
f 276 262 298 
f 262 282 298 
f 285 276 298 
f 256 285 298 
f 282 297 298 
f 297 256 298 
f 249 254 299 
f 273 267 299 
f 274 249 299 
f 267 274 299 
f 254 292 299 
f 292 273 299 
f 263 260 300 
f 260 281 300 
f 281 263 300 
f 260 253 301 
f 253 276 301 
f 285 260 301 
o convex_5
v 0.361985 -0.319137 -0.115642
v 0.485606 -0.283848 0.025688
v 0.479724 -0.236753 0.019800
v 0.226652 -0.230882 0.202190
v 0.379631 -0.336801 0.261078
v 0.250205 -0.342684 -0.033159
v 0.273732 -0.236766 -0.068492
v 0.403209 -0.224999 0.255189
v 0.467960 -0.348568 -0.033199
v 0.403209 -0.230882 -0.086158
v 0.309074 -0.313253 0.261078
v 0.226652 -0.224999 0.037426
v 0.420855 -0.295602 0.266927
v 0.344365 -0.360349 0.084536
v 0.467960 -0.266184 -0.074421
v 0.332601 -0.224999 0.278704
v 0.320838 -0.348568 -0.092087
v 0.479724 -0.342698 0.025688
v 0.250205 -0.342684 0.025648
v 0.338458 -0.248533 -0.115642
v 0.261968 -0.313253 -0.074421
v 0.350247 -0.289732 0.296411
v 0.344365 -0.342684 0.243412
v 0.420855 -0.348568 -0.086158
v 0.414973 -0.224999 0.031537
v 0.397302 -0.360349 0.060981
v 0.409091 -0.248533 -0.109753
v 0.414973 -0.260314 0.272815
v 0.473842 -0.342698 -0.056714
v 0.479724 -0.236753 -0.027311
v 0.314931 -0.266197 0.284593
v 0.432644 -0.313253 -0.097976
v 0.403209 -0.336801 0.231594
v 0.309074 -0.354452 -0.039088
v 0.391420 -0.254417 0.290522
v 0.261968 -0.266197 -0.074421
v 0.320838 -0.313253 -0.109753
v 0.379631 -0.313253 0.290522
v 0.226652 -0.224999 0.202190
v 0.326694 -0.230882 -0.086158
v 0.426762 -0.260314 0.243372
v 0.485606 -0.307370 -0.027311
v 0.379631 -0.348568 0.202190
v 0.261968 -0.348568 0.019800
v 0.397302 -0.354452 -0.056754
v 0.332601 -0.313253 0.284593
v 0.414973 -0.313253 0.261078
v 0.467960 -0.236753 -0.056714
v 0.456171 -0.348568 0.055092
v 0.267850 -0.342684 -0.068492
v 0.250205 -0.301486 -0.050825
v 0.297285 -0.289732 0.266927
v 0.391420 -0.307370 -0.115642
v 0.391420 -0.348568 -0.097976
v 0.338458 -0.360349 0.037426
v 0.320838 -0.330917 0.243412
v 0.297285 -0.254417 -0.097976
v 0.350247 -0.224999 0.007982
f 311 341 359 
f 307 305 313 
f 309 313 317 
f 303 314 319 
f 305 307 320 
f 312 305 320 
f 309 304 326 
f 313 309 326 
f 321 311 328 
f 319 310 330 
f 310 325 330 
f 304 303 331 
f 326 304 331 
f 323 317 332 
f 328 316 333 
f 316 330 333 
f 330 325 333 
f 309 317 336 
f 317 323 336 
f 329 309 336 
f 314 329 336 
f 313 308 337 
f 302 318 338 
f 321 302 338 
f 314 336 339 
f 336 323 339 
f 313 305 340 
f 317 313 340 
f 305 332 340 
f 332 317 340 
f 308 313 341 
f 321 308 341 
f 311 321 341 
f 303 304 342 
f 304 309 342 
f 314 303 342 
f 309 329 342 
f 329 314 342 
f 303 319 343 
f 330 316 343 
f 319 330 343 
f 331 303 343 
f 316 331 343 
f 306 324 344 
f 324 315 344 
f 315 327 344 
f 334 306 344 
f 320 307 345 
f 315 324 345 
f 324 320 345 
f 307 335 345 
f 325 310 346 
f 310 327 346 
f 335 318 346 
f 324 306 347 
f 323 332 347 
f 306 339 347 
f 339 323 347 
f 319 314 348 
f 306 334 348 
f 334 319 348 
f 339 306 348 
f 314 339 348 
f 311 326 349 
f 328 311 349 
f 316 328 349 
f 326 331 349 
f 331 316 349 
f 310 319 350 
f 327 310 350 
f 319 334 350 
f 344 327 350 
f 334 344 350 
f 307 322 351 
f 335 307 351 
f 318 335 351 
f 322 338 351 
f 338 318 351 
f 307 313 352 
f 322 307 352 
f 313 337 352 
f 337 322 352 
f 305 312 353 
f 332 305 353 
f 312 347 353 
f 347 332 353 
f 302 321 354 
f 321 328 354 
f 328 333 354 
f 354 333 355 
f 318 302 355 
f 333 325 355 
f 325 346 355 
f 346 318 355 
f 302 354 355 
f 327 315 356 
f 315 345 356 
f 345 335 356 
f 346 327 356 
f 335 346 356 
f 312 320 357 
f 320 324 357 
f 324 347 357 
f 347 312 357 
f 308 321 358 
f 337 308 358 
f 322 337 358 
f 338 322 358 
f 321 338 358 
f 326 311 359 
f 313 326 359 
f 341 313 359 
o convex_6
v 0.214864 -0.224973 0.043305
v 0.409107 -0.219086 0.208086
v 0.409107 -0.224973 0.208086
v 0.208967 -0.177881 0.231657
v 0.326689 -0.177881 0.049186
v 0.220761 -0.224973 0.208086
v 0.208967 -0.177881 0.031520
v 0.338463 -0.177881 0.225728
v 0.356094 -0.224973 0.278752
v 0.367868 -0.224973 0.078614
v 0.397314 -0.207314 0.125732
v 0.261980 -0.224973 0.037425
v 0.208967 -0.219086 0.208086
v 0.350217 -0.177881 0.155136
v 0.373785 -0.207314 0.261061
v 0.403191 -0.224973 0.113946
v 0.303179 -0.183768 0.037425
v 0.379662 -0.195541 0.202205
v 0.208967 -0.201427 0.031520
v 0.344340 -0.177881 0.072733
v 0.397314 -0.219086 0.255180
v 0.320772 -0.224973 0.266942
v 0.350217 -0.207314 0.266942
f 368 374 382 
f 360 362 365 
f 363 364 366 
f 364 363 367 
f 365 362 368 
f 362 360 369 
f 369 360 371 
f 360 365 372 
f 363 366 372 
f 364 367 373 
f 361 362 375 
f 362 369 375 
f 369 364 375 
f 370 361 375 
f 366 364 376 
f 364 369 376 
f 369 371 376 
f 361 370 377 
f 373 367 377 
f 370 373 377 
f 371 360 378 
f 360 372 378 
f 372 366 378 
f 366 376 378 
f 376 371 378 
f 364 373 379 
f 373 370 379 
f 375 364 379 
f 370 375 379 
f 362 361 380 
f 368 362 380 
f 367 374 380 
f 374 368 380 
f 361 377 380 
f 377 367 380 
f 365 368 381 
f 368 363 381 
f 372 365 381 
f 363 372 381 
f 367 363 382 
f 363 368 382 
f 374 367 382 
o convex_7
v -0.279621 0.145882 0.031520
v -0.244306 0.134108 0.543643
v -0.244306 0.128215 0.543643
v -0.320816 0.169421 0.208126
v -0.244306 0.169421 0.031520
v -0.309034 0.128215 0.190530
v -0.244306 0.128215 0.031520
v -0.320816 0.169421 0.043300
v -0.244306 0.169421 0.225822
v -0.309034 0.128215 0.049215
v -0.320816 0.145882 0.202311
v -0.250186 0.128215 0.543643
v -0.250186 0.145882 0.461230
v -0.320816 0.145882 0.043300
f 392 393 396 
f 384 385 387 
f 383 387 389 
f 387 385 389 
f 385 388 389 
f 387 383 390 
f 386 387 390 
f 387 386 391 
f 384 387 391 
f 383 389 392 
f 389 388 392 
f 386 390 393 
f 392 388 393 
f 393 388 394 
f 385 384 394 
f 384 386 394 
f 388 385 394 
f 386 393 394 
f 386 384 395 
f 384 391 395 
f 391 386 395 
f 390 383 396 
f 383 392 396 
f 393 390 396 
o convex_8
v -0.391447 0.357788 -0.009685
v -0.244315 0.187103 0.219857
v -0.244315 0.169421 0.219857
v -0.420859 0.269486 0.266927
v -0.473848 0.240077 -0.056754
v -0.250197 0.346006 -0.027311
v -0.344364 0.334205 0.266927
v -0.244315 0.169421 0.031577
v -0.338481 0.251859 -0.115642
v -0.473848 0.346006 -0.050825
v -0.332599 0.169421 0.208039
v -0.479731 0.346006 0.019800
v -0.385564 0.340124 -0.103865
v -0.479731 0.240077 0.025648
v -0.303187 0.293014 0.272815
v -0.385564 0.228313 0.278704
v -0.261962 0.316560 -0.074380
v -0.379682 0.346006 0.231594
v -0.326716 0.169421 0.049203
v -0.409094 0.245977 -0.109753
v -0.250197 0.346006 0.019800
v -0.403212 0.304796 0.284593
v -0.244315 0.234195 0.202190
v -0.261962 0.245977 -0.068532
v -0.332599 0.257722 0.290522
v -0.332599 0.357788 0.084536
v -0.326716 0.351888 -0.086158
v -0.403212 0.216531 0.225746
v -0.244315 0.298914 -0.027311
v -0.485637 0.298896 0.025648
v -0.462083 0.310678 -0.080310
v -0.338481 0.310678 -0.115642
v -0.409094 0.357788 0.066910
v -0.303187 0.310678 0.255189
v -0.391447 0.234177 -0.097976
v -0.414977 0.310678 0.266927
v -0.309069 0.245977 -0.103865
v -0.391447 0.310678 -0.115642
v -0.350270 0.287150 0.296411
v -0.338481 0.340124 0.243412
v -0.414977 0.240077 0.255189
v -0.397329 0.328342 0.266927
v -0.485637 0.304796 -0.027311
v -0.403212 0.351888 -0.086158
v -0.314952 0.357788 0.025648
v -0.426741 0.293014 0.249260
v -0.338481 0.222413 0.278704
v -0.391447 0.251859 0.290522
v -0.332599 0.169421 0.072758
v -0.332599 0.175321 0.225746
v -0.391447 0.204749 0.219857
v -0.338481 0.234177 -0.097976
v -0.273727 0.346006 -0.068532
v -0.350270 0.322460 0.284593
v -0.438530 0.234177 -0.074421
v -0.309069 0.169421 0.037426
v -0.479731 0.240077 -0.033159
v -0.450295 0.334205 -0.080310
v -0.467966 0.269486 -0.074421
v -0.309069 0.316560 -0.103865
v -0.467966 0.346006 0.055092
v -0.261962 0.346006 0.055132
v -0.314952 0.287150 0.284593
v -0.450295 0.351888 -0.033159
f 440 406 460 
f 398 399 404 
f 404 399 407 
f 404 407 415 
f 398 404 419 
f 411 398 419 
f 413 402 425 
f 402 417 425 
f 419 404 425 
f 417 419 425 
f 404 420 425 
f 420 413 425 
f 410 400 426 
f 409 423 428 
f 422 397 429 
f 414 422 429 
f 411 419 430 
f 419 417 430 
f 416 405 431 
f 400 418 432 
f 420 404 433 
f 413 420 433 
f 405 428 433 
f 405 416 434 
f 416 427 434 
f 428 405 434 
f 409 428 434 
f 414 403 436 
f 422 414 436 
f 403 430 436 
f 400 410 437 
f 410 424 437 
f 424 412 437 
f 403 414 438 
f 432 418 438 
f 408 406 439 
f 426 408 439 
f 397 423 440 
f 423 409 440 
f 417 402 441 
f 397 422 441 
f 422 417 441 
f 423 397 441 
f 402 423 441 
f 426 400 442 
f 408 426 442 
f 432 408 442 
f 400 432 442 
f 399 421 443 
f 443 421 444 
f 418 400 444 
f 435 418 444 
f 421 435 444 
f 400 437 444 
f 437 412 444 
f 412 443 444 
f 407 410 445 
f 401 415 445 
f 415 407 445 
f 407 399 446 
f 399 443 446 
f 443 412 446 
f 410 407 447 
f 424 410 447 
f 412 424 447 
f 407 446 447 
f 446 412 447 
f 404 431 448 
f 431 405 448 
f 433 404 448 
f 405 433 448 
f 402 413 449 
f 423 402 449 
f 430 403 450 
f 411 430 450 
f 418 435 450 
f 403 438 450 
f 438 418 450 
f 415 401 451 
f 401 416 451 
f 416 431 451 
f 451 431 452 
f 404 415 452 
f 431 404 452 
f 415 451 452 
f 410 426 453 
f 439 401 453 
f 426 439 453 
f 445 410 453 
f 401 445 453 
f 427 406 454 
f 409 434 454 
f 434 427 454 
f 406 440 454 
f 440 409 454 
f 416 401 455 
f 406 427 455 
f 427 416 455 
f 439 406 455 
f 401 439 455 
f 428 423 456 
f 413 433 456 
f 433 428 456 
f 449 413 456 
f 423 449 456 
f 429 408 457 
f 414 429 457 
f 408 432 457 
f 438 414 457 
f 432 438 457 
f 417 422 458 
f 430 417 458 
f 422 436 458 
f 436 430 458 
f 399 398 459 
f 398 411 459 
f 421 399 459 
f 435 421 459 
f 411 450 459 
f 450 435 459 
f 406 408 460 
f 429 397 460 
f 408 429 460 
f 397 440 460 
o convex_9
v 0.203081 0.139993 -0.009662
v 0.356129 0.187080 0.178657
v 0.356129 0.181186 0.178657
v 0.203081 0.187080 0.231636
v 0.267845 0.128215 0.231636
v 0.203081 0.187080 0.031554
v 0.314901 0.139993 0.037435
v 0.203081 0.128215 0.231636
v 0.326691 0.187080 0.049198
v 0.309013 0.128215 0.049198
v 0.338451 0.187080 0.231636
v 0.303140 0.128215 0.213969
v 0.203081 0.128215 -0.009662
v 0.350241 0.181186 0.078628
v 0.297253 0.187080 0.037435
v 0.309013 0.128215 0.190420
f 472 470 476 
f 464 462 466 
f 461 464 466 
f 464 461 468 
f 465 464 468 
f 466 462 469 
f 467 461 469 
f 465 468 470 
f 463 462 471 
f 462 464 471 
f 464 465 471 
f 471 465 472 
f 465 470 472 
f 463 471 472 
f 461 467 473 
f 468 461 473 
f 467 470 473 
f 470 468 473 
f 462 463 474 
f 469 462 474 
f 467 469 474 
f 463 470 474 
f 470 467 474 
f 461 466 475 
f 466 469 475 
f 469 461 475 
f 470 463 476 
f 463 472 476 
o convex_10
v 0.203081 0.151765 0.584832
v 0.273718 0.134110 0.378880
v 0.273718 0.128215 0.378880
v 0.203081 0.128215 0.231660
v 0.208972 0.187080 0.243449
v 0.267827 0.128215 0.231660
v 0.203081 0.128215 0.596621
v 0.203081 0.181186 0.443506
v 0.244277 0.134110 0.567184
v 0.208972 0.181186 0.443506
v 0.203081 0.181186 0.231660
v 0.273718 0.134110 0.255238
v 0.208972 0.163531 0.567184
v 0.208972 0.187080 0.372950
v 0.250161 0.128215 0.543642
f 485 483 491 
f 479 480 482 
f 480 479 483 
f 477 480 483 
f 480 477 484 
f 477 483 485 
f 485 478 486 
f 482 480 487 
f 481 482 487 
f 480 484 487 
f 484 481 487 
f 478 479 488 
f 481 478 488 
f 479 482 488 
f 482 481 488 
f 484 477 489 
f 477 485 489 
f 486 484 489 
f 485 486 489 
f 478 481 490 
f 481 484 490 
f 486 478 490 
f 484 486 490 
f 479 478 491 
f 483 479 491 
f 478 485 491 
o convex_11
v 0.208990 0.222393 0.055067
v 0.409107 0.228286 0.225728
v 0.397309 0.228286 0.261061
v 0.361997 0.187080 0.213967
v 0.203081 0.187080 0.225728
v 0.326664 0.187080 0.049186
v 0.403198 0.228286 0.072733
v 0.220747 0.228286 0.202205
v 0.203081 0.187080 0.031520
v 0.256059 0.228286 0.037425
v 0.344351 0.222393 0.278752
v 0.385532 0.198858 0.119851
v 0.344351 0.187080 0.237538
v 0.203081 0.210619 0.213967
v 0.326664 0.228286 0.272822
v 0.361997 0.187080 0.090399
v 0.291412 0.192973 0.037425
v 0.367886 0.228286 0.055067
v 0.409107 0.222393 0.225728
v 0.226636 0.228286 0.037425
v 0.379663 0.210619 0.261061
v 0.403198 0.222393 0.072733
f 510 503 513 
f 495 496 497 
f 494 493 498 
f 494 498 499 
f 497 496 500 
f 499 498 501 
f 496 495 504 
f 502 496 504 
f 499 492 505 
f 492 500 505 
f 500 496 505 
f 494 499 506 
f 502 494 506 
f 496 502 506 
f 499 505 506 
f 505 496 506 
f 495 497 507 
f 503 495 507 
f 497 500 508 
f 500 501 508 
f 508 501 509 
f 501 498 509 
f 497 508 509 
f 493 494 510 
f 498 493 510 
f 495 503 510 
f 492 499 511 
f 500 492 511 
f 499 501 511 
f 501 500 511 
f 494 502 512 
f 504 495 512 
f 502 504 512 
f 510 494 512 
f 495 510 512 
f 507 497 513 
f 503 507 513 
f 497 509 513 
f 509 498 513 
f 498 510 513 
