o convex_0
v -0.088356 0.018859 -0.022963
v -0.076941 0.018859 -0.001082
v -0.076941 0.017432 -0.001082
v -0.076941 0.017908 -0.022963
v -0.086452 0.021713 -0.002035
v -0.087879 0.018384 -0.001082
v -0.076941 0.020286 -0.016777
v -0.085976 0.017908 -0.017251
v -0.076941 0.020286 -0.003461
v -0.088356 0.019335 -0.022963
v -0.085976 0.021713 -0.006792
v -0.088356 0.019335 -0.001082
v -0.077417 0.017432 -0.017251
v -0.076941 0.018859 -0.022963
v -0.085976 0.017908 -0.001082
v -0.087879 0.018384 -0.022483
v -0.078369 0.017432 -0.001082
f 15 8 17 
f 2 3 4 
f 3 2 6 
f 2 4 7 
f 5 2 9 
f 2 7 9 
f 4 1 10 
f 7 10 11 
f 5 9 11 
f 9 7 11 
f 10 5 11 
f 2 5 12 
f 6 2 12 
f 1 6 12 
f 10 1 12 
f 5 10 12 
f 4 3 13 
f 7 4 14 
f 4 10 14 
f 10 7 14 
f 3 6 15 
f 6 8 15 
f 1 4 16 
f 6 1 16 
f 8 6 16 
f 4 13 16 
f 13 8 16 
f 13 3 17 
f 8 13 17 
f 3 15 17 
o convex_1
v -0.028904 -0.013487 0.002724
v -0.057909 -0.016341 -0.013449
v -0.057909 -0.016341 -0.007737
v -0.039830 -0.018718 -0.009167
v -0.021293 -0.013487 -0.013449
v -0.055527 -0.019194 0.001771
v -0.051246 -0.013487 -0.003936
v -0.022244 -0.015391 0.002724
v -0.056961 -0.015391 0.002724
v -0.028904 -0.017292 -0.012496
v -0.051246 -0.013487 -0.013449
v -0.055527 -0.019194 -0.010593
v -0.039830 -0.018718 0.001771
v -0.021293 -0.015391 -0.013449
v -0.020813 -0.013964 0.002724
v -0.024622 -0.016341 0.000344
v -0.057909 -0.015391 -0.013449
v -0.045538 -0.013964 0.002247
v -0.051246 -0.019194 -0.010593
v -0.021768 -0.013487 0.002724
v -0.053624 -0.013964 -0.002033
v -0.056961 -0.016341 0.002724
v -0.050770 -0.019194 0.001771
v -0.036990 -0.013487 0.002247
f 24 35 41 
f 20 19 23 
f 18 22 24 
f 25 18 26 
f 22 19 28 
f 24 22 28 
f 23 19 29 
f 21 27 30 
f 19 22 31 
f 27 19 31 
f 18 25 32 
f 31 22 32 
f 25 31 32 
f 25 30 33 
f 30 27 33 
f 31 25 33 
f 27 31 33 
f 19 20 34 
f 20 26 34 
f 28 19 34 
f 26 18 35 
f 19 27 36 
f 27 21 36 
f 29 19 36 
f 23 29 36 
f 22 18 37 
f 18 32 37 
f 32 22 37 
f 24 28 38 
f 34 26 38 
f 28 34 38 
f 35 24 38 
f 26 35 38 
f 20 23 39 
f 25 26 39 
f 26 20 39 
f 21 30 40 
f 30 25 40 
f 36 21 40 
f 23 36 40 
f 39 23 40 
f 25 39 40 
f 18 24 41 
f 35 18 41 
o convex_2
v -0.065043 0.019810 0.016043
v -0.088356 0.018383 0.016043
v -0.086922 0.016957 0.017471
v -0.084548 0.020762 0.021750
v -0.020810 0.014578 0.023177
v -0.088356 0.014578 0.023177
v -0.020810 0.014578 0.016043
v -0.022238 0.016482 0.020800
v -0.053168 0.014578 0.016043
v -0.088356 0.018858 0.023177
v -0.084548 0.020762 0.016043
v -0.021762 0.015530 0.016043
v -0.088356 0.014578 0.021275
v -0.066947 0.016957 0.023654
v -0.026046 0.015530 0.023177
v -0.075033 0.020286 0.021750
v -0.047449 0.014578 0.023654
v -0.023190 0.016482 0.018422
v -0.078842 0.018858 0.023177
v -0.065043 0.019810 0.018897
v -0.058385 0.019334 0.016043
v -0.087880 0.019334 0.016043
v -0.082161 0.020762 0.018422
v -0.072177 0.016482 0.023654
f 58 55 65 
f 43 42 48 
f 46 47 48 
f 46 48 49 
f 44 43 50 
f 43 48 50 
f 48 47 50 
f 43 47 51 
f 42 43 52 
f 48 42 53 
f 49 48 53 
f 43 44 54 
f 47 43 54 
f 44 50 54 
f 50 47 54 
f 46 49 56 
f 56 49 57 
f 47 46 58 
f 56 55 58 
f 46 56 58 
f 49 53 59 
f 45 51 60 
f 51 55 60 
f 55 56 60 
f 57 45 60 
f 56 57 60 
f 57 49 61 
f 53 42 62 
f 49 59 62 
f 59 53 62 
f 42 61 62 
f 61 49 62 
f 43 51 63 
f 51 45 63 
f 52 43 63 
f 45 52 63 
f 42 52 64 
f 52 45 64 
f 45 57 64 
f 61 42 64 
f 57 61 64 
f 51 47 65 
f 55 51 65 
f 47 58 65 
o convex_3
v -0.016053 -0.013963 -0.018680
v -0.058389 -0.016341 -0.023438
v -0.058389 -0.014915 -0.023438
v -0.058389 -0.016341 -0.013450
v -0.029853 -0.017293 -0.016304
v -0.023666 -0.013487 -0.013449
v -0.020346 -0.013963 -0.023438
v -0.056955 -0.013963 -0.017256
v -0.026044 -0.016341 -0.021534
v -0.021291 -0.015390 -0.013450
v -0.058389 -0.013963 -0.022960
v -0.050291 -0.013963 -0.013450
v -0.034614 -0.017293 -0.013927
v -0.016053 -0.014439 -0.021534
v -0.036993 -0.016817 -0.021534
v -0.023666 -0.014915 -0.023438
v -0.021287 -0.013487 -0.015352
v -0.058389 -0.015390 -0.013450
v -0.021772 -0.015865 -0.021534
v -0.029853 -0.017293 -0.013927
v -0.046495 -0.016817 -0.021534
v -0.021287 -0.013487 -0.013449
v -0.021772 -0.015865 -0.018207
f 85 84 88 
f 68 67 69 
f 67 68 72 
f 68 69 76 
f 72 68 76 
f 73 71 76 
f 71 73 77 
f 69 67 78 
f 72 66 79 
f 66 75 79 
f 74 70 80 
f 74 80 81 
f 67 72 81 
f 72 79 81 
f 80 67 81 
f 66 72 82 
f 72 76 82 
f 76 71 82 
f 69 71 83 
f 76 69 83 
f 73 76 83 
f 71 77 83 
f 77 73 83 
f 70 74 84 
f 74 81 84 
f 81 79 84 
f 75 69 85 
f 69 78 85 
f 78 70 85 
f 70 84 85 
f 78 67 86 
f 70 78 86 
f 67 80 86 
f 80 70 86 
f 71 69 87 
f 69 75 87 
f 75 66 87 
f 66 82 87 
f 82 71 87 
f 79 75 88 
f 84 79 88 
f 75 85 88 
o convex_4
v -0.075988 -0.013963 -0.013450
v -0.071710 0.013151 -0.017255
v -0.071710 0.013151 -0.023438
v -0.088356 0.009342 -0.017255
v -0.088356 -0.013963 -0.023438
v -0.060770 -0.013963 -0.023438
v -0.060770 0.006964 -0.015829
v -0.063622 -0.013963 -0.013451
v -0.079317 0.008392 -0.013450
v -0.088356 0.009342 -0.023438
v -0.060770 0.010770 -0.023438
v -0.082172 -0.012057 -0.013450
v -0.066476 0.008867 -0.023913
v -0.064575 0.002208 -0.013451
v -0.060770 -0.012532 -0.015829
v -0.088356 -0.013963 -0.021059
v -0.060770 0.010770 -0.017255
v -0.060770 -0.006826 -0.023913
v -0.083123 0.004586 -0.013450
v -0.075034 0.013151 -0.017255
v -0.062196 -0.001120 -0.013927
v -0.075034 0.013151 -0.023438
v -0.080268 -0.013963 -0.013450
v -0.066001 0.003636 -0.013451
v -0.077892 0.008392 -0.013450
v -0.088356 0.007917 -0.017255
v -0.065526 -0.006826 -0.023913
v -0.062671 0.008392 -0.023913
f 106 101 116 
f 89 93 94 
f 89 94 96 
f 93 92 98 
f 91 90 99 
f 95 94 99 
f 89 97 100 
f 93 98 101 
f 89 96 102 
f 94 95 103 
f 96 94 103 
f 93 89 104 
f 92 93 104 
f 99 90 105 
f 95 99 105 
f 94 93 106 
f 99 94 106 
f 97 92 107 
f 100 97 107 
f 90 91 108 
f 97 90 108 
f 92 97 108 
f 98 92 108 
f 102 96 109 
f 95 102 109 
f 103 95 109 
f 96 103 109 
f 91 101 110 
f 101 98 110 
f 108 91 110 
f 98 108 110 
f 89 100 111 
f 104 89 111 
f 100 104 111 
f 102 95 112 
f 95 105 112 
f 112 105 113 
f 90 97 113 
f 97 89 113 
f 89 102 113 
f 105 90 113 
f 102 112 113 
f 92 104 114 
f 104 100 114 
f 107 92 114 
f 100 107 114 
f 93 101 115 
f 106 93 115 
f 101 106 115 
f 91 99 116 
f 101 91 116 
f 99 106 116 
o convex_5
v 0.008205 -0.004448 -0.013449
v 0.000116 0.011724 -0.009645
v 0.000594 0.010772 -0.008693
v -0.017478 -0.006348 -0.006790
v -0.017478 0.001258 -0.013449
v 0.008679 -0.003020 -0.007266
v -0.000832 -0.011585 -0.011547
v -0.017478 0.006015 -0.006790
v 0.005351 0.007918 -0.013449
v -0.012721 -0.008730 -0.013449
v -0.012244 0.008870 -0.013449
v 0.010108 0.006013 -0.009644
v 0.004876 -0.010154 -0.009169
v 0.005351 0.007441 -0.007266
v 0.011536 -0.001117 -0.011546
v 0.001545 -0.008730 -0.007266
v 0.003448 -0.003020 -0.006790
v -0.017478 -0.006348 -0.012022
v 0.003448 -0.008730 -0.013449
v -0.000832 -0.011585 -0.009645
v 0.010108 -0.005874 -0.011546
v 0.005828 0.010296 -0.011546
v 0.009634 0.005062 -0.012498
v -0.017478 0.006015 -0.011547
v 0.001068 0.011247 -0.012022
v 0.005828 -0.010156 -0.011546
v 0.010108 -0.005399 -0.009169
v 0.003448 0.003161 -0.006790
v 0.011059 0.001733 -0.009169
v 0.005828 0.010296 -0.009644
v 0.001545 0.008870 -0.007266
v 0.008679 0.002684 -0.007266
v 0.009156 0.002210 -0.013449
v 0.005348 -0.007300 -0.007266
v 0.001068 0.009344 -0.013449
v -0.000358 -0.009682 -0.007742
v -0.005589 0.010296 -0.009645
v 0.010108 0.006013 -0.011546
v 0.001545 -0.010633 -0.012498
v -0.000358 0.011724 -0.011547
v -0.017478 -0.001591 -0.013449
v 0.011536 -0.001117 -0.009644
v 0.005828 -0.010156 -0.009644
v 0.009634 -0.005399 -0.012498
f 149 131 160 
f 119 118 124 
f 121 120 124 
f 125 121 127 
f 124 120 133 
f 120 132 133 
f 120 121 134 
f 126 120 134 
f 126 117 135 
f 120 126 136 
f 126 123 136 
f 125 138 139 
f 121 124 140 
f 124 127 140 
f 127 121 140 
f 138 125 141 
f 136 123 142 
f 124 133 144 
f 133 122 144 
f 118 119 146 
f 130 128 146 
f 138 118 146 
f 128 138 146 
f 119 124 147 
f 124 144 147 
f 144 130 147 
f 146 119 147 
f 130 146 147 
f 128 130 148 
f 130 144 148 
f 144 122 148 
f 122 145 148 
f 145 128 148 
f 117 125 149 
f 125 139 149 
f 139 131 149 
f 132 129 150 
f 122 133 150 
f 133 132 150 
f 143 122 150 
f 125 127 151 
f 127 141 151 
f 141 125 151 
f 132 120 152 
f 129 132 152 
f 120 136 152 
f 136 129 152 
f 124 118 153 
f 118 127 153 
f 127 124 153 
f 138 128 154 
f 131 139 154 
f 139 138 154 
f 128 145 154 
f 145 131 154 
f 123 126 155 
f 126 135 155 
f 135 142 155 
f 142 123 155 
f 127 118 156 
f 118 138 156 
f 141 127 156 
f 138 141 156 
f 125 117 157 
f 121 125 157 
f 117 126 157 
f 134 121 157 
f 126 134 157 
f 137 131 158 
f 143 137 158 
f 122 143 158 
f 145 122 158 
f 131 145 158 
f 129 136 159 
f 136 142 159 
f 142 137 159 
f 137 143 159 
f 150 129 159 
f 143 150 159 
f 135 117 160 
f 131 137 160 
f 142 135 160 
f 137 142 160 
f 117 149 160 
o convex_6
v -0.070756 0.019810 -0.003461
v -0.074561 0.013151 -0.003461
v -0.076940 0.017432 -0.010120
v -0.076940 0.018858 -0.001082
v -0.070281 0.016955 -0.010120
v -0.070756 0.013151 -0.001082
v -0.076940 0.020286 -0.010120
v -0.076464 0.013151 -0.001082
v -0.070756 0.019810 -0.010120
v -0.070281 0.018382 -0.001082
v -0.076940 0.020286 -0.003461
v -0.074085 0.020286 -0.003461
v -0.071232 0.013151 -0.002985
v -0.070281 0.014103 -0.001082
f 170 166 174 
f 162 163 165 
f 163 164 167 
f 165 163 167 
f 163 162 168 
f 164 163 168 
f 162 166 168 
f 166 164 168 
f 165 167 169 
f 164 166 170 
f 169 161 170 
f 165 169 170 
f 167 164 171 
f 161 169 172 
f 169 167 172 
f 170 161 172 
f 164 170 172 
f 171 164 172 
f 167 171 172 
f 162 165 173 
f 166 162 173 
f 165 166 173 
f 166 165 174 
f 165 170 174 
o convex_7
v -0.070278 0.017907 -0.022963
v -0.054583 0.016481 -0.003937
v -0.057913 0.018859 -0.002510
v -0.070278 0.016957 -0.001082
v -0.055537 0.016481 -0.022008
v -0.067900 0.019810 -0.021534
v -0.069803 0.016006 -0.020106
v -0.054583 0.018383 -0.022483
v -0.058865 0.015529 -0.001559
v -0.070278 0.019810 -0.012022
v -0.054583 0.015529 -0.014402
v -0.065523 0.019334 -0.001082
v -0.058389 0.019334 -0.012022
v -0.069803 0.016006 -0.006314
v -0.064097 0.019810 -0.009645
v -0.070278 0.018383 -0.001082
v -0.063622 0.015529 -0.008218
v -0.057438 0.017432 -0.001082
v -0.054583 0.018383 -0.014877
v -0.065048 0.019810 -0.021534
v -0.054583 0.015529 -0.003937
v -0.054583 0.016957 -0.022963
v -0.070278 0.019810 -0.019157
v -0.061720 0.016957 -0.022963
v -0.058389 0.019334 -0.016300
v -0.063622 0.016006 -0.020583
v -0.070278 0.018383 -0.022963
f 197 180 201 
f 178 175 181 
f 175 178 184 
f 182 176 185 
f 178 181 188 
f 183 178 188 
f 180 184 189 
f 186 177 189 
f 184 186 189 
f 177 187 189 
f 184 178 190 
f 178 186 190 
f 186 184 190 
f 181 185 191 
f 185 183 191 
f 188 181 191 
f 183 188 191 
f 176 177 192 
f 178 183 192 
f 177 186 192 
f 186 178 192 
f 177 176 193 
f 176 182 193 
f 187 177 193 
f 182 187 193 
f 180 189 194 
f 185 176 195 
f 183 185 195 
f 176 192 195 
f 192 183 195 
f 185 179 196 
f 182 185 196 
f 175 184 197 
f 184 180 197 
f 181 175 198 
f 175 196 198 
f 196 179 198 
f 187 182 199 
f 189 187 199 
f 182 194 199 
f 194 189 199 
f 179 185 200 
f 185 181 200 
f 181 198 200 
f 198 179 200 
f 180 194 201 
f 194 182 201 
f 196 175 201 
f 182 196 201 
f 175 197 201 
o convex_8
v -0.079795 -0.015390 0.020799
v -0.087881 -0.017768 0.014616
v -0.091210 -0.019195 0.016043
v -0.091210 -0.015390 0.023178
v -0.084076 -0.019195 0.023178
v -0.077891 -0.017293 0.014616
v -0.091210 -0.015390 0.016043
v -0.077891 -0.017293 0.023178
v -0.091210 -0.019195 0.023178
v -0.080747 -0.015866 0.014616
v -0.085501 -0.019195 0.016043
v -0.077891 -0.015866 0.022702
v -0.079795 -0.015390 0.016519
v -0.077891 -0.016342 0.014616
f 211 214 215 
f 203 204 208 
f 204 205 208 
f 205 202 208 
f 205 206 209 
f 206 207 209 
f 205 204 210 
f 206 205 210 
f 204 206 210 
f 207 203 211 
f 203 208 211 
f 204 203 212 
f 206 204 212 
f 207 206 212 
f 203 207 212 
f 202 205 213 
f 205 209 213 
f 209 207 213 
f 208 202 214 
f 211 208 214 
f 202 213 214 
f 214 213 215 
f 207 211 215 
f 213 207 215 
o convex_9
v -0.061245 -0.018718 0.014140
v -0.077890 -0.015391 -0.001082
v -0.085978 -0.014439 -0.001080
v -0.059820 -0.013488 0.013189
v -0.056966 -0.015866 -0.001082
v -0.081221 -0.013487 0.013187
v -0.061245 -0.013488 -0.001082
v -0.077890 -0.017292 0.015091
v -0.070282 -0.018243 0.003676
v -0.056966 -0.015866 0.015091
v -0.085978 -0.013487 -0.001080
v -0.061722 -0.019194 0.009855
v -0.073607 -0.017292 -0.001082
v -0.077410 -0.013488 0.015091
v -0.057917 -0.013488 0.003676
v -0.073607 -0.018243 0.009855
v -0.085978 -0.014439 0.004154
v -0.056966 -0.016341 -0.001082
v -0.063151 -0.019194 0.014140
v -0.063625 -0.013488 0.015091
v -0.056966 -0.016341 0.015091
v -0.068853 -0.017292 -0.001082
v -0.074556 -0.017767 0.004627
v -0.062200 -0.018243 0.004627
v -0.085978 -0.013487 0.004154
v -0.057443 -0.013964 0.007005
v -0.073607 -0.018243 0.013189
f 231 234 242 
f 220 217 222 
f 217 218 226 
f 222 217 226 
f 218 217 228 
f 217 220 228 
f 221 223 229 
f 223 225 229 
f 221 219 230 
f 220 222 230 
f 226 221 230 
f 222 226 230 
f 223 218 231 
f 224 227 231 
f 218 223 232 
f 223 221 232 
f 226 218 232 
f 220 225 233 
f 228 220 233 
f 227 216 234 
f 231 227 234 
f 219 221 235 
f 225 219 235 
f 221 229 235 
f 229 225 235 
f 225 223 236 
f 216 227 236 
f 233 225 236 
f 227 233 236 
f 234 216 236 
f 223 234 236 
f 224 228 237 
f 228 233 237 
f 218 228 238 
f 228 224 238 
f 231 218 238 
f 224 231 238 
f 227 224 239 
f 233 227 239 
f 224 237 239 
f 237 233 239 
f 221 226 240 
f 232 221 240 
f 226 232 240 
f 225 220 241 
f 219 225 241 
f 230 219 241 
f 220 230 241 
f 223 231 242 
f 234 223 242 
o convex_10
v -0.034602 -0.013963 0.003200
v -0.020810 -0.013963 0.023178
v -0.026042 -0.013487 0.023178
v -0.034602 -0.016341 0.021748
v -0.024618 -0.016341 0.005102
v -0.021764 -0.013487 0.002724
v -0.035080 -0.015390 0.002724
v -0.035080 -0.014439 0.022702
v -0.023665 -0.016341 0.016515
v -0.034126 -0.013487 0.006055
v -0.020810 -0.014439 0.002724
v -0.021288 -0.014914 0.023178
v -0.029848 -0.013487 0.023178
v -0.022237 -0.015865 0.006530
v -0.035080 -0.015390 0.023178
v -0.032225 -0.016341 0.013664
v -0.029848 -0.016341 0.021748
v -0.021288 -0.013487 0.016515
v -0.022237 -0.015390 0.002724
v -0.035080 -0.013963 0.015566
v -0.028895 -0.013487 0.002724
f 252 248 263 
f 246 247 251 
f 245 248 252 
f 249 248 253 
f 244 245 254 
f 253 244 254 
f 245 252 255 
f 254 245 255 
f 251 247 256 
f 254 251 256 
f 253 254 256 
f 249 246 257 
f 250 249 257 
f 255 250 257 
f 254 255 257 
f 247 246 258 
f 246 249 258 
f 249 247 258 
f 246 251 259 
f 251 254 259 
f 257 246 259 
f 254 257 259 
f 245 244 260 
f 248 245 260 
f 244 253 260 
f 253 248 260 
f 247 249 261 
f 249 253 261 
f 256 247 261 
f 253 256 261 
f 243 249 262 
f 249 250 262 
f 252 243 262 
f 255 252 262 
f 250 255 262 
f 249 243 263 
f 248 249 263 
f 243 252 263 
o convex_11
v -0.058391 -0.014439 -0.017731
v -0.088353 -0.017293 -0.023438
v -0.088353 -0.013963 -0.023438
v -0.088353 -0.015390 -0.017731
v -0.058391 -0.014914 -0.023438
v -0.063624 -0.017293 -0.017731
v -0.058391 -0.016341 -0.023438
v -0.088353 -0.017293 -0.017731
v -0.079792 -0.013963 -0.017731
v -0.058391 -0.013963 -0.022962
v -0.058391 -0.016341 -0.017731
v -0.078838 -0.017293 -0.023438
v -0.088353 -0.013963 -0.021060
v -0.058391 -0.013963 -0.021060
f 273 272 277 
f 266 265 267 
f 265 266 268 
f 264 267 269 
f 268 264 270 
f 265 268 270 
f 267 265 271 
f 265 269 271 
f 269 267 271 
f 267 264 272 
f 264 268 273 
f 268 266 273 
f 266 272 273 
f 264 269 274 
f 270 264 274 
f 269 270 274 
f 269 265 275 
f 270 269 275 
f 265 270 275 
f 266 267 276 
f 272 266 276 
f 267 272 276 
f 272 264 277 
f 264 273 277 
o convex_12
v -0.004161 -0.001595 -0.006790
v 0.003450 0.003162 -0.005363
v 0.003450 0.003162 -0.006790
v 0.003450 -0.003022 -0.005363
v -0.004161 0.001258 -0.004887
v -0.003209 0.003162 -0.006790
v 0.003450 -0.003022 -0.006790
v -0.003209 -0.003022 -0.005363
v -0.003209 0.003162 -0.005363
f 283 282 286 
f 280 279 281 
f 281 279 282 
f 280 278 283 
f 279 280 283 
f 278 282 283 
f 278 280 284 
f 280 281 284 
f 284 281 285 
f 282 278 285 
f 281 282 285 
f 278 284 285 
f 282 279 286 
f 279 283 286 
o convex_13
v -0.075037 0.013151 -0.023439
v -0.071232 0.016481 -0.017255
v -0.071232 0.015053 -0.017255
v -0.071232 0.016481 -0.023439
v -0.075037 0.016481 -0.017255
v -0.071708 0.013151 -0.017255
v -0.075037 0.016481 -0.023439
v -0.071708 0.013151 -0.023439
v -0.075037 0.013151 -0.017255
f 292 291 295 
f 288 289 290 
f 289 288 291 
f 288 290 291 
f 289 291 292 
f 290 287 293 
f 287 291 293 
f 291 290 293 
f 290 289 294 
f 287 290 294 
f 289 292 294 
f 292 287 294 
f 291 287 295 
f 287 292 295 
o convex_14
v -0.075037 0.017908 -0.023439
v -0.070281 0.018383 -0.010122
v -0.070281 0.016957 -0.010122
v -0.076940 0.017432 -0.010122
v -0.076940 0.020286 -0.010122
v -0.070281 0.019810 -0.019156
v -0.071232 0.016481 -0.023439
v -0.076940 0.018859 -0.022961
v -0.075037 0.016481 -0.023439
v -0.070756 0.019810 -0.010122
v -0.070281 0.018383 -0.022961
v -0.076940 0.020286 -0.016780
v -0.075037 0.016481 -0.017253
v -0.076940 0.017908 -0.022961
v -0.074085 0.020286 -0.010122
f 301 307 310 
f 298 297 299 
f 299 297 300 
f 297 298 301 
f 299 300 303 
f 296 302 304 
f 303 296 304 
f 300 297 305 
f 297 301 305 
f 301 298 306 
f 298 302 306 
f 302 296 306 
f 296 303 306 
f 303 301 306 
f 303 300 307 
f 301 303 307 
f 298 299 308 
f 302 298 308 
f 299 304 308 
f 304 302 308 
f 299 303 309 
f 304 299 309 
f 303 304 309 
f 300 305 310 
f 305 301 310 
f 307 300 310 
o convex_15
v -0.036034 0.014103 -0.001082
v -0.054582 0.013627 -0.014400
v -0.057436 0.013151 -0.014399
v -0.047446 0.017432 -0.001082
v -0.041747 0.017908 -0.012973
v -0.035082 0.013151 -0.012973
v -0.054582 0.013151 -0.001082
v -0.058388 0.015529 -0.010593
v -0.048393 0.017908 -0.012973
v -0.058388 0.015529 -0.003938
v -0.040318 0.017432 -0.003939
v -0.035562 0.013151 -0.001082
v -0.035562 0.015054 -0.012973
v -0.041747 0.016004 -0.014400
v -0.057911 0.015529 -0.014399
v -0.057911 0.013151 -0.003938
v -0.036985 0.013151 -0.014400
v -0.046967 0.017908 -0.005363
v -0.035082 0.014578 -0.006792
v -0.039839 0.016480 -0.001082
v -0.054582 0.016480 -0.003939
v -0.039839 0.017432 -0.012973
v -0.037460 0.016004 -0.003939
v -0.053154 0.015054 -0.001082
f 314 320 334 
f 311 314 317 
f 313 316 317 
f 311 317 322 
f 317 316 322 
f 319 315 324 
f 312 313 325 
f 313 318 325 
f 318 319 325 
f 324 312 325 
f 319 324 325 
f 313 317 326 
f 318 313 326 
f 320 318 326 
f 317 320 326 
f 313 312 327 
f 316 313 327 
f 323 316 327 
f 312 324 327 
f 324 323 327 
f 315 319 328 
f 314 321 328 
f 321 315 328 
f 311 322 329 
f 322 316 329 
f 316 323 329 
f 314 311 330 
f 321 314 330 
f 319 318 331 
f 318 320 331 
f 320 314 331 
f 328 319 331 
f 314 328 331 
f 315 321 332 
f 324 315 332 
f 323 324 332 
f 311 329 333 
f 329 323 333 
f 330 311 333 
f 321 330 333 
f 332 321 333 
f 323 332 333 
f 317 314 334 
f 320 317 334 
o convex_16
v -0.045544 0.000784 0.007956
v -0.041265 0.010297 0.016043
v -0.041265 0.010297 0.012237
v -0.048875 0.010297 0.016043
v -0.042217 -0.005400 0.016043
v -0.048875 -0.005876 0.013663
v -0.041265 -0.005876 0.012237
v -0.048875 0.010297 0.012237
v -0.042217 0.003158 0.007956
v -0.048875 -0.004925 0.016043
v -0.046972 0.004110 0.007956
v -0.048875 -0.005876 0.012237
v -0.044595 0.005061 0.007956
v -0.041265 -0.004448 0.016043
v -0.048875 0.004586 0.011286
v -0.047447 -0.005876 0.016043
v -0.043168 0.001260 0.007956
f 343 341 351 
f 336 337 338 
f 336 338 339 
f 337 336 341 
f 338 337 342 
f 340 338 342 
f 337 341 343 
f 339 338 344 
f 338 340 344 
f 343 335 345 
f 341 340 346 
f 335 341 346 
f 340 342 346 
f 345 335 346 
f 342 337 347 
f 337 343 347 
f 345 342 347 
f 343 345 347 
f 336 339 348 
f 339 341 348 
f 341 336 348 
f 342 345 349 
f 346 342 349 
f 345 346 349 
f 341 339 350 
f 340 341 350 
f 339 344 350 
f 344 340 350 
f 341 335 351 
f 335 343 351 
o convex_17
v -0.022237 0.016005 -0.014877
v -0.030322 0.013151 -0.023438
v -0.030322 0.013151 -0.017256
v -0.035080 0.016481 -0.022962
v -0.020810 0.014578 -0.022962
v -0.035080 0.016481 -0.014877
v -0.020810 0.014578 -0.014877
v -0.034602 0.015053 -0.015353
v -0.025568 0.013151 -0.023438
v -0.023665 0.015529 -0.022962
v -0.035080 0.015053 -0.021535
v -0.025568 0.013151 -0.017256
v -0.030797 0.014578 -0.014877
v -0.033175 0.016481 -0.022962
v -0.021288 0.015529 -0.020108
v -0.026520 0.015053 -0.023438
f 365 361 367 
f 352 357 358 
f 354 353 360 
f 356 358 360 
f 353 354 362 
f 355 353 362 
f 357 355 362 
f 359 357 362 
f 354 359 362 
f 358 354 363 
f 354 360 363 
f 360 358 363 
f 354 358 364 
f 358 357 364 
f 357 359 364 
f 359 354 364 
f 357 352 365 
f 355 357 365 
f 361 365 366 
f 352 358 366 
f 358 356 366 
f 356 361 366 
f 365 352 366 
f 353 355 367 
f 360 353 367 
f 356 360 367 
f 361 356 367 
f 355 365 367 
o convex_18
v -0.086452 -0.017768 -0.001080
v -0.077892 -0.015866 0.013187
v -0.077892 -0.016342 0.013187
v -0.087879 -0.016817 0.014614
v -0.083124 -0.018720 0.010333
v -0.082649 -0.016342 -0.001080
v -0.080271 -0.017293 -0.001080
v -0.088356 -0.016817 -0.001080
v -0.084550 -0.015866 0.014614
v -0.087879 -0.017768 0.014614
v -0.082174 -0.018244 0.014614
v -0.077892 -0.015866 0.009858
v -0.085025 -0.018720 0.010809
v -0.088356 -0.017293 -0.001080
v -0.082649 -0.015866 0.008431
v -0.082174 -0.017768 -0.001080
v -0.085025 -0.016342 -0.001080
f 376 382 384 
f 368 373 374 
f 370 372 374 
f 373 368 375 
f 375 371 376 
f 376 371 377 
f 371 375 377 
f 370 369 378 
f 372 370 378 
f 369 376 378 
f 376 377 378 
f 369 370 379 
f 374 373 379 
f 370 374 379 
f 376 369 379 
f 368 372 380 
f 372 378 380 
f 378 377 380 
f 375 368 381 
f 377 375 381 
f 368 380 381 
f 380 377 381 
f 379 373 382 
f 376 379 382 
f 372 368 383 
f 368 374 383 
f 374 372 383 
f 373 375 384 
f 375 376 384 
f 382 373 384 
o convex_19
v -0.061244 -0.007777 -0.008693
v -0.065047 0.006014 -0.007265
v -0.062670 0.003636 -0.008693
v -0.065998 -0.008253 -0.013449
v -0.061244 0.000781 -0.013449
v -0.065998 0.006014 -0.013449
v -0.062195 -0.008253 -0.007265
v -0.060767 -0.000170 -0.007265
v -0.060767 -0.005875 -0.013449
v -0.065998 0.005060 -0.007265
v -0.061719 -0.008253 -0.012973
v -0.065998 -0.008253 -0.012498
v -0.062195 0.003160 -0.012973
v -0.060767 -0.005875 -0.007265
v -0.061719 0.002683 -0.007265
v -0.060767 -0.000170 -0.012973
f 399 392 400 
f 389 388 390 
f 386 391 392 
f 388 389 393 
f 386 390 394 
f 390 388 394 
f 391 386 394 
f 385 391 395 
f 391 388 395 
f 393 385 395 
f 388 393 395 
f 388 391 396 
f 394 388 396 
f 391 394 396 
f 386 387 397 
f 390 386 397 
f 389 390 397 
f 391 385 398 
f 392 391 398 
f 385 393 398 
f 393 392 398 
f 387 386 399 
f 386 392 399 
f 397 387 399 
f 397 399 400 
f 393 389 400 
f 392 393 400 
f 389 397 400 
o convex_20
v -0.064097 -0.015390 0.022227
v -0.077891 -0.017293 0.015091
v -0.077891 -0.016341 0.015091
v -0.077891 -0.016341 0.023178
v -0.075037 -0.013487 0.017471
v -0.064573 -0.016816 0.015567
v -0.064097 -0.016816 0.022702
v -0.075037 -0.013487 0.023178
v -0.067903 -0.013964 0.016043
v -0.077891 -0.017293 0.023178
v -0.071232 -0.013487 0.023178
v -0.064097 -0.015865 0.015091
v -0.068380 -0.017293 0.019371
v -0.064097 -0.015865 0.023178
v -0.067903 -0.013964 0.022227
v -0.077891 -0.015865 0.017471
f 408 405 416 
f 403 402 404 
f 403 405 409 
f 404 402 410 
f 408 404 410 
f 408 410 411 
f 405 408 411 
f 409 405 411 
f 402 403 412 
f 406 402 412 
f 401 407 412 
f 407 406 412 
f 403 409 412 
f 409 401 412 
f 402 406 413 
f 406 407 413 
f 410 402 413 
f 407 410 413 
f 407 401 414 
f 410 407 414 
f 411 410 414 
f 411 414 415 
f 401 409 415 
f 409 411 415 
f 414 401 415 
f 403 404 416 
f 405 403 416 
f 404 408 416 
o convex_21
v -0.064097 -0.016341 0.015091
v -0.056962 -0.015390 0.023178
v -0.060292 -0.015390 0.023178
v -0.057914 -0.013488 0.017471
v -0.056962 -0.016816 0.016519
v -0.063144 -0.017768 0.020799
v -0.064097 -0.015390 0.022227
v -0.056962 -0.013488 0.021274
v -0.056962 -0.015390 0.015091
v -0.064097 -0.015390 0.015567
v -0.056962 -0.016341 0.023178
v -0.060766 -0.017768 0.017471
v -0.064097 -0.016341 0.023178
v -0.058865 -0.013488 0.021274
v -0.060766 -0.017768 0.020799
f 428 421 431 
f 419 418 424 
f 418 421 424 
f 421 417 425 
f 420 424 425 
f 424 421 425 
f 417 423 426 
f 425 417 426 
f 420 425 426 
f 418 419 427 
f 421 418 427 
f 417 421 428 
f 422 417 428 
f 417 422 429 
f 419 423 429 
f 423 417 429 
f 427 419 429 
f 422 427 429 
f 423 419 430 
f 419 424 430 
f 424 420 430 
f 420 426 430 
f 426 423 430 
f 421 427 431 
f 427 422 431 
f 422 428 431 
o convex_22
v -0.035080 -0.013964 0.014140
v -0.056961 -0.016341 0.002724
v -0.054580 -0.017293 0.004627
v -0.056961 -0.015865 0.015091
v -0.043170 -0.013487 0.002724
v -0.036035 -0.015865 0.002724
v -0.035560 -0.015865 0.015091
v -0.042695 -0.013487 0.015091
v -0.056006 -0.017293 0.014616
v -0.056961 -0.015390 0.002724
v -0.036509 -0.013487 0.002724
v -0.047445 -0.013964 0.013664
v -0.056482 -0.015390 0.015091
v -0.053153 -0.017293 0.009857
v -0.035080 -0.015390 0.002724
v -0.040315 -0.013487 0.015091
f 442 439 447 
f 433 436 437 
f 434 433 437 
f 435 438 439 
f 433 434 440 
f 435 433 440 
f 438 435 440 
f 433 435 441 
f 436 433 441 
f 437 436 442 
f 436 439 442 
f 439 436 443 
f 436 441 443 
f 443 441 444 
f 435 439 444 
f 441 435 444 
f 439 443 444 
f 434 437 445 
f 437 438 445 
f 440 434 445 
f 438 440 445 
f 432 438 446 
f 438 437 446 
f 437 442 446 
f 442 432 446 
f 438 432 447 
f 439 438 447 
f 432 442 447 
o convex_23
v -0.035080 -0.015390 0.023178
v -0.056961 -0.016341 0.015091
v -0.056961 -0.015866 0.015091
v -0.035080 -0.014439 0.015091
v -0.056482 -0.014439 0.022227
v -0.045070 -0.017293 0.022702
v -0.035560 -0.015866 0.015091
v -0.056961 -0.016341 0.023178
v -0.056482 -0.014439 0.015567
v -0.056006 -0.017293 0.017946
v -0.035080 -0.014439 0.022702
v -0.036986 -0.016817 0.020324
v -0.053629 -0.016817 0.015091
v -0.056961 -0.015390 0.023178
v -0.050776 -0.017293 0.022702
v -0.036986 -0.016817 0.022702
v -0.045070 -0.017293 0.020324
f 460 454 464 
f 449 450 451 
f 449 451 454 
f 451 448 454 
f 450 449 455 
f 453 448 455 
f 451 450 456 
f 452 451 456 
f 455 449 457 
f 448 451 458 
f 451 452 458 
f 449 454 460 
f 457 449 460 
f 450 455 461 
f 455 448 461 
f 456 450 461 
f 452 456 461 
f 448 458 461 
f 458 452 461 
f 453 455 462 
f 457 453 462 
f 455 457 462 
f 448 453 463 
f 454 448 463 
f 453 459 463 
f 459 454 463 
f 453 457 464 
f 459 453 464 
f 454 459 464 
f 457 460 464 
o convex_24
v -0.035080 0.014578 0.007481
v -0.020810 0.015053 0.016043
v -0.022237 0.016480 0.015567
v -0.020810 0.015053 -0.001082
v -0.034126 0.016480 -0.001082
v -0.027945 0.012675 -0.001082
v -0.035080 0.015053 0.016043
v -0.021764 0.012675 0.008431
v -0.034126 0.016956 0.014139
v -0.034602 0.013627 0.004152
v -0.027945 0.012675 0.008431
v -0.025568 0.014102 0.016043
v -0.021764 0.012675 -0.001082
v -0.022237 0.016480 0.010334
v -0.035080 0.015529 -0.001082
v -0.021288 0.015529 -0.001082
v -0.034602 0.013627 0.000347
v -0.035080 0.016005 0.016043
v -0.031274 0.016956 0.010334
v -0.033653 0.014578 0.016043
v -0.021288 0.014102 0.016043
v -0.032225 0.016480 -0.001082
f 483 478 486 
f 467 466 468 
f 469 468 470 
f 468 466 472 
f 471 465 474 
f 470 472 475 
f 474 470 475 
f 466 471 476 
f 475 472 476 
f 470 468 477 
f 472 470 477 
f 468 472 477 
f 467 468 478 
f 469 470 479 
f 465 471 479 
f 473 469 479 
f 468 469 480 
f 478 468 480 
f 474 465 481 
f 470 474 481 
f 479 470 481 
f 465 479 481 
f 466 467 482 
f 471 466 482 
f 467 473 482 
f 479 471 482 
f 473 479 482 
f 473 467 483 
f 469 473 483 
f 467 478 483 
f 471 474 484 
f 474 475 484 
f 476 471 484 
f 475 476 484 
f 472 466 485 
f 466 476 485 
f 476 472 485 
f 480 469 486 
f 478 480 486 
f 469 483 486 
o convex_25
v -0.067906 0.001257 0.020800
v -0.088356 -0.007779 0.020800
v -0.088356 -0.007779 0.023178
v -0.088356 0.014578 0.021276
v -0.063626 0.014578 0.023178
v -0.063626 -0.009204 0.023178
v -0.088356 0.014578 0.023178
v -0.071235 -0.013487 0.020800
v -0.063626 0.014578 0.021276
v -0.063626 -0.009204 0.020800
v -0.075041 -0.013487 0.023178
v -0.075041 -0.013487 0.020800
v -0.071235 -0.013487 0.023178
v -0.071235 0.001732 0.020800
f 490 495 500 
f 488 489 490 
f 491 489 492 
f 490 489 493 
f 491 490 493 
f 489 491 493 
f 488 487 494 
f 490 491 495 
f 491 492 495 
f 495 492 496 
f 494 487 496 
f 492 494 496 
f 487 495 496 
f 489 488 497 
f 492 489 497 
f 494 497 498 
f 488 494 498 
f 497 488 498 
f 494 492 499 
f 492 497 499 
f 497 494 499 
f 487 488 500 
f 488 490 500 
f 495 487 500 
o convex_26
v 0.000120 -0.011109 0.021274
v -0.029367 -0.013487 0.016994
v -0.030323 -0.013487 0.017470
v 0.000120 -0.013487 0.023178
v -0.032226 -0.011109 0.023178
v 0.000120 -0.011585 0.017470
v -0.032226 -0.011109 0.017470
v -0.030323 -0.013487 0.023178
v 0.000120 -0.013487 0.017470
v 0.000120 -0.011109 0.023178
v -0.026517 -0.011109 0.016994
v -0.006542 -0.011109 0.017470
f 506 511 512 
f 503 502 504 
f 501 504 506 
f 502 503 507 
f 505 501 507 
f 503 505 507 
f 503 504 508 
f 504 505 508 
f 505 503 508 
f 504 502 509 
f 506 504 509 
f 504 501 510 
f 501 505 510 
f 505 504 510 
f 502 507 511 
f 507 501 511 
f 509 502 511 
f 506 509 511 
f 501 506 512 
f 511 501 512 
o convex_27
v 0.005348 -0.009681 0.016043
v -0.014627 0.014578 0.022226
v -0.014627 0.014578 0.021275
v -0.063621 -0.009205 0.017471
v 0.000590 -0.011109 0.023178
v -0.053626 0.014578 0.016043
v -0.063621 0.014578 0.023654
v -0.063621 -0.009205 0.023177
v 0.005827 0.009343 0.016043
v 0.008675 0.005061 0.023178
v -0.053626 -0.008728 0.016043
v 0.000118 0.013150 0.023178
v -0.038409 -0.011109 0.017471
v -0.002264 0.013625 0.017471
v -0.029845 -0.007777 0.023654
v 0.010585 -0.002070 0.020323
v -0.063621 0.014578 0.021275
v -0.012252 0.001262 0.023654
v 0.010585 0.001259 0.016043
v -0.000833 -0.011109 0.016043
v -0.038409 -0.011109 0.023177
v 0.008203 -0.005874 0.023178
v -0.021288 0.014578 0.016043
v -0.056960 0.011244 0.016043
v -0.055529 -0.008253 0.023654
v -0.042687 0.014578 0.023654
v 0.009154 -0.006349 0.016043
v 0.009154 0.006014 0.020323
v -0.060759 -0.009678 0.017471
v 0.004396 -0.010156 0.020323
v 0.010106 0.000784 0.022702
v -0.056009 -0.006824 0.016043
v 0.009626 0.005536 0.016043
v -0.061239 -0.002545 0.023654
v -0.060759 -0.009678 0.023177
v -0.002264 0.013625 0.023177
v 0.000118 0.013150 0.017471
v -0.063621 -0.007777 0.017471
v -0.041735 -0.009203 0.023654
v 0.005827 0.009343 0.020323
v 0.010106 0.003635 0.020323
v -0.037457 0.014100 0.023654
v -0.012724 -0.001119 0.023654
v 0.001542 0.010771 0.016043
v 0.009154 -0.005874 0.020323
v 0.009626 -0.002545 0.023178
v -0.017010 0.014578 0.023177
v 0.006772 0.007442 0.023178
v 0.010585 -0.002070 0.016043
v 0.006299 -0.007775 0.023178
v -0.015579 0.014578 0.017946
f 526 535 563 
f 514 515 518 
f 514 518 519 
f 519 516 520 
f 513 518 521 
f 518 513 523 
f 515 514 526 
f 516 519 529 
f 519 518 529 
f 519 527 530 
f 513 521 531 
f 523 513 532 
f 517 525 532 
f 525 523 532 
f 525 517 533 
f 518 515 535 
f 521 518 535 
f 518 523 536 
f 529 518 536 
f 527 519 537 
f 514 519 538 
f 519 530 538 
f 513 531 539 
f 520 516 541 
f 516 523 541 
f 523 525 541 
f 525 533 541 
f 532 513 542 
f 517 532 542 
f 513 539 542 
f 523 516 544 
f 516 536 544 
f 536 523 544 
f 531 521 545 
f 521 540 545 
f 519 520 546 
f 537 519 546 
f 520 537 546 
f 537 520 547 
f 520 541 547 
f 541 533 547 
f 526 514 548 
f 524 526 548 
f 524 521 549 
f 526 524 549 
f 516 529 550 
f 536 516 550 
f 529 536 550 
f 517 527 551 
f 533 517 551 
f 527 537 551 
f 537 547 551 
f 547 533 551 
f 521 524 552 
f 540 521 552 
f 528 531 553 
f 540 522 553 
f 543 528 553 
f 522 543 553 
f 531 545 553 
f 545 540 553 
f 530 524 554 
f 538 530 554 
f 524 548 554 
f 548 538 554 
f 527 517 555 
f 530 527 555 
f 521 535 556 
f 535 526 556 
f 549 521 556 
f 526 549 556 
f 539 528 557 
f 542 539 557 
f 522 530 558 
f 528 543 558 
f 543 522 558 
f 530 555 558 
f 555 534 558 
f 557 528 558 
f 534 557 558 
f 514 538 559 
f 548 514 559 
f 538 548 559 
f 530 522 560 
f 524 530 560 
f 522 540 560 
f 552 524 560 
f 540 552 560 
f 531 528 561 
f 539 531 561 
f 528 539 561 
f 517 542 562 
f 555 517 562 
f 534 555 562 
f 557 534 562 
f 542 557 562 
f 515 526 563 
f 535 515 563 
o convex_28
v -0.079318 -0.019669 -0.016303
v -0.063625 -0.013963 -0.013449
v -0.058389 -0.015391 -0.013449
v -0.058389 -0.014439 -0.017730
v -0.092158 -0.015391 -0.017254
v -0.092158 -0.019194 -0.013449
v -0.092158 -0.015391 -0.013449
v -0.067427 -0.019194 -0.013926
v -0.092158 -0.019194 -0.017254
v -0.059344 -0.016816 -0.017730
v -0.079794 -0.013963 -0.017730
v -0.079794 -0.013963 -0.013449
v -0.059344 -0.016816 -0.013449
v -0.088353 -0.017292 -0.017730
v -0.066478 -0.017767 -0.017730
v -0.084072 -0.019669 -0.013926
v -0.063625 -0.013963 -0.017254
v -0.065526 -0.018719 -0.013449
v -0.067427 -0.019194 -0.014877
f 573 581 582 
f 565 566 567 
f 566 565 569 
f 569 565 570 
f 568 569 570 
f 569 568 572 
f 567 566 573 
f 568 570 574 
f 567 573 574 
f 570 565 575 
f 565 574 575 
f 574 570 575 
f 566 569 576 
f 573 566 576 
f 572 568 577 
f 574 573 577 
f 568 574 577 
f 564 572 578 
f 572 577 578 
f 577 573 578 
f 564 571 579 
f 572 564 579 
f 569 572 579 
f 565 567 580 
f 574 565 580 
f 567 574 580 
f 576 569 581 
f 573 576 581 
f 579 571 581 
f 569 579 581 
f 571 564 582 
f 564 578 582 
f 578 573 582 
f 581 571 582 
o convex_29
v -0.060767 0.005541 -0.019633
v -0.031750 0.009344 -0.017255
v -0.031750 0.009344 -0.020109
v -0.040794 0.004113 -0.019157
v -0.060767 0.006967 -0.017255
v -0.044120 0.004113 -0.017255
v -0.060767 0.006492 -0.020585
v -0.040794 0.004113 -0.020585
v -0.031750 0.006492 -0.017255
v -0.059815 0.004589 -0.017255
v -0.058864 0.007442 -0.020109
v -0.031750 0.008393 -0.020585
v -0.059815 0.004589 -0.020109
v -0.031750 0.006492 -0.020109
v -0.049346 0.004113 -0.020585
v -0.058864 0.007442 -0.017255
f 593 587 598 
f 584 587 588 
f 583 587 589 
f 586 588 590 
f 585 584 591 
f 584 588 591 
f 588 586 591 
f 586 590 591 
f 587 583 592 
f 588 587 592 
f 584 585 593 
f 585 589 593 
f 589 587 593 
f 589 585 594 
f 590 589 594 
f 585 591 594 
f 583 589 595 
f 592 583 595 
f 591 590 596 
f 590 594 596 
f 594 591 596 
f 590 588 597 
f 589 590 597 
f 588 592 597 
f 595 589 597 
f 592 595 597 
f 587 584 598 
f 584 593 598 
o convex_30
v -0.034608 -0.005398 -0.013925
v -0.058389 0.001733 -0.013925
v -0.058389 0.001733 -0.013450
v -0.036511 0.013151 -0.013450
v -0.051727 0.013151 -0.015828
v -0.047920 -0.013963 -0.014876
v -0.031756 0.008867 -0.015828
v -0.051250 -0.013963 -0.013450
v -0.056957 0.013151 -0.013450
v -0.056483 0.006489 -0.015828
v -0.031756 0.001733 -0.013450
v -0.038415 -0.007779 -0.015352
v -0.055531 -0.003973 -0.015352
v -0.044596 -0.013963 -0.013450
v -0.038415 0.013151 -0.015828
v -0.046017 0.001258 -0.015828
v -0.033182 -0.003020 -0.014876
v -0.048398 -0.009204 -0.015352
v -0.032705 0.008392 -0.013450
v -0.056957 0.013151 -0.014401
v -0.051727 -0.013485 -0.014401
v -0.044596 -0.013963 -0.014876
v -0.056957 -0.003020 -0.014876
v -0.057434 -0.002545 -0.013450
v -0.033182 -0.003495 -0.013450
v -0.058389 0.003636 -0.014401
v -0.034133 -0.003495 -0.015352
f 615 610 625 
f 602 601 606 
f 601 602 607 
f 602 603 607 
f 603 605 608 
f 602 606 609 
f 606 604 612 
f 609 606 612 
f 603 602 613 
f 605 603 613 
f 602 605 613 
f 608 605 614 
f 605 610 614 
f 605 609 615 
f 599 610 615 
f 611 608 616 
f 604 611 616 
f 608 614 616 
f 614 610 616 
f 605 602 617 
f 609 605 617 
f 602 609 617 
f 607 603 618 
f 603 608 618 
f 604 606 619 
f 611 604 619 
f 610 599 620 
f 612 604 620 
f 599 612 620 
f 604 616 620 
f 616 610 620 
f 608 611 621 
f 611 619 621 
f 621 619 622 
f 601 600 622 
f 606 601 622 
f 619 606 622 
f 600 621 622 
f 612 599 623 
f 609 612 623 
f 599 615 623 
f 615 609 623 
f 600 601 624 
f 601 607 624 
f 607 618 624 
f 618 608 624 
f 621 600 624 
f 608 621 624 
f 610 605 625 
f 605 615 625 
o convex_31
v -0.008442 -0.013963 -0.017731
v 0.000119 0.013151 -0.017255
v 0.000119 0.013151 -0.023439
v -0.031750 0.012198 -0.017255
v -0.030321 -0.013963 -0.023439
v 0.006778 -0.007301 -0.022962
v -0.031750 -0.012060 -0.015829
v 0.011061 0.001255 -0.015353
v -0.030795 0.013151 -0.023439
v -0.031750 0.008867 -0.015352
v 0.005349 -0.010154 -0.015353
v -0.000832 -0.013485 -0.023439
v 0.009154 0.003636 -0.022962
v 0.004875 0.009817 -0.015353
v -0.023663 -0.013963 -0.015352
v -0.031750 -0.013963 -0.022962
v 0.010105 -0.003970 -0.020583
v -0.030795 0.013151 -0.017255
v 0.009632 0.006014 -0.015829
v -0.000359 -0.013485 -0.017255
v 0.010105 -0.005873 -0.015353
v -0.031750 0.012198 -0.023439
v -0.007018 0.010770 -0.015352
v -0.031750 -0.013963 -0.017255
v 0.008680 0.006014 -0.021535
v -0.010345 -0.013963 -0.023439
v 0.010583 0.000305 -0.021059
v 0.009154 -0.003495 -0.022962
v 0.006304 -0.008729 -0.020583
v 0.002022 0.000305 -0.023439
v 0.005349 0.009342 -0.021059
v 0.006304 -0.009679 -0.015829
v 0.001544 -0.011105 -0.015352
v -0.000359 -0.013485 -0.022962
v 0.011061 -0.001117 -0.015829
v 0.008680 -0.006351 -0.020583
v 0.006778 0.007439 -0.022962
v 0.002022 0.010770 -0.015352
f 648 658 663 
f 627 628 634 
f 628 630 634 
f 629 632 635 
f 630 628 637 
f 628 627 639 
f 630 626 640 
f 635 632 640 
f 632 629 641 
f 630 640 641 
f 627 634 643 
f 634 629 643 
f 629 635 643 
f 639 633 644 
f 640 626 645 
f 629 634 647 
f 634 630 647 
f 641 629 647 
f 630 641 647 
f 635 640 648 
f 627 643 648 
f 643 635 648 
f 640 632 649 
f 632 641 649 
f 641 640 649 
f 626 630 651 
f 630 637 651 
f 644 633 652 
f 638 650 652 
f 650 644 652 
f 631 637 653 
f 638 652 653 
f 652 642 653 
f 637 628 655 
f 628 638 655 
f 653 637 655 
f 638 653 655 
f 628 639 656 
f 639 644 656 
f 644 650 656 
f 636 645 657 
f 646 636 657 
f 645 636 658 
f 640 645 658 
f 636 646 658 
f 646 633 658 
f 648 640 658 
f 637 631 659 
f 645 626 659 
f 626 651 659 
f 651 637 659 
f 631 654 659 
f 657 645 659 
f 654 657 659 
f 633 646 660 
f 646 642 660 
f 652 633 660 
f 642 652 660 
f 642 646 661 
f 631 653 661 
f 653 642 661 
f 654 631 661 
f 646 657 661 
f 657 654 661 
f 638 628 662 
f 650 638 662 
f 628 656 662 
f 656 650 662 
f 639 627 663 
f 633 639 663 
f 627 648 663 
f 658 633 663 
o convex_32
v -0.082168 -0.017767 -0.002509
v -0.057913 -0.008255 -0.001082
v -0.057913 -0.010634 -0.001082
v -0.057913 -0.008255 -0.007265
v -0.084545 -0.008255 -0.001082
v -0.088350 -0.016816 -0.007265
v -0.066003 -0.016816 -0.007265
v -0.083595 -0.008255 -0.007265
v -0.068857 -0.017292 -0.001082
v -0.088350 -0.017292 -0.001082
v -0.085499 -0.017767 -0.007265
v -0.062198 -0.014913 -0.007265
v -0.062198 -0.014913 -0.001082
v -0.057913 -0.010159 -0.007265
v -0.085973 -0.010634 -0.004411
v -0.069808 -0.017292 -0.007265
v -0.086449 -0.017767 -0.001082
v -0.065052 -0.016340 -0.001082
v -0.085973 -0.010634 -0.001082
f 678 669 682 
f 665 666 667 
f 666 665 668 
f 665 667 668 
f 669 667 670 
f 668 667 671 
f 667 669 671 
f 666 668 672 
f 672 668 673 
f 669 670 674 
f 673 669 674 
f 670 667 675 
f 666 672 676 
f 675 666 676 
f 670 675 676 
f 667 666 677 
f 666 675 677 
f 675 667 677 
f 668 671 678 
f 671 669 678 
f 672 664 679 
f 670 672 679 
f 674 670 679 
f 664 674 679 
f 664 672 680 
f 672 673 680 
f 674 664 680 
f 673 674 680 
f 672 670 681 
f 676 672 681 
f 670 676 681 
f 669 673 682 
f 673 668 682 
f 668 678 682 
o convex_33
v -0.036033 -0.002547 0.007956
v -0.040788 0.009819 0.016043
v -0.037935 0.010297 0.013188
v -0.039360 0.010297 0.007956
v -0.041263 -0.005876 0.009384
v -0.036984 -0.000643 0.016043
v -0.041263 -0.003972 0.016043
v -0.035081 0.006013 0.007956
v -0.035080 0.006013 0.013188
v -0.041264 0.010297 0.012237
v -0.038885 -0.005400 0.013188
v -0.040787 -0.005876 0.007956
v -0.035080 0.000309 0.013188
v -0.036983 0.006491 0.016043
v -0.036032 0.008867 0.007956
v -0.036508 -0.003020 0.013188
v -0.035081 0.000309 0.007956
v -0.039360 -0.005876 0.007956
v -0.041264 0.009819 0.016043
v -0.035557 0.007916 0.012713
v -0.039360 -0.003972 0.016043
v -0.041263 -0.005876 0.013663
v -0.036508 0.002685 0.016043
v -0.038885 0.009345 0.016043
f 696 702 706 
f 688 684 689 
f 683 686 690 
f 685 686 692 
f 686 683 694 
f 692 686 694 
f 687 692 694 
f 690 691 695 
f 684 688 696 
f 686 685 697 
f 690 686 697 
f 693 683 698 
f 683 695 698 
f 695 688 698 
f 683 690 699 
f 695 683 699 
f 690 695 699 
f 683 693 700 
f 694 683 700 
f 687 694 700 
f 684 685 701 
f 689 684 701 
f 685 692 701 
f 692 687 701 
f 691 690 702 
f 696 691 702 
f 697 685 702 
f 690 697 702 
f 688 689 703 
f 693 698 703 
f 698 688 703 
f 700 693 704 
f 687 700 704 
f 701 687 704 
f 689 701 704 
f 703 689 704 
f 693 703 704 
f 688 695 705 
f 695 691 705 
f 696 688 705 
f 691 696 705 
f 685 684 706 
f 684 696 706 
f 702 685 706 
o convex_34
v -0.039842 -0.011584 -0.012974
v -0.024615 0.013151 -0.001082
v -0.024615 0.012196 -0.001082
v -0.060767 0.008392 -0.001082
v -0.056956 0.013151 -0.013449
v -0.057908 -0.010157 -0.001082
v -0.027471 0.007915 -0.013449
v -0.034131 -0.006823 -0.001082
v -0.060767 -0.003493 -0.012022
v -0.051725 -0.013487 -0.013449
v -0.055533 0.013151 -0.001082
v -0.047444 -0.013487 -0.003936
v -0.033653 0.013151 -0.012974
v -0.031279 -0.003967 -0.012974
v -0.060767 -0.008254 -0.001082
v -0.060286 0.006014 -0.012974
v -0.039365 -0.010632 -0.001082
v -0.024615 0.013151 -0.006315
v -0.060767 -0.008254 -0.007265
v -0.044591 -0.013487 -0.013449
v -0.035561 -0.009206 -0.012974
v -0.031753 -0.004444 -0.003936
v -0.051725 -0.013487 -0.003936
v -0.057908 0.013151 -0.012974
v -0.027471 0.005537 -0.013449
v -0.057908 0.013151 -0.003936
v -0.060767 0.008392 -0.007265
v -0.057433 -0.002541 -0.013449
v -0.034605 -0.008254 -0.003936
v -0.036031 0.013151 -0.013449
v -0.048396 -0.011107 -0.001082
v -0.029375 0.013151 -0.010595
v -0.039365 -0.011107 -0.005364
v -0.036031 -0.007300 -0.013449
v -0.033183 -0.006823 -0.012974
v -0.030804 -0.003018 -0.010119
v -0.024615 0.012196 -0.006315
v -0.032227 -0.003967 -0.001082
v -0.059811 -0.001589 -0.012974
f 722 734 745 
f 709 708 710 
f 709 710 712 
f 709 712 714 
f 711 713 716 
f 710 708 717 
f 708 711 717 
f 711 708 719 
f 712 710 721 
f 710 715 721 
f 714 712 723 
f 708 709 724 
f 719 708 724 
f 716 712 725 
f 715 716 725 
f 712 721 725 
f 721 715 725 
f 716 713 726 
f 718 716 726 
f 707 726 727 
f 712 716 729 
f 716 718 729 
f 717 711 730 
f 711 722 730 
f 713 724 731 
f 726 713 731 
f 710 717 732 
f 730 710 732 
f 717 730 732 
f 715 710 733 
f 722 715 733 
f 710 730 733 
f 730 722 733 
f 711 716 734 
f 722 711 734 
f 714 723 735 
f 728 714 735 
f 713 711 736 
f 711 719 736 
f 719 713 736 
f 723 712 737 
f 718 723 737 
f 712 729 737 
f 729 718 737 
f 713 719 738 
f 719 724 738 
f 724 713 738 
f 723 718 739 
f 718 726 739 
f 726 707 739 
f 707 727 739 
f 735 723 739 
f 727 735 739 
f 727 726 740 
f 726 731 740 
f 740 731 741 
f 720 728 741 
f 731 720 741 
f 735 727 741 
f 728 735 741 
f 727 740 741 
f 709 728 742 
f 728 720 742 
f 720 731 742 
f 742 731 743 
f 724 709 743 
f 731 724 743 
f 709 742 743 
f 709 714 744 
f 728 709 744 
f 714 728 744 
f 716 715 745 
f 715 722 745 
f 734 716 745 
o convex_35
v -0.017480 0.006016 -0.003461
v -0.020334 -0.006352 -0.012022
v -0.020334 -0.003972 -0.013449
v -0.020334 0.006016 -0.001082
v -0.017956 -0.006352 -0.002033
v -0.017480 0.003637 -0.013449
v -0.020334 0.006016 -0.012022
v -0.017480 -0.006352 -0.012022
v -0.020334 -0.006352 -0.001082
v -0.017480 -0.003497 -0.001082
v -0.017480 0.006016 -0.011545
v -0.017480 0.003637 -0.001082
v -0.017480 -0.003972 -0.013449
v -0.020334 0.003637 -0.013449
f 748 752 759 
f 748 747 749 
f 748 749 752 
f 749 746 752 
f 747 748 753 
f 750 747 753 
f 751 746 753 
f 749 747 754 
f 747 750 754 
f 754 750 755 
f 753 746 755 
f 750 753 755 
f 749 754 755 
f 746 751 756 
f 752 746 756 
f 751 752 756 
f 746 749 757 
f 755 746 757 
f 749 755 757 
f 748 751 758 
f 753 748 758 
f 751 753 758 
f 751 748 759 
f 752 751 759 
o convex_36
v -0.032225 0.011249 0.015566
v -0.021761 0.013151 -0.001081
v -0.021763 0.012675 0.008429
v -0.021761 0.011724 -0.006314
v -0.021763 0.010772 0.016043
v -0.027944 0.012675 -0.001081
v -0.032225 0.011724 0.016043
v -0.024140 0.011724 -0.006314
v -0.027944 0.012675 0.008429
v -0.024616 0.013151 -0.006314
v -0.026519 0.010772 0.015566
v -0.025567 0.011724 0.016043
v -0.021761 0.013151 -0.006314
v -0.027944 0.012199 -0.001081
f 765 769 773 
f 761 762 764 
f 763 761 764 
f 760 764 766 
f 765 760 766 
f 762 761 768 
f 766 762 768 
f 765 766 768 
f 763 767 769 
f 768 761 769 
f 765 768 769 
f 764 760 770 
f 763 764 770 
f 767 763 770 
f 760 767 770 
f 764 762 771 
f 762 766 771 
f 766 764 771 
f 761 763 772 
f 769 761 772 
f 763 769 772 
f 760 765 773 
f 767 760 773 
f 769 767 773 
o convex_37
v -0.006540 -0.003972 -0.003460
v -0.014150 0.006016 -0.006313
v -0.014150 0.006016 -0.006790
v -0.017480 -0.006352 -0.006790
v -0.017480 0.003161 -0.001082
v -0.004161 0.001734 -0.006790
v -0.008444 0.003160 -0.001082
v -0.017480 -0.003497 -0.001082
v -0.017480 0.006016 -0.006790
v -0.005589 -0.003972 -0.005838
v -0.008444 -0.003022 -0.001082
v -0.004637 0.003160 -0.004887
v -0.016528 -0.006352 -0.004410
v -0.004161 -0.000643 -0.004410
v -0.017480 0.006016 -0.004410
v -0.004161 -0.001593 -0.006790
v -0.005589 0.004111 -0.004887
v -0.014150 -0.006352 -0.006790
v -0.006064 -0.004449 -0.004410
v -0.005589 0.004111 -0.005838
v -0.007016 0.004111 -0.003460
f 780 790 794 
f 777 776 779 
f 778 777 781 
f 780 778 781 
f 775 776 782 
f 776 777 782 
f 777 778 782 
f 780 781 784 
f 781 777 786 
f 784 781 786 
f 784 774 787 
f 780 784 787 
f 779 785 787 
f 785 780 787 
f 778 780 788 
f 775 782 788 
f 782 778 788 
f 777 779 789 
f 779 787 789 
f 776 775 790 
f 780 785 790 
f 786 777 791 
f 777 789 791 
f 789 783 791 
f 774 784 792 
f 784 786 792 
f 787 774 792 
f 783 789 792 
f 789 787 792 
f 791 783 792 
f 786 791 792 
f 779 776 793 
f 785 779 793 
f 776 790 793 
f 790 785 793 
f 788 780 794 
f 775 788 794 
f 790 775 794 
o convex_38
v -0.062194 -0.008254 -0.007265
v -0.060767 0.001734 -0.001082
v -0.063145 0.001734 -0.001082
v -0.060767 -0.008254 -0.001082
v -0.060767 0.001734 -0.007265
v -0.063145 -0.008254 -0.001082
v -0.060767 -0.008254 -0.007265
v -0.062194 0.001734 -0.007265
v -0.063145 0.001734 -0.003461
v -0.063145 -0.008254 -0.003461
f 800 803 804 
f 796 797 798 
f 797 796 799 
f 796 798 799 
f 798 797 800 
f 795 798 800 
f 798 795 801 
f 795 799 801 
f 799 798 801 
f 799 795 802 
f 797 799 802 
f 800 797 803 
f 802 795 803 
f 797 802 803 
f 795 800 804 
f 803 795 804 
o convex_39
v -0.069330 -0.004925 -0.007265
v -0.069805 -0.001120 -0.003936
v -0.069805 -0.001120 -0.007265
v -0.072659 -0.003973 -0.004412
v -0.072659 -0.002072 -0.007265
v -0.068378 -0.003498 -0.003936
v -0.068378 -0.002072 -0.007265
v -0.071231 -0.004925 -0.003936
v -0.072182 -0.004449 -0.007265
v -0.071231 -0.001120 -0.003936
f 808 812 814 
f 807 805 809 
f 805 807 811 
f 807 806 811 
f 810 805 811 
f 806 810 811 
f 805 810 812 
f 810 806 812 
f 809 805 813 
f 808 809 813 
f 812 808 813 
f 805 812 813 
f 806 807 814 
f 809 808 814 
f 807 809 814 
f 812 806 814 
o convex_40
v -0.035080 0.016006 -0.014401
v -0.054583 0.016956 -0.022963
v -0.054583 0.017432 -0.022963
v -0.035080 0.015529 -0.022963
v -0.048394 0.018383 -0.022011
v -0.054583 0.016481 -0.014401
v -0.054583 0.018383 -0.014877
v -0.036984 0.015054 -0.020584
v -0.042695 0.017907 -0.014877
v -0.035080 0.016481 -0.022963
v -0.053630 0.016481 -0.022963
v -0.041269 0.015529 -0.014401
v -0.054583 0.018383 -0.022487
v -0.035080 0.015054 -0.018207
v -0.035080 0.016481 -0.015353
v -0.043167 0.017907 -0.020584
f 823 824 830 
f 816 817 818 
f 817 816 820 
f 820 815 821 
f 817 820 821 
f 821 815 823 
f 819 821 823 
f 818 817 824 
f 815 818 824 
f 816 818 825 
f 820 816 825 
f 818 822 825 
f 822 820 825 
f 815 820 826 
f 820 822 826 
f 821 819 827 
f 817 821 827 
f 824 817 827 
f 819 824 827 
f 818 815 828 
f 822 818 828 
f 815 826 828 
f 826 822 828 
f 823 815 829 
f 815 824 829 
f 824 823 829 
f 819 823 830 
f 824 819 830 
o convex_41
v -0.020811 0.015053 -0.001083
v -0.035080 0.015529 -0.014875
v -0.035080 0.016004 -0.014875
v -0.035080 0.016004 -0.001083
v -0.034128 0.013151 -0.001083
v -0.021286 0.014103 -0.014875
v -0.022239 0.016480 -0.012020
v -0.035080 0.013151 -0.012970
v -0.021763 0.013151 -0.001083
v -0.033651 0.017432 -0.009641
v -0.026518 0.016005 -0.001083
v -0.022239 0.016005 -0.014875
v -0.034128 0.017432 -0.012495
v -0.021763 0.013151 -0.006317
v -0.022714 0.016480 -0.007743
v -0.032224 0.016480 -0.001083
v -0.020811 0.015053 -0.014875
v -0.035080 0.013151 -0.003938
v -0.021286 0.015529 -0.001083
f 847 837 849 
f 833 832 834 
f 831 834 835 
f 832 833 836 
f 834 832 838 
f 832 836 838 
f 831 835 839 
f 836 831 839 
f 835 838 839 
f 834 831 841 
f 836 833 842 
f 833 834 843 
f 834 840 843 
f 840 837 843 
f 842 833 843 
f 837 842 843 
f 838 836 844 
f 836 839 844 
f 839 838 844 
f 837 840 845 
f 841 845 846 
f 840 834 846 
f 834 841 846 
f 845 840 846 
f 831 836 847 
f 836 842 847 
f 842 837 847 
f 835 834 848 
f 834 838 848 
f 838 835 848 
f 841 831 849 
f 837 845 849 
f 845 841 849 
f 831 847 849 
o convex_42
v -0.054584 -0.001119 0.007956
v -0.053157 0.006491 0.016043
v -0.053157 0.007443 0.013663
v -0.056961 0.003161 0.013188
v -0.053157 -0.002071 0.013663
v -0.053632 0.007443 0.007956
v -0.056961 -0.002071 0.013188
v -0.056961 0.003161 0.009860
v -0.053632 -0.002071 0.007956
v -0.053632 -0.000167 0.016043
v -0.056961 -0.002071 0.009860
v -0.054584 0.006967 0.013188
v -0.055534 0.003637 0.007956
v -0.053157 -0.001595 0.010811
v -0.054584 0.006967 0.007956
f 862 857 864 
f 852 851 854 
f 856 853 857 
f 850 855 858 
f 854 856 858 
f 851 853 859 
f 854 851 859 
f 853 856 859 
f 856 854 859 
f 856 857 860 
f 850 858 860 
f 858 856 860 
f 851 852 861 
f 853 851 861 
f 852 855 861 
f 857 853 861 
f 855 850 862 
f 850 860 862 
f 860 857 862 
f 852 854 863 
f 855 852 863 
f 858 855 863 
f 854 858 863 
f 861 855 864 
f 857 861 864 
f 855 862 864 
o convex_43
v -0.013675 -0.003497 0.004151
v 0.003450 0.003162 0.007005
v 0.003450 0.003162 0.005103
v 0.003450 -0.003022 0.007005
v -0.013675 0.001258 0.007005
v -0.013675 -0.003973 0.007005
v 0.003450 -0.003022 0.005103
v -0.013675 0.001258 0.004627
v -0.006541 -0.003973 0.004151
v -0.003210 0.003162 0.007005
v -0.006064 -0.004449 0.006053
v -0.008441 -0.002070 0.004151
v -0.003210 0.003162 0.005103
v -0.006541 -0.004449 0.004627
f 871 875 878 
f 867 866 868 
f 868 866 869 
f 869 865 870 
f 868 869 870 
f 867 868 871 
f 865 869 872 
f 867 871 873 
f 866 867 874 
f 869 866 874 
f 872 869 874 
f 868 870 875 
f 871 868 875 
f 865 872 876 
f 872 867 876 
f 873 865 876 
f 867 873 876 
f 867 872 877 
f 874 867 877 
f 872 874 877 
f 870 865 878 
f 865 873 878 
f 873 871 878 
f 875 870 878 
o convex_44
v 0.009633 -0.006349 0.011761
v 0.002021 0.011246 0.011761
v 0.002021 0.011246 0.009860
v -0.020334 -0.006349 0.007006
v -0.020334 0.003635 0.013664
v -0.012245 -0.009203 0.013664
v 0.004399 -0.008253 0.007481
v -0.020334 0.006013 0.007006
v 0.008679 0.003635 0.013664
v 0.007730 0.005537 0.007481
v 0.000593 -0.011582 0.009384
v -0.012722 0.008866 0.013664
v 0.003450 -0.008727 0.013664
v -0.020334 -0.006349 0.012236
v 0.011536 -0.000642 0.009384
v 0.003450 -0.003020 0.007006
v 0.010108 0.006013 0.011761
v 0.001070 0.008866 0.007481
v 0.003450 0.008866 0.013664
v -0.001785 0.011246 0.009384
v 0.000593 -0.011582 0.011761
v 0.008205 -0.004447 0.007481
v 0.005827 -0.010154 0.009384
v 0.006302 0.009818 0.009384
v 0.009156 -0.002068 0.013664
v -0.020334 0.006013 0.012236
v 0.003450 0.003159 0.007006
v -0.020334 -0.003971 0.013664
v 0.011536 -0.000642 0.011761
v 0.010108 -0.005873 0.009384
v 0.010108 0.006013 0.009384
v 0.005827 -0.010154 0.011761
v -0.000833 -0.011582 0.009384
v 0.006302 0.009818 0.011761
v -0.003688 -0.008729 0.007481
v 0.009156 0.001257 0.007481
v 0.007730 -0.005397 0.013664
v -0.001785 0.011246 0.011761
v -0.003213 0.008866 0.007481
v 0.001070 0.009342 0.013664
v 0.003924 0.008390 0.007481
v 0.005353 0.007916 0.013664
f 895 912 920 
f 882 883 886 
f 883 884 887 
f 883 887 890 
f 887 884 891 
f 883 882 892 
f 882 884 892 
f 885 882 894 
f 882 886 894 
f 890 887 897 
f 880 881 898 
f 886 890 898 
f 881 896 898 
f 891 884 899 
f 885 894 900 
f 889 885 901 
f 899 889 901 
f 885 900 901 
f 881 880 902 
f 887 891 903 
f 886 883 904 
f 890 886 904 
f 883 890 904 
f 894 886 905 
f 886 896 905 
f 884 883 906 
f 883 892 906 
f 892 884 906 
f 895 887 907 
f 893 895 907 
f 903 879 907 
f 887 903 907 
f 900 893 908 
f 879 901 908 
f 901 900 908 
f 907 879 908 
f 893 907 908 
f 895 893 909 
f 902 895 909 
f 888 902 909 
f 891 899 910 
f 901 879 910 
f 899 901 910 
f 884 882 911 
f 889 899 911 
f 899 884 911 
f 880 897 912 
f 902 880 912 
f 895 902 912 
f 882 885 913 
f 885 889 913 
f 911 882 913 
f 889 911 913 
f 893 900 914 
f 900 894 914 
f 894 905 914 
f 905 888 914 
f 888 909 914 
f 909 893 914 
f 879 903 915 
f 903 891 915 
f 910 879 915 
f 891 910 915 
f 880 898 916 
f 898 890 916 
f 896 886 917 
f 886 898 917 
f 898 896 917 
f 897 880 918 
f 890 897 918 
f 880 916 918 
f 916 890 918 
f 896 881 919 
f 881 902 919 
f 902 888 919 
f 905 896 919 
f 888 905 919 
f 887 895 920 
f 897 887 920 
f 912 897 920 
o convex_45
v 0.008679 -0.006825 0.016043
v 0.000117 0.012675 0.015091
v 0.000117 0.012675 0.014616
v -0.021761 -0.008728 0.015567
v 0.002021 -0.009204 0.013664
v -0.020333 0.003633 0.013664
v -0.021761 0.011246 0.016043
v 0.007731 0.005536 0.013664
v 0.009631 0.006015 0.016043
v -0.001784 -0.011107 0.016043
v -0.012723 -0.009204 0.013664
v 0.011060 -0.006352 0.014616
v -0.012723 0.009344 0.013664
v 0.001069 -0.012536 0.014616
v -0.021761 -0.008728 0.016043
v 0.011060 0.006488 0.014616
v 0.005826 0.009817 0.016043
v -0.020333 -0.003973 0.013664
v 0.009155 -0.002070 0.013664
v 0.012488 -0.001117 0.015091
v -0.021761 0.011246 0.015567
v 0.003449 0.008865 0.013664
v 0.006302 -0.011107 0.015091
v 0.006779 0.010770 0.014616
v 0.011536 0.001254 0.014141
v 0.001069 0.011246 0.016043
v -0.000832 -0.012536 0.015091
v 0.005350 -0.007778 0.013664
v 0.006302 -0.011107 0.014616
v 0.010584 -0.002070 0.016043
v 0.004398 -0.010157 0.016043
f 947 943 951 
f 922 923 927 
f 925 926 928 
f 927 921 929 
f 921 927 930 
f 926 925 931 
f 928 926 933 
f 931 925 934 
f 927 924 935 
f 930 927 935 
f 927 929 937 
f 924 926 938 
f 926 931 938 
f 931 924 938 
f 925 928 939 
f 921 932 940 
f 936 929 940 
f 926 924 941 
f 924 927 941 
f 927 923 941 
f 933 926 941 
f 923 933 941 
f 933 923 942 
f 928 933 942 
f 932 921 943 
f 923 922 944 
f 936 928 944 
f 929 936 944 
f 922 937 944 
f 937 929 944 
f 942 923 944 
f 928 942 944 
f 928 936 945 
f 939 928 945 
f 932 939 945 
f 936 940 945 
f 940 932 945 
f 922 927 946 
f 937 922 946 
f 927 937 946 
f 924 931 947 
f 931 934 947 
f 935 924 947 
f 930 935 947 
f 934 943 947 
f 925 939 948 
f 939 932 948 
f 934 925 949 
f 932 943 949 
f 943 934 949 
f 925 948 949 
f 948 932 949 
f 929 921 950 
f 921 940 950 
f 940 929 950 
f 921 930 951 
f 943 921 951 
f 930 947 951 
o convex_46
v -0.076940 0.015529 0.009381
v -0.070281 0.015529 0.000821
v -0.070281 0.014102 0.000821
v -0.076940 0.012675 -0.001082
v -0.072659 0.012675 0.009381
v -0.076463 0.015529 -0.001082
v -0.078367 0.012675 0.007480
v -0.070281 0.012675 -0.001082
v -0.072184 0.015529 0.008907
v -0.078367 0.015529 0.006528
v -0.070281 0.015529 -0.001082
v -0.075988 0.012675 0.009859
v -0.071708 0.012675 0.007956
v -0.073611 0.015529 0.009859
f 963 956 965 
f 952 953 957 
f 955 956 958 
f 953 954 959 
f 956 955 959 
f 955 957 959 
f 953 952 960 
f 952 957 961 
f 957 955 961 
f 955 958 961 
f 958 952 961 
f 957 953 962 
f 953 959 962 
f 959 957 962 
f 952 958 963 
f 958 956 963 
f 954 953 964 
f 959 954 964 
f 956 959 964 
f 953 960 964 
f 960 956 964 
f 960 952 965 
f 956 960 965 
f 952 963 965 
o convex_47
v -0.068378 0.012675 0.003675
v -0.062194 0.013151 0.010810
v -0.062194 0.012675 0.010810
v -0.064098 0.013627 0.003675
v -0.066950 0.014578 0.007480
v -0.068378 0.012675 0.007480
v -0.065999 0.014578 0.003675
v -0.064098 0.012675 0.003675
f 966 969 973 
f 967 968 969 
f 967 970 971 
f 966 968 971 
f 968 967 971 
f 970 966 971 
f 967 969 972 
f 969 966 972 
f 966 970 972 
f 970 967 972 
f 968 966 973 
f 969 968 973 
o convex_48
v -0.088355 0.018859 -0.001082
v -0.078844 0.020286 0.016043
v -0.078844 0.017908 0.016043
v -0.078844 0.017908 -0.001082
v -0.088355 0.018384 0.016043
v -0.086452 0.021713 0.004152
v -0.079795 0.019335 -0.001082
v -0.084550 0.020762 0.016043
v -0.085977 0.017908 -0.001082
v -0.078844 0.020286 0.007006
v -0.088355 0.019335 0.015567
v -0.085977 0.020286 -0.001082
v -0.085977 0.021713 0.008431
v -0.084550 0.017908 0.015567
v -0.088355 0.019335 -0.001082
f 979 985 988 
f 975 976 977 
f 976 975 978 
f 977 974 980 
f 978 975 981 
f 977 976 982 
f 974 977 982 
f 978 974 982 
f 975 977 983 
f 977 980 983 
f 980 979 983 
f 974 978 984 
f 978 981 984 
f 980 974 985 
f 979 980 985 
f 981 975 986 
f 975 983 986 
f 983 979 986 
f 979 984 986 
f 984 981 986 
f 976 978 987 
f 982 976 987 
f 978 982 987 
f 974 984 988 
f 984 979 988 
f 985 974 988 
o convex_49
v -0.045072 0.017432 0.003675
v -0.055534 0.012675 -0.001082
v -0.055534 0.012675 0.007005
v -0.035082 0.012675 -0.001082
v -0.035082 0.012675 0.007005
v -0.047446 0.017432 -0.001082
v -0.050299 0.016480 0.007005
v -0.038888 0.016005 0.007005
v -0.039839 0.016480 -0.001082
v -0.053154 0.015054 -0.001082
v -0.036986 0.015054 -0.001082
v -0.041743 0.016956 0.007005
v -0.055534 0.013151 0.007005
v -0.036510 0.014579 0.007005
v -0.046019 0.017432 0.005578
v -0.044596 0.017432 -0.001082
v -0.053154 0.015054 0.007005
f 998 1001 1005 
f 991 990 992 
f 991 992 993 
f 992 990 994 
f 991 993 995 
f 995 993 996 
f 992 994 997 
f 994 990 998 
f 995 994 998 
f 992 997 999 
f 997 996 999 
f 995 996 1000 
f 996 997 1000 
f 990 991 1001 
f 991 995 1001 
f 998 990 1001 
f 993 992 1002 
f 996 993 1002 
f 992 999 1002 
f 999 996 1002 
f 989 994 1003 
f 994 995 1003 
f 1000 989 1003 
f 995 1000 1003 
f 994 989 1004 
f 997 994 1004 
f 989 1000 1004 
f 1000 997 1004 
f 995 998 1005 
f 1001 995 1005 
o convex_50
v -0.065049 0.003638 0.016043
v -0.070283 0.008869 0.017946
v -0.064574 0.007442 0.017946
v -0.076939 0.003638 0.017946
v -0.076464 0.007442 0.016043
v -0.064574 0.007442 0.016043
v -0.064097 0.004113 0.017946
v -0.076939 0.003638 0.016043
v -0.077891 0.006491 0.017946
v -0.070283 0.008869 0.016043
f 1011 1010 1015 
f 1008 1007 1009 
f 1007 1008 1011 
f 1006 1010 1011 
f 1011 1008 1012 
f 1008 1009 1012 
f 1009 1006 1012 
f 1006 1011 1012 
f 1006 1009 1013 
f 1010 1006 1013 
f 1010 1013 1014 
f 1009 1007 1014 
f 1007 1010 1014 
f 1013 1009 1014 
f 1010 1007 1015 
f 1007 1011 1015 
o convex_51
v -0.071231 -0.004924 -0.003936
v -0.063147 0.001734 -0.001082
v -0.063147 -0.008254 -0.001082
v -0.078367 0.001734 -0.001082
v -0.078367 -0.008254 -0.001082
v -0.063624 0.001734 -0.003460
v -0.078367 0.001257 -0.003460
v -0.063624 -0.008254 -0.003460
v -0.077889 -0.008254 -0.003460
v -0.068856 -0.001596 -0.003936
v -0.063147 -0.007778 -0.003460
v -0.077889 0.001734 -0.003460
f 1025 1022 1027 
f 1018 1017 1019 
f 1018 1019 1020 
f 1019 1017 1021 
f 1020 1019 1022 
f 1018 1020 1023 
f 1022 1016 1024 
f 1020 1022 1024 
f 1016 1023 1024 
f 1023 1020 1024 
f 1016 1022 1025 
f 1017 1018 1026 
f 1021 1017 1026 
f 1023 1016 1026 
f 1018 1023 1026 
f 1025 1021 1026 
f 1016 1025 1026 
f 1019 1021 1027 
f 1022 1019 1027 
f 1021 1025 1027 
o convex_52
v 0.002974 -0.011583 -0.015352
v 0.000592 0.012675 -0.014401
v 0.001067 0.009344 -0.013449
v -0.031275 0.005060 -0.013449
v 0.005347 -0.007778 -0.013449
v -0.020334 0.003633 -0.015352
v 0.010582 0.006488 -0.015352
v -0.012718 -0.009204 -0.013449
v -0.020334 -0.003973 -0.015352
v -0.030791 0.008391 -0.014401
v -0.002261 0.011723 -0.015352
v 0.012488 -0.001117 -0.014401
v -0.029844 0.008865 -0.013449
v 0.007729 0.005536 -0.013449
v 0.010582 -0.006352 -0.015352
v -0.000839 -0.012536 -0.014401
v -0.012246 -0.009204 -0.015352
v 0.006302 -0.011107 -0.014401
v 0.006773 0.010770 -0.014401
v 0.011057 0.006488 -0.014401
v -0.012718 0.009344 -0.015352
v 0.008680 -0.003496 -0.013449
v 0.011057 -0.006352 -0.014401
v -0.031275 0.005536 -0.014401
v 0.006302 0.010296 -0.015352
v -0.000359 0.012675 -0.014876
v 0.002023 -0.009204 -0.013449
v -0.020334 -0.003973 -0.013449
v 0.012004 0.001254 -0.015352
v -0.001310 -0.012060 -0.015352
f 1043 1044 1057 
f 1030 1031 1032 
f 1028 1033 1034 
f 1032 1031 1035 
f 1033 1028 1036 
f 1034 1033 1038 
f 1030 1029 1040 
f 1031 1030 1040 
f 1037 1031 1040 
f 1030 1032 1041 
f 1028 1034 1042 
f 1036 1028 1044 
f 1035 1036 1044 
f 1043 1035 1044 
f 1028 1042 1045 
f 1043 1028 1045 
f 1029 1030 1046 
f 1030 1041 1046 
f 1046 1041 1047 
f 1041 1039 1047 
f 1034 1046 1047 
f 1033 1037 1048 
f 1038 1033 1048 
f 1037 1038 1048 
f 1041 1032 1049 
f 1039 1041 1049 
f 1042 1039 1050 
f 1032 1045 1050 
f 1045 1042 1050 
f 1049 1032 1050 
f 1039 1049 1050 
f 1033 1036 1051 
f 1036 1031 1051 
f 1031 1037 1051 
f 1037 1033 1051 
f 1034 1038 1052 
f 1046 1034 1052 
f 1046 1052 1053 
f 1038 1037 1053 
f 1040 1029 1053 
f 1037 1040 1053 
f 1029 1046 1053 
f 1052 1038 1053 
f 1032 1035 1054 
f 1035 1043 1054 
f 1045 1032 1054 
f 1043 1045 1054 
f 1035 1031 1055 
f 1031 1036 1055 
f 1036 1035 1055 
f 1042 1034 1056 
f 1039 1042 1056 
f 1034 1047 1056 
f 1047 1039 1056 
f 1028 1043 1057 
f 1044 1028 1057 
o convex_53
v -0.060287 0.005064 -0.017255
v -0.031750 0.009345 -0.015828
v -0.031750 0.009345 -0.017255
v -0.041743 -0.009682 -0.015828
v -0.060767 0.006965 -0.015828
v -0.042220 -0.009682 -0.016779
v -0.052675 -0.007302 -0.015828
v -0.033656 -0.003022 -0.016303
v -0.057432 -0.002547 -0.016779
v -0.058864 0.007442 -0.017255
v -0.044120 0.001258 -0.017255
v -0.031750 0.006490 -0.017255
v -0.033182 -0.002072 -0.015828
v -0.048869 -0.009203 -0.016303
v -0.057432 -0.002072 -0.015828
f 1066 1064 1072 
f 1061 1059 1062 
f 1061 1062 1064 
f 1061 1063 1065 
f 1062 1058 1066 
f 1058 1063 1066 
f 1060 1058 1067 
f 1059 1060 1067 
f 1058 1062 1067 
f 1062 1059 1067 
f 1058 1060 1068 
f 1063 1058 1068 
f 1063 1068 1069 
f 1060 1059 1069 
f 1065 1063 1069 
f 1068 1060 1069 
f 1065 1069 1070 
f 1059 1061 1070 
f 1061 1065 1070 
f 1069 1059 1070 
f 1063 1061 1071 
f 1061 1064 1071 
f 1066 1063 1071 
f 1064 1066 1071 
f 1064 1062 1072 
f 1062 1066 1072 
o convex_54
v -0.034129 -0.013487 -0.007265
v -0.022237 -0.009206 -0.001080
v -0.022238 -0.009206 0.011762
v -0.022237 -0.013487 -0.001080
v -0.026043 -0.013487 0.011762
v -0.026043 -0.009206 0.011762
v -0.026043 -0.009206 -0.006789
v -0.022237 -0.013487 -0.006789
v -0.032701 -0.013010 0.004627
v -0.022238 -0.013487 0.011762
v -0.034129 -0.013010 -0.005360
v -0.022237 -0.009206 -0.006789
v -0.031748 -0.013487 0.006051
f 1078 1081 1085 
f 1074 1075 1076 
f 1073 1076 1077 
f 1077 1075 1078 
f 1075 1074 1078 
f 1078 1074 1079 
f 1074 1076 1080 
f 1076 1073 1080 
f 1076 1075 1082 
f 1077 1076 1082 
f 1075 1077 1082 
f 1079 1073 1083 
f 1078 1079 1083 
f 1073 1081 1083 
f 1081 1078 1083 
f 1073 1079 1084 
f 1079 1074 1084 
f 1074 1080 1084 
f 1080 1073 1084 
f 1073 1077 1085 
f 1077 1078 1085 
f 1081 1073 1085 
o convex_55
v -0.040790 -0.005876 0.016043
v -0.050302 -0.006352 0.007481
v -0.050302 -0.006352 0.009384
v -0.033179 -0.007303 0.016043
v -0.039838 -0.005876 0.007481
v -0.043165 -0.007303 0.007481
v -0.046020 -0.007303 0.013187
v -0.046020 -0.005876 0.016043
v -0.050302 -0.005876 0.007481
v -0.033179 -0.006828 0.016043
v -0.049824 -0.006352 0.013187
v -0.046970 -0.007303 0.007481
v -0.046020 -0.006352 0.016043
f 1093 1096 1098 
f 1087 1090 1091 
f 1090 1089 1091 
f 1091 1089 1092 
f 1089 1086 1093 
f 1086 1090 1093 
f 1087 1088 1094 
f 1090 1087 1094 
f 1093 1090 1094 
f 1086 1089 1095 
f 1090 1086 1095 
f 1089 1090 1095 
f 1094 1088 1096 
f 1093 1094 1096 
f 1088 1087 1097 
f 1087 1091 1097 
f 1091 1092 1097 
f 1096 1088 1097 
f 1092 1096 1097 
f 1092 1089 1098 
f 1089 1093 1098 
f 1096 1092 1098 
o convex_56
v -0.078365 0.001735 -0.002985
v -0.066477 0.010772 -0.001082
v -0.066477 0.010772 -0.005362
v -0.060769 0.001735 -0.007265
v -0.078365 0.008869 -0.007265
v -0.060769 0.001735 -0.001082
v -0.077888 0.009344 -0.001082
v -0.060769 0.008394 -0.007265
v -0.078365 0.002210 -0.007265
v -0.078365 0.001735 -0.001082
v -0.060769 0.008394 -0.001082
v -0.074560 0.010772 -0.007265
v -0.074560 0.010772 -0.001082
v -0.066953 0.010772 -0.007265
v -0.078365 0.008869 -0.001082
f 1108 1105 1113 
f 1099 1102 1104 
f 1104 1100 1105 
f 1101 1100 1106 
f 1102 1103 1106 
f 1104 1102 1106 
f 1102 1099 1107 
f 1099 1103 1107 
f 1103 1102 1107 
f 1103 1099 1108 
f 1099 1104 1108 
f 1104 1105 1108 
f 1100 1104 1109 
f 1106 1100 1109 
f 1104 1106 1109 
f 1100 1101 1110 
f 1103 1105 1110 
f 1106 1103 1110 
f 1105 1100 1111 
f 1100 1110 1111 
f 1110 1105 1111 
f 1101 1106 1112 
f 1110 1101 1112 
f 1106 1110 1112 
f 1105 1103 1113 
f 1103 1108 1113 
o convex_57
v -0.030799 0.001735 0.016043
v -0.035080 -0.001120 0.007956
v -0.035080 0.004112 0.007956
v -0.030799 0.000783 0.007956
v -0.035080 -0.001120 0.016043
v -0.031751 0.005540 0.016043
v -0.030799 0.005064 0.007956
v -0.034604 0.005540 0.016043
v -0.031275 -0.001120 0.013663
v -0.034604 0.005540 0.007956
v -0.031275 -0.001120 0.007956
v -0.030799 0.005064 0.016043
v -0.031275 -0.000644 0.016043
f 1118 1122 1126 
f 1115 1116 1117 
f 1116 1115 1118 
f 1118 1114 1119 
f 1117 1116 1120 
f 1114 1117 1120 
f 1116 1118 1121 
f 1118 1119 1121 
f 1117 1114 1122 
f 1118 1115 1122 
f 1120 1116 1123 
f 1119 1120 1123 
f 1121 1119 1123 
f 1116 1121 1123 
f 1115 1117 1124 
f 1122 1115 1124 
f 1117 1122 1124 
f 1119 1114 1125 
f 1114 1120 1125 
f 1120 1119 1125 
f 1114 1118 1126 
f 1122 1114 1126 
o convex_58
v -0.061719 -0.012535 0.015091
v -0.085975 -0.013487 -0.001082
v -0.085975 -0.013487 0.004154
v -0.088353 -0.005876 0.003676
v -0.056010 -0.005876 -0.001082
v -0.083119 -0.005876 0.015091
v -0.060769 -0.013487 -0.001082
v -0.056010 -0.005876 0.013189
v -0.078364 -0.013487 0.015091
v -0.084547 -0.005876 -0.001082
v -0.057916 -0.013487 0.007005
v -0.085975 -0.006353 0.013189
v -0.058391 -0.005876 0.015091
v -0.059341 -0.013487 0.013189
v -0.083119 -0.012535 0.013189
v -0.056010 -0.008731 -0.001082
v -0.088353 -0.007780 0.007005
v -0.056488 -0.009207 0.013189
v -0.057916 -0.013487 0.003676
v -0.056010 -0.009207 0.007005
v -0.082648 -0.008731 0.015091
v -0.063147 -0.013487 0.015091
v -0.088353 -0.005876 0.007005
v -0.081695 -0.013487 0.013189
v -0.085975 -0.010632 -0.001082
f 1130 1136 1151 
f 1131 1130 1132 
f 1129 1128 1133 
f 1128 1131 1133 
f 1131 1132 1134 
f 1127 1132 1135 
f 1129 1133 1135 
f 1130 1131 1136 
f 1131 1128 1136 
f 1135 1133 1137 
f 1132 1127 1139 
f 1134 1132 1139 
f 1135 1137 1140 
f 1133 1131 1142 
f 1131 1134 1142 
f 1128 1129 1143 
f 1130 1128 1143 
f 1129 1141 1143 
f 1141 1138 1143 
f 1139 1127 1144 
f 1134 1139 1144 
f 1127 1140 1144 
f 1140 1137 1144 
f 1137 1133 1145 
f 1133 1142 1145 
f 1145 1142 1146 
f 1142 1134 1146 
f 1134 1144 1146 
f 1144 1137 1146 
f 1137 1145 1146 
f 1135 1132 1147 
f 1132 1138 1147 
f 1141 1135 1147 
f 1138 1141 1147 
f 1127 1135 1148 
f 1140 1127 1148 
f 1135 1140 1148 
f 1132 1130 1149 
f 1138 1132 1149 
f 1130 1143 1149 
f 1143 1138 1149 
f 1129 1135 1150 
f 1135 1141 1150 
f 1141 1129 1150 
f 1128 1130 1151 
f 1136 1128 1151 
o convex_59
v -0.060769 0.012199 0.009859
v -0.074560 0.010297 0.003199
v -0.076937 0.010297 0.003676
v -0.060769 0.010297 0.014140
v -0.077413 0.012675 0.009382
v -0.076937 0.010297 0.013188
v -0.064098 0.012675 0.003676
v -0.061721 0.012675 0.014140
v -0.061721 0.010297 0.004627
v -0.075986 0.012675 0.003676
v -0.072657 0.012199 0.013188
v -0.078365 0.012199 0.006056
v -0.066477 0.010297 0.003199
f 1158 1160 1164 
f 1154 1153 1155 
f 1154 1155 1157 
f 1158 1156 1159 
f 1155 1152 1159 
f 1157 1155 1159 
f 1152 1158 1159 
f 1155 1153 1160 
f 1152 1155 1160 
f 1158 1152 1160 
f 1153 1154 1161 
f 1158 1153 1161 
f 1156 1158 1161 
f 1156 1157 1162 
f 1159 1156 1162 
f 1157 1159 1162 
f 1154 1157 1163 
f 1157 1156 1163 
f 1161 1154 1163 
f 1156 1161 1163 
f 1153 1158 1164 
f 1160 1153 1164 
o convex_60
v -0.028420 -0.008256 0.016043
v -0.032224 -0.006829 0.016043
v -0.032224 -0.006829 0.015567
v -0.033177 -0.013487 0.014616
v -0.021761 -0.008256 0.015567
v -0.030322 -0.013011 0.014140
v -0.031750 -0.013487 0.015091
v -0.021761 -0.008731 0.016043
f 1165 1171 1172 
f 1166 1167 1168 
f 1167 1166 1169 
f 1167 1169 1170 
f 1168 1167 1170 
f 1168 1170 1171 
f 1165 1166 1171 
f 1166 1168 1171 
f 1166 1165 1172 
f 1169 1166 1172 
f 1170 1169 1172 
f 1171 1170 1172 
o convex_61
v -0.087402 -0.003973 0.007956
v -0.034132 0.010297 0.007480
v -0.034132 0.010297 -0.001082
v -0.033659 -0.005876 -0.001082
v -0.085976 0.007916 -0.001082
v -0.039366 -0.005876 0.007956
v -0.084545 -0.005876 -0.001082
v -0.077413 0.010297 0.007480
v -0.030802 0.005063 0.007956
v -0.087875 -0.005876 0.007003
v -0.075514 0.010297 -0.001082
v -0.085976 0.007916 0.004150
v -0.030323 0.002684 -0.001082
v -0.032228 -0.003972 0.007003
v -0.072179 0.010297 0.007956
v -0.032228 0.010295 -0.001082
v -0.087875 -0.005876 0.003674
v -0.087875 -0.002545 0.007956
v -0.030802 0.000785 0.007956
v -0.033659 -0.005876 0.007003
v -0.037462 0.010297 0.007956
v -0.081695 0.007442 0.007480
v -0.083593 -0.005876 0.007956
v -0.032707 0.010295 0.007480
v -0.031276 -0.001594 -0.001082
v -0.078838 0.007916 0.007956
v -0.031754 0.009344 0.000821
v -0.085976 0.004586 -0.001082
v -0.087875 -0.002545 0.004626
v -0.031276 -0.001118 0.007956
v -0.077413 0.010297 0.003674
f 1180 1183 1203 
f 1175 1176 1177 
f 1176 1178 1179 
f 1177 1176 1179 
f 1174 1175 1180 
f 1173 1178 1181 
f 1179 1178 1182 
f 1175 1177 1183 
f 1180 1175 1183 
f 1180 1177 1184 
f 1176 1175 1185 
f 1174 1180 1187 
f 1173 1181 1187 
f 1175 1174 1188 
f 1185 1175 1188 
f 1179 1182 1189 
f 1189 1182 1190 
f 1182 1173 1190 
f 1184 1177 1190 
f 1173 1187 1190 
f 1181 1178 1191 
f 1185 1181 1191 
f 1178 1176 1192 
f 1176 1186 1192 
f 1174 1187 1193 
f 1187 1181 1193 
f 1180 1184 1194 
f 1184 1190 1194 
f 1178 1173 1195 
f 1173 1182 1195 
f 1182 1178 1195 
f 1188 1174 1196 
f 1174 1193 1196 
f 1193 1181 1196 
f 1176 1185 1197 
f 1186 1176 1197 
f 1185 1191 1197 
f 1187 1180 1198 
f 1190 1187 1198 
f 1180 1194 1198 
f 1194 1190 1198 
f 1181 1185 1199 
f 1185 1188 1199 
f 1188 1196 1199 
f 1196 1181 1199 
f 1177 1179 1200 
f 1189 1177 1200 
f 1179 1189 1200 
f 1177 1189 1201 
f 1189 1190 1201 
f 1190 1177 1201 
f 1191 1178 1202 
f 1192 1186 1202 
f 1178 1192 1202 
f 1186 1197 1202 
f 1197 1191 1202 
f 1177 1180 1203 
f 1183 1177 1203 
o convex_62
v -0.056961 0.009821 0.007956
v -0.048875 0.010297 0.016043
v -0.048875 0.007443 0.016043
v -0.056485 0.010297 0.016043
v -0.051254 0.010297 0.007956
v -0.054107 0.007443 0.007956
v -0.054582 0.007919 0.016043
v -0.048875 0.007443 0.012237
v -0.048875 0.010297 0.012237
v -0.056961 0.010297 0.007956
f 1207 1208 1213 
f 1206 1205 1207 
f 1207 1205 1208 
f 1204 1208 1209 
f 1206 1207 1210 
f 1207 1204 1210 
f 1209 1206 1210 
f 1204 1209 1210 
f 1205 1206 1211 
f 1206 1209 1211 
f 1209 1208 1211 
f 1208 1205 1212 
f 1205 1211 1212 
f 1211 1208 1212 
f 1204 1207 1213 
f 1208 1204 1213 
o convex_63
v -0.014150 -0.003022 -0.001082
v -0.014150 0.006016 0.007005
v -0.020334 0.006016 0.007005
v -0.020334 -0.006352 0.007005
v -0.020334 0.006016 -0.001082
v -0.020334 -0.006352 -0.001082
v -0.014150 -0.006352 0.007005
v -0.013675 0.002685 -0.001082
v -0.013675 -0.003972 0.007005
v -0.018431 0.006016 -0.001082
v -0.018431 -0.006352 -0.001082
v -0.013675 0.004113 0.007005
v -0.013675 -0.002546 -0.001082
f 1221 1222 1226 
f 1215 1216 1217 
f 1216 1215 1218 
f 1217 1216 1218 
f 1218 1214 1219 
f 1217 1218 1219 
f 1215 1217 1220 
f 1217 1219 1220 
f 1214 1218 1221 
f 1215 1220 1222 
f 1218 1215 1223 
f 1221 1218 1223 
f 1215 1221 1223 
f 1219 1214 1224 
f 1214 1220 1224 
f 1220 1219 1224 
f 1221 1215 1225 
f 1215 1222 1225 
f 1222 1221 1225 
f 1220 1214 1226 
f 1214 1221 1226 
f 1222 1220 1226 
o convex_64
v -0.057439 0.016481 0.006529
v -0.078843 0.017907 -0.001082
v -0.078843 0.018859 -0.001082
v -0.078843 0.018859 0.006529
v -0.077887 0.015529 0.006529
v -0.057917 0.016005 -0.001082
v -0.058393 0.018859 -0.001082
v -0.057917 0.018859 0.006053
v -0.076461 0.015529 -0.001082
v -0.059344 0.015529 0.003198
v -0.064100 0.019335 -0.001082
v -0.065526 0.019335 0.004627
v -0.058868 0.016005 0.006529
v -0.057439 0.017432 -0.001082
v -0.059344 0.015529 0.000346
f 1236 1235 1241 
f 1229 1228 1230 
f 1227 1230 1231 
f 1230 1228 1231 
f 1228 1229 1232 
f 1232 1229 1233 
f 1230 1227 1234 
f 1231 1228 1235 
f 1228 1232 1235 
f 1232 1227 1236 
f 1231 1235 1236 
f 1233 1229 1237 
f 1234 1233 1237 
f 1234 1237 1238 
f 1229 1230 1238 
f 1230 1234 1238 
f 1237 1229 1238 
f 1227 1231 1239 
f 1236 1227 1239 
f 1231 1236 1239 
f 1227 1232 1240 
f 1232 1233 1240 
f 1234 1227 1240 
f 1233 1234 1240 
f 1235 1232 1241 
f 1232 1236 1241 
o convex_65
v -0.056010 0.017908 0.008433
v -0.078838 0.017433 0.006529
v -0.078838 0.018858 0.006529
v -0.078838 0.017433 0.016043
v -0.074559 0.020286 0.016043
v -0.056010 0.016481 0.016043
v -0.078365 0.015529 0.006529
v -0.059342 0.016005 0.006529
v -0.064574 0.019810 0.007005
v -0.058392 0.019334 0.016043
v -0.078838 0.020286 0.007005
v -0.075984 0.015529 0.009859
v -0.078838 0.020286 0.016043
v -0.066954 0.016481 0.016043
v -0.056010 0.016481 0.007005
v -0.058392 0.019334 0.009859
v -0.058392 0.017908 0.006529
v -0.060294 0.016005 0.011760
v -0.056964 0.018858 0.015567
v -0.071705 0.015529 0.006529
v -0.074559 0.020286 0.007005
f 1250 1258 1262 
f 1244 1243 1245 
f 1246 1245 1247 
f 1243 1244 1248 
f 1245 1243 1248 
f 1248 1244 1249 
f 1250 1246 1251 
f 1246 1247 1251 
f 1244 1245 1252 
f 1245 1248 1253 
f 1245 1246 1254 
f 1252 1245 1254 
f 1246 1252 1254 
f 1247 1245 1255 
f 1245 1253 1255 
f 1253 1247 1255 
f 1242 1247 1256 
f 1247 1249 1256 
f 1250 1251 1257 
f 1249 1244 1258 
f 1242 1256 1258 
f 1256 1249 1258 
f 1257 1242 1258 
f 1250 1257 1258 
f 1249 1247 1259 
f 1247 1253 1259 
f 1247 1242 1260 
f 1251 1247 1260 
f 1242 1257 1260 
f 1257 1251 1260 
f 1248 1249 1261 
f 1253 1248 1261 
f 1249 1259 1261 
f 1259 1253 1261 
f 1246 1250 1262 
f 1244 1252 1262 
f 1252 1246 1262 
f 1258 1244 1262 
o convex_66
v -0.035082 0.016481 0.013187
v -0.056010 0.016481 0.007005
v -0.056010 0.016481 0.016043
v -0.056010 0.018383 0.009861
v -0.035082 0.015054 0.007481
v -0.039839 0.015054 0.016043
v -0.052202 0.015054 0.007005
v -0.049348 0.018383 0.015567
v -0.041742 0.017907 0.008908
v -0.053152 0.018383 0.007481
v -0.035560 0.016481 0.016043
v -0.035082 0.016005 0.007005
v -0.035082 0.015054 0.016043
v -0.056010 0.018383 0.014614
v -0.045071 0.017907 0.016043
v -0.049348 0.018383 0.007958
v -0.054105 0.017907 0.007005
f 1272 1274 1279 
f 1264 1265 1266 
f 1268 1265 1269 
f 1265 1264 1269 
f 1267 1268 1269 
f 1266 1270 1272 
f 1265 1268 1273 
f 1263 1271 1273 
f 1263 1267 1274 
f 1269 1264 1274 
f 1267 1269 1274 
f 1271 1263 1274 
f 1267 1263 1275 
f 1268 1267 1275 
f 1263 1273 1275 
f 1273 1268 1275 
f 1266 1265 1276 
f 1265 1270 1276 
f 1270 1266 1276 
f 1270 1265 1277 
f 1271 1270 1277 
f 1265 1273 1277 
f 1273 1271 1277 
f 1270 1271 1278 
f 1272 1270 1278 
f 1271 1274 1278 
f 1274 1272 1278 
f 1264 1266 1279 
f 1266 1272 1279 
f 1274 1264 1279 
o convex_67
v -0.075513 -0.006828 0.020800
v -0.088356 -0.007779 0.017470
v -0.088356 -0.007779 0.020800
v -0.075513 -0.009206 0.017470
v -0.082172 -0.006352 0.017470
v -0.076465 -0.009206 0.020800
v -0.088356 -0.006352 0.020800
v -0.075513 -0.006828 0.017470
v -0.088356 -0.006352 0.017470
f 1286 1284 1288 
f 1283 1281 1284 
f 1280 1282 1285 
f 1282 1281 1285 
f 1281 1283 1285 
f 1283 1280 1285 
f 1282 1280 1286 
f 1281 1282 1286 
f 1280 1284 1286 
f 1280 1283 1287 
f 1284 1280 1287 
f 1283 1284 1287 
f 1284 1281 1288 
f 1281 1286 1288 
o convex_68
v -0.059815 -0.012535 -0.023914
v -0.031750 -0.009682 -0.021536
v -0.031750 -0.013011 -0.021060
v -0.060767 -0.009682 -0.021536
v -0.060767 -0.013963 -0.021536
v -0.031750 -0.013963 -0.022963
v -0.037937 -0.009682 -0.023438
v -0.059815 -0.009682 -0.023914
v -0.060767 -0.013963 -0.022963
v -0.048872 -0.013963 -0.021060
v -0.031750 -0.009682 -0.022963
v -0.031750 -0.013963 -0.021060
f 1298 1294 1300 
f 1291 1290 1292 
f 1290 1291 1294 
f 1294 1289 1295 
f 1292 1290 1295 
f 1292 1295 1296 
f 1295 1289 1296 
f 1296 1289 1297 
f 1293 1292 1297 
f 1294 1293 1297 
f 1289 1294 1297 
f 1292 1296 1297 
f 1291 1292 1298 
f 1292 1293 1298 
f 1293 1294 1298 
f 1290 1294 1299 
f 1294 1295 1299 
f 1295 1290 1299 
f 1294 1291 1300 
f 1291 1298 1300 
o convex_69
v -0.060767 -0.001594 -0.023914
v -0.031750 0.012199 -0.020585
v -0.031750 0.012199 -0.023438
v -0.031750 -0.009682 -0.022963
v -0.060767 0.010771 -0.020585
v -0.060767 -0.009682 -0.021536
v -0.060767 0.010771 -0.023438
v -0.043171 -0.001594 -0.020585
v -0.056007 -0.009682 -0.023914
v -0.031750 -0.009682 -0.021536
v -0.060767 -0.003496 -0.020585
v -0.031750 -0.009204 -0.023438
v -0.054581 0.008393 -0.023914
v -0.048872 0.001734 -0.023914
v -0.059815 -0.009682 -0.023914
v -0.031750 0.010295 -0.020585
f 1308 1310 1316 
f 1303 1302 1304 
f 1302 1303 1305 
f 1305 1301 1306 
f 1301 1305 1307 
f 1305 1303 1307 
f 1302 1305 1308 
f 1304 1306 1309 
f 1304 1302 1310 
f 1306 1304 1310 
f 1310 1308 1311 
f 1305 1306 1311 
f 1308 1305 1311 
f 1306 1310 1311 
f 1303 1304 1312 
f 1304 1309 1312 
f 1301 1307 1313 
f 1307 1303 1313 
f 1309 1301 1313 
f 1313 1303 1314 
f 1303 1312 1314 
f 1312 1309 1314 
f 1309 1313 1314 
f 1306 1301 1315 
f 1301 1309 1315 
f 1309 1306 1315 
f 1302 1308 1316 
f 1310 1302 1316 
o convex_70
v -0.082172 -0.012059 -0.013449
v -0.074088 -0.008256 -0.012497
v -0.074088 -0.011584 -0.007267
v -0.080744 -0.008732 -0.007267
v -0.086927 -0.015390 -0.007742
v -0.077417 -0.015390 -0.013449
v -0.076942 -0.015390 -0.007267
v -0.080744 -0.008732 -0.013449
v -0.086927 -0.013963 -0.010594
v -0.074088 -0.012535 -0.013449
v -0.078367 -0.008256 -0.007267
v -0.086927 -0.015390 -0.010594
v -0.074088 -0.008256 -0.013449
v -0.085025 -0.015390 -0.007267
v -0.086927 -0.013963 -0.008218
v -0.079319 -0.008256 -0.012972
v -0.074088 -0.012535 -0.007267
f 1323 1326 1333 
f 1319 1320 1323 
f 1321 1322 1323 
f 1322 1317 1324 
f 1320 1324 1325 
f 1324 1317 1325 
f 1318 1319 1326 
f 1323 1322 1326 
f 1322 1324 1326 
f 1319 1318 1327 
f 1320 1319 1327 
f 1322 1321 1328 
f 1317 1322 1328 
f 1321 1325 1328 
f 1325 1317 1328 
f 1318 1326 1329 
f 1326 1324 1329 
f 1327 1318 1329 
f 1320 1321 1330 
f 1323 1320 1330 
f 1321 1323 1330 
f 1321 1320 1331 
f 1320 1325 1331 
f 1325 1321 1331 
f 1324 1320 1332 
f 1320 1327 1332 
f 1329 1324 1332 
f 1327 1329 1332 
f 1319 1323 1333 
f 1326 1319 1333 
o convex_71
v -0.078367 0.001734 -0.007265
v -0.085978 0.004589 -0.004411
v -0.085978 0.004589 -0.001082
v -0.084550 -0.008255 -0.004411
v -0.078367 -0.008255 -0.001082
v -0.078367 0.008870 -0.001082
v -0.084074 -0.008255 -0.007265
v -0.079795 0.008394 -0.007265
v -0.078843 -0.008255 -0.007265
v -0.084550 -0.008255 -0.001082
v -0.085978 0.007918 -0.004411
v -0.084550 0.000307 -0.007265
v -0.085978 0.007918 -0.001082
v -0.078367 0.008870 -0.007265
v -0.083124 0.004589 -0.007265
v -0.084550 -0.006827 -0.007265
f 1345 1340 1349 
f 1336 1335 1337 
f 1336 1338 1339 
f 1338 1334 1339 
f 1338 1337 1340 
f 1334 1340 1341 
f 1334 1338 1342 
f 1340 1334 1342 
f 1338 1340 1342 
f 1336 1337 1343 
f 1337 1338 1343 
f 1338 1336 1343 
f 1335 1336 1344 
f 1341 1340 1345 
f 1335 1344 1345 
f 1336 1339 1346 
f 1344 1336 1346 
f 1339 1344 1346 
f 1339 1334 1347 
f 1334 1341 1347 
f 1344 1339 1347 
f 1341 1344 1347 
f 1344 1341 1348 
f 1341 1345 1348 
f 1345 1344 1348 
f 1337 1335 1349 
f 1340 1337 1349 
f 1335 1345 1349 
o convex_72
v -0.039840 0.015053 -0.014401
v -0.050775 0.013151 -0.018206
v -0.052679 0.013151 -0.014877
v -0.037461 0.013151 -0.014401
v -0.035080 0.015529 -0.018206
v -0.048873 0.015529 -0.014401
v -0.045543 0.015053 -0.018206
v -0.043643 0.013151 -0.018206
v -0.052679 0.013627 -0.014401
v -0.050775 0.013627 -0.018206
f 1352 1358 1359 
f 1352 1351 1353 
f 1350 1353 1354 
f 1353 1350 1355 
f 1350 1354 1355 
f 1354 1351 1356 
f 1355 1354 1356 
f 1353 1351 1357 
f 1354 1353 1357 
f 1351 1354 1357 
f 1352 1353 1358 
f 1353 1355 1358 
f 1358 1355 1359 
f 1351 1352 1359 
f 1356 1351 1359 
f 1355 1356 1359 
o convex_73
v -0.049351 0.003161 0.011286
v -0.048875 0.007443 0.016043
v -0.048875 0.007443 0.012713
v -0.053156 0.007443 0.013664
v -0.052204 -0.002071 0.016043
v -0.048875 -0.002071 0.016043
v -0.053156 -0.002071 0.012238
v -0.053156 0.006967 0.016043
v -0.048875 -0.002071 0.012238
v -0.053156 0.007443 0.012238
v -0.053156 -0.001119 0.016043
f 1367 1366 1370 
f 1361 1362 1363 
f 1361 1364 1365 
f 1362 1361 1365 
f 1365 1364 1366 
f 1361 1363 1367 
f 1364 1361 1367 
f 1363 1366 1367 
f 1360 1362 1368 
f 1362 1365 1368 
f 1366 1360 1368 
f 1365 1366 1368 
f 1362 1360 1369 
f 1363 1362 1369 
f 1360 1366 1369 
f 1366 1363 1369 
f 1366 1364 1370 
f 1364 1367 1370 
o convex_74
v -0.038413 -0.010157 -0.001082
v -0.056008 -0.008731 -0.001082
v -0.056008 -0.005876 -0.001082
v -0.039839 -0.005876 0.007481
v -0.048397 -0.011108 0.007005
v -0.033655 -0.013487 0.006053
v -0.034132 -0.005876 -0.001082
v -0.056008 -0.005876 0.007481
v -0.048397 -0.011108 -0.001082
v -0.034132 -0.005876 0.007005
v -0.056008 -0.008731 0.007005
v -0.041266 -0.011108 -0.001082
v -0.033655 -0.013487 0.005577
v -0.039839 -0.010632 0.007005
v -0.053629 -0.008731 0.007481
v -0.034132 -0.006828 -0.001082
f 1377 1383 1386 
f 1371 1372 1373 
f 1371 1373 1377 
f 1373 1374 1377 
f 1373 1372 1378 
f 1374 1373 1378 
f 1372 1371 1379 
f 1375 1372 1379 
f 1376 1375 1379 
f 1377 1374 1380 
f 1376 1377 1380 
f 1372 1375 1381 
f 1378 1372 1381 
f 1379 1371 1382 
f 1379 1382 1383 
f 1377 1376 1383 
f 1376 1379 1383 
f 1382 1371 1383 
f 1375 1376 1384 
f 1380 1374 1384 
f 1376 1380 1384 
f 1374 1378 1385 
f 1381 1375 1385 
f 1378 1381 1385 
f 1384 1374 1385 
f 1375 1384 1385 
f 1371 1377 1386 
f 1383 1371 1386 
o convex_75
v -0.087877 -0.003497 0.007956
v -0.060767 0.010297 0.014139
v -0.058864 0.002684 0.015091
v -0.057439 -0.005876 0.007956
v -0.083123 -0.005876 0.015091
v -0.075034 0.009819 0.007956
v -0.076937 0.007442 0.016043
v -0.058390 -0.005876 0.015091
v -0.062196 0.010297 0.007956
v -0.088352 -0.001594 0.014139
v -0.078362 0.010297 0.013188
v -0.056961 0.003635 0.009860
v -0.083597 -0.005876 0.007956
v -0.083123 0.006013 0.009860
v -0.069331 -0.004448 0.016043
v -0.063622 0.006489 0.016043
v -0.088832 -0.004448 0.013188
v -0.056961 0.003635 0.013188
v -0.071234 0.008867 0.016043
v -0.056961 -0.005876 0.013188
v -0.088832 -0.002071 0.009860
v -0.078362 0.010297 0.009860
v -0.083123 0.006013 0.013188
v -0.080269 0.006489 0.007956
v -0.056961 -0.002545 0.007956
v -0.086452 -0.005876 0.009860
v -0.077888 0.004110 0.016043
v -0.060767 0.010297 0.009860
v -0.057916 -0.002071 0.015091
v -0.087877 -0.002545 0.007956
v -0.058390 0.003158 0.007956
v -0.087877 -0.004925 0.014139
v -0.088832 -0.004448 0.009860
v -0.071711 -0.004448 0.016043
f 1401 1413 1420 
f 1390 1387 1392 
f 1391 1390 1394 
f 1390 1392 1395 
f 1388 1395 1397 
f 1387 1390 1399 
f 1390 1391 1399 
f 1391 1394 1401 
f 1401 1394 1402 
f 1389 1388 1402 
f 1393 1401 1402 
f 1388 1389 1404 
f 1398 1388 1404 
f 1397 1393 1405 
f 1388 1397 1405 
f 1402 1388 1405 
f 1393 1402 1405 
f 1394 1390 1406 
f 1398 1404 1406 
f 1403 1396 1407 
f 1395 1392 1408 
f 1397 1395 1408 
f 1400 1397 1408 
f 1396 1393 1409 
f 1393 1397 1409 
f 1397 1400 1409 
f 1400 1407 1409 
f 1407 1396 1409 
f 1392 1387 1410 
f 1408 1392 1410 
f 1400 1408 1410 
f 1390 1395 1411 
f 1406 1390 1411 
f 1398 1406 1411 
f 1387 1399 1412 
f 1399 1391 1412 
f 1396 1391 1413 
f 1393 1396 1413 
f 1401 1393 1413 
f 1395 1388 1414 
f 1388 1398 1414 
f 1398 1395 1414 
f 1402 1394 1415 
f 1389 1402 1415 
f 1404 1389 1415 
f 1394 1406 1415 
f 1406 1404 1415 
f 1387 1407 1416 
f 1407 1400 1416 
f 1410 1387 1416 
f 1400 1410 1416 
f 1395 1398 1417 
f 1411 1395 1417 
f 1398 1411 1417 
f 1391 1396 1418 
f 1396 1403 1418 
f 1412 1391 1418 
f 1403 1412 1418 
f 1407 1387 1419 
f 1403 1407 1419 
f 1387 1412 1419 
f 1412 1403 1419 
f 1391 1401 1420 
f 1413 1391 1420 
o convex_76
v -0.041743 0.012675 0.013188
v -0.057437 0.010297 -0.001082
v -0.057437 0.010297 0.007006
v -0.032705 0.010297 -0.001082
v -0.055530 0.012675 -0.001082
v -0.041743 0.010297 0.016043
v -0.055530 0.012675 0.016043
v -0.034607 0.012675 -0.001082
v -0.032229 0.011724 0.016043
v -0.056958 0.010297 0.016043
v -0.033181 0.010297 0.007481
v -0.034607 0.012675 0.007481
v -0.032229 0.011248 0.016043
v -0.056958 0.011248 0.016043
v -0.057437 0.010773 -0.001082
f 1434 1427 1435 
f 1423 1422 1424 
f 1424 1422 1425 
f 1423 1424 1426 
f 1421 1425 1427 
f 1425 1421 1428 
f 1424 1425 1428 
f 1421 1427 1429 
f 1427 1426 1429 
f 1424 1428 1429 
f 1423 1426 1430 
f 1426 1427 1430 
f 1426 1424 1431 
f 1428 1421 1432 
f 1421 1429 1432 
f 1429 1428 1432 
f 1424 1429 1433 
f 1429 1426 1433 
f 1431 1424 1433 
f 1426 1431 1433 
f 1423 1430 1434 
f 1430 1427 1434 
f 1422 1423 1435 
f 1425 1422 1435 
f 1427 1425 1435 
f 1423 1434 1435 
o convex_77
v -0.004637 0.001735 0.007005
v -0.013675 0.001735 -0.001082
v -0.013675 0.002686 -0.001082
v -0.013675 0.004113 0.007005
v -0.006541 0.004589 0.004625
v -0.008443 0.002210 -0.001082
v -0.009393 0.001259 0.007005
v -0.004637 0.001259 0.004625
v -0.013675 0.001259 0.002724
v -0.009393 0.001259 -0.001082
v -0.008443 0.003161 -0.001082
v -0.008919 0.004113 0.007005
v -0.005113 0.003637 0.004625
v -0.013675 0.003161 0.007005
f 1439 1444 1449 
f 1438 1437 1439 
f 1438 1439 1440 
f 1437 1438 1441 
f 1436 1439 1442 
f 1436 1442 1443 
f 1443 1442 1444 
f 1439 1437 1444 
f 1437 1441 1445 
f 1441 1443 1445 
f 1443 1444 1445 
f 1444 1437 1445 
f 1438 1440 1446 
f 1441 1438 1446 
f 1443 1441 1446 
f 1439 1436 1447 
f 1436 1440 1447 
f 1440 1439 1447 
f 1440 1436 1448 
f 1436 1443 1448 
f 1446 1440 1448 
f 1443 1446 1448 
f 1442 1439 1449 
f 1444 1442 1449 
o convex_78
v -0.035082 0.015054 0.008909
v -0.055534 0.012675 0.007005
v -0.055534 0.012675 0.010811
v -0.035082 0.012675 0.007005
v -0.053154 0.015054 0.016043
v -0.053154 0.015054 0.007005
v -0.049827 0.012675 0.016043
v -0.037462 0.015054 0.007005
v -0.055058 0.012675 0.016043
v -0.051729 0.015054 0.016043
v -0.044119 0.012675 0.013188
v -0.055534 0.013151 0.010811
f 1458 1454 1461 
f 1452 1451 1453 
f 1453 1451 1455 
f 1454 1450 1455 
f 1452 1453 1456 
f 1450 1453 1457 
f 1453 1455 1457 
f 1455 1450 1457 
f 1452 1456 1458 
f 1456 1454 1458 
f 1450 1454 1459 
f 1456 1450 1459 
f 1454 1456 1459 
f 1453 1450 1460 
f 1456 1453 1460 
f 1450 1456 1460 
f 1451 1452 1461 
f 1455 1451 1461 
f 1454 1455 1461 
f 1452 1458 1461 
o convex_79
v -0.056009 -0.006352 0.007481
v -0.048875 -0.002071 0.016043
v -0.052206 -0.002071 0.016043
v -0.053631 -0.008730 0.016043
v -0.049351 -0.005876 0.007957
v -0.056961 -0.002071 0.009860
v -0.053155 -0.002071 0.007957
v -0.056009 -0.006352 0.016043
v -0.052681 -0.008730 0.007481
v -0.048875 -0.005876 0.013663
v -0.048875 -0.002071 0.012237
v -0.056961 -0.002071 0.013188
v -0.056961 -0.005876 0.009860
v -0.048875 -0.004925 0.016043
v -0.053631 -0.008730 0.007481
f 1465 1474 1476 
f 1463 1464 1465 
f 1464 1463 1467 
f 1462 1467 1468 
f 1467 1463 1468 
f 1465 1464 1469 
f 1462 1468 1470 
f 1468 1466 1470 
f 1465 1470 1471 
f 1470 1466 1471 
f 1466 1468 1472 
f 1468 1463 1472 
f 1463 1471 1472 
f 1471 1466 1472 
f 1464 1467 1473 
f 1469 1464 1473 
f 1469 1473 1474 
f 1467 1462 1474 
f 1465 1469 1474 
f 1473 1467 1474 
f 1463 1465 1475 
f 1471 1463 1475 
f 1465 1471 1475 
f 1462 1470 1476 
f 1470 1465 1476 
f 1474 1462 1476 
o convex_80
v -0.075036 -0.013487 0.017470
v -0.066476 -0.005876 0.020800
v -0.063622 -0.007780 0.020800
v -0.063622 -0.007780 0.017470
v -0.075512 -0.006828 0.017470
v -0.075036 -0.013487 0.020800
v -0.075036 -0.005876 0.020800
v -0.071231 -0.013487 0.017470
v -0.063622 -0.009207 0.020800
v -0.071231 -0.013487 0.020800
v -0.066952 -0.005876 0.018897
v -0.063622 -0.009207 0.017470
v -0.075512 -0.010632 0.020800
f 1482 1483 1489 
f 1478 1479 1480 
f 1480 1477 1481 
f 1479 1478 1482 
f 1482 1478 1483 
f 1477 1480 1484 
f 1482 1477 1484 
f 1480 1479 1485 
f 1479 1482 1485 
f 1482 1484 1486 
f 1485 1482 1486 
f 1484 1485 1486 
f 1478 1480 1487 
f 1480 1481 1487 
f 1483 1478 1487 
f 1481 1483 1487 
f 1484 1480 1488 
f 1485 1484 1488 
f 1480 1485 1488 
f 1481 1477 1489 
f 1477 1482 1489 
f 1483 1481 1489 
o convex_81
v -0.074561 -0.005876 0.019372
v -0.069806 0.001733 0.020800
v -0.067903 0.001258 0.020800
v -0.069330 -0.001596 0.016043
v -0.066476 -0.005876 0.020800
v -0.075036 -0.001120 0.020800
v -0.071707 -0.004448 0.016043
v -0.074561 -0.000169 0.019372
v -0.066000 -0.000645 0.019372
v -0.066952 -0.005876 0.018896
v -0.074561 -0.005876 0.020800
v -0.069806 0.001733 0.019372
v -0.071707 -0.001596 0.016043
v -0.068855 -0.003973 0.016043
v -0.075036 -0.005400 0.019372
v -0.072658 0.001258 0.019372
f 1501 1502 1505 
f 1492 1491 1494 
f 1494 1491 1495 
f 1492 1494 1498 
f 1498 1494 1499 
f 1494 1490 1499 
f 1490 1496 1499 
f 1490 1494 1500 
f 1494 1495 1500 
f 1491 1492 1501 
f 1492 1498 1501 
f 1498 1493 1501 
f 1493 1496 1502 
f 1501 1493 1502 
f 1496 1493 1503 
f 1493 1498 1503 
f 1498 1499 1503 
f 1499 1496 1503 
f 1496 1490 1504 
f 1495 1497 1504 
f 1490 1500 1504 
f 1500 1495 1504 
f 1502 1496 1504 
f 1497 1502 1504 
f 1495 1491 1505 
f 1497 1495 1505 
f 1491 1501 1505 
f 1502 1497 1505 
o convex_82
v -0.051252 -0.010634 -0.015828
v -0.046020 -0.013963 -0.021060
v -0.046020 -0.013486 -0.021060
v -0.031750 -0.009682 -0.015828
v -0.056484 -0.009682 -0.020109
v -0.031750 -0.009682 -0.020108
v -0.031750 -0.013963 -0.017256
v -0.060767 -0.012536 -0.015828
v -0.031750 -0.013963 -0.021060
v -0.060767 -0.012536 -0.020109
v -0.059338 -0.010158 -0.015828
v -0.031750 -0.012060 -0.015828
v -0.046020 -0.013963 -0.017256
v -0.056009 -0.009682 -0.015828
v -0.060767 -0.011109 -0.020109
v -0.031750 -0.010633 -0.020584
f 1511 1514 1521 
f 1510 1509 1511 
f 1511 1509 1512 
f 1507 1508 1514 
f 1511 1512 1514 
f 1512 1507 1514 
f 1508 1507 1515 
f 1507 1513 1515 
f 1513 1506 1516 
f 1509 1506 1517 
f 1512 1509 1517 
f 1506 1513 1517 
f 1513 1512 1517 
f 1507 1512 1518 
f 1513 1507 1518 
f 1512 1513 1518 
f 1506 1509 1519 
f 1509 1510 1519 
f 1516 1506 1519 
f 1510 1516 1519 
f 1510 1508 1520 
f 1508 1515 1520 
f 1515 1513 1520 
f 1513 1516 1520 
f 1516 1510 1520 
f 1508 1510 1521 
f 1510 1511 1521 
f 1514 1508 1521 
o convex_83
v -0.048398 -0.000644 -0.019633
v -0.040314 0.004113 -0.019633
v -0.040314 0.004113 -0.020585
v -0.049350 0.004113 -0.020585
v -0.046020 0.004113 -0.017255
v -0.042693 -0.001120 -0.020585
v -0.044119 0.001259 -0.017255
v -0.041265 -0.000168 -0.019157
v -0.049826 0.002210 -0.019157
v -0.048874 -0.000168 -0.020585
v -0.043168 0.003637 -0.017255
v -0.046496 0.001734 -0.017255
v -0.046971 -0.001120 -0.019157
f 1528 1533 1534 
f 1523 1524 1525 
f 1523 1525 1526 
f 1525 1524 1527 
f 1524 1523 1529 
f 1527 1524 1529 
f 1526 1525 1530 
f 1525 1527 1531 
f 1522 1530 1531 
f 1530 1525 1531 
f 1523 1526 1532 
f 1526 1528 1532 
f 1529 1523 1532 
f 1528 1529 1532 
f 1528 1526 1533 
f 1530 1522 1533 
f 1526 1530 1533 
f 1529 1528 1534 
f 1527 1529 1534 
f 1531 1527 1534 
f 1522 1531 1534 
f 1533 1522 1534 
o convex_84
v -0.080271 -0.016818 -0.007267
v -0.092162 -0.019195 -0.013449
v -0.092162 -0.019195 -0.010120
v -0.065528 -0.018719 -0.013448
v -0.092162 -0.015391 -0.013449
v -0.057918 -0.015390 -0.007742
v -0.057918 -0.015390 -0.013448
v -0.086925 -0.015391 -0.007267
v -0.079319 -0.019671 -0.010120
v -0.057918 -0.016342 -0.007742
v -0.085497 -0.017768 -0.007267
v -0.065528 -0.018719 -0.010120
v -0.092162 -0.015391 -0.010120
v -0.084073 -0.019671 -0.012497
v -0.057918 -0.016342 -0.013448
v -0.088354 -0.017293 -0.007267
v -0.082648 -0.017768 -0.007267
f 1546 1544 1551 
f 1536 1537 1539 
f 1539 1540 1541 
f 1536 1539 1541 
f 1535 1540 1542 
f 1540 1535 1544 
f 1541 1540 1544 
f 1535 1542 1545 
f 1537 1543 1545 
f 1543 1538 1546 
f 1538 1544 1546 
f 1539 1537 1547 
f 1540 1539 1547 
f 1542 1540 1547 
f 1537 1536 1548 
f 1536 1538 1548 
f 1543 1537 1548 
f 1538 1543 1548 
f 1538 1536 1549 
f 1536 1541 1549 
f 1541 1544 1549 
f 1544 1538 1549 
f 1545 1542 1550 
f 1537 1545 1550 
f 1547 1537 1550 
f 1542 1547 1550 
f 1544 1535 1551 
f 1545 1543 1551 
f 1535 1545 1551 
f 1543 1546 1551 
o convex_85
v -0.037937 0.012675 -0.015828
v -0.060767 0.009345 -0.020585
v -0.060767 0.009345 -0.017255
v -0.031750 0.010297 -0.020585
v -0.051721 0.013151 -0.018206
v -0.038891 0.009821 -0.015828
v -0.031750 0.012199 -0.020585
v -0.051726 0.013151 -0.015828
v -0.060767 0.010772 -0.020585
v -0.031750 0.010297 -0.017255
v -0.050778 0.009345 -0.020585
v -0.038411 0.013151 -0.018206
v -0.050775 0.009821 -0.015828
v -0.031750 0.012199 -0.017255
v -0.060767 0.010772 -0.017255
v -0.038414 0.013151 -0.015828
v -0.050295 0.009345 -0.017255
f 1562 1557 1568 
f 1555 1553 1558 
f 1557 1552 1559 
f 1553 1554 1560 
f 1558 1553 1560 
f 1556 1558 1560 
f 1559 1556 1560 
f 1552 1557 1561 
f 1557 1555 1561 
f 1555 1558 1561 
f 1554 1553 1562 
f 1553 1555 1562 
f 1555 1557 1562 
f 1558 1556 1563 
f 1556 1559 1563 
f 1554 1557 1564 
f 1559 1554 1564 
f 1557 1559 1564 
f 1552 1561 1565 
f 1561 1558 1565 
f 1558 1563 1565 
f 1554 1559 1566 
f 1560 1554 1566 
f 1559 1560 1566 
f 1559 1552 1567 
f 1563 1559 1567 
f 1552 1565 1567 
f 1565 1563 1567 
f 1557 1554 1568 
f 1554 1562 1568 
o convex_86
v -0.008918 -0.001595 0.004151
v -0.013675 -0.002546 -0.001082
v -0.013675 -0.002071 -0.001082
v -0.008443 -0.002071 -0.001082
v -0.013675 0.001258 0.001772
v -0.013675 -0.003022 0.004151
v -0.006539 -0.003973 0.004151
v -0.008443 -0.003022 -0.001082
v -0.013198 0.001258 0.002723
v -0.007967 -0.003973 0.003199
f 1576 1575 1578 
f 1570 1571 1572 
f 1571 1570 1573 
f 1572 1571 1573 
f 1573 1570 1574 
f 1572 1569 1575 
f 1569 1574 1575 
f 1570 1572 1576 
f 1572 1575 1576 
f 1569 1572 1577 
f 1572 1573 1577 
f 1574 1569 1577 
f 1573 1574 1577 
f 1574 1570 1578 
f 1575 1574 1578 
f 1570 1576 1578 
o convex_87
v -0.072181 -0.013011 -0.013449
v -0.061719 -0.008256 -0.007266
v -0.061719 -0.008732 -0.007266
v -0.074082 -0.012059 -0.007266
v -0.063622 -0.015390 -0.008218
v -0.062195 -0.008256 -0.013449
v -0.074085 -0.008256 -0.013449
v -0.063622 -0.015390 -0.013448
v -0.071707 -0.013487 -0.007267
v -0.074085 -0.012535 -0.013449
v -0.066001 -0.015390 -0.013448
v -0.074085 -0.008256 -0.012498
v -0.066001 -0.015390 -0.008218
v -0.073608 -0.013011 -0.007266
v -0.062672 -0.008256 -0.007266
v -0.066002 -0.012535 -0.007266
f 1592 1587 1594 
f 1581 1580 1582 
f 1580 1581 1584 
f 1584 1579 1585 
f 1580 1584 1585 
f 1581 1583 1586 
f 1584 1581 1586 
f 1579 1584 1586 
f 1585 1579 1588 
f 1579 1586 1589 
f 1586 1583 1589 
f 1588 1579 1589 
f 1580 1585 1590 
f 1585 1588 1590 
f 1588 1582 1590 
f 1583 1587 1591 
f 1589 1583 1591 
f 1589 1591 1592 
f 1581 1582 1592 
f 1582 1588 1592 
f 1588 1589 1592 
f 1591 1587 1592 
f 1582 1580 1593 
f 1580 1590 1593 
f 1590 1582 1593 
f 1583 1581 1594 
f 1587 1583 1594 
f 1581 1592 1594 
o convex_88
v -0.068379 -0.002073 -0.007267
v -0.075989 -0.008255 -0.013449
v -0.066000 -0.008255 -0.013449
v -0.075989 0.002210 -0.013449
v -0.066000 0.002210 -0.013449
v -0.072658 -0.003973 -0.007267
v -0.071706 -0.001120 -0.007267
v -0.069330 -0.004924 -0.007267
v -0.075989 -0.008255 -0.012497
v -0.075989 0.002210 -0.012497
v -0.066000 0.002210 -0.012497
v -0.066000 -0.008255 -0.012497
f 1597 1605 1606 
f 1597 1596 1598 
f 1597 1598 1599 
f 1600 1595 1601 
f 1595 1600 1602 
f 1602 1600 1603 
f 1596 1597 1603 
f 1598 1596 1603 
f 1598 1603 1604 
f 1599 1598 1604 
f 1600 1601 1604 
f 1603 1600 1604 
f 1604 1601 1605 
f 1597 1599 1605 
f 1601 1595 1605 
f 1599 1604 1605 
f 1595 1602 1606 
f 1602 1603 1606 
f 1603 1597 1606 
f 1605 1595 1606 
o convex_89
v -0.070282 0.007443 -0.007267
v -0.075989 0.002210 -0.013449
v -0.075989 0.002210 -0.012497
v -0.066000 0.002210 -0.013449
v -0.070757 0.006966 -0.013449
v -0.075989 0.005064 -0.007267
v -0.066000 0.005540 -0.007267
v -0.066477 0.006491 -0.013449
v -0.075512 0.006015 -0.013449
v -0.066000 0.002210 -0.012497
v -0.075989 0.006015 -0.007267
v -0.066477 0.006491 -0.007267
v -0.071231 0.007443 -0.008693
f 1615 1617 1619 
f 1609 1608 1610 
f 1610 1608 1611 
f 1608 1609 1612 
f 1607 1612 1613 
f 1610 1611 1614 
f 1613 1610 1614 
f 1611 1608 1615 
f 1609 1610 1616 
f 1612 1609 1616 
f 1613 1612 1616 
f 1610 1613 1616 
f 1608 1612 1617 
f 1612 1607 1617 
f 1615 1608 1617 
f 1607 1613 1618 
f 1614 1607 1618 
f 1613 1614 1618 
f 1607 1614 1619 
f 1614 1611 1619 
f 1611 1615 1619 
f 1617 1607 1619 
o convex_90
v -0.080270 -0.006351 -0.013449
v -0.078843 0.001734 -0.007267
v -0.075989 0.001734 -0.012497
v -0.078843 -0.008254 -0.007267
v -0.075989 -0.008254 -0.013449
v -0.080745 -0.000169 -0.012973
v -0.081221 -0.003973 -0.007267
v -0.078367 0.001734 -0.013449
v -0.080270 0.001734 -0.007267
v -0.079793 -0.008254 -0.012022
v -0.081221 -0.003973 -0.012973
v -0.075989 -0.008254 -0.012497
v -0.075989 0.001734 -0.013449
v -0.080270 -0.007303 -0.007267
v -0.080270 0.001734 -0.012497
f 1628 1627 1634 
f 1622 1621 1623 
f 1623 1621 1626 
f 1621 1622 1627 
f 1624 1620 1627 
f 1620 1625 1627 
f 1625 1626 1628 
f 1626 1621 1628 
f 1621 1627 1628 
f 1620 1624 1629 
f 1624 1623 1629 
f 1625 1620 1630 
f 1626 1625 1630 
f 1620 1629 1630 
f 1622 1623 1631 
f 1623 1624 1631 
f 1624 1622 1631 
f 1622 1624 1632 
f 1627 1622 1632 
f 1624 1627 1632 
f 1623 1626 1633 
f 1629 1623 1633 
f 1626 1630 1633 
f 1630 1629 1633 
f 1627 1625 1634 
f 1625 1628 1634 
o convex_91
v -0.083124 0.003637 -0.013449
v -0.077892 0.008394 -0.007267
v -0.077892 0.008394 -0.013449
v -0.075989 0.001735 -0.013449
v -0.081221 0.001735 -0.007267
v -0.075989 0.004589 -0.007267
v -0.083124 0.004589 -0.007267
v -0.080269 0.007918 -0.012973
v -0.075989 0.006491 -0.013449
v -0.081221 0.001735 -0.013449
v -0.078368 0.001735 -0.007267
v -0.079794 0.008394 -0.007267
v -0.075989 0.006491 -0.007267
v -0.081696 0.006491 -0.013449
f 1646 1642 1648 
f 1635 1637 1638 
f 1636 1639 1640 
f 1635 1639 1641 
f 1639 1636 1641 
f 1637 1636 1643 
f 1638 1637 1643 
f 1640 1638 1643 
f 1635 1638 1644 
f 1639 1635 1644 
f 1638 1639 1644 
f 1639 1638 1645 
f 1640 1639 1645 
f 1638 1640 1645 
f 1636 1637 1646 
f 1641 1636 1646 
f 1637 1642 1646 
f 1636 1640 1647 
f 1643 1636 1647 
f 1640 1643 1647 
f 1637 1635 1648 
f 1635 1641 1648 
f 1642 1637 1648 
f 1641 1646 1648 
o convex_92
v -0.070757 0.012675 0.001772
v -0.075036 0.011724 -0.003460
v -0.075987 0.011724 -0.002984
v -0.066475 0.010297 0.003199
v -0.074561 0.010297 0.003199
v -0.066475 0.010297 -0.001081
v -0.070757 0.013151 -0.002508
v -0.075988 0.012675 0.002248
v -0.074561 0.010297 -0.001081
v -0.075987 0.013151 -0.002984
v -0.076940 0.011724 0.000346
v -0.066475 0.010773 0.003199
v -0.072183 0.011248 -0.003460
v -0.072658 0.012675 0.002723
f 1660 1649 1662 
f 1652 1653 1654 
f 1651 1650 1657 
f 1654 1653 1657 
f 1650 1651 1658 
f 1656 1658 1659 
f 1653 1656 1659 
f 1651 1657 1659 
f 1657 1653 1659 
f 1658 1651 1659 
f 1653 1652 1660 
f 1652 1654 1660 
f 1655 1649 1660 
f 1654 1655 1660 
f 1655 1654 1661 
f 1657 1650 1661 
f 1654 1657 1661 
f 1650 1658 1661 
f 1658 1655 1661 
f 1649 1655 1662 
f 1656 1653 1662 
f 1655 1658 1662 
f 1658 1656 1662 
f 1653 1660 1662 
