o convex_0
v -0.010600 -0.006137 -0.011156
v 0.002383 0.011957 -0.011156
v 0.003562 0.011563 -0.010762
v 0.013401 -0.010075 -0.015481
v -0.007843 0.006840 -0.017448
v 0.007891 -0.004566 -0.008008
v -0.007450 0.005266 -0.008008
v -0.004697 -0.009288 -0.017448
v 0.007498 0.007235 -0.017448
v -0.001943 -0.012041 -0.010762
v 0.011433 0.004087 -0.010762
v 0.013401 -0.010075 -0.010368
v -0.003910 -0.008106 -0.008008
v -0.009025 0.008412 -0.011156
v 0.001202 0.008807 -0.008008
v -0.010204 -0.001025 -0.017448
v 0.013401 -0.000238 -0.015481
v 0.000025 0.010383 -0.017448
v 0.009465 -0.004173 -0.017448
v -0.011779 0.003692 -0.011156
v -0.004304 0.011563 -0.011156
v 0.008284 0.004479 -0.008402
v -0.009025 -0.001418 -0.008008
v 0.001595 -0.010073 -0.017448
v 0.009858 0.007235 -0.011156
v -0.006664 -0.010467 -0.011156
v 0.001202 -0.008893 -0.008008
v -0.007843 -0.006927 -0.017448
v -0.012174 -0.000631 -0.011156
v 0.002776 -0.012044 -0.011549
v 0.005137 0.011170 -0.011942
v -0.004697 0.009202 -0.017448
v 0.013401 -0.000238 -0.012728
v 0.010251 0.000936 -0.017448
v -0.004304 0.008020 -0.008008
v -0.009418 0.004479 -0.017448
v -0.007450 -0.006137 -0.008402
v 0.005923 0.009202 -0.009582
v 0.003955 0.009596 -0.017448
v -0.009811 -0.003386 -0.017448
v 0.009072 0.002118 -0.008402
v 0.007105 -0.007714 -0.017448
v -0.001943 -0.012041 -0.011549
v -0.001550 0.010776 -0.009582
v -0.007057 0.009986 -0.011942
v 0.001990 -0.012044 -0.010762
v -0.009025 -0.008501 -0.011156
v 0.009858 0.007235 -0.011942
v -0.011779 -0.003386 -0.011156
v -0.010993 0.005659 -0.011549
v -0.012174 0.000152 -0.011942
v 0.002383 0.011957 -0.011942
v -0.009025 0.001334 -0.008008
v -0.001943 -0.010073 -0.017448
v 0.007891 0.009202 -0.010762
v -0.001550 0.011957 -0.011942
v -0.010204 0.001334 -0.017448
v -0.010600 0.006053 -0.010762
v -0.007843 0.008809 -0.010368
v -0.010993 -0.005353 -0.010762
v -0.003910 -0.011647 -0.011549
v 0.007498 0.009596 -0.011942
v 0.013401 -0.008896 -0.010368
v 0.005530 0.007627 -0.008402
f 55 38 64 
f 8 5 9 
f 6 7 13 
f 7 6 15 
f 5 8 16 
f 12 4 17 
f 9 5 18 
f 8 9 19 
f 15 6 22 
f 13 7 23 
f 8 19 24 
f 22 11 25 
f 10 13 26 
f 12 6 27 
f 6 13 27 
f 13 10 27 
f 16 8 28 
f 8 26 28 
f 4 12 30 
f 24 4 30 
f 2 3 31 
f 18 5 32 
f 21 18 32 
f 17 11 33 
f 12 17 33 
f 17 4 34 
f 9 17 34 
f 4 19 34 
f 19 9 34 
f 7 15 35 
f 5 16 36 
f 13 23 37 
f 26 13 37 
f 3 15 38 
f 9 18 39 
f 31 9 39 
f 28 1 40 
f 16 28 40 
f 6 12 41 
f 11 22 41 
f 22 6 41 
f 19 4 42 
f 4 24 42 
f 24 19 42 
f 3 2 44 
f 15 3 44 
f 2 21 44 
f 35 15 44 
f 21 35 44 
f 5 14 45 
f 14 21 45 
f 32 5 45 
f 21 32 45 
f 27 10 46 
f 12 27 46 
f 30 12 46 
f 10 43 46 
f 43 30 46 
f 1 28 47 
f 28 26 47 
f 26 37 47 
f 17 9 48 
f 11 17 48 
f 25 11 48 
f 23 29 49 
f 40 1 49 
f 14 5 50 
f 5 36 50 
f 36 20 50 
f 29 20 51 
f 16 40 51 
f 49 29 51 
f 40 49 51 
f 2 31 52 
f 39 18 52 
f 31 39 52 
f 23 7 53 
f 20 29 53 
f 29 23 53 
f 8 24 54 
f 24 30 54 
f 30 43 54 
f 22 25 55 
f 31 3 55 
f 3 38 55 
f 21 2 56 
f 18 21 56 
f 2 52 56 
f 52 18 56 
f 36 16 57 
f 20 36 57 
f 51 20 57 
f 16 51 57 
f 14 50 58 
f 50 20 58 
f 53 7 58 
f 20 53 58 
f 21 14 59 
f 7 35 59 
f 35 21 59 
f 58 7 59 
f 14 58 59 
f 37 23 60 
f 1 47 60 
f 47 37 60 
f 49 1 60 
f 23 49 60 
f 26 8 61 
f 10 26 61 
f 43 10 61 
f 8 54 61 
f 54 43 61 
f 9 31 62 
f 48 9 62 
f 25 48 62 
f 55 25 62 
f 31 55 62 
f 33 11 63 
f 12 33 63 
f 41 12 63 
f 11 41 63 
f 15 22 64 
f 38 15 64 
f 22 55 64 
o convex_1
v 0.083829 0.005661 -0.000531
v 0.064157 -0.000240 -0.013909
v 0.064157 -0.000240 -0.008399
v 0.071239 0.010384 -0.011548
v 0.086584 -0.000240 -0.012728
v 0.064945 -0.000240 -0.000531
v 0.068486 0.007629 -0.000531
v 0.085796 -0.000240 -0.000531
v 0.079502 0.010384 -0.011548
v 0.075959 0.010384 -0.000531
v 0.064157 0.005267 -0.012335
v 0.085403 0.005661 -0.012335
v 0.076352 0.002908 -0.013909
v 0.082648 0.007629 -0.000531
v 0.086584 0.002515 -0.011154
v 0.084615 0.006842 -0.008791
v 0.078321 -0.000240 -0.013909
v 0.071239 0.010384 -0.008791
v 0.066914 0.005267 -0.000531
v 0.064157 0.005267 -0.011154
v 0.080288 0.009989 -0.008791
v 0.085796 0.000941 -0.000531
v 0.064157 0.000547 -0.013909
v 0.073994 0.009989 -0.000531
v 0.064945 0.000547 -0.000531
v 0.078321 0.001728 -0.013909
v 0.084615 0.006842 -0.011939
v 0.086584 -0.000240 -0.008791
f 79 86 92 
f 67 66 69 
f 67 69 70 
f 70 65 71 
f 65 70 72 
f 70 69 72 
f 71 65 74 
f 73 68 74 
f 66 67 75 
f 73 76 77 
f 68 73 77 
f 74 65 78 
f 69 76 79 
f 79 76 80 
f 78 65 80 
f 69 66 81 
f 66 77 81 
f 74 68 82 
f 68 75 82 
f 70 71 83 
f 75 67 84 
f 71 82 84 
f 82 75 84 
f 83 71 84 
f 73 74 85 
f 74 78 85 
f 78 80 85 
f 65 72 86 
f 79 80 86 
f 80 65 86 
f 66 75 87 
f 75 68 87 
f 77 66 87 
f 68 77 87 
f 71 74 88 
f 74 82 88 
f 82 71 88 
f 67 70 89 
f 70 83 89 
f 84 67 89 
f 83 84 89 
f 76 69 90 
f 77 76 90 
f 69 81 90 
f 81 77 90 
f 76 73 91 
f 80 76 91 
f 73 85 91 
f 85 80 91 
f 72 69 92 
f 69 79 92 
f 86 72 92 
o convex_2
v 0.005924 0.008415 0.012846
v -0.012174 0.000149 0.010092
v -0.010600 -0.001812 0.008519
v 0.010253 -0.009683 0.012846
v 0.007105 0.006053 0.007339
v 0.002381 -0.008893 0.007339
v -0.007057 -0.007714 0.012846
v -0.006271 0.010383 0.010879
v -0.007057 0.005659 0.006945
v -0.009419 0.004479 0.012846
v -0.004697 -0.011257 0.010092
v 0.010253 -0.000631 0.008125
v 0.002776 0.011957 0.010092
v 0.010253 0.006840 0.010485
v -0.006271 -0.006534 0.006945
v 0.008284 -0.002992 0.006945
v -0.001551 0.008807 0.006945
v -0.009419 -0.008106 0.010092
v -0.000767 0.010383 0.012846
v 0.001988 -0.012044 0.010879
v 0.010253 0.003300 0.012846
v -0.010600 0.006053 0.010092
v -0.009812 -0.003386 0.012846
v 0.006319 -0.008893 0.008519
v -0.001944 -0.010073 0.012846
v -0.006271 0.010383 0.009699
v 0.009465 -0.006927 0.009306
v 0.005531 0.010773 0.009699
v -0.009026 0.001726 0.007339
v -0.002732 -0.010470 0.008519
v 0.001988 -0.012044 0.010092
v -0.003518 0.011563 0.009699
v -0.010993 -0.005353 0.010879
v -0.006664 0.008020 0.012846
v -0.005090 -0.010862 0.011272
v 0.003955 0.008415 0.007339
v 0.009465 0.002905 0.007732
v 0.005531 0.010773 0.010879
v -0.004697 -0.007714 0.006945
v -0.007452 -0.004960 0.006945
v -0.010600 0.006053 0.010879
v -0.011386 0.000149 0.011666
v -0.001158 0.011957 0.010879
v 0.005138 -0.010860 0.009699
v -0.010600 -0.005745 0.009699
v 0.008284 0.009199 0.010092
v 0.010253 0.004874 0.008912
v 0.006319 -0.006927 0.007339
v -0.010600 0.002121 0.008519
v 0.008284 0.007625 0.012059
v 0.002776 0.010776 0.012059
v -0.001944 -0.012044 0.010879
v -0.008631 0.008807 0.010092
v 0.000414 0.010776 0.008519
v -0.006664 -0.010073 0.009699
v 0.010253 -0.003386 0.008519
v -0.004304 0.009596 0.012846
v 0.010253 -0.009683 0.012452
v -0.007057 -0.010073 0.010879
v -0.009812 -0.006927 0.011272
f 151 99 152 
f 96 93 99 
f 99 93 102 
f 96 104 106 
f 107 101 108 
f 97 108 109 
f 108 101 109 
f 102 93 111 
f 93 96 113 
f 96 106 113 
f 99 102 115 
f 96 99 117 
f 112 96 117 
f 109 101 118 
f 96 112 123 
f 122 98 123 
f 103 122 123 
f 118 100 124 
f 109 118 124 
f 102 111 126 
f 117 99 127 
f 97 109 128 
f 120 97 128 
f 108 97 129 
f 104 108 129 
f 120 105 130 
f 108 98 131 
f 107 108 131 
f 98 122 131 
f 101 107 132 
f 107 110 132 
f 95 121 132 
f 121 101 132 
f 114 94 133 
f 102 126 133 
f 126 100 133 
f 115 102 134 
f 94 125 134 
f 125 115 134 
f 133 94 134 
f 102 133 134 
f 105 124 135 
f 124 100 135 
f 98 116 136 
f 123 98 136 
f 94 95 137 
f 125 94 137 
f 110 125 137 
f 95 132 137 
f 132 110 137 
f 97 120 138 
f 120 130 138 
f 106 104 139 
f 104 129 139 
f 129 97 139 
f 138 106 139 
f 97 138 139 
f 98 108 140 
f 116 98 140 
f 108 119 140 
f 119 116 140 
f 95 94 141 
f 94 114 141 
f 114 101 141 
f 121 95 141 
f 101 121 141 
f 93 113 142 
f 113 106 142 
f 130 93 142 
f 106 138 142 
f 138 130 142 
f 111 93 143 
f 93 130 143 
f 130 105 143 
f 135 111 143 
f 105 135 143 
f 112 117 144 
f 123 112 144 
f 103 123 144 
f 127 103 144 
f 117 127 144 
f 101 114 145 
f 100 118 145 
f 118 101 145 
f 114 133 145 
f 133 100 145 
f 105 120 146 
f 124 105 146 
f 109 124 146 
f 128 109 146 
f 120 128 146 
f 110 107 147 
f 122 103 147 
f 107 131 147 
f 131 122 147 
f 104 96 148 
f 108 104 148 
f 119 108 148 
f 126 111 149 
f 100 126 149 
f 135 100 149 
f 111 135 149 
f 116 119 150 
f 96 123 150 
f 136 116 150 
f 123 136 150 
f 148 96 150 
f 119 148 150 
f 127 99 151 
f 103 127 151 
f 110 147 151 
f 147 103 151 
f 99 115 152 
f 125 110 152 
f 115 125 152 
f 110 151 152 
o convex_3
v -0.003518 -0.009682 0.012846
v 0.002382 0.009990 0.015600
v 0.003562 0.008810 0.016387
v 0.010253 -0.009682 0.012846
v -0.006664 -0.007713 0.016387
v -0.009418 0.004088 0.012846
v 0.007105 0.006839 0.012846
v 0.010253 -0.000240 0.016387
v -0.009810 0.000546 0.016781
v 0.003956 -0.009682 0.016387
v -0.003910 0.009595 0.016781
v -0.002336 0.009990 0.012846
v -0.009418 -0.004172 0.012846
v 0.010253 0.003693 0.014027
v 0.010253 -0.009682 0.015207
v 0.007497 0.007232 0.016387
v -0.009418 -0.004172 0.016781
v -0.007451 0.007234 0.016387
v -0.001944 -0.010076 0.015600
v 0.003956 0.009595 0.012846
v 0.010253 0.003300 0.012846
v -0.010207 -0.001023 0.012846
v -0.003910 0.009595 0.012846
v 0.007497 -0.007321 0.016387
v -0.010207 0.001334 0.015600
v -0.007451 -0.007319 0.015600
v 0.001201 -0.010076 0.012846
v -0.004697 -0.009287 0.012846
v 0.010253 0.003693 0.015207
v -0.000762 -0.009682 0.016387
f 171 162 182 
f 156 153 158 
f 156 158 159 
f 155 154 163 
f 159 158 164 
f 163 154 164 
f 158 153 165 
f 160 156 166 
f 156 160 167 
f 154 155 168 
f 155 163 168 
f 163 160 168 
f 166 159 168 
f 163 161 169 
f 161 163 170 
f 167 162 171 
f 164 154 172 
f 159 164 172 
f 154 168 172 
f 168 159 172 
f 156 159 173 
f 159 166 173 
f 166 156 173 
f 158 165 174 
f 165 169 174 
f 164 158 175 
f 163 164 175 
f 158 170 175 
f 170 163 175 
f 160 163 176 
f 167 160 176 
f 162 167 176 
f 169 162 176 
f 163 169 176 
f 169 161 177 
f 170 158 177 
f 161 170 177 
f 158 174 177 
f 174 169 177 
f 157 169 178 
f 169 165 178 
f 153 156 179 
f 156 167 179 
f 171 153 179 
f 167 171 179 
f 165 153 180 
f 153 171 180 
f 171 157 180 
f 157 178 180 
f 178 165 180 
f 160 166 181 
f 168 160 181 
f 166 168 181 
f 162 169 182 
f 169 157 182 
f 157 171 182 
o convex_4
v 0.010647 -0.001030 0.008518
v 0.010647 0.002906 0.015207
v 0.010253 0.002906 0.015207
v 0.014187 -0.010470 0.015207
v 0.010253 -0.009682 0.015207
v 0.014187 -0.000635 0.012453
v 0.014187 -0.010470 0.009699
v 0.010253 0.004874 0.009306
v 0.010253 -0.008894 0.011273
v 0.014187 -0.000635 0.015207
v 0.011434 0.004479 0.010093
v 0.010253 -0.003779 0.008913
v 0.010647 0.005662 0.010881
v 0.014187 -0.008501 0.009699
v 0.013400 -0.010470 0.009699
v 0.011040 0.002120 0.008913
f 193 196 198 
f 184 185 186 
f 186 185 187 
f 188 186 189 
f 187 185 190 
f 187 190 191 
f 184 186 192 
f 186 188 192 
f 192 188 193 
f 190 183 194 
f 191 190 194 
f 185 184 195 
f 190 185 195 
f 184 192 195 
f 193 190 195 
f 192 193 195 
f 188 189 196 
f 189 183 196 
f 193 188 196 
f 186 187 197 
f 189 186 197 
f 183 189 197 
f 187 191 197 
f 194 183 197 
f 191 194 197 
f 183 190 198 
f 190 193 198 
f 196 183 198 
o convex_5
v 0.025599 -0.005748 0.006945
v 0.040548 -0.001027 0.011666
v 0.040548 -0.009290 0.011666
v 0.025599 -0.003388 0.011666
v 0.038973 -0.001027 0.006945
v 0.038580 -0.009290 0.006945
v 0.025993 -0.001027 0.007338
v 0.033465 -0.009290 0.011666
v 0.028747 -0.008896 0.007338
v 0.025993 -0.001027 0.011272
v 0.025993 -0.005748 0.010879
v 0.040548 -0.005354 0.009305
v 0.030322 -0.009290 0.006945
v 0.025599 -0.002995 0.006945
v 0.040548 -0.001027 0.009305
v 0.027174 -0.001421 0.011666
f 208 202 214 
f 201 200 202 
f 199 203 204 
f 200 203 205 
f 201 202 206 
f 204 201 206 
f 200 205 208 
f 202 199 209 
f 206 202 209 
f 207 206 209 
f 199 207 209 
f 200 201 210 
f 201 204 210 
f 204 203 210 
f 199 204 211 
f 204 206 211 
f 206 207 211 
f 207 199 211 
f 199 202 212 
f 203 199 212 
f 205 203 212 
f 202 208 212 
f 208 205 212 
f 203 200 213 
f 200 210 213 
f 210 203 213 
f 202 200 214 
f 200 208 214 
o convex_6
v 0.085796 -0.001027 -0.000531
v 0.075569 0.013138 0.006550
v 0.078320 0.008415 0.010091
v 0.063374 -0.001025 0.001830
v 0.063766 -0.001025 0.012846
v 0.070847 0.012350 0.001830
v 0.088552 -0.001027 0.006550
v 0.085010 0.008808 0.001831
v 0.063374 0.007234 0.009697
v 0.067699 0.006840 -0.000531
v 0.079501 -0.001027 0.012452
v 0.086190 0.007628 0.006550
v 0.075961 0.010383 -0.000531
v 0.065338 -0.001025 -0.000531
v 0.064946 0.008022 0.001830
v 0.077534 0.003696 0.012452
v 0.079895 0.012350 0.001831
v 0.088157 0.003696 0.001831
v 0.084221 0.002908 0.010091
v 0.083043 0.007235 -0.000531
v 0.063766 0.005271 0.011272
v 0.080681 0.011955 0.006550
v 0.063374 0.004877 0.001830
v 0.070847 0.012350 0.006549
v 0.073600 0.008809 0.010091
v 0.080681 0.007629 0.010091
v 0.088157 0.003696 0.006550
v 0.088552 -0.001027 0.001831
v 0.075175 0.013138 0.001831
v 0.063766 0.000942 0.012846
v 0.063374 -0.001025 0.012451
v 0.084221 -0.001027 0.010091
v 0.064946 0.000548 -0.000531
v 0.073206 0.003696 0.012451
v 0.087368 0.005662 0.001831
v 0.085796 0.000941 -0.000531
v 0.063374 0.007234 0.007336
v 0.088552 0.001336 0.006550
v 0.068486 0.007628 -0.000531
v 0.085010 0.008808 0.006550
v 0.067699 0.000942 0.012846
v 0.079895 0.012350 0.006550
f 240 236 256 
f 218 215 225 
f 215 221 225 
f 215 224 227 
f 215 218 228 
f 224 215 228 
f 230 225 233 
f 215 227 234 
f 231 222 234 
f 227 231 234 
f 222 231 236 
f 218 223 237 
f 229 224 237 
f 220 223 238 
f 238 223 239 
f 217 216 239 
f 230 217 239 
f 223 235 239 
f 216 238 239 
f 217 230 240 
f 233 226 240 
f 230 233 240 
f 226 233 241 
f 221 215 242 
f 227 220 243 
f 216 231 243 
f 231 227 243 
f 238 216 243 
f 220 238 243 
f 235 223 244 
f 223 218 245 
f 218 225 245 
f 225 219 245 
f 219 244 245 
f 244 223 245 
f 225 221 246 
f 221 233 246 
f 233 225 246 
f 228 218 247 
f 224 228 247 
f 218 237 247 
f 237 224 247 
f 230 239 248 
f 239 235 248 
f 244 230 248 
f 235 244 248 
f 222 226 249 
f 234 222 249 
f 241 232 249 
f 226 241 249 
f 215 234 250 
f 242 215 250 
f 232 242 250 
f 234 249 250 
f 249 232 250 
f 223 220 251 
f 220 229 251 
f 237 223 251 
f 229 237 251 
f 233 221 252 
f 232 241 252 
f 241 233 252 
f 221 242 252 
f 242 232 252 
f 220 227 253 
f 227 224 253 
f 224 229 253 
f 229 220 253 
f 226 222 254 
f 222 236 254 
f 240 226 254 
f 236 240 254 
f 219 225 255 
f 225 230 255 
f 244 219 255 
f 230 244 255 
f 216 217 256 
f 231 216 256 
f 236 231 256 
f 217 240 256 
o convex_7
v 0.034647 -0.018338 -0.000531
v 0.013401 -0.015192 -0.017843
v 0.013401 -0.015979 -0.017055
v 0.035434 -0.015192 -0.014300
v 0.019698 -0.019912 -0.006040
v 0.014975 -0.014798 -0.011939
v 0.019304 -0.018338 -0.000531
v 0.035434 -0.016372 -0.000926
v 0.035038 -0.018338 -0.006040
v 0.035434 -0.014798 -0.009187
v 0.019304 -0.019912 -0.000531
v 0.015765 -0.017159 -0.014693
v 0.024418 -0.014798 -0.016662
v 0.035434 -0.017551 -0.008403
v 0.024418 -0.017551 -0.000531
v 0.021271 -0.019912 -0.002894
v 0.013401 -0.014798 -0.017843
v 0.026777 -0.014798 -0.009580
v 0.015765 -0.017945 -0.012334
v 0.035434 -0.014798 -0.014300
v 0.024418 -0.015192 -0.016662
v 0.013795 -0.016372 -0.015088
v 0.031893 -0.016766 -0.000531
v 0.035434 -0.017945 -0.000531
v 0.018909 -0.018732 -0.000926
v 0.021271 -0.019912 -0.005649
f 272 261 282 
f 264 260 266 
f 257 263 267 
f 262 266 269 
f 260 264 270 
f 268 260 270 
f 263 257 271 
f 262 263 271 
f 265 257 272 
f 257 267 272 
f 267 261 272 
f 258 259 273 
f 269 258 273 
f 262 269 273 
f 262 264 274 
f 266 262 274 
f 264 266 274 
f 261 267 275 
f 259 268 275 
f 268 261 275 
f 266 260 276 
f 260 269 276 
f 269 266 276 
f 259 258 277 
f 268 259 277 
f 260 268 277 
f 258 269 277 
f 269 260 277 
f 273 259 278 
f 262 273 278 
f 275 267 278 
f 259 275 278 
f 264 262 279 
f 271 257 279 
f 262 271 279 
f 257 265 280 
f 270 264 280 
f 265 270 280 
f 279 257 280 
f 264 279 280 
f 263 262 281 
f 267 263 281 
f 262 278 281 
f 278 267 281 
f 261 268 282 
f 270 265 282 
f 268 270 282 
f 265 272 282 
o convex_8
v 0.070059 -0.014799 -0.007220
v 0.055893 -0.015192 -0.015089
v 0.055893 -0.014799 -0.015089
v 0.035434 -0.017946 -0.000531
v 0.035434 -0.014799 -0.009185
v 0.071626 -0.017158 -0.003679
v 0.035434 -0.017946 -0.007220
v 0.062976 -0.015585 -0.000531
v 0.073598 -0.015192 -0.014301
v 0.035434 -0.015192 -0.014301
v 0.035831 -0.016372 -0.000531
v 0.072023 -0.016765 -0.000531
v 0.052358 -0.017946 -0.006042
v 0.052358 -0.017946 -0.000531
v 0.067694 -0.015585 -0.014301
v 0.074780 -0.014799 -0.012335
v 0.069662 -0.015585 -0.000531
v 0.072420 -0.016765 -0.007220
v 0.035434 -0.014799 -0.014301
v 0.071626 -0.017158 -0.000531
v 0.039371 -0.017158 -0.009579
v 0.071237 -0.014799 -0.014695
v 0.068480 -0.014799 -0.006827
v 0.074384 -0.015585 -0.011941
v 0.039763 -0.017946 -0.007220
v 0.072023 -0.016372 -0.000531
f 298 299 308 
f 283 285 287 
f 286 287 289 
f 285 284 292 
f 289 287 292 
f 287 286 293 
f 290 287 293 
f 286 290 293 
f 290 286 294 
f 286 289 295 
f 294 286 296 
f 286 295 296 
f 295 288 296 
f 285 283 298 
f 290 294 299 
f 298 283 299 
f 288 295 300 
f 297 291 300 
f 295 297 300 
f 287 285 301 
f 285 292 301 
f 292 287 301 
f 294 296 302 
f 296 288 302 
f 288 300 302 
f 292 284 303 
f 289 292 303 
f 284 297 303 
f 297 289 303 
f 284 285 304 
f 297 284 304 
f 291 297 304 
f 285 298 304 
f 298 291 304 
f 283 287 305 
f 287 290 305 
f 299 283 305 
f 290 299 305 
f 291 298 306 
f 298 294 306 
f 300 291 306 
f 294 302 306 
f 302 300 306 
f 295 289 307 
f 289 297 307 
f 297 295 307 
f 294 298 308 
f 299 294 308 
o convex_9
v 0.059431 0.015891 -0.006828
v 0.023636 0.008810 -0.017450
v 0.023636 0.008810 -0.013906
v 0.063760 0.008810 -0.016268
v 0.058645 0.008810 -0.000531
v 0.024025 0.014711 -0.000531
v 0.041341 0.013531 -0.015483
v 0.031112 0.008810 -0.000531
v 0.058645 0.016285 -0.000531
v 0.034647 0.015498 -0.008010
v 0.024025 0.013531 -0.011548
v 0.062974 0.012352 -0.015481
v 0.042912 0.017072 -0.000531
v 0.044876 0.016285 -0.008401
v 0.024025 0.011564 -0.000531
v 0.023636 0.010384 -0.017450
v 0.060220 0.015104 -0.010367
v 0.059431 0.013924 -0.000531
v 0.024418 0.014711 -0.005649
v 0.058645 0.016678 -0.002106
v 0.057859 0.011564 -0.016268
v 0.024025 0.011564 -0.016269
v 0.045269 0.013531 -0.015483
v 0.040551 0.015891 -0.009186
v 0.063367 0.011958 -0.015088
v 0.031112 0.009597 -0.017450
v 0.063760 0.008810 -0.015481
v 0.042912 0.017072 -0.001320
v 0.025207 0.015104 -0.001320
v 0.063367 0.010777 -0.016268
v 0.046055 0.011565 -0.016662
v 0.043698 0.015498 -0.010759
v 0.060220 0.015498 -0.008794
v 0.058645 0.016678 -0.000927
v 0.055498 0.008810 -0.016662
v 0.061795 0.012744 -0.015088
v 0.057074 0.016678 -0.002894
v 0.059431 0.013137 -0.000531
f 335 326 346 
f 311 310 312 
f 311 312 313 
f 311 313 316 
f 313 314 316 
f 314 313 317 
f 314 317 321 
f 314 311 323 
f 311 316 323 
f 316 314 323 
f 310 311 324 
f 311 314 324 
f 314 319 324 
f 317 313 326 
f 318 319 327 
f 319 314 327 
f 319 315 330 
f 315 324 330 
f 324 319 330 
f 324 315 331 
f 320 329 331 
f 315 319 332 
f 319 318 332 
f 310 324 334 
f 313 312 335 
f 312 333 335 
f 333 326 335 
f 318 327 336 
f 321 328 336 
f 332 318 336 
f 322 332 336 
f 314 321 337 
f 327 314 337 
f 321 336 337 
f 336 327 337 
f 329 320 338 
f 333 312 338 
f 320 333 338 
f 338 334 339 
f 324 331 339 
f 331 329 339 
f 334 324 339 
f 329 338 339 
f 322 325 340 
f 331 315 340 
f 325 331 340 
f 315 332 340 
f 332 322 340 
f 322 309 341 
f 320 325 341 
f 325 322 341 
f 309 328 341 
f 333 320 341 
f 333 341 342 
f 321 317 342 
f 317 326 342 
f 328 321 342 
f 326 333 342 
f 341 328 342 
f 312 310 343 
f 310 334 343 
f 338 312 343 
f 334 338 343 
f 325 320 344 
f 320 331 344 
f 331 325 344 
f 309 322 345 
f 328 309 345 
f 336 328 345 
f 322 336 345 
f 326 313 346 
f 313 335 346 
o convex_10
v 0.035434 -0.014798 0.008123
v 0.019304 -0.019912 -0.000531
v 0.019304 -0.019912 0.002224
v 0.014188 -0.014798 0.015994
v 0.035434 -0.017945 0.005764
v 0.031891 -0.016766 -0.000531
v 0.015762 -0.014798 0.010092
v 0.027563 -0.015192 0.014420
v 0.016552 -0.017945 0.010485
v 0.034646 -0.018338 -0.000531
v 0.019304 -0.018338 -0.000531
v 0.035434 -0.014798 0.012452
v 0.035434 -0.016372 -0.000137
v 0.020878 -0.019519 0.005764
v 0.014188 -0.015979 0.015206
v 0.034646 -0.018338 0.004587
v 0.035434 -0.015585 0.011665
v 0.018518 -0.016372 0.014024
v 0.020878 -0.017945 -0.000531
v 0.024027 -0.014798 0.008516
v 0.014188 -0.015585 0.014024
v 0.020483 -0.019912 0.000257
v 0.022848 -0.019519 0.004978
f 349 368 369 
f 350 347 353 
f 348 349 355 
f 348 352 356 
f 352 348 357 
f 347 350 358 
f 351 347 358 
f 350 354 358 
f 347 351 359 
f 352 353 359 
f 351 356 359 
f 356 352 359 
f 355 349 360 
f 354 350 361 
f 348 355 361 
f 356 351 362 
f 351 358 363 
f 358 354 363 
f 360 351 363 
f 360 363 364 
f 355 360 364 
f 354 361 364 
f 361 355 364 
f 363 354 364 
f 353 352 365 
f 352 357 365 
f 357 353 365 
f 353 347 366 
f 347 359 366 
f 359 353 366 
f 350 353 367 
f 357 348 367 
f 353 357 367 
f 348 361 367 
f 361 350 367 
f 349 348 368 
f 348 356 368 
f 356 362 368 
f 368 362 369 
f 360 349 369 
f 351 360 369 
f 362 351 369 
o convex_11
v 0.068875 -0.016765 0.006548
v 0.035434 -0.017946 -0.000531
v 0.035434 -0.017946 0.005767
v 0.035434 -0.014799 0.012453
v 0.069664 -0.015585 -0.000531
v 0.073994 -0.014799 0.012453
v 0.035831 -0.016372 -0.000531
v 0.071631 -0.017158 -0.000531
v 0.041341 -0.014799 0.007337
v 0.058254 -0.015192 0.013240
v 0.050389 -0.017946 0.004584
v 0.070446 -0.014799 0.006548
v 0.073994 -0.015192 0.012453
v 0.052355 -0.017946 -0.000531
v 0.035434 -0.015585 0.011665
v 0.035434 -0.014799 0.008124
v 0.064154 -0.015585 -0.000531
v 0.069664 -0.017158 0.003799
v 0.072023 -0.016372 -0.000531
v 0.068875 -0.015192 0.002225
v 0.073994 -0.014799 0.010483
v 0.039767 -0.017552 0.006942
v 0.072420 -0.016372 0.007731
v 0.061398 -0.017552 0.004191
v 0.052751 -0.014799 0.013240
v 0.052751 -0.015192 0.013240
f 394 373 395 
f 371 372 373 
f 374 371 376 
f 371 374 377 
f 373 375 378 
f 372 371 380 
f 378 375 381 
f 375 379 382 
f 371 377 383 
f 380 371 383 
f 373 372 384 
f 371 373 385 
f 376 371 385 
f 373 378 385 
f 385 378 386 
f 374 376 386 
f 376 385 386 
f 377 374 388 
f 381 374 389 
f 378 381 389 
f 386 378 389 
f 374 386 389 
f 374 381 390 
f 381 375 390 
f 382 377 390 
f 375 382 390 
f 388 374 390 
f 377 388 390 
f 372 380 391 
f 382 379 391 
f 380 382 391 
f 384 372 391 
f 380 370 392 
f 377 382 392 
f 382 380 392 
f 370 387 392 
f 387 377 392 
f 370 380 393 
f 383 377 393 
f 380 383 393 
f 387 370 393 
f 377 387 393 
f 375 373 394 
f 379 375 394 
f 379 394 395 
f 373 384 395 
f 391 379 395 
f 384 391 395 
o convex_12
v 0.033862 -0.014798 -0.000531
v 0.088552 -0.001027 0.006551
v 0.088552 -0.001422 0.006551
v 0.017731 -0.012436 0.006945
v 0.030320 -0.001028 -0.000531
v 0.080281 -0.012435 0.001830
v 0.085792 -0.001027 -0.000531
v 0.029932 -0.001028 0.006945
v 0.060614 -0.014404 0.006945
v 0.018521 -0.012436 -0.000531
v 0.071235 -0.013222 -0.000531
v 0.080281 -0.012435 0.006551
v 0.023637 -0.003389 0.006157
v 0.021668 -0.014011 0.006945
v 0.086188 -0.008108 0.001830
v 0.085009 -0.001027 0.006945
v 0.024420 -0.003389 -0.000138
v 0.060614 -0.014404 -0.000531
v 0.083040 -0.007716 -0.000531
v 0.086188 -0.008108 0.006551
v 0.017731 -0.010863 0.006945
v 0.021668 -0.014011 -0.000531
v 0.076746 -0.013222 0.001830
v 0.033862 -0.014798 0.003402
v 0.088156 -0.003782 0.001830
v 0.082250 -0.007716 0.006945
v 0.018916 -0.010863 -0.000531
v 0.076746 -0.013222 0.006551
v 0.088552 -0.001027 0.001830
v 0.023637 -0.003389 0.006945
v 0.087761 -0.004963 0.006551
v 0.040552 -0.014404 0.006551
v 0.025211 -0.002995 -0.000531
v 0.036614 -0.014798 0.003402
v 0.068482 -0.013222 0.006945
v 0.084219 -0.009682 0.001830
f 415 407 431 
f 396 400 402 
f 403 399 404 
f 400 396 405 
f 396 402 406 
f 403 400 408 
f 404 399 409 
f 398 397 411 
f 397 402 411 
f 402 400 411 
f 400 403 411 
f 403 404 411 
f 396 406 413 
f 406 402 414 
f 401 406 414 
f 399 403 416 
f 405 399 416 
f 408 412 416 
f 405 396 417 
f 399 405 417 
f 409 399 417 
f 396 409 417 
f 406 401 418 
f 401 407 418 
f 404 413 418 
f 413 406 418 
f 409 396 419 
f 414 402 420 
f 410 414 420 
f 411 404 421 
f 407 415 421 
f 400 405 422 
f 405 416 422 
f 416 412 422 
f 418 407 423 
f 404 418 423 
f 397 398 424 
f 402 397 424 
f 398 420 424 
f 420 402 424 
f 403 408 425 
f 416 403 425 
f 408 416 425 
f 398 411 426 
f 415 410 426 
f 420 398 426 
f 410 420 426 
f 411 421 426 
f 421 415 426 
f 404 409 427 
f 419 404 427 
f 409 419 427 
f 408 400 428 
f 412 408 428 
f 400 422 428 
f 422 412 428 
f 396 413 429 
f 413 404 429 
f 419 396 429 
f 404 419 429 
f 421 404 430 
f 407 421 430 
f 404 423 430 
f 423 407 430 
f 407 401 431 
f 401 414 431 
f 414 410 431 
f 410 415 431 
o convex_13
v 0.022063 0.001335 -0.017843
v 0.063762 0.008810 -0.015483
v 0.064157 0.000548 -0.013122
v 0.033076 0.008810 -0.013122
v 0.026388 -0.000240 -0.013122
v 0.061790 -0.000240 -0.016663
v 0.023635 0.008415 -0.017843
v 0.062186 0.008810 -0.013122
v 0.023635 0.008810 -0.014302
v 0.063762 0.007235 -0.016663
v 0.027569 -0.000240 -0.017843
v 0.021667 -0.000240 -0.015483
v 0.064157 -0.000240 -0.013122
v 0.056675 0.004089 -0.017056
v 0.056675 0.008810 -0.016663
v 0.025602 0.003302 -0.013122
v 0.023635 0.008810 -0.017449
v 0.022063 -0.000240 -0.017843
v 0.053921 -0.000240 -0.017056
v 0.027964 0.004481 -0.017843
v 0.064157 -0.000240 -0.013909
v 0.063762 0.008810 -0.016269
f 452 441 453 
f 434 433 439 
f 435 434 439 
f 433 435 439 
f 435 433 440 
f 437 436 442 
f 432 438 442 
f 442 436 443 
f 436 437 444 
f 441 437 445 
f 438 441 445 
f 440 433 446 
f 441 438 446 
f 434 435 447 
f 435 440 447 
f 440 443 447 
f 443 436 447 
f 444 434 447 
f 436 444 447 
f 438 432 448 
f 432 443 448 
f 443 440 448 
f 440 446 448 
f 446 438 448 
f 432 442 449 
f 443 432 449 
f 442 443 449 
f 437 442 450 
f 445 437 450 
f 442 445 450 
f 442 438 451 
f 438 445 451 
f 445 442 451 
f 437 441 452 
f 434 444 452 
f 444 437 452 
f 433 434 453 
f 446 433 453 
f 441 446 453 
f 434 452 453 
o convex_14
v 0.022847 0.003696 0.013241
v 0.063370 0.008810 0.014813
v 0.061794 0.004874 0.015207
v 0.063370 -0.001027 0.010879
v 0.021663 -0.001027 0.016388
v 0.033470 0.008810 0.010879
v 0.023635 0.008810 0.015994
v 0.025995 -0.001027 0.010879
v 0.061794 -0.001027 0.014813
v 0.062186 0.008810 0.011666
v 0.023635 0.008810 0.012847
v 0.023635 0.005661 0.016388
v 0.025995 0.005661 0.010879
v 0.058255 0.004874 0.010879
v 0.062186 0.001728 0.015207
v 0.021663 -0.000239 0.014420
v 0.059039 -0.001027 0.015207
v 0.063370 -0.001027 0.012453
v 0.025207 0.002908 0.016388
v 0.040553 0.008810 0.010879
v 0.063370 0.001334 0.010879
v 0.027571 0.008810 0.015994
v 0.025599 0.002515 0.010879
v 0.063370 0.008810 0.013633
f 474 463 477 
f 455 459 460 
f 457 458 461 
f 459 457 461 
f 458 457 462 
f 459 455 463 
f 460 459 464 
f 460 458 465 
f 459 461 466 
f 464 459 466 
f 457 459 467 
f 455 456 468 
f 458 460 469 
f 461 458 469 
f 464 454 469 
f 460 464 469 
f 458 462 470 
f 462 468 470 
f 468 458 470 
f 457 455 471 
f 462 457 471 
f 455 468 471 
f 468 462 471 
f 456 465 472 
f 465 458 472 
f 468 456 472 
f 458 468 472 
f 459 463 473 
f 467 459 473 
f 463 467 473 
f 455 457 474 
f 457 467 474 
f 467 463 474 
f 456 455 475 
f 455 460 475 
f 465 456 475 
f 460 465 475 
f 454 464 476 
f 466 461 476 
f 464 466 476 
f 469 454 476 
f 461 469 476 
f 463 455 477 
f 455 474 477 
o convex_15
v 0.044481 0.014317 0.012060
v 0.024027 0.010384 0.008125
v 0.024027 0.013530 0.008125
v 0.023631 0.008810 0.015994
v 0.062188 0.008810 0.011666
v 0.060219 0.015104 0.008125
v 0.062973 0.011171 0.014420
v 0.061009 0.011565 0.008125
v 0.024027 0.011171 0.015207
v 0.061795 0.008810 0.014813
v 0.033472 0.008810 0.010880
v 0.040556 0.015498 0.008519
v 0.048413 0.013530 0.013632
v 0.062580 0.012743 0.013240
v 0.029928 0.010778 0.015600
v 0.024817 0.013530 0.010093
v 0.023631 0.008810 0.012452
v 0.038584 0.013137 0.014027
v 0.024420 0.009991 0.008519
v 0.047235 0.011958 0.014812
v 0.057465 0.015104 0.008912
v 0.063370 0.008810 0.013633
v 0.025996 0.009597 0.015994
v 0.031897 0.014711 0.008125
v 0.045663 0.015498 0.008912
v 0.024027 0.012350 0.012846
v 0.056283 0.010778 0.014812
v 0.062973 0.011565 0.012846
v 0.061009 0.011171 0.008519
v 0.062973 0.011958 0.014026
f 499 505 507 
f 479 480 483 
f 479 483 485 
f 481 482 487 
f 482 481 488 
f 480 479 494 
f 481 480 494 
f 488 481 494 
f 478 489 495 
f 490 478 495 
f 486 492 495 
f 489 493 495 
f 479 485 496 
f 482 488 496 
f 494 479 496 
f 488 494 496 
f 490 495 497 
f 495 492 497 
f 478 490 498 
f 491 483 498 
f 490 491 498 
f 482 485 499 
f 487 482 499 
f 484 487 499 
f 486 481 500 
f 481 487 500 
f 492 486 500 
f 497 492 500 
f 483 480 501 
f 489 483 501 
f 480 493 501 
f 493 489 501 
f 489 478 502 
f 483 489 502 
f 478 498 502 
f 498 483 502 
f 480 481 503 
f 481 486 503 
f 493 480 503 
f 486 495 503 
f 495 493 503 
f 487 484 504 
f 484 497 504 
f 500 487 504 
f 497 500 504 
f 485 483 505 
f 483 491 505 
f 499 485 505 
f 485 482 506 
f 496 485 506 
f 482 496 506 
f 491 490 507 
f 497 484 507 
f 490 497 507 
f 484 499 507 
f 505 491 507 
o convex_16
v 0.016943 -0.014798 -0.017842
v 0.023237 -0.011257 -0.008400
v 0.016549 -0.011257 -0.008400
v 0.015763 -0.011257 -0.018236
v 0.023237 -0.011257 -0.017842
v 0.023237 -0.014798 -0.010762
v 0.014583 -0.014798 -0.013123
v 0.023237 -0.014798 -0.017056
v 0.021662 -0.014010 -0.008400
v 0.013796 -0.014010 -0.018236
v 0.018516 -0.013617 -0.018236
v 0.013796 -0.014798 -0.015482
v 0.016157 -0.011257 -0.009189
v 0.016943 -0.012044 -0.008400
f 514 516 521 
f 510 509 511 
f 511 509 512 
f 512 509 513 
f 508 513 514 
f 512 513 515 
f 513 508 515 
f 509 510 516 
f 513 509 516 
f 514 513 516 
f 511 512 518 
f 515 508 518 
f 512 515 518 
f 517 511 518 
f 508 517 518 
f 508 514 519 
f 517 508 519 
f 517 519 520 
f 510 511 520 
f 514 510 520 
f 511 517 520 
f 519 514 520 
f 510 514 521 
f 516 510 521 
o convex_17
v 0.079108 -0.010863 -0.011154
v 0.086584 -0.000240 -0.008795
v 0.086584 -0.000240 -0.012335
v 0.068092 -0.000240 -0.008401
v 0.072420 -0.000240 -0.013908
v 0.071636 -0.010468 -0.008401
v 0.068092 -0.008109 -0.011941
v 0.083435 -0.007320 -0.008401
v 0.084615 -0.006927 -0.012335
v 0.076748 -0.002995 -0.013908
v 0.068092 -0.000240 -0.012335
v 0.068092 -0.007715 -0.008401
v 0.071241 -0.010468 -0.011547
v 0.079108 -0.010863 -0.008795
v 0.086190 -0.000240 -0.008401
v 0.084615 -0.006927 -0.008795
v 0.079892 -0.010468 -0.011547
v 0.078321 -0.000240 -0.013908
v 0.086584 -0.002601 -0.011547
v 0.071636 -0.010863 -0.008795
v 0.074389 -0.002995 -0.013908
v 0.068092 -0.006533 -0.012335
v 0.079108 -0.010468 -0.008401
f 535 537 544 
f 523 524 525 
f 525 524 526 
f 525 527 529 
f 525 526 532 
f 528 525 532 
f 527 525 533 
f 525 528 533 
f 523 525 536 
f 525 529 536 
f 536 529 537 
f 523 536 537 
f 537 535 538 
f 531 530 538 
f 522 534 538 
f 534 531 538 
f 535 522 538 
f 530 537 538 
f 526 524 539 
f 524 530 539 
f 531 526 539 
f 530 531 539 
f 524 523 540 
f 530 524 540 
f 523 537 540 
f 537 530 540 
f 527 533 541 
f 533 528 541 
f 534 522 541 
f 528 534 541 
f 535 527 541 
f 522 535 541 
f 526 531 542 
f 534 528 542 
f 531 534 542 
f 532 526 543 
f 528 532 543 
f 526 542 543 
f 542 528 543 
f 529 527 544 
f 527 535 544 
f 537 529 544 
o convex_18
v 0.016942 -0.012043 -0.008400
v 0.021270 -0.011257 -0.000531
v 0.020089 -0.010864 -0.000531
v 0.021270 -0.010471 -0.008400
v 0.021270 -0.013617 -0.008400
v 0.020482 -0.013617 -0.000531
v 0.017336 -0.010076 -0.008400
v 0.018516 -0.012437 -0.000531
v 0.021270 -0.013617 -0.000531
v 0.018909 -0.010864 -0.000531
v 0.020482 -0.013617 -0.008400
f 550 545 555 
f 547 546 548 
f 545 548 549 
f 548 546 549 
f 546 547 550 
f 547 548 551 
f 548 545 551 
f 545 550 552 
f 550 547 552 
f 551 545 552 
f 549 546 553 
f 546 550 553 
f 550 549 553 
f 547 551 554 
f 552 547 554 
f 551 552 554 
f 545 549 555 
f 549 550 555 
o convex_19
v 0.021663 -0.014011 -0.008400
v 0.026385 -0.002994 -0.000531
v 0.026385 -0.002994 -0.008400
v 0.026778 -0.010862 -0.000531
v 0.021270 -0.011649 -0.000531
v 0.023237 -0.003388 -0.008400
v 0.026778 -0.010862 -0.003680
v 0.022844 -0.014011 -0.000531
v 0.024417 -0.003388 -0.000531
v 0.021270 -0.009682 -0.008400
v 0.022451 -0.014011 -0.008400
v 0.025991 -0.006536 -0.008400
v 0.021270 -0.013617 -0.000531
v 0.026778 -0.004963 -0.003680
v 0.021270 -0.013617 -0.008400
f 568 565 570 
f 559 557 560 
f 558 556 561 
f 557 558 561 
f 562 559 563 
f 559 560 563 
f 560 557 564 
f 557 561 564 
f 561 560 564 
f 560 561 565 
f 561 556 565 
f 556 558 566 
f 562 563 566 
f 563 556 566 
f 558 562 567 
f 566 558 567 
f 562 566 567 
f 556 563 568 
f 563 560 568 
f 560 565 568 
f 558 557 569 
f 557 559 569 
f 562 558 569 
f 559 562 569 
f 565 556 570 
f 556 568 570 
o convex_20
v 0.034646 -0.000240 -0.003680
v 0.026779 -0.011255 -0.003680
v 0.026779 -0.011255 -0.000531
v 0.036220 -0.014798 -0.001319
v 0.033859 -0.009681 -0.008400
v 0.029927 -0.000240 -0.008400
v 0.029927 -0.000240 -0.000531
v 0.035039 -0.000240 -0.008400
v 0.035433 -0.001815 -0.000531
v 0.028353 -0.010467 -0.007612
v 0.026779 -0.005357 -0.003680
v 0.036220 -0.013222 -0.004859
v 0.028353 -0.013222 -0.004859
v 0.033859 -0.014798 -0.000531
v 0.028353 -0.008501 -0.008400
v 0.026779 -0.005357 -0.000531
v 0.028353 -0.013222 -0.000531
v 0.036220 -0.011255 -0.000531
v 0.034253 -0.000240 -0.000531
v 0.036220 -0.011255 -0.004859
v 0.030714 -0.010467 -0.008006
v 0.034646 -0.006536 -0.008400
f 578 582 592 
f 571 576 577 
f 575 576 578 
f 576 571 578 
f 577 573 579 
f 578 571 579 
f 572 573 581 
f 577 576 581 
f 573 572 583 
f 572 580 583 
f 582 574 583 
f 579 573 584 
f 583 574 584 
f 576 575 585 
f 580 572 585 
f 581 576 585 
f 572 581 585 
f 573 577 586 
f 581 573 586 
f 577 581 586 
f 573 583 587 
f 584 573 587 
f 583 584 587 
f 574 582 588 
f 579 584 588 
f 584 574 588 
f 571 577 589 
f 577 579 589 
f 579 571 589 
f 578 579 590 
f 582 578 590 
f 579 588 590 
f 588 582 590 
f 575 582 591 
f 583 580 591 
f 582 583 591 
f 585 575 591 
f 580 585 591 
f 575 578 592 
f 582 575 592 
o convex_21
v 0.029929 -0.000240 -0.008006
v 0.058645 0.008810 -0.000532
v 0.059828 0.007628 -0.000532
v 0.062580 0.006842 -0.008006
v 0.032685 0.008810 -0.008006
v 0.029929 -0.000240 -0.000532
v 0.062580 -0.000240 -0.002893
v 0.031109 0.008810 -0.000532
v 0.062580 -0.000240 -0.008006
v 0.061400 -0.000240 -0.000532
v 0.058255 0.008810 -0.008006
v 0.062580 0.006842 -0.002893
v 0.031109 0.008810 -0.005645
v 0.062187 0.003696 -0.000532
v 0.029929 0.000548 -0.008006
v 0.030716 0.004875 -0.008006
f 597 607 608 
f 596 593 597 
f 595 594 598 
f 598 593 599 
f 594 597 600 
f 598 594 600 
f 593 596 601 
f 599 593 601 
f 596 599 601 
f 595 598 602 
f 598 599 602 
f 594 596 603 
f 596 597 603 
f 597 594 603 
f 594 595 604 
f 596 594 604 
f 599 596 604 
f 600 597 605 
f 595 602 606 
f 602 599 606 
f 604 595 606 
f 599 604 606 
f 597 593 607 
f 593 598 607 
f 598 600 607 
f 600 605 607 
f 607 605 608 
f 605 597 608 
o convex_22
v 0.068094 -0.008503 0.007338
v 0.084224 -0.001027 0.010091
v 0.084224 -0.002995 0.010091
v 0.072029 -0.001814 0.012453
v 0.066914 -0.001027 0.006945
v 0.084224 -0.003782 0.006945
v 0.077138 -0.008896 0.010091
v 0.065339 -0.005354 0.011272
v 0.080286 -0.008503 0.006945
v 0.065339 -0.001027 0.011272
v 0.077926 -0.003782 0.012453
v 0.084224 -0.001027 0.006945
v 0.065339 -0.007715 0.007338
v 0.066127 -0.008109 0.009699
v 0.079107 -0.001027 0.012453
v 0.080286 -0.008503 0.009699
v 0.073208 -0.009290 0.006945
v 0.072815 -0.008896 0.010091
v 0.073208 -0.003782 0.012453
v 0.082647 -0.005748 0.010091
v 0.072423 -0.009290 0.009699
v 0.076746 -0.009290 0.008518
v 0.065339 -0.001027 0.010091
f 621 618 631 
f 610 611 614 
f 613 614 617 
f 610 613 618 
f 616 612 618 
f 613 610 620 
f 610 614 620 
f 614 613 620 
f 616 618 621 
f 621 609 622 
f 616 621 622 
f 611 610 623 
f 610 618 623 
f 618 612 623 
f 619 611 623 
f 612 619 623 
f 619 615 624 
f 613 617 625 
f 609 621 625 
f 621 613 625 
f 615 619 626 
f 616 622 626 
f 616 626 627 
f 612 616 627 
f 619 612 627 
f 626 619 627 
f 614 611 628 
f 617 614 628 
f 611 619 628 
f 624 617 628 
f 619 624 628 
f 622 609 629 
f 609 625 629 
f 626 622 629 
f 615 626 629 
f 617 624 630 
f 624 615 630 
f 625 617 630 
f 615 629 630 
f 629 625 630 
f 618 613 631 
f 613 621 631 
o convex_23
v 0.062976 0.005267 0.010879
v 0.044091 -0.001027 -0.000531
v 0.044091 -0.001027 0.008517
v 0.044879 0.008810 -0.000531
v 0.061402 -0.001027 -0.000531
v 0.058648 0.008810 -0.000531
v 0.046453 0.008810 0.006944
v 0.063370 -0.001027 0.010879
v 0.063370 0.007234 0.007336
v 0.050783 0.002122 0.010879
v 0.063370 0.004481 0.001830
v 0.044091 0.007628 0.004584
v 0.048814 0.004874 0.010092
v 0.063370 0.007234 0.009697
v 0.057860 0.008810 0.005764
v 0.063370 -0.001027 0.001830
v 0.046453 -0.001027 0.010092
v 0.062189 0.003695 -0.000531
v 0.044091 0.000547 0.008517
v 0.044091 0.007235 -0.000531
v 0.046059 0.000154 0.010092
v 0.060222 0.007234 -0.000531
v 0.050783 0.000941 0.010879
v 0.053534 0.004087 0.010879
v 0.044091 0.005268 0.006550
v 0.044879 0.008810 0.004584
f 643 638 657 
f 634 633 636 
f 633 635 636 
f 636 635 637 
f 637 635 638 
f 634 636 639 
f 639 632 641 
f 640 639 642 
f 633 634 643 
f 632 639 645 
f 639 640 645 
f 640 637 645 
f 644 632 645 
f 638 644 645 
f 637 638 646 
f 645 637 646 
f 638 645 646 
f 639 636 647 
f 642 639 647 
f 634 639 648 
f 636 637 649 
f 647 636 649 
f 642 647 649 
f 643 634 650 
f 635 633 651 
f 633 643 651 
f 643 635 651 
f 644 638 652 
f 641 644 652 
f 634 648 652 
f 650 634 652 
f 638 650 652 
f 637 640 653 
f 640 642 653 
f 649 637 653 
f 642 649 653 
f 639 641 654 
f 648 639 654 
f 641 652 654 
f 652 648 654 
f 641 632 655 
f 632 644 655 
f 644 641 655 
f 638 643 656 
f 643 650 656 
f 650 638 656 
f 638 635 657 
f 635 643 657 
o convex_24
v 0.060616 0.013136 0.008125
v 0.041732 0.013531 -0.000531
v 0.041732 0.012744 0.006157
v 0.058645 0.008810 -0.000531
v 0.056679 0.016679 -0.000531
v 0.046061 0.008810 0.006943
v 0.041732 0.015892 0.007731
v 0.045273 0.008810 -0.000531
v 0.041732 0.016679 -0.000531
v 0.059433 0.015497 0.007731
v 0.057860 0.008810 0.005763
v 0.059039 0.016285 -0.000531
v 0.042125 0.012352 0.008125
v 0.060616 0.011565 0.008125
v 0.044094 0.016285 0.006943
v 0.059433 0.013136 -0.000531
v 0.060220 0.015104 0.008125
v 0.043307 0.016679 0.003405
v 0.041732 0.015497 0.008125
v 0.045273 0.008810 0.004582
v 0.059039 0.016285 0.002224
v 0.058645 0.008810 0.004582
f 671 668 679 
f 661 659 662 
f 659 660 664 
f 660 659 665 
f 659 661 665 
f 661 663 665 
f 662 659 666 
f 659 664 666 
f 663 661 668 
f 661 662 669 
f 663 668 671 
f 658 670 671 
f 670 663 671 
f 664 667 672 
f 669 658 673 
f 661 669 673 
f 671 661 673 
f 658 671 673 
f 667 664 674 
f 658 669 674 
f 670 658 674 
f 662 666 675 
f 666 664 675 
f 672 662 675 
f 664 672 675 
f 664 660 676 
f 660 670 676 
f 674 664 676 
f 670 674 676 
f 660 665 677 
f 665 663 677 
f 663 670 677 
f 670 660 677 
f 669 662 678 
f 662 672 678 
f 672 667 678 
f 667 674 678 
f 674 669 678 
f 668 661 679 
f 661 671 679 
o convex_25
v 0.069658 -0.014798 -0.008401
v 0.023237 -0.013224 -0.017842
v 0.023237 -0.012831 -0.017842
v 0.073202 -0.014011 -0.015875
v 0.068871 -0.012831 -0.011549
v 0.023237 -0.014798 -0.010762
v 0.023237 -0.014798 -0.017055
v 0.032296 -0.012831 -0.011549
v 0.075169 -0.014798 -0.014695
v 0.070838 -0.012831 -0.015875
v 0.035442 -0.013618 -0.009975
v 0.023237 -0.012831 -0.013514
v 0.068871 -0.013618 -0.009582
v 0.027177 -0.014404 -0.009975
v 0.075169 -0.014011 -0.014301
v 0.069658 -0.014404 -0.008401
v 0.068083 -0.012831 -0.016269
v 0.031899 -0.014798 -0.009582
v 0.040556 -0.012831 -0.011156
v 0.073202 -0.014798 -0.015088
f 688 686 699 
f 682 681 685 
f 680 685 686 
f 681 683 686 
f 685 681 686 
f 684 682 687 
f 680 686 688 
f 682 684 689 
f 682 685 691 
f 687 682 691 
f 690 687 693 
f 691 685 693 
f 687 691 693 
f 680 688 694 
f 688 683 694 
f 683 689 694 
f 689 684 694 
f 684 692 694 
f 694 692 695 
f 692 690 695 
f 680 694 695 
f 681 682 696 
f 683 681 696 
f 682 689 696 
f 689 683 696 
f 685 680 697 
f 693 685 697 
f 690 693 697 
f 695 690 697 
f 680 695 697 
f 684 687 698 
f 687 690 698 
f 692 684 698 
f 690 692 698 
f 686 683 699 
f 683 688 699 
o convex_26
v 0.067690 -0.011257 -0.013121
v 0.023237 -0.012831 -0.017842
v 0.023237 -0.011257 -0.017842
v 0.046458 -0.011257 -0.008401
v 0.069266 -0.012831 -0.016269
v 0.063364 -0.012437 -0.008401
v 0.032687 -0.012831 -0.011549
v 0.068084 -0.011257 -0.016269
v 0.023237 -0.011257 -0.014695
v 0.063364 -0.011257 -0.008401
v 0.068872 -0.012831 -0.012336
v 0.023237 -0.012831 -0.013908
v 0.046458 -0.011650 -0.008401
v 0.070054 -0.012437 -0.013514
v 0.026390 -0.011257 -0.017842
f 707 704 714 
f 700 702 703 
f 701 704 706 
f 702 700 707 
f 702 701 708 
f 703 702 708 
f 700 703 709 
f 703 705 709 
f 709 705 710 
f 706 704 710 
f 705 706 710 
f 701 706 711 
f 706 703 711 
f 708 701 711 
f 703 708 711 
f 705 703 712 
f 703 706 712 
f 706 705 712 
f 707 700 713 
f 704 707 713 
f 700 709 713 
f 709 710 713 
f 710 704 713 
f 701 702 714 
f 704 701 714 
f 702 707 714 
o convex_27
v 0.051171 -0.014402 -0.006433
v 0.062582 -0.000241 -0.002893
v 0.064157 -0.008896 -0.000531
v 0.036615 -0.001816 -0.000531
v 0.036615 -0.000241 -0.008400
v 0.036221 -0.014798 -0.000531
v 0.063367 -0.007714 -0.008400
v 0.038190 -0.013222 -0.007612
v 0.060613 -0.014403 -0.000531
v 0.062582 -0.000241 -0.008400
v 0.063367 -0.012437 -0.008400
v 0.061401 -0.000241 -0.000531
v 0.037796 -0.000241 -0.000531
v 0.038190 -0.010467 -0.008400
v 0.064157 -0.013222 -0.007612
v 0.064157 -0.013222 -0.000531
v 0.036221 -0.013222 -0.004859
v 0.059041 -0.014403 -0.006433
v 0.064157 -0.008896 -0.007219
v 0.036221 -0.014798 -0.001319
v 0.064157 -0.013617 -0.004859
v 0.036221 -0.011255 -0.000531
v 0.046451 -0.011650 -0.008400
f 728 725 737 
f 717 718 720 
f 717 720 723 
f 716 717 724 
f 719 716 724 
f 721 719 724 
f 719 721 725 
f 717 716 726 
f 718 717 726 
f 716 719 726 
f 726 719 727 
f 719 718 727 
f 718 726 727 
f 719 725 728 
f 725 721 729 
f 717 723 730 
f 729 717 730 
f 719 728 731 
f 728 722 731 
f 715 722 732 
f 722 725 732 
f 725 729 732 
f 724 717 733 
f 721 724 733 
f 717 729 733 
f 729 721 733 
f 722 715 734 
f 723 720 734 
f 720 731 734 
f 731 722 734 
f 715 732 734 
f 732 723 734 
f 730 723 735 
f 729 730 735 
f 723 732 735 
f 732 729 735 
f 718 719 736 
f 720 718 736 
f 719 731 736 
f 731 720 736 
f 725 722 737 
f 722 728 737 
o convex_28
v 0.081466 -0.007713 -0.008400
v 0.085795 -0.000240 -0.000531
v 0.085795 -0.001421 -0.000531
v 0.064157 -0.011256 -0.000531
v 0.065341 -0.000240 -0.008400
v 0.064947 -0.000240 -0.000531
v 0.069274 -0.014404 -0.007219
v 0.085401 -0.000240 -0.008400
v 0.083040 -0.007713 -0.000531
v 0.064157 -0.013223 -0.007612
v 0.071242 -0.013223 -0.000531
v 0.064553 -0.014404 -0.004466
v 0.082648 -0.007322 -0.008006
v 0.074783 -0.009681 -0.008400
v 0.064157 -0.013223 -0.000531
v 0.085795 -0.001027 -0.007219
v 0.064947 -0.000240 -0.007612
v 0.068488 -0.007322 -0.008400
v 0.069274 -0.014404 -0.004466
v 0.083040 -0.007713 -0.002106
v 0.064553 -0.014404 -0.007219
v 0.064157 -0.011256 -0.007612
v 0.082254 -0.007713 -0.007612
f 750 757 760 
f 740 739 741 
f 739 742 743 
f 741 739 743 
f 738 742 745 
f 742 739 745 
f 740 741 746 
f 746 741 748 
f 744 738 750 
f 738 745 750 
f 742 738 751 
f 738 744 751 
f 744 747 751 
f 741 747 752 
f 748 741 752 
f 747 749 752 
f 749 748 752 
f 739 740 753 
f 745 739 753 
f 750 745 753 
f 743 742 754 
f 741 743 754 
f 747 742 755 
f 742 751 755 
f 751 747 755 
f 744 746 756 
f 746 748 756 
f 749 744 756 
f 748 749 756 
f 740 746 757 
f 746 744 757 
f 753 740 757 
f 750 753 757 
f 747 744 758 
f 749 747 758 
f 744 749 758 
f 742 747 759 
f 747 741 759 
f 754 742 759 
f 741 754 759 
f 744 750 760 
f 757 744 760 
o convex_29
v 0.025601 -0.000240 -0.010761
v 0.040548 0.008810 -0.012335
v 0.040548 0.008810 -0.013122
v 0.042123 -0.000240 -0.010761
v 0.032682 0.008810 -0.008007
v 0.025601 0.003302 -0.013122
v 0.041334 0.001728 -0.008007
v 0.042123 -0.000240 -0.013122
v 0.025994 -0.000240 -0.008401
v 0.041334 0.006842 -0.008007
v 0.025994 0.006054 -0.009582
v 0.033468 0.008810 -0.013122
v 0.026387 -0.000240 -0.013122
v 0.038974 -0.000240 -0.008007
v 0.039367 0.008810 -0.008007
v 0.025994 0.006054 -0.008401
v 0.042123 0.005268 -0.012335
v 0.025994 0.005661 -0.012335
v 0.029928 -0.000240 -0.008007
v 0.025601 0.005268 -0.008794
f 771 778 780 
f 762 763 765 
f 764 761 768 
f 766 763 768 
f 761 764 769 
f 767 764 770 
f 765 767 770 
f 765 763 772 
f 763 766 772 
f 771 765 772 
f 761 766 773 
f 768 761 773 
f 766 768 773 
f 764 767 774 
f 767 765 774 
f 769 764 774 
f 762 765 775 
f 770 762 775 
f 765 770 775 
f 765 771 776 
f 763 762 777 
f 768 763 777 
f 764 768 777 
f 762 770 777 
f 770 764 777 
f 772 766 778 
f 771 772 778 
f 774 765 779 
f 769 774 779 
f 776 769 779 
f 765 776 779 
f 766 761 780 
f 761 769 780 
f 769 776 780 
f 776 771 780 
f 778 766 780 
o convex_30
v 0.017730 -0.010865 0.016781
v 0.017336 -0.012043 0.006945
v 0.016942 -0.012043 0.007338
v 0.024811 -0.014798 0.015207
v 0.024811 -0.009290 0.006945
v 0.014188 -0.014798 0.016387
v 0.014189 -0.008503 0.009699
v 0.024811 -0.009290 0.015991
v 0.022844 -0.014010 0.006945
v 0.015369 -0.014798 0.010880
v 0.014188 -0.009290 0.015207
v 0.024811 -0.014798 0.009305
v 0.024811 -0.014010 0.015991
v 0.017336 -0.009290 0.016781
v 0.014188 -0.010865 0.009305
v 0.017730 -0.010077 0.006945
v 0.014975 -0.008503 0.011666
v 0.014582 -0.014010 0.016781
v 0.024023 -0.010865 0.016387
v 0.021662 -0.014010 0.006945
v 0.014188 -0.014798 0.014420
f 786 795 801 
f 784 785 788 
f 782 785 789 
f 783 782 790 
f 784 786 790 
f 785 784 792 
f 789 785 792 
f 784 790 792 
f 786 784 793 
f 784 788 793 
f 782 783 795 
f 783 790 795 
f 786 791 795 
f 791 787 795 
f 785 782 796 
f 787 785 796 
f 782 795 796 
f 795 787 796 
f 785 787 797 
f 788 785 797 
f 787 791 797 
f 794 788 797 
f 791 794 797 
f 791 786 798 
f 786 793 798 
f 781 794 798 
f 794 791 798 
f 793 788 799 
f 794 781 799 
f 788 794 799 
f 781 798 799 
f 798 793 799 
f 782 789 800 
f 790 782 800 
f 789 792 800 
f 792 790 800 
f 790 786 801 
f 795 790 801 
o convex_31
v 0.024811 -0.014798 0.008913
v 0.030713 -0.009290 0.015600
v 0.030318 -0.009290 0.015994
v 0.030713 -0.014798 0.014419
v 0.024811 -0.014011 0.015994
v 0.024811 -0.009290 0.013240
v 0.030713 -0.014404 0.008518
v 0.030713 -0.009290 0.012845
v 0.024811 -0.009290 0.015994
v 0.030713 -0.013617 0.015600
v 0.024811 -0.014798 0.015206
v 0.027172 -0.014404 0.008518
v 0.030713 -0.014798 0.008518
f 813 808 814 
f 804 803 807 
f 802 806 807 
f 803 805 808 
f 807 803 809 
f 803 808 809 
f 806 804 810 
f 804 807 810 
f 807 806 810 
f 803 804 811 
f 805 803 811 
f 806 805 811 
f 804 806 811 
f 802 805 812 
f 806 802 812 
f 805 806 812 
f 802 807 813 
f 807 809 813 
f 809 808 813 
f 805 802 814 
f 808 805 814 
f 802 813 814 
o convex_32
v 0.032295 -0.012436 0.010486
v 0.065727 -0.009290 0.014814
v 0.066513 -0.010077 0.014814
v 0.030713 -0.013617 0.015601
v 0.072805 -0.014798 0.010486
v 0.033474 -0.009290 0.010879
v 0.030713 -0.009290 0.015601
v 0.060610 -0.009290 0.010879
v 0.073199 -0.014011 0.014026
v 0.030713 -0.014798 0.010486
v 0.030713 -0.014798 0.014420
v 0.065727 -0.009290 0.012060
v 0.073985 -0.014798 0.013239
v 0.030713 -0.009290 0.012847
v 0.070839 -0.013617 0.014420
v 0.037800 -0.012436 0.015601
v 0.068086 -0.012436 0.010486
v 0.073985 -0.014011 0.012454
v 0.038194 -0.009290 0.015601
v 0.030713 -0.012830 0.010486
v 0.064940 -0.014404 0.014026
v 0.041340 -0.012044 0.010486
v 0.066513 -0.011257 0.014814
v 0.072805 -0.014404 0.010486
f 826 832 838 
f 816 820 821 
f 820 816 822 
f 816 817 823 
f 815 819 824 
f 818 821 824 
f 824 819 825 
f 818 824 825 
f 822 816 826 
f 825 819 827 
f 821 820 828 
f 824 821 828 
f 823 817 829 
f 821 818 830 
f 818 829 830 
f 819 815 831 
f 822 826 831 
f 816 823 832 
f 826 816 832 
f 823 827 832 
f 827 819 832 
f 817 816 833 
f 816 821 833 
f 821 830 833 
f 820 815 834 
f 815 824 834 
f 828 820 834 
f 824 828 834 
f 818 825 835 
f 827 823 835 
f 825 827 835 
f 829 818 835 
f 823 829 835 
f 815 820 836 
f 820 822 836 
f 831 815 836 
f 822 831 836 
f 829 817 837 
f 830 829 837 
f 817 833 837 
f 833 830 837 
f 819 831 838 
f 831 826 838 
f 832 819 838 
o convex_33
v 0.014188 -0.008109 0.011666
v 0.061793 -0.001027 0.015207
v 0.062188 -0.001814 0.015207
v 0.017732 -0.009290 0.016781
v 0.065337 -0.009290 0.012060
v 0.014188 -0.001027 0.012453
v 0.059429 -0.001027 0.011666
v 0.021272 -0.001027 0.016387
v 0.065337 -0.009290 0.014813
v 0.014188 -0.009290 0.011666
v 0.014188 -0.001027 0.015207
v 0.027571 -0.001027 0.011666
v 0.062974 -0.009290 0.011666
v 0.014188 -0.009290 0.015207
v 0.063370 -0.006929 0.015207
v 0.019305 -0.006929 0.016781
v 0.061793 -0.001027 0.012454
v 0.018914 -0.002995 0.011666
v 0.065337 -0.008896 0.012060
f 845 855 857 
f 844 840 845 
f 840 844 846 
f 842 843 847 
f 843 842 848 
f 844 839 848 
f 839 845 848 
f 846 844 849 
f 844 848 849 
f 845 839 850 
f 844 845 850 
f 843 848 851 
f 848 845 851 
f 848 842 852 
f 842 849 852 
f 849 848 852 
f 847 841 853 
f 842 847 853 
f 841 840 854 
f 840 846 854 
f 849 842 854 
f 846 849 854 
f 853 841 854 
f 842 853 854 
f 840 841 855 
f 845 840 855 
f 839 844 856 
f 850 839 856 
f 844 850 856 
f 841 847 857 
f 847 843 857 
f 843 851 857 
f 851 845 857 
f 855 841 857 
o convex_34
v 0.038973 0.015497 0.008125
v 0.024024 0.011565 -0.000531
v 0.024024 0.010384 0.007337
v 0.038973 0.011170 -0.000531
v 0.025599 0.015104 -0.000531
v 0.041729 0.016679 -0.000531
v 0.041334 0.012352 0.008125
v 0.024419 0.013924 0.008125
v 0.041334 0.016285 0.005369
v 0.026386 0.010384 0.008125
v 0.024024 0.014711 0.003405
v 0.041729 0.013532 -0.000531
v 0.038973 0.011170 0.003405
v 0.041729 0.015497 0.008125
v 0.039760 0.016679 0.000256
v 0.031109 0.011170 -0.000531
v 0.025206 0.014711 0.004975
v 0.024024 0.014711 -0.000531
v 0.041729 0.012745 0.006157
v 0.040153 0.015891 0.007337
f 866 874 877 
f 861 859 862 
f 861 862 863 
f 864 858 865 
f 860 861 867 
f 865 860 867 
f 864 865 867 
f 859 860 868 
f 860 865 868 
f 861 863 869 
f 861 864 870 
f 867 861 870 
f 864 867 870 
f 858 864 871 
f 863 866 871 
f 869 863 871 
f 863 862 872 
f 866 863 872 
f 862 868 872 
f 860 859 873 
f 861 860 873 
f 859 861 873 
f 868 865 874 
f 866 872 874 
f 872 868 874 
f 862 859 875 
f 859 868 875 
f 868 862 875 
f 864 861 876 
f 861 869 876 
f 871 864 876 
f 869 871 876 
f 865 858 877 
f 858 871 877 
f 871 866 877 
f 874 865 877 
o convex_35
v 0.064547 -0.007716 -0.013514
v 0.041336 -0.011257 -0.017056
v 0.041336 -0.007716 -0.017056
v 0.045271 -0.007716 -0.008400
v 0.063370 -0.011257 -0.008400
v 0.067305 -0.011257 -0.016269
v 0.046059 -0.011257 -0.008400
v 0.063370 -0.007716 -0.008400
v 0.064155 -0.007716 -0.016662
v 0.041336 -0.011257 -0.013514
v 0.067305 -0.010863 -0.013514
v 0.041336 -0.007716 -0.014301
v 0.065337 -0.009683 -0.016662
v 0.046456 -0.007716 -0.017056
f 890 879 891 
f 878 880 881 
f 882 879 883 
f 882 881 884 
f 879 882 884 
f 878 881 885 
f 881 882 885 
f 880 878 886 
f 880 879 887 
f 879 884 887 
f 884 881 887 
f 882 883 888 
f 878 885 888 
f 885 882 888 
f 886 878 888 
f 883 886 888 
f 881 880 889 
f 880 887 889 
f 887 881 889 
f 883 879 890 
f 886 883 890 
f 886 890 891 
f 879 880 891 
f 880 886 891 
o convex_36
v 0.068092 -0.000240 -0.008401
v 0.041336 -0.007716 -0.017056
v 0.041336 -0.007716 -0.014301
v 0.041336 -0.000240 -0.017056
v 0.064155 -0.007716 -0.016663
v 0.045273 -0.007716 -0.008400
v 0.043699 -0.000240 -0.008400
v 0.068092 -0.007716 -0.008401
v 0.061796 -0.000240 -0.016662
v 0.067696 -0.000240 -0.013908
v 0.041336 -0.005354 -0.010762
v 0.068092 -0.007716 -0.011943
v 0.041336 -0.000240 -0.010762
v 0.053926 -0.000240 -0.017056
v 0.043306 -0.002208 -0.008400
v 0.046847 -0.007716 -0.017056
v 0.068092 -0.000240 -0.012336
f 903 901 908 
f 893 894 895 
f 894 893 896 
f 894 896 897 
f 892 895 898 
f 897 892 898 
f 892 897 899 
f 897 896 899 
f 895 892 900 
f 896 900 901 
f 900 892 901 
f 895 894 902 
f 894 897 902 
f 892 899 903 
f 899 896 903 
f 896 901 903 
f 898 895 904 
f 895 902 904 
f 893 895 905 
f 895 900 905 
f 900 896 905 
f 897 898 906 
f 902 897 906 
f 898 904 906 
f 904 902 906 
f 896 893 907 
f 893 905 907 
f 905 896 907 
f 901 892 908 
f 892 903 908 
o convex_37
v 0.041730 -0.011650 0.008125
v 0.050386 -0.006536 0.008518
v 0.050386 -0.006930 0.009698
v 0.033074 -0.009289 0.007731
v 0.049989 -0.011256 0.006945
v 0.049989 -0.010077 0.010092
v 0.045663 -0.006536 0.006945
v 0.041730 -0.010077 0.010092
v 0.033074 -0.009683 0.006945
v 0.045663 -0.006930 0.009698
v 0.050386 -0.006536 0.006945
v 0.049989 -0.011256 0.009305
v 0.041730 -0.011256 0.009305
v 0.033472 -0.009683 0.008125
v 0.041730 -0.011256 0.006945
v 0.050386 -0.008109 0.010092
v 0.041730 -0.009289 0.010092
v 0.045663 -0.006536 0.008518
v 0.049991 -0.011650 0.008518
f 924 920 927 
f 912 915 917 
f 915 913 917 
f 911 910 918 
f 910 911 919 
f 915 910 919 
f 913 915 919 
f 914 916 920 
f 920 916 921 
f 917 909 922 
f 912 917 922 
f 918 912 922 
f 921 916 922 
f 909 921 922 
f 913 909 923 
f 909 917 923 
f 917 913 923 
f 916 914 924 
f 911 918 924 
f 919 911 924 
f 913 919 924 
f 914 920 924 
f 918 922 925 
f 922 916 925 
f 916 924 925 
f 924 918 925 
f 910 915 926 
f 915 912 926 
f 918 910 926 
f 912 918 926 
f 909 913 927 
f 920 921 927 
f 921 909 927 
f 913 924 927 
o convex_38
v 0.030320 -0.001027 -0.000531
v 0.033860 0.008810 0.006945
v 0.033073 0.008810 0.006945
v 0.029926 -0.001027 0.006945
v 0.035434 -0.001027 0.003402
v 0.031107 0.008810 -0.000531
v 0.034254 0.008810 -0.000531
v 0.034254 -0.001027 -0.000531
v 0.034254 -0.001027 0.006945
v 0.035434 0.008810 0.004976
v 0.030713 0.004874 0.006945
v 0.035434 -0.000633 0.000650
v 0.029926 0.000547 -0.000531
v 0.035434 0.008810 0.001437
v 0.035434 0.001334 0.005763
v 0.031107 0.008810 0.002617
v 0.029926 0.000547 0.006945
v 0.034647 0.007628 0.006551
f 942 937 945 
f 929 930 931 
f 931 928 932 
f 930 929 933 
f 928 933 934 
f 933 929 934 
f 932 928 935 
f 928 934 935 
f 929 931 936 
f 931 932 936 
f 934 929 937 
f 931 930 938 
f 932 935 939 
f 935 934 939 
f 937 932 939 
f 928 931 940 
f 933 928 940 
f 934 937 941 
f 939 934 941 
f 937 939 941 
f 936 932 942 
f 932 937 942 
f 930 933 943 
f 938 930 943 
f 933 940 943 
f 943 940 944 
f 931 938 944 
f 940 931 944 
f 938 943 944 
f 929 936 945 
f 937 929 945 
f 936 942 945 
o convex_39
v 0.029928 0.000547 0.006945
v 0.033859 0.008810 0.008519
v 0.033859 0.008810 0.006945
v 0.036221 -0.001027 0.010092
v 0.025991 0.005661 0.010879
v 0.025991 -0.001027 0.010879
v 0.025991 0.006055 0.007338
v 0.036221 0.005268 0.010879
v 0.034254 -0.001027 0.006945
v 0.025991 -0.001027 0.007338
v 0.036221 -0.001027 0.010879
v 0.036221 0.005268 0.010092
v 0.033859 0.006055 0.010879
v 0.033073 0.008810 0.008519
f 950 958 959 
f 951 950 952 
f 948 946 952 
f 948 947 953 
f 950 951 953 
f 946 948 954 
f 949 951 954 
f 954 951 955 
f 951 952 955 
f 952 946 955 
f 946 954 955 
f 951 949 956 
f 949 953 956 
f 953 951 956 
f 948 953 957 
f 953 949 957 
f 954 948 957 
f 949 954 957 
f 953 947 958 
f 950 953 958 
f 947 948 959 
f 952 950 959 
f 948 952 959 
f 958 947 959 
o convex_40
v 0.042517 0.005267 0.009697
v 0.041730 -0.001027 -0.000531
v 0.044091 -0.001027 -0.000531
v 0.044091 0.006449 -0.000531
v 0.044091 -0.001027 0.009304
v 0.041336 -0.001027 0.010879
v 0.041336 0.005267 0.007731
v 0.041730 0.003301 -0.000531
v 0.044091 0.006842 0.004584
v 0.041336 0.005267 0.010485
v 0.043697 0.000940 0.010092
v 0.041336 -0.001027 0.004191
v 0.044091 0.005267 0.006944
v 0.043697 0.006449 -0.000531
v 0.042910 0.000940 0.010879
f 970 960 974 
f 962 961 963 
f 961 962 964 
f 962 963 964 
f 961 964 965 
f 963 961 967 
f 964 963 968 
f 968 966 969 
f 966 965 969 
f 960 968 969 
f 961 965 971 
f 965 966 971 
f 967 961 971 
f 966 967 971 
f 968 960 972 
f 964 968 972 
f 970 964 972 
f 960 970 972 
f 963 967 973 
f 967 966 973 
f 968 963 973 
f 966 968 973 
f 965 964 974 
f 960 969 974 
f 969 965 974 
f 964 970 974 
o convex_41
v 0.031106 0.008810 0.002617
v 0.039367 0.010383 0.006551
v 0.039367 0.009597 0.006551
v 0.039367 0.010777 -0.000531
v 0.031106 0.011170 0.002617
v 0.033075 0.009203 0.008125
v 0.038974 0.008810 -0.000531
v 0.031106 0.011170 -0.000531
v 0.038974 0.008810 0.007337
v 0.031106 0.008810 -0.000531
v 0.038974 0.011170 0.004976
v 0.033468 0.010777 0.006551
v 0.038974 0.011170 -0.000531
v 0.033075 0.008810 0.008125
f 975 983 988 
f 976 977 978 
f 979 975 980 
f 978 977 981 
f 975 979 982 
f 978 981 982 
f 977 976 983 
f 976 980 983 
f 981 977 983 
f 975 981 983 
f 981 975 984 
f 975 982 984 
f 982 981 984 
f 976 978 985 
f 982 979 985 
f 980 976 986 
f 979 980 986 
f 976 985 986 
f 985 979 986 
f 978 982 987 
f 985 978 987 
f 982 985 987 
f 980 975 988 
f 983 980 988 
o convex_42
v 0.045664 -0.006929 0.009698
v 0.040550 -0.005354 0.008912
v 0.041730 -0.009290 0.006945
v 0.045270 -0.001027 0.006945
v 0.040550 -0.001027 0.011666
v 0.041730 -0.001027 0.006945
v 0.041730 -0.009290 0.010091
v 0.045664 -0.009290 0.006945
v 0.045664 -0.009290 0.010091
v 0.041730 -0.001027 0.011666
v 0.040550 -0.001027 0.008912
v 0.040550 -0.005354 0.010879
f 997 998 1000 
f 991 990 994 
f 992 991 994 
f 993 992 994 
f 990 991 995 
f 991 992 996 
f 992 989 996 
f 995 991 996 
f 995 996 997 
f 996 989 997 
f 989 992 998 
f 992 993 998 
f 997 989 998 
f 990 993 999 
f 994 990 999 
f 993 994 999 
f 993 990 1000 
f 990 995 1000 
f 995 997 1000 
f 998 993 1000 
o convex_43
v 0.025204 -0.011257 -0.014696
v 0.041336 -0.000240 -0.011942
v 0.041336 -0.005356 -0.011942
v 0.040548 -0.000634 -0.017449
v 0.025992 -0.000240 -0.011942
v 0.025204 -0.000240 -0.017843
v 0.041336 -0.011257 -0.017055
v 0.036220 -0.011257 -0.011942
v 0.025204 -0.011257 -0.017843
v 0.025992 -0.005356 -0.011942
v 0.040548 -0.011257 -0.011942
v 0.041336 -0.000240 -0.017055
v 0.039762 -0.006928 -0.017449
v 0.033075 -0.011257 -0.012336
v 0.025599 -0.002602 -0.011942
v 0.041336 -0.011257 -0.012730
v 0.025204 -0.000240 -0.015089
v 0.026387 -0.011257 -0.017843
f 1013 1007 1018 
f 1003 1002 1005 
f 1005 1002 1006 
f 1002 1003 1007 
f 1003 1005 1008 
f 1001 1007 1008 
f 1001 1006 1009 
f 1007 1001 1009 
f 1008 1005 1010 
f 1003 1008 1011 
f 1008 1007 1011 
f 1006 1002 1012 
f 1004 1006 1012 
f 1002 1007 1012 
f 1007 1004 1012 
f 1004 1007 1013 
f 1001 1008 1014 
f 1010 1001 1014 
f 1008 1010 1014 
f 1001 1010 1015 
f 1010 1005 1015 
f 1007 1003 1016 
f 1003 1011 1016 
f 1011 1007 1016 
f 1005 1006 1017 
f 1006 1001 1017 
f 1015 1005 1017 
f 1001 1015 1017 
f 1006 1004 1018 
f 1009 1006 1018 
f 1007 1009 1018 
f 1004 1013 1018 
o convex_44
v 0.029927 -0.009289 -0.008400
v 0.041336 -0.000241 -0.011154
v 0.041336 -0.000241 -0.011941
v 0.025598 -0.000241 -0.010761
v 0.025992 -0.005747 -0.011941
v 0.038973 -0.000241 -0.008400
v 0.038580 -0.009683 -0.009581
v 0.025992 -0.000241 -0.008400
v 0.041336 -0.005355 -0.011941
v 0.038580 -0.010076 -0.008400
v 0.025598 -0.006535 -0.008400
v 0.025992 -0.000241 -0.011941
v 0.030714 -0.007716 -0.011547
v 0.034646 -0.006928 -0.011941
v 0.028352 -0.008896 -0.008795
v 0.041336 -0.005355 -0.011154
f 1024 1028 1034 
f 1020 1021 1022 
f 1020 1022 1024 
f 1019 1024 1026 
f 1024 1022 1026 
f 1021 1020 1027 
f 1023 1021 1027 
f 1025 1027 1028 
f 1024 1019 1028 
f 1019 1025 1028 
f 1022 1023 1029 
f 1019 1026 1029 
f 1026 1022 1029 
f 1022 1021 1030 
f 1023 1022 1030 
f 1021 1023 1030 
f 1023 1027 1032 
f 1027 1025 1032 
f 1031 1023 1032 
f 1025 1031 1032 
f 1025 1019 1033 
f 1019 1029 1033 
f 1029 1023 1033 
f 1023 1031 1033 
f 1031 1025 1033 
f 1020 1024 1034 
f 1027 1020 1034 
f 1028 1027 1034 
o convex_45
v 0.061010 -0.000240 -0.013122
v 0.062583 0.005268 -0.008007
v 0.062583 0.006842 -0.008008
v 0.064157 -0.000240 -0.013122
v 0.064157 -0.000240 -0.008401
v 0.064157 0.005268 -0.012335
v 0.061010 -0.000240 -0.009582
v 0.061010 0.005268 -0.011941
v 0.064157 0.005268 -0.009188
v 0.062190 -0.000240 -0.008007
v 0.061010 0.005268 -0.009582
v 0.062190 0.006842 -0.011154
f 1045 1037 1046 
f 1035 1038 1039 
f 1037 1036 1039 
f 1038 1035 1040 
f 1039 1038 1040 
f 1035 1039 1041 
f 1040 1035 1042 
f 1035 1041 1042 
f 1037 1039 1043 
f 1040 1037 1043 
f 1039 1040 1043 
f 1036 1037 1044 
f 1039 1036 1044 
f 1041 1039 1044 
f 1041 1044 1045 
f 1042 1041 1045 
f 1044 1037 1045 
f 1042 1045 1046 
f 1037 1040 1046 
f 1040 1042 1046 
o convex_46
v 0.058254 0.006843 -0.008007
v 0.046452 0.008416 -0.012335
v 0.046452 0.008810 -0.012335
v 0.045272 0.006843 -0.008007
v 0.059042 0.005269 -0.011548
v 0.058254 0.008810 -0.008007
v 0.044484 0.005269 -0.011548
v 0.057859 0.008810 -0.011154
v 0.058254 0.005269 -0.008794
v 0.045667 0.008810 -0.008007
v 0.045272 0.005269 -0.008794
v 0.058254 0.008022 -0.011548
v 0.045667 0.008810 -0.011548
f 1053 1056 1059 
f 1048 1049 1051 
f 1050 1047 1052 
f 1047 1051 1052 
f 1049 1048 1053 
f 1048 1051 1053 
f 1049 1052 1054 
f 1047 1050 1055 
f 1051 1047 1055 
f 1053 1051 1055 
f 1052 1049 1056 
f 1050 1052 1056 
f 1053 1050 1056 
f 1050 1053 1057 
f 1055 1050 1057 
f 1053 1055 1057 
f 1051 1049 1058 
f 1052 1051 1058 
f 1049 1054 1058 
f 1054 1052 1058 
f 1049 1053 1059 
f 1056 1049 1059 
o convex_47
v 0.017730 -0.009290 0.011666
v 0.025598 -0.002994 0.011666
v 0.025598 -0.002994 0.006945
v 0.024810 -0.009290 0.006945
v 0.023236 -0.009290 0.011666
v 0.020090 -0.003388 0.011666
v 0.021664 -0.008896 0.006945
v 0.023629 -0.003388 0.006945
v 0.025598 -0.007321 0.008912
v 0.017730 -0.008896 0.011272
v 0.025204 -0.005749 0.011666
f 1064 1068 1070 
f 1060 1063 1064 
f 1061 1060 1064 
f 1060 1061 1065 
f 1061 1062 1065 
f 1062 1063 1066 
f 1063 1060 1066 
f 1065 1062 1067 
f 1062 1066 1067 
f 1062 1061 1068 
f 1063 1062 1068 
f 1064 1063 1068 
f 1060 1065 1069 
f 1066 1060 1069 
f 1065 1067 1069 
f 1067 1066 1069 
f 1061 1064 1070 
f 1068 1061 1070 
o convex_48
v 0.037008 -0.013224 0.007338
v 0.068482 -0.011257 0.007731
v 0.070452 -0.014404 0.008125
v 0.068482 -0.013224 0.006945
v 0.041735 -0.011257 0.008125
v 0.037008 -0.011257 0.006945
v 0.051963 -0.014404 0.006945
v 0.068482 -0.011257 0.006945
v 0.062975 -0.014798 0.008125
v 0.070056 -0.014798 0.007338
v 0.038190 -0.013224 0.007731
v 0.037008 -0.013224 0.006945
v 0.049995 -0.011257 0.008125
f 1072 1075 1083 
f 1075 1072 1076 
f 1076 1074 1077 
f 1072 1073 1078 
f 1076 1072 1078 
f 1074 1076 1078 
f 1073 1075 1079 
f 1079 1077 1080 
f 1077 1074 1080 
f 1078 1073 1080 
f 1074 1078 1080 
f 1073 1079 1080 
f 1075 1076 1081 
f 1076 1071 1081 
f 1071 1077 1081 
f 1079 1075 1081 
f 1077 1079 1081 
f 1071 1076 1082 
f 1077 1071 1082 
f 1076 1077 1082 
f 1073 1072 1083 
f 1075 1073 1083 
o convex_49
v 0.049995 -0.004175 0.011666
v 0.065336 -0.001027 0.011273
v 0.065336 -0.005354 0.011273
v 0.061794 -0.001027 0.010092
v 0.049602 -0.009290 0.010879
v 0.050781 -0.001027 0.010879
v 0.065336 -0.005354 0.010092
v 0.061008 -0.009290 0.011666
v 0.059434 -0.001027 0.011666
v 0.049206 -0.009290 0.011666
v 0.060613 -0.009290 0.010879
v 0.050781 -0.001027 0.011666
v 0.065336 -0.001027 0.010092
v 0.062581 -0.005354 0.010092
f 1090 1088 1097 
f 1085 1087 1089 
f 1087 1088 1089 
f 1085 1086 1090 
f 1086 1085 1091 
f 1090 1086 1091 
f 1085 1089 1092 
f 1091 1085 1092 
f 1084 1091 1092 
f 1084 1089 1093 
f 1089 1088 1093 
f 1088 1091 1093 
f 1091 1084 1093 
f 1088 1090 1094 
f 1091 1088 1094 
f 1090 1091 1094 
f 1089 1084 1095 
f 1092 1089 1095 
f 1084 1092 1095 
f 1087 1085 1096 
f 1085 1090 1096 
f 1090 1087 1096 
f 1088 1087 1097 
f 1087 1090 1097 
o convex_50
v 0.036615 -0.000239 0.003011
v 0.038976 0.008416 0.008125
v 0.041336 0.008416 0.002224
v 0.036615 0.008810 -0.000531
v 0.040549 -0.001027 -0.000531
v 0.038976 -0.001027 0.008125
v 0.036615 0.002122 0.007731
v 0.040549 -0.001027 0.005763
v 0.041336 0.008416 -0.000531
v 0.036615 0.000547 -0.000531
v 0.037796 0.008810 0.007337
v 0.041336 0.003302 -0.000531
v 0.037796 -0.001027 -0.000531
v 0.036615 -0.000239 0.007731
v 0.036615 0.008810 0.002617
v 0.037796 0.008021 0.008125
v 0.041336 0.003302 0.002224
f 1105 1109 1114 
f 1101 1098 1104 
f 1100 1099 1105 
f 1103 1102 1105 
f 1099 1103 1105 
f 1102 1101 1106 
f 1098 1101 1107 
f 1101 1102 1107 
f 1099 1100 1108 
f 1100 1106 1108 
f 1106 1101 1108 
f 1105 1102 1109 
f 1106 1100 1109 
f 1102 1106 1109 
f 1102 1103 1110 
f 1098 1107 1110 
f 1107 1102 1110 
f 1104 1098 1111 
f 1110 1103 1111 
f 1098 1110 1111 
f 1101 1104 1112 
f 1108 1101 1112 
f 1108 1112 1113 
f 1103 1099 1113 
f 1099 1108 1113 
f 1104 1111 1113 
f 1111 1103 1113 
f 1112 1104 1113 
f 1100 1105 1114 
f 1109 1100 1114 
o convex_51
v 0.038975 0.007629 0.008519
v 0.036222 -0.001027 0.010092
v 0.037009 0.002909 0.008912
v 0.041336 -0.001027 0.008519
v 0.041336 0.005267 0.010879
v 0.036222 0.005267 0.010879
v 0.041336 -0.001027 0.010879
v 0.038189 -0.001027 0.008125
v 0.041336 0.005267 0.008519
v 0.037796 0.008023 0.008125
v 0.036222 -0.001027 0.010879
f 1121 1120 1125 
f 1117 1116 1120 
f 1116 1118 1121 
f 1118 1119 1121 
f 1119 1120 1121 
f 1116 1117 1122 
f 1118 1116 1122 
f 1118 1122 1123 
f 1115 1119 1123 
f 1119 1118 1123 
f 1119 1115 1124 
f 1120 1119 1124 
f 1117 1120 1124 
f 1122 1117 1124 
f 1123 1122 1124 
f 1115 1123 1124 
f 1120 1116 1125 
f 1116 1121 1125 
o convex_52
v 0.018123 -0.010470 -0.014696
v 0.013795 -0.000240 -0.012729
v 0.013795 -0.000240 -0.013909
v 0.024811 -0.003388 -0.011942
v 0.013401 -0.010470 -0.011942
v 0.021661 -0.003388 -0.014696
v 0.022057 -0.011257 -0.011942
v 0.013401 -0.010470 -0.014696
v 0.013401 -0.000634 -0.014696
v 0.020875 -0.011257 -0.013515
v 0.020089 -0.003388 -0.011942
v 0.022842 -0.004175 -0.014302
v 0.014976 -0.011257 -0.014696
v 0.024811 -0.004569 -0.012335
v 0.014976 -0.011257 -0.011942
v 0.013401 -0.008108 -0.011942
v 0.022842 -0.003388 -0.014302
f 1139 1137 1142 
f 1128 1127 1129 
f 1129 1130 1132 
f 1131 1126 1133 
f 1131 1133 1134 
f 1127 1128 1134 
f 1133 1130 1134 
f 1129 1127 1136 
f 1130 1129 1136 
f 1126 1131 1137 
f 1135 1126 1137 
f 1130 1133 1138 
f 1133 1126 1138 
f 1126 1135 1138 
f 1135 1132 1138 
f 1129 1132 1139 
f 1132 1135 1139 
f 1135 1137 1139 
f 1132 1130 1140 
f 1130 1138 1140 
f 1138 1132 1140 
f 1127 1134 1141 
f 1134 1130 1141 
f 1136 1127 1141 
f 1130 1136 1141 
f 1128 1129 1142 
f 1131 1134 1142 
f 1134 1128 1142 
f 1137 1131 1142 
f 1129 1139 1142 
o convex_53
v 0.019303 -0.010470 -0.008400
v 0.013401 -0.010470 -0.011941
v 0.013401 -0.008109 -0.011941
v 0.019303 -0.009683 -0.011941
v 0.019303 -0.011257 -0.011941
v 0.016941 -0.011257 -0.008400
v 0.013401 -0.008109 -0.010761
v 0.014976 -0.011257 -0.009581
f 1149 1144 1150 
f 1144 1145 1146 
f 1146 1143 1147 
f 1144 1146 1147 
f 1147 1143 1148 
f 1145 1144 1149 
f 1146 1145 1149 
f 1143 1146 1149 
f 1148 1143 1149 
f 1148 1149 1150 
f 1144 1147 1150 
f 1147 1148 1150 
o convex_54
v 0.025204 -0.002994 -0.011941
v 0.019303 -0.011257 -0.011941
v 0.022058 -0.011257 -0.011941
v 0.023237 -0.003388 -0.008400
v 0.023630 -0.010863 -0.008400
v 0.019303 -0.011257 -0.008400
v 0.020876 -0.003781 -0.011941
v 0.025598 -0.006930 -0.008400
v 0.025598 -0.002994 -0.008400
v 0.025598 -0.005356 -0.011154
v 0.019303 -0.008502 -0.011547
v 0.019303 -0.010470 -0.008400
f 1161 1156 1162 
f 1153 1152 1151 
f 1152 1153 1156 
f 1155 1154 1156 
f 1153 1155 1156 
f 1151 1152 1157 
f 1154 1151 1157 
f 1154 1155 1158 
f 1151 1154 1159 
f 1154 1158 1159 
f 1159 1158 1160 
f 1153 1151 1160 
f 1155 1153 1160 
f 1158 1155 1160 
f 1151 1159 1160 
f 1152 1156 1161 
f 1157 1152 1161 
f 1157 1161 1162 
f 1156 1154 1162 
f 1154 1157 1162 
o convex_55
v 0.042125 -0.000240 -0.010368
v 0.061009 0.005269 -0.009975
v 0.061009 0.004481 -0.009581
v 0.061009 -0.000240 -0.013121
v 0.042125 0.005269 -0.012334
v 0.044487 -0.000240 -0.008007
v 0.045275 0.005269 -0.008794
v 0.060614 -0.000240 -0.008794
v 0.042125 -0.000240 -0.013121
v 0.058251 0.004875 -0.013121
v 0.058251 0.005269 -0.008794
v 0.053924 0.001728 -0.008007
v 0.042125 0.005269 -0.010368
v 0.061009 0.005269 -0.011941
v 0.051955 0.004875 -0.013121
v 0.053924 -0.000240 -0.008007
v 0.050388 0.002121 -0.008007
f 1168 1174 1179 
f 1164 1165 1166 
f 1163 1166 1168 
f 1164 1167 1169 
f 1166 1165 1170 
f 1168 1166 1170 
f 1166 1163 1171 
f 1163 1167 1171 
f 1166 1171 1172 
f 1165 1164 1173 
f 1164 1169 1173 
f 1170 1165 1173 
f 1170 1173 1174 
f 1167 1163 1175 
f 1163 1168 1175 
f 1168 1169 1175 
f 1169 1167 1175 
f 1164 1166 1176 
f 1167 1164 1176 
f 1172 1167 1176 
f 1166 1172 1176 
f 1171 1167 1177 
f 1167 1172 1177 
f 1172 1171 1177 
f 1168 1170 1178 
f 1170 1174 1178 
f 1174 1168 1178 
f 1169 1168 1179 
f 1173 1169 1179 
f 1174 1173 1179 
o convex_56
v 0.021269 -0.005356 -0.018237
v 0.016156 -0.011257 -0.018237
v 0.016156 -0.011257 -0.016663
v 0.025204 -0.011257 -0.017843
v 0.021662 -0.000240 -0.015876
v 0.025204 -0.011257 -0.015876
v 0.025204 -0.000240 -0.017843
v 0.021662 -0.000240 -0.017843
v 0.025204 -0.000240 -0.015876
v 0.016550 -0.011257 -0.015876
v 0.021662 -0.008895 -0.018237
v 0.016156 -0.010863 -0.016663
f 1189 1184 1191 
f 1182 1181 1183 
f 1182 1183 1185 
f 1185 1183 1186 
f 1184 1186 1187 
f 1180 1181 1187 
f 1186 1180 1187 
f 1184 1185 1188 
f 1185 1186 1188 
f 1186 1184 1188 
f 1182 1185 1189 
f 1185 1184 1189 
f 1181 1180 1190 
f 1183 1181 1190 
f 1186 1183 1190 
f 1180 1186 1190 
f 1181 1182 1191 
f 1184 1187 1191 
f 1187 1181 1191 
f 1182 1189 1191 
o convex_57
v 0.041735 -0.012437 0.010486
v 0.037799 -0.014798 0.008125
v 0.030721 -0.014798 0.008518
v 0.072416 -0.014798 0.010486
v 0.069264 -0.014011 0.008125
v 0.030721 -0.014798 0.010486
v 0.068480 -0.012831 0.010486
v 0.031505 -0.013617 0.008912
v 0.070840 -0.014798 0.008125
v 0.042126 -0.012831 0.009305
v 0.068085 -0.012831 0.009698
v 0.031901 -0.012831 0.010486
v 0.030721 -0.014011 0.008518
f 1203 1199 1204 
f 1194 1193 1195 
f 1194 1195 1197 
f 1195 1192 1197 
f 1192 1195 1198 
f 1195 1193 1200 
f 1193 1196 1200 
f 1192 1198 1202 
f 1198 1195 1202 
f 1195 1200 1202 
f 1200 1196 1202 
f 1201 1192 1202 
f 1196 1201 1202 
f 1197 1192 1203 
f 1192 1201 1203 
f 1201 1199 1203 
f 1193 1194 1204 
f 1196 1193 1204 
f 1194 1197 1204 
f 1201 1196 1204 
f 1199 1201 1204 
f 1197 1203 1204 
o convex_58
v 0.048421 -0.004567 0.006945
v 0.065337 -0.001027 0.010092
v 0.065337 -0.005355 0.010092
v 0.046845 -0.001027 0.010092
v 0.061795 -0.001027 0.006945
v 0.065337 -0.007716 0.007338
v 0.048814 -0.004961 0.010092
v 0.046845 -0.001027 0.006945
v 0.063763 -0.007716 0.009698
v 0.048814 -0.004961 0.006945
v 0.061795 -0.005355 0.006945
v 0.063763 -0.007716 0.007338
v 0.065337 -0.001027 0.009698
f 1210 1209 1217 
f 1207 1206 1208 
f 1208 1206 1209 
f 1206 1207 1210 
f 1207 1208 1211 
f 1208 1205 1211 
f 1205 1208 1212 
f 1209 1205 1212 
f 1208 1209 1212 
f 1210 1207 1213 
f 1207 1211 1213 
f 1213 1211 1214 
f 1205 1209 1214 
f 1211 1205 1214 
f 1209 1210 1215 
f 1214 1209 1215 
f 1210 1213 1216 
f 1213 1214 1216 
f 1215 1210 1216 
f 1214 1215 1216 
f 1209 1206 1217 
f 1206 1210 1217 
o convex_59
v 0.016550 -0.010470 -0.015876
v 0.025204 -0.000240 -0.015089
v 0.025204 -0.000240 -0.015876
v 0.013401 -0.000634 -0.014696
v 0.025204 -0.011257 -0.014696
v 0.013401 -0.010470 -0.014696
v 0.013401 -0.000634 -0.015483
v 0.025204 -0.011257 -0.015876
v 0.013401 -0.010470 -0.015483
v 0.014977 -0.011257 -0.015089
v 0.020088 -0.002995 -0.014696
v 0.021663 -0.000240 -0.015876
f 1224 1221 1229 
f 1220 1219 1222 
f 1222 1221 1223 
f 1223 1221 1224 
f 1218 1220 1225 
f 1220 1222 1225 
f 1224 1218 1226 
f 1223 1224 1226 
f 1222 1223 1227 
f 1218 1225 1227 
f 1225 1222 1227 
f 1223 1226 1227 
f 1226 1218 1227 
f 1219 1221 1228 
f 1221 1222 1228 
f 1222 1219 1228 
f 1220 1218 1229 
f 1219 1220 1229 
f 1221 1219 1229 
f 1218 1224 1229 
