o convex_0
v 0.009158 -0.014675 -0.008914
v -0.005373 -0.010484 -0.014502
v -0.005373 -0.010204 -0.014502
v -0.003136 -0.015235 -0.008355
v 0.008599 -0.011882 -0.008635
v 0.009437 -0.012720 -0.013663
v -0.010126 -0.010204 -0.011428
v 0.009437 -0.010204 -0.013943
v -0.002577 -0.013836 -0.013105
v 0.009437 -0.010204 -0.011150
v -0.008169 -0.011602 -0.013105
v 0.003289 -0.012440 -0.008355
v 0.000493 -0.014675 -0.011428
v -0.001738 -0.012161 -0.014502
v 0.009437 -0.014675 -0.008355
v 0.008319 -0.013836 -0.012546
v 0.000772 -0.015514 -0.008914
v -0.005930 -0.013557 -0.011707
v 0.000772 -0.013836 -0.013384
v 0.003289 -0.010484 -0.014502
v -0.008448 -0.012161 -0.011428
v -0.002577 -0.014396 -0.008355
v -0.003416 -0.014955 -0.010032
v -0.003416 -0.012998 -0.013943
v 0.009437 -0.012161 -0.008355
v -0.009287 -0.010204 -0.013105
v 0.009437 -0.012161 -0.013943
v 0.001891 -0.013278 -0.013943
v 0.009437 -0.013836 -0.012267
f 1 17 29 
f 3 7 8 
f 7 5 10 
f 8 7 10 
f 6 8 10 
f 5 7 12 
f 2 3 14 
f 6 10 15 
f 12 4 15 
f 13 16 17 
f 1 15 17 
f 15 4 17 
f 13 9 19 
f 16 13 19 
f 3 8 20 
f 14 3 20 
f 4 7 21 
f 7 11 21 
f 18 4 21 
f 11 18 21 
f 7 4 22 
f 4 12 22 
f 12 7 22 
f 9 13 23 
f 13 17 23 
f 17 4 23 
f 4 18 23 
f 18 9 23 
f 11 2 24 
f 2 14 24 
f 9 18 24 
f 18 11 24 
f 19 9 24 
f 10 5 25 
f 5 12 25 
f 15 10 25 
f 12 15 25 
f 3 2 26 
f 7 3 26 
f 2 11 26 
f 11 7 26 
f 8 6 27 
f 20 8 27 
f 14 20 27 
f 6 16 28 
f 16 19 28 
f 24 14 28 
f 19 24 28 
f 27 6 28 
f 14 27 28 
f 15 1 29 
f 6 15 29 
f 16 6 29 
f 17 16 29 
o convex_1
v 0.051355 -0.004893 -0.010311
v 0.012794 0.012433 -0.010311
v 0.012794 0.012433 -0.010590
v 0.009442 -0.014117 -0.010311
v 0.009442 -0.000704 -0.015062
v 0.045210 0.008239 -0.013105
v 0.043252 -0.009364 -0.013105
v 0.009442 0.010754 -0.013664
v 0.042971 0.011872 -0.010591
v 0.009442 -0.012719 -0.013664
v 0.040175 -0.012438 -0.010311
v 0.049120 0.003766 -0.013105
v 0.049680 0.007680 -0.010311
v 0.009442 0.012433 -0.011149
v 0.039338 0.002090 -0.013944
v 0.042415 0.011032 -0.012546
v 0.048559 -0.006570 -0.012826
v 0.009718 0.008239 -0.014223
v 0.041017 -0.011599 -0.012267
v 0.041293 -0.005172 -0.013664
v 0.010835 -0.011879 -0.013944
v 0.046604 -0.010481 -0.010870
v 0.018382 -0.013555 -0.011988
v 0.051635 0.000413 -0.011988
v 0.009998 0.012152 -0.012547
v 0.040736 0.008239 -0.013385
v 0.009718 0.009634 -0.010311
v 0.048839 0.007680 -0.012267
v 0.041573 0.012152 -0.010870
v 0.010559 -0.000145 -0.015062
v 0.051635 0.003766 -0.010591
v 0.048839 -0.004054 -0.013105
v 0.041573 0.009915 -0.013105
v 0.042971 0.011313 -0.010311
v 0.018101 -0.001258 -0.014782
v 0.050237 -0.005730 -0.012267
v 0.046328 -0.009922 -0.012267
v 0.046048 0.010754 -0.010870
v 0.049680 -0.007687 -0.010311
v 0.040456 0.005723 -0.013664
v 0.044089 -0.000423 -0.013664
v 0.038221 -0.003215 -0.013944
v 0.040736 -0.010762 -0.012826
v 0.009442 -0.013834 -0.012268
v 0.019499 -0.013836 -0.010591
v 0.052196 -0.000980 -0.010311
v 0.039058 -0.012438 -0.011150
v 0.011957 -0.012994 -0.013384
v 0.009718 -0.009644 -0.014223
v 0.009442 0.012433 -0.011988
v 0.051355 -0.000980 -0.012267
v 0.041293 0.011591 -0.011988
v 0.009998 0.009917 -0.013944
v 0.009998 0.011313 -0.013384
v 0.042971 -0.011879 -0.010311
v 0.049957 -0.007407 -0.010870
v 0.032353 -0.012157 -0.012546
v 0.051074 0.004886 -0.011150
v 0.050237 0.002090 -0.012826
v 0.051635 -0.004332 -0.010591
v 0.009718 -0.004051 -0.014782
v 0.032909 -0.000704 -0.014223
f 71 64 91 
f 34 33 37 
f 33 34 39 
f 31 32 43 
f 37 33 43 
f 34 37 47 
f 49 36 50 
f 31 43 56 
f 43 33 56 
f 41 35 57 
f 35 45 57 
f 32 31 58 
f 31 38 58 
f 38 45 58 
f 34 47 59 
f 46 36 61 
f 36 49 61 
f 45 35 62 
f 35 55 62 
f 55 47 62 
f 38 31 63 
f 30 42 63 
f 42 38 63 
f 31 56 63 
f 56 33 63 
f 34 59 64 
f 46 61 65 
f 36 46 66 
f 51 48 66 
f 46 65 66 
f 38 42 67 
f 45 38 67 
f 42 57 67 
f 57 45 67 
f 30 63 68 
f 35 41 69 
f 41 44 69 
f 55 35 69 
f 47 55 69 
f 59 47 69 
f 44 59 69 
f 44 41 70 
f 41 61 70 
f 61 49 70 
f 49 64 71 
f 44 70 71 
f 70 49 71 
f 39 50 72 
f 50 36 72 
f 36 66 72 
f 66 48 72 
f 33 39 73 
f 73 52 74 
f 40 33 74 
f 33 73 74 
f 42 30 75 
f 60 42 75 
f 53 60 75 
f 74 52 76 
f 40 74 76 
f 39 72 77 
f 73 39 77 
f 52 73 77 
f 39 34 78 
f 50 39 78 
f 49 50 78 
f 43 32 79 
f 37 43 79 
f 54 37 79 
f 32 58 79 
f 58 54 79 
f 65 61 80 
f 53 75 80 
f 45 54 81 
f 58 45 81 
f 54 58 81 
f 47 37 82 
f 37 62 82 
f 62 47 82 
f 37 54 83 
f 54 45 83 
f 45 62 83 
f 62 37 83 
f 33 40 84 
f 48 51 84 
f 63 33 84 
f 51 68 84 
f 68 63 84 
f 40 76 84 
f 76 48 84 
f 51 66 85 
f 66 65 85 
f 68 51 85 
f 30 68 85 
f 72 48 86 
f 48 76 86 
f 76 52 86 
f 52 77 86 
f 77 72 86 
f 57 42 87 
f 42 60 87 
f 60 53 87 
f 41 57 88 
f 61 41 88 
f 53 80 88 
f 80 61 88 
f 57 87 88 
f 87 53 88 
f 75 30 89 
f 65 80 89 
f 80 75 89 
f 30 85 89 
f 85 65 89 
f 64 49 90 
f 34 64 90 
f 78 34 90 
f 49 78 90 
f 59 44 91 
f 64 59 91 
f 44 71 91 
o convex_2
v 0.009437 0.011871 -0.012826
v 0.002730 -0.010202 -0.014502
v 0.003848 -0.010202 -0.014502
v 0.009437 -0.010202 -0.011429
v 0.002730 0.006002 -0.011429
v 0.002730 0.011312 -0.014223
v 0.009437 -0.000701 -0.015061
v 0.009437 0.012429 -0.011150
v 0.003568 -0.010202 -0.011429
v 0.009437 -0.009920 -0.014223
v 0.002730 0.002091 -0.015061
v 0.004407 0.012990 -0.011709
v 0.009158 0.009635 -0.010870
v 0.009437 0.010195 -0.013943
v 0.002730 -0.010202 -0.011709
v 0.002730 0.012708 -0.013384
v 0.002730 -0.002935 -0.015061
v 0.003848 0.011033 -0.011429
v 0.003848 0.011312 -0.014223
v 0.002730 -0.006288 -0.011429
v 0.009437 0.008238 -0.010870
v 0.009437 -0.000141 -0.015061
v 0.008040 0.012708 -0.011988
v 0.008877 0.008797 -0.014223
v 0.009158 0.011871 -0.013105
f 107 114 116 
f 93 94 95 
f 93 96 97 
f 92 95 98 
f 95 92 99 
f 93 95 100 
f 95 94 101 
f 94 98 101 
f 98 95 101 
f 93 97 102 
f 92 98 105 
f 96 93 106 
f 93 100 106 
f 97 96 107 
f 94 93 108 
f 98 94 108 
f 93 102 108 
f 102 98 108 
f 99 103 109 
f 104 99 109 
f 96 104 109 
f 107 96 109 
f 103 107 109 
f 102 97 110 
f 97 107 110 
f 104 96 111 
f 96 106 111 
f 106 100 111 
f 95 99 112 
f 100 95 112 
f 99 104 112 
f 111 100 112 
f 104 111 112 
f 98 102 113 
f 105 98 113 
f 102 110 113 
f 99 92 114 
f 103 99 114 
f 107 103 114 
f 110 105 115 
f 105 113 115 
f 113 110 115 
f 92 105 116 
f 105 110 116 
f 110 107 116 
f 114 92 116 
o convex_3
v 0.020621 -0.014116 -0.008913
v 0.029836 -0.008528 -0.010031
v 0.029836 -0.008528 -0.010311
v 0.043250 -0.011881 -0.010031
v 0.041850 -0.010205 -0.008354
v 0.018384 -0.008808 -0.008354
v 0.009437 -0.014116 -0.010311
v 0.009437 -0.014675 -0.008354
v 0.009722 -0.011323 -0.010311
v 0.041850 -0.012440 -0.008354
v 0.040454 -0.012440 -0.010311
v 0.018384 -0.008528 -0.010311
v 0.009722 -0.011881 -0.008354
v 0.041850 -0.010484 -0.010311
v 0.029554 -0.008528 -0.008634
v 0.020062 -0.013836 -0.010311
v 0.018384 -0.008528 -0.008634
v 0.039894 -0.012719 -0.008354
f 127 126 134 
f 119 118 121 
f 121 122 124 
f 119 123 125 
f 120 121 126 
f 121 124 126 
f 123 119 127 
f 120 126 127 
f 118 119 128 
f 119 125 128 
f 124 122 129 
f 123 124 129 
f 125 123 129 
f 121 120 130 
f 119 121 130 
f 127 119 130 
f 120 127 130 
f 121 118 131 
f 122 121 131 
f 118 128 131 
f 124 123 132 
f 117 124 132 
f 123 127 132 
f 127 117 132 
f 128 125 133 
f 129 122 133 
f 125 129 133 
f 122 131 133 
f 131 128 133 
f 124 117 134 
f 126 124 134 
f 117 127 134 
o convex_4
v 0.013069 -0.011882 -0.007516
v -0.003139 -0.015234 -0.008354
v -0.003139 -0.014955 -0.008354
v -0.002300 -0.016073 0.000589
v 0.015027 -0.015514 -0.004721
v 0.015027 -0.012720 0.000589
v 0.003849 -0.012441 -0.008073
v 0.001612 -0.016911 0.000589
v 0.015027 -0.014396 -0.008354
v 0.014467 -0.015793 0.000589
v -0.000900 -0.016352 -0.006119
v 0.004409 -0.013838 0.000589
v 0.015027 -0.011882 -0.008354
v 0.000775 -0.015793 -0.008073
v -0.002300 -0.016631 -0.004161
v 0.000775 -0.013279 -0.008073
v 0.008039 -0.016352 -0.001647
v 0.000496 -0.016352 -0.006119
v -0.002300 -0.016631 0.000589
v 0.006641 -0.012161 -0.008354
v 0.014467 -0.012720 0.000589
v 0.015027 -0.015514 0.000589
v -0.002300 -0.014396 -0.008073
v 0.000496 -0.016911 -0.001088
v 0.014188 -0.015793 -0.003045
f 158 152 159 
f 137 136 138 
f 140 138 142 
f 136 137 143 
f 140 139 143 
f 140 142 144 
f 138 140 146 
f 135 140 147 
f 143 137 147 
f 140 143 147 
f 136 143 148 
f 143 139 148 
f 145 136 148 
f 136 145 149 
f 138 146 150 
f 146 141 150 
f 144 142 151 
f 148 139 152 
f 145 148 152 
f 149 145 152 
f 138 136 153 
f 142 138 153 
f 136 149 153 
f 135 147 154 
f 147 137 154 
f 137 150 154 
f 150 141 154 
f 140 135 155 
f 146 140 155 
f 141 146 155 
f 135 154 155 
f 154 141 155 
f 139 140 156 
f 144 139 156 
f 140 144 156 
f 137 138 157 
f 150 137 157 
f 138 150 157 
f 151 142 158 
f 149 152 158 
f 142 153 158 
f 153 149 158 
f 139 144 159 
f 144 151 159 
f 152 139 159 
f 151 158 159 
o convex_5
v 0.041295 -0.012998 0.000589
v 0.015028 -0.014396 -0.008354
v 0.015028 -0.014675 -0.007516
v 0.016147 -0.009366 0.000589
v 0.041855 -0.010205 -0.008354
v 0.015028 -0.015514 0.000589
v 0.018381 -0.009087 -0.008354
v 0.041576 -0.012719 -0.007516
v 0.041295 -0.010205 0.000589
v 0.017544 -0.015514 -0.003603
v 0.032634 -0.009366 -0.000809
v 0.015028 -0.011602 -0.008354
v 0.029558 -0.009086 -0.008354
v 0.042695 -0.012161 -0.008354
v 0.040737 -0.013278 0.000589
v 0.015310 -0.009366 -0.001088
v 0.041855 -0.009925 -0.003603
v 0.018381 -0.014396 -0.008354
v 0.041855 -0.012998 -0.004441
v 0.017544 -0.015514 0.000589
v 0.016147 -0.015514 -0.004441
v 0.036824 -0.012998 -0.008354
v 0.041855 -0.009925 -0.007516
v 0.020618 -0.015234 -0.003883
v 0.015028 -0.012719 0.000589
v 0.031234 -0.009646 0.000589
v 0.042695 -0.011881 -0.007236
f 182 176 186 
f 161 162 165 
f 160 163 165 
f 164 161 166 
f 163 160 168 
f 161 165 171 
f 166 161 171 
f 166 163 172 
f 164 166 172 
f 163 170 172 
f 161 164 173 
f 160 165 174 
f 163 166 175 
f 166 171 175 
f 170 168 176 
f 172 170 176 
f 162 161 177 
f 161 173 177 
f 167 173 178 
f 173 160 178 
f 160 174 178 
f 165 169 179 
f 174 165 179 
f 165 162 180 
f 169 165 180 
f 162 177 180 
f 180 177 181 
f 173 167 181 
f 177 173 181 
f 164 172 182 
f 173 164 182 
f 172 176 182 
f 167 178 183 
f 178 174 183 
f 179 169 183 
f 174 179 183 
f 169 180 183 
f 180 181 183 
f 181 167 183 
f 165 163 184 
f 171 165 184 
f 163 175 184 
f 175 171 184 
f 163 168 185 
f 170 163 185 
f 168 170 185 
f 168 160 186 
f 160 173 186 
f 176 168 186 
f 173 182 186 
o convex_6
v 0.049677 -0.007407 0.011768
v 0.000777 0.013272 0.014004
v 0.000777 0.013272 0.013723
v -0.011796 -0.008527 0.012048
v -0.001458 -0.007689 0.015680
v 0.010558 0.012431 0.010930
v 0.046323 0.007679 0.013724
v 0.042975 0.011874 0.010930
v 0.018380 -0.008527 0.010930
v 0.045766 -0.008527 0.013724
v -0.000337 0.003768 0.015959
v -0.012078 0.006283 0.013445
v 0.041854 0.000138 0.014562
v 0.051917 -0.001819 0.010930
v -0.010957 0.004604 0.015121
v -0.002578 0.011594 0.015121
v -0.000901 -0.006012 0.010930
v -0.008166 -0.008527 0.015121
v 0.042411 0.011035 0.013165
v -0.013198 -0.005732 0.012048
v 0.048000 -0.008527 0.010930
v 0.050240 -0.001539 0.013445
v 0.049677 0.007679 0.011489
v -0.007328 0.011594 0.013445
v -0.013479 -0.003216 0.014003
v -0.005094 0.003768 0.011768
v -0.001739 -0.003775 0.015959
v 0.038500 -0.003496 0.014562
v 0.040177 0.005722 0.014283
v 0.000220 0.011594 0.015121
v 0.049120 0.004327 0.013724
v 0.041573 0.012153 0.011768
v -0.008723 0.008240 0.015121
v 0.051354 0.004886 0.011209
v 0.041854 0.009636 0.013724
v 0.049120 -0.004612 0.013724
v -0.009562 -0.007409 0.015121
v 0.004413 0.012992 0.012048
v 0.051354 -0.000701 0.012886
v 0.001333 -0.007409 0.015680
v 0.046604 0.010476 0.010930
v 0.048838 0.007679 0.012886
v 0.001615 -0.008527 0.015400
v 0.017823 -0.000980 0.015400
v -0.003973 0.012992 0.014003
v -0.013479 0.000418 0.014003
v -0.012359 -0.000421 0.014842
v -0.000901 0.012433 0.014841
v 0.050240 -0.005450 0.012886
v 0.000220 0.003768 0.015959
v -0.007328 0.011315 0.014283
v -0.011796 0.006842 0.014003
v 0.041854 0.012153 0.011209
v -0.008723 -0.000421 0.015401
v -0.012916 -0.006012 0.013445
v 0.045484 0.011035 0.011768
v 0.040453 -0.002376 0.014562
v 0.051354 -0.004612 0.010930
v -0.003135 0.013272 0.013445
v -0.010125 -0.008527 0.014283
v 0.051354 0.002372 0.012327
v 0.041016 -0.005450 0.014283
v -0.006489 0.010197 0.015121
v 0.042136 0.011594 0.012607
f 205 242 250 
f 192 194 195 
f 190 195 196 
f 195 194 200 
f 195 190 203 
f 192 195 203 
f 190 196 204 
f 203 190 206 
f 187 196 207 
f 196 195 207 
f 195 200 207 
f 192 203 212 
f 206 198 212 
f 203 206 212 
f 210 192 212 
f 198 210 212 
f 199 193 215 
f 202 197 216 
f 193 199 217 
f 201 197 219 
f 193 205 221 
f 215 193 221 
f 205 216 221 
f 216 215 221 
f 217 199 222 
f 208 217 222 
f 204 191 223 
f 191 213 223 
f 192 210 224 
f 217 208 225 
f 208 222 225 
f 213 191 226 
f 200 194 227 
f 220 200 227 
f 209 220 227 
f 205 193 228 
f 193 217 228 
f 220 209 228 
f 204 196 229 
f 191 204 229 
f 226 191 229 
f 196 226 229 
f 198 206 232 
f 206 211 232 
f 232 211 233 
f 211 223 233 
f 201 232 233 
f 205 188 234 
f 202 216 234 
f 216 205 234 
f 188 231 234 
f 231 202 234 
f 196 187 235 
f 222 196 235 
f 225 222 235 
f 197 213 236 
f 199 215 236 
f 216 197 236 
f 215 216 236 
f 230 199 236 
f 213 230 236 
f 231 210 237 
f 210 198 238 
f 201 219 238 
f 198 232 238 
f 232 201 238 
f 237 210 238 
f 219 237 238 
f 189 188 239 
f 194 192 239 
f 188 218 239 
f 218 194 239 
f 192 224 239 
f 224 189 239 
f 197 201 240 
f 213 197 240 
f 223 213 240 
f 201 233 240 
f 233 223 240 
f 206 190 241 
f 211 206 241 
f 223 211 241 
f 194 218 242 
f 227 194 242 
f 209 227 242 
f 205 228 242 
f 228 209 242 
f 196 222 243 
f 222 199 243 
f 213 226 243 
f 226 214 243 
f 199 230 243 
f 230 213 243 
f 187 207 244 
f 207 200 244 
f 200 225 244 
f 235 187 244 
f 225 235 244 
f 188 189 245 
f 189 224 245 
f 224 210 245 
f 231 188 245 
f 210 231 245 
f 190 204 246 
f 204 223 246 
f 241 190 246 
f 223 241 246 
f 200 220 247 
f 225 200 247 
f 217 225 247 
f 228 217 247 
f 220 228 247 
f 226 196 248 
f 214 226 248 
f 196 243 248 
f 243 214 248 
f 197 202 249 
f 219 197 249 
f 202 231 249 
f 237 219 249 
f 231 237 249 
f 188 205 250 
f 218 188 250 
f 242 218 250 
o convex_7
v 0.002730 0.012433 -0.013665
v -0.013479 -0.003497 -0.013385
v -0.012919 -0.003775 -0.013665
v 0.002730 -0.010204 -0.012826
v 0.000774 -0.004333 -0.015341
v -0.009286 0.007678 -0.014502
v -0.007329 0.011594 -0.013106
v -0.009565 -0.010204 -0.012826
v -0.006771 -0.009644 -0.014502
v 0.002730 0.009634 -0.012826
v 0.002730 -0.010204 -0.014502
v -0.000066 0.011870 -0.014502
v -0.011521 -0.000142 -0.014502
v 0.000214 0.004326 -0.015341
v -0.011802 0.006840 -0.013106
v -0.013199 -0.003216 -0.012826
v 0.002730 0.002090 -0.015061
v -0.002581 -0.003216 -0.015341
v -0.009565 -0.007688 -0.014502
v -0.002861 0.013272 -0.013106
v -0.006214 0.010473 -0.014502
v -0.002022 -0.007968 -0.015061
v -0.008727 0.004326 -0.014782
v -0.003139 0.008800 -0.012826
v 0.002730 0.011594 -0.014223
v -0.013199 0.000697 -0.013665
v -0.010684 0.005442 -0.014502
v -0.005654 -0.010204 -0.014502
v 0.002730 0.012709 -0.013106
v -0.012919 -0.005732 -0.013106
v -0.003139 0.012991 -0.013665
v -0.006492 -0.000422 -0.015061
v -0.007329 0.011314 -0.013665
v -0.011521 0.006840 -0.013665
v -0.009286 -0.010204 -0.013385
v 0.001611 -0.009644 -0.014782
v 0.002730 -0.003216 -0.015061
v -0.003420 0.009356 -0.014782
v -0.001184 0.003207 -0.015341
f 288 264 289 
f 254 251 260 
f 258 254 260 
f 251 254 261 
f 254 258 261 
f 253 252 263 
f 258 260 266 
f 251 261 267 
f 255 264 267 
f 264 255 268 
f 253 263 269 
f 268 255 272 
f 259 269 272 
f 269 268 272 
f 257 265 274 
f 266 260 274 
f 265 266 274 
f 260 270 274 
f 270 257 274 
f 262 251 275 
f 264 262 275 
f 251 267 275 
f 267 264 275 
f 263 252 276 
f 252 266 276 
f 266 265 276 
f 256 273 277 
f 273 263 277 
f 263 276 277 
f 261 258 278 
f 259 272 278 
f 260 251 279 
f 251 270 279 
f 270 260 279 
f 252 253 280 
f 266 252 280 
f 258 266 280 
f 253 269 280 
f 251 262 281 
f 270 251 281 
f 257 270 281 
f 262 271 281 
f 269 263 282 
f 268 269 282 
f 263 273 282 
f 265 257 283 
f 271 256 283 
f 257 281 283 
f 281 271 283 
f 276 265 284 
f 256 277 284 
f 277 276 284 
f 283 256 284 
f 265 283 284 
f 269 259 285 
f 278 258 285 
f 259 278 285 
f 258 280 285 
f 280 269 285 
f 272 255 286 
f 261 278 286 
f 278 272 286 
f 267 261 287 
f 255 267 287 
f 286 255 287 
f 261 286 287 
f 262 264 288 
f 271 262 288 
f 256 271 288 
f 273 256 288 
f 273 288 289 
f 264 268 289 
f 268 282 289 
f 282 273 289 
o convex_8
v 0.032352 0.007682 -0.010311
v 0.012233 0.012992 -0.008354
v 0.012233 0.012992 -0.008634
v 0.016145 0.007403 -0.009752
v 0.032633 0.007682 -0.008354
v 0.029838 0.011315 -0.010311
v 0.010835 0.012433 -0.010311
v 0.010557 0.009918 -0.008354
v 0.027599 0.011874 -0.008354
v 0.010277 0.009080 -0.010311
v 0.016425 0.007403 -0.008354
v 0.032633 0.009359 -0.008354
v 0.020340 0.007403 -0.010311
v 0.032633 0.009359 -0.010311
v 0.010835 0.012713 -0.008354
v 0.027321 0.011595 -0.010311
v 0.025645 0.012153 -0.008634
v 0.009996 0.009918 -0.010031
f 297 304 307 
f 295 290 296 
f 294 291 297 
f 291 294 298 
f 296 290 299 
f 297 299 300 
f 294 297 300 
f 299 293 300 
f 298 294 301 
f 295 298 301 
f 290 294 302 
f 299 290 302 
f 293 299 302 
f 300 293 302 
f 294 300 302 
f 294 290 303 
f 290 295 303 
f 301 294 303 
f 295 301 303 
f 291 292 304 
f 292 296 304 
f 297 291 304 
f 295 296 305 
f 296 292 305 
f 292 291 306 
f 291 298 306 
f 298 295 306 
f 295 305 306 
f 305 292 306 
f 296 299 307 
f 299 297 307 
f 304 296 307 
o convex_9
v -0.003139 -0.012439 0.007576
v -0.010126 -0.008808 0.001986
v -0.010126 -0.008808 0.003385
v -0.008168 -0.011322 0.001986
v -0.003139 -0.011042 0.002266
v -0.009008 -0.008527 0.007576
v -0.008168 -0.011042 0.007576
v -0.004257 -0.012719 0.001986
v -0.008168 -0.008527 0.001986
v -0.003139 -0.012719 0.001986
v -0.003419 -0.011880 0.007576
v -0.009846 -0.008527 0.007016
v -0.003419 -0.012719 0.006178
v -0.007889 -0.008527 0.002825
v -0.008168 -0.011322 0.004502
v -0.003139 -0.011042 0.002825
f 321 313 323 
f 310 309 311 
f 308 313 314 
f 311 309 315 
f 315 309 316 
f 312 308 317 
f 316 312 317 
f 315 316 317 
f 313 308 318 
f 309 310 319 
f 314 313 319 
f 310 314 319 
f 316 309 319 
f 313 316 319 
f 308 314 320 
f 317 308 320 
f 315 317 320 
f 312 316 321 
f 316 313 321 
f 310 311 322 
f 314 310 322 
f 311 315 322 
f 320 314 322 
f 315 320 322 
f 308 312 323 
f 318 308 323 
f 313 318 323 
f 312 321 323 
o convex_10
v -0.001455 -0.014954 0.010929
v 0.048284 -0.008527 0.011768
v 0.048284 -0.008808 0.011768
v 0.042695 -0.011602 0.008973
v 0.018384 -0.008528 0.009253
v 0.018384 -0.008528 0.011768
v -0.003414 -0.014675 0.008973
v 0.040736 -0.012160 0.011768
v -0.004536 -0.013557 0.011768
v 0.007764 -0.015234 0.008973
v 0.041852 -0.009925 0.008973
v 0.001896 -0.011323 0.011488
v 0.041573 -0.012439 0.008973
v 0.001616 -0.014675 0.011768
v 0.018384 -0.009087 0.008973
v 0.029552 -0.008528 0.009253
v 0.047442 -0.008527 0.010929
v 0.003292 -0.012439 0.008973
v 0.017820 -0.013837 0.011768
v -0.002018 -0.015513 0.009253
v 0.032908 -0.013277 0.009532
v 0.046883 -0.010205 0.011209
v 0.007764 -0.015234 0.009253
v -0.003973 -0.014395 0.011768
v 0.037659 -0.012439 0.011768
v 0.001896 -0.011323 0.011768
v -0.003414 -0.015234 0.008973
f 343 347 350 
f 326 325 329 
f 326 329 331 
f 331 329 332 
f 330 327 333 
f 327 330 334 
f 329 328 335 
f 330 332 335 
f 333 327 336 
f 331 332 337 
f 334 330 338 
f 334 338 339 
f 338 328 339 
f 339 328 340 
f 325 326 340 
f 329 325 340 
f 328 329 340 
f 327 334 340 
f 334 339 340 
f 335 328 341 
f 330 335 341 
f 328 338 341 
f 338 330 341 
f 331 337 342 
f 337 324 343 
f 336 331 344 
f 333 336 344 
f 326 331 345 
f 336 327 345 
f 331 336 345 
f 340 326 345 
f 327 340 345 
f 342 337 346 
f 343 333 346 
f 337 343 346 
f 333 344 346 
f 337 332 347 
f 324 337 347 
f 343 324 347 
f 331 342 348 
f 344 331 348 
f 342 346 348 
f 346 344 348 
f 332 329 349 
f 329 335 349 
f 335 332 349 
f 332 330 350 
f 330 333 350 
f 333 343 350 
f 347 332 350 
o convex_11
v -0.006764 -0.012440 0.013445
v 0.048005 -0.008527 0.012048
v 0.048005 -0.008527 0.011768
v -0.011798 -0.008527 0.012048
v 0.001619 -0.008527 0.015401
v 0.016423 -0.013837 0.011768
v 0.040453 -0.011322 0.013165
v 0.001057 -0.013278 0.014562
v -0.003135 -0.014396 0.011768
v 0.045207 -0.008808 0.013724
v -0.007888 -0.008808 0.015121
v 0.041296 -0.011881 0.011768
v -0.008444 -0.011601 0.011768
v 0.001894 -0.011323 0.015121
v 0.022564 -0.013278 0.012606
v -0.000055 -0.014116 0.013445
v 0.040453 -0.010205 0.013724
v -0.003135 -0.012999 0.014562
v 0.013631 -0.008527 0.011768
v 0.046044 -0.009925 0.012886
v 0.045207 -0.008527 0.013724
v -0.008444 -0.011323 0.013723
v -0.003410 -0.011601 0.015121
v -0.009562 -0.008527 0.014562
v 0.001619 -0.009367 0.015401
v 0.005248 -0.014396 0.012048
v 0.018934 -0.012999 0.013445
v -0.008719 -0.011881 0.012327
v 0.036262 -0.012440 0.012048
v 0.000776 -0.012719 0.014842
v 0.043527 -0.009646 0.013724
v -0.004534 -0.014116 0.012048
v 0.040734 -0.011601 0.012886
v 0.046325 -0.010205 0.011768
v -0.011798 -0.008808 0.012327
f 378 372 385 
f 352 353 354 
f 352 354 355 
f 353 356 359 
f 356 353 362 
f 353 359 363 
f 358 357 367 
f 366 358 368 
f 354 353 369 
f 353 363 369 
f 363 354 369 
f 352 360 370 
f 352 355 371 
f 360 352 371 
f 355 360 371 
f 351 368 372 
f 368 361 372 
f 361 368 373 
f 355 354 374 
f 361 355 374 
f 372 361 374 
f 360 355 375 
f 355 361 375 
f 361 373 375 
f 373 364 375 
f 359 356 376 
f 356 365 376 
f 366 359 376 
f 365 366 376 
f 357 358 377 
f 358 366 377 
f 366 365 377 
f 351 372 378 
f 356 362 379 
f 365 356 379 
f 358 367 380 
f 368 358 380 
f 364 373 380 
f 373 368 380 
f 367 357 381 
f 370 360 381 
f 360 375 381 
f 375 364 381 
f 380 367 381 
f 364 380 381 
f 363 359 382 
f 359 366 382 
f 368 351 382 
f 366 368 382 
f 351 378 382 
f 378 363 382 
f 362 370 383 
f 357 377 383 
f 377 365 383 
f 379 362 383 
f 365 379 383 
f 381 357 383 
f 370 381 383 
f 353 352 384 
f 362 353 384 
f 352 370 384 
f 370 362 384 
f 354 363 385 
f 374 354 385 
f 372 374 385 
f 363 378 385 
o convex_12
v 0.020058 0.007123 0.010650
v 0.015029 0.012713 0.009532
v 0.015029 0.012713 0.009253
v 0.035987 0.010197 0.010929
v 0.032909 0.007682 0.009253
v 0.010556 0.012433 0.010929
v 0.016428 0.007123 0.009253
v 0.009996 0.009360 0.010929
v 0.028162 0.011594 0.009253
v 0.010276 0.009639 0.009253
v 0.029279 0.007682 0.010929
v 0.032352 0.011315 0.010929
v 0.016146 0.007123 0.010929
v 0.010836 0.012713 0.009253
v 0.032909 0.007682 0.010650
v 0.032352 0.009639 0.009253
v 0.035987 0.010197 0.010650
v 0.011953 0.012713 0.010370
f 399 391 403 
f 390 386 392 
f 388 390 392 
f 389 391 393 
f 390 388 394 
f 388 392 395 
f 392 393 395 
f 389 393 396 
f 388 387 397 
f 391 389 397 
f 394 388 397 
f 392 386 398 
f 393 392 398 
f 386 396 398 
f 396 393 398 
f 387 388 399 
f 393 391 399 
f 388 395 399 
f 395 393 399 
f 386 390 400 
f 390 389 400 
f 396 386 400 
f 389 396 400 
f 390 394 401 
f 401 394 402 
f 389 390 402 
f 397 389 402 
f 394 397 402 
f 390 401 402 
f 397 387 403 
f 391 397 403 
f 387 399 403 
o convex_13
v -0.012639 -0.007408 -0.011988
v 0.000213 -0.000982 -0.012546
v 0.001612 -0.001261 -0.012546
v -0.003420 -0.000982 -0.011429
v 0.002730 -0.010204 -0.011708
v 0.002730 -0.010204 -0.012826
v -0.012918 -0.005454 -0.012826
v -0.010403 -0.010204 -0.011429
v -0.009567 -0.010204 -0.012826
v 0.002730 -0.002659 -0.011429
v -0.005932 -0.000982 -0.012826
v -0.012918 -0.005454 -0.011429
v 0.002730 -0.001541 -0.012826
v -0.005651 -0.000982 -0.011429
v 0.002730 -0.006291 -0.011429
v -0.004257 -0.010204 -0.011429
f 418 411 419 
f 406 405 407 
f 409 408 411 
f 404 410 412 
f 410 409 412 
f 411 404 412 
f 409 411 412 
f 406 407 413 
f 408 409 413 
f 407 411 413 
f 407 405 414 
f 409 410 414 
f 414 410 415 
f 410 404 415 
f 404 411 415 
f 411 407 415 
f 405 406 416 
f 406 413 416 
f 413 409 416 
f 414 405 416 
f 409 414 416 
f 407 414 417 
f 414 415 417 
f 415 407 417 
f 408 413 418 
f 413 411 418 
f 411 408 419 
f 408 418 419 
o convex_14
v -0.005932 0.001254 -0.011708
v 0.002729 0.006844 -0.012546
v 0.002729 0.006844 -0.012826
v 0.002729 0.001254 -0.012826
v 0.002729 0.002093 -0.011429
v -0.005932 -0.000982 -0.012826
v -0.004256 0.004608 -0.011429
v -0.003418 -0.000982 -0.011429
v -0.004256 0.004608 -0.012826
v 0.002729 0.006004 -0.011429
v -0.005932 -0.000982 -0.011429
v -0.000904 0.006004 -0.011429
v -0.003418 -0.000982 -0.012826
v -0.006212 0.000696 -0.012826
f 425 430 433 
f 422 421 423 
f 423 421 424 
f 422 423 425 
f 423 424 427 
f 424 426 427 
f 422 425 428 
f 424 421 429 
f 426 424 429 
f 426 420 430 
f 425 427 430 
f 427 426 430 
f 421 422 431 
f 422 428 431 
f 428 426 431 
f 429 421 431 
f 426 429 431 
f 425 423 432 
f 423 427 432 
f 427 425 432 
f 420 426 433 
f 428 425 433 
f 426 428 433 
f 430 420 433 
o convex_15
v 0.014470 0.004049 -0.008354
v 0.020059 0.007403 -0.010031
v 0.029280 0.005167 -0.008354
v 0.022291 0.004049 -0.010311
v 0.016427 0.007403 -0.008354
v 0.011397 0.004608 -0.010311
v 0.016147 0.007403 -0.010311
v 0.011397 0.004049 -0.009193
v 0.029280 0.004887 -0.008913
v 0.019501 0.007403 -0.008354
v 0.020059 0.007403 -0.010311
v 0.018382 0.004049 -0.008354
v 0.011397 0.004049 -0.010311
v 0.011397 0.004608 -0.009193
f 439 441 447 
f 434 436 438 
f 438 435 440 
f 437 439 440 
f 437 434 441 
f 436 435 443 
f 438 436 443 
f 435 438 443 
f 435 436 444 
f 440 435 444 
f 437 440 444 
f 436 442 444 
f 442 437 444 
f 436 434 445 
f 434 437 445 
f 442 436 445 
f 437 442 445 
f 439 437 446 
f 437 441 446 
f 441 439 446 
f 434 438 447 
f 438 440 447 
f 440 439 447 
f 441 434 447 
o convex_16
v 0.017542 -0.007129 0.006456
v 0.015865 -0.009366 0.000589
v 0.015865 -0.008807 0.000589
v 0.008602 -0.009086 0.007575
v 0.011395 -0.003776 0.002267
v 0.016423 -0.003776 0.008694
v 0.007481 -0.009366 0.002266
v 0.016421 -0.009086 0.008694
v 0.016423 -0.003776 0.001707
v 0.012235 -0.003776 0.007574
v 0.017542 -0.009366 0.004222
v 0.012235 -0.003776 0.001707
v 0.017542 -0.007129 0.002546
v 0.008602 -0.009366 0.007575
v 0.014745 -0.003776 0.008694
v 0.017542 -0.005454 0.004222
v 0.007761 -0.008527 0.002545
v 0.016421 -0.009366 0.000589
v 0.011675 -0.004335 0.007574
v 0.014466 -0.007129 0.008694
v 0.015306 -0.009366 0.007855
v 0.008320 -0.009086 0.001987
v 0.010836 -0.004335 0.002826
f 464 466 470 
f 448 453 455 
f 452 453 456 
f 453 452 457 
f 454 449 458 
f 448 455 458 
f 454 452 459 
f 456 450 459 
f 452 456 459 
f 448 458 460 
f 451 454 461 
f 454 458 461 
f 455 453 462 
f 453 457 462 
f 453 448 463 
f 456 453 463 
f 448 460 463 
f 460 456 463 
f 454 451 464 
f 452 454 464 
f 449 450 465 
f 450 456 465 
f 458 449 465 
f 456 460 465 
f 460 458 465 
f 451 462 466 
f 462 457 466 
f 464 451 466 
f 451 461 467 
f 461 455 467 
f 455 462 467 
f 462 451 467 
f 458 455 468 
f 455 461 468 
f 461 458 468 
f 450 449 469 
f 449 454 469 
f 459 450 469 
f 454 459 469 
f 457 452 470 
f 452 464 470 
f 466 457 470 
o convex_17
v -0.013199 0.003490 0.001707
v -0.007890 0.011035 0.007576
v -0.007890 0.011315 0.004780
v -0.008170 0.007961 0.002266
v -0.012640 0.003490 0.007576
v -0.012082 0.006286 0.001707
v -0.012920 0.004608 0.007017
v -0.009008 0.010476 0.001707
v -0.011522 0.003490 0.002266
v -0.007890 0.010197 0.007576
v -0.007890 0.010756 0.001707
v -0.008170 0.011035 0.007576
v -0.013199 0.004608 0.003663
v -0.012361 0.003490 0.006736
f 480 475 484 
f 471 475 477 
f 471 476 478 
f 471 474 479 
f 475 471 479 
f 473 472 480 
f 472 475 480 
f 474 471 481 
f 478 473 481 
f 471 478 481 
f 473 480 481 
f 480 474 481 
f 472 473 482 
f 475 472 482 
f 477 475 482 
f 473 478 482 
f 482 478 483 
f 476 471 483 
f 471 477 483 
f 478 476 483 
f 477 482 483 
f 479 474 484 
f 475 479 484 
f 474 480 484 
o convex_18
v -0.000065 0.013830 0.004223
v -0.007890 0.011036 0.001707
v -0.007890 0.008800 0.002266
v -0.007890 0.011036 0.007576
v -0.000065 0.012992 0.007576
v -0.000065 0.011874 0.002266
v -0.000624 0.013830 0.001707
v -0.007610 0.011594 0.003384
v -0.001463 0.013271 0.007576
v -0.007610 0.010477 0.007295
v -0.007610 0.008800 0.002545
v -0.000065 0.013550 0.001707
v -0.007610 0.011594 0.001707
f 492 491 497 
f 486 487 488 
f 485 489 490 
f 486 488 492 
f 491 492 493 
f 489 485 493 
f 488 489 493 
f 485 491 493 
f 492 488 493 
f 488 487 494 
f 489 488 494 
f 489 494 495 
f 487 490 495 
f 490 489 495 
f 494 487 495 
f 487 486 496 
f 490 487 496 
f 485 490 496 
f 491 485 496 
f 486 491 496 
f 491 486 497 
f 486 492 497 
o convex_19
v 0.006084 0.011036 0.006736
v -0.000065 0.013551 0.001707
v -0.000065 0.012712 0.001986
v -0.000065 0.013551 0.007576
v 0.005804 0.012153 0.001707
v 0.005245 0.010197 0.002266
v 0.000215 0.011875 0.002545
v 0.005804 0.011875 0.007295
v 0.000774 0.013831 0.003384
v 0.000215 0.012992 0.007576
v 0.005245 0.011315 0.007576
v 0.006084 0.010197 0.002266
v 0.000774 0.013551 0.007295
f 506 501 510 
f 499 500 501 
f 499 502 503 
f 500 499 503 
f 501 500 504 
f 500 503 504 
f 498 502 505 
f 505 502 506 
f 499 501 506 
f 502 499 506 
f 501 504 507 
f 503 498 508 
f 504 503 508 
f 498 505 508 
f 505 501 508 
f 507 504 508 
f 501 507 508 
f 502 498 509 
f 503 502 509 
f 498 503 509 
f 501 505 510 
f 505 506 510 
o convex_20
v 0.031515 0.002652 0.008973
v 0.026206 -0.003496 0.008973
v 0.027325 -0.004056 0.008973
v 0.029280 0.001254 0.005899
v 0.030677 -0.003496 0.009253
v 0.029280 0.002652 0.009253
v 0.031515 0.001254 0.005899
v 0.030677 0.002652 0.006179
v 0.026206 -0.003216 0.009253
v 0.031515 0.001254 0.009253
v 0.030397 -0.003775 0.008973
v 0.029560 0.002372 0.006459
f 519 516 522 
f 513 512 514 
f 513 514 517 
f 516 511 518 
f 517 514 518 
f 511 517 518 
f 512 513 519 
f 514 512 519 
f 513 515 519 
f 515 516 519 
f 511 516 520 
f 516 515 520 
f 517 511 520 
f 515 517 520 
f 515 513 521 
f 513 517 521 
f 517 515 521 
f 518 514 522 
f 516 518 522 
f 514 519 522 
o convex_21
v 0.015586 0.004049 -0.008354
v 0.011394 -0.004615 -0.010311
v 0.016423 -0.004615 -0.010311
v 0.011394 0.004049 -0.010311
v 0.014467 -0.004615 -0.008354
v 0.016983 0.004049 -0.010311
v 0.011674 0.003489 -0.008913
v 0.016423 -0.004615 -0.008354
v 0.017263 0.004049 -0.009193
v 0.011394 -0.004335 -0.009472
v 0.016704 0.003210 -0.008354
v 0.011953 -0.003217 -0.008913
v 0.014467 0.004049 -0.008354
f 529 527 535 
f 525 524 526 
f 524 525 527 
f 525 526 528 
f 526 523 528 
f 523 527 530 
f 527 525 530 
f 528 523 531 
f 525 528 531 
f 530 525 531 
f 526 524 532 
f 524 527 532 
f 529 526 532 
f 523 530 533 
f 531 523 533 
f 530 531 533 
f 527 529 534 
f 532 527 534 
f 529 532 534 
f 523 526 535 
f 527 523 535 
f 526 529 535 
o convex_22
v 0.041573 -0.012440 0.008973
v -0.002295 -0.016632 0.000589
v -0.002295 -0.016632 0.004502
v -0.003139 -0.011043 0.002266
v 0.041294 -0.011043 0.000589
v 0.018382 -0.011043 0.008973
v -0.003139 -0.015235 0.008973
v 0.040455 -0.013279 0.000589
v -0.003139 -0.012161 0.007575
v 0.016987 -0.015514 0.004502
v 0.042133 -0.011043 0.008973
v 0.015865 -0.011043 0.000589
v 0.004407 -0.015514 0.008973
v 0.001617 -0.016912 0.000589
v 0.041855 -0.012999 0.004222
v 0.006085 -0.011043 0.007575
v 0.003851 -0.012440 0.008973
v 0.000217 -0.016352 0.006736
v 0.030675 -0.013558 0.008973
v 0.020617 -0.015234 0.004222
v 0.004407 -0.013838 0.000589
v 0.041855 -0.012720 0.007295
v 0.042694 -0.012161 0.008134
v 0.020617 -0.015234 0.000589
v -0.003139 -0.012999 0.001986
v 0.003851 -0.016072 0.007017
v 0.041573 -0.012999 0.001428
v -0.000622 -0.015794 0.008693
v 0.022290 -0.014955 0.005340
v -0.002295 -0.016072 0.000589
v -0.003139 -0.011043 0.002825
v 0.000217 -0.016912 0.001707
v -0.003139 -0.014675 0.008973
v -0.003139 -0.015514 0.007575
f 542 560 569 
f 536 541 542 
f 537 540 543 
f 539 542 544 
f 541 536 546 
f 540 537 547 
f 546 540 547 
f 536 542 548 
f 537 543 549 
f 541 546 551 
f 547 539 551 
f 546 547 551 
f 542 541 552 
f 551 544 552 
f 541 551 552 
f 536 548 554 
f 545 549 555 
f 543 550 555 
f 547 537 556 
f 539 547 556 
f 536 554 557 
f 555 550 557 
f 540 546 558 
f 546 536 558 
f 536 557 558 
f 557 550 558 
f 549 543 559 
f 543 555 559 
f 555 549 559 
f 542 539 560 
f 548 553 561 
f 553 545 561 
f 554 548 561 
f 543 540 562 
f 550 543 562 
f 540 558 562 
f 558 550 562 
f 542 538 563 
f 548 542 563 
f 538 553 563 
f 553 548 563 
f 545 555 564 
f 557 554 564 
f 555 557 564 
f 561 545 564 
f 554 561 564 
f 556 537 565 
f 539 556 565 
f 537 560 565 
f 560 539 565 
f 539 544 566 
f 551 539 566 
f 544 551 566 
f 538 537 567 
f 537 549 567 
f 549 545 567 
f 553 538 567 
f 545 553 567 
f 544 542 568 
f 542 552 568 
f 552 544 568 
f 537 538 569 
f 538 542 569 
f 560 537 569 
o convex_23
v -0.013199 -0.004615 0.003385
v -0.008170 -0.008248 0.002825
v -0.008170 -0.008527 0.002825
v -0.009288 -0.008248 0.007576
v -0.011243 -0.003776 0.002266
v -0.010406 -0.008527 0.001986
v -0.012920 -0.004335 0.007576
v -0.009847 -0.008527 0.007576
v -0.013199 -0.003776 0.001986
v -0.012361 -0.003776 0.007016
v -0.008450 -0.007968 0.001986
v -0.008170 -0.007968 0.002546
v -0.010406 -0.007968 0.007576
f 575 577 582 
f 572 571 573 
f 573 576 577 
f 572 573 577 
f 575 572 577 
f 575 570 578 
f 570 576 578 
f 578 576 579 
f 576 573 579 
f 574 578 579 
f 572 575 580 
f 578 574 580 
f 575 578 580 
f 571 572 581 
f 573 571 581 
f 579 573 581 
f 574 579 581 
f 572 580 581 
f 580 574 581 
f 570 575 582 
f 576 570 582 
f 577 576 582 
o convex_24
v -0.012920 0.002092 0.001707
v -0.012641 0.003490 0.007576
v -0.012362 0.003490 0.006736
v -0.012362 -0.003776 0.007017
v -0.011523 -0.003776 0.001986
v -0.013200 -0.003776 0.001986
v -0.011523 0.003490 0.002825
v -0.013200 0.003490 0.004502
v -0.012920 -0.003776 0.007576
v -0.013200 0.003490 0.001707
v -0.011523 0.003490 0.002266
v -0.012920 0.003490 0.007576
v -0.013200 -0.003776 0.004502
f 591 590 595 
f 585 584 586 
f 583 587 588 
f 587 586 588 
f 584 585 589 
f 585 586 589 
f 586 587 589 
f 584 589 590 
f 586 584 591 
f 588 586 591 
f 583 588 592 
f 588 590 592 
f 590 589 592 
f 587 583 593 
f 589 587 593 
f 583 592 593 
f 592 589 593 
f 584 590 594 
f 591 584 594 
f 590 591 594 
f 590 588 595 
f 588 591 595 
o convex_25
v 0.014468 -0.003775 0.001427
v 0.015307 -0.008527 0.000868
v 0.014468 -0.004613 -0.008354
v 0.016424 0.001254 -0.008354
v 0.016424 0.001254 0.001707
v 0.014468 0.001254 -0.008354
v 0.016424 -0.008527 0.001707
v 0.016424 -0.004613 -0.008354
v 0.014748 0.001254 0.001707
v 0.014748 -0.008527 0.001707
v 0.014468 0.001254 0.000030
v 0.014468 -0.007129 0.001427
f 598 605 607 
f 598 596 601 
f 599 598 601 
f 600 599 601 
f 599 600 602 
f 597 598 603 
f 598 599 603 
f 602 597 603 
f 599 602 603 
f 600 601 604 
f 602 600 604 
f 602 604 605 
f 598 597 605 
f 597 602 605 
f 604 596 605 
f 601 596 606 
f 596 604 606 
f 604 601 606 
f 596 598 607 
f 605 596 607 
o convex_26
v 0.012514 0.014110 -0.004161
v 0.010555 0.009918 -0.008354
v 0.010555 0.009918 -0.007236
v 0.032075 0.009638 -0.001368
v 0.011674 0.011036 0.001148
v 0.026764 0.012153 -0.008354
v 0.025088 0.013271 0.001148
v 0.031514 0.009638 -0.008354
v 0.024247 0.009638 0.001148
v 0.011674 0.014110 0.001148
v 0.011116 0.012992 -0.008354
v 0.031795 0.009918 0.001148
v 0.025088 0.013271 -0.003045
v 0.013073 0.009638 -0.008354
v 0.032075 0.009918 -0.003603
v 0.012234 0.014389 0.000030
v 0.011674 0.013830 -0.005558
v 0.010838 0.012712 -0.008073
v 0.011396 0.012433 0.001148
v 0.031514 0.009918 -0.008354
v 0.027045 0.012153 -0.008073
v 0.031795 0.009638 0.001148
v 0.013353 0.012992 -0.008354
v 0.014469 0.013830 -0.005000
f 613 630 631 
f 609 613 615 
f 612 610 616 
f 614 612 616 
f 615 611 616 
f 612 614 617 
f 613 609 618 
f 614 616 619 
f 610 609 621 
f 609 615 621 
f 616 610 621 
f 615 616 621 
f 611 615 622 
f 614 619 622 
f 619 611 622 
f 620 614 622 
f 617 614 623 
f 620 608 623 
f 614 620 623 
f 617 623 624 
f 623 608 624 
f 609 610 625 
f 618 609 625 
f 624 618 625 
f 617 624 625 
f 610 612 626 
f 612 617 626 
f 625 610 626 
f 617 625 626 
f 615 613 627 
f 622 615 627 
f 622 627 628 
f 613 620 628 
f 620 622 628 
f 627 613 628 
f 616 611 629 
f 611 619 629 
f 619 616 629 
f 613 618 630 
f 618 624 630 
f 630 624 631 
f 608 620 631 
f 620 613 631 
f 624 608 631 
o convex_27
v 0.021453 0.013551 0.001428
v 0.011396 0.011036 0.001148
v 0.008880 0.009359 0.001986
v 0.011115 0.012992 0.009253
v 0.032353 0.009359 0.009253
v 0.032631 0.009359 0.001148
v 0.010278 0.009638 0.009253
v 0.027883 0.011874 0.008972
v 0.006086 0.011874 0.001707
v 0.011676 0.014110 0.001148
v 0.006086 0.011595 0.007575
v 0.025645 0.012992 0.005339
v 0.011676 0.014110 0.004781
v 0.025087 0.013272 0.001148
v 0.008602 0.009359 0.007575
v 0.006086 0.009918 0.002266
v 0.032631 0.009639 0.003104
v 0.012794 0.014110 0.004781
v 0.027602 0.011874 0.009253
v 0.025367 0.009359 0.001148
v 0.006086 0.011036 0.007575
v 0.013353 0.009359 0.009253
v 0.032353 0.009639 0.009253
v 0.012235 0.012992 0.009253
v 0.007204 0.009359 0.002266
v 0.025087 0.013272 0.002546
f 649 643 657 
f 636 634 637 
f 636 635 638 
f 633 634 640 
f 637 633 641 
f 633 640 641 
f 638 635 642 
f 641 640 644 
f 640 642 644 
f 642 635 644 
f 641 632 645 
f 637 641 645 
f 634 636 646 
f 640 634 647 
f 642 640 647 
f 636 637 648 
f 643 639 648 
f 637 645 648 
f 632 641 649 
f 641 644 649 
f 644 635 649 
f 635 636 650 
f 639 643 650 
f 643 649 650 
f 634 633 651 
f 637 634 651 
f 633 637 651 
f 638 642 652 
f 646 638 652 
f 642 647 652 
f 647 646 652 
f 636 638 653 
f 646 636 653 
f 638 646 653 
f 636 648 654 
f 648 639 654 
f 650 636 654 
f 639 650 654 
f 649 635 655 
f 635 650 655 
f 650 649 655 
f 634 646 656 
f 646 647 656 
f 647 634 656 
f 645 632 657 
f 643 648 657 
f 648 645 657 
f 632 649 657 
o convex_28
v 0.018381 0.007122 0.010929
v 0.006643 -0.005174 0.010650
v 0.014466 -0.005174 0.009253
v 0.016424 0.007122 0.009253
v 0.016982 -0.004335 0.010929
v 0.011114 0.004607 0.010929
v 0.018381 0.004886 0.009253
v 0.011674 0.003488 0.009532
v 0.016422 -0.005174 0.009253
v 0.006643 -0.005174 0.010929
v 0.011114 0.004607 0.010091
v 0.018381 0.002370 0.010650
v 0.011674 -0.003215 0.009532
v 0.016424 0.007122 0.010929
v 0.018381 0.007122 0.009253
v 0.016422 -0.004893 0.010650
v 0.014468 0.005165 0.009253
f 665 661 674 
f 662 658 663 
f 660 661 664 
f 659 660 666 
f 660 664 666 
f 663 659 667 
f 662 663 667 
f 659 666 667 
f 659 663 668 
f 663 661 668 
f 665 659 668 
f 661 665 668 
f 658 662 669 
f 664 658 669 
f 662 666 669 
f 666 664 669 
f 660 659 670 
f 665 660 670 
f 659 665 670 
f 658 661 671 
f 661 663 671 
f 663 658 671 
f 661 658 672 
f 664 661 672 
f 658 664 672 
f 666 662 673 
f 662 667 673 
f 667 666 673 
f 661 660 674 
f 660 665 674 
o convex_29
v 0.017822 0.004049 -0.008354
v 0.021455 0.005726 0.001148
v 0.019219 0.006005 0.001148
v 0.019499 0.007403 -0.008354
v 0.021455 0.004329 -0.008354
v 0.019219 0.004049 0.001148
v 0.017822 0.006005 0.001148
v 0.017822 0.007403 -0.008354
v 0.021455 0.004329 0.001148
v 0.021455 0.005726 -0.008354
v 0.018102 0.004049 -0.000530
v 0.019499 0.007403 -0.007236
f 678 682 686 
f 675 678 679 
f 676 677 680 
f 675 679 680 
f 680 677 681 
f 675 681 682 
f 678 675 682 
f 679 676 683 
f 676 680 683 
f 680 679 683 
f 678 676 684 
f 679 678 684 
f 676 679 684 
f 675 680 685 
f 680 681 685 
f 681 675 685 
f 677 676 686 
f 676 678 686 
f 681 677 686 
f 682 681 686 
o convex_30
v 0.018661 -0.006291 0.009253
v 0.033472 0.001813 0.010929
v 0.033472 0.001533 0.010929
v 0.018381 -0.008527 0.010929
v 0.029559 -0.008527 0.009532
v 0.020059 0.001813 0.010929
v 0.030677 -0.000983 0.009253
v 0.029559 -0.008527 0.010929
v 0.018661 -0.002379 0.009253
v 0.018381 -0.008527 0.009532
v 0.020059 0.001813 0.010650
v 0.018381 -0.001821 0.010929
v 0.033472 0.001813 0.010650
v 0.028718 -0.006291 0.009253
v 0.018381 -0.001821 0.009532
f 696 698 701 
f 689 688 690 
f 690 688 692 
f 689 690 694 
f 690 691 694 
f 691 689 694 
f 693 687 695 
f 687 691 696 
f 691 690 696 
f 695 687 696 
f 692 688 697 
f 693 695 697 
f 690 692 698 
f 696 690 698 
f 692 697 698 
f 688 689 699 
f 689 691 699 
f 691 693 699 
f 697 688 699 
f 693 697 699 
f 691 687 700 
f 687 693 700 
f 693 691 700 
f 695 696 701 
f 697 695 701 
f 698 697 701 
o convex_31
v 0.019221 -0.004616 -0.008354
v 0.030956 -0.001541 -0.010031
v 0.030956 -0.001541 -0.010311
v 0.029837 -0.008527 -0.010031
v 0.018382 -0.001820 -0.010311
v 0.018382 -0.008527 -0.010311
v 0.029557 -0.008527 -0.008634
v 0.027602 -0.002939 -0.008354
v 0.018382 -0.008527 -0.008634
v 0.018382 -0.001820 -0.008913
v 0.029837 -0.008527 -0.010311
v 0.029557 -0.001820 -0.008913
v 0.019501 -0.003218 -0.008354
f 709 711 714 
f 704 703 705 
f 703 704 706 
f 706 704 707 
f 705 703 708 
f 707 705 708 
f 702 708 709 
f 706 707 710 
f 708 702 710 
f 707 708 710 
f 703 706 711 
f 710 702 711 
f 706 710 711 
f 704 705 712 
f 707 704 712 
f 705 707 712 
f 708 703 713 
f 709 708 713 
f 703 711 713 
f 711 709 713 
f 702 709 714 
f 711 702 714 
o convex_32
v 0.027601 -0.001541 -0.010311
v 0.024809 0.004049 -0.010031
v 0.024809 0.004049 -0.010311
v 0.034031 0.001254 -0.010031
v 0.017542 0.003769 -0.010031
v 0.028721 0.002652 -0.009752
v 0.027601 -0.001541 -0.010031
v 0.034031 0.000975 -0.010311
v 0.017542 0.004049 -0.010311
v 0.031513 -0.001541 -0.010031
v 0.029278 0.003490 -0.010311
v 0.029278 0.003210 -0.009752
f 718 725 726 
f 719 715 721 
f 720 719 721 
f 715 717 722 
f 717 715 723 
f 716 717 723 
f 715 719 723 
f 719 716 723 
f 721 715 724 
f 720 721 724 
f 715 722 724 
f 722 718 724 
f 717 716 725 
f 722 717 725 
f 718 722 725 
f 716 719 726 
f 719 720 726 
f 724 718 726 
f 720 724 726 
f 725 716 726 
o convex_33
v 0.015587 -0.005732 0.009253
v 0.016705 0.001254 0.008973
v 0.016705 0.001254 0.008694
v 0.023410 -0.002658 0.009253
v 0.016425 -0.006292 0.008694
v 0.014749 0.001254 0.009253
v 0.014469 -0.006292 0.008694
v 0.023410 -0.002379 0.008973
v 0.014749 0.001254 0.008694
f 729 733 735 
f 730 727 731 
f 728 729 732 
f 730 728 732 
f 727 730 732 
f 727 732 733 
f 731 727 733 
f 729 731 733 
f 729 728 734 
f 728 730 734 
f 730 731 734 
f 731 729 734 
f 732 729 735 
f 733 732 735 
o convex_34
v 0.028718 0.001813 0.010370
v 0.019778 0.007123 0.010929
v 0.019778 0.007123 0.010370
v 0.035708 0.004888 0.010929
v 0.033193 0.005446 0.009253
v 0.018662 0.004049 0.009253
v 0.018381 0.002372 0.010929
v 0.018381 0.007123 0.009253
v 0.033749 0.001813 0.010929
v 0.033193 0.004608 0.009253
v 0.020060 0.001813 0.010650
v 0.018381 0.007123 0.010929
v 0.033749 0.001813 0.010650
f 736 745 748 
f 738 737 740 
f 737 739 740 
f 739 737 742 
f 741 742 743 
f 737 738 743 
f 738 740 743 
f 740 741 743 
f 739 742 744 
f 740 739 745 
f 736 741 745 
f 741 740 745 
f 741 736 746 
f 742 741 746 
f 736 744 746 
f 744 742 746 
f 742 737 747 
f 743 742 747 
f 737 743 747 
f 744 736 748 
f 739 744 748 
f 745 739 748 
o convex_35
v 0.040178 0.007403 0.001148
v 0.026208 0.009079 0.001148
v 0.025369 0.008800 0.008972
v 0.033470 0.009359 0.009253
v 0.030959 0.006844 0.008414
v 0.040178 0.006844 0.009253
v 0.035427 0.006844 0.001428
v 0.033470 0.009359 0.001148
v 0.025369 0.009359 0.009253
v 0.039898 0.007682 0.009253
v 0.033192 0.007124 0.001148
v 0.040178 0.006844 0.001148
v 0.026208 0.009359 0.001148
v 0.034309 0.006844 0.009253
v 0.039898 0.007682 0.001148
v 0.031237 0.006844 0.006737
f 759 755 764 
f 754 753 755 
f 749 750 756 
f 752 756 757 
f 754 752 757 
f 752 754 758 
f 754 749 758 
f 756 752 758 
f 750 749 759 
f 755 759 760 
f 749 754 760 
f 754 755 760 
f 759 749 760 
f 750 751 761 
f 756 750 761 
f 757 756 761 
f 751 757 761 
f 751 753 762 
f 753 754 762 
f 757 751 762 
f 754 757 762 
f 749 756 763 
f 758 749 763 
f 756 758 763 
f 751 750 764 
f 753 751 764 
f 755 753 764 
f 750 759 764 
o convex_36
v 0.031233 -0.009645 0.000869
v 0.015868 -0.011043 0.000589
v 0.015868 -0.011043 0.000868
v 0.041574 -0.011043 0.003104
v 0.016147 -0.009366 0.001707
v 0.041295 -0.011043 0.000589
v 0.018382 -0.011043 0.003104
v 0.041574 -0.010204 0.003104
v 0.016147 -0.009366 0.000589
v 0.041295 -0.010204 0.000589
v 0.018382 -0.010763 0.003104
f 771 772 775 
f 767 766 768 
f 766 767 769 
f 768 766 770 
f 767 768 771 
f 769 767 771 
f 765 769 772 
f 768 770 772 
f 771 768 772 
f 769 765 773 
f 766 769 773 
f 770 766 773 
f 770 773 774 
f 765 772 774 
f 772 770 774 
f 773 765 774 
f 769 771 775 
f 772 769 775 
o convex_37
v 0.015025 -0.009645 0.007855
v 0.011672 -0.009925 0.001707
v 0.011672 -0.009366 0.001707
v 0.003571 -0.011043 0.002825
v 0.008600 -0.009366 0.007575
v 0.008041 -0.011043 0.007575
v 0.015584 -0.010204 0.001987
v 0.007203 -0.009366 0.002266
v 0.016423 -0.009366 0.001707
v 0.008879 -0.011043 0.001987
v 0.015584 -0.010204 0.007575
v 0.015584 -0.009366 0.007855
v 0.003571 -0.010763 0.002266
v 0.006924 -0.010763 0.007575
f 779 781 789 
f 780 778 783 
f 777 778 784 
f 778 780 784 
f 784 782 785 
f 781 779 785 
f 777 784 785 
f 776 781 786 
f 782 784 786 
f 785 782 786 
f 781 785 786 
f 780 776 787 
f 784 780 787 
f 776 786 787 
f 786 784 787 
f 778 777 788 
f 779 780 788 
f 783 778 788 
f 780 783 788 
f 777 785 788 
f 785 779 788 
f 776 780 789 
f 780 779 789 
f 781 776 789 
o convex_38
v 0.023970 0.002931 0.001148
v 0.028442 0.005446 0.009253
v 0.028162 0.006844 0.003943
v 0.023691 0.005725 0.009253
v 0.027883 0.003211 0.006737
v 0.028442 0.003211 0.001148
v 0.023691 0.005725 0.001148
v 0.023691 0.004329 0.009253
v 0.026485 0.006844 0.001148
v 0.024250 0.003211 0.006737
v 0.028162 0.006844 0.001148
v 0.028442 0.004329 0.009253
v 0.025648 0.006844 0.003943
v 0.026764 0.002931 0.002266
v 0.028442 0.005446 0.001148
v 0.027044 0.005725 0.009253
f 793 791 805 
f 795 790 796 
f 796 790 797 
f 791 793 797 
f 793 796 797 
f 795 796 798 
f 797 790 799 
f 794 797 799 
f 792 791 800 
f 798 792 800 
f 795 798 800 
f 795 791 801 
f 794 795 801 
f 791 797 801 
f 797 794 801 
f 793 792 802 
f 796 793 802 
f 792 798 802 
f 798 796 802 
f 795 794 803 
f 790 795 803 
f 799 790 803 
f 794 799 803 
f 791 795 804 
f 800 791 804 
f 795 800 804 
f 791 792 805 
f 792 793 805 
o convex_39
v 0.018382 0.004050 0.001148
v 0.023691 0.005725 0.009253
v 0.019499 0.006844 0.009253
v 0.020896 0.002652 0.008693
v 0.023691 0.005725 0.001148
v 0.023691 0.002652 0.001986
v 0.017542 0.004050 0.009253
v 0.017823 0.006005 0.001148
v 0.019220 0.002652 0.001986
v 0.023410 0.002652 0.008972
v 0.017542 0.006844 0.009253
v 0.023410 0.004329 0.001148
v 0.023691 0.004329 0.009253
v 0.019220 0.002652 0.004223
f 812 814 819 
f 808 807 810 
f 810 807 811 
f 807 808 812 
f 810 806 813 
f 808 810 813 
f 806 812 813 
f 811 809 814 
f 806 811 814 
f 812 806 814 
f 809 811 815 
f 812 809 815 
f 812 808 816 
f 808 813 816 
f 813 812 816 
f 806 810 817 
f 810 811 817 
f 811 806 817 
f 811 807 818 
f 807 812 818 
f 815 811 818 
f 812 815 818 
f 809 812 819 
f 814 809 819 
o convex_40
v 0.011394 -0.000143 0.001986
v 0.016704 0.001253 0.008694
v 0.014747 0.001253 0.008694
v 0.014747 -0.003775 0.008694
v 0.016424 -0.003775 0.001707
v 0.016424 0.001253 0.001707
v 0.012233 -0.003775 0.007575
v 0.011394 -0.003775 0.002266
v 0.012233 0.001253 0.007575
v 0.016704 -0.003775 0.007575
v 0.011394 0.001253 0.001986
v 0.012233 -0.003775 0.001707
v 0.016424 -0.003775 0.008694
v 0.016704 0.001253 0.005061
v 0.011394 -0.002937 0.002826
f 828 830 834 
f 821 822 823 
f 822 821 825 
f 823 822 826 
f 824 823 826 
f 824 826 827 
f 822 825 828 
f 826 822 828 
f 823 824 829 
f 820 827 830 
f 828 825 830 
f 825 824 831 
f 824 827 831 
f 827 820 831 
f 820 830 831 
f 830 825 831 
f 821 823 832 
f 829 821 832 
f 823 829 832 
f 825 821 833 
f 824 825 833 
f 821 829 833 
f 829 824 833 
f 827 826 834 
f 826 828 834 
f 830 827 834 
o convex_41
v 0.017822 0.009638 -0.006119
v 0.014468 0.001254 -0.008354
v 0.016424 0.001254 -0.008354
v 0.014468 0.001254 -0.005839
v 0.015027 0.009638 -0.008354
v 0.017822 0.009638 -0.008354
v 0.016424 0.001254 -0.005839
v 0.017822 0.004050 -0.007516
v 0.015865 0.009638 -0.006119
v 0.014468 0.004608 -0.005839
v 0.017822 0.004050 -0.008354
f 842 837 845 
f 836 837 838 
f 837 836 839 
f 839 835 840 
f 837 839 840 
f 838 837 841 
f 840 835 842 
f 835 841 842 
f 841 837 842 
f 835 839 843 
f 843 839 844 
f 836 838 844 
f 839 836 844 
f 841 835 844 
f 838 841 844 
f 835 843 844 
f 837 840 845 
f 840 842 845 
o convex_42
v 0.014468 0.001254 -0.005839
v 0.016424 0.009079 0.001148
v 0.016983 0.004329 -0.005001
v 0.016424 0.001254 0.001148
v 0.014468 0.006005 0.001148
v 0.014468 0.004608 -0.005839
v 0.014748 0.001254 0.001148
v 0.016424 0.001254 -0.005839
v 0.016983 0.004329 -0.005839
v 0.014468 0.007123 0.000868
v 0.015865 0.009079 0.000868
v 0.014468 0.001254 0.000030
f 852 850 857 
f 848 847 849 
f 849 847 850 
f 846 850 851 
f 846 849 852 
f 849 850 852 
f 848 849 853 
f 849 846 853 
f 846 851 853 
f 853 851 854 
f 847 848 854 
f 848 853 854 
f 850 847 855 
f 851 850 855 
f 851 855 856 
f 854 851 856 
f 847 854 856 
f 855 847 856 
f 850 846 857 
f 846 852 857 
o convex_43
v 0.007481 0.009359 0.002825
v 0.011114 0.004049 0.001986
v 0.010835 0.004329 0.001986
v 0.011114 0.005447 0.007576
v 0.011394 0.009359 0.001986
v 0.011394 0.009359 0.007576
v 0.008599 0.009359 0.007576
v 0.007761 0.008520 0.002266
v 0.011394 0.004049 0.002546
v 0.011394 0.005447 0.007576
v 0.008879 0.009359 0.001986
f 865 858 868 
f 860 859 861 
f 859 860 862 
f 862 858 863 
f 863 858 864 
f 861 863 864 
f 861 864 865 
f 860 861 865 
f 864 858 865 
f 861 859 866 
f 859 862 866 
f 862 863 866 
f 866 863 867 
f 863 861 867 
f 861 866 867 
f 858 862 868 
f 862 860 868 
f 860 865 868 
o convex_44
v 0.011674 0.004049 0.001707
v 0.017542 0.009359 0.009253
v 0.017542 0.009359 0.003943
v 0.016703 0.001254 0.008972
v 0.011394 0.009359 0.007575
v 0.016424 0.001254 0.001148
v 0.012233 0.001254 0.007575
v 0.011394 0.009359 0.001986
v 0.016424 0.009079 0.001148
v 0.011394 0.001254 0.001986
v 0.014468 0.002093 0.009253
v 0.017542 0.004049 0.009253
v 0.017542 0.007123 0.002546
v 0.011394 0.004888 0.007575
v 0.015586 0.009359 0.009253
v 0.014747 0.008240 0.001148
v 0.014747 0.001254 0.001148
v 0.017542 0.005445 0.004223
v 0.014468 0.005445 0.009253
f 879 883 887 
f 870 871 873 
f 874 872 875 
f 873 871 876 
f 876 871 877 
f 874 875 878 
f 876 869 878 
f 873 876 878 
f 875 872 879 
f 871 870 880 
f 872 874 880 
f 870 879 880 
f 879 872 880 
f 874 877 881 
f 877 871 881 
f 871 880 881 
f 878 875 882 
f 873 878 882 
f 879 873 882 
f 875 879 882 
f 870 873 883 
f 879 870 883 
f 869 876 884 
f 877 874 884 
f 876 877 884 
f 878 869 885 
f 874 878 885 
f 869 884 885 
f 884 874 885 
f 880 874 886 
f 874 881 886 
f 881 880 886 
f 873 879 887 
f 883 873 887 
o convex_45
v 0.031795 0.006843 0.000867
v 0.021455 0.004329 -0.008354
v 0.021455 0.005447 -0.008354
v 0.021455 0.005726 0.001148
v 0.031795 0.004049 0.001148
v 0.031795 0.004049 -0.007236
v 0.025369 0.007403 -0.005838
v 0.021735 0.004049 0.000867
v 0.022853 0.007403 -0.001368
v 0.031795 0.005447 -0.006955
v 0.029280 0.005167 -0.008354
v 0.022853 0.007403 -0.005838
v 0.021735 0.004049 -0.007236
v 0.031795 0.006843 -0.001648
v 0.026764 0.006843 0.001148
v 0.021455 0.004329 0.001148
v 0.025369 0.007403 -0.001368
f 896 902 904 
f 890 889 891 
f 888 892 893 
f 893 892 895 
f 888 893 897 
f 894 897 898 
f 889 890 898 
f 893 889 898 
f 890 894 898 
f 897 893 898 
f 890 891 899 
f 894 890 899 
f 891 896 899 
f 896 894 899 
f 889 893 900 
f 895 889 900 
f 893 895 900 
f 894 888 901 
f 888 897 901 
f 897 894 901 
f 892 888 902 
f 891 892 902 
f 896 891 902 
f 891 889 903 
f 892 891 903 
f 889 895 903 
f 895 892 903 
f 888 894 904 
f 894 896 904 
f 902 888 904 
o convex_46
v 0.029838 -0.010483 0.005340
v 0.018381 -0.011043 0.003104
v 0.018381 -0.010763 0.003104
v 0.018381 -0.009366 0.008973
v 0.018381 -0.011043 0.008973
v 0.030398 -0.011043 0.008973
v 0.029559 -0.009366 0.008414
v 0.029838 -0.011043 0.004502
v 0.029559 -0.009366 0.008973
v 0.018381 -0.009366 0.008414
v 0.021176 -0.010763 0.003104
f 912 906 915 
f 907 906 908 
f 908 906 909 
f 909 906 910 
f 908 909 910 
f 910 905 911 
f 910 906 912 
f 905 910 912 
f 908 910 913 
f 911 908 913 
f 910 911 913 
f 907 908 914 
f 908 911 914 
f 911 907 914 
f 906 907 915 
f 911 905 915 
f 907 911 915 
f 905 912 915 
o convex_47
v 0.042136 -0.010484 0.006457
v 0.033474 -0.011043 0.003104
v 0.032077 -0.011043 0.004781
v 0.036267 -0.009925 0.008693
v 0.042136 -0.011043 0.008973
v 0.030398 -0.011043 0.008973
v 0.041576 -0.010204 0.003104
v 0.041576 -0.011043 0.003104
v 0.041856 -0.009925 0.008973
v 0.030398 -0.010484 0.008693
v 0.035710 -0.010484 0.003104
v 0.041856 -0.009925 0.003943
f 926 919 927 
f 918 917 920 
f 918 920 921 
f 916 920 923 
f 920 917 923 
f 917 922 923 
f 920 916 924 
f 921 920 924 
f 917 918 925 
f 918 921 925 
f 921 924 925 
f 924 919 925 
f 922 917 926 
f 917 925 926 
f 925 919 926 
f 916 923 927 
f 923 922 927 
f 924 916 927 
f 919 924 927 
f 922 926 927 
o convex_48
v 0.036266 0.004049 -0.004162
v 0.032076 0.003769 -0.006957
v 0.030958 0.003210 -0.006398
v 0.036266 0.001534 -0.006118
v 0.028443 0.003769 -0.003883
v 0.036266 0.001534 -0.004162
v 0.036545 0.004049 -0.006118
v 0.028722 0.004049 -0.004442
v 0.037105 0.003210 -0.005001
v 0.035427 0.001534 -0.005559
v 0.035148 0.004049 -0.003883
f 935 932 938 
f 930 929 931 
f 931 929 934 
f 929 930 935 
f 930 932 935 
f 934 929 935 
f 928 934 935 
f 928 933 936 
f 933 931 936 
f 931 934 936 
f 934 928 936 
f 930 931 937 
f 932 930 937 
f 931 933 937 
f 933 932 937 
f 933 928 938 
f 932 933 938 
f 928 935 938 
o convex_49
v 0.022852 0.004049 0.000588
v 0.028163 0.003769 -0.003883
v 0.027324 0.003769 -0.003323
v 0.035149 0.003490 0.001148
v 0.023970 0.002931 0.001148
v 0.035149 0.004049 -0.003883
v 0.035149 0.003490 -0.003883
v 0.035149 0.004049 0.001148
v 0.023970 0.002931 -0.000809
v 0.026486 0.002931 0.000588
v 0.028163 0.004049 -0.003883
v 0.023970 0.004049 0.001148
f 943 946 950 
f 944 942 945 
f 940 944 945 
f 943 942 946 
f 944 939 946 
f 942 944 946 
f 939 941 947 
f 941 940 947 
f 943 939 947 
f 940 945 947 
f 947 945 948 
f 942 943 948 
f 945 942 948 
f 943 947 948 
f 941 939 949 
f 940 941 949 
f 944 940 949 
f 939 944 949 
f 939 943 950 
f 946 939 950 
o convex_50
v 0.042415 0.005167 0.001148
v 0.033753 0.007123 -0.007516
v 0.031797 0.004049 -0.007236
v 0.031797 0.006843 0.000868
v 0.040178 0.007403 -0.007516
v 0.031797 0.004049 0.001148
v 0.042415 0.004887 -0.007236
v 0.040178 0.007403 0.001148
v 0.037106 0.004049 -0.005001
v 0.033194 0.007403 0.001148
v 0.042415 0.004887 0.001148
v 0.033753 0.007403 -0.007516
v 0.031797 0.005447 -0.006956
v 0.035151 0.004049 0.001148
v 0.040178 0.005447 -0.007516
v 0.031797 0.006843 -0.001647
v 0.042415 0.005167 -0.007236
f 957 955 967 
f 954 953 956 
f 951 955 958 
f 956 951 958 
f 956 953 959 
f 953 957 959 
f 954 956 960 
f 958 955 960 
f 956 958 960 
f 951 956 961 
f 957 951 961 
f 959 957 961 
f 952 953 962 
f 955 952 962 
f 960 955 962 
f 953 954 963 
f 962 953 963 
f 956 959 964 
f 961 956 964 
f 959 961 964 
f 953 952 965 
f 952 955 965 
f 955 957 965 
f 957 953 965 
f 954 960 966 
f 960 962 966 
f 963 954 966 
f 962 963 966 
f 955 951 967 
f 951 957 967 
o convex_51
v 0.020338 0.009638 -0.005839
v 0.017822 0.007403 -0.008354
v 0.017822 0.007403 -0.007516
v 0.024250 0.009079 -0.008354
v 0.017822 0.009638 -0.008354
v 0.024250 0.009638 -0.006398
v 0.019499 0.007403 -0.007236
v 0.017822 0.009638 -0.006119
v 0.024250 0.009638 -0.008354
f 972 973 976 
f 969 970 972 
f 971 969 972 
f 972 968 973 
f 970 969 974 
f 969 971 974 
f 973 968 974 
f 971 973 974 
f 968 972 975 
f 972 970 975 
f 974 968 975 
f 970 974 975 
f 971 972 976 
f 973 971 976 
o convex_52
v 0.039900 0.007403 0.001148
v 0.024250 0.009079 -0.008354
v 0.024250 0.009638 -0.008354
v 0.025368 0.009359 0.001148
v 0.032352 0.009638 -0.008354
v 0.033190 0.007403 -0.007514
v 0.032631 0.009638 0.001148
v 0.032352 0.007403 0.001148
v 0.039900 0.007682 -0.007236
v 0.024530 0.008800 -0.008354
v 0.039620 0.007403 -0.007514
v 0.025368 0.009638 0.001148
v 0.032631 0.007682 -0.008354
v 0.039900 0.007682 0.001148
v 0.034031 0.009359 -0.004440
f 983 990 991 
f 979 978 980 
f 978 979 981 
f 980 977 983 
f 981 979 983 
f 977 980 984 
f 982 977 984 
f 980 978 986 
f 978 981 986 
f 984 980 986 
f 982 984 986 
f 977 982 987 
f 985 977 987 
f 981 985 987 
f 979 980 988 
f 983 979 988 
f 980 983 988 
f 986 981 989 
f 982 986 989 
f 987 982 989 
f 981 987 989 
f 983 977 990 
f 977 985 990 
f 990 985 991 
f 981 983 991 
f 985 981 991 
o convex_53
v 0.042414 0.005166 0.005339
v 0.028443 0.003211 0.001148
v 0.028443 0.005446 0.001148
v 0.028443 0.005446 0.009253
v 0.031518 0.002652 0.008972
v 0.040178 0.006844 0.009253
v 0.040178 0.006844 0.001148
v 0.037384 0.003490 0.001428
v 0.029562 0.006844 0.008414
v 0.042134 0.004887 0.008972
v 0.042414 0.004887 0.001148
v 0.029281 0.002652 0.009253
v 0.034312 0.006844 0.001148
v 0.037384 0.003490 0.005897
v 0.031518 0.002652 0.006458
v 0.030120 0.006844 0.005061
v 0.028443 0.004329 0.009253
v 0.035150 0.006844 0.009253
v 0.030120 0.006284 0.001986
f 1007 1004 1010 
f 994 993 995 
f 993 994 998 
f 997 992 998 
f 994 995 1000 
f 997 998 1000 
f 992 997 1001 
f 993 998 1002 
f 998 992 1002 
f 999 993 1002 
f 992 1001 1002 
f 997 995 1003 
f 1001 997 1003 
f 996 1001 1003 
f 998 994 1004 
f 1000 998 1004 
f 996 999 1005 
f 1001 996 1005 
f 999 1002 1005 
f 1002 1001 1005 
f 999 996 1006 
f 993 999 1006 
f 1003 993 1006 
f 996 1003 1006 
f 994 1000 1007 
f 1000 1004 1007 
f 995 993 1008 
f 993 1003 1008 
f 1003 995 1008 
f 995 997 1009 
f 1000 995 1009 
f 997 1000 1009 
f 1004 994 1010 
f 994 1007 1010 
o convex_54
v 0.019778 0.009079 0.007296
v 0.025367 0.009359 0.009253
v 0.025367 0.008800 0.009253
v 0.017542 0.006844 0.009253
v 0.017542 0.009359 0.009253
v 0.019498 0.006844 0.008694
v 0.025367 0.009359 0.008135
v 0.017542 0.009359 0.007576
f 1015 1017 1018 
f 1013 1012 1014 
f 1014 1012 1015 
f 1013 1014 1016 
f 1012 1013 1017 
f 1015 1012 1017 
f 1016 1011 1017 
f 1013 1016 1017 
f 1014 1015 1018 
f 1011 1016 1018 
f 1016 1014 1018 
f 1017 1011 1018 
