# https://github.com/mikedh/trimesh

o head1.stl
v 0.00479525 0.03550380 0.02286326
v 0.01372259 0.03551089 0.01889365
v -0.00485158 0.03549611 0.02286338
v -0.01377916 0.03548902 0.01889365
v 0.01732349 0.03551375 0.01565045
v -0.00002827 0.03549998 0.01699948
v -0.01738023 0.03548616 0.01565027
v -0.00852692 0.03549319 0.01472276
v -0.02078884 0.03548341 0.01072245
v -0.01474976 0.03548824 0.00850135
v -0.01702821 0.03548640 0.00000000
v -0.02339482 0.03548133 0.00000000
v -0.01474976 0.03548824 -0.00850135
v -0.00852692 0.03549319 -0.01472276
v -0.02339482 0.03548133 -0.02999997
v 0.02333831 0.03551858 -0.02999997
v -0.00002827 0.03549998 -0.01699948
v 0.00847036 0.03550672 -0.01472276
v 0.01469320 0.03551167 -0.00850135
v 0.01697170 0.03551352 0.00000000
v 0.02333831 0.03551858 0.00000000
v 0.01469320 0.03551167 0.00850135
v 0.02073228 0.03551650 0.01072257
v 0.00847036 0.03550672 0.01472276
v -0.00002681 0.03159993 0.02841949
v -0.00963318 0.03159230 0.02674627
v 0.00958025 0.03160762 0.02674728
v 0.01856380 0.03161478 0.02150005
v -0.01861572 0.03158515 0.02149868
v -0.00002516 0.03159993 0.01699948
v 0.02379250 0.03161895 0.01550155
v 0.00847345 0.03160673 0.01472276
v 0.02578628 0.03162050 0.01189267
v 0.01469630 0.03161168 0.00850135
v 0.01697480 0.03161352 0.00000000
v 0.02839469 0.03162258 0.00000000
v 0.01469630 0.03161168 -0.00850135
v 0.00847345 0.03160673 -0.01472276
v 0.02839469 0.03162258 -0.04199999
v -0.02844500 0.03157734 -0.04199999
v -0.00002516 0.03159993 -0.01699948
v -0.00852382 0.03159320 -0.01472276
v -0.01474660 0.03158825 -0.00850135
v -0.01702511 0.03158640 0.00000000
v -0.02844500 0.03157734 0.00000000
v -0.01474660 0.03158825 0.00850135
v -0.02583664 0.03157943 0.01189255
v -0.00852382 0.03159320 0.01472276
v -0.02384191 0.03158098 0.01550269
v 0.00002681 -0.03159993 0.02841949
v 0.00963318 -0.03159230 0.02674627
v -0.00958025 -0.03160762 0.02674728
v -0.01856380 -0.03161478 0.02150005
v 0.01861572 -0.03158515 0.02149868
v 0.00002516 -0.03159993 0.01699948
v -0.02379250 -0.03161895 0.01550155
v -0.00847345 -0.03160673 0.01472276
v -0.02578628 -0.03162050 0.01189267
v -0.01469630 -0.03161168 0.00850135
v -0.01697480 -0.03161352 0.00000000
v -0.02839469 -0.03162258 0.00000000
v -0.01469630 -0.03161168 -0.00850135
v -0.00847345 -0.03160673 -0.01472276
v -0.02839469 -0.03162258 -0.04199999
v 0.02844500 -0.03157734 -0.04199999
v 0.00002516 -0.03159993 -0.01699948
v 0.00852382 -0.03159320 -0.01472276
v 0.01474660 -0.03158825 -0.00850135
v 0.01702511 -0.03158640 0.00000000
v 0.02844500 -0.03157734 0.00000000
v 0.01474660 -0.03158825 0.00850135
v 0.02583664 -0.03157943 0.01189255
v 0.00852382 -0.03159320 0.01472276
v 0.02384191 -0.03158098 0.01550269
v -0.00479525 -0.03550380 0.02286326
v -0.01372259 -0.03551089 0.01889365
v 0.00485158 -0.03549611 0.02286338
v 0.01377916 -0.03548902 0.01889365
v -0.01732349 -0.03551375 0.01565045
v 0.00002827 -0.03549998 0.01699948
v 0.01738023 -0.03548616 0.01565027
v 0.00852692 -0.03549319 0.01472276
v 0.02078884 -0.03548341 0.01072245
v 0.01474976 -0.03548824 0.00850135
v 0.01702821 -0.03548640 0.00000000
v 0.02339482 -0.03548133 0.00000000
v 0.01474976 -0.03548824 -0.00850135
v 0.00852692 -0.03549319 -0.01472276
v 0.02339482 -0.03548133 -0.02999997
v -0.02333831 -0.03551858 -0.02999997
v 0.00002827 -0.03549998 -0.01699948
v -0.00847036 -0.03550672 -0.01472276
v -0.01469320 -0.03551167 -0.00850135
v -0.01697170 -0.03551352 0.00000000
v -0.02333831 -0.03551858 0.00000000
v -0.01469320 -0.03551167 0.00850135
v -0.02073228 -0.03551650 0.01072257
v -0.00847036 -0.03550672 0.01472276
v -0.01166385 -0.04086810 -0.03535878
v 0.00003384 -0.04249995 -0.03700000
v 0.01172858 -0.04084956 -0.03535884
v 0.01166385 0.04086810 -0.03535878
v -0.00003384 0.04249995 -0.03700000
v -0.01172858 0.04084956 -0.03535884
v -0.04185944 0.00734836 -0.10000000
v -0.03682297 0.02122068 -0.10000000
v -0.04184770 -0.00741500 -0.10000000
v -0.03678911 -0.02127927 -0.10000000
v -0.02734547 0.03253370 -0.10000000
v -0.02729362 -0.03257721 -0.10000000
v -0.01456588 0.03992557 -0.10000000
v -0.01450228 -0.03994876 -0.10000000
v -0.00003384 0.04249995 -0.10000000
v 0.00003384 -0.04249995 -0.10000000
v 0.01450228 0.03994876 -0.10000000
v 0.01456588 -0.03992557 -0.10000000
v 0.02729362 0.03257721 -0.10000000
v 0.02734547 -0.03253370 -0.10000000
v 0.03678911 0.02127927 -0.10000000
v 0.03682297 -0.02122068 -0.10000000
v 0.04184770 0.00741500 -0.10000000
v 0.04185944 -0.00734836 -0.10000000
v -0.04189729 -0.00712865 -0.04199999
v -0.03721576 -0.02052360 -0.04199999
v -0.04190862 0.00706196 -0.04199999
v -0.03724837 0.02046430 -0.04199999
v 0.03724837 -0.02046430 -0.04199999
v 0.03721576 0.02052360 -0.04199999
v 0.04190862 -0.00706196 -0.04199999
v 0.04189729 0.00712865 -0.04199999
v 0.02599334 -0.03362429 0.00000000
v -0.02593976 -0.03366565 0.00000000
v -0.02599334 0.03362429 0.00000000
v 0.02593976 0.03366565 0.00000000
f 1 2 3
f 3 2 4
f 2 5 4
f 4 5 6
f 4 6 7
f 7 6 8
f 7 8 9
f 9 8 10
f 9 10 11
f 9 11 12
f 12 11 13
f 12 13 14
f 12 14 15
f 15 14 16
f 14 17 16
f 16 17 18
f 16 18 19
f 19 20 16
f 16 20 21
f 20 22 21
f 21 22 23
f 22 24 23
f 23 24 5
f 5 24 6
f 25 26 27
f 27 26 28
f 26 29 28
f 28 29 30
f 28 30 31
f 31 30 32
f 31 32 33
f 33 32 34
f 33 34 35
f 33 35 36
f 36 35 37
f 36 37 38
f 36 38 39
f 39 38 40
f 38 41 40
f 40 41 42
f 40 42 43
f 43 44 40
f 40 44 45
f 44 46 45
f 45 46 47
f 46 48 47
f 47 48 49
f 48 30 49
f 49 30 29
f 50 51 52
f 52 51 53
f 51 54 53
f 53 54 55
f 53 55 56
f 56 55 57
f 56 57 58
f 58 57 59
f 58 59 60
f 58 60 61
f 61 60 62
f 61 62 63
f 61 63 64
f 64 63 65
f 63 66 65
f 65 66 67
f 65 67 68
f 68 69 65
f 65 69 70
f 69 71 70
f 70 71 72
f 71 73 72
f 72 73 74
f 73 55 74
f 74 55 54
f 75 76 77
f 77 76 78
f 76 79 78
f 78 79 80
f 78 80 81
f 81 80 82
f 81 82 83
f 83 82 84
f 83 84 85
f 83 85 86
f 86 85 87
f 86 87 88
f 86 88 89
f 89 88 90
f 88 91 90
f 90 91 92
f 90 92 93
f 93 94 90
f 90 94 95
f 94 96 95
f 95 96 97
f 96 98 97
f 97 98 79
f 79 98 80
f 99 100 90
f 90 100 101
f 90 101 89
f 102 103 16
f 16 103 104
f 16 104 15
f 105 106 107
f 107 106 108
f 106 109 108
f 108 109 110
f 109 111 110
f 110 111 112
f 111 113 112
f 112 113 114
f 113 115 114
f 114 115 116
f 115 117 116
f 116 117 118
f 117 119 118
f 118 119 120
f 119 121 120
f 120 121 122
f 123 124 125
f 125 124 126
f 124 64 126
f 126 64 40
f 64 65 40
f 40 65 39
f 65 127 39
f 39 127 128
f 127 129 128
f 128 129 130
f 65 70 131
f 131 70 72
f 131 72 74
f 74 86 131
f 131 86 118
f 131 118 65
f 65 118 120
f 65 120 127
f 127 120 122
f 127 122 129
f 129 122 121
f 129 121 130
f 130 121 128
f 121 119 128
f 128 119 39
f 119 117 39
f 39 117 36
f 86 89 118
f 118 89 116
f 89 101 116
f 116 101 100
f 116 100 114
f 114 100 99
f 114 99 112
f 112 99 90
f 112 90 110
f 110 90 132
f 110 132 61
f 61 132 58
f 58 132 56
f 56 132 95
f 56 95 97
f 95 132 90
f 97 79 56
f 56 79 53
f 79 76 53
f 53 76 52
f 76 75 52
f 52 75 50
f 75 77 50
f 50 77 51
f 77 78 51
f 51 78 81
f 51 81 54
f 54 81 74
f 81 83 74
f 74 83 86
f 61 64 110
f 110 64 108
f 64 124 108
f 108 124 107
f 124 123 107
f 107 123 125
f 107 125 105
f 105 125 126
f 105 126 106
f 106 126 40
f 106 40 109
f 109 40 133
f 109 133 12
f 12 133 49
f 12 49 9
f 9 49 7
f 49 29 7
f 7 29 26
f 7 26 4
f 4 26 3
f 26 25 3
f 3 25 1
f 25 27 1
f 1 27 2
f 27 28 2
f 2 28 5
f 28 31 5
f 5 31 23
f 23 31 21
f 21 31 134
f 21 134 16
f 16 134 117
f 16 117 115
f 16 115 102
f 102 115 113
f 102 113 103
f 103 113 111
f 103 111 104
f 104 111 15
f 111 109 15
f 15 109 12
f 117 134 36
f 36 134 33
f 134 31 33
f 49 133 47
f 47 133 45
f 133 40 45
f 38 37 18
f 18 37 19
f 37 35 19
f 19 35 20
f 35 34 20
f 20 34 22
f 34 32 22
f 22 32 24
f 32 30 24
f 24 30 6
f 30 48 6
f 6 48 8
f 48 46 8
f 8 46 10
f 46 44 10
f 10 44 11
f 44 43 11
f 11 43 13
f 43 42 13
f 13 42 14
f 42 41 14
f 14 41 17
f 41 38 17
f 17 38 18
f 88 87 67
f 67 87 68
f 87 85 68
f 68 85 69
f 85 84 69
f 69 84 71
f 84 82 71
f 71 82 73
f 82 80 73
f 73 80 55
f 80 98 55
f 55 98 57
f 98 96 57
f 57 96 59
f 96 94 59
f 59 94 60
f 94 93 60
f 60 93 62
f 93 92 62
f 62 92 63
f 92 91 63
f 63 91 66
f 91 88 66
f 66 88 67

