o convex_0
v 0.040035 -0.015186 -0.041468
v 0.028680 -0.030789 -0.100349
v 0.028680 0.000425 -0.100349
v -0.042262 -0.008802 -0.041474
v -0.002527 -0.042855 -0.040763
v -0.036584 -0.022982 -0.100343
v -0.042262 0.000421 -0.100343
v 0.042167 0.000425 -0.041468
v -0.002527 -0.042855 -0.100343
v -0.042262 0.000421 -0.041474
v -0.024518 -0.035754 -0.040763
v 0.042167 -0.008802 -0.100349
v 0.024423 -0.035754 -0.040763
v -0.014593 -0.040720 -0.100343
v 0.014498 -0.040720 -0.100343
v 0.042167 0.000425 -0.100349
v 0.037200 -0.022274 -0.100349
v -0.038006 -0.020859 -0.041474
v -0.027361 -0.033628 -0.100343
v 0.012366 -0.041435 -0.040763
v -0.042262 -0.008802 -0.100343
v 0.036489 -0.022986 -0.041468
v 0.027258 -0.033628 -0.100343
v -0.012461 -0.041435 -0.040763
v -0.028783 -0.032209 -0.040763
v 0.042167 -0.008802 -0.041468
v 0.030812 -0.030078 -0.041468
v 0.002432 -0.042855 -0.100343
v -0.030907 -0.030082 -0.048567
v 0.002432 -0.042855 -0.040763
v 0.028680 -0.032209 -0.040763
v -0.038708 -0.018732 -0.088998
v 0.030101 -0.030789 -0.100349
v 0.037903 -0.020859 -0.041468
v 0.037903 -0.020859 -0.100349
v 0.018754 -0.038593 -0.100343
v 0.015911 -0.040012 -0.043603
v -0.018849 -0.038593 -0.096797
v -0.029485 -0.031501 -0.100343
v -0.017427 -0.039305 -0.040763
v 0.026556 -0.034335 -0.075517
v -0.008204 -0.042139 -0.060631
v -0.036584 -0.022982 -0.060631
v -0.028064 -0.031497 -0.040763
f 25 31 44 
f 3 2 7 
f 7 4 10 
f 3 7 10 
f 8 3 10 
f 2 3 12 
f 11 5 13 
f 2 9 14 
f 3 8 16 
f 12 3 16 
f 8 12 16 
f 2 12 17 
f 2 14 19 
f 13 5 20 
f 2 6 21 
f 4 7 21 
f 7 2 21 
f 18 4 21 
f 5 11 24 
f 10 4 25 
f 11 13 25 
f 4 18 25 
f 19 11 25 
f 1 12 26 
f 12 8 26 
f 17 22 27 
f 9 2 28 
f 5 9 28 
f 15 20 28 
f 25 18 29 
f 19 25 29 
f 20 5 30 
f 5 28 30 
f 28 20 30 
f 25 13 31 
f 1 26 31 
f 26 8 31 
f 27 22 31 
f 6 18 32 
f 21 6 32 
f 18 21 32 
f 2 17 33 
f 17 27 33 
f 28 2 33 
f 15 28 33 
f 22 17 34 
f 1 31 34 
f 31 22 34 
f 12 1 35 
f 17 12 35 
f 1 34 35 
f 34 17 35 
f 15 33 36 
f 33 23 36 
f 13 20 37 
f 20 15 37 
f 36 13 37 
f 15 36 37 
f 11 19 38 
f 19 14 38 
f 6 2 39 
f 2 19 39 
f 29 6 39 
f 19 29 39 
f 24 11 40 
f 14 24 40 
f 11 38 40 
f 38 14 40 
f 31 13 41 
f 27 31 41 
f 23 33 41 
f 33 27 41 
f 13 36 41 
f 36 23 41 
f 9 5 42 
f 14 9 42 
f 5 24 42 
f 24 14 42 
f 18 6 43 
f 6 29 43 
f 29 18 43 
f 8 10 44 
f 10 25 44 
f 31 8 44 
o convex_1
v 0.030812 0.030219 -0.053532
v 0.029390 0.000425 -0.100349
v 0.029390 0.030219 -0.100349
v -0.042262 0.000425 -0.041474
v -0.028072 0.033057 -0.100343
v 0.042167 0.000425 -0.041468
v -0.011750 0.041574 -0.040763
v -0.042262 0.000425 -0.100343
v 0.001721 0.042995 -0.100343
v -0.038006 0.021001 -0.041474
v 0.013787 0.040861 -0.040763
v 0.042167 0.008942 -0.100349
v 0.037903 0.021001 -0.041468
v -0.040130 0.014618 -0.100343
v -0.027361 0.033769 -0.040763
v 0.015911 0.040153 -0.100343
v -0.016006 0.040153 -0.100343
v 0.042167 0.000425 -0.100349
v 0.036489 0.023122 -0.100349
v 0.024423 0.035894 -0.040763
v -0.042262 0.008234 -0.041474
v 0.001721 0.042995 -0.040763
v 0.027969 0.033057 -0.100343
v 0.042167 0.008942 -0.041468
v -0.035874 0.023835 -0.100343
v -0.042262 0.008234 -0.100343
v -0.023105 0.036607 -0.040763
v -0.001816 0.042995 -0.100343
v -0.030196 0.030927 -0.041474
v 0.028680 0.032348 -0.040763
v 0.011655 0.041574 -0.054955
v 0.038613 0.018872 -0.100349
v -0.001816 0.042995 -0.040763
v 0.014498 0.040861 -0.087574
v -0.038006 0.020293 -0.100343
v -0.013882 0.040861 -0.100343
v -0.028783 0.030927 -0.040763
v 0.027258 0.033769 -0.093962
v -0.013882 0.040861 -0.040763
v 0.040746 0.013201 -0.084739
v -0.025940 0.034477 -0.098220
v 0.029390 0.031640 -0.098220
v 0.037903 0.021001 -0.080481
v 0.018754 0.038732 -0.046438
v 0.036489 0.023122 -0.065595
f 57 63 89 
f 48 46 50 
f 47 46 52 
f 46 48 52 
f 46 47 56 
f 55 51 59 
f 47 53 60 
f 47 49 61 
f 50 46 62 
f 46 56 62 
f 56 50 62 
f 56 47 63 
f 55 59 64 
f 52 48 65 
f 51 55 66 
f 47 60 67 
f 63 47 67 
f 50 56 68 
f 49 47 69 
f 47 52 70 
f 58 47 70 
f 54 58 70 
f 52 65 70 
f 65 54 70 
f 49 59 71 
f 59 51 71 
f 53 47 72 
f 66 53 72 
f 59 49 73 
f 54 59 73 
f 49 69 73 
f 69 54 73 
f 57 45 74 
f 64 59 74 
f 50 68 74 
f 68 57 74 
f 53 66 75 
f 66 55 75 
f 56 63 76 
f 51 66 77 
f 72 51 77 
f 66 72 77 
f 60 53 78 
f 64 60 78 
f 53 75 78 
f 75 55 78 
f 47 58 79 
f 58 54 79 
f 69 47 79 
f 54 69 79 
f 47 61 80 
f 61 51 80 
f 72 47 80 
f 51 72 80 
f 48 50 81 
f 59 54 81 
f 65 48 81 
f 54 65 81 
f 50 74 81 
f 74 59 81 
f 60 64 82 
f 67 60 82 
f 64 74 82 
f 51 61 83 
f 71 51 83 
f 61 71 83 
f 68 56 84 
f 57 68 84 
f 56 76 84 
f 61 49 85 
f 49 71 85 
f 71 61 85 
f 45 63 86 
f 63 67 86 
f 74 45 86 
f 67 82 86 
f 82 74 86 
f 63 57 87 
f 76 63 87 
f 57 84 87 
f 84 76 87 
f 55 64 88 
f 78 55 88 
f 64 78 88 
f 45 57 89 
f 63 45 89 
o convex_2
v -0.008205 -0.042144 -0.040757
v 0.028687 -0.031503 -0.030114
v 0.028687 -0.032214 -0.030114
v -0.028783 -0.032214 -0.030114
v -0.028783 -0.031503 -0.040757
v 0.028687 -0.031503 -0.040757
v 0.012367 -0.041436 -0.035081
v -0.023107 -0.036470 -0.030114
v 0.012367 -0.041436 -0.040757
v 0.023011 -0.036470 -0.030114
v -0.002529 -0.042855 -0.036498
v -0.024524 -0.035761 -0.040757
v -0.028783 -0.031503 -0.030114
v 0.024428 -0.035761 -0.040757
v -0.012463 -0.041436 -0.035081
v 0.002433 -0.042855 -0.040757
v -0.012463 -0.041436 -0.040757
f 90 104 106 
f 92 91 93 
f 94 91 95 
f 91 92 95 
f 90 94 95 
f 92 93 97 
f 90 95 98 
f 96 98 99 
f 92 97 99 
f 99 97 100 
f 96 99 100 
f 94 90 101 
f 93 94 101 
f 97 93 101 
f 93 91 102 
f 94 93 102 
f 91 94 102 
f 95 92 103 
f 98 95 103 
f 99 98 103 
f 92 99 103 
f 100 97 104 
f 90 100 104 
f 90 98 105 
f 98 96 105 
f 100 90 105 
f 96 100 105 
f 101 90 106 
f 97 101 106 
f 104 97 106 
o convex_3
v -0.028783 0.032352 -0.040757
v 0.001724 0.042995 -0.036498
v 0.024428 0.035901 -0.029405
v 0.028687 0.030933 -0.040757
v -0.028783 0.030933 -0.029405
v 0.011658 0.041576 -0.040757
v 0.028687 0.030933 -0.029405
v -0.023107 0.036610 -0.030115
v -0.011755 0.041576 -0.040757
v -0.028783 0.030933 -0.040757
v 0.024428 0.035901 -0.040757
v 0.012367 0.041576 -0.035081
v -0.011755 0.041576 -0.035081
v -0.023107 0.036610 -0.040757
v -0.027360 0.033772 -0.029405
v -0.001820 0.042995 -0.040757
v 0.028687 0.032352 -0.029405
v -0.023816 0.035901 -0.029405
v 0.028687 0.032352 -0.040757
f 117 123 125 
f 110 107 112 
f 111 110 113 
f 109 111 113 
f 112 107 115 
f 107 110 116 
f 111 107 116 
f 110 111 116 
f 110 112 117 
f 117 112 118 
f 108 109 118 
f 112 108 118 
f 109 117 118 
f 115 114 119 
f 115 107 120 
f 114 115 120 
f 107 111 121 
f 111 109 121 
f 120 107 121 
f 114 120 121 
f 108 112 122 
f 112 115 122 
f 119 108 122 
f 115 119 122 
f 109 113 123 
f 113 110 123 
f 117 109 123 
f 109 108 124 
f 108 119 124 
f 119 114 124 
f 121 109 124 
f 114 121 124 
f 110 117 125 
f 123 110 125 
o convex_4
v -0.028070 -0.032922 0.001808
v -0.001112 -0.031504 -0.015921
v -0.001112 -0.035760 -0.015921
v -0.028783 -0.031503 -0.030114
v -0.024525 -0.035760 -0.030114
v -0.014593 -0.035760 0.007487
v -0.024525 -0.031503 0.014584
v -0.001112 -0.031504 -0.030114
v -0.001112 -0.035760 -0.030114
v -0.023103 -0.035760 0.006065
v -0.014593 -0.031504 0.007487
v -0.028783 -0.031503 0.001808
v -0.025234 -0.032213 0.014584
v -0.024525 -0.035760 0.001099
v -0.026654 -0.034340 -0.028688
v -0.028783 -0.032213 -0.030114
f 130 140 141 
f 128 127 131 
f 130 128 131 
f 127 128 133 
f 130 129 133 
f 132 127 133 
f 129 132 133 
f 128 130 134 
f 133 128 134 
f 130 133 134 
f 130 131 135 
f 131 127 136 
f 127 132 136 
f 132 131 136 
f 132 129 137 
f 132 137 138 
f 131 132 138 
f 126 135 138 
f 135 131 138 
f 137 126 138 
f 135 126 139 
f 130 135 139 
f 139 126 140 
f 130 139 140 
f 129 130 141 
f 126 137 141 
f 137 129 141 
f 140 126 141 
o convex_5
v -0.001112 0.030933 -0.016629
v 0.028687 0.031643 0.002519
v 0.027266 0.032353 0.008900
v 0.024428 0.035900 -0.029400
v 0.013078 0.035900 0.009615
v -0.001112 0.035900 -0.029400
v 0.028687 0.030933 -0.029400
v 0.013078 0.030933 0.009615
v -0.001112 0.030933 -0.029400
v 0.024428 0.035900 0.000392
v 0.025137 0.030933 0.014584
v -0.001112 0.035900 -0.016629
v 0.021587 0.035900 0.009615
v 0.028687 0.032353 -0.029400
v 0.027266 0.033771 0.001098
v 0.024428 0.032353 0.014584
v 0.028687 0.030933 0.002519
f 152 148 158 
f 146 145 147 
f 147 145 148 
f 146 142 149 
f 142 148 149 
f 142 147 150 
f 148 142 150 
f 147 148 150 
f 145 146 151 
f 149 148 152 
f 142 146 153 
f 147 142 153 
f 146 147 153 
f 144 151 154 
f 151 146 154 
f 143 148 155 
f 148 145 155 
f 144 143 156 
f 151 144 156 
f 145 151 156 
f 143 155 156 
f 155 145 156 
f 146 149 157 
f 152 144 157 
f 149 152 157 
f 144 154 157 
f 154 146 157 
f 143 144 158 
f 148 143 158 
f 144 152 158 
o convex_6
v 0.004557 -0.034340 0.025935
v -0.024526 -0.033631 0.007491
v -0.024526 -0.031504 0.007491
v 0.024430 -0.031504 0.007491
v 0.022297 -0.035760 0.007491
v -0.006786 -0.031503 0.028064
v -0.015301 -0.035760 0.019547
v 0.018751 -0.031504 0.022385
v -0.022393 -0.035760 0.007491
v 0.013786 -0.035760 0.020256
v -0.024526 -0.032213 0.016004
v 0.024430 -0.032213 0.016004
v -0.006077 -0.035760 0.023806
v 0.010236 -0.032212 0.027356
v -0.018847 -0.031504 0.022385
v -0.010332 -0.032212 0.027356
v 0.019460 -0.035760 0.015299
v -0.002526 -0.032212 0.028774
v -0.020975 -0.035760 0.013170
v 0.018751 -0.032213 0.022385
v 0.005980 -0.035760 0.023806
v 0.006689 -0.031503 0.028064
f 164 176 180 
f 160 161 162 
f 160 162 163 
f 162 161 164 
f 160 163 167 
f 163 165 167 
f 165 163 168 
f 161 160 169 
f 160 167 169 
f 163 162 170 
f 162 166 170 
f 165 168 171 
f 164 161 173 
f 161 169 173 
f 169 165 173 
f 165 171 174 
f 164 173 174 
f 173 165 174 
f 168 163 175 
f 163 170 175 
f 171 159 176 
f 159 172 176 
f 164 174 176 
f 174 171 176 
f 167 165 177 
f 165 169 177 
f 169 167 177 
f 170 166 178 
f 166 172 178 
f 172 168 178 
f 168 175 178 
f 175 170 178 
f 159 171 179 
f 171 168 179 
f 172 159 179 
f 168 172 179 
f 162 164 180 
f 166 162 180 
f 172 166 180 
f 176 172 180 
o convex_7
v -0.028071 0.030933 0.005349
v -0.001112 0.035900 -0.015919
v -0.001112 0.030933 -0.015919
v -0.028783 0.030933 -0.029400
v -0.021686 0.035900 0.009616
v -0.023815 0.035900 -0.029400
v -0.001112 0.030933 -0.029400
v -0.013174 0.030933 0.009616
v -0.001112 0.035900 -0.029400
v -0.013174 0.035900 0.009616
v -0.024525 0.030933 0.016003
v -0.027364 0.033771 0.000389
v -0.028783 0.032353 -0.029400
v -0.024525 0.032353 0.016003
v -0.028783 0.032353 0.001807
v -0.023815 0.035900 0.002518
v -0.026654 0.032353 0.011745
f 185 196 197 
f 183 181 184 
f 185 182 186 
f 182 183 187 
f 183 184 187 
f 184 186 187 
f 181 183 188 
f 183 182 188 
f 186 182 189 
f 182 187 189 
f 187 186 189 
f 182 185 190 
f 188 182 190 
f 188 190 191 
f 181 188 191 
f 192 186 193 
f 186 184 193 
f 190 185 194 
f 191 190 194 
f 184 181 195 
f 192 193 195 
f 193 184 195 
f 185 186 196 
f 186 192 196 
f 196 192 197 
f 181 191 197 
f 194 185 197 
f 191 194 197 
f 192 195 197 
f 195 181 197 
o convex_8
v -0.001112 -0.035760 -0.016629
v 0.028687 -0.031503 0.002517
v 0.027975 -0.031503 0.006065
v -0.001112 -0.031504 -0.030114
v 0.024428 -0.035760 -0.030114
v 0.028687 -0.031503 -0.030114
v 0.014493 -0.035760 0.007487
v 0.014493 -0.031504 0.007487
v -0.001112 -0.035760 -0.030114
v 0.023007 -0.035760 0.006779
v -0.001112 -0.031504 -0.016629
v 0.025137 -0.031503 0.014584
v 0.026557 -0.034340 0.001095
v 0.028687 -0.032213 -0.030114
v 0.025137 -0.032213 0.014584
v 0.028687 -0.032213 0.002517
f 200 212 213 
f 200 199 203 
f 202 201 203 
f 198 202 204 
f 198 204 205 
f 198 201 206 
f 202 198 206 
f 201 202 206 
f 204 202 207 
f 201 198 208 
f 198 205 208 
f 208 205 209 
f 200 203 209 
f 203 201 209 
f 205 204 209 
f 201 208 209 
f 207 202 210 
f 210 202 211 
f 203 199 211 
f 202 203 211 
f 204 207 212 
f 200 209 212 
f 209 204 212 
f 207 210 212 
f 212 210 213 
f 199 200 213 
f 210 211 213 
f 211 199 213 
o convex_9
v 0.006692 0.030933 0.028064
v -0.023816 0.030933 0.009618
v -0.023816 0.030933 0.016713
v 0.018753 0.035900 0.016004
v 0.024430 0.030933 0.009618
v -0.021686 0.035900 0.009618
v -0.006074 0.035900 0.023807
v 0.021591 0.035900 0.009618
v -0.010329 0.032353 0.027353
v 0.018744 0.032352 0.022387
v 0.005974 0.035900 0.023807
v -0.018140 0.035900 0.016713
v 0.024430 0.030933 0.016004
v -0.010329 0.030933 0.027353
v 0.001719 0.032353 0.028774
v -0.018839 0.032352 0.022387
v 0.010234 0.032353 0.027353
v -0.023816 0.033064 0.015294
v 0.024430 0.032352 0.016004
v 0.013780 0.035900 0.020259
v 0.018744 0.030933 0.022387
v -0.013880 0.035900 0.020259
f 225 229 235 
f 216 215 214 
f 214 215 218 
f 218 215 219 
f 217 219 220 
f 218 219 221 
f 219 217 221 
f 217 220 224 
f 220 219 225 
f 214 218 226 
f 216 214 227 
f 222 227 228 
f 220 222 228 
f 224 220 228 
f 227 214 228 
f 216 227 229 
f 227 222 229 
f 228 214 230 
f 224 228 230 
f 215 216 231 
f 219 215 231 
f 225 219 231 
f 216 229 231 
f 229 225 231 
f 221 217 232 
f 218 221 232 
f 217 223 232 
f 226 218 232 
f 223 226 232 
f 223 217 233 
f 217 224 233 
f 230 223 233 
f 224 230 233 
f 214 226 234 
f 226 223 234 
f 230 214 234 
f 223 230 234 
f 222 220 235 
f 220 225 235 
f 229 222 235 
