o convex_0
v 0.161976 -0.128634 -0.007743
v -0.085967 -0.201989 -0.003762
v -0.085967 -0.201989 0.004121
v -0.038349 -0.015590 0.021983
v 0.074676 -0.207930 0.097357
v 0.062784 -0.231748 -0.093018
v 0.005289 -0.094913 -0.091057
v 0.126250 -0.017571 0.018023
v 0.088583 -0.279332 0.018023
v -0.002648 -0.094940 0.089415
v -0.050241 -0.233729 0.069592
v -0.044295 -0.243657 -0.063272
v 0.110402 -0.027473 -0.043449
v 0.156005 -0.231748 0.027944
v 0.124284 -0.219839 -0.077155
v -0.030413 -0.015590 -0.033527
v 0.130230 -0.094940 0.059670
v -0.068104 -0.120712 -0.047410
v 0.025117 -0.283319 -0.025586
v -0.068104 -0.116751 0.045788
v 0.056838 -0.267449 0.065631
v 0.052858 -0.120712 -0.096979
v 0.084603 -0.029480 0.051729
v -0.044295 -0.263488 0.014042
v 0.110402 -0.265469 -0.041468
v -0.022476 -0.205950 -0.089057
v 0.146103 -0.092933 -0.045429
v 0.132221 -0.223800 0.069572
v 0.048902 -0.108803 0.095376
v 0.003298 -0.219839 0.095376
v 0.154039 -0.231748 -0.033527
v 0.156005 -0.122692 0.037866
v -0.076040 -0.108803 -0.009723
v 0.148069 -0.041362 -0.011703
v 0.011235 -0.279332 0.033885
v -0.066114 -0.233729 -0.051370
v 0.033053 -0.257547 -0.077174
v -0.042329 -0.108829 -0.073194
v -0.036359 -0.098901 0.075533
v -0.014540 -0.015590 0.037846
v -0.074050 -0.235709 0.031905
v 0.124284 -0.114771 -0.067233
v 0.070720 -0.029480 -0.053351
v 0.106422 -0.255540 0.063631
v 0.114358 -0.015590 -0.021625
v 0.082613 -0.198002 -0.096998
v 0.015215 -0.217859 -0.096998
v -0.040339 -0.180178 0.081494
v 0.104431 -0.207957 0.089415
v 0.138167 -0.037402 0.029905
v 0.132221 -0.259501 0.010081
v -0.079996 -0.166315 0.035866
v 0.084603 -0.261481 -0.067253
v 0.025117 -0.249599 0.083474
v -0.066114 -0.196048 -0.059312
v -0.026457 -0.269429 -0.029547
v 0.148069 -0.126680 -0.051370
v 0.076667 -0.239670 0.087435
v -0.076040 -0.237690 -0.019645
v -0.081986 -0.172256 -0.031547
v 0.066764 -0.279358 -0.039468
v 0.009245 -0.162301 0.097357
v -0.014540 -0.259527 0.061650
v -0.064148 -0.172256 0.061650
f 52 41 64 
f 23 10 29 
f 17 23 29 
f 1 14 31 
f 25 15 31 
f 14 1 32 
f 28 14 32 
f 17 28 32 
f 2 3 33 
f 4 16 33 
f 16 18 33 
f 20 4 33 
f 1 27 34 
f 27 13 34 
f 32 1 34 
f 19 9 35 
f 9 21 35 
f 26 12 36 
f 16 7 38 
f 18 16 38 
f 7 26 38 
f 4 20 39 
f 16 4 40 
f 23 8 40 
f 10 23 40 
f 4 39 40 
f 39 10 40 
f 24 11 41 
f 22 13 42 
f 13 27 42 
f 7 16 43 
f 22 7 43 
f 13 22 43 
f 21 9 44 
f 14 28 44 
f 8 34 45 
f 34 13 45 
f 16 40 45 
f 40 8 45 
f 43 16 45 
f 13 43 45 
f 15 6 46 
f 22 42 46 
f 42 15 46 
f 7 22 47 
f 12 26 47 
f 26 7 47 
f 37 12 47 
f 6 37 47 
f 46 6 47 
f 22 46 47 
f 11 30 48 
f 10 39 48 
f 28 17 49 
f 29 5 49 
f 17 29 49 
f 8 23 50 
f 23 17 50 
f 17 32 50 
f 34 8 50 
f 32 34 50 
f 9 25 51 
f 31 14 51 
f 25 31 51 
f 44 9 51 
f 14 44 51 
f 33 3 52 
f 20 33 52 
f 3 41 52 
f 6 15 53 
f 15 25 53 
f 37 6 53 
f 30 11 54 
f 26 36 55 
f 18 38 55 
f 38 26 55 
f 19 35 56 
f 35 24 56 
f 36 12 56 
f 12 37 56 
f 37 19 56 
f 27 1 57 
f 1 31 57 
f 31 15 57 
f 15 42 57 
f 42 27 57 
f 5 30 58 
f 21 44 58 
f 44 28 58 
f 28 49 58 
f 49 5 58 
f 30 54 58 
f 54 21 58 
f 3 2 59 
f 41 3 59 
f 24 41 59 
f 56 24 59 
f 36 56 59 
f 2 33 60 
f 33 18 60 
f 18 55 60 
f 55 36 60 
f 59 2 60 
f 36 59 60 
f 9 19 61 
f 25 9 61 
f 19 37 61 
f 53 25 61 
f 37 53 61 
f 5 29 62 
f 29 10 62 
f 30 5 62 
f 10 48 62 
f 48 30 62 
f 11 24 63 
f 35 21 63 
f 24 35 63 
f 54 11 63 
f 21 54 63 
f 39 20 64 
f 41 11 64 
f 11 48 64 
f 48 39 64 
f 20 52 64 
o convex_1
v -0.040345 -0.005645 -0.023622
v 0.035030 -0.013577 0.033890
v 0.031062 -0.003659 0.035881
v 0.013206 0.036005 -0.041460
v -0.014554 0.036005 0.041818
v 0.033046 -0.015564 -0.035522
v -0.030425 -0.015564 0.033890
v -0.042329 0.022123 -0.009731
v 0.013206 0.036005 0.041818
v -0.008602 0.037992 -0.043459
v -0.026457 -0.015564 -0.035522
v 0.029078 0.012205 0.000179
v -0.042329 0.004273 0.020008
v 0.001303 -0.013577 0.039836
v -0.040345 -0.015564 0.020008
v 0.007255 -0.015564 -0.039478
v -0.034393 0.004273 -0.033532
v 0.031062 -0.015564 0.035881
v 0.005271 0.037992 0.043817
v -0.042329 0.022123 0.010089
v 0.035030 -0.013577 -0.033532
v -0.036377 0.004273 0.031908
v -0.040345 -0.015564 -0.019649
v 0.007255 0.037992 -0.043459
v -0.014554 0.036005 -0.041460
v -0.006618 0.037992 0.043817
v -0.022489 -0.007627 0.037854
v -0.042329 -0.003659 -0.019649
v 0.019158 0.028073 -0.029559
v 0.015190 0.034023 0.039836
v -0.022489 -0.011595 -0.037496
v -0.000681 0.024105 -0.043459
v 0.031062 0.006260 0.006117
v -0.034393 -0.015564 -0.031550
v -0.036377 -0.009609 0.031908
v 0.017174 0.028073 -0.041460
v -0.042329 -0.007627 0.018026
v 0.035030 -0.009609 -0.017667
v 0.015190 0.024105 0.041818
v -0.016537 0.024105 -0.041460
v -0.000681 0.028073 0.043817
v 0.029078 0.010223 -0.011721
v 0.009238 -0.009609 0.039836
v -0.034393 -0.001677 0.033890
v -0.038361 0.000305 -0.029559
v -0.016537 -0.015564 0.037854
f 105 91 110 
f 70 71 75 
f 75 71 79 
f 70 75 80 
f 66 67 82 
f 70 66 82 
f 71 70 82 
f 69 72 84 
f 72 77 84 
f 66 70 85 
f 69 84 86 
f 84 77 86 
f 75 79 87 
f 73 68 88 
f 83 73 88 
f 74 83 88 
f 72 69 89 
f 69 74 89 
f 81 72 89 
f 74 69 90 
f 83 74 90 
f 90 69 91 
f 77 72 92 
f 65 87 92 
f 73 67 94 
f 68 73 94 
f 93 68 94 
f 76 93 94 
f 80 75 95 
f 75 81 95 
f 74 88 96 
f 80 95 96 
f 67 66 97 
f 94 67 97 
f 76 94 97 
f 81 75 98 
f 87 65 98 
f 75 87 98 
f 79 71 99 
f 86 77 99 
f 70 80 100 
f 85 70 100 
f 88 68 100 
f 68 93 100 
f 93 85 100 
f 80 96 100 
f 96 88 100 
f 87 79 101 
f 77 92 101 
f 92 87 101 
f 79 99 101 
f 99 77 101 
f 66 85 102 
f 97 66 102 
f 76 97 102 
f 67 73 103 
f 82 67 103 
f 73 83 103 
f 89 74 104 
f 81 89 104 
f 95 81 104 
f 74 96 104 
f 96 95 104 
f 83 90 105 
f 90 91 105 
f 103 83 105 
f 93 76 106 
f 85 93 106 
f 102 85 106 
f 76 102 106 
f 78 82 107 
f 82 103 107 
f 105 78 107 
f 103 105 107 
f 69 86 108 
f 71 91 108 
f 91 69 108 
f 99 71 108 
f 86 99 108 
f 72 81 109 
f 92 72 109 
f 65 92 109 
f 98 65 109 
f 81 98 109 
f 71 82 110 
f 82 78 110 
f 91 71 110 
f 78 105 110 
