o convex_0
v 0.005460 0.030142 -0.007842
v -0.012948 0.026948 -0.007351
v -0.012210 0.026458 -0.008333
v 0.010614 0.007071 -0.007106
v 0.002024 0.013454 -0.013732
v -0.007547 0.007071 -0.008579
v -0.002638 0.036524 -0.011523
v 0.010614 0.008301 -0.012014
v -0.002638 0.043398 -0.007106
v -0.006811 0.024257 -0.012014
v -0.007301 0.007071 -0.010541
v -0.011473 0.037261 -0.007106
v -0.007301 0.007071 -0.007351
v 0.000796 0.038484 -0.010052
v 0.000306 0.025722 -0.013486
v 0.010121 0.017138 -0.007106
v 0.009141 0.018365 -0.010787
v -0.007792 0.030383 -0.011523
v -0.001902 0.021554 -0.013732
v -0.011720 0.020086 -0.007106
v -0.007792 0.038978 -0.009070
v -0.003865 0.031368 -0.012750
v -0.010247 0.033577 -0.009806
v 0.003249 0.025235 -0.012505
v -0.010492 0.027197 -0.010051
v 0.011597 0.008792 -0.009070
v 0.007423 0.025971 -0.007106
v 0.005215 0.029651 -0.010052
v -0.000184 0.012963 -0.013486
v -0.000432 0.031120 -0.012750
v 0.002514 0.007071 -0.010541
v 0.006933 0.011982 -0.012996
v -0.002147 0.041677 -0.008824
v -0.007792 0.041432 -0.007351
v -0.006321 0.035543 -0.011032
v -0.012455 0.031859 -0.008088
v 0.011842 0.007565 -0.007106
v 0.009879 0.014194 -0.011523
v -0.009510 0.014190 -0.007106
v -0.000184 0.040692 -0.008579
v -0.002638 0.026952 -0.013486
v 0.009141 0.019342 -0.010297
v 0.001286 0.021309 -0.013732
v 0.003497 0.012227 -0.013486
v 0.010121 0.007320 -0.009807
v 0.010369 0.014194 -0.010787
v 0.002514 0.032346 -0.011032
v -0.010983 0.036521 -0.008333
v 0.005705 0.017874 -0.012750
v 0.005705 0.029402 -0.009315
v -0.000432 0.039711 -0.010052
v -0.012701 0.033331 -0.007106
v -0.002883 0.038733 -0.010541
v -0.012210 0.021803 -0.007351
v 0.003004 0.035049 -0.009316
v -0.002147 0.031123 -0.012995
v -0.000432 0.034067 -0.012014
v 0.011104 0.008792 -0.011523
v 0.005705 0.029402 -0.007106
v -0.003620 0.027194 -0.013241
v -0.002638 0.021309 -0.013486
v -0.000919 0.017383 -0.013732
v 0.011104 0.012718 -0.007351
v 0.009386 0.008792 -0.012260
f 44 32 64 
f 4 6 11 
f 4 9 12 
f 6 4 13 
f 9 4 16 
f 11 6 20 
f 4 12 20 
f 6 13 20 
f 11 3 25 
f 10 11 25 
f 18 10 25 
f 23 18 25 
f 9 16 27 
f 24 15 30 
f 4 11 31 
f 11 8 31 
f 33 21 34 
f 12 9 34 
f 9 33 34 
f 22 18 35 
f 7 22 35 
f 18 23 35 
f 23 21 35 
f 3 2 36 
f 25 3 36 
f 23 25 36 
f 16 4 37 
f 13 4 39 
f 4 20 39 
f 20 13 39 
f 27 16 42 
f 17 28 42 
f 5 19 43 
f 32 5 43 
f 19 41 43 
f 41 15 43 
f 29 5 44 
f 11 29 44 
f 5 32 44 
f 4 31 45 
f 31 8 45 
f 37 4 45 
f 8 37 45 
f 38 17 46 
f 42 16 46 
f 17 42 46 
f 28 17 47 
f 14 28 47 
f 17 38 47 
f 38 24 47 
f 21 23 48 
f 34 21 48 
f 12 34 48 
f 23 36 48 
f 15 24 49 
f 8 32 49 
f 38 8 49 
f 24 38 49 
f 32 43 49 
f 43 15 49 
f 1 27 50 
f 27 42 50 
f 42 28 50 
f 33 9 51 
f 40 14 51 
f 9 40 51 
f 2 20 52 
f 20 12 52 
f 36 2 52 
f 12 48 52 
f 48 36 52 
f 21 33 53 
f 7 35 53 
f 35 21 53 
f 51 7 53 
f 33 51 53 
f 2 3 54 
f 3 11 54 
f 20 2 54 
f 11 20 54 
f 28 14 55 
f 40 1 55 
f 14 40 55 
f 1 50 55 
f 50 28 55 
f 22 7 56 
f 30 15 56 
f 15 41 56 
f 41 22 56 
f 24 30 57 
f 14 47 57 
f 47 24 57 
f 7 51 57 
f 51 14 57 
f 56 7 57 
f 30 56 57 
f 37 8 58 
f 26 37 58 
f 8 38 58 
f 46 26 58 
f 38 46 58 
f 27 1 59 
f 9 27 59 
f 1 40 59 
f 40 9 59 
f 10 18 60 
f 18 22 60 
f 41 19 60 
f 22 41 60 
f 11 10 61 
f 10 60 61 
f 60 19 61 
f 19 5 62 
f 5 29 62 
f 29 11 62 
f 11 61 62 
f 61 19 62 
f 16 37 63 
f 37 26 63 
f 26 46 63 
f 46 16 63 
f 8 11 64 
f 32 8 64 
f 11 44 64 
o convex_1
v 0.006196 -0.008391 -0.009070
v -0.010494 -0.000540 -0.007842
v -0.010494 -0.000540 -0.007351
v 0.002270 0.007071 -0.007351
v -0.000187 0.003142 -0.011523
v -0.004847 -0.009373 -0.010296
v -0.008284 0.006580 -0.010541
v -0.000187 -0.010356 -0.007351
v 0.006443 -0.001277 -0.010541
v 0.006443 -0.001277 -0.007351
v -0.010247 -0.002501 -0.010541
v 0.002270 0.007071 -0.010541
v -0.007546 0.007071 -0.007351
v 0.004723 -0.009373 -0.010296
v -0.007055 -0.007656 -0.007351
v 0.000796 -0.002992 -0.011523
v 0.006443 -0.008147 -0.007351
v -0.002884 -0.001277 -0.011523
v 0.003006 0.001177 -0.011523
v -0.000678 -0.010356 -0.010296
v -0.010247 0.002407 -0.010296
v -0.009510 0.004616 -0.007351
v 0.006443 -0.007901 -0.010296
v -0.008284 -0.006673 -0.010296
v -0.009265 -0.004955 -0.007351
v -0.007546 0.007071 -0.010541
v 0.003742 -0.009865 -0.007351
v -0.001904 -0.010356 -0.007351
v -0.002884 0.001177 -0.011523
v -0.008774 -0.005447 -0.010541
v -0.006074 -0.008637 -0.007351
v -0.010247 0.001177 -0.010541
v -0.001414 -0.002746 -0.011523
v 0.003006 -0.001032 -0.011523
v 0.001289 -0.010356 -0.009070
v -0.007301 0.005843 -0.010787
v -0.009020 -0.002501 -0.010787
v 0.006443 -0.005447 -0.010541
v 0.002025 -0.002501 -0.011523
v 0.000304 -0.010356 -0.010296
f 78 99 104 
f 68 67 72 
f 68 72 74 
f 73 68 74 
f 67 66 75 
f 68 73 76 
f 67 68 77 
f 68 76 77 
f 72 67 79 
f 74 72 81 
f 73 74 81 
f 69 80 82 
f 69 76 83 
f 76 73 83 
f 80 69 83 
f 66 67 85 
f 67 77 86 
f 77 71 86 
f 85 67 86 
f 71 85 86 
f 65 78 87 
f 81 65 87 
f 73 81 87 
f 67 75 89 
f 79 67 89 
f 75 88 89 
f 88 79 89 
f 76 69 90 
f 71 77 90 
f 77 76 90 
f 78 65 91 
f 65 81 91 
f 81 72 91 
f 72 79 92 
f 70 84 92 
f 84 72 92 
f 69 82 93 
f 88 75 94 
f 70 88 94 
f 79 88 95 
f 88 70 95 
f 92 79 95 
f 70 92 95 
f 75 66 96 
f 66 85 96 
f 85 71 96 
f 82 80 97 
f 84 70 97 
f 80 84 97 
f 70 94 97 
f 94 82 97 
f 83 73 98 
f 80 83 98 
f 72 84 99 
f 78 91 99 
f 91 72 99 
f 90 69 100 
f 71 90 100 
f 69 93 100 
f 96 71 100 
f 93 96 100 
f 93 82 101 
f 82 94 101 
f 94 75 101 
f 75 96 101 
f 96 93 101 
f 73 87 102 
f 98 73 102 
f 87 98 102 
f 78 80 103 
f 87 78 103 
f 80 98 103 
f 98 87 103 
f 80 78 104 
f 84 80 104 
f 99 84 104 
o convex_2
v 0.010124 -0.001766 -0.007351
v 0.006443 -0.008147 -0.008824
v 0.006688 -0.008147 -0.008824
v 0.009878 0.001180 -0.010542
v 0.006443 -0.001520 -0.007351
v 0.006443 -0.001520 -0.010542
v 0.008406 -0.006183 -0.010296
v 0.009878 0.001917 -0.007842
v 0.007180 -0.007655 -0.007351
v 0.010124 -0.002011 -0.010296
v 0.009878 -0.003728 -0.007597
v 0.006443 -0.007655 -0.010296
v 0.010124 0.001917 -0.010296
v 0.006443 -0.007901 -0.007351
v 0.006688 -0.005447 -0.010542
v 0.007916 -0.006919 -0.007351
v 0.010124 -0.000784 -0.010542
v 0.008897 -0.000293 -0.007351
v 0.010124 0.001917 -0.007842
f 122 105 123 
f 106 109 110 
f 110 109 112 
f 105 109 113 
f 111 114 115 
f 114 105 115 
f 107 106 116 
f 106 110 116 
f 111 107 116 
f 108 110 117 
f 110 112 117 
f 105 114 117 
f 106 107 118 
f 109 106 118 
f 107 113 118 
f 113 109 118 
f 110 108 119 
f 116 110 119 
f 111 116 119 
f 107 111 120 
f 113 107 120 
f 105 113 120 
f 115 105 120 
f 111 115 120 
f 114 111 121 
f 108 117 121 
f 117 114 121 
f 119 108 121 
f 111 119 121 
f 109 105 122 
f 112 109 122 
f 112 122 123 
f 105 117 123 
f 117 112 123 
o convex_3
v -0.002394 0.044375 -0.000233
v -0.015403 0.031366 -0.001213
v -0.015403 0.031366 0.002955
v 0.002270 0.012477 -0.007106
v 0.002270 0.012477 0.008849
v -0.009756 0.014440 -0.007106
v -0.006810 0.042168 -0.007106
v -0.008038 0.041433 0.008849
v -0.009756 0.014440 0.008849
v 0.002270 0.033580 0.008849
v 0.002270 0.033086 -0.007106
v -0.012457 0.040943 0.000259
v -0.012948 0.033333 -0.007106
v -0.003622 0.046338 0.004182
v -0.012702 0.033824 0.008849
v -0.013683 0.022538 -0.003178
v -0.005340 0.012477 0.008849
v -0.003376 0.045357 -0.004896
v -0.002639 0.043393 0.008849
v -0.012948 0.020574 0.006149
v -0.005094 0.012477 -0.007106
v -0.014666 0.037507 0.001237
v -0.011228 0.015422 -0.002686
v -0.010737 0.041186 -0.004651
v -0.010983 0.040939 0.006149
v -0.013194 0.023519 -0.006368
v -0.008284 0.044378 0.000750
v -0.013439 0.026221 0.008112
v -0.002639 0.043393 -0.007106
v -0.014666 0.034805 -0.003178
v -0.004849 0.045848 -0.002933
v -0.014666 0.035049 0.004674
v 0.001287 0.036278 -0.002196
v -0.006322 0.044622 0.005902
v -0.011474 0.038485 -0.006614
v -0.010983 0.015175 0.006394
v -0.014420 0.026955 -0.004651
v -0.014174 0.024257 0.003694
v -0.011474 0.038976 0.007867
v -0.012948 0.039223 -0.002933
v -0.003376 0.046338 -0.002196
v -0.014666 0.027937 0.005657
v -0.012211 0.021800 0.008849
v -0.003376 0.046338 0.003937
v -0.010002 0.014440 -0.006614
v -0.010002 0.042659 0.004428
v -0.013194 0.027693 -0.007106
v -0.009511 0.043150 -0.002441
v -0.007056 0.043640 -0.005386
v -0.014420 0.032351 0.006394
v -0.013194 0.038979 0.004182
v -0.011474 0.017138 -0.005878
v -0.004113 0.046586 0.001974
v 0.001287 0.036278 0.003694
v -0.008530 0.013699 0.008849
v -0.011474 0.015909 0.003447
v -0.014174 0.031366 -0.005386
v -0.014420 0.025236 -0.001460
v -0.003622 0.045113 0.006883
v -0.009019 0.013946 -0.007106
v -0.014666 0.037012 -0.000968
v -0.013194 0.037012 -0.004896
v -0.012457 0.040695 0.002710
v -0.015403 0.033333 0.000992
f 145 184 187 
f 127 129 130 
f 128 131 132 
f 128 127 133 
f 131 128 133 
f 127 130 134 
f 133 127 134 
f 130 129 136 
f 132 131 138 
f 127 128 140 
f 128 132 140 
f 131 133 142 
f 129 127 144 
f 127 140 144 
f 134 130 152 
f 130 141 152 
f 133 134 156 
f 148 131 157 
f 130 136 158 
f 147 130 158 
f 132 143 159 
f 149 139 160 
f 138 131 162 
f 131 148 162 
f 155 138 162 
f 135 147 163 
f 147 158 163 
f 134 152 164 
f 152 141 164 
f 141 154 164 
f 124 156 164 
f 156 134 164 
f 143 151 165 
f 126 161 165 
f 161 143 165 
f 132 138 166 
f 143 132 166 
f 138 151 166 
f 151 143 166 
f 142 133 167 
f 124 164 167 
f 132 159 168 
f 159 146 168 
f 150 135 169 
f 148 157 169 
f 157 150 169 
f 136 129 170 
f 129 149 170 
f 149 160 170 
f 147 135 171 
f 135 150 171 
f 150 154 171 
f 171 154 172 
f 141 130 172 
f 130 147 172 
f 154 141 172 
f 147 171 172 
f 151 138 173 
f 155 126 173 
f 138 155 173 
f 165 151 173 
f 126 165 173 
f 145 155 174 
f 162 148 174 
f 155 162 174 
f 146 139 175 
f 149 129 175 
f 139 149 175 
f 129 168 175 
f 168 146 175 
f 154 150 176 
f 157 137 176 
f 150 157 176 
f 164 154 176 
f 137 167 176 
f 167 164 176 
f 156 124 177 
f 133 156 177 
f 124 167 177 
f 167 133 177 
f 140 132 178 
f 132 168 178 
f 139 146 179 
f 159 143 179 
f 146 159 179 
f 161 139 179 
f 143 161 179 
f 125 153 180 
f 153 136 180 
f 160 125 180 
f 136 170 180 
f 170 160 180 
f 126 125 181 
f 125 160 181 
f 160 139 181 
f 161 126 181 
f 139 161 181 
f 131 142 182 
f 157 131 182 
f 137 157 182 
f 142 167 182 
f 167 137 182 
f 129 144 183 
f 144 140 183 
f 168 129 183 
f 140 178 183 
f 178 168 183 
f 145 135 184 
f 153 125 184 
f 135 163 184 
f 184 163 185 
f 136 153 185 
f 158 136 185 
f 163 158 185 
f 153 184 185 
f 135 145 186 
f 169 135 186 
f 148 169 186 
f 145 174 186 
f 174 148 186 
f 125 126 187 
f 126 155 187 
f 155 145 187 
f 184 125 187 
o convex_4
v 0.002760 0.032101 0.012529
v -0.012948 0.028421 0.008849
v -0.012948 0.028421 0.009095
v 0.010860 0.007071 0.009095
v 0.000306 0.012966 0.015231
v -0.005338 0.007071 0.009340
v -0.002637 0.043153 0.008849
v -0.004110 0.032840 0.014002
v 0.010860 0.008547 0.013511
v 0.007179 0.026457 0.008849
v -0.009510 0.021802 0.011794
v 0.000551 0.024006 0.015231
v -0.010982 0.036767 0.009831
v -0.005093 0.007071 0.011058
v -0.010000 0.015173 0.008849
v -0.000431 0.039960 0.011550
v -0.007546 0.030141 0.013267
v 0.011843 0.008056 0.008849
v 0.009142 0.019101 0.012040
v -0.002392 0.022541 0.015231
v -0.007791 0.038731 0.010813
v 0.003250 0.034560 0.010813
v -0.004848 0.013948 0.013267
v -0.000431 0.031614 0.014248
v -0.010000 0.038978 0.008849
v 0.009632 0.008056 0.013511
v 0.009632 0.014191 0.013266
v 0.006196 0.012228 0.014740
v -0.010000 0.033578 0.011549
v -0.011228 0.020082 0.009831
v -0.006321 0.020330 0.013512
v -0.010247 0.026948 0.011794
v 0.010615 0.014929 0.009095
v -0.002882 0.036770 0.013021
v -0.002637 0.027930 0.014985
v -0.007791 0.015664 0.011794
v 0.004968 0.030388 0.011550
v 0.003005 0.024992 0.014248
v 0.000551 0.039465 0.010322
v 0.010367 0.007318 0.011549
v 0.010367 0.013948 0.012529
v 0.010122 0.007071 0.008849
v -0.012701 0.032840 0.009095
v 0.005213 0.018366 0.014494
v -0.007791 0.040938 0.009340
v -0.002392 0.042167 0.010077
v 0.002760 0.012719 0.015231
v -0.007056 0.024254 0.013512
v -0.007056 0.035785 0.012285
v -0.009510 0.014439 0.009586
v -0.012210 0.030876 0.010077
v -0.011965 0.024992 0.010077
v 0.000796 0.038487 0.011550
v -0.011965 0.021312 0.009095
v 0.005951 0.029159 0.010322
v -0.002147 0.031614 0.014494
v 0.005460 0.029894 0.008849
v -0.008529 0.013700 0.008849
v 0.011350 0.008791 0.012285
v -0.003865 0.027439 0.014740
v -0.000431 0.033578 0.013757
v 0.008897 0.021308 0.008849
v -0.001412 0.017872 0.015231
v 0.001779 0.031614 0.013267
f 240 248 251 
f 193 191 201 
f 189 194 202 
f 194 197 205 
f 192 199 207 
f 201 192 210 
f 194 189 212 
f 192 201 213 
f 208 200 216 
f 204 216 219 
f 207 199 222 
f 201 210 223 
f 198 217 223 
f 218 198 223 
f 210 218 223 
f 188 214 224 
f 214 206 224 
f 211 199 225 
f 194 203 226 
f 201 191 227 
f 191 205 227 
f 205 196 227 
f 196 213 227 
f 213 201 227 
f 214 196 228 
f 206 214 228 
f 220 206 228 
f 191 193 229 
f 202 194 229 
f 205 191 229 
f 194 205 229 
f 189 190 230 
f 212 189 230 
f 200 212 230 
f 196 214 231 
f 199 215 231 
f 215 196 231 
f 225 199 231 
f 214 225 231 
f 200 208 232 
f 194 212 232 
f 212 200 232 
f 203 194 233 
f 221 203 233 
f 208 221 233 
f 194 232 233 
f 232 208 233 
f 199 192 234 
f 213 196 234 
f 192 213 234 
f 215 199 234 
f 196 215 234 
f 198 218 235 
f 218 207 235 
f 204 219 235 
f 219 198 235 
f 204 195 236 
f 216 204 236 
f 208 216 236 
f 221 208 236 
f 195 221 236 
f 193 201 237 
f 202 193 237 
f 201 223 237 
f 223 217 237 
f 216 200 238 
f 219 216 238 
f 230 190 238 
f 200 230 238 
f 217 198 239 
f 198 219 239 
f 238 190 239 
f 219 238 239 
f 188 224 240 
f 224 209 240 
f 226 203 240 
f 209 226 240 
f 190 189 241 
f 189 202 241 
f 202 237 241 
f 237 217 241 
f 239 190 241 
f 217 239 241 
f 206 197 242 
f 224 206 242 
f 209 224 242 
f 199 211 243 
f 221 195 243 
f 195 222 243 
f 222 199 243 
f 197 194 244 
f 194 226 244 
f 226 209 244 
f 242 197 244 
f 209 242 244 
f 193 202 245 
f 229 193 245 
f 202 229 245 
f 196 205 246 
f 205 220 246 
f 228 196 246 
f 220 228 246 
f 195 204 247 
f 222 195 247 
f 207 222 247 
f 204 235 247 
f 235 207 247 
f 203 221 248 
f 240 203 248 
f 243 211 248 
f 221 243 248 
f 205 197 249 
f 197 206 249 
f 220 205 249 
f 206 220 249 
f 192 207 250 
f 210 192 250 
f 207 218 250 
f 218 210 250 
f 214 188 251 
f 211 225 251 
f 225 214 251 
f 188 240 251 
f 248 211 251 
o convex_5
v 0.011351 0.011491 -0.007104
v 0.002516 0.032350 0.004920
v 0.002516 0.032595 0.004430
v 0.002270 0.012471 -0.007104
v 0.010124 0.006828 0.004920
v 0.002762 0.032842 -0.007104
v 0.002270 0.013701 0.004920
v 0.008651 0.023513 0.004920
v 0.009879 0.007073 -0.007104
v 0.012333 0.008792 0.003202
v 0.007669 0.025477 -0.006858
v 0.010860 0.016154 -0.003669
v 0.002270 0.032842 -0.007104
v 0.011842 0.007317 -0.006858
v 0.002270 0.012471 0.002957
v 0.005707 0.029159 -0.007104
v 0.010860 0.016154 0.004920
v 0.011597 0.006826 0.004920
v 0.002270 0.032350 0.004920
v 0.009142 0.022533 -0.000970
v 0.012087 0.010019 -0.003423
v 0.003744 0.032106 -0.006858
v 0.009879 0.018120 -0.007104
v 0.011842 0.006826 -0.001950
v 0.012087 0.010019 0.004920
v 0.010124 0.006828 -0.004404
v 0.012333 0.008056 -0.000234
v 0.008406 0.024005 -0.005141
v 0.009387 0.021794 0.001485
v 0.012087 0.007564 0.004674
v 0.011842 0.008792 -0.007104
v 0.006444 0.027932 -0.007104
v 0.012333 0.008792 -0.001459
v 0.010860 0.014435 -0.006614
v 0.011351 0.006826 -0.004404
v 0.005462 0.010755 0.004920
f 258 266 287 
f 252 255 257 
f 256 253 258 
f 254 253 259 
f 253 256 259 
f 255 252 260 
f 254 257 264 
f 257 255 264 
f 255 258 264 
f 255 256 266 
f 258 255 266 
f 252 257 267 
f 259 256 268 
f 261 263 268 
f 268 256 269 
f 253 254 270 
f 258 253 270 
f 254 264 270 
f 264 258 270 
f 257 254 273 
f 254 259 273 
f 267 257 273 
f 259 267 273 
f 252 267 274 
f 261 268 276 
f 268 269 276 
f 256 255 277 
f 255 260 277 
f 275 265 278 
f 271 263 279 
f 274 262 279 
f 263 274 279 
f 259 268 280 
f 268 263 280 
f 271 259 280 
f 263 271 280 
f 269 275 281 
f 261 276 281 
f 276 269 281 
f 278 261 281 
f 275 278 281 
f 260 252 282 
f 265 260 282 
f 252 272 282 
f 267 259 283 
f 259 271 283 
f 262 274 283 
f 274 267 283 
f 279 262 283 
f 271 279 283 
f 263 261 284 
f 272 263 284 
f 261 278 284 
f 278 265 284 
f 265 282 284 
f 282 272 284 
f 272 252 285 
f 263 272 285 
f 274 263 285 
f 252 274 285 
f 260 265 286 
f 269 256 286 
f 265 275 286 
f 275 269 286 
f 256 277 286 
f 277 260 286 
f 256 258 287 
f 266 256 287 
o convex_6
v 0.010615 0.016402 0.006640
v 0.002270 0.012474 0.006640
v 0.002270 0.012474 0.008849
v 0.002270 0.033332 0.008849
v 0.002270 0.032349 0.004922
v 0.011842 0.007562 0.008849
v 0.011597 0.006828 0.004922
v 0.002270 0.013701 0.004922
v 0.008651 0.023514 0.004922
v 0.007423 0.025968 0.008849
v 0.010124 0.007075 0.008849
v 0.012088 0.009773 0.004922
v 0.010124 0.006828 0.004922
v 0.004479 0.031121 0.008603
v 0.010615 0.015175 0.008849
v 0.002516 0.032349 0.004922
v 0.010861 0.016153 0.004922
v 0.008405 0.023758 0.007376
v 0.011842 0.009036 0.008603
v 0.005953 0.028913 0.008849
v 0.009879 0.018120 0.008849
v 0.012088 0.007809 0.004922
v 0.008405 0.024004 0.004922
v 0.012088 0.009036 0.006640
v 0.002516 0.033332 0.008603
f 301 303 312 
f 289 290 291 
f 289 291 292 
f 291 290 293 
f 289 292 295 
f 292 294 295 
f 294 292 296 
f 291 293 297 
f 293 290 298 
f 294 293 298 
f 294 296 299 
f 290 289 300 
f 289 295 300 
f 295 294 300 
f 298 290 300 
f 294 298 300 
f 297 293 302 
f 296 292 303 
f 299 296 304 
f 288 302 304 
f 296 297 305 
f 288 304 305 
f 304 296 305 
f 302 293 306 
f 291 297 307 
f 297 296 307 
f 301 291 307 
f 302 288 308 
f 297 302 308 
f 305 297 308 
f 288 305 308 
f 293 294 309 
f 294 299 309 
f 296 303 310 
f 303 301 310 
f 307 296 310 
f 301 307 310 
f 299 304 311 
f 304 302 311 
f 306 293 311 
f 302 306 311 
f 293 309 311 
f 309 299 311 
f 292 291 312 
f 291 301 312 
f 303 292 312 
o convex_7
v 0.001287 -0.004955 0.011058
v -0.005339 0.005842 0.009340
v -0.005339 0.005842 0.010567
v 0.005215 0.007070 0.011058
v 0.004724 -0.002010 0.009094
v -0.004602 -0.002501 0.009094
v 0.005215 0.007070 0.009094
v -0.005093 -0.000783 0.011058
v -0.005093 0.007070 0.011058
v 0.005215 -0.000292 0.011058
v 0.000306 -0.005200 0.009094
v -0.002638 -0.004465 0.011058
v -0.005339 0.007070 0.009340
v 0.002761 -0.004465 0.011058
v -0.005093 0.001179 0.009094
v 0.002761 -0.004465 0.009094
v -0.002638 -0.004465 0.009094
v 0.004479 -0.002746 0.011058
v 0.005215 -0.000292 0.009094
v -0.004602 -0.002501 0.011058
v -0.000184 -0.005200 0.011058
v -0.005093 -0.000783 0.009094
f 314 327 334 
f 317 318 319 
f 315 314 320 
f 313 316 320 
f 316 319 321 
f 315 320 321 
f 320 316 321 
f 316 313 322 
f 319 316 322 
f 318 317 323 
f 313 320 324 
f 314 315 325 
f 315 321 325 
f 321 319 325 
f 322 313 326 
f 319 318 327 
f 314 325 327 
f 325 319 327 
f 313 323 328 
f 323 317 328 
f 326 313 328 
f 318 323 329 
f 324 318 329 
f 317 322 330 
f 322 326 330 
f 328 317 330 
f 326 328 330 
f 317 319 331 
f 322 317 331 
f 319 322 331 
f 320 318 332 
f 318 324 332 
f 324 320 332 
f 323 313 333 
f 313 324 333 
f 329 323 333 
f 324 329 333 
f 320 314 334 
f 318 320 334 
f 327 318 334 
o convex_8
v 0.002269 0.000934 0.012531
v -0.002885 -0.001274 0.011058
v -0.002639 -0.001765 0.011058
v 0.003006 0.001180 0.011058
v -0.001903 0.002653 0.012285
v 0.000797 -0.002992 0.012285
v -0.000429 0.003144 0.011058
v -0.002148 -0.001274 0.012531
v 0.002269 -0.002256 0.011058
v 0.001779 0.002653 0.012285
v 0.003006 -0.001028 0.012285
v -0.002885 0.001425 0.011058
v -0.000184 -0.003238 0.011058
v -0.001657 -0.002747 0.012285
v -0.002885 -0.001274 0.012285
v 0.001042 -0.002256 0.012531
v -0.001166 0.002162 0.012531
v -0.002885 0.001180 0.012285
v 0.002024 0.002653 0.011058
v 0.003006 0.001180 0.012285
v 0.000306 0.003144 0.012285
f 344 353 355 
f 337 336 338 
f 338 336 341 
f 337 338 343 
f 343 338 345 
f 340 343 345 
f 341 336 346 
f 339 341 346 
f 337 343 347 
f 343 340 347 
f 337 347 348 
f 347 340 348 
f 336 337 349 
f 346 336 349 
f 337 348 349 
f 348 342 349 
f 335 342 350 
f 345 335 350 
f 340 345 350 
f 342 348 350 
f 348 340 350 
f 342 335 351 
f 335 344 351 
f 339 346 352 
f 349 342 352 
f 346 349 352 
f 342 351 352 
f 351 339 352 
f 338 341 353 
f 353 344 354 
f 344 335 354 
f 335 345 354 
f 345 338 354 
f 338 353 354 
f 341 339 355 
f 339 351 355 
f 351 344 355 
f 353 341 355 
