# https://github.com/mikedh/trimesh

o hii2_geh_phadist_gesamt_asm.stl
v -0.00529998 0.01399999 0.01209998
v -0.00509943 0.01399999 0.00533364
v -0.00499999 0.01399999 0.01099997
v 0.00529998 0.01399999 0.01209998
v -0.00028629 0.01399999 0.01064580
v -0.00519999 0.01272501 0.00979063
v -0.00499999 0.00000063 0.00929999
v -0.00499999 0.00000063 0.01099997
v -0.00432807 -0.00250226 0.00929999
v -0.00205559 0.00759023 0.01059196
v -0.00432163 -0.00251335 0.01099997
v -0.00285548 -0.00091933 0.01099997
v -0.00103980 0.00673373 0.01071663
v -0.00065137 0.00609054 0.01040496
v 0.00124979 0.00572185 0.01065996
v -0.00176388 0.00242645 0.01099997
v -0.00285071 0.00093376 0.01099997
v -0.00161541 0.00117868 0.00929999
v -0.00060854 -0.00190508 0.00929999
v -0.00199997 0.00000000 0.00929999
v -0.00160992 -0.00118613 0.00929999
v -0.00512429 0.01399999 -0.00376530
v -0.00499999 0.01249998 -0.00746995
v -0.00459027 0.01249998 0.00548559
v -0.00250000 0.01249998 0.00699997
v 0.00499999 0.01249998 0.00929999
v 0.00499999 0.00000063 0.00929999
v -0.00379521 0.01249998 0.00657797
v 0.00060854 0.00190508 0.00929999
v -0.00062415 0.00189996 0.00929999
v -0.00514999 0.01399999 -0.00956997
v -0.00499999 0.01067465 -0.00746995
v 0.00334930 0.01249998 -0.00746995
v 0.00250000 0.01249998 -0.00539994
v -0.00250000 0.01249998 -0.00539994
v -0.00380307 0.01249998 -0.00497210
v -0.00459540 0.01249998 -0.00386995
v -0.00459027 0.01249998 -0.00251430
v -0.00459540 0.01249998 0.00413000
v -0.00499999 0.01067465 -0.00916999
v -0.00496428 0.00925361 -0.00920342
v -0.00532341 0.00929612 -0.00746995
v 0.00262604 0.00959626 -0.00746995
v 0.00375128 0.01399999 -0.00916999
v -0.00371909 0.00949764 -0.00916999
v -0.00370133 0.01399999 -0.00126511
v -0.01090052 0.01553992 -0.00296420
v -0.00979602 0.01462099 -0.00620839
v -0.00333822 0.01399999 0.00080000
v -0.00370139 0.01399999 0.00286537
v -0.01086601 0.01551148 0.00458044
v -0.00529998 0.01351648 0.00780314
v -0.00983699 0.01465008 0.00781297
v -0.00516836 0.01286710 0.01186223
v -0.00564651 0.01285374 0.01027576
v 0.00499999 0.01399999 -0.00746995
v 0.00529998 0.01399999 -0.00996995
v 0.00529998 0.01109945 0.01209998
v 0.00499999 0.01399999 0.01099997
v 0.00375128 0.01399999 0.01069087
v 0.00323778 0.01186609 0.01209998
v 0.00107199 0.01225316 0.01209998
v -0.00394702 0.01275557 0.01239577
v 0.00323778 0.01186609 -0.00996995
v 0.00529998 0.01109945 -0.00996995
v -0.00531873 0.01281378 -0.00987619
v 0.00107199 0.01225316 -0.00996995
v -0.00529998 0.01351648 -0.00620311
v 0.00375128 0.01399999 -0.00746995
v 0.00000000 0.01022854 -0.00942739
v 0.00133506 0.01014104 -0.00942739
v 0.00263184 0.00980845 -0.00962508
v 0.00499999 0.01249998 -0.00746995
v 0.00499999 0.00000063 0.01099997
v 0.00285548 0.00091933 0.01099997
v 0.00177336 0.00241947 0.01099997
v 0.00160468 0.00598872 0.01014995
v -0.00090673 0.00666165 0.01014995
v -0.00192225 0.00694168 0.01014995
v -0.01095098 0.01570508 0.00079997
v -0.00706575 0.01316987 -0.00897742
v -0.00554255 0.01285157 -0.00858462
v -0.00710420 0.01318992 0.01057781
v -0.00647747 0.01291370 -0.00903678
v -0.00381076 0.01279175 -0.01101517
v 0.00045335 0.01236791 -0.01253524
v -0.00267780 0.01258128 -0.01120126
v -0.00416765 0.01350685 -0.01154776
v -0.00615185 0.01363015 -0.01040810
v 0.00013159 0.01320359 -0.01329348
v -0.00488943 0.01480716 -0.01142078
v -0.00845837 0.01735526 -0.00967479
v -0.00911105 0.01437741 -0.00784609
v 0.00130233 0.01276439 -0.01318547
v -0.00617313 0.01971858 -0.01155334
v -0.00073555 0.01751780 -0.01348509
v 0.00598677 0.01079893 -0.01203791
v 0.00203888 0.01226001 -0.01287927
v 0.00598669 0.01079913 0.01363803
v 0.00174183 0.01224753 0.01433534
v 0.00043924 0.01243544 0.01430332
v -0.00211501 0.01253199 0.01303875
v 0.00959168 0.00804385 -0.01145097
v 0.00956827 0.00806888 0.01307275
v 0.00943422 0.00789201 -0.01011514
v 0.00943422 0.00789201 0.01171529
v 0.01018140 0.00742821 0.01086398
v 0.00998384 0.00744380 -0.00921986
v 0.01020695 0.00695803 0.00430973
v 0.01020908 0.00695598 -0.00265147
v -0.00619608 0.01288909 0.01084235
v -0.00433689 0.01351803 0.01306054
v -0.00629598 0.01363790 0.01191055
v -0.00845432 0.01735144 0.01127707
v -0.01110386 0.02048528 0.00953108
v -0.00910664 0.01437541 0.00945154
v -0.00488406 0.01480436 0.01302307
v 0.00013409 0.01320342 0.01489436
v -0.00603717 0.01963758 0.01321136
v -0.00091075 0.01771412 0.01505541
v -0.01070284 0.01534354 -0.00491238
v -0.01125729 0.01600760 0.00169635
v -0.01124018 0.01595205 -0.00111461
v -0.01125746 0.01600855 -0.00006280
v -0.01123887 0.01594877 0.00275612
v -0.01069837 0.01533985 0.00652742
v -0.01110684 0.02048957 -0.00792879
v -0.01111835 0.01744878 -0.00620246
v -0.01261585 0.02050960 -0.00445187
v -0.01358795 0.02314329 -0.00270134
v -0.01411336 0.02498847 -0.00095078
v -0.01427108 0.02568399 0.00079978
v -0.01411348 0.02498877 0.00255030
v -0.01358819 0.02314376 0.00430089
v -0.01261615 0.02051025 0.00605148
v -0.01111876 0.01744955 0.00780201
v -0.01296818 0.02384895 0.00778508
v -0.01418256 0.02708607 0.00603908
v -0.01488238 0.02984005 0.00429308
v -0.01527988 0.03247249 0.00080114
v -0.01520305 0.03175437 0.00254708
v -0.01520329 0.03175628 -0.00094485
v -0.01488310 0.02984327 -0.00269079
v -0.01418375 0.02709007 -0.00443679
v -0.01297014 0.02385336 -0.00618279
v -0.00966573 0.02251607 -0.00978446
v -0.01203215 0.02573466 -0.00801557
v -0.01348727 0.02906274 -0.00624663
v -0.01424568 0.03218859 -0.00447774
v -0.01452225 0.03480046 -0.00270879
v -0.01453185 0.03658670 -0.00093993
v -0.01448905 0.03723555 0.00082898
v -0.01453357 0.03654450 0.00259787
v -0.01451867 0.03472626 0.00436676
v -0.01422965 0.03209269 0.00613570
v -0.01345175 0.02895528 0.00790459
v -0.01197028 0.02562576 0.00967353
v -0.00957030 0.02241599 0.01144248
v -0.00709444 0.02483260 -0.01159787
v -0.00211570 0.02174410 -0.01339408
v -0.01029759 0.02793109 -0.00982678
v -0.01215368 0.03108257 -0.00805575
v -0.01297426 0.03409379 -0.00628465
v -0.01307058 0.03677195 -0.00451362
v -0.01275378 0.03892397 -0.00274253
v -0.01233547 0.04035675 -0.00097151
v -0.01212668 0.04087746 0.00079955
v -0.01233530 0.04035735 0.00257057
v -0.01275360 0.03892487 0.00434166
v -0.01307046 0.03677320 0.00611269
v -0.01297450 0.03409528 0.00788373
v -0.01215440 0.03108417 0.00965482
v -0.01029878 0.02793276 0.01142585
v -0.00709647 0.02483409 0.01319700
v -0.00167799 0.02198028 0.01510026
v -0.00272423 0.03846448 -0.01035577
v -0.00767559 0.03875297 -0.00881117
v -0.00169591 0.04153416 -0.00856803
v -0.00052022 0.03969745 -0.00970258
v -0.00768846 0.04122865 -0.00709593
v -0.00281489 0.04292696 -0.00733942
v 0.00079126 0.03503217 -0.00752785
v -0.00313336 0.04417365 -0.00605655
v -0.00691092 0.04325139 -0.00538063
v -0.00336993 0.04505687 -0.00488102
v -0.00572854 0.04480546 -0.00366539
v -0.00358748 0.04588228 -0.00324255
v -0.00452685 0.04587507 -0.00195008
v -0.00368065 0.04631108 -0.00156921
v 0.00141346 0.03523319 -0.00201064
v -0.00369531 0.04644348 -0.00022026
v -0.00876784 0.04358500 -0.00094528
v -0.00841021 0.04393577 0.00079583
v -0.00958550 0.04258137 -0.00268638
v -0.01048666 0.04099297 -0.00442749
v -0.01109468 0.03888797 -0.00616860
v -0.01103287 0.03633439 -0.00790972
v -0.00648671 0.03584009 -0.01052647
v -0.00992471 0.03340029 -0.00965083
v -0.00331885 0.03593748 -0.01135176
v -0.00357389 0.03241246 -0.01230394
v -0.00739360 0.03015369 -0.01139187
v -0.00221926 0.03557068 -0.01159834
v -0.00354165 0.03139406 -0.01250720
v -0.00241905 0.03102630 -0.01274156
v -0.00304821 0.02683183 -0.01312947
v -0.00369459 0.04646617 0.00081093
v -0.00876468 0.04358828 0.00253689
v -0.00369531 0.04644250 0.00184154
v -0.00453752 0.04586696 0.00356704
v -0.00368005 0.04630720 0.00319338
v -0.00958109 0.04258757 0.00427800
v -0.00574738 0.04478567 0.00529110
v -0.00358695 0.04588019 0.00484842
v -0.01048266 0.04100185 0.00601911
v -0.00693190 0.04321515 0.00701529
v -0.00336635 0.04504370 0.00650149
v -0.01109296 0.03889918 0.00776023
v -0.00769955 0.04117149 0.00873941
v -0.00297832 0.04357707 0.00830811
v -0.01103538 0.03634756 0.00950134
v -0.00765866 0.03867048 0.01046347
v -0.00205195 0.04165508 0.01009704
v -0.00993311 0.03341507 0.01124244
v -0.00641775 0.03572827 0.01218765
v -0.00133929 0.04141305 0.01023906
v -0.00740969 0.03016990 0.01298356
v -0.00357121 0.03232723 0.01392236
v -0.00303513 0.03731215 0.01244908
v -0.00307155 0.02700707 0.01471298
v -0.00221926 0.03557068 0.01319837
v -0.00241899 0.03102636 0.01434159
v -0.00239420 0.02308219 0.01496058
v -0.00191492 0.02649748 0.01495885
v -0.00191486 0.02649736 -0.01335889
v -0.00119311 0.02200776 -0.01361006
v 0.00106712 0.03509852 0.00918946
v -0.00055048 0.03967682 0.01133102
v 0.00141340 0.03523319 0.00361180
v 0.00148129 0.01740515 -0.01360315
v 0.00220883 0.01292306 -0.01346827
v 0.00664526 0.01155516 -0.01281048
v 0.00073814 0.02137678 -0.01355195
v 0.00500423 0.01815479 -0.01264625
v 0.00011113 0.02501058 -0.01332926
v 0.00309259 0.02468496 -0.01229786
v -0.00036588 0.02830725 -0.01294928
v -0.00066127 0.03132188 -0.01242548
v 0.00147974 0.03121519 -0.01153224
v -0.00064462 0.03400939 -0.01175189
v 0.00068353 0.03805625 -0.00983449
v 0.01027281 0.00849898 -0.01186523
v 0.00982374 0.01317936 -0.01140129
v 0.00804788 0.02119010 -0.01021510
v 0.00910789 0.01700836 -0.01079207
v 0.00658393 0.02560216 -0.00984847
v 0.00313723 0.03328585 -0.00992244
v 0.00483453 0.02982187 -0.00979096
v 0.00543934 0.02910083 -0.00938171
v 0.01080976 0.00866455 -0.01147636
v 0.00885651 0.01930281 -0.01005405
v 0.01009035 0.01431369 -0.01056230
v 0.01203930 0.00877875 -0.00327045
v 0.01117616 0.00867480 -0.01028758
v 0.01115974 0.00785150 -0.00935472
v 0.01065695 0.01588475 -0.00326878
v 0.00707757 0.02605956 -0.00718400
v 0.00865632 0.02285262 -0.00286594
v 0.00808901 0.02397247 -0.00513512
v 0.00313371 0.03420549 -0.00906712
v 0.00582260 0.02874603 -0.00802037
v 0.00245291 0.03538926 -0.00875384
v 0.00016360 0.03952070 -0.00911178
v 0.01146748 0.00690812 -0.00254348
v 0.01172125 0.00744599 -0.00567496
v 0.01168388 0.00762755 -0.00673342
v 0.01214278 0.00837249 0.00086690
v 0.01065766 0.01588410 0.00486064
v 0.00895774 0.02228796 0.00080000
v 0.00762063 0.02472800 -0.00451469
v 0.00671178 0.02657300 -0.00627559
v 0.00560784 0.02884435 -0.00718826
v -0.00048698 0.04063528 -0.00879133
v 0.01203978 0.00877905 0.00486237
v 0.01117736 0.00867337 0.01188230
v 0.01128796 0.00800834 0.01094037
v 0.01168196 0.00764522 0.00839627
v 0.00885642 0.01930311 0.01165401
v 0.00856626 0.02302777 0.00424751
v 0.01066499 0.00871758 0.01327231
v 0.01009035 0.01431375 0.01216226
v 0.00808337 0.02398383 0.00675133
v 0.00811493 0.02363764 -0.00210407
v 0.00804597 0.02352875 0.00080000
v 0.00584614 0.02869266 0.00990707
v 0.00543922 0.02910101 0.01098168
v 0.00707364 0.02606788 0.00878960
v 0.00245342 0.03538904 0.01035472
v 0.00064851 0.03820609 0.01134170
v 0.00313347 0.03420585 0.01066726
v -0.00014772 0.04006510 0.01055028
v 0.00563127 0.02884298 0.00883663
v 0.00671083 0.02657508 0.00787705
v 0.00761968 0.02472954 0.00611663
v 0.01155233 0.00696756 0.00397076
v 0.01172679 0.00706029 -0.00132829
v 0.01015220 0.00815908 0.01332630
v 0.00664844 0.01155482 0.01440993
v 0.00974131 0.01368880 0.01292049
v 0.00201529 0.01299919 0.01508994
v 0.00500345 0.01815587 0.01424640
v 0.00148821 0.01736009 0.01520305
v 0.00103605 0.01317685 0.01509499
v 0.00758690 0.02270418 0.01165556
v 0.00309306 0.02468144 0.01389837
v 0.00075105 0.02130764 0.01515436
v 0.00882298 0.01824975 0.01220595
v 0.00623739 0.02650958 0.01141154
v 0.00148088 0.03120708 0.01313388
v 0.00012228 0.02493196 0.01493644
v 0.00364798 0.03228777 0.01147538
v -0.00065877 0.03123557 0.01404428
v -0.00035715 0.02821999 0.01456248
v -0.00065052 0.03394109 0.01337236
v 0.00375360 0.02697777 0.00690579
v 0.00384782 0.02851516 0.00760613
v 0.00422460 0.02577745 0.00593191
v 0.00494778 0.02659320 0.00664771
v 0.00493222 0.02876216 0.00797415
v 0.00590509 0.02676337 0.00707477
v 0.00749981 0.02405920 0.00350898
v 0.00677830 0.02515268 0.00553596
v 0.00639033 0.02431654 0.00329631
v 0.00563976 0.02546262 0.00554484
v 0.00483996 0.02431654 0.00329649
v 0.00653624 0.02407920 0.00205636
v 0.00495112 0.02407926 0.00205678
v 0.00658518 0.02399998 0.00080000
v 0.00484002 0.02431654 -0.00169653
v 0.00421590 0.02579909 -0.00435454
v 0.00355107 0.02845546 -0.00596109
v 0.00495112 0.02407926 -0.00045683
v 0.00498813 0.02399998 0.00080000
v 0.00564116 0.02546057 -0.00394231
v 0.00494873 0.02659070 -0.00504589
v 0.00677311 0.02426880 -0.00175834
v 0.00653624 0.02407920 -0.00045638
v 0.00190949 0.03524428 -0.00776231
v 0.00488925 0.02875250 -0.00634265
v 0.00590575 0.02676159 -0.00547331
v 0.00677907 0.02515137 -0.00393414
v -0.00649857 0.00777858 -0.00940998
v -0.00622606 0.00820517 -0.00746995
v -0.00793483 0.00651153 -0.00947028
v -0.00916910 0.00430934 -0.00940998
v -0.00928044 0.00446749 -0.00746995
v -0.00988984 0.00266385 -0.00921178
v -0.01012406 0.00060942 -0.00889147
v -0.00999301 -0.00228080 -0.00962043
v 0.00276683 0.00805843 -0.00746995
v 0.00190493 0.00685409 -0.00746995
v 0.00132719 0.00523950 -0.00746995
v 0.00148010 0.00584476 -0.00872778
v 0.00138926 0.00511945 -0.01031565
v 0.00205952 0.00438261 -0.00746995
v -0.00060854 0.00190508 -0.00746995
v 0.00425303 0.00262892 -0.00746995
v -0.01029735 -0.00022492 -0.00746995
v 0.00232124 0.00442845 -0.01046997
v 0.00161540 0.00117868 -0.00746995
v 0.00499904 0.00009638 -0.00746995
v 0.00425309 0.00262886 -0.01046997
v 0.00062415 0.00189996 -0.00746995
v 0.00199997 0.00000000 -0.00746995
v 0.00535530 -0.00092832 -0.00746995
v 0.00499904 0.00009638 -0.01046997
v 0.00160992 -0.00118613 -0.00746995
v 0.00623858 -0.00154382 -0.00746995
v 0.00535530 -0.00092832 -0.01046997
v 0.00060854 -0.00190508 -0.00746995
v 0.00731510 -0.00152552 -0.00746995
v 0.00623858 -0.00154382 -0.01046997
v 0.00984883 -0.00301415 -0.00746995
v 0.00818223 -0.00087364 -0.00746995
v 0.00731510 -0.00152552 -0.01046997
v 0.00925584 0.00022377 -0.00836998
v 0.01008770 0.00177871 -0.00804925
v 0.00818223 -0.00087364 -0.01046997
v 0.00955285 0.00030104 -0.01046997
v 0.01004364 0.00142788 -0.00906936
v -0.00907367 -0.00487405 -0.00746995
v 0.00740647 -0.00715744 -0.00746995
v 0.00928733 -0.00433668 -0.00877953
v 0.00991435 -0.00188155 -0.00870732
v 0.01010527 -0.00010895 -0.00869647
v -0.00588322 -0.00845432 -0.00746995
v 0.00335830 -0.00973707 -0.00746995
v 0.00644797 -0.00796774 -0.00877953
v 0.00811621 -0.00609627 -0.00886261
v -0.00141823 -0.01020187 -0.00746995
v 0.00230467 -0.00998753 -0.00877953
v 0.00462046 -0.00907563 -0.00885262
v -0.00398701 -0.00936584 -0.00885262
v 0.00000000 -0.01023330 -0.00893754
v -0.00734158 -0.00705107 -0.00871897
v -0.00161540 -0.00117868 -0.00746995
v -0.00957551 -0.00345870 -0.00871897
v -0.00062415 -0.00189996 -0.00746995
v -0.00160992 0.00118613 -0.00746995
v -0.00199997 0.00000000 -0.00746995
v 0.00459027 0.01249998 -0.00388563
v 0.00379521 0.01249998 -0.00497794
v 0.00268564 0.00940713 -0.01046997
v 0.00273445 0.00778028 -0.01046997
v 0.00190493 0.00685409 -0.01046997
v 0.00199997 0.00000000 -0.01146996
v 0.00161540 -0.00117868 -0.01146996
v 0.00160992 0.00118613 -0.01146996
v 0.00060854 0.00190508 -0.01146996
v -0.00062415 0.00189996 -0.01146996
v -0.00161540 0.00117868 -0.01146996
v -0.00199997 0.00000000 -0.01146996
v -0.00160992 -0.00118613 -0.01146996
v -0.00060854 -0.00190508 -0.01146996
v 0.00062415 -0.00189996 -0.01146996
v 0.00000000 0.00299996 -0.01091998
v -0.00807148 0.00639832 -0.01046997
v 0.00144627 0.00568984 -0.00957644
v -0.00180218 0.00679698 -0.00876582
v -0.00186621 0.00655799 -0.00952622
v 0.00168854 0.00630179 -0.00943166
v -0.00447503 0.00927687 -0.01022863
v 0.00000000 0.01029998 -0.01046997
v 0.00134438 0.01021188 -0.01046997
v -0.00176835 0.00242326 -0.01091998
v -0.01004758 0.00226590 -0.01022863
v -0.00285193 -0.00093040 -0.01091998
v -0.01002997 -0.00234193 -0.01046997
v -0.00285432 0.00092319 -0.01091998
v 0.00803047 -0.00631837 -0.01008653
v -0.00803217 -0.00644767 -0.01022863
v 0.00000000 -0.00299996 -0.01091998
v -0.00176361 -0.00242674 -0.01091998
v 0.00438984 -0.00922577 -0.01008653
v -0.00443789 -0.00929472 -0.01022863
v -0.00016920 -0.01021274 -0.01008653
v 0.00176835 -0.00242326 -0.01091998
v 0.00989942 -0.00190591 -0.01008547
v 0.01011725 -0.00044735 -0.01030908
v 0.00285432 -0.00092319 -0.01091998
v 0.00176361 0.00242674 -0.01091998
v 0.00285193 0.00093040 -0.01091998
v -0.00215065 0.00980091 -0.00964996
v -0.00797462 -0.00635958 -0.00925356
v -0.00920451 -0.00394267 -0.00890261
v -0.00675690 -0.00738996 -0.00890261
v -0.00310475 -0.00951988 -0.00890261
v 0.00103269 -0.00998053 -0.00875023
v 0.00511020 -0.00861120 -0.00890261
v 0.00788933 -0.00616640 -0.00949758
v 0.00984293 -0.00180523 -0.00952987
v 0.00415862 -0.00910890 -0.00949758
v -0.00050842 -0.01000034 -0.00949758
v -0.00509432 -0.00864467 -0.00964996
v -0.00850320 -0.00532713 -0.00964996
v -0.01000115 -0.00081241 -0.00964996
v 0.00276029 0.00088866 -0.01146996
v 0.00275546 -0.00090330 -0.01146996
v 0.00170535 -0.00234538 -0.01146996
v 0.01010948 0.00021599 -0.00970899
v 0.01005543 0.00174410 -0.01009204
v 0.00171465 0.00233853 -0.01146996
v 0.00459540 0.01249998 -0.00252998
v 0.00459027 0.01249998 0.00411433
v 0.00380307 0.01249998 0.00657213
v 0.00250000 0.01249998 0.00699997
v 0.00459540 0.01249998 0.00546998
v -0.00119686 0.01249998 -0.00142783
v 0.00120473 0.01249998 -0.00142199
v 0.00250000 0.01249998 -0.00099999
v 0.00249936 0.01374999 -0.00228254
v 0.00380307 0.01249998 -0.00142783
v 0.00379521 0.01249998 0.00302196
v -0.00250000 0.01249998 -0.00099999
v 0.00000255 0.01249998 -0.00252214
v 0.00153537 0.01373332 -0.00346003
v -0.00000255 0.01249998 -0.00387779
v 0.00119686 0.01249998 -0.00497210
v 0.00249998 0.01369999 -0.00425813
v -0.00120473 0.01249998 -0.00497794
v 0.00345521 0.01375999 -0.00359347
v 0.00351626 0.01359999 -0.00277901
v -0.00119686 0.01249998 0.00657213
v 0.00120473 0.01249998 0.00657797
v 0.00249936 0.01374999 0.00571740
v 0.00000255 0.01249998 0.00547779
v 0.00153537 0.01373332 0.00453991
v -0.00000255 0.01249998 0.00412217
v 0.00119686 0.01249998 0.00302780
v -0.00250000 0.01249998 0.00259995
v 0.00250000 0.01249998 0.00259995
v 0.00249998 0.01369999 0.00374183
v -0.00120473 0.01249998 0.00302196
v -0.00379521 0.01249998 -0.00142199
v 0.00345521 0.01375999 0.00440645
v 0.00351626 0.01359999 0.00522095
v -0.00249936 0.01374999 -0.00411741
v -0.00153537 0.01373332 -0.00293991
v -0.00249998 0.01369999 -0.00214183
v -0.00345521 0.01375999 -0.00280647
v -0.00380307 0.01249998 0.00302780
v -0.00351626 0.01359999 -0.00362092
v -0.00249936 0.01374999 0.00388252
v -0.00153537 0.01373332 0.00506004
v -0.00249998 0.01369999 0.00585809
v -0.00345521 0.01375999 0.00519348
v -0.00351626 0.01359999 0.00437903
v 0.00432807 -0.00250226 0.01099997
v 0.00199997 0.00000000 0.00929999
v 0.00432163 -0.00251335 0.00929999
v 0.00160992 0.00118613 0.00929999
v 0.00176388 -0.00242645 0.01099997
v 0.00285071 -0.00093376 0.01099997
v -0.00250184 -0.00432819 0.00929999
v 0.00249118 -0.00433439 0.00929999
v -0.00000242 -0.00499934 0.00929999
v -0.00249118 -0.00433439 0.01099997
v 0.00000242 -0.00499934 0.01099997
v 0.00250184 -0.00432819 0.01099997
v 0.00161540 -0.00117868 0.00929999
v 0.00062415 -0.00189996 0.00929999
v -0.00199997 0.00000000 0.01229995
v -0.00161541 -0.00117868 0.01229995
v -0.00160992 0.00118613 0.01229995
v -0.00060854 0.00190508 0.01229995
v 0.00062415 0.00189996 0.01229995
v 0.00161541 0.00117868 0.01229995
v 0.00199997 0.00000000 0.01229995
v 0.00160992 -0.00118613 0.01229995
v 0.00060854 -0.00190508 0.01229995
v -0.00062415 -0.00189996 0.01229995
v 0.00000000 -0.00299996 0.01099997
v -0.00177336 -0.00241947 0.01099997
v 0.00000000 0.00299996 0.01099997
v 0.00000000 -0.00295995 0.01223997
v -0.00174015 -0.00239438 0.01223997
v 0.00174386 -0.00239164 0.01223997
v 0.00281601 -0.00091169 0.01223997
v 0.00281408 0.00091755 0.01223997
v 0.00174015 0.00239438 0.01223997
v 0.00000000 0.00295995 0.01223997
v -0.00174386 0.00239164 0.01223997
v -0.00281601 0.00091169 0.01223997
v -0.00281408 -0.00091755 0.01223997
v 0.00000000 0.00289994 -0.01146996
v -0.00170535 0.00234538 -0.01146996
v 0.00000000 -0.00289994 -0.01146996
v -0.00171465 -0.00233853 -0.01146996
v -0.00276029 -0.00088866 -0.01146996
v -0.00275546 0.00090330 -0.01146996
f 1 2 3
f 4 1 3
f 5 4 3
f 6 7 8
f 9 8 7
f 10 5 8
f 11 8 9
f 12 8 11
f 13 10 8
f 14 13 8
f 15 14 8
f 16 15 8
f 17 16 8
f 12 17 8
f 18 7 6
f 19 9 7
f 18 20 7
f 21 7 20
f 21 19 7
f 22 23 6
f 24 6 23
f 2 22 6
f 25 26 6
f 27 6 26
f 28 25 6
f 24 28 6
f 29 6 27
f 30 18 6
f 29 30 6
f 31 32 23
f 33 23 32
f 22 31 23
f 34 23 33
f 35 23 34
f 36 23 35
f 37 38 23
f 39 23 38
f 36 37 23
f 39 24 23
f 31 40 32
f 41 32 40
f 42 32 41
f 43 32 42
f 43 33 32
f 44 40 31
f 45 40 44
f 45 41 40
f 46 22 2
f 47 22 46
f 47 48 22
f 46 2 49
f 50 49 2
f 50 2 51
f 52 2 1
f 53 51 2
f 52 53 2
f 54 1 4
f 52 1 6
f 55 1 54
f 55 6 1
f 56 57 4
f 58 4 57
f 59 56 4
f 60 59 4
f 5 60 4
f 61 4 58
f 61 62 4
f 63 4 62
f 54 4 63
f 44 31 57
f 64 57 31
f 56 44 57
f 64 65 57
f 58 57 65
f 66 31 22
f 67 31 66
f 67 64 31
f 48 68 22
f 66 22 68
f 56 69 44
f 33 44 69
f 70 45 44
f 71 70 44
f 72 71 44
f 33 72 44
f 33 69 56
f 73 56 59
f 73 33 56
f 15 59 60
f 26 73 59
f 27 26 59
f 74 27 59
f 75 74 59
f 76 59 15
f 76 75 59
f 77 15 60
f 10 60 5
f 14 77 60
f 78 14 60
f 13 78 60
f 79 13 60
f 10 79 60
f 47 46 49
f 80 47 49
f 50 80 49
f 81 82 68
f 48 81 68
f 66 68 82
f 50 51 80
f 6 83 53
f 52 6 53
f 6 55 83
f 81 84 82
f 81 85 66
f 82 84 66
f 81 66 84
f 86 66 85
f 86 67 66
f 87 86 85
f 86 85 88
f 89 88 85
f 81 89 85
f 90 86 88
f 91 90 88
f 91 88 89
f 92 89 81
f 92 91 89
f 93 81 48
f 92 81 93
f 94 86 90
f 95 90 91
f 95 96 90
f 97 65 64
f 97 58 65
f 98 64 67
f 98 97 64
f 94 98 67
f 86 94 67
f 99 100 58
f 61 58 100
f 97 99 58
f 61 100 62
f 101 62 100
f 102 63 62
f 101 102 62
f 103 104 99
f 97 103 99
f 105 106 104
f 107 104 106
f 103 105 104
f 105 107 106
f 108 109 107
f 105 108 107
f 108 110 109
f 103 108 105
f 86 98 94
f 63 83 54
f 101 63 102
f 55 54 111
f 54 83 111
f 55 111 83
f 63 112 83
f 112 113 83
f 114 83 113
f 115 116 83
f 114 115 83
f 114 113 112
f 117 114 112
f 101 112 63
f 117 112 118
f 101 118 112
f 119 117 118
f 120 119 118
f 116 53 83
f 121 48 47
f 122 80 51
f 123 47 80
f 124 123 80
f 122 124 80
f 125 122 51
f 126 51 53
f 127 93 128
f 127 92 93
f 128 93 48
f 128 48 121
f 129 121 47
f 128 121 129
f 129 47 130
f 130 47 123
f 131 123 124
f 130 123 131
f 132 124 122
f 131 124 132
f 133 122 125
f 132 122 133
f 133 125 51
f 133 51 134
f 135 51 126
f 134 51 135
f 135 126 53
f 136 53 116
f 135 53 136
f 115 136 116
f 137 135 136
f 115 137 136
f 138 134 135
f 137 138 135
f 139 133 134
f 138 139 134
f 140 132 133
f 141 140 133
f 139 141 133
f 142 131 132
f 140 142 132
f 143 130 131
f 142 143 131
f 144 129 130
f 143 144 130
f 145 128 129
f 144 145 129
f 145 127 128
f 146 91 92
f 146 95 91
f 147 92 127
f 147 146 92
f 148 127 145
f 148 147 127
f 149 145 144
f 149 148 145
f 150 144 143
f 150 149 144
f 150 143 142
f 151 142 140
f 151 150 142
f 152 140 141
f 152 151 140
f 153 141 139
f 153 152 141
f 154 139 138
f 154 153 139
f 155 138 137
f 155 154 138
f 156 137 115
f 156 155 137
f 157 115 114
f 157 156 115
f 158 114 117
f 158 157 114
f 119 158 117
f 159 96 95
f 159 160 96
f 161 95 146
f 159 95 161
f 162 146 147
f 161 146 162
f 163 147 148
f 162 147 163
f 164 148 149
f 163 148 164
f 165 149 150
f 164 149 165
f 166 150 151
f 165 150 166
f 167 151 152
f 166 151 167
f 168 152 153
f 167 152 168
f 169 153 154
f 168 153 169
f 170 154 155
f 169 154 170
f 171 155 156
f 170 155 171
f 172 156 157
f 171 156 172
f 173 157 158
f 172 157 173
f 174 158 119
f 173 158 174
f 175 119 120
f 174 119 175
f 176 177 178
f 179 176 178
f 177 180 178
f 180 181 178
f 182 178 181
f 180 183 181
f 182 181 183
f 184 185 183
f 182 183 185
f 180 184 183
f 186 187 185
f 182 185 187
f 184 186 185
f 188 189 187
f 190 187 189
f 186 188 187
f 190 182 187
f 188 191 189
f 190 189 191
f 192 191 188
f 192 193 191
f 194 188 186
f 194 192 188
f 195 186 184
f 195 194 186
f 196 184 180
f 196 195 184
f 197 180 177
f 197 196 180
f 176 198 177
f 199 177 198
f 199 197 177
f 200 201 198
f 202 198 201
f 176 200 198
f 202 199 198
f 203 201 200
f 202 201 204
f 205 204 201
f 205 201 203
f 203 200 176
f 203 176 179
f 206 202 204
f 205 206 204
f 193 207 191
f 190 191 207
f 208 209 207
f 190 207 209
f 193 208 207
f 208 210 209
f 211 209 210
f 190 209 211
f 212 213 210
f 214 210 213
f 208 212 210
f 214 211 210
f 215 216 213
f 217 213 216
f 212 215 213
f 217 214 213
f 218 219 216
f 220 216 219
f 215 218 216
f 220 217 216
f 221 222 219
f 223 219 222
f 218 221 219
f 220 219 223
f 224 225 222
f 226 222 225
f 221 224 222
f 226 223 222
f 227 228 225
f 229 225 228
f 224 227 225
f 229 226 225
f 227 230 228
f 231 229 228
f 232 228 230
f 231 228 232
f 174 230 227
f 175 233 230
f 234 230 233
f 174 175 230
f 232 230 234
f 173 227 224
f 173 174 227
f 172 224 221
f 172 173 224
f 171 221 218
f 171 172 221
f 170 218 215
f 170 171 218
f 169 215 212
f 169 170 215
f 168 212 208
f 168 169 212
f 167 208 193
f 167 168 208
f 167 193 192
f 166 192 194
f 166 167 192
f 165 194 195
f 165 166 194
f 164 195 196
f 164 165 195
f 163 196 197
f 163 164 196
f 162 197 199
f 162 163 197
f 161 199 202
f 161 162 199
f 159 202 206
f 159 161 202
f 159 206 160
f 235 160 206
f 235 206 205
f 236 160 235
f 234 233 175
f 96 160 236
f 237 220 223
f 237 223 226
f 238 226 229
f 238 229 231
f 239 211 214
f 239 190 211
f 239 214 217
f 239 217 220
f 239 220 237
f 90 240 94
f 241 98 94
f 240 241 94
f 242 241 240
f 96 243 240
f 244 240 243
f 90 96 240
f 244 242 240
f 236 245 243
f 246 243 245
f 96 236 243
f 246 244 243
f 235 247 245
f 246 245 247
f 236 235 245
f 205 248 247
f 249 247 248
f 235 205 247
f 249 246 247
f 203 250 248
f 249 248 250
f 205 203 248
f 203 251 250
f 251 249 250
f 203 179 251
f 242 98 241
f 242 97 98
f 103 97 242
f 252 103 242
f 253 252 242
f 253 242 244
f 254 244 246
f 255 253 244
f 254 255 244
f 256 246 249
f 256 254 246
f 257 249 251
f 258 256 249
f 257 258 249
f 259 257 251
f 260 253 255
f 252 253 260
f 261 255 254
f 260 255 261
f 261 254 256
f 259 256 258
f 261 256 259
f 259 258 257
f 261 262 260
f 263 260 262
f 264 265 260
f 263 264 260
f 266 262 261
f 266 263 262
f 267 261 259
f 268 266 261
f 269 268 261
f 267 269 261
f 270 259 251
f 271 267 259
f 270 271 259
f 272 270 251
f 273 272 251
f 179 273 251
f 108 103 252
f 265 252 260
f 265 108 252
f 274 108 265
f 110 108 274
f 274 265 275
f 263 265 264
f 276 265 263
f 275 265 276
f 277 263 266
f 276 263 277
f 278 277 266
f 279 278 266
f 268 279 266
f 280 268 269
f 281 269 267
f 280 269 281
f 282 267 271
f 281 267 282
f 272 271 270
f 283 272 273
f 179 283 273
f 278 284 277
f 285 284 278
f 285 286 284
f 287 284 286
f 287 277 284
f 288 278 289
f 279 289 278
f 290 285 278
f 291 290 278
f 288 291 278
f 292 288 289
f 293 279 268
f 294 289 279
f 294 279 293
f 293 268 280
f 290 286 285
f 288 290 291
f 295 296 288
f 297 295 288
f 292 297 288
f 298 299 296
f 300 298 296
f 295 300 296
f 298 301 299
f 238 299 301
f 238 301 226
f 298 300 295
f 302 295 297
f 298 295 302
f 303 302 297
f 303 297 292
f 289 304 292
f 303 292 304
f 275 276 277
f 305 277 287
f 274 275 277
f 306 274 277
f 305 306 277
f 286 305 287
f 286 107 305
f 274 306 305
f 107 109 305
f 110 305 109
f 110 274 305
f 307 104 107
f 290 107 286
f 290 307 107
f 290 307 104
f 308 104 307
f 308 99 104
f 308 307 290
f 309 308 290
f 288 309 290
f 100 99 308
f 310 100 308
f 311 310 308
f 309 311 308
f 312 310 311
f 101 100 310
f 101 310 313
f 314 315 311
f 316 311 315
f 317 314 311
f 309 317 311
f 316 312 311
f 318 319 315
f 320 315 319
f 314 318 315
f 320 316 315
f 321 299 319
f 322 319 299
f 318 321 319
f 323 320 319
f 322 323 319
f 324 322 299
f 296 321 318
f 296 299 321
f 296 318 314
f 288 314 317
f 296 314 288
f 288 317 309
f 120 312 316
f 118 313 312
f 310 312 313
f 120 118 312
f 175 316 320
f 175 120 316
f 234 320 323
f 234 175 320
f 232 323 322
f 232 234 323
f 232 322 324
f 231 324 299
f 231 232 324
f 238 231 299
f 101 313 118
f 298 226 301
f 237 226 298
f 325 237 326
f 327 237 325
f 239 237 327
f 325 326 328
f 237 329 326
f 330 326 329
f 328 326 330
f 298 302 329
f 303 329 302
f 237 298 329
f 330 329 303
f 331 332 304
f 330 304 332
f 289 331 304
f 330 303 304
f 333 334 332
f 328 332 334
f 331 333 332
f 328 330 332
f 335 334 333
f 335 327 334
f 336 333 331
f 337 335 333
f 336 337 333
f 338 331 294
f 336 331 338
f 294 331 289
f 327 328 334
f 327 325 328
f 239 327 335
f 337 239 335
f 339 190 239
f 340 341 190
f 182 190 341
f 339 340 190
f 342 339 239
f 343 342 239
f 337 343 239
f 344 340 339
f 345 341 340
f 344 345 340
f 346 339 342
f 346 344 339
f 347 342 343
f 347 346 342
f 338 343 337
f 347 343 338
f 336 338 337
f 348 178 182
f 349 182 341
f 349 348 182
f 350 349 341
f 345 350 341
f 178 348 272
f 282 272 348
f 283 178 272
f 282 271 272
f 349 282 348
f 179 178 283
f 281 282 349
f 350 281 349
f 280 281 350
f 351 350 345
f 351 280 350
f 344 351 345
f 293 280 351
f 346 351 344
f 346 293 351
f 294 293 346
f 347 294 346
f 347 338 294
f 45 352 41
f 42 41 352
f 353 352 354
f 353 42 352
f 353 354 355
f 352 355 354
f 356 355 357
f 356 353 355
f 356 357 358
f 355 358 357
f 357 359 358
f 354 357 355
f 41 354 352
f 41 45 70
f 43 72 33
f 43 42 353
f 360 353 356
f 360 43 353
f 361 356 362
f 363 361 362
f 363 362 364
f 356 365 362
f 364 362 365
f 366 367 365
f 356 368 365
f 366 365 368
f 369 365 367
f 369 364 365
f 370 371 367
f 372 367 371
f 373 370 367
f 366 373 367
f 372 369 367
f 374 375 371
f 376 371 375
f 370 374 371
f 372 371 376
f 377 378 375
f 379 375 378
f 377 375 374
f 376 375 379
f 380 381 378
f 382 378 381
f 377 380 378
f 379 378 382
f 383 384 381
f 385 381 384
f 380 383 381
f 382 381 385
f 386 384 387
f 383 387 384
f 385 384 388
f 386 388 384
f 389 387 390
f 389 386 387
f 391 392 383
f 393 383 392
f 380 391 383
f 394 383 393
f 390 387 383
f 395 390 383
f 394 395 383
f 396 397 392
f 398 392 397
f 391 396 392
f 399 392 398
f 393 392 399
f 396 400 397
f 401 397 400
f 402 397 401
f 398 397 402
f 403 400 396
f 404 400 403
f 401 400 404
f 405 396 391
f 403 396 405
f 406 368 391
f 407 391 368
f 408 406 391
f 380 408 391
f 405 391 407
f 358 368 356
f 409 366 368
f 410 409 368
f 406 410 368
f 407 368 358
f 361 360 356
f 411 33 73
f 412 34 33
f 411 412 33
f 413 43 360
f 72 43 413
f 413 360 414
f 414 360 361
f 414 361 415
f 363 415 361
f 416 374 370
f 417 377 374
f 417 374 416
f 418 370 373
f 416 370 418
f 419 373 366
f 418 373 419
f 420 366 409
f 419 366 420
f 421 409 410
f 420 409 421
f 422 410 406
f 421 410 422
f 423 406 408
f 423 422 406
f 424 408 380
f 423 408 424
f 425 380 377
f 424 380 425
f 425 377 417
f 372 364 369
f 426 427 364
f 426 364 372
f 364 428 363
f 429 363 428
f 430 428 364
f 430 429 428
f 427 415 364
f 431 364 415
f 431 428 364
f 427 432 415
f 363 431 415
f 432 414 415
f 432 413 414
f 432 433 413
f 433 434 413
f 72 413 434
f 71 434 433
f 71 72 434
f 70 433 432
f 70 71 433
f 354 432 427
f 435 436 427
f 435 427 426
f 436 354 427
f 437 438 436
f 359 436 438
f 439 437 436
f 435 439 436
f 440 441 438
f 442 440 438
f 443 442 438
f 437 443 438
f 441 359 438
f 444 445 441
f 440 444 441
f 444 446 445
f 447 448 440
f 442 447 440
f 447 382 448
f 385 449 448
f 382 385 448
f 388 389 449
f 395 449 389
f 385 388 449
f 448 449 394
f 395 394 449
f 395 389 386
f 386 389 388
f 450 379 382
f 447 450 382
f 450 376 379
f 451 372 376
f 452 451 376
f 450 452 376
f 451 426 372
f 430 428 431
f 430 431 363
f 429 430 363
f 453 71 72
f 70 72 71
f 453 72 70
f 359 407 358
f 454 405 407
f 455 407 405
f 359 454 407
f 455 358 407
f 456 405 403
f 454 403 405
f 455 405 456
f 457 403 404
f 456 403 457
f 402 401 404
f 458 404 401
f 457 404 458
f 458 401 402
f 399 398 402
f 459 402 398
f 458 402 459
f 459 398 399
f 394 393 399
f 460 399 402
f 461 399 460
f 394 399 461
f 462 402 404
f 460 402 462
f 463 404 403
f 462 404 463
f 464 403 454
f 463 403 464
f 465 454 359
f 464 454 465
f 466 359 357
f 465 359 466
f 466 357 355
f 453 41 70
f 352 41 453
f 453 70 71
f 457 458 403
f 404 403 458
f 459 399 402
f 461 448 394
f 395 387 390
f 386 395 394
f 416 418 467
f 418 419 467
f 417 416 468
f 424 425 469
f 425 417 469
f 417 468 469
f 470 395 386
f 390 471 389
f 449 471 470
f 470 471 390
f 419 472 467
f 460 440 448
f 461 460 448
f 453 70 432
f 352 432 354
f 453 432 352
f 355 354 436
f 466 436 359
f 355 436 466
f 465 359 441
f 464 441 445
f 465 441 464
f 464 445 446
f 462 444 440
f 460 462 440
f 463 446 444
f 462 463 444
f 463 464 446
f 389 470 386
f 390 395 470
f 416 467 468
f 389 449 470
f 470 389 471
f 411 73 26
f 473 411 26
f 474 473 26
f 475 26 476
f 25 476 26
f 477 474 26
f 475 477 26
f 478 479 480
f 481 480 479
f 474 480 482
f 481 482 480
f 474 483 480
f 484 480 483
f 484 478 480
f 478 485 479
f 481 479 485
f 486 485 487
f 486 481 485
f 486 487 488
f 35 34 488
f 489 488 34
f 490 35 488
f 487 490 488
f 489 486 488
f 489 34 412
f 491 412 411
f 491 489 412
f 491 411 473
f 474 482 473
f 492 473 482
f 492 491 473
f 481 492 482
f 493 494 476
f 495 476 494
f 495 475 476
f 25 493 476
f 493 496 494
f 495 494 496
f 497 496 498
f 497 495 496
f 497 498 499
f 500 501 499
f 502 499 501
f 503 500 499
f 498 503 499
f 502 497 499
f 484 483 501
f 502 501 483
f 504 484 501
f 500 504 501
f 505 483 474
f 505 502 483
f 505 474 477
f 506 477 475
f 506 505 477
f 495 506 475
f 507 35 490
f 507 36 35
f 507 490 487
f 508 487 485
f 508 507 487
f 508 485 478
f 509 478 484
f 509 508 478
f 509 484 504
f 500 38 504
f 510 504 38
f 510 509 504
f 510 38 37
f 511 38 500
f 511 39 38
f 512 37 36
f 512 510 37
f 507 512 36
f 513 500 503
f 513 511 500
f 513 503 498
f 514 498 496
f 514 513 498
f 514 496 493
f 515 493 25
f 515 514 493
f 515 25 28
f 516 28 24
f 516 515 28
f 516 24 39
f 517 39 511
f 517 516 39
f 513 517 511
f 518 27 74
f 519 27 520
f 518 520 27
f 521 29 27
f 519 521 27
f 522 518 74
f 523 522 74
f 75 523 74
f 520 524 9
f 11 9 524
f 19 520 9
f 525 526 524
f 527 524 526
f 520 525 524
f 527 11 524
f 528 526 525
f 528 527 526
f 529 525 520
f 529 528 525
f 530 519 520
f 531 530 520
f 19 531 520
f 518 529 520
f 532 20 18
f 533 21 20
f 533 20 532
f 534 18 30
f 532 18 534
f 535 30 29
f 534 30 535
f 536 29 521
f 535 29 536
f 537 521 519
f 536 521 537
f 538 519 530
f 537 519 538
f 539 530 531
f 539 538 530
f 540 531 19
f 539 531 540
f 541 19 21
f 540 19 541
f 541 21 533
f 542 11 527
f 543 11 542
f 543 12 11
f 529 527 528
f 542 527 529
f 542 529 518
f 522 542 518
f 79 10 13
f 78 13 14
f 16 544 15
f 544 76 15
f 545 542 522
f 546 543 542
f 546 542 545
f 547 522 523
f 547 545 522
f 548 523 75
f 548 547 523
f 549 75 76
f 549 548 75
f 550 76 544
f 550 549 76
f 551 544 16
f 551 550 544
f 552 16 17
f 552 551 16
f 553 17 12
f 553 552 17
f 554 12 543
f 554 553 12
f 546 554 543
f 14 15 77
f 550 551 552
f 535 552 553
f 535 550 552
f 532 553 554
f 534 535 553
f 532 534 553
f 533 554 546
f 533 532 554
f 547 546 545
f 540 546 547
f 541 533 546
f 540 541 546
f 540 547 548
f 538 548 549
f 539 548 538
f 539 540 548
f 537 549 550
f 537 538 549
f 536 537 550
f 535 536 550
f 491 492 481
f 491 481 489
f 481 486 489
f 505 506 495
f 505 495 502
f 495 497 502
f 510 512 507
f 510 507 509
f 507 508 509
f 516 517 513
f 516 513 515
f 513 514 515
f 555 426 451
f 556 435 426
f 556 426 555
f 472 451 452
f 472 555 451
f 467 452 450
f 472 452 467
f 468 450 447
f 467 450 468
f 469 447 442
f 468 447 469
f 557 442 443
f 469 442 557
f 558 443 437
f 558 557 443
f 559 437 439
f 559 558 437
f 560 439 435
f 560 559 439
f 556 560 435
f 472 556 555
f 469 557 558
f 424 558 559
f 424 469 558
f 422 559 560
f 423 559 422
f 423 424 559
f 421 560 556
f 421 422 560
f 419 556 472
f 420 421 556
f 419 420 556
f 6 8 3
f 5 3 8
f 2 6 3

