o convex_0
v 0.059980 0.006216 0.150701
v -0.060245 -0.009825 0.153371
v -0.058914 -0.016474 0.146679
v 0.014557 -0.059226 0.192118
v 0.017229 -0.085952 0.082559
v -0.009478 0.058318 0.146679
v -0.010820 0.002210 0.082559
v -0.012150 0.059653 0.192118
v -0.044225 -0.067240 0.082559
v -0.048227 -0.037857 0.192118
v 0.058650 -0.016488 0.192107
v 0.050634 -0.031165 0.082559
v 0.037275 0.044962 0.142679
v -0.049569 0.026250 0.134679
v -0.052229 0.031592 0.192118
v 0.046620 0.039620 0.192118
v -0.021508 -0.084617 0.083899
v 0.041277 -0.071261 0.083899
v -0.050899 -0.032501 0.082559
v 0.021243 0.036934 0.117316
v -0.022838 -0.056570 0.192118
v 0.037275 -0.048542 0.192118
v -0.024180 0.040955 0.122646
v -0.037539 0.047633 0.154701
v 0.018571 0.058318 0.180085
v 0.038605 -0.011161 0.082559
v -0.058914 -0.015138 0.192118
v 0.050634 -0.053884 0.082559
v 0.049292 0.028921 0.137338
v -0.033525 -0.007154 0.082559
v -0.058914 0.011559 0.148020
v -0.001462 -0.087302 0.086580
v 0.005212 0.052976 0.131998
v 0.058650 0.016901 0.192107
v 0.053306 -0.029844 0.192118
v -0.050899 -0.052549 0.082559
v -0.034867 -0.076603 0.085240
v -0.004134 -0.060562 0.192118
v -0.060245 0.008887 0.192118
v 0.010544 0.002210 0.082559
v 0.010544 0.059653 0.156042
v -0.008136 0.042291 0.118635
v -0.028182 0.054311 0.189437
v 0.054636 0.027585 0.160042
v 0.030589 0.052976 0.192118
v 0.059980 -0.009811 0.148031
v 0.037275 0.032928 0.123997
v 0.031931 -0.079274 0.083899
v -0.053571 0.028921 0.157361
v -0.042883 0.031592 0.129338
v -0.038869 -0.047206 0.192118
v 0.039946 0.046298 0.158701
v 0.025245 0.051640 0.139998
v 0.055978 0.014230 0.137338
v -0.046897 -0.021831 0.082559
v -0.024180 0.054311 0.148020
v -0.057573 -0.020495 0.192118
v 0.022573 -0.056570 0.192118
v -0.045555 0.040941 0.192118
v 0.025245 0.055647 0.160042
v 0.051964 -0.037857 0.082559
v -0.060245 0.000859 0.148020
v 0.047962 0.020907 0.125317
v 0.059980 -0.011146 0.192107
f 28 46 64 
f 7 5 9 
f 4 8 10 
f 5 7 12 
f 10 8 15 
f 8 4 16 
f 9 5 17 
f 7 9 19 
f 4 10 21 
f 16 4 22 
f 12 7 26 
f 2 3 27 
f 10 15 27 
f 5 12 28 
f 18 5 28 
f 7 19 30 
f 23 7 30 
f 14 19 31 
f 5 4 32 
f 17 5 32 
f 16 22 35 
f 22 18 35 
f 28 11 35 
f 18 28 35 
f 34 16 35 
f 3 2 36 
f 19 9 36 
f 27 3 36 
f 10 9 37 
f 9 17 37 
f 17 21 37 
f 4 21 38 
f 21 17 38 
f 32 4 38 
f 17 32 38 
f 2 27 39 
f 27 15 39 
f 26 7 40 
f 20 26 40 
f 6 8 41 
f 8 25 41 
f 33 6 41 
f 23 6 42 
f 7 23 42 
f 33 20 42 
f 6 33 42 
f 40 7 42 
f 20 40 42 
f 34 1 44 
f 16 34 44 
f 8 16 45 
f 25 8 45 
f 26 20 47 
f 13 29 47 
f 5 18 48 
f 18 22 48 
f 24 14 49 
f 14 31 49 
f 39 15 49 
f 31 39 49 
f 14 24 50 
f 23 30 50 
f 21 10 51 
f 10 37 51 
f 37 21 51 
f 29 13 52 
f 16 44 52 
f 44 29 52 
f 45 16 52 
f 20 33 53 
f 33 41 53 
f 13 47 53 
f 47 20 53 
f 44 1 54 
f 29 44 54 
f 19 14 55 
f 30 19 55 
f 14 50 55 
f 50 30 55 
f 8 6 56 
f 6 23 56 
f 43 8 56 
f 24 43 56 
f 50 24 56 
f 23 50 56 
f 9 10 57 
f 10 27 57 
f 36 9 57 
f 27 36 57 
f 4 5 58 
f 22 4 58 
f 5 48 58 
f 48 22 58 
f 15 8 59 
f 8 43 59 
f 43 24 59 
f 49 15 59 
f 24 49 59 
f 41 25 60 
f 25 45 60 
f 52 13 60 
f 45 52 60 
f 53 41 60 
f 13 53 60 
f 28 12 61 
f 1 46 61 
f 46 28 61 
f 54 1 61 
f 12 54 61 
f 31 19 62 
f 36 2 62 
f 19 36 62 
f 2 39 62 
f 39 31 62 
f 12 26 63 
f 26 47 63 
f 47 29 63 
f 54 12 63 
f 29 54 63 
f 11 28 64 
f 1 34 64 
f 35 11 64 
f 34 35 64 
f 46 1 64 
o convex_1
v -0.004140 -0.095318 0.065192
v 0.010550 0.000879 0.082557
v 0.011889 0.000870 0.082557
v 0.015897 -0.008486 0.059848
v -0.052226 -0.039219 0.059848
v -0.045551 -0.065922 0.082557
v 0.049294 -0.059239 0.082557
v 0.053311 -0.057903 0.059848
v -0.037537 -0.011160 0.082557
v -0.038865 -0.083289 0.059848
v 0.014557 -0.087289 0.082557
v 0.043958 -0.017833 0.082557
v 0.029257 -0.089962 0.059848
v -0.026844 -0.011160 0.059848
v 0.041279 -0.020506 0.061184
v -0.022836 -0.084625 0.082557
v -0.050897 -0.032536 0.082557
v -0.052226 -0.063249 0.061184
v -0.012154 0.000879 0.081220
v 0.053311 -0.043219 0.059848
v 0.038611 -0.075269 0.081220
v 0.045286 -0.076606 0.061184
v 0.051972 -0.039209 0.082557
v -0.020168 -0.093982 0.059848
v 0.027918 -0.004477 0.081220
v -0.045551 -0.025853 0.059848
v 0.007872 -0.096655 0.061184
v -0.052226 -0.048547 0.078548
v 0.026589 -0.011150 0.059848
v -0.004140 -0.088635 0.082557
v -0.016161 -0.008486 0.059848
v -0.033529 -0.079279 0.081220
v -0.028183 -0.004477 0.082557
v -0.045551 -0.020516 0.081220
v 0.046626 -0.027189 0.059848
v 0.049294 -0.027189 0.081220
v 0.030597 -0.080616 0.082557
v -0.036197 -0.016506 0.059848
v -0.044212 -0.077942 0.061184
v -0.029522 -0.089972 0.061184
v -0.053576 -0.045902 0.059848
v -0.050897 -0.053893 0.082557
v 0.022582 -0.092636 0.062520
v 0.003875 0.000879 0.079884
v 0.050633 -0.067250 0.059848
v 0.037272 -0.084616 0.061184
v -0.008147 -0.096655 0.061184
v -0.049558 -0.069932 0.059848
v 0.035933 -0.009823 0.082557
v 0.034593 -0.015160 0.059848
v 0.051972 -0.047229 0.082557
v 0.043958 -0.068586 0.082557
v 0.007872 -0.096655 0.059848
v -0.016161 -0.087299 0.081220
v 0.017236 -0.000467 0.081220
v -0.042883 -0.069932 0.082557
v -0.053576 -0.056566 0.061184
f 105 112 121 
f 67 66 70 
f 67 70 71 
f 69 68 72 
f 70 66 73 
f 69 72 74 
f 71 70 75 
f 67 71 76 
f 74 72 77 
f 68 69 78 
f 75 70 80 
f 70 73 81 
f 72 68 84 
f 76 71 87 
f 72 84 87 
f 74 77 88 
f 78 69 90 
f 84 68 93 
f 75 80 94 
f 65 91 94 
f 91 75 94 
f 68 78 95 
f 78 83 95 
f 73 66 97 
f 66 83 97 
f 83 78 97 
f 69 81 98 
f 81 73 98 
f 90 69 98 
f 73 90 98 
f 79 76 99 
f 84 93 99 
f 76 87 100 
f 87 84 100 
f 99 76 100 
f 84 99 100 
f 71 75 101 
f 78 90 102 
f 90 73 102 
f 73 97 102 
f 97 78 102 
f 74 96 103 
f 74 88 104 
f 88 80 104 
f 96 74 104 
f 80 96 104 
f 69 74 105 
f 81 69 105 
f 92 81 105 
f 70 81 106 
f 82 70 106 
f 81 92 106 
f 75 91 107 
f 101 75 107 
f 77 101 107 
f 66 67 108 
f 67 68 108 
f 83 66 108 
f 68 95 108 
f 95 83 108 
f 72 71 109 
f 77 72 109 
f 86 77 109 
f 71 86 109 
f 77 86 110 
f 86 85 110 
f 101 77 110 
f 85 101 110 
f 91 65 111 
f 65 94 111 
f 70 82 112 
f 74 103 112 
f 103 70 112 
f 105 74 112 
f 67 76 113 
f 76 79 113 
f 89 67 113 
f 89 113 114 
f 93 89 114 
f 79 99 114 
f 99 93 114 
f 113 79 114 
f 71 72 115 
f 87 71 115 
f 72 87 115 
f 85 86 116 
f 86 71 116 
f 71 101 116 
f 101 85 116 
f 88 77 117 
f 107 91 117 
f 77 107 117 
f 111 88 117 
f 91 111 117 
f 80 88 118 
f 94 80 118 
f 88 111 118 
f 111 94 118 
f 68 67 119 
f 67 89 119 
f 93 68 119 
f 89 93 119 
f 80 70 120 
f 96 80 120 
f 70 103 120 
f 103 96 120 
f 92 105 121 
f 82 106 121 
f 106 92 121 
f 112 82 121 
o convex_2
v 0.027922 -0.096648 0.045151
v -0.054912 -0.063236 0.043812
v -0.053571 -0.068577 0.043812
v -0.053571 -0.057906 0.059845
v 0.039944 0.008896 0.043812
v 0.053307 -0.059230 0.059845
v -0.008143 0.008896 0.059845
v -0.040209 0.008896 0.043812
v -0.010824 -0.096648 0.059845
v 0.054647 -0.064582 0.043812
v -0.025517 -0.097972 0.043812
v 0.042615 -0.021835 0.059845
v 0.034604 -0.087302 0.059845
v -0.050890 -0.035197 0.059845
v -0.038868 -0.084620 0.058507
v 0.015900 0.008896 0.058507
v 0.011890 -0.101999 0.043812
v 0.053307 -0.043230 0.059845
v -0.026846 0.008896 0.054500
v 0.046626 -0.081950 0.043812
v -0.054912 -0.044565 0.043812
v 0.054647 -0.043230 0.043812
v 0.017230 -0.095313 0.059845
v -0.045550 -0.083285 0.045151
v 0.031923 0.008896 0.051829
v -0.048220 -0.072593 0.059845
v 0.050626 -0.068577 0.059845
v -0.004143 -0.101999 0.047824
v -0.045550 -0.025851 0.059845
v -0.021506 -0.093967 0.059845
v -0.037539 0.008896 0.047824
v -0.033528 -0.093967 0.045151
v -0.012154 -0.101999 0.045151
v 0.039944 0.008896 0.045151
v 0.043944 -0.083285 0.050493
v -0.053571 -0.044565 0.059845
v 0.007879 0.008896 0.059845
v 0.037263 -0.091307 0.043812
v 0.009219 -0.097972 0.057171
v 0.051966 -0.037878 0.059845
v 0.054647 -0.051219 0.054500
v -0.020176 0.008896 0.057171
v -0.049561 -0.077945 0.043812
v 0.053307 -0.069923 0.045151
v -0.053571 -0.039214 0.047824
v 0.018571 -0.100653 0.045151
v -0.054912 -0.051219 0.051829
v 0.023912 0.008896 0.055834
v 0.046626 -0.075274 0.059845
v 0.053307 -0.037878 0.046487
f 155 161 171 
f 123 124 125 
f 124 123 126 
f 125 127 128 
f 126 123 129 
f 128 126 129 
f 127 125 130 
f 124 126 131 
f 124 131 132 
f 128 127 133 
f 127 130 134 
f 125 128 135 
f 126 128 137 
f 132 131 138 
f 133 127 139 
f 128 129 140 
f 138 131 141 
f 129 123 142 
f 131 126 143 
f 122 134 144 
f 134 130 144 
f 126 137 146 
f 125 124 147 
f 130 125 147 
f 145 136 147 
f 127 134 148 
f 135 128 150 
f 130 147 151 
f 147 136 151 
f 129 135 152 
f 140 129 152 
f 135 150 152 
f 150 140 152 
f 136 145 153 
f 132 151 153 
f 151 136 153 
f 132 138 154 
f 149 130 154 
f 138 149 154 
f 130 151 154 
f 151 132 154 
f 126 146 155 
f 146 133 155 
f 125 135 157 
f 128 133 158 
f 137 128 158 
f 133 137 158 
f 134 122 159 
f 138 141 159 
f 156 134 159 
f 141 156 159 
f 144 130 160 
f 130 149 160 
f 149 138 160 
f 133 139 161 
f 155 133 161 
f 127 131 162 
f 139 127 162 
f 131 143 162 
f 143 139 162 
f 128 140 163 
f 150 128 163 
f 140 150 163 
f 124 132 164 
f 147 124 164 
f 145 147 164 
f 132 153 164 
f 153 145 164 
f 131 127 165 
f 141 131 165 
f 127 148 165 
f 148 141 165 
f 135 129 166 
f 129 142 166 
f 157 135 166 
f 142 157 166 
f 122 144 167 
f 159 122 167 
f 138 159 167 
f 144 160 167 
f 160 138 167 
f 123 125 168 
f 142 123 168 
f 125 157 168 
f 157 142 168 
f 137 133 169 
f 133 146 169 
f 146 137 169 
f 148 134 170 
f 141 148 170 
f 134 156 170 
f 156 141 170 
f 143 126 171 
f 139 143 171 
f 126 155 171 
f 161 139 171 
o convex_3
v -0.002804 -0.089969 -0.052383
v -0.052240 -0.037868 -0.031011
v -0.052240 -0.037868 -0.029673
v -0.002804 0.008896 -0.057729
v -0.002804 -0.008478 -0.029673
v -0.002804 -0.107344 -0.029673
v -0.040210 0.008896 -0.045705
v -0.026854 -0.069932 -0.052383
v -0.052240 0.008896 -0.029673
v -0.037539 -0.091289 -0.031011
v -0.009487 -0.036537 -0.060403
v -0.022848 0.008896 -0.056390
v -0.042886 -0.059225 -0.041699
v -0.020177 -0.096648 -0.043034
v -0.002804 -0.067247 -0.059064
v -0.026854 -0.037868 -0.055057
v -0.048228 -0.069932 -0.029673
v -0.033532 -0.083290 -0.043034
v -0.018841 -0.079285 -0.053722
v -0.038874 -0.044559 -0.047041
v -0.018841 -0.104670 -0.029673
v -0.048228 -0.008478 -0.037692
v -0.018841 -0.053889 -0.057729
v -0.002804 -0.008478 -0.060403
v -0.005480 -0.103327 -0.040366
v -0.048228 0.008896 -0.029673
v -0.013494 0.008896 -0.059064
v -0.033532 -0.008478 -0.051048
v -0.042886 -0.080616 -0.033685
v -0.016170 -0.027184 -0.059064
v -0.018841 -0.088638 -0.049709
v -0.012158 -0.069932 -0.057729
v -0.034868 -0.063242 -0.048377
v -0.045557 -0.043216 -0.040366
v -0.048228 -0.063242 -0.033685
v -0.028190 -0.096648 -0.036353
v -0.010823 -0.097991 -0.045705
v -0.016170 -0.103327 -0.036353
v -0.041550 -0.073937 -0.039028
v -0.004145 -0.052546 -0.060403
v -0.010823 -0.081948 -0.055057
v -0.052240 0.008896 -0.031011
v -0.028190 -0.053889 -0.053722
v -0.030861 -0.097991 -0.029673
v -0.030861 0.008896 -0.052383
v -0.010823 -0.107344 -0.031011
v -0.028190 -0.080616 -0.048377
v -0.026854 -0.089969 -0.044370
f 218 202 219 
f 172 175 176 
f 176 174 177 
f 172 176 177 
f 173 174 180 
f 174 176 180 
f 175 178 180 
f 178 175 183 
f 175 172 186 
f 174 173 188 
f 177 174 188 
f 177 188 192 
f 175 186 195 
f 172 177 196 
f 176 175 197 
f 175 180 197 
f 180 176 197 
f 183 175 198 
f 195 182 198 
f 175 195 198 
f 191 178 199 
f 187 191 199 
f 181 188 200 
f 189 181 200 
f 187 183 201 
f 182 194 201 
f 194 187 201 
f 198 182 201 
f 183 198 201 
f 190 179 203 
f 179 194 203 
f 184 191 204 
f 178 191 205 
f 191 184 205 
f 173 193 205 
f 193 178 205 
f 188 173 206 
f 200 188 206 
f 173 205 206 
f 205 184 206 
f 172 196 208 
f 202 172 208 
f 185 202 208 
f 207 185 209 
f 192 207 209 
f 208 196 209 
f 185 208 209 
f 189 200 210 
f 184 204 210 
f 204 189 210 
f 200 206 210 
f 206 184 210 
f 194 182 211 
f 182 195 211 
f 195 186 211 
f 186 203 211 
f 203 194 211 
f 186 172 212 
f 172 202 212 
f 202 190 212 
f 203 186 212 
f 190 203 212 
f 173 180 213 
f 180 178 213 
f 193 173 213 
f 178 193 213 
f 191 187 214 
f 194 179 214 
f 187 194 214 
f 179 204 214 
f 204 191 214 
f 188 181 215 
f 192 188 215 
f 181 207 215 
f 207 192 215 
f 178 183 216 
f 183 187 216 
f 199 178 216 
f 187 199 216 
f 177 192 217 
f 196 177 217 
f 192 209 217 
f 209 196 217 
f 179 190 218 
f 190 202 218 
f 204 179 218 
f 189 204 218 
f 181 189 219 
f 202 185 219 
f 185 207 219 
f 207 181 219 
f 189 218 219 
o convex_4
v 0.053304 -0.075258 0.033121
v -0.002795 -0.112688 -0.008295
v 0.007887 -0.112688 -0.008295
v 0.058652 0.006206 -0.008295
v -0.002795 -0.008480 0.043812
v -0.002795 -0.008480 -0.008295
v -0.002795 -0.103334 0.043812
v 0.041282 0.008896 0.043812
v 0.051970 -0.080614 -0.008295
v 0.055978 -0.055228 0.043812
v 0.034606 -0.093967 0.043812
v 0.059992 -0.049897 -0.000277
v 0.058652 0.007539 0.014428
v 0.033267 -0.103322 0.009077
v 0.011895 -0.108677 0.025103
v 0.037274 0.008896 0.042476
v 0.053304 0.008896 0.029112
v 0.039948 -0.097990 -0.004286
v 0.047963 -0.087291 0.025103
v 0.057312 -0.068582 0.011755
v 0.059992 -0.015168 0.011755
v 0.058652 -0.055228 -0.008295
v 0.050637 -0.076603 0.043812
v -0.002795 -0.111343 0.017101
v 0.022584 -0.108677 -0.008295
v 0.017243 -0.110010 0.013086
v 0.059992 0.002207 -0.008295
v 0.023918 -0.099323 0.043812
v 0.054644 -0.041887 0.043812
v 0.058652 -0.053884 0.022431
v 0.030599 -0.101989 0.026435
v 0.055978 0.008896 0.011755
v 0.050637 -0.084625 0.017101
v 0.039948 -0.096645 0.021089
v 0.055978 -0.064583 0.037130
v 0.047963 0.008896 0.037130
v 0.002546 -0.112688 0.009077
v 0.043955 -0.085958 0.043812
v 0.045289 -0.092634 0.001059
v 0.034606 -0.101989 -0.008295
v 0.009221 -0.105999 0.035794
v 0.055978 -0.071259 -0.005623
v 0.054644 -0.076603 0.014428
v 0.021244 -0.105999 0.026435
v 0.055978 0.007539 0.023762
v 0.025251 -0.107332 0.011755
v 0.059992 -0.045898 0.010414
v 0.058652 -0.060560 0.015759
v 0.058652 -0.061905 0.002396
v 0.057312 0.006206 -0.008295
v 0.059992 0.003540 0.006405
v 0.043955 -0.093967 0.011755
v 0.014563 -0.111343 0.006405
v 0.059992 -0.031200 -0.008295
v 0.001206 -0.110010 0.023762
v 0.038614 -0.093967 0.035794
f 238 257 275 
f 222 221 223 
f 221 224 225 
f 223 221 225 
f 224 221 226 
f 224 226 227 
f 222 223 228 
f 227 226 229 
f 229 226 230 
f 225 224 235 
f 224 227 235 
f 235 227 236 
f 232 229 240 
f 228 223 241 
f 229 230 242 
f 238 220 242 
f 226 221 243 
f 222 228 244 
f 240 231 246 
f 241 223 246 
f 230 226 247 
f 227 229 248 
f 240 229 249 
f 230 247 250 
f 232 223 251 
f 225 235 251 
f 236 232 251 
f 235 236 251 
f 220 238 252 
f 250 233 253 
f 220 239 254 
f 242 220 254 
f 229 242 254 
f 249 229 254 
f 236 227 255 
f 227 248 255 
f 248 236 255 
f 221 222 256 
f 243 221 256 
f 245 234 256 
f 242 230 257 
f 238 242 257 
f 237 228 258 
f 228 252 258 
f 228 237 259 
f 237 233 259 
f 244 228 259 
f 233 244 259 
f 247 226 260 
f 228 241 261 
f 239 220 262 
f 252 228 262 
f 220 252 262 
f 261 239 262 
f 228 261 262 
f 234 245 263 
f 250 247 263 
f 260 234 263 
f 247 260 263 
f 229 232 264 
f 232 236 264 
f 248 229 264 
f 236 248 264 
f 244 233 265 
f 233 250 265 
f 263 245 265 
f 250 263 265 
f 231 240 266 
f 240 249 266 
f 266 249 267 
f 254 239 267 
f 249 254 267 
f 231 266 267 
f 241 231 268 
f 239 261 268 
f 261 241 268 
f 231 267 268 
f 267 239 268 
f 223 225 269 
f 251 223 269 
f 225 251 269 
f 223 232 270 
f 232 240 270 
f 246 223 270 
f 240 246 270 
f 233 237 271 
f 252 238 271 
f 253 233 271 
f 238 253 271 
f 237 258 271 
f 258 252 271 
f 222 244 272 
f 256 222 272 
f 245 256 272 
f 244 265 272 
f 265 245 272 
f 231 241 273 
f 246 231 273 
f 241 246 273 
f 226 243 274 
f 243 256 274 
f 256 234 274 
f 260 226 274 
f 234 260 274 
f 230 250 275 
f 253 238 275 
f 250 253 275 
f 257 230 275 
o convex_5
v -0.052237 -0.081942 0.002395
v -0.002810 -0.008473 0.043805
v -0.002810 -0.008473 -0.029665
v -0.002810 -0.112688 0.007731
v -0.060256 -0.008473 -0.008292
v -0.053575 -0.069925 0.043805
v -0.034871 -0.095305 -0.029665
v -0.002810 -0.103334 0.043805
v -0.042885 -0.008473 0.043805
v -0.002810 -0.108679 -0.029665
v -0.053575 -0.008473 -0.029665
v -0.032200 -0.103334 0.015750
v -0.056241 -0.064579 -0.013635
v -0.058918 -0.008473 0.015750
v -0.058918 -0.059244 0.014413
v -0.040213 -0.089970 0.042467
v -0.025519 -0.107343 -0.010960
v -0.048227 -0.072598 -0.029665
v -0.054908 -0.043228 0.043805
v -0.044223 -0.093969 0.006408
v -0.016172 -0.106006 0.031781
v -0.046894 -0.085961 -0.018979
v -0.057579 -0.049900 -0.016303
v -0.045556 -0.089970 0.026437
v -0.026857 -0.097978 0.043805
v -0.014834 -0.111352 0.005070
v -0.060256 -0.043228 -0.001611
v -0.009491 -0.111352 -0.018979
v -0.056241 -0.056572 0.041130
v -0.038881 -0.097978 -0.010960
v -0.052237 -0.008473 0.031781
v -0.060256 -0.008473 0.009069
v -0.017505 -0.106006 -0.029665
v -0.053575 -0.077943 0.022431
v -0.053575 -0.051236 -0.026990
v -0.057579 -0.067252 0.002395
v -0.057579 -0.025856 -0.020309
v -0.048227 -0.080605 0.043805
v -0.060256 -0.039209 0.009069
v -0.052237 -0.076607 -0.016303
v -0.026857 -0.104670 -0.021647
v -0.006820 -0.110015 0.022431
v -0.024180 -0.106006 0.022431
v -0.034871 -0.099314 0.026437
v -0.038881 -0.099314 0.005070
v -0.057579 -0.064579 0.022431
v -0.002810 -0.112688 -0.012297
v -0.058918 -0.057908 -0.004279
v -0.049566 -0.085961 0.019756
v -0.048227 -0.087297 -0.008292
v -0.025519 -0.107343 0.011744
v -0.041546 -0.087297 -0.029665
v -0.058918 -0.043228 -0.012297
v -0.053575 -0.068588 -0.020309
v -0.017505 -0.110015 0.013075
v -0.030861 -0.104670 -0.006954
v -0.010824 -0.103334 0.042467
v -0.057579 -0.008473 -0.020309
v -0.008153 -0.112688 -0.008292
v -0.018838 -0.110015 -0.010960
v -0.056241 -0.008473 0.023762
v -0.056241 -0.069925 -0.006954
v -0.052237 -0.049900 -0.029665
v -0.040213 -0.092633 -0.024322
f 297 327 339 
f 278 277 279 
f 277 278 280 
f 279 277 283 
f 277 281 283 
f 277 280 284 
f 281 277 284 
f 278 279 285 
f 282 278 285 
f 280 278 286 
f 278 282 286 
f 284 280 289 
f 286 282 293 
f 281 284 294 
f 283 281 300 
f 281 294 304 
f 294 289 304 
f 284 289 306 
f 294 284 306 
f 289 280 307 
f 280 302 307 
f 304 289 307 
f 282 285 308 
f 285 303 308 
f 276 309 311 
f 286 310 312 
f 310 298 312 
f 299 291 313 
f 300 281 313 
f 291 300 313 
f 281 309 313 
f 302 290 314 
f 290 304 314 
f 307 302 314 
f 304 307 314 
f 293 297 315 
f 282 308 316 
f 308 303 316 
f 279 283 317 
f 296 300 318 
f 291 299 319 
f 300 291 319 
f 287 318 319 
f 318 300 319 
f 299 295 320 
f 295 305 320 
f 319 299 320 
f 287 319 320 
f 281 304 321 
f 304 290 321 
f 309 281 321 
f 290 311 321 
f 311 309 321 
f 285 279 322 
f 303 285 322 
f 298 288 323 
f 290 302 323 
f 311 290 323 
f 276 295 324 
f 295 299 324 
f 309 276 324 
f 299 313 324 
f 313 309 324 
f 295 276 325 
f 305 295 325 
f 297 305 325 
f 276 315 325 
f 315 297 325 
f 318 287 326 
f 293 282 327 
f 297 293 327 
f 302 280 328 
f 280 312 328 
f 312 298 328 
f 298 323 328 
f 323 302 328 
f 288 298 329 
f 310 293 329 
f 298 310 329 
f 315 288 329 
f 293 315 329 
f 301 279 330 
f 279 317 330 
f 317 296 330 
f 296 318 330 
f 326 301 330 
f 318 326 330 
f 316 292 331 
f 305 316 331 
f 287 320 331 
f 320 305 331 
f 326 287 331 
f 292 326 331 
f 283 300 332 
f 300 296 332 
f 317 283 332 
f 296 317 332 
f 280 286 333 
f 312 280 333 
f 286 312 333 
f 279 301 334 
f 322 279 334 
f 303 322 334 
f 292 316 335 
f 316 303 335 
f 326 292 335 
f 301 326 335 
f 334 301 335 
f 303 334 335 
f 289 294 336 
f 306 289 336 
f 294 306 336 
f 276 311 337 
f 288 315 337 
f 315 276 337 
f 323 288 337 
f 311 323 337 
f 286 293 338 
f 310 286 338 
f 293 310 338 
f 305 297 339 
f 282 316 339 
f 316 305 339 
f 327 282 339 
o convex_6
v 0.041282 -0.067252 -0.041691
v -0.002795 -0.112688 -0.012309
v -0.002795 -0.112688 -0.008300
v -0.002795 -0.008473 -0.060398
v 0.059992 -0.008473 -0.008300
v -0.002795 -0.008473 -0.008300
v -0.002795 -0.087287 -0.053716
v 0.045289 -0.091306 -0.008300
v 0.029259 -0.008473 -0.053722
v 0.022584 -0.099314 -0.037682
v 0.017243 -0.069925 -0.056389
v 0.054644 -0.044555 -0.025671
v 0.049297 -0.008473 -0.036346
v 0.057312 -0.063243 -0.009637
v 0.025251 -0.107343 -0.012309
v 0.046629 -0.080605 -0.027007
v 0.002546 -0.106006 -0.036346
v 0.003880 -0.052573 -0.060398
v 0.019910 -0.089970 -0.048372
v 0.034606 -0.053909 -0.049708
v 0.015903 -0.041882 -0.059061
v 0.033267 -0.095305 -0.032347
v 0.034606 -0.081942 -0.043032
v -0.002795 -0.097978 -0.047035
v -0.002795 -0.067242 -0.059061
v 0.014563 -0.008473 -0.059061
v 0.013229 -0.108679 -0.025671
v 0.043955 -0.049900 -0.041691
v 0.058652 -0.025856 -0.016318
v 0.050637 -0.065916 -0.028344
v 0.014563 -0.111352 -0.008300
v 0.037274 -0.008473 -0.048377
v 0.055978 -0.008473 -0.024335
v 0.023918 -0.041882 -0.056389
v 0.027925 -0.072598 -0.051044
v 0.010561 -0.097978 -0.045699
v 0.010561 -0.081952 -0.055053
v 0.053304 -0.076607 -0.008300
v 0.033267 -0.100661 -0.020326
v 0.043955 -0.089970 -0.018990
v 0.050637 -0.039209 -0.033678
v 0.009221 -0.017828 -0.060398
v -0.002795 -0.111352 -0.021663
v 0.051970 -0.075270 -0.018990
v 0.025251 -0.101997 -0.031016
v 0.035940 -0.100661 -0.008300
v 0.057312 -0.052573 -0.016318
v 0.058652 -0.053909 -0.008300
v 0.010561 -0.061897 -0.059061
v 0.015903 -0.103334 -0.036346
v 0.042622 -0.079279 -0.035015
v 0.009221 -0.091306 -0.051044
v 0.049297 -0.056572 -0.033678
v 0.031933 -0.035200 -0.052380
v 0.021244 -0.059265 -0.056389
v 0.025251 -0.091306 -0.044363
v 0.025251 -0.081952 -0.049708
v 0.009221 -0.111352 -0.018990
v 0.039948 -0.087297 -0.032347
v 0.037274 -0.041892 -0.048377
v 0.019910 -0.008473 -0.057725
v -0.002795 -0.055256 -0.060398
v 0.002546 -0.080616 -0.056389
v 0.050637 -0.081942 -0.012309
f 383 377 403 
f 341 342 343 
f 342 344 345 
f 343 342 345 
f 344 343 345 
f 341 343 346 
f 344 342 347 
f 343 344 348 
f 348 344 352 
f 341 346 363 
f 346 343 364 
f 343 348 365 
f 340 359 367 
f 342 341 370 
f 347 342 370 
f 348 352 371 
f 352 344 372 
f 344 368 372 
f 368 351 372 
f 359 340 374 
f 340 362 374 
f 356 363 375 
f 344 347 377 
f 347 378 379 
f 378 361 379 
f 367 352 380 
f 352 372 380 
f 372 351 380 
f 357 343 381 
f 360 357 381 
f 343 365 381 
f 365 360 381 
f 341 363 382 
f 363 356 382 
f 355 369 383 
f 353 377 383 
f 349 361 384 
f 354 366 384 
f 378 354 384 
f 361 378 384 
f 347 370 385 
f 370 354 385 
f 378 347 385 
f 354 378 385 
f 351 368 386 
f 369 351 386 
f 353 383 386 
f 383 369 386 
f 368 344 387 
f 344 377 387 
f 377 353 387 
f 386 368 387 
f 353 386 387 
f 357 360 388 
f 350 376 388 
f 366 356 389 
f 375 349 389 
f 356 375 389 
f 349 384 389 
f 384 366 389 
f 362 340 390 
f 340 369 390 
f 369 355 390 
f 363 346 391 
f 358 375 391 
f 375 363 391 
f 376 358 391 
f 340 367 392 
f 351 369 392 
f 369 340 392 
f 367 380 392 
f 380 351 392 
f 348 371 393 
f 359 373 393 
f 373 348 393 
f 373 359 394 
f 360 373 394 
f 374 350 394 
f 359 374 394 
f 388 360 394 
f 350 388 394 
f 361 349 395 
f 362 361 395 
f 349 375 395 
f 375 358 395 
f 350 374 396 
f 374 362 396 
f 376 350 396 
f 358 376 396 
f 395 358 396 
f 362 395 396 
f 366 354 397 
f 356 366 397 
f 370 341 397 
f 354 370 397 
f 341 382 397 
f 382 356 397 
f 361 362 398 
f 355 379 398 
f 379 361 398 
f 390 355 398 
f 362 390 398 
f 352 367 399 
f 367 359 399 
f 371 352 399 
f 393 371 399 
f 359 393 399 
f 365 348 400 
f 360 365 400 
f 348 373 400 
f 373 360 400 
f 343 357 401 
f 364 343 401 
f 357 388 401 
f 388 364 401 
f 346 364 402 
f 364 388 402 
f 388 376 402 
f 391 346 402 
f 376 391 402 
f 377 347 403 
f 379 355 403 
f 347 379 403 
f 355 383 403 
o convex_7
v -0.060256 0.008894 -0.004290
v -0.052242 -0.008471 -0.029673
v -0.049569 -0.008471 -0.029673
v -0.058919 -0.008471 0.013082
v -0.056247 0.008894 0.013082
v -0.049569 0.008894 -0.029673
v -0.058919 -0.008471 -0.013640
v -0.056247 0.008894 -0.022989
v -0.056247 -0.008471 0.013082
v -0.058919 0.008894 0.013082
v -0.060256 -0.008471 0.003729
v -0.049569 0.008894 -0.026998
v -0.056247 -0.008471 -0.022989
v -0.053578 0.008894 -0.028333
f 405 416 417 
f 405 406 407 
f 406 405 409 
f 404 408 409 
f 405 407 410 
f 404 409 411 
f 410 404 411 
f 407 406 412 
f 408 407 412 
f 408 404 413 
f 407 408 413 
f 404 410 414 
f 410 407 414 
f 413 404 414 
f 407 413 414 
f 406 409 415 
f 409 408 415 
f 412 406 415 
f 408 412 415 
f 405 410 416 
f 410 411 416 
f 416 411 417 
f 409 405 417 
f 411 409 417 
o convex_8
v -0.057584 -0.008471 0.018427
v -0.037543 0.008894 0.043812
v -0.037543 -0.008471 0.043812
v -0.054910 0.008894 0.014421
v -0.048230 0.008894 0.037131
v -0.054910 -0.008471 0.014421
v -0.048230 -0.008471 0.037131
v -0.056244 0.008894 0.022437
v -0.041553 -0.008471 0.043812
v -0.037543 -0.008471 0.042474
v -0.057584 0.008894 0.013082
v -0.041553 0.008894 0.043812
v -0.037543 0.008894 0.042474
v -0.050900 -0.008471 0.033119
f 425 418 431 
f 419 421 422 
f 420 418 423 
f 418 420 424 
f 422 421 425 
f 420 419 426 
f 424 420 426 
f 422 424 426 
f 419 420 427 
f 420 423 427 
f 423 421 427 
f 423 418 428 
f 421 423 428 
f 418 425 428 
f 425 421 428 
f 419 422 429 
f 426 419 429 
f 422 426 429 
f 421 419 430 
f 419 427 430 
f 427 421 430 
f 418 424 431 
f 424 422 431 
f 422 425 431 
o convex_9
v 0.022573 -0.008471 -0.056393
v 0.041286 0.008894 -0.043035
v 0.041286 0.008894 -0.044371
v -0.002804 0.008894 -0.057729
v 0.037277 -0.008471 -0.043035
v -0.002804 -0.008471 -0.057729
v 0.013229 0.008894 -0.059065
v -0.001467 -0.008471 -0.060401
v 0.041286 -0.008471 -0.044371
v 0.030596 0.008894 -0.052384
v 0.037277 0.008894 -0.043035
v 0.013229 -0.008471 -0.059065
v 0.001205 0.003550 -0.060401
v 0.038606 -0.008471 -0.047043
f 441 434 445 
f 433 434 435 
f 432 436 437 
f 436 435 437 
f 435 434 438 
f 432 437 439 
f 437 435 439 
f 434 433 440 
f 436 432 440 
f 433 436 440 
f 432 438 441 
f 438 434 441 
f 433 435 442 
f 435 436 442 
f 436 433 442 
f 438 432 443 
f 432 439 443 
f 443 439 444 
f 435 438 444 
f 439 435 444 
f 438 443 444 
f 440 432 445 
f 434 440 445 
f 432 441 445 
o convex_10
v 0.046632 -0.008471 -0.039022
v 0.058656 0.006222 -0.008299
v 0.057316 0.006222 -0.008299
v 0.038614 0.008894 -0.043030
v 0.055982 -0.008471 -0.008299
v 0.055982 0.008894 -0.022996
v 0.038614 -0.008471 -0.041694
v 0.057316 -0.008471 -0.020323
v 0.050638 0.008894 -0.033678
v 0.042624 0.008894 -0.043030
v 0.038614 0.008894 -0.041694
v 0.055982 0.008894 -0.012307
v 0.058656 -0.008471 -0.008299
v 0.042624 -0.008471 -0.043030
v 0.058656 0.004886 -0.014979
v 0.055982 -0.000455 -0.008299
f 456 450 461 
f 447 448 450 
f 446 450 452 
f 450 446 453 
f 451 453 454 
f 449 451 454 
f 453 446 454 
f 449 454 455 
f 454 446 455 
f 451 449 456 
f 449 452 456 
f 452 450 456 
f 448 447 457 
f 447 451 457 
f 456 448 457 
f 451 456 457 
f 447 450 458 
f 450 453 458 
f 446 452 459 
f 452 449 459 
f 449 455 459 
f 455 446 459 
f 451 447 460 
f 453 451 460 
f 447 458 460 
f 458 453 460 
f 450 448 461 
f 448 456 461 
