# https://github.com/mikedh/trimesh

o left_arm6.stl
v -0.05824530 -0.00101596 0.04549455
v -0.05798107 -0.00563347 0.04549455
v -0.05814236 0.00360662 0.04549455
v -0.05767309 0.00820750 0.04549467
v -0.05735146 -0.01021486 0.04549467
v -0.05684006 0.01275676 0.04549467
v -0.05636048 -0.01473188 0.04549479
v -0.05564910 0.01722508 0.04549479
v -0.05501395 -0.01915669 0.04549485
v -0.05410724 0.02158504 0.04549497
v -0.05332136 -0.02345925 0.04549509
v -0.05222427 0.02580928 0.04549515
v -0.05129219 -0.02761524 0.04549515
v -0.05001217 0.02987056 0.04549539
v -0.04893958 -0.03159719 0.04549545
v -0.04748547 0.03374296 0.04549556
v -0.04627919 -0.03537917 0.04549568
v -0.04465878 0.03740346 0.04549586
v -0.04332655 -0.03893887 0.04549598
v -0.04155087 0.04082798 0.04549616
v -0.04010087 -0.04225295 0.04549628
v -0.03818130 0.04399520 0.04549646
v -0.03662258 -0.04530066 0.04549658
v -0.03457039 0.04688537 0.04549675
v -0.03291386 -0.04806256 0.04549700
v -0.03074276 0.04947924 0.04549717
v -0.02899736 -0.05052180 0.04549730
v -0.02672046 0.05176198 0.04549747
v -0.02489817 -0.05266256 0.04549765
v -0.02252966 0.05371838 0.04549789
v -0.02053644 -0.05455936 0.04542115
v -0.01819795 0.05533576 0.04549825
v -0.01662169 -0.05593526 0.04532371
v -0.01422482 -0.05638714 0.04549861
v -0.01375049 0.05660480 0.04549866
v -0.01280027 -0.05658340 0.04549878
v -0.00921661 0.05751687 0.04549908
v -0.00781482 -0.05679994 0.04549926
v -0.00462484 0.05806636 0.04549956
v 0.00780642 -0.05679994 0.04550069
v -0.00000421 0.05824995 0.04549998
v 0.00461644 0.05806636 0.04550039
v 0.00920820 0.05751687 0.04550087
v 0.01280069 -0.05658239 0.04550117
v 0.01374208 0.05660480 0.04550129
v 0.01410835 -0.05640828 0.04550129
v 0.01624685 -0.05593705 0.04550147
v 0.01818954 0.05533576 0.04550164
v 0.02063357 -0.05447149 0.04550188
v 0.02252125 0.05371838 0.04550206
v 0.02488976 -0.05266256 0.04550230
v 0.02671205 0.05176198 0.04550248
v 0.02898895 -0.05052179 0.04550266
v 0.03073436 0.04947924 0.04550290
v 0.03290545 -0.04806256 0.04550307
v 0.03456199 0.04688537 0.04550319
v 0.03661417 -0.04530066 0.04550337
v 0.03817290 0.04399520 0.04550349
v 0.04009246 -0.04225295 0.04550367
v 0.04154247 0.04082798 0.04550385
v 0.04331815 -0.03893887 0.04550397
v 0.04465037 0.03740346 0.04550409
v 0.04627078 -0.03537917 0.04550427
v 0.04747706 0.03374296 0.04550439
v 0.04893118 -0.03159719 0.04550445
v 0.05000376 0.02987056 0.04550457
v 0.05128377 -0.02761524 0.04550474
v 0.05221587 0.02580928 0.04550475
v 0.05331295 -0.02345925 0.04550486
v 0.05409890 0.02158498 0.04550498
v 0.05500555 -0.01915669 0.04550504
v 0.05564069 0.01722508 0.04550516
v 0.05635207 -0.01473188 0.04550516
v 0.05683165 0.01275688 0.04550528
v 0.05734306 -0.01021480 0.04550528
v 0.05766468 0.00820750 0.04550528
v 0.05797266 -0.00563347 0.04550540
v 0.05813395 0.00360656 0.04550540
v 0.05823689 -0.00101596 0.04550540
v 0.01797884 -0.05592828 0.04464465
v 0.01967835 -0.05591905 0.04370176
v 0.02514076 -0.05588585 0.03990048
v 0.02997602 -0.05585326 0.03531868
v 0.03779047 -0.05087029 0.03536027
v 0.03452938 -0.05582088 0.02947038
v 0.03695398 -0.05580317 0.02539479
v -0.01847835 -0.05547429 0.04511996
v -0.01727653 -0.05613261 0.04462568
v -0.01687287 -0.05651711 0.04389784
v -0.01321493 -0.05660222 0.04426321
v 0.01329171 -0.05676274 0.04414858
v -0.01767107 -0.05658846 0.04323899
v -0.01872708 -0.05665352 0.04208673
v -0.02493119 -0.05653251 0.03841960
v -0.02085715 -0.05625408 0.04230499
v -0.02245575 -0.05590289 0.04192715
v -0.02128177 -0.05679994 0.03925269
v -0.02229315 -0.05402284 0.04517316
v -0.02413707 -0.05344617 0.04482537
v -0.02558559 -0.05306297 0.04436195
v -0.02686779 -0.05283727 0.04370920
v -0.02781812 -0.05293090 0.04276491
v -0.02983158 -0.05585438 0.03547798
v -0.02748018 -0.05587048 0.03785288
v -0.02782140 -0.05333916 0.04208802
v -0.02706964 -0.05398230 0.04164999
v -0.02577799 -0.05469995 0.04149758
v -0.02434879 -0.05529618 0.04159367
v -0.03001028 -0.05653250 0.03328019
v -0.03205168 -0.05583858 0.03288429
v -0.03422087 -0.05653251 0.02741658
v -0.03619176 -0.05580878 0.02677625
v -0.03703290 -0.05580270 0.02524805
v -0.03805857 -0.05579507 0.02319335
v -0.03751134 -0.05653251 0.02099704
v -0.03411120 -0.05679994 0.02436250
v -0.03594577 -0.05679994 0.02055495
v 0.03594166 -0.05679994 0.02056229
v 0.03745657 -0.05679994 0.01655906
v 0.03750759 -0.05653250 0.02100408
v 0.03984457 -0.05653250 0.01418286
v 0.03989666 -0.05578136 0.01876467
v 0.04107356 -0.05577290 0.01508545
v 0.04134166 -0.05577099 0.01408779
v 0.04120309 -0.05653250 0.00710398
v 0.04226815 -0.05576407 0.00975233
v 0.04284982 -0.05575986 0.00509919
v 0.03845936 -0.05579209 0.02231979
v 0.03421586 -0.05653250 0.02742296
v 0.03000408 -0.05653250 0.03328579
v 0.03410637 -0.05679994 0.02436918
v -0.03198766 -0.05679994 0.02792859
v -0.02960765 -0.05679994 0.03122299
v -0.02700448 -0.05679994 0.03422194
v -0.02421838 -0.05679994 0.03690165
v 0.02699798 -0.05679994 0.03422707
v 0.02421146 -0.05679994 0.03690618
v 0.02492398 -0.05653250 0.03842419
v 0.02127444 -0.05679994 0.03925675
v 0.01902395 -0.05655168 0.04260220
v 0.01822888 -0.05679994 0.04126626
v 0.02960175 -0.05679994 0.03122860
v 0.03198236 -0.05679994 0.02793478
v -0.03969210 -0.05578297 0.01932299
v -0.04105632 -0.05577297 0.01514893
v -0.03767609 -0.05095989 0.03535330
v -0.04455018 -0.05002546 0.02519929
v -0.04474980 -0.04487645 0.03535264
v -0.05118167 -0.04321718 0.02519869
v -0.04882764 -0.04913735 0.01504546
v -0.05551737 -0.04143017 0.01504486
v -0.05051189 -0.04894149 0.00489187
v -0.05710595 -0.04105657 0.00489128
v -0.05693584 -0.04108977 -0.00526208
v -0.06232077 -0.03234475 -0.00526255
v -0.06048095 -0.03302860 -0.01541578
v -0.06468790 -0.02375507 -0.01541620
v -0.06038379 -0.02754616 -0.02556920
v -0.06368875 -0.01867389 -0.02556949
v -0.05835838 -0.02229315 -0.03572237
v -0.06101965 -0.01338857 -0.03572267
v -0.05349546 -0.01968789 -0.04587537
v -0.05581325 -0.01158607 -0.04587554
v -0.04764276 -0.01401180 -0.05593687
v -0.04869377 -0.00975066 -0.05593699
v -0.04454225 -0.01267486 -0.05960935
v -0.04936456 -0.00541198 -0.05593705
v -0.04611277 -0.00427347 -0.05960959
v -0.04964965 -0.00103092 -0.05593705
v -0.04954666 0.00335801 -0.05593705
v -0.05676597 0.00519442 -0.04587566
v -0.04905664 0.00772011 -0.05593699
v -0.05537998 0.01350647 -0.04587548
v -0.04818325 0.01202249 -0.05593698
v -0.05278366 0.02152347 -0.04587526
v -0.04693329 0.01623088 -0.05593687
v -0.04531669 0.02031219 -0.05593669
v -0.04454225 0.01267486 -0.05960935
v -0.04145479 0.02064478 -0.05960905
v -0.04015368 0.01142638 -0.06381976
v -0.03737026 0.01861107 -0.06381958
v -0.03455495 0.00983351 -0.06816780
v -0.03215956 0.01601666 -0.06816756
v -0.02772748 0.00789106 -0.07225668
v -0.02580529 0.01285284 -0.07225650
v -0.01969617 0.00560605 -0.07568925
v -0.01833069 0.00913101 -0.07568918
v -0.01054185 0.00300145 -0.07806897
v -0.00981069 0.00488871 -0.07806886
v -0.00002626 0.00001552 -0.07899791
v -0.01091378 0.00101197 -0.07806897
v -0.01091378 -0.00101197 -0.07806897
v -0.02039086 0.00189012 -0.07568936
v -0.02039086 -0.00189012 -0.07568936
v -0.02870529 0.00266051 -0.07225680
v -0.02870529 -0.00266051 -0.07225680
v -0.03577345 0.00331545 -0.06816786
v -0.03577345 -0.00331545 -0.06816786
v -0.04156948 0.00385249 -0.06382000
v -0.04156948 -0.00385249 -0.06382000
v -0.04611277 0.00427347 -0.05960959
v -0.01054185 -0.00300145 -0.07806897
v -0.00981069 -0.00488871 -0.07806886
v -0.00874525 -0.00660956 -0.07806879
v -0.00738168 -0.00810528 -0.07806866
v -0.00576657 -0.00932497 -0.07806848
v -0.00395477 -0.01022720 -0.07806837
v -0.00200808 -0.01078099 -0.07806819
v -0.01969617 -0.00560605 -0.07568925
v -0.02772748 -0.00789106 -0.07225668
v -0.03455495 -0.00983351 -0.06816780
v -0.04015368 -0.01142638 -0.06381976
v -0.01833069 -0.00913101 -0.07568918
v -0.02580529 -0.01285284 -0.07225650
v -0.03215956 -0.01601666 -0.06816756
v -0.03737026 -0.01861107 -0.06381958
v -0.04145479 -0.02064478 -0.05960905
v -0.04621928 -0.01816487 -0.05593675
v -0.04443448 -0.02217608 -0.05593657
v -0.05000865 -0.02735948 -0.04587495
v -0.04230248 -0.02601385 -0.05593639
v -0.03984040 -0.02964788 -0.05593615
v -0.03695535 -0.02791160 -0.05960869
v -0.03706657 -0.03305065 -0.05593585
v -0.03119724 -0.03422784 -0.05960816
v -0.03400319 -0.03619516 -0.05593568
v -0.03067415 -0.03905689 -0.05593526
v -0.03195899 -0.03890216 -0.05511516
v -0.03302982 -0.03905546 -0.05412425
v -0.03356282 -0.03972268 -0.05303973
v -0.03331404 -0.02516210 -0.06381916
v -0.02866888 -0.02165448 -0.06816726
v -0.02300405 -0.01737695 -0.07225620
v -0.01634055 -0.01234507 -0.07568895
v -0.01379376 -0.01513874 -0.07568877
v -0.01941925 -0.02130925 -0.07225590
v -0.02420157 -0.02655476 -0.06816679
v -0.02812325 -0.03085619 -0.06381869
v -0.01077705 -0.01741689 -0.07568849
v -0.01517295 -0.02451598 -0.07225549
v -0.01890999 -0.03055089 -0.06816637
v -0.02197450 -0.03549945 -0.06381809
v -0.02437669 -0.03937858 -0.05960756
v -0.02871030 -0.03956848 -0.05683666
v -0.02748346 -0.03999227 -0.05724596
v -0.02613925 -0.04052954 -0.05757784
v -0.02479916 -0.04114198 -0.05778670
v -0.01672565 -0.04318827 -0.05960687
v -0.02364027 -0.04174995 -0.05785214
v -0.02222655 -0.04269850 -0.05767608
v -0.02149083 -0.04371750 -0.05703174
v -0.01867365 -0.04601919 -0.05593419
v -0.02193814 -0.04434494 -0.05615535
v -0.00739306 -0.01910185 -0.07568818
v -0.01040965 -0.02688777 -0.07225507
v -0.01297420 -0.03350657 -0.06816577
v -0.01507717 -0.03893399 -0.06381750
v -0.00375712 -0.02013647 -0.07568789
v -0.00529170 -0.02834397 -0.07225459
v -0.00659633 -0.03532117 -0.06816518
v -0.00766623 -0.04104256 -0.06381679
v -0.00850499 -0.04552727 -0.05960607
v -0.01507276 -0.04732137 -0.05593389
v -0.01138246 -0.04834234 -0.05593359
v -0.01849269 -0.05392307 -0.04587209
v -0.01037997 -0.05596125 -0.04601579
v -0.01317387 -0.05595088 -0.04510509
v -0.02623969 -0.05060720 -0.04587274
v -0.02785927 -0.05586796 -0.03581607
v -0.03580296 -0.05119550 -0.03572028
v -0.02935606 -0.05585759 -0.03430998
v -0.03375989 -0.05582636 -0.02892339
v -0.02452039 -0.05588990 -0.03872287
v -0.01917499 -0.05592197 -0.04231655
v -0.02347368 -0.05653251 -0.03794109
v -0.01741635 -0.05653250 -0.04190117
v -0.02224165 -0.05679994 -0.03685575
v -0.01922667 -0.05679994 -0.03897655
v 0.01923507 -0.05679994 -0.03897225
v 0.01612800 -0.05679994 -0.04075527
v 0.01742416 -0.05653251 -0.04189795
v 0.01074028 -0.05653251 -0.04469859
v 0.01359200 -0.05594915 -0.04494929
v 0.01034665 -0.05596137 -0.04602575
v 0.01973956 -0.05591887 -0.04199146
v 0.02348065 -0.05653250 -0.03793668
v 0.02224969 -0.05679994 -0.03685069
v -0.02513158 -0.05679994 -0.03439939
v -0.02876746 -0.05653251 -0.03302007
v 0.02519220 -0.05588555 -0.03818476
v 0.02784317 -0.05586808 -0.03583258
v 0.02877366 -0.05653251 -0.03301465
v 0.03011298 -0.05585229 -0.03349429
v 0.03321528 -0.05653250 -0.02732205
v 0.03457438 -0.05582046 -0.02772885
v 0.03582906 -0.05581141 -0.02572309
v -0.02332866 -0.04459685 -0.05513536
v -0.05440539 -0.03070425 -0.03572195
v -0.05584996 -0.03585797 -0.02556878
v -0.05495345 -0.04158085 -0.01541525
v -0.05033296 -0.04895567 -0.00526142
v -0.04299324 -0.05575877 0.00256896
v -0.04286658 -0.05575978 0.00489616
v -0.04267805 -0.05576109 0.00687212
v -0.04201465 -0.05576598 0.01113379
v -0.04295778 -0.05575907 -0.00175404
v -0.04262077 -0.05576151 -0.00566384
v 0.00600523 -0.04174997 -0.05686729
v 0.00720680 -0.04174995 -0.05499928
v 0.00600514 -0.03999316 -0.05584537
v 0.00600499 -0.03999316 -0.05415338
v 0.00600490 -0.04131606 -0.05309844
v 0.00600514 -0.04350677 -0.05584536
v 0.00600499 -0.04350677 -0.05415338
v 0.00600493 -0.04261779 -0.05319750
v 0.00007449 -0.04181838 -0.05680090
v 0.00006833 -0.04005877 -0.05586382
v 0.00007169 -0.04003554 -0.05417847
v 0.00007159 -0.04127752 -0.05317447
v 0.00006983 -0.04297561 -0.05355757
v 0.00007367 -0.04366083 -0.05501395
v 0.00007187 -0.04326150 -0.05620540
v 0.00799608 -0.05469998 0.04199967
v 0.00889724 -0.05469996 0.04340077
v 0.00799599 -0.05338242 0.04276615
v 0.00799587 -0.05338242 0.04403520
v 0.00799581 -0.05437458 0.04482642
v 0.00799599 -0.05601752 0.04276615
v 0.00799587 -0.05601752 0.04403520
v 0.00799584 -0.05535078 0.04475218
v 0.00005792 -0.05471154 0.04205236
v 0.00006089 -0.05343464 0.04285338
v 0.00008877 -0.05340174 0.04408469
v 0.00005531 -0.05436335 0.04476554
v 0.00006074 -0.05561548 0.04447898
v 0.00008169 -0.05613443 0.04341350
v 0.00007383 -0.05586367 0.04253021
v -0.01300386 -0.05464106 0.04177774
v -0.01300394 -0.05600905 0.04260923
v -0.01300404 -0.05605161 0.04371597
v -0.01300415 -0.05521042 0.04494744
v -0.01300410 -0.05365760 0.04470387
v -0.01300403 -0.05324408 0.04351385
v -0.01300391 -0.05365014 0.04245443
v -0.00299460 -0.04174995 -0.05785030
v -0.00299466 -0.04284060 -0.05763339
v -0.00299472 -0.04376518 -0.05701560
v -0.00299477 -0.04438305 -0.05609089
v -0.00299489 -0.04459995 -0.05500030
v -0.02430409 -0.04457157 -0.05460077
v -0.02554315 -0.04442179 -0.05401039
v -0.00299495 -0.04438304 -0.05390965
v -0.02693325 -0.04412865 -0.05343270
v -0.00299507 -0.04376518 -0.05298495
v -0.02831804 -0.04371339 -0.05293679
v -0.02957206 -0.04322320 -0.05256295
v -0.00299513 -0.04284060 -0.05236715
v -0.03063064 -0.04270839 -0.05231875
v -0.03213065 -0.04174995 -0.05215300
v -0.00299513 -0.04174995 -0.05215024
v -0.03311794 -0.04079295 -0.05233444
v -0.00299513 -0.04065936 -0.05236715
v -0.00299507 -0.03973478 -0.05298495
v -0.00299495 -0.03911685 -0.05390965
v -0.00299489 -0.03889995 -0.05500030
v -0.00299477 -0.03911685 -0.05609089
v -0.00299472 -0.03973478 -0.05701559
v -0.00299466 -0.04065936 -0.05763339
v -0.01300406 -0.05469995 0.04449880
v -0.00299472 -0.04170913 -0.05649772
v -0.00299481 -0.04029310 -0.05557013
v -0.00299493 -0.04035864 -0.05429433
v -0.00299501 -0.04143442 -0.05347231
v -0.00299499 -0.04266685 -0.05373634
v -0.00299487 -0.04330986 -0.05491812
v -0.00299478 -0.04300087 -0.05599784
v -0.04822599 -0.04922515 -0.01541465
v -0.05017977 -0.04344010 -0.02556830
v -0.04924845 -0.03843605 -0.03572160
v -0.04542905 -0.03443330 -0.04587459
v -0.03985667 -0.04075467 -0.04587405
v -0.04300158 -0.04531717 -0.03572100
v -0.04348826 -0.05013829 -0.02556759
v -0.04046517 -0.05577725 -0.01542764
v -0.04077637 -0.05577498 -0.01443237
v -0.04184198 -0.05576717 -0.01029688
v -0.03938645 -0.05578529 -0.01844030
v -0.03769630 -0.05579775 -0.02226907
v -0.03585532 -0.05581116 -0.02567711
v -0.03321027 -0.05653250 -0.02732825
v -0.03039926 -0.05679994 -0.02851748
v -0.02786457 -0.05679994 -0.03161334
v 0.02787148 -0.05679994 -0.03160697
v 0.02513909 -0.05679994 -0.03439366
v 0.03040540 -0.05679994 -0.02851068
v -0.03270226 -0.05679994 -0.02512985
v -0.03473389 -0.05679994 -0.02148640
v -0.03674447 -0.05653250 -0.02103817
v -0.03646737 -0.05679994 -0.01761299
v -0.03933137 -0.05653250 -0.01430720
v -0.03787547 -0.05679994 -0.01354634
v -0.03893309 -0.05679994 -0.00934034
v 0.03787845 -0.05679994 -0.01353800
v 0.03893506 -0.05679994 -0.00933170
v 0.04094725 -0.05653250 -0.00727403
v 0.03962677 -0.05679994 -0.00502264
v 0.04157185 -0.05653251 -0.00009389
v 0.03994519 -0.05679994 -0.00063743
v 0.03988325 -0.05679994 0.00374758
v -0.03988397 -0.05679994 0.00373930
v -0.03944379 -0.05679994 0.00809806
v -0.04120445 -0.05653251 0.00709635
v -0.03862977 -0.05679994 0.01239287
v -0.03984719 -0.05653251 0.01417547
v -0.03745985 -0.05679994 0.01655119
v 0.03862726 -0.05679994 0.01240098
v 0.03944218 -0.05679994 0.00810629
v 0.04302078 -0.05575859 0.00066830
v 0.04283738 -0.05575996 -0.00357717
v 0.04266810 -0.05576127 -0.00528115
v 0.04136639 -0.05577069 -0.01231837
v 0.03933399 -0.05653251 -0.01429998
v 0.04044836 -0.05577749 -0.01548069
v 0.03674829 -0.05653250 -0.02103137
v 0.03849297 -0.05579185 -0.02057087
v 0.03270757 -0.05679994 -0.02512258
v 0.03473848 -0.05679994 -0.02147865
v 0.03647107 -0.05679994 -0.01760488
v -0.04157185 -0.05653250 -0.00010160
v -0.03994494 -0.05679994 -0.00064573
v -0.04094588 -0.05653250 -0.00728160
v -0.03962558 -0.05679994 -0.00503141
v -0.03341317 -0.04618549 -0.04587346
v -0.01073205 -0.05653250 -0.04470056
v -0.00663227 -0.05597168 -0.04688304
v -0.00362480 -0.05653251 -0.04615688
v 0.00000440 -0.05597907 -0.04747318
v 0.00363332 -0.05653250 -0.04615628
v 0.00685233 -0.05597120 -0.04684334
v 0.00974881 -0.05679994 -0.04331296
v 0.00326139 -0.05679994 -0.04457169
v -0.00973946 -0.05679994 -0.04331517
v -0.00325173 -0.05679994 -0.04457247
v -0.01611906 -0.05679994 -0.04075896
v -0.00762379 -0.04907608 -0.05593317
v 0.00000551 -0.04648275 -0.05943429
v 0.00000589 -0.04207816 -0.06353976
v 0.00767809 -0.04104256 -0.06381535
v 0.00660896 -0.03532117 -0.06816400
v 0.00000629 -0.03626405 -0.06794160
v -0.00382101 -0.04951786 -0.05593287
v 0.00000518 -0.04966557 -0.05593246
v 0.00851601 -0.04552727 -0.05960445
v 0.01508897 -0.03893399 -0.06381469
v 0.01298677 -0.03350657 -0.06816339
v 0.01892256 -0.03055089 -0.06816285
v 0.01518636 -0.02451598 -0.07225269
v 0.01943266 -0.02130925 -0.07225227
v 0.01380777 -0.01513874 -0.07568614
v 0.01635456 -0.01234507 -0.07568596
v 0.00875968 -0.00660956 -0.07806718
v 0.00982517 -0.00488871 -0.07806705
v 0.00045819 -0.00021274 -0.07899810
v 0.00739616 -0.00810528 -0.07806730
v 0.00578099 -0.00932497 -0.07806748
v 0.00396919 -0.01022720 -0.07806761
v 0.00202250 -0.01078099 -0.07806778
v 0.00000724 -0.01070630 -0.07811146
v 0.00000702 -0.02026016 -0.07576124
v 0.00377113 -0.02013647 -0.07568717
v 0.00740713 -0.01910185 -0.07568675
v 0.01079106 -0.01741689 -0.07568645
v 0.01042306 -0.02688777 -0.07225310
v 0.00530505 -0.02834397 -0.07225358
v 0.00000669 -0.02891684 -0.07221337
v 0.01055628 -0.00300145 -0.07806700
v 0.01092815 -0.00101197 -0.07806700
v 0.01971018 -0.00560605 -0.07568567
v 0.01834470 -0.00913101 -0.07568578
v 0.02581870 -0.01285284 -0.07225167
v 0.02301746 -0.01737695 -0.07225197
v 0.02868145 -0.02165448 -0.06816190
v 0.02421414 -0.02655476 -0.06816239
v 0.02813506 -0.03085619 -0.06381350
v 0.02198630 -0.03549945 -0.06381410
v 0.02438765 -0.03937858 -0.05960297
v 0.01673668 -0.04318827 -0.05960375
v 0.02099466 -0.04501229 -0.05593055
v 0.01699185 -0.04667025 -0.05593085
v 0.01845818 -0.05393779 -0.04586869
v 0.01285946 -0.04797328 -0.05593127
v 0.00862926 -0.04891097 -0.05593168
v 0.00433373 -0.04947656 -0.05593210
v 0.00000481 -0.05285179 -0.05192869
v 0.01092815 0.00101197 -0.07806700
v 0.01055628 0.00300145 -0.07806700
v 0.00982517 0.00488871 -0.07806705
v 0.00875968 0.00660956 -0.07806718
v 0.00739616 0.00810528 -0.07806730
v 0.00578099 0.00932497 -0.07806748
v 0.00396919 0.01022720 -0.07806761
v 0.00202250 0.01078099 -0.07806777
v 0.00000724 0.01070630 -0.07811146
v 0.00377113 0.02013647 -0.07568717
v 0.00000702 0.02026016 -0.07576124
v -0.00200808 0.01078099 -0.07806820
v -0.00375712 0.02013647 -0.07568788
v -0.00395477 0.01022720 -0.07806837
v -0.00739306 0.01910185 -0.07568818
v -0.00576657 0.00932497 -0.07806848
v -0.01077705 0.01741689 -0.07568849
v -0.00738168 0.00810528 -0.07806866
v -0.01379376 0.01513880 -0.07568877
v -0.00874525 0.00660956 -0.07806879
v -0.01634055 0.01234507 -0.07568895
v -0.02300405 0.01737695 -0.07225620
v -0.02866888 0.02165448 -0.06816726
v -0.03331404 0.02516210 -0.06381916
v -0.03695535 0.02791160 -0.05960870
v -0.04103648 0.02796870 -0.05593627
v -0.04334598 0.02423506 -0.05593645
v -0.04903417 0.02907007 -0.04587489
v -0.05394715 0.03150260 -0.03572195
v -0.05802356 0.02315056 -0.03572237
v -0.06036521 0.02758675 -0.02556920
v -0.06367617 0.01871675 -0.02556949
v -0.06380009 0.02604556 -0.01541608
v -0.06694179 0.01635915 -0.01541638
v -0.06797486 0.01759189 -0.00526309
v -0.06981390 0.00748795 -0.00526327
v -0.06992310 0.00758392 0.00489008
v -0.07028168 -0.00268853 0.00489002
v -0.06895226 0.00665289 0.01504355
v -0.06918150 -0.00354999 0.01504355
v -0.06698518 0.00058710 0.02519714
v -0.06639410 -0.00889861 0.02519714
v -0.06329685 -0.00317264 0.03535085
v -0.06214517 -0.01243108 0.03535097
v -0.05964667 -0.02142006 0.03535127
v -0.06307685 0.00615448 0.03535097
v -0.06622785 0.01006096 0.02519726
v -0.06722658 0.01671147 0.01504379
v -0.06807088 0.01769447 0.00489026
v -0.06468158 0.02731949 -0.00526279
v -0.05926538 0.03516316 -0.01541566
v -0.05582588 0.03589558 -0.02556878
v -0.04867678 0.03915745 -0.03572148
v -0.04421299 0.03598147 -0.04587447
v -0.03840625 0.03148365 -0.05593609
v -0.03547644 0.03475207 -0.05593580
v -0.03119724 0.03422784 -0.05960816
v -0.03226900 0.03774976 -0.05593550
v -0.02880907 0.04045248 -0.05593520
v -0.03179848 0.04731190 -0.04587328
v -0.02512407 0.04283899 -0.05593478
v -0.02447658 0.05148315 -0.04587268
v -0.02124387 0.04489028 -0.05593448
v -0.01661956 0.05452954 -0.04587185
v -0.01719665 0.04659146 -0.05593407
v -0.01301485 0.04792845 -0.05593365
v -0.01672565 0.04318827 -0.05960685
v -0.00850499 0.04552727 -0.05960606
v -0.01507717 0.03893399 -0.06381750
v -0.00766623 0.04104256 -0.06381679
v -0.01297420 0.03350657 -0.06816577
v -0.00659633 0.03532117 -0.06816518
v -0.01040965 0.02688777 -0.07225507
v -0.00529170 0.02834397 -0.07225460
v -0.01517295 0.02451598 -0.07225549
v -0.01890999 0.03055089 -0.06816637
v -0.02197450 0.03549945 -0.06381809
v -0.02437669 0.03937858 -0.05960756
v -0.01941925 0.02130925 -0.07225590
v -0.02420157 0.02655476 -0.06816679
v -0.02812325 0.03085619 -0.06381869
v -0.06081587 0.01428616 -0.03572255
v -0.06569147 0.00946581 -0.02556967
v -0.06862157 0.00631565 -0.01541656
v -0.07015937 -0.00277609 -0.00526327
v -0.06913930 -0.01290357 0.00489014
v -0.06790906 -0.01367586 0.01504367
v -0.06446635 -0.01820516 0.02519738
v -0.06226217 0.00510567 -0.03572279
v -0.06637001 0.00002235 -0.02556979
v -0.06880308 -0.00386578 -0.01541656
v -0.06900399 -0.01298075 -0.00526315
v -0.06652015 -0.02284306 0.00489038
v -0.06516277 -0.02350485 0.01504397
v -0.06124109 -0.02714538 0.02519768
v -0.05585545 -0.02994477 0.03535157
v -0.05085366 -0.03782045 0.03535205
v -0.05678290 -0.03553898 0.02519810
v -0.06100219 -0.03282380 0.01504427
v -0.06248027 -0.03229469 0.00489074
v -0.06637227 -0.02290785 -0.00526291
v -0.06748229 -0.01396286 -0.01541650
v -0.06569778 -0.00942159 -0.02556967
v -0.06233066 -0.00418776 -0.03572279
v -0.05691135 -0.00323111 -0.04587566
v 0.00000669 0.02891684 -0.07221338
v 0.00530505 0.02834397 -0.07225358
v 0.00660896 0.03532117 -0.06816400
v 0.01298677 0.03350657 -0.06816339
v 0.01508897 0.03893399 -0.06381469
v 0.02198630 0.03549945 -0.06381410
v 0.02438765 0.03937858 -0.05960297
v 0.03120827 0.03422784 -0.05960237
v 0.03192979 0.03804576 -0.05592948
v 0.03512400 0.03511875 -0.05592930
v 0.03844296 0.04209870 -0.04586678
v 0.04423058 0.03597038 -0.04586626
v 0.04234337 0.04593884 -0.03571307
v 0.04869109 0.03914785 -0.03571248
v 0.05018806 0.04343599 -0.02555894
v 0.05586224 0.03584635 -0.02555835
v 0.05346859 0.04347717 -0.01540517
v 0.05929565 0.03511679 -0.01540470
v 0.06002116 0.03643667 -0.00525123
v 0.06469595 0.02728760 -0.00525081
v 0.06476265 0.02743029 0.00490254
v 0.06806910 0.01769816 0.00490284
v 0.06404978 0.02638065 0.01505589
v 0.06723159 0.01668000 0.01505619
v 0.06415200 0.01926845 0.02520924
v 0.06623440 0.00998771 0.02520948
v 0.06146377 0.01542556 0.03536248
v 0.06306159 0.00624257 0.03536261
v 0.06329506 -0.00307542 0.03536266
v 0.06698125 0.00050559 0.02520960
v 0.06637769 -0.00898677 0.02520960
v 0.06917667 -0.00358951 0.01505637
v 0.06789779 -0.01371818 0.01505625
v 0.06913918 -0.01289856 0.00490296
v 0.06652098 -0.02283787 0.00490272
v 0.06899535 -0.01303178 -0.00525039
v 0.06635499 -0.02296090 -0.00525063
v 0.06746619 -0.01405358 -0.01540386
v 0.06465595 -0.02384924 -0.01540416
v 0.06366300 -0.01877808 -0.02555769
v 0.06033998 -0.02765250 -0.02555799
v 0.05835545 -0.02231800 -0.03571158
v 0.05439788 -0.03072929 -0.03571200
v 0.05000108 -0.02738887 -0.04586577
v 0.04541587 -0.03446185 -0.04586619
v 0.04301697 -0.02483248 -0.05592846
v 0.04068887 -0.02848684 -0.05592864
v 0.04146575 -0.02064478 -0.05960148
v 0.03696638 -0.02791160 -0.05960190
v 0.03738206 -0.01861107 -0.06381255
v 0.03332585 -0.02516210 -0.06381297
v 0.03217220 -0.01601666 -0.06816160
v 0.03120827 -0.03422784 -0.05960237
v 0.02849209 -0.04068368 -0.05592989
v 0.02483755 -0.04301178 -0.05593019
v 0.02620995 -0.05062699 -0.04586797
v 0.03578108 -0.05121535 -0.03571367
v 0.04338580 -0.05023115 -0.02555960
v 0.03512400 -0.03511875 -0.05592930
v 0.03192979 -0.03804576 -0.05592948
v 0.03983777 -0.04078137 -0.04586666
v 0.03338885 -0.04620939 -0.04586726
v 0.04298436 -0.04533970 -0.03571295
v 0.06895297 0.00661707 0.01505637
v 0.06992156 0.00758821 0.00490302
v 0.06798559 0.01755428 -0.00525045
v 0.06382620 0.02598839 -0.01540428
v 0.06039780 0.02752608 -0.02555799
v 0.05396097 0.03149014 -0.03571200
v 0.04905116 0.02905565 -0.04586589
v 0.04068887 0.02848684 -0.05592864
v 0.03805094 0.03192460 -0.05592901
v 0.03696638 0.02791160 -0.05960190
v 0.02813506 0.03085619 -0.06381350
v 0.01892256 0.03055089 -0.06816285
v 0.01042306 0.02688777 -0.07225310
v 0.07028096 -0.00268382 0.00490308
v 0.06981950 0.00744504 -0.00525033
v 0.06696099 0.01629167 -0.01540398
v 0.06370216 0.01864457 -0.02555769
v 0.05803626 0.02313530 -0.03571158
v 0.05279946 0.02150565 -0.04586548
v 0.04301697 0.02483248 -0.05592846
v 0.07015849 -0.00282353 -0.00525027
v 0.06863147 0.00623876 -0.01540374
v 0.06570810 0.00938314 -0.02555745
v 0.06082665 0.01426827 -0.03571134
v 0.05539357 0.01348555 -0.04586529
v 0.04667550 0.01698666 -0.05592817
v 0.04501748 0.02098947 -0.05592828
v 0.04146575 0.02064478 -0.05960148
v 0.06880110 -0.00395059 -0.01540374
v 0.06637465 -0.00006954 -0.02555745
v 0.06227046 0.00508523 -0.03571116
v 0.05677658 0.00517058 -0.04586506
v 0.04891616 0.00862408 -0.05592799
v 0.04797846 0.01285427 -0.05592805
v 0.04455327 0.01267486 -0.05960119
v 0.06568825 -0.00952083 -0.02555745
v 0.06233578 -0.00421023 -0.03571116
v 0.05691850 -0.00325733 -0.04586506
v 0.04948174 0.00432855 -0.05592787
v 0.04612380 0.00427347 -0.05960094
v 0.04016548 0.01142638 -0.06381237
v 0.03738206 0.01861107 -0.06381255
v 0.03217220 0.01601666 -0.06816160
v 0.02868145 0.02165448 -0.06816190
v 0.02301746 0.01737695 -0.07225197
v 0.01943266 0.02130925 -0.07225227
v 0.01380777 0.01513880 -0.07568614
v 0.01079106 0.01741689 -0.07568645
v 0.01635456 0.01234507 -0.07568596
v 0.01834470 0.00913101 -0.07568578
v 0.01971018 0.00560605 -0.07568567
v 0.02040487 0.00189012 -0.07568556
v 0.02040487 -0.00189012 -0.07568556
v 0.02581870 0.01285284 -0.07225167
v 0.02774089 0.00789106 -0.07225149
v 0.02871865 0.00266051 -0.07225137
v 0.02871865 -0.00266051 -0.07225137
v 0.02774089 -0.00789106 -0.07225149
v 0.03456759 -0.00983351 -0.06816136
v 0.04016548 -0.01142638 -0.06381237
v 0.04455327 -0.01267486 -0.05960119
v 0.04501748 -0.02098947 -0.05592828
v 0.04667550 -0.01698666 -0.05592817
v 0.05349327 -0.01971709 -0.04586535
v 0.04797846 -0.01285427 -0.05592806
v 0.05581600 -0.01161420 -0.04586517
v 0.04891616 -0.00862408 -0.05592799
v 0.04948174 -0.00432855 -0.05592787
v 0.04612380 -0.00427347 -0.05960094
v 0.04158127 0.00385249 -0.06381225
v 0.03456759 0.00983351 -0.06816136
v 0.03578609 0.00331545 -0.06816130
v 0.03578609 -0.00331545 -0.06816130
v 0.04158127 -0.00385249 -0.06381225
v 0.03332585 0.02516210 -0.06381297
v 0.02421414 0.02655476 -0.06816239
v 0.01518636 0.02451598 -0.07225269
v 0.00740713 0.01910185 -0.07568675
v 0.06102108 -0.01341259 -0.03571128
v 0.04967075 0.00000000 -0.05592787
v 0.06215935 -0.01232689 0.03536261
v 0.06443560 -0.01829785 0.02520936
v 0.06514406 -0.02354890 0.01505595
v 0.06248205 -0.03228938 0.00490236
v 0.06229388 -0.03239846 -0.00525099
v 0.06043189 -0.03312337 -0.01540458
v 0.05578696 -0.03596329 -0.02555835
v 0.04923605 -0.03846025 -0.03571236
v 0.03805094 -0.03192460 -0.05592901
v 0.05009698 -0.04354095 -0.02555894
v 0.04814046 -0.04931157 -0.01540565
v 0.05028575 -0.04900515 -0.00525212
v 0.05051565 -0.04893660 0.00490123
v 0.04878408 -0.04917789 0.01505446
v 0.05548226 -0.04147344 0.01505506
v 0.05110049 -0.04330778 0.02520805
v 0.05671918 -0.03563314 0.02520865
v 0.05092615 -0.03771389 0.03536146
v 0.05590723 -0.02983546 0.03536201
v 0.05967885 -0.02131170 0.03536230
v 0.06119430 -0.02724015 0.02520906
v 0.06097549 -0.03286814 0.01505565
v 0.05710870 -0.04105138 0.00490183
v 0.05689895 -0.04114228 -0.00525153
v 0.05488629 -0.04167306 -0.01540505
v 0.04484337 -0.04477638 0.03536099
v 0.04445135 -0.05010914 0.02520745
v 0.05853629 0.02427476 0.03536218
v 0.06077617 0.02816075 0.02520895
v 0.05947679 0.03550827 0.01505547
v 0.06007307 0.03657644 0.00490212
v 0.05406129 0.04480570 -0.00525176
v 0.04647218 0.05088686 -0.01540589
v 0.04349088 0.05014021 -0.02555960
v 0.03505825 0.05171287 -0.03571379
v 0.03181505 0.04730647 -0.04586750
v 0.02849209 0.04068368 -0.05592989
v 0.02483755 0.04301178 -0.05593019
v 0.01673668 0.04318827 -0.05960375
v 0.00767809 0.04104256 -0.06381535
v 0.00000630 0.03626405 -0.06794160
v 0.00000589 0.04207816 -0.06353977
v 0.00851601 0.04552727 -0.05960446
v 0.00000551 0.04648275 -0.05943429
v 0.01699185 0.04667025 -0.05593085
v 0.02099466 0.04501229 -0.05593055
v 0.02449154 0.05148005 -0.04586810
v 0.05434238 0.03259885 0.03536176
v 0.05617487 0.03648537 0.02520859
v 0.05361187 0.04386466 0.01505500
v 0.05410069 0.04494160 0.00490159
v 0.04694390 0.05221527 -0.00525242
v 0.03845959 0.05718368 -0.01540654
v 0.03590726 0.05582225 -0.02556025
v 0.02699697 0.05634188 -0.03571444
v 0.04897290 0.04021787 0.03536128
v 0.05044096 0.04407417 0.02520805
v 0.04658246 0.05126827 0.01505428
v 0.04697275 0.05234676 0.00490087
v 0.03882139 0.05850684 -0.00525320
v 0.02960598 0.06222999 -0.01540750
v 0.02759170 0.06036645 -0.02556097
v 0.01833808 0.05972349 -0.03571528
v 0.01663279 0.05452817 -0.04586887
v 0.01285946 0.04797327 -0.05593127
v 0.00862926 0.04891097 -0.05593168
v 0.00433373 0.04947656 -0.05593210
v 0.00000518 0.04966557 -0.05593246
v -0.00438040 0.04947149 -0.05593287
v -0.00873160 0.04889094 -0.05593329
v -0.00839949 0.05638450 -0.04587119
v 0.00841039 0.05638408 -0.04586958
v 0.00927329 0.06178295 -0.03571605
v 0.00000426 0.05694317 -0.04597246
v 0.00000358 0.06108808 -0.03861236
v 0.00000332 0.06244796 -0.03577506
v -0.00926465 0.06178325 -0.03571790
v 0.00000265 0.06538337 -0.02852338
v 0.00000237 0.06636047 -0.02560138
v 0.00945437 0.06569588 -0.02556270
v 0.01016426 0.06815946 -0.01540929
v 0.01871377 0.06368017 -0.02556186
v 0.02010488 0.06591546 -0.01540827
v -0.01832759 0.05972468 -0.03571867
v -0.01869285 0.06368489 -0.02556526
v -0.02756404 0.06037688 -0.02556616
v -0.02008736 0.06591999 -0.01541209
v -0.02958226 0.06224000 -0.01541286
v -0.02985495 0.06355130 -0.00525957
v -0.03880596 0.05851650 -0.00526041
v -0.03884404 0.05863314 0.00489294
v -0.04697537 0.05234539 0.00489223
v -0.03853207 0.05756629 0.01504635
v -0.04657196 0.05128037 0.01504570
v -0.04366648 0.05079859 0.02519935
v -0.05041629 0.04410767 0.02519869
v -0.04258334 0.04693704 0.03535288
v -0.04901319 0.04017674 0.03535228
v -0.05438089 0.03254580 0.03535175
v -0.05856996 0.02420938 0.03535139
v -0.03523057 0.05268007 0.03535348
v -0.03603756 0.05646687 0.02520006
v -0.02965587 0.06260269 0.01504725
v -0.02988326 0.06366860 0.00489378
v -0.02026516 0.06722658 -0.00525868
v -0.01015388 0.06816065 -0.01541107
v -0.00944137 0.06569707 -0.02556449
v -0.02698487 0.05634444 -0.03571945
v -0.03587436 0.05584037 -0.02556687
v -0.03843116 0.05720084 -0.01541376
v -0.04692685 0.05222976 -0.00526112
v -0.05410325 0.04493957 0.00489151
v -0.05360096 0.04388135 0.01504498
v -0.05615115 0.03652876 0.02519816
v -0.03504485 0.05171746 -0.03572016
v -0.04345458 0.05016750 -0.02556759
v -0.04644089 0.05091285 -0.01541447
v -0.05404376 0.04482555 -0.00526178
v -0.06007571 0.03657388 0.00489098
v -0.05946660 0.03552985 0.01504445
v -0.06075578 0.02821457 0.02519780
v 0.00000445 0.05561310 -0.04802596
v 0.04254394 0.04696679 0.03536069
v 0.04368984 0.05077445 0.02520740
v 0.03519457 0.05269968 0.03536009
v 0.03605794 0.05645096 0.02520668
v 0.02708375 0.05729259 0.03535926
v 0.02769899 0.06098927 0.02520596
v 0.01838696 0.06064605 0.03535848
v 0.01878148 0.06429797 0.02520507
v 0.00929236 0.06268769 0.03535765
v 0.00948519 0.06631016 0.02520430
v -0.00000234 0.06696039 0.02529009
v -0.00000138 0.06929176 0.01492265
v -0.01017916 0.06851935 0.01504909
v -0.01025176 0.06958150 0.00489563
v -0.02028405 0.06734430 0.00489467
v -0.01024186 0.06946378 -0.00525773
v -0.02013605 0.06628036 0.01504808
v -0.01877176 0.06430208 0.02520167
v -0.00948250 0.06631129 0.02520245
v -0.00930768 0.06268638 0.03535586
v -0.00000329 0.06330690 0.03551102
v -0.01841050 0.06064088 0.03535509
v -0.02768325 0.06099849 0.02520078
v -0.02711439 0.05728120 0.03535425
v 0.03854125 0.05755829 0.01505357
v 0.02966284 0.06259810 0.01505267
v 0.02014005 0.06627827 0.01505190
v 0.01017987 0.06851887 0.01505088
v 0.03884166 0.05863411 0.00490016
v 0.02988106 0.06366920 0.00489932
v 0.02028226 0.06734448 0.00489843
v 0.01025038 0.06958156 0.00489747
v -0.00000045 0.07033240 0.00490141
v -0.00000035 0.07037627 0.00380522
v 0.00000049 0.07021456 -0.00526088
v 0.00000066 0.07006305 -0.00714952
v 0.00000143 0.06890916 -0.01543086
v 0.01024717 0.06946319 -0.00525582
v 0.02027446 0.06722420 -0.00525492
v 0.02986764 0.06354576 -0.00525403
v 0.00000167 0.06839019 -0.01798135
v -0.06413739 0.01933234 0.02519750
v -0.06404155 0.02640730 0.01504409
v -0.06148977 0.01534825 0.03535109
v -0.06476485 0.02742707 0.00489056
v -0.06000447 0.03646260 -0.00526231
v -0.05343657 0.04351305 -0.01541519
v -0.05015045 0.04347389 -0.02556818
v -0.04232924 0.04594588 -0.03572088
v -0.03842568 0.04210668 -0.04587399
f 1 2 3
f 3 2 4
f 2 5 4
f 4 5 6
f 5 7 6
f 6 7 8
f 7 9 8
f 8 9 10
f 9 11 10
f 10 11 12
f 11 13 12
f 12 13 14
f 13 15 14
f 14 15 16
f 15 17 16
f 16 17 18
f 17 19 18
f 18 19 20
f 19 21 20
f 20 21 22
f 21 23 22
f 22 23 24
f 23 25 24
f 24 25 26
f 25 27 26
f 26 27 28
f 27 29 28
f 28 29 30
f 29 31 30
f 30 31 32
f 31 33 32
f 32 33 34
f 32 34 35
f 35 34 36
f 35 36 37
f 37 36 38
f 37 38 39
f 39 38 40
f 39 40 41
f 41 40 42
f 42 40 43
f 43 40 44
f 43 44 45
f 45 44 46
f 45 46 47
f 45 47 48
f 48 47 49
f 48 49 50
f 50 49 51
f 50 51 52
f 52 51 53
f 52 53 54
f 54 53 55
f 54 55 56
f 56 55 57
f 56 57 58
f 58 57 59
f 58 59 60
f 60 59 61
f 60 61 62
f 62 61 63
f 62 63 64
f 64 63 65
f 64 65 66
f 66 65 67
f 66 67 68
f 68 67 69
f 68 69 70
f 70 69 71
f 70 71 72
f 72 71 73
f 72 73 74
f 74 73 75
f 74 75 76
f 76 75 77
f 76 77 78
f 78 77 79
f 47 80 49
f 49 80 81
f 49 81 82
f 49 82 51
f 51 82 83
f 51 83 53
f 53 83 84
f 53 84 55
f 55 84 57
f 84 83 85
f 84 85 86
f 47 46 80
f 80 46 81
f 33 31 87
f 87 88 33
f 33 88 34
f 88 89 34
f 34 89 90
f 34 90 36
f 90 91 40
f 40 91 44
f 44 91 46
f 40 38 90
f 90 38 36
f 89 92 90
f 90 92 93
f 90 93 91
f 94 93 95
f 94 95 96
f 93 94 97
f 31 29 98
f 98 29 99
f 99 29 100
f 100 29 27
f 100 27 101
f 101 27 102
f 102 27 103
f 102 103 104
f 102 104 105
f 105 104 106
f 106 104 107
f 107 104 108
f 108 104 96
f 96 104 94
f 94 104 103
f 94 103 109
f 109 103 110
f 109 110 111
f 111 110 112
f 111 112 113
f 113 114 111
f 111 114 115
f 111 115 116
f 116 115 117
f 116 117 118
f 118 117 119
f 118 119 120
f 120 119 121
f 120 121 122
f 122 121 123
f 123 121 124
f 124 121 125
f 124 125 126
f 126 125 127
f 122 128 120
f 120 128 86
f 120 86 129
f 129 86 85
f 129 85 130
f 130 85 83
f 120 129 118
f 118 129 131
f 118 131 116
f 116 131 132
f 116 132 111
f 111 132 133
f 111 133 109
f 109 133 134
f 109 134 135
f 135 134 136
f 135 136 137
f 137 136 138
f 137 138 139
f 139 138 140
f 140 141 139
f 140 91 141
f 141 91 93
f 141 93 97
f 141 97 139
f 139 97 135
f 139 135 137
f 97 94 135
f 135 94 109
f 91 140 46
f 46 140 81
f 140 138 81
f 81 138 82
f 82 138 83
f 83 138 130
f 138 136 130
f 130 136 142
f 130 142 143
f 143 142 133
f 143 133 132
f 132 131 143
f 143 131 129
f 143 129 130
f 133 142 134
f 134 142 136
f 114 144 115
f 115 144 145
f 27 25 103
f 103 25 146
f 103 146 110
f 110 146 112
f 112 146 113
f 113 146 147
f 113 147 114
f 114 147 144
f 144 147 145
f 25 23 146
f 146 23 21
f 146 21 148
f 148 21 19
f 148 19 17
f 146 148 147
f 147 148 149
f 147 149 150
f 150 149 151
f 150 151 152
f 152 151 153
f 152 153 154
f 154 153 155
f 154 155 156
f 156 155 157
f 156 157 158
f 158 157 159
f 158 159 160
f 160 159 161
f 160 161 162
f 162 161 163
f 162 163 164
f 164 163 165
f 164 165 166
f 166 165 167
f 166 167 168
f 168 167 169
f 168 169 170
f 170 169 171
f 170 171 172
f 172 171 173
f 172 173 174
f 174 173 175
f 174 175 176
f 176 175 177
f 176 177 178
f 178 177 179
f 178 179 180
f 180 179 181
f 180 181 182
f 182 181 183
f 182 183 184
f 184 183 185
f 184 185 186
f 186 185 187
f 186 187 188
f 188 187 189
f 188 189 190
f 188 190 191
f 191 190 192
f 191 192 193
f 193 192 194
f 193 194 195
f 195 194 196
f 195 196 197
f 197 196 198
f 197 198 199
f 199 198 200
f 199 200 201
f 201 200 168
f 201 168 170
f 170 172 201
f 201 172 174
f 201 174 178
f 178 174 176
f 201 178 199
f 199 178 180
f 199 180 197
f 197 180 182
f 197 182 195
f 195 182 184
f 195 184 193
f 193 184 186
f 193 186 191
f 191 186 188
f 192 190 202
f 202 190 203
f 203 190 204
f 204 190 205
f 205 190 206
f 206 190 207
f 207 190 208
f 192 202 194
f 194 202 209
f 194 209 196
f 196 209 210
f 196 210 198
f 198 210 211
f 198 211 200
f 200 211 212
f 200 212 168
f 168 212 166
f 202 203 209
f 209 203 213
f 209 213 210
f 210 213 214
f 210 214 211
f 211 214 215
f 211 215 212
f 212 215 216
f 212 216 166
f 166 216 217
f 166 217 164
f 164 217 218
f 164 218 162
f 162 218 219
f 162 219 220
f 220 219 221
f 220 221 222
f 222 221 223
f 222 223 224
f 224 223 225
f 224 225 226
f 226 225 227
f 226 227 228
f 228 229 226
f 226 229 230
f 221 219 223
f 223 219 217
f 223 217 231
f 231 217 216
f 231 216 232
f 232 216 215
f 232 215 233
f 233 215 214
f 233 214 234
f 234 214 213
f 234 213 204
f 204 213 203
f 219 218 217
f 204 205 234
f 234 205 235
f 234 235 233
f 233 235 236
f 233 236 232
f 232 236 237
f 232 237 231
f 231 237 238
f 231 238 223
f 223 238 225
f 205 206 235
f 235 206 239
f 235 239 236
f 236 239 240
f 236 240 237
f 237 240 241
f 237 241 238
f 238 241 242
f 238 242 225
f 225 242 243
f 225 243 227
f 227 243 244
f 244 243 245
f 245 243 246
f 246 243 247
f 247 243 248
f 247 248 249
f 249 248 250
f 250 248 251
f 251 248 252
f 251 252 253
f 206 207 239
f 239 207 254
f 239 254 240
f 240 254 255
f 240 255 241
f 241 255 256
f 241 256 242
f 242 256 257
f 242 257 243
f 243 257 248
f 207 208 254
f 254 208 258
f 254 258 255
f 255 258 259
f 255 259 256
f 256 259 260
f 256 260 257
f 257 260 261
f 257 261 248
f 248 261 262
f 248 262 263
f 263 262 264
f 263 264 265
f 265 264 266
f 265 266 267
f 248 263 252
f 252 263 265
f 252 265 268
f 268 265 269
f 268 269 270
f 270 269 271
f 270 271 272
f 269 265 273
f 273 265 274
f 273 274 275
f 275 274 276
f 275 276 277
f 277 276 278
f 277 278 279
f 279 278 280
f 279 280 281
f 281 280 282
f 281 282 283
f 283 282 284
f 283 285 281
f 281 285 286
f 281 286 279
f 279 286 287
f 279 287 277
f 277 287 288
f 277 288 275
f 275 288 289
f 275 289 273
f 273 289 269
f 269 289 271
f 271 289 272
f 285 290 286
f 286 290 291
f 286 291 292
f 292 291 293
f 292 293 294
f 294 293 295
f 294 295 296
f 265 267 274
f 274 267 276
f 252 268 253
f 253 268 297
f 162 220 160
f 160 220 298
f 160 298 158
f 158 298 299
f 158 299 156
f 156 299 300
f 156 300 154
f 154 300 301
f 154 301 152
f 152 301 302
f 152 302 303
f 152 303 150
f 150 303 304
f 150 304 305
f 305 145 150
f 150 145 147
f 302 301 306
f 306 301 307
f 308 309 310
f 310 309 311
f 311 309 312
f 309 308 313
f 313 314 309
f 309 314 315
f 315 312 309
f 308 310 316
f 316 310 317
f 310 311 317
f 317 311 318
f 311 312 318
f 318 312 319
f 312 315 319
f 319 315 320
f 315 314 320
f 320 314 321
f 314 313 321
f 321 313 322
f 313 308 322
f 322 308 316
f 323 324 325
f 325 324 326
f 326 324 327
f 324 323 328
f 328 329 324
f 324 329 330
f 330 327 324
f 323 325 331
f 331 325 332
f 325 326 332
f 332 326 333
f 326 327 333
f 333 327 334
f 327 330 334
f 334 330 335
f 330 329 335
f 335 329 336
f 329 328 336
f 336 328 337
f 328 323 337
f 337 323 331
f 336 337 335
f 107 108 338
f 108 96 338
f 338 96 339
f 96 95 339
f 339 95 93
f 339 93 92
f 92 89 339
f 339 89 340
f 340 89 88
f 340 88 90
f 90 88 87
f 90 87 341
f 341 87 31
f 341 31 98
f 341 98 342
f 342 98 99
f 342 99 100
f 342 100 101
f 342 101 343
f 343 101 102
f 343 102 105
f 343 105 344
f 105 106 344
f 344 106 338
f 338 106 107
f 249 250 345
f 345 250 346
f 346 250 251
f 346 251 347
f 251 253 347
f 347 253 348
f 348 253 297
f 348 297 349
f 349 297 350
f 349 350 351
f 349 351 352
f 352 351 353
f 352 353 354
f 354 353 355
f 354 355 356
f 354 356 357
f 357 356 358
f 357 358 359
f 357 359 360
f 360 359 361
f 360 361 362
f 362 361 230
f 362 230 363
f 230 229 363
f 363 229 364
f 364 229 365
f 229 228 365
f 365 228 227
f 365 227 366
f 366 227 244
f 366 244 367
f 367 244 245
f 367 245 246
f 367 246 368
f 368 246 247
f 368 247 249
f 249 345 368
f 338 331 344
f 331 332 344
f 344 332 343
f 332 333 343
f 333 334 343
f 343 334 342
f 342 334 369
f 334 335 369
f 369 335 341
f 341 335 340
f 335 336 340
f 336 337 340
f 340 337 339
f 337 331 339
f 339 331 338
f 340 90 339
f 90 341 339
f 339 341 340
f 338 344 343
f 341 342 369
f 343 342 338
f 338 342 344
f 344 342 343
f 316 317 370
f 370 317 371
f 371 317 318
f 371 318 372
f 372 318 319
f 372 319 373
f 373 319 320
f 373 320 374
f 374 320 375
f 320 321 375
f 375 321 322
f 375 322 376
f 376 322 316
f 376 316 370
f 349 352 348
f 348 352 354
f 348 354 347
f 347 354 375
f 375 376 347
f 347 376 346
f 376 370 346
f 346 370 345
f 345 370 368
f 368 370 371
f 368 371 367
f 367 371 363
f 367 363 364
f 367 364 366
f 366 364 365
f 371 372 363
f 363 372 362
f 362 372 373
f 362 373 360
f 360 373 374
f 360 374 357
f 357 374 375
f 354 357 375
f 336 337 331
f 332 333 334
f 307 301 377
f 377 301 300
f 377 300 378
f 378 300 299
f 378 299 379
f 379 299 298
f 379 298 380
f 380 298 220
f 380 220 222
f 222 224 380
f 380 224 381
f 380 381 379
f 379 381 382
f 379 382 378
f 378 382 383
f 378 383 377
f 377 383 384
f 377 384 385
f 385 386 377
f 377 386 307
f 384 383 387
f 387 383 388
f 388 383 389
f 389 383 270
f 389 270 272
f 389 272 390
f 390 272 289
f 390 289 391
f 391 289 392
f 391 392 393
f 393 392 394
f 393 394 292
f 292 394 286
f 286 394 287
f 287 394 288
f 394 392 288
f 288 392 289
f 292 294 393
f 393 294 395
f 393 395 391
f 391 395 396
f 391 396 390
f 390 396 397
f 390 397 398
f 398 397 399
f 398 399 400
f 400 399 401
f 400 401 402
f 402 401 403
f 402 403 404
f 404 403 405
f 404 405 406
f 406 405 407
f 406 407 408
f 408 407 409
f 408 409 410
f 410 409 411
f 410 411 412
f 412 411 413
f 412 413 414
f 414 413 415
f 414 415 115
f 115 415 117
f 117 415 119
f 119 415 416
f 119 416 121
f 121 416 417
f 121 417 125
f 125 417 409
f 125 409 407
f 125 407 127
f 127 407 418
f 418 407 419
f 407 405 419
f 419 405 420
f 420 405 421
f 421 405 422
f 421 422 423
f 423 422 424
f 423 424 425
f 425 424 296
f 296 424 294
f 294 424 426
f 294 426 395
f 395 426 396
f 396 426 397
f 397 426 427
f 397 427 399
f 399 427 428
f 399 428 401
f 401 428 403
f 426 424 427
f 427 424 428
f 424 422 428
f 428 422 403
f 405 403 422
f 409 417 411
f 411 417 413
f 417 416 413
f 413 416 415
f 115 145 414
f 414 145 305
f 414 305 412
f 412 305 304
f 412 304 303
f 303 302 412
f 412 302 429
f 412 429 410
f 410 429 430
f 410 430 408
f 408 430 406
f 302 306 429
f 429 306 307
f 390 398 389
f 389 398 388
f 388 398 387
f 398 400 387
f 387 400 384
f 384 400 385
f 385 400 431
f 385 431 386
f 386 431 307
f 307 431 429
f 429 431 430
f 400 402 431
f 431 402 432
f 431 432 430
f 430 432 406
f 406 432 404
f 404 432 402
f 383 382 270
f 270 382 433
f 270 433 268
f 268 433 297
f 297 433 350
f 350 433 351
f 351 433 353
f 353 433 355
f 355 433 356
f 356 433 358
f 358 433 359
f 359 433 381
f 359 381 361
f 381 433 382
f 361 381 230
f 230 381 226
f 381 224 226
f 276 267 434
f 434 267 266
f 434 266 435
f 434 435 436
f 436 435 437
f 436 437 438
f 438 437 439
f 438 439 284
f 284 282 438
f 438 282 440
f 438 440 441
f 441 440 442
f 441 442 443
f 443 442 436
f 443 436 438
f 441 443 438
f 436 442 434
f 434 442 444
f 434 444 276
f 276 444 278
f 278 444 280
f 280 444 440
f 280 440 282
f 442 440 444
f 266 264 445
f 445 264 262
f 445 262 446
f 446 262 447
f 446 447 448
f 448 447 449
f 449 447 450
f 450 261 260
f 450 447 261
f 261 447 262
f 266 445 435
f 435 445 451
f 435 451 452
f 452 451 446
f 452 446 453
f 453 446 448
f 446 451 445
f 453 448 454
f 454 448 455
f 454 455 456
f 456 455 457
f 456 457 458
f 458 457 459
f 458 459 460
f 460 459 461
f 460 461 462
f 462 461 463
f 463 461 190
f 190 461 464
f 190 464 465
f 190 465 466
f 190 466 467
f 190 467 468
f 468 208 190
f 208 468 258
f 258 468 469
f 469 467 470
f 470 467 466
f 470 466 471
f 471 466 465
f 471 465 472
f 472 465 464
f 472 464 459
f 459 464 461
f 468 467 469
f 459 457 472
f 472 457 473
f 472 473 471
f 471 473 474
f 471 474 470
f 470 474 475
f 470 475 469
f 469 475 259
f 469 259 258
f 259 475 260
f 260 475 450
f 450 475 474
f 450 474 449
f 449 474 473
f 449 473 455
f 455 473 457
f 448 449 455
f 462 463 476
f 476 463 190
f 190 477 476
f 476 477 478
f 476 478 479
f 479 478 480
f 479 480 481
f 481 480 482
f 481 482 483
f 483 482 484
f 483 484 485
f 485 484 486
f 485 486 487
f 487 486 488
f 487 488 489
f 489 488 490
f 489 490 491
f 491 490 284
f 491 284 492
f 492 284 439
f 492 439 493
f 493 439 437
f 493 437 494
f 494 437 435
f 494 435 452
f 494 452 493
f 493 452 453
f 493 453 492
f 492 453 491
f 284 490 283
f 283 490 285
f 489 491 487
f 487 491 453
f 487 453 454
f 487 454 485
f 485 454 456
f 485 456 483
f 483 456 458
f 483 458 481
f 481 458 460
f 481 460 479
f 479 460 462
f 479 462 476
f 477 190 495
f 495 190 496
f 496 190 497
f 497 190 498
f 498 190 499
f 499 190 500
f 500 190 501
f 501 190 502
f 190 503 502
f 502 503 504
f 504 503 505
f 505 506 507
f 507 506 508
f 507 508 509
f 509 508 510
f 509 510 511
f 511 510 512
f 511 512 513
f 513 512 514
f 513 514 515
f 515 514 189
f 515 189 187
f 189 514 190
f 514 512 190
f 512 510 190
f 510 508 190
f 508 506 190
f 505 503 506
f 506 503 190
f 515 187 516
f 516 187 185
f 516 185 517
f 517 185 183
f 517 183 518
f 518 183 181
f 518 181 519
f 519 181 179
f 519 179 520
f 520 179 521
f 520 521 522
f 522 521 177
f 522 177 175
f 521 179 177
f 522 175 523
f 523 175 524
f 523 524 525
f 525 524 526
f 525 526 527
f 527 526 528
f 527 528 529
f 529 528 530
f 529 530 531
f 531 530 532
f 531 532 533
f 533 532 534
f 533 534 535
f 535 534 536
f 535 536 537
f 537 536 538
f 537 538 2
f 2 538 5
f 5 538 7
f 7 538 539
f 7 539 9
f 9 539 11
f 2 1 537
f 537 1 3
f 537 3 540
f 540 3 4
f 540 4 6
f 537 540 535
f 535 540 541
f 535 541 533
f 533 541 542
f 533 542 531
f 531 542 543
f 531 543 529
f 529 543 544
f 529 544 527
f 527 544 545
f 527 545 525
f 525 545 546
f 525 546 523
f 523 546 547
f 523 547 522
f 522 547 548
f 522 548 520
f 520 548 549
f 520 549 519
f 519 549 550
f 519 550 551
f 551 550 552
f 551 552 553
f 553 552 554
f 553 554 555
f 555 554 556
f 555 556 557
f 557 556 558
f 557 558 559
f 559 558 560
f 559 560 561
f 561 560 562
f 561 562 563
f 563 562 564
f 563 564 565
f 565 564 566
f 565 566 567
f 567 566 568
f 567 568 509
f 509 568 507
f 509 511 567
f 567 511 569
f 567 569 565
f 565 569 570
f 565 570 563
f 563 570 571
f 563 571 561
f 561 571 572
f 561 572 557
f 557 572 555
f 559 561 557
f 555 572 553
f 553 572 551
f 511 513 569
f 569 513 573
f 569 573 570
f 570 573 574
f 570 574 571
f 571 574 575
f 571 575 572
f 572 575 551
f 513 515 573
f 573 515 516
f 573 516 574
f 574 516 517
f 574 517 575
f 575 517 518
f 575 518 551
f 551 518 519
f 175 173 524
f 524 173 576
f 524 576 526
f 526 576 577
f 526 577 528
f 528 577 578
f 528 578 530
f 530 578 579
f 530 579 532
f 532 579 580
f 532 580 534
f 534 580 581
f 534 581 536
f 536 581 582
f 536 582 538
f 538 582 539
f 173 171 576
f 576 171 583
f 576 583 577
f 577 583 584
f 577 584 578
f 578 584 585
f 578 585 579
f 579 585 586
f 579 586 580
f 580 586 587
f 580 587 581
f 581 587 588
f 581 588 582
f 582 588 589
f 582 589 539
f 539 589 590
f 539 590 11
f 11 590 13
f 590 591 13
f 13 591 15
f 15 591 17
f 17 591 148
f 148 591 149
f 149 591 592
f 149 592 151
f 151 592 593
f 151 593 153
f 153 593 594
f 153 594 155
f 155 594 595
f 155 595 157
f 157 595 596
f 157 596 159
f 159 596 597
f 159 597 161
f 161 597 598
f 161 598 163
f 163 598 599
f 163 599 165
f 165 599 167
f 167 599 169
f 169 599 171
f 171 599 583
f 583 599 598
f 583 598 584
f 584 598 597
f 584 597 585
f 585 597 596
f 585 596 586
f 586 596 595
f 586 595 587
f 587 595 594
f 587 594 588
f 588 594 593
f 588 593 589
f 589 593 592
f 589 592 590
f 590 592 591
f 568 600 507
f 507 600 505
f 505 600 601
f 601 600 602
f 601 602 603
f 603 602 604
f 603 604 605
f 605 604 606
f 605 606 607
f 607 606 608
f 607 608 609
f 609 608 610
f 609 610 611
f 611 610 612
f 611 612 613
f 613 612 614
f 613 614 615
f 615 614 616
f 615 616 617
f 617 616 618
f 617 618 619
f 619 618 620
f 619 620 621
f 621 620 622
f 621 622 623
f 623 622 624
f 623 624 625
f 625 624 626
f 625 626 627
f 627 626 76
f 627 76 78
f 78 79 627
f 627 79 628
f 627 628 629
f 629 628 630
f 629 630 631
f 631 630 632
f 631 632 633
f 633 632 634
f 633 634 635
f 635 634 636
f 635 636 637
f 637 636 638
f 637 638 639
f 639 638 640
f 639 640 641
f 641 640 642
f 641 642 643
f 643 642 644
f 643 644 645
f 645 644 646
f 645 646 647
f 647 646 648
f 647 648 649
f 649 648 650
f 649 650 651
f 651 650 482
f 651 482 480
f 482 650 484
f 484 650 652
f 484 652 486
f 486 652 653
f 486 653 654
f 654 653 655
f 654 655 488
f 488 655 490
f 486 654 488
f 490 655 285
f 285 655 290
f 290 655 291
f 291 655 656
f 291 656 293
f 293 656 295
f 295 656 296
f 296 656 657
f 296 657 425
f 425 657 423
f 650 648 652
f 652 648 658
f 652 658 659
f 659 658 660
f 659 660 661
f 661 660 662
f 661 662 656
f 656 662 657
f 656 655 661
f 661 655 653
f 661 653 659
f 659 653 652
f 627 629 625
f 625 629 663
f 625 663 623
f 623 663 664
f 623 664 621
f 621 664 665
f 621 665 619
f 619 665 666
f 619 666 617
f 617 666 667
f 617 667 615
f 615 667 668
f 615 668 613
f 613 668 669
f 613 669 611
f 611 669 670
f 611 670 671
f 671 670 672
f 671 672 607
f 607 672 673
f 607 673 605
f 605 673 674
f 605 674 603
f 603 674 675
f 603 675 601
f 601 675 504
f 601 504 505
f 607 609 671
f 671 609 611
f 629 631 663
f 663 631 676
f 663 676 664
f 664 676 677
f 664 677 665
f 665 677 678
f 665 678 666
f 666 678 679
f 666 679 667
f 667 679 680
f 667 680 668
f 668 680 681
f 668 681 669
f 669 681 682
f 669 682 670
f 670 682 672
f 631 633 676
f 676 633 683
f 676 683 677
f 677 683 684
f 677 684 678
f 678 684 685
f 678 685 679
f 679 685 686
f 679 686 680
f 680 686 687
f 680 687 681
f 681 687 688
f 681 688 689
f 689 688 690
f 689 690 682
f 682 690 672
f 681 689 682
f 633 635 683
f 683 635 691
f 683 691 684
f 684 691 692
f 684 692 685
f 685 692 693
f 685 693 686
f 686 693 694
f 686 694 687
f 687 694 695
f 687 695 696
f 696 695 697
f 696 697 688
f 688 697 690
f 696 688 687
f 635 637 691
f 691 637 698
f 691 698 692
f 692 698 699
f 692 699 693
f 693 699 700
f 693 700 694
f 694 700 701
f 694 701 695
f 695 701 702
f 695 702 697
f 697 702 703
f 697 703 704
f 704 703 705
f 704 705 706
f 706 705 707
f 706 707 708
f 708 707 709
f 708 709 710
f 710 709 500
f 710 500 501
f 500 709 499
f 499 709 711
f 499 711 498
f 498 711 712
f 498 712 497
f 497 712 713
f 497 713 496
f 496 713 714
f 496 714 495
f 495 714 715
f 495 715 477
f 477 715 478
f 709 707 711
f 711 707 716
f 711 716 712
f 712 716 717
f 712 717 713
f 713 717 718
f 713 718 714
f 714 718 719
f 714 719 715
f 715 719 720
f 715 720 478
f 478 720 480
f 480 720 651
f 651 720 721
f 651 721 649
f 649 721 722
f 649 722 647
f 647 722 723
f 647 723 724
f 724 723 725
f 724 725 726
f 726 725 727
f 726 727 728
f 728 727 729
f 728 729 730
f 730 729 731
f 730 731 702
f 702 731 732
f 702 732 703
f 703 732 733
f 703 733 705
f 705 733 716
f 705 716 707
f 716 733 717
f 717 733 734
f 717 734 718
f 718 734 735
f 718 735 719
f 719 735 721
f 719 721 720
f 721 735 722
f 722 735 736
f 722 736 723
f 723 736 731
f 723 731 727
f 727 731 729
f 727 725 723
f 731 736 732
f 732 736 734
f 732 734 733
f 735 734 736
f 647 724 645
f 645 724 643
f 724 726 643
f 643 726 641
f 697 704 690
f 690 704 737
f 690 737 672
f 672 737 673
f 704 706 737
f 737 706 738
f 737 738 673
f 673 738 674
f 706 708 738
f 738 708 739
f 738 739 674
f 674 739 675
f 708 710 739
f 739 710 740
f 739 740 675
f 675 740 504
f 504 740 502
f 502 740 501
f 710 501 740
f 637 639 698
f 698 639 741
f 698 741 699
f 699 741 728
f 699 728 700
f 700 728 730
f 700 730 742
f 742 730 702
f 742 702 701
f 700 742 701
f 728 741 726
f 726 741 641
f 741 639 641
f 79 77 628
f 628 77 75
f 628 75 743
f 743 75 73
f 743 73 71
f 628 743 630
f 630 743 744
f 630 744 632
f 632 744 745
f 632 745 634
f 634 745 746
f 634 746 636
f 636 746 747
f 636 747 638
f 638 747 748
f 638 748 640
f 640 748 749
f 640 749 642
f 642 749 750
f 642 750 644
f 644 750 660
f 644 660 751
f 751 660 658
f 751 658 648
f 648 646 751
f 751 646 644
f 660 750 662
f 662 750 752
f 662 752 657
f 657 752 753
f 657 753 423
f 423 753 421
f 421 753 420
f 420 753 754
f 420 754 419
f 419 754 418
f 418 754 127
f 127 754 755
f 127 755 756
f 756 755 757
f 756 757 758
f 758 757 759
f 758 759 760
f 760 759 761
f 760 761 65
f 65 761 67
f 67 761 69
f 69 761 762
f 69 762 71
f 71 762 743
f 743 762 744
f 744 762 763
f 744 763 745
f 745 763 764
f 745 764 746
f 746 764 765
f 746 765 747
f 747 765 766
f 747 766 748
f 748 766 767
f 748 767 749
f 749 767 752
f 749 752 750
f 752 767 753
f 753 767 754
f 767 766 754
f 754 766 755
f 766 765 755
f 755 765 757
f 765 764 757
f 757 764 759
f 764 763 759
f 759 763 761
f 761 763 762
f 65 63 760
f 760 63 61
f 760 61 768
f 768 61 59
f 768 59 57
f 57 84 768
f 768 84 769
f 768 769 758
f 758 769 756
f 768 758 760
f 84 86 769
f 769 86 128
f 769 128 122
f 122 123 769
f 769 123 756
f 123 124 756
f 756 124 126
f 756 126 127
f 76 626 74
f 74 626 72
f 72 626 770
f 770 626 624
f 770 624 771
f 771 624 622
f 771 622 772
f 772 622 620
f 772 620 773
f 773 620 618
f 773 618 774
f 774 618 616
f 774 616 775
f 775 616 614
f 775 614 776
f 776 614 612
f 776 612 777
f 777 612 610
f 777 610 778
f 778 610 779
f 778 779 780
f 780 779 606
f 780 606 781
f 781 606 604
f 781 604 782
f 782 604 602
f 782 602 783
f 783 602 600
f 783 600 568
f 568 566 783
f 782 783 784
f 782 784 785
f 785 784 786
f 786 784 564
f 786 564 562
f 564 784 566
f 784 783 566
f 782 785 781
f 781 785 787
f 781 787 788
f 788 787 789
f 788 789 780
f 780 789 778
f 788 780 781
f 606 779 608
f 608 779 610
f 72 770 70
f 70 770 68
f 68 770 790
f 790 770 771
f 790 771 791
f 791 771 772
f 791 772 792
f 792 772 773
f 792 773 793
f 793 773 774
f 793 774 794
f 794 774 775
f 794 775 795
f 795 775 776
f 795 776 796
f 796 776 777
f 796 777 797
f 797 777 778
f 797 778 789
f 68 790 66
f 66 790 64
f 64 790 798
f 798 790 791
f 798 791 799
f 799 791 792
f 799 792 800
f 800 792 793
f 800 793 801
f 801 793 794
f 801 794 802
f 802 794 795
f 802 795 803
f 803 795 796
f 803 796 804
f 804 796 797
f 804 797 805
f 805 797 789
f 805 789 806
f 806 789 787
f 806 787 807
f 807 787 785
f 807 785 808
f 808 785 786
f 808 786 809
f 809 786 810
f 810 786 562
f 810 562 811
f 811 562 812
f 811 812 813
f 813 812 560
f 813 560 558
f 560 812 562
f 807 808 806
f 806 808 814
f 806 814 815
f 815 814 816
f 815 816 817
f 817 816 813
f 817 813 818
f 818 813 819
f 818 819 820
f 820 819 821
f 820 821 822
f 822 821 823
f 822 823 824
f 824 823 825
f 824 825 804
f 804 825 803
f 804 805 824
f 824 805 815
f 824 815 822
f 822 815 818
f 822 818 820
f 818 815 817
f 806 815 805
f 813 558 819
f 819 558 826
f 819 826 827
f 827 826 828
f 827 828 829
f 829 828 830
f 829 830 831
f 831 830 832
f 831 832 833
f 833 832 834
f 833 834 835
f 835 834 836
f 835 836 837
f 837 836 838
f 837 838 839
f 839 838 840
f 839 840 20
f 20 840 18
f 18 840 16
f 16 840 841
f 16 841 14
f 14 841 842
f 14 842 12
f 12 842 10
f 20 22 839
f 839 22 24
f 839 24 843
f 843 24 26
f 843 26 28
f 839 843 837
f 837 843 844
f 837 844 835
f 835 844 845
f 835 845 833
f 833 845 846
f 833 846 831
f 831 846 847
f 831 847 829
f 829 847 848
f 829 848 827
f 827 848 849
f 827 849 819
f 819 849 821
f 558 556 826
f 826 556 850
f 826 850 828
f 828 850 851
f 828 851 830
f 830 851 852
f 830 852 832
f 832 852 853
f 832 853 834
f 834 853 854
f 834 854 836
f 836 854 855
f 836 855 838
f 838 855 856
f 838 856 840
f 840 856 841
f 556 554 850
f 850 554 857
f 850 857 851
f 851 857 858
f 851 858 852
f 852 858 859
f 852 859 853
f 853 859 860
f 853 860 854
f 854 860 861
f 854 861 855
f 855 861 862
f 855 862 856
f 856 862 863
f 856 863 841
f 841 863 842
f 813 816 811
f 811 816 864
f 811 864 810
f 810 864 814
f 810 814 809
f 809 814 808
f 816 814 864
f 64 798 62
f 62 798 865
f 62 865 60
f 60 865 58
f 798 799 865
f 865 799 866
f 865 866 867
f 867 866 868
f 867 868 869
f 869 868 870
f 869 870 871
f 871 870 872
f 871 872 873
f 873 872 874
f 873 874 875
f 875 874 876
f 875 876 877
f 877 876 878
f 877 878 879
f 879 878 880
f 879 880 847
f 847 880 848
f 847 846 879
f 879 846 881
f 879 881 877
f 877 881 882
f 877 882 883
f 883 882 884
f 883 884 885
f 42 885 41
f 885 884 41
f 41 884 39
f 39 884 37
f 37 884 886
f 37 886 35
f 35 886 32
f 884 882 886
f 886 882 887
f 886 887 888
f 888 887 844
f 888 844 843
f 843 28 888
f 888 28 30
f 888 30 32
f 886 888 32
f 844 887 845
f 845 887 881
f 845 881 846
f 887 882 881
f 877 883 875
f 873 875 885
f 873 885 42
f 885 875 883
f 42 43 873
f 873 43 45
f 873 45 871
f 871 45 48
f 871 48 50
f 871 50 869
f 869 50 52
f 869 52 54
f 869 54 867
f 867 54 56
f 867 56 58
f 867 58 865
f 799 800 866
f 866 800 889
f 866 889 868
f 868 889 890
f 868 890 870
f 870 890 891
f 870 891 872
f 872 891 892
f 872 892 874
f 874 892 876
f 800 801 889
f 889 801 893
f 889 893 890
f 890 893 894
f 890 894 891
f 891 894 895
f 891 895 892
f 892 895 896
f 892 896 897
f 897 896 898
f 897 898 880
f 880 898 899
f 880 899 848
f 848 899 900
f 848 900 901
f 901 900 902
f 901 902 823
f 823 902 903
f 823 903 825
f 825 903 904
f 825 904 803
f 803 904 802
f 900 899 902
f 902 899 896
f 902 896 895
f 898 896 899
f 902 895 903
f 903 895 894
f 903 894 904
f 904 894 893
f 904 893 802
f 802 893 801
f 848 901 849
f 849 901 905
f 849 905 821
f 821 905 823
f 901 823 905
f 880 878 897
f 897 878 876
f 897 876 892
f 842 863 906
f 906 863 907
f 906 907 542
f 542 907 543
f 542 541 906
f 906 541 908
f 906 908 842
f 842 908 10
f 10 908 8
f 8 908 6
f 6 908 540
f 540 908 541
f 863 862 907
f 907 862 909
f 907 909 543
f 543 909 544
f 862 861 909
f 909 861 910
f 909 910 544
f 544 910 545
f 861 860 910
f 910 860 911
f 910 911 545
f 545 911 546
f 860 859 911
f 911 859 912
f 911 912 546
f 546 912 547
f 859 858 912
f 912 858 913
f 912 913 547
f 547 913 548
f 858 857 913
f 913 857 914
f 913 914 548
f 548 914 549
f 549 914 550
f 550 914 552
f 552 914 554
f 554 914 857

