o convex_0
v 0.006876 -0.060109 0.180888
v -0.009593 0.043149 0.066659
v -0.000802 -0.031544 0.106210
v -0.060139 -0.006279 0.182005
v 0.048618 0.036559 0.181994
v 0.054116 -0.005175 0.121588
v -0.041454 0.044262 0.181994
v 0.042031 0.044252 0.080942
v -0.051347 -0.016158 0.123790
v -0.045850 0.044252 0.089726
v 0.056308 -0.022747 0.181994
v 0.033239 -0.041423 0.127053
v -0.027176 -0.052416 0.146835
v -0.043657 -0.042516 0.182005
v 0.040929 0.044262 0.182005
v -0.031572 -0.024944 0.109507
v 0.059614 0.010201 0.158927
v -0.004107 -0.054613 0.132552
v 0.029945 -0.020551 0.106210
v -0.059037 0.012387 0.153428
v 0.043133 -0.042516 0.157832
v 0.016758 0.043149 0.067765
v -0.034866 0.043149 0.074348
v 0.047528 0.044252 0.097415
v -0.055743 0.024483 0.182005
v 0.018962 -0.055706 0.145739
v 0.034341 -0.050209 0.182005
v -0.049143 -0.032637 0.144644
v -0.057935 -0.004072 0.135860
v -0.027176 -0.042516 0.122684
v -0.013989 -0.059006 0.182005
v 0.057410 0.020090 0.180888
v 0.056308 -0.018354 0.145739
v 0.046426 -0.020551 0.119398
v 0.011260 -0.045826 0.119398
v -0.048053 0.044252 0.108401
v -0.056833 -0.021644 0.168806
v 0.057410 0.010201 0.129266
v -0.005197 -0.059006 0.150131
v -0.018385 -0.031544 0.108412
v -0.049143 0.001404 0.109496
v -0.055743 0.016790 0.120493
v 0.034341 0.043149 0.074348
v 0.017860 -0.031544 0.108412
v 0.059614 -0.010661 0.181994
v 0.048618 -0.032637 0.142442
v -0.041454 -0.034823 0.128160
v -0.021679 0.044262 0.068860
v -0.007401 -0.043620 0.116101
v 0.044223 -0.011765 0.110602
v -0.043657 -0.016158 0.112804
v -0.035968 -0.049116 0.163319
v 0.058512 -0.007382 0.142454
v 0.027753 -0.053509 0.155630
v 0.047528 -0.038123 0.180888
v -0.056833 -0.017251 0.146835
v 0.054116 0.010201 0.114995
v 0.031047 -0.032637 0.114995
v -0.054641 0.004704 0.118291
v -0.040352 0.043149 0.078751
v -0.050245 0.034373 0.182005
v -0.051347 -0.032637 0.182005
v 0.054116 0.026670 0.118291
v -0.037058 -0.044723 0.141347
f 13 52 64 
f 4 14 15 
f 3 2 22 
f 15 5 24 
f 8 15 24 
f 4 15 25 
f 20 4 25 
f 15 14 27 
f 4 20 29 
f 18 13 30 
f 1 27 31 
f 27 14 31 
f 24 5 32 
f 6 33 34 
f 26 18 35 
f 12 26 35 
f 7 10 36 
f 20 25 36 
f 13 18 39 
f 26 1 39 
f 18 26 39 
f 31 13 39 
f 1 31 39 
f 2 3 40 
f 30 16 40 
f 29 20 42 
f 36 10 42 
f 20 36 42 
f 22 8 43 
f 19 22 43 
f 3 22 44 
f 22 19 44 
f 35 3 44 
f 5 15 45 
f 27 11 45 
f 15 27 45 
f 32 5 45 
f 17 32 45 
f 11 33 45 
f 21 12 46 
f 33 11 46 
f 34 33 46 
f 12 34 46 
f 28 9 47 
f 16 30 47 
f 10 7 48 
f 7 15 48 
f 15 8 48 
f 22 2 48 
f 8 22 48 
f 16 23 48 
f 2 40 48 
f 40 16 48 
f 18 30 49 
f 3 35 49 
f 35 18 49 
f 40 3 49 
f 30 40 49 
f 8 6 50 
f 6 34 50 
f 43 8 50 
f 19 43 50 
f 23 16 51 
f 9 41 51 
f 47 9 51 
f 16 47 51 
f 14 28 52 
f 13 31 52 
f 31 14 52 
f 33 6 53 
f 6 38 53 
f 38 17 53 
f 17 45 53 
f 45 33 53 
f 12 21 54 
f 1 26 54 
f 26 12 54 
f 21 27 54 
f 27 1 54 
f 27 21 55 
f 11 27 55 
f 46 11 55 
f 21 46 55 
f 9 28 56 
f 29 9 56 
f 4 29 56 
f 37 4 56 
f 28 37 56 
f 6 8 57 
f 8 24 57 
f 38 6 57 
f 34 12 58 
f 12 35 58 
f 44 19 58 
f 35 44 58 
f 50 34 58 
f 19 50 58 
f 9 29 59 
f 41 9 59 
f 29 42 59 
f 42 10 59 
f 10 48 60 
f 48 23 60 
f 23 51 60 
f 51 41 60 
f 41 59 60 
f 59 10 60 
f 15 7 61 
f 25 15 61 
f 7 36 61 
f 36 25 61 
f 14 4 62 
f 28 14 62 
f 4 37 62 
f 37 28 62 
f 32 17 63 
f 24 32 63 
f 17 38 63 
f 57 24 63 
f 38 57 63 
f 30 13 64 
f 28 47 64 
f 47 30 64 
f 52 28 64 
o convex_1
v -0.020586 0.081613 -0.016826
v 0.058513 0.046463 0.007349
v 0.058513 0.045365 0.007349
v -0.042552 0.045365 0.140257
v -0.044753 0.045365 -0.038802
v 0.020052 0.060744 0.140257
v 0.012369 0.088205 0.027106
v 0.043124 0.044262 0.139147
v 0.027746 0.056352 -0.046491
v -0.034869 0.079417 0.041374
v 0.036535 0.080515 0.013929
v -0.057941 0.049756 -0.000359
v -0.011786 0.062940 0.140257
v 0.005780 0.045365 -0.058598
v 0.011263 0.081608 -0.022315
v 0.038735 0.076119 0.044664
v -0.011786 0.064046 -0.046510
v 0.050819 0.047560 -0.030024
v -0.046953 0.044267 0.117171
v -0.040364 0.071723 -0.013537
v -0.007397 0.087107 0.040284
v 0.043124 0.066233 -0.020135
v -0.015092 0.088205 0.005150
v -0.042552 0.075021 0.023836
v 0.014558 0.080515 0.068839
v 0.051913 0.061842 0.004040
v 0.020052 0.086009 -0.002558
v -0.056836 0.045365 -0.015736
v 0.026652 0.044262 0.068820
v -0.029375 0.056352 0.140257
v -0.029375 0.056352 -0.045401
v -0.026081 0.081613 0.051263
v 0.040935 0.045365 -0.043201
v -0.030469 0.083813 0.010639
v 0.017863 0.070629 -0.037712
v 0.045324 0.045365 0.129240
v 0.034335 0.053054 0.140237
v 0.029947 0.080515 0.049043
v 0.002474 0.064046 0.140257
v -0.023881 0.045365 -0.054180
v -0.007397 0.082711 0.063331
v -0.039258 0.061846 -0.032204
v -0.015092 0.076119 -0.031114
v 0.028841 0.078315 -0.016826
v -0.001903 0.088205 -0.004758
v -0.031564 0.044262 0.071020
v -0.041458 0.071723 0.050153
v -0.051341 0.060744 -0.009138
v 0.004674 0.065140 -0.046510
v -0.053541 0.058548 0.008439
v 0.044230 0.071727 0.029325
v 0.057407 0.045365 -0.013537
v 0.033241 0.064042 -0.035493
v -0.034869 0.073923 0.065530
v -0.019480 0.087107 0.026016
v -0.000809 0.077221 -0.032204
v 0.027746 0.084911 0.021617
v 0.009075 0.089307 0.015019
v -0.050247 0.054157 -0.024534
v 0.054113 0.057450 0.008439
v -0.030469 0.069527 -0.031114
v -0.042552 0.044267 0.140257
v -0.009597 0.048658 -0.057489
v 0.044230 0.071727 -0.001449
f 115 90 128 
f 68 70 77 
f 71 85 89 
f 83 76 92 
f 68 77 94 
f 94 77 96 
f 78 73 97 
f 93 78 97 
f 65 84 98 
f 87 65 98 
f 88 74 98 
f 84 88 98 
f 67 66 100 
f 72 67 100 
f 72 100 101 
f 100 80 101 
f 89 70 102 
f 71 89 102 
f 70 101 102 
f 101 80 102 
f 77 70 103 
f 70 89 103 
f 69 95 104 
f 89 85 105 
f 96 77 105 
f 85 96 105 
f 77 103 105 
f 103 89 105 
f 95 69 106 
f 91 75 108 
f 79 91 108 
f 99 79 108 
f 65 87 109 
f 91 79 109 
f 92 69 110 
f 83 92 110 
f 93 72 110 
f 78 93 110 
f 104 78 110 
f 69 104 110 
f 83 68 111 
f 74 88 111 
f 88 84 112 
f 92 76 112 
f 73 78 113 
f 99 73 113 
f 76 83 114 
f 83 111 114 
f 111 88 114 
f 112 76 114 
f 88 112 114 
f 75 80 115 
f 80 100 115 
f 66 67 116 
f 67 72 116 
f 82 86 116 
f 86 90 116 
f 72 93 116 
f 97 82 116 
f 93 97 116 
f 86 82 117 
f 97 73 117 
f 82 97 117 
f 73 99 117 
f 108 86 117 
f 99 108 117 
f 68 94 118 
f 96 74 118 
f 94 96 118 
f 111 68 118 
f 74 111 118 
f 96 85 119 
f 74 96 119 
f 87 98 119 
f 98 74 119 
f 79 99 120 
f 107 65 120 
f 81 107 120 
f 65 109 120 
f 109 79 120 
f 113 81 120 
f 99 113 120 
f 80 75 121 
f 75 91 121 
f 71 102 121 
f 102 80 121 
f 85 71 122 
f 109 87 122 
f 91 109 122 
f 119 85 122 
f 87 119 122 
f 71 121 122 
f 121 91 122 
f 69 92 123 
f 84 106 123 
f 106 69 123 
f 112 84 123 
f 92 112 123 
f 100 66 124 
f 90 115 124 
f 115 100 124 
f 66 116 124 
f 116 90 124 
f 84 65 125 
f 81 95 125 
f 106 84 125 
f 95 106 125 
f 65 107 125 
f 107 81 125 
f 70 68 126 
f 68 83 126 
f 101 70 126 
f 72 101 126 
f 110 72 126 
f 83 110 126 
f 95 81 127 
f 78 104 127 
f 104 95 127 
f 113 78 127 
f 81 113 127 
f 90 86 128 
f 108 75 128 
f 86 108 128 
f 75 115 128 
o convex_2
v 0.002470 0.062939 0.145757
v -0.042560 0.044262 0.140261
v -0.042560 0.044262 0.143558
v 0.042035 0.044262 0.140261
v 0.039833 0.044262 0.182005
v -0.022778 0.056345 0.182005
v -0.040358 0.044262 0.182005
v 0.020050 0.057446 0.180902
v -0.024980 0.058542 0.140261
v 0.022253 0.059643 0.140261
v -0.010696 0.059643 0.182005
v 0.034334 0.053052 0.141360
v -0.010696 0.062939 0.140261
v 0.010163 0.059643 0.182005
v 0.033241 0.050857 0.182005
v -0.032665 0.054149 0.141360
v 0.010163 0.062939 0.142459
v -0.031572 0.051955 0.182005
v 0.040934 0.047559 0.140261
v -0.040358 0.045363 0.182005
v -0.019482 0.060742 0.141360
v -0.037062 0.050857 0.140261
v 0.037630 0.047559 0.182005
v 0.027743 0.054149 0.180902
v 0.015653 0.061839 0.140261
v -0.042560 0.045363 0.143558
f 148 150 154 
f 131 130 132 
f 131 132 133 
f 131 133 135 
f 133 134 135 
f 132 130 137 
f 132 137 138 
f 134 133 139 
f 138 137 141 
f 139 129 141 
f 139 133 142 
f 129 139 142 
f 142 133 143 
f 136 142 143 
f 141 129 145 
f 142 136 145 
f 129 142 145 
f 135 134 146 
f 134 137 146 
f 137 144 146 
f 133 132 147 
f 132 138 147 
f 138 140 147 
f 131 135 148 
f 135 146 148 
f 146 144 148 
f 137 134 149 
f 134 139 149 
f 141 137 149 
f 139 141 149 
f 137 130 150 
f 144 137 150 
f 148 144 150 
f 143 133 151 
f 140 143 151 
f 133 147 151 
f 147 140 151 
f 138 136 152 
f 140 138 152 
f 136 143 152 
f 143 140 152 
f 136 138 153 
f 138 141 153 
f 145 136 153 
f 141 145 153 
f 130 131 154 
f 131 148 154 
f 150 130 154 
