o convex_0
v 0.015616 0.028393 -0.107233
v -0.060379 -0.008937 -0.023266
v -0.060379 -0.008937 -0.011268
v 0.051605 -0.074263 -0.055254
v 0.036946 0.048376 -0.007261
v -0.033705 -0.074250 -0.081904
v 0.014277 -0.074263 -0.004587
v -0.036371 0.041719 -0.080572
v -0.033705 0.051052 -0.007261
v 0.059615 0.011059 -0.007261
v 0.051605 0.016385 -0.077908
v 0.024942 -0.039583 -0.100573
v -0.047036 -0.074263 -0.025930
v 0.008944 0.057721 -0.072580
v -0.040376 -0.004956 -0.097909
v -0.056374 -0.026257 -0.068574
v -0.009708 -0.003625 -0.112582
v 0.010283 -0.074263 -0.091249
v -0.055035 0.020392 -0.060572
v 0.046272 -0.074263 -0.024598
v 0.040940 0.040388 -0.072570
v -0.013713 -0.074263 -0.004587
v -0.017707 0.037725 -0.101905
v 0.044945 -0.015593 -0.092570
v -0.000382 0.060397 -0.007272
v -0.052369 -0.074263 -0.051258
v -0.056374 0.023054 -0.007261
v 0.058276 -0.014262 -0.063246
v -0.017707 0.056377 -0.068574
v 0.059615 -0.011586 -0.007261
v 0.035607 -0.074263 -0.080572
v -0.016380 -0.031595 -0.105911
v 0.016943 -0.014249 -0.109907
v -0.056374 -0.023581 -0.007261
v 0.010283 0.047058 -0.096566
v 0.055610 0.023054 -0.045930
v -0.043042 0.043064 -0.044599
v 0.034280 0.021723 -0.099241
v -0.045709 0.016385 -0.088575
v 0.023615 0.056377 -0.045930
v -0.047036 -0.034258 -0.085911
v 0.051605 -0.032913 -0.079240
v 0.048938 0.036381 -0.007261
v -0.017707 0.021710 -0.108575
v -0.009708 0.051052 -0.091249
v -0.059040 0.001727 -0.057918
v -0.031038 -0.019587 -0.103247
v 0.034280 -0.074263 -0.012600
v -0.032377 -0.074250 -0.011257
v 0.026281 0.047044 -0.085900
v -0.016380 -0.074250 -0.089906
v 0.004939 -0.032927 -0.107243
v -0.009708 0.060397 -0.035254
v 0.059615 0.004390 -0.051248
v -0.048375 -0.072919 -0.065910
v -0.053708 0.003058 -0.077908
v 0.028947 -0.006274 -0.105911
v 0.008944 0.009728 -0.112582
v 0.043606 0.041719 -0.052590
v 0.052944 -0.070256 -0.045930
v 0.015616 0.059053 -0.012600
v -0.028372 0.053714 -0.052601
v -0.032377 0.025717 -0.099241
v -0.060379 0.007052 -0.007261
f 19 46 64 
f 4 7 13 
f 4 13 18 
f 7 4 20 
f 13 7 22 
f 7 5 25 
f 9 22 25 
f 22 7 25 
f 3 2 26 
f 2 16 26 
f 6 18 26 
f 18 13 26 
f 22 9 27 
f 10 7 30 
f 4 18 31 
f 18 12 31 
f 12 24 31 
f 3 26 34 
f 26 13 34 
f 1 23 35 
f 11 21 36 
f 8 19 37 
f 19 27 37 
f 27 9 37 
f 21 11 38 
f 11 24 38 
f 19 8 39 
f 24 11 42 
f 28 4 42 
f 11 28 42 
f 4 31 42 
f 31 24 42 
f 5 7 43 
f 7 10 43 
f 10 36 43 
f 23 1 44 
f 23 8 45 
f 8 29 45 
f 29 14 45 
f 14 35 45 
f 35 23 45 
f 16 2 46 
f 32 6 47 
f 17 32 47 
f 6 41 47 
f 41 15 47 
f 44 17 47 
f 15 44 47 
f 7 20 48 
f 30 7 48 
f 20 30 48 
f 13 22 49 
f 34 13 49 
f 22 34 49 
f 1 35 50 
f 35 14 50 
f 21 38 50 
f 38 1 50 
f 40 21 50 
f 14 40 50 
f 18 6 51 
f 6 32 51 
f 51 32 52 
f 12 18 52 
f 32 17 52 
f 17 33 52 
f 33 12 52 
f 18 51 52 
f 9 25 53 
f 14 29 53 
f 28 11 54 
f 10 30 54 
f 30 28 54 
f 36 10 54 
f 11 36 54 
f 26 16 55 
f 6 26 55 
f 16 41 55 
f 41 6 55 
f 39 15 56 
f 19 39 56 
f 41 16 56 
f 15 41 56 
f 16 46 56 
f 46 19 56 
f 24 12 57 
f 12 33 57 
f 38 24 57 
f 1 38 57 
f 33 17 58 
f 44 1 58 
f 17 44 58 
f 1 57 58 
f 57 33 58 
f 36 21 59 
f 40 5 59 
f 21 40 59 
f 5 43 59 
f 43 36 59 
f 20 4 60 
f 4 28 60 
f 30 20 60 
f 28 30 60 
f 25 5 61 
f 5 40 61 
f 40 14 61 
f 14 53 61 
f 53 25 61 
f 29 8 62 
f 8 37 62 
f 37 9 62 
f 9 53 62 
f 53 29 62 
f 8 23 63 
f 15 39 63 
f 39 8 63 
f 44 15 63 
f 23 44 63 
f 2 3 64 
f 27 19 64 
f 22 27 64 
f 34 22 64 
f 3 34 64 
f 46 2 64 
o convex_1
v -0.057709 -0.130261 -0.009938
v 0.058282 -0.136926 0.003399
v 0.058282 -0.138260 0.003399
v 0.004941 -0.075598 -0.091249
v -0.009705 -0.074263 -0.003276
v 0.002273 -0.138260 -0.068581
v -0.013702 -0.138260 0.054075
v 0.051606 -0.074263 -0.055245
v -0.048377 -0.074263 -0.064576
v 0.030272 -0.124923 0.039404
v -0.037715 -0.138260 -0.055230
v 0.043613 -0.136926 -0.049904
v -0.045708 -0.074263 -0.023245
v 0.044941 -0.074263 -0.021910
v -0.049705 -0.138260 0.027402
v -0.023046 -0.074263 -0.087244
v 0.032940 -0.075598 -0.081904
v -0.017710 -0.120927 0.042074
v 0.046281 -0.136926 0.032728
v -0.055041 -0.138260 -0.029907
v 0.022279 -0.074263 -0.005932
v 0.006281 -0.119586 0.043409
v 0.056942 -0.138260 -0.023245
v 0.022279 -0.138260 -0.064562
v -0.052373 -0.074263 -0.041894
v -0.035047 -0.127586 0.038069
v 0.018282 -0.138260 0.052726
v -0.031039 -0.074263 -0.009938
v -0.015041 -0.136926 -0.067246
v -0.055041 -0.136926 0.016736
v 0.047609 -0.074263 -0.065897
v 0.050278 -0.074263 -0.032562
v -0.041712 -0.076932 -0.073907
v -0.048377 -0.138260 -0.043243
v 0.052946 -0.134251 0.019392
v 0.014274 -0.074263 -0.089914
v -0.005709 -0.075598 -0.091249
v 0.052946 -0.138260 -0.035233
v -0.057709 -0.138260 -0.019240
v -0.045708 -0.135585 0.032728
v -0.031039 -0.075598 -0.083239
v -0.051033 -0.074263 -0.057915
v 0.034280 -0.138260 -0.057901
v 0.036937 -0.074263 -0.013943
v -0.000372 -0.128926 0.051405
v 0.016942 -0.123589 0.044730
v 0.039616 -0.124923 0.031393
v 0.040945 -0.075598 -0.075242
v 0.010278 -0.074263 -0.003262
v -0.023046 -0.136926 -0.064576
v -0.057709 -0.136926 0.006069
v -0.029711 -0.136926 0.047386
v -0.007048 -0.118258 0.042074
v 0.058282 -0.132923 -0.012608
v 0.051606 -0.074263 -0.037917
v 0.035608 -0.138260 0.043395
v 0.015614 -0.136926 -0.067232
v 0.024947 -0.076932 -0.085909
v -0.051033 -0.074263 -0.035233
v -0.021706 -0.074263 -0.005947
v -0.025703 -0.124923 0.042074
v -0.020378 -0.078272 -0.087244
v 0.047609 -0.130261 0.026067
v -0.052373 -0.134251 0.020741
f 123 94 128 
f 70 67 71 
f 69 72 73 
f 70 71 75 
f 69 73 77 
f 72 69 78 
f 75 71 79 
f 73 72 80 
f 75 79 84 
f 78 69 85 
f 67 70 87 
f 87 70 88 
f 77 73 89 
f 71 67 91 
f 69 77 92 
f 77 90 92 
f 80 72 95 
f 72 78 96 
f 84 73 98 
f 75 84 98 
f 73 97 98 
f 97 75 98 
f 67 66 99 
f 83 67 99 
f 66 96 99 
f 96 78 99 
f 80 95 100 
f 95 81 100 
f 68 70 101 
f 70 93 101 
f 100 68 101 
f 80 100 101 
f 72 87 102 
f 87 88 102 
f 95 72 102 
f 76 95 102 
f 84 79 103 
f 65 89 103 
f 90 77 104 
f 73 80 105 
f 97 73 105 
f 75 97 105 
f 73 84 106 
f 89 73 106 
f 84 103 106 
f 103 89 106 
f 76 102 107 
f 102 88 107 
f 78 85 108 
f 85 74 108 
f 82 71 109 
f 71 91 109 
f 109 91 110 
f 74 85 110 
f 85 86 110 
f 91 74 110 
f 86 109 110 
f 108 74 111 
f 78 108 111 
f 81 95 112 
f 95 76 112 
f 76 107 112 
f 107 81 112 
f 85 69 113 
f 86 85 113 
f 70 75 114 
f 93 70 114 
f 75 105 114 
f 89 65 115 
f 79 94 115 
f 103 79 115 
f 65 103 115 
f 79 71 116 
f 104 79 116 
f 90 104 116 
f 82 109 117 
f 109 86 117 
f 113 69 117 
f 86 113 117 
f 66 67 118 
f 67 87 118 
f 87 72 118 
f 96 66 119 
f 72 96 119 
f 66 118 119 
f 118 72 119 
f 67 83 120 
f 91 67 120 
f 74 91 120 
f 111 74 120 
f 83 111 120 
f 70 68 121 
f 88 70 121 
f 68 100 121 
f 121 100 122 
f 100 81 122 
f 81 107 122 
f 107 88 122 
f 88 121 122 
f 77 89 123 
f 89 115 123 
f 115 94 123 
f 69 92 124 
f 92 82 124 
f 117 69 124 
f 82 117 124 
f 71 82 125 
f 82 92 125 
f 92 90 125 
f 116 71 125 
f 90 116 125 
f 101 93 126 
f 80 101 126 
f 105 80 126 
f 93 114 126 
f 114 105 126 
f 83 99 127 
f 99 78 127 
f 111 83 127 
f 78 111 127 
f 94 79 128 
f 79 104 128 
f 104 77 128 
f 77 123 128 
o convex_2
v -0.001713 -0.170256 -0.060584
v 0.026273 -0.138260 -0.060584
v 0.026273 -0.140932 -0.060584
v 0.011612 -0.138260 -0.067250
v -0.027037 -0.138260 -0.060584
v -0.011045 -0.139598 -0.067250
v 0.007614 -0.167587 -0.061918
v -0.008378 -0.167587 -0.061918
v -0.023039 -0.142263 -0.063252
v 0.023611 -0.140932 -0.063252
v 0.006278 -0.142263 -0.067250
v -0.001713 -0.170256 -0.061918
v 0.014279 -0.160923 -0.060584
v -0.016374 -0.158254 -0.060584
f 137 136 142 
f 131 130 129 
f 129 130 133 
f 130 132 133 
f 133 132 134 
f 133 134 137 
f 134 136 137 
f 130 131 138 
f 132 130 138 
f 135 132 138 
f 134 132 139 
f 132 135 139 
f 135 129 140 
f 136 134 140 
f 129 136 140 
f 134 139 140 
f 139 135 140 
f 131 129 141 
f 129 135 141 
f 138 131 141 
f 135 138 141 
f 129 133 142 
f 136 129 142 
f 133 137 142 
o convex_3
v 0.000950 -0.159601 0.060744
v -0.029715 -0.139597 -0.060584
v -0.029715 -0.138260 -0.060584
v 0.056934 -0.143595 -0.024587
v 0.014275 -0.191591 -0.059242
v -0.060379 -0.191591 0.007419
v 0.051614 -0.191591 0.032728
v -0.045700 -0.138260 0.034070
v 0.043597 -0.138260 0.036730
v -0.025712 -0.191591 0.055399
v 0.031602 -0.138260 -0.059242
v 0.051602 -0.191591 -0.032568
v -0.040356 -0.191591 -0.045905
v -0.057695 -0.138260 -0.020585
v 0.022280 -0.191591 0.056718
v -0.016378 -0.138260 0.054057
v 0.060949 -0.162263 0.002075
v -0.056377 -0.158270 0.023417
v 0.056934 -0.138260 0.011410
v 0.027612 -0.147594 0.052739
v -0.052351 -0.191591 -0.031262
v 0.059607 -0.191591 -0.012580
v -0.045700 -0.191591 0.040732
v -0.004359 -0.191591 -0.060584
v -0.047030 -0.138260 -0.044575
v -0.031045 -0.159601 0.052739
v 0.048930 -0.138260 -0.041903
v 0.036935 -0.191591 -0.048565
v -0.059037 -0.140928 0.003417
v 0.043597 -0.166257 0.043404
v 0.055604 -0.156939 0.024747
v 0.010285 -0.138260 0.055399
v 0.058276 -0.191591 0.018072
v -0.001710 -0.191591 0.060744
v -0.060367 -0.191591 -0.007248
v -0.023040 -0.191591 -0.056582
v 0.028930 -0.140928 -0.060584
v -0.043040 -0.150277 0.042074
v -0.013705 -0.162263 0.059402
v 0.058265 -0.138260 -0.017913
v 0.036935 -0.191591 0.048725
v 0.014287 -0.163595 0.059402
v -0.056377 -0.191591 0.023417
v -0.060379 -0.154276 0.006077
v -0.056353 -0.152940 -0.025917
v 0.043597 -0.142264 -0.048565
v 0.031602 -0.166257 0.052739
v -0.053705 -0.138260 0.020756
v -0.052375 -0.158270 0.031397
v -0.031045 -0.140928 0.048725
v -0.041698 -0.139597 -0.051237
v -0.060367 -0.156939 -0.009920
v 0.051614 -0.151609 0.031397
v -0.059025 -0.191591 -0.015252
v 0.038277 -0.148946 0.046065
v 0.059607 -0.150277 0.008761
v -0.003041 -0.143595 0.058071
v -0.039037 -0.178243 0.047407
v 0.028942 -0.138260 0.048725
v 0.056934 -0.191591 -0.021915
v 0.022268 -0.191591 -0.056582
v -0.017708 -0.147594 0.056718
v 0.010285 -0.146263 0.058071
v -0.059037 -0.159601 0.015412
f 190 171 206 
f 148 147 149 
f 145 150 151 
f 148 149 152 
f 145 151 153 
f 149 147 154 
f 147 148 155 
f 150 145 156 
f 152 149 157 
f 151 150 158 
f 153 151 161 
f 155 148 163 
f 149 154 164 
f 148 152 165 
f 144 145 166 
f 147 155 166 
f 156 145 167 
f 153 161 169 
f 154 147 170 
f 151 158 174 
f 149 164 175 
f 164 159 175 
f 173 149 175 
f 152 157 176 
f 163 148 177 
f 155 144 178 
f 144 166 178 
f 166 155 178 
f 145 153 179 
f 166 145 179 
f 147 166 179 
f 153 170 179 
f 168 152 181 
f 176 143 181 
f 152 176 181 
f 164 146 182 
f 159 164 182 
f 146 169 182 
f 169 161 182 
f 157 149 183 
f 149 172 183 
f 143 176 184 
f 176 157 184 
f 148 165 185 
f 156 167 187 
f 167 163 187 
f 169 154 188 
f 153 169 188 
f 170 153 188 
f 154 170 188 
f 157 183 189 
f 183 172 189 
f 184 157 189 
f 162 184 189 
f 150 156 190 
f 156 171 190 
f 180 150 191 
f 165 180 191 
f 160 185 191 
f 185 165 191 
f 150 190 191 
f 190 160 191 
f 158 150 192 
f 150 180 192 
f 180 168 192 
f 145 144 193 
f 144 155 193 
f 155 163 193 
f 167 145 193 
f 163 167 193 
f 171 156 194 
f 177 148 194 
f 148 186 194 
f 186 171 194 
f 161 151 195 
f 172 149 195 
f 149 173 195 
f 173 161 195 
f 163 177 196 
f 156 187 196 
f 187 163 196 
f 194 156 196 
f 177 194 196 
f 162 189 197 
f 189 172 197 
f 195 151 197 
f 172 195 197 
f 161 173 198 
f 175 159 198 
f 173 175 198 
f 159 182 198 
f 182 161 198 
f 174 158 199 
f 181 143 199 
f 165 152 200 
f 152 168 200 
f 180 165 200 
f 168 180 200 
f 151 174 201 
f 174 162 201 
f 197 151 201 
f 162 197 201 
f 164 154 202 
f 146 164 202 
f 169 146 202 
f 154 169 202 
f 170 147 203 
f 147 179 203 
f 179 170 203 
f 168 181 204 
f 158 192 204 
f 192 168 204 
f 199 158 204 
f 181 199 204 
f 162 174 205 
f 184 162 205 
f 143 184 205 
f 199 143 205 
f 174 199 205 
f 148 185 206 
f 185 160 206 
f 186 148 206 
f 171 186 206 
f 160 190 206 
o convex_4
v -0.003048 -0.203588 0.056743
v 0.014284 -0.191595 0.058077
v 0.014284 -0.191595 0.055412
v 0.014284 -0.208924 0.058077
v -0.003048 -0.191595 0.059410
v 0.000954 -0.194260 0.052744
v 0.014284 -0.208924 0.055412
v -0.003048 -0.208924 0.059410
v 0.012949 -0.191595 0.059410
v 0.000954 -0.200922 0.052744
v 0.006283 -0.194260 0.052744
v 0.011617 -0.208924 0.059410
f 215 214 218 
f 209 208 210 
f 208 209 211 
f 207 211 212 
f 211 209 212 
f 209 210 213 
f 211 207 214 
f 213 210 214 
f 210 208 215 
f 208 211 215 
f 211 214 215 
f 207 212 216 
f 214 207 216 
f 213 214 216 
f 212 209 217 
f 209 213 217 
f 216 212 217 
f 213 216 217 
f 214 210 218 
f 210 215 218 
o convex_5
v 0.054283 -0.191595 0.027412
v 0.056948 -0.208924 0.011416
v 0.058282 -0.208924 0.011416
v 0.059615 -0.191595 -0.003253
v 0.056948 -0.204922 -0.003253
v 0.052949 -0.191595 0.019409
v 0.052949 -0.208924 0.027412
v 0.059615 -0.191595 0.011416
v 0.056948 -0.208924 0.020745
v 0.059615 -0.206255 -0.003253
v 0.056948 -0.191595 -0.003253
v 0.052949 -0.208924 0.020745
f 220 225 230 
f 219 222 224 
f 220 221 225 
f 219 224 225 
f 222 219 226 
f 219 225 227 
f 225 221 227 
f 226 219 227 
f 221 226 227 
f 221 220 228 
f 223 222 228 
f 220 223 228 
f 226 221 228 
f 222 226 228 
f 222 223 229 
f 224 222 229 
f 223 224 229 
f 223 220 230 
f 224 223 230 
f 225 224 230 
o convex_6
v 0.022287 -0.199593 0.056743
v 0.042283 -0.191595 0.043412
v 0.042283 -0.191595 0.042078
v 0.042283 -0.208924 0.042078
v 0.015619 -0.191595 0.054074
v 0.014284 -0.208924 0.055410
v 0.030281 -0.208924 0.052743
v 0.038281 -0.208924 0.042078
v 0.032948 -0.191595 0.051410
v 0.014284 -0.191595 0.058077
v 0.016954 -0.208924 0.058077
v 0.038281 -0.191595 0.042078
v 0.038281 -0.208924 0.047412
f 239 237 243 
f 233 232 234 
f 232 233 235 
f 236 234 237 
f 233 234 238 
f 234 236 238 
f 236 235 238 
f 232 235 239 
f 231 237 239 
f 235 236 240 
f 231 239 240 
f 239 235 240 
f 237 231 241 
f 236 237 241 
f 231 240 241 
f 240 236 241 
f 235 233 242 
f 233 238 242 
f 238 235 242 
f 234 232 243 
f 237 234 243 
f 232 239 243 
o convex_7
v -0.028377 -0.194261 -0.053916
v 0.015617 -0.191596 -0.055251
v 0.015617 -0.208924 -0.055251
v -0.032379 -0.191596 -0.045918
v -0.012378 -0.208924 -0.059251
v -0.035047 -0.208924 -0.045918
v 0.012949 -0.191596 -0.059249
v -0.012378 -0.191596 -0.059251
v 0.012949 -0.208924 -0.059249
v -0.032379 -0.208924 -0.051253
v -0.035047 -0.191596 -0.048586
v -0.021706 -0.208924 -0.056583
f 248 253 255 
f 246 245 247 
f 248 246 249 
f 246 247 249 
f 245 246 250 
f 247 245 250 
f 250 248 251 
f 247 250 251 
f 246 248 252 
f 250 246 252 
f 248 250 252 
f 248 249 253 
f 253 249 254 
f 249 247 254 
f 251 244 254 
f 247 251 254 
f 244 253 254 
f 251 248 255 
f 244 251 255 
f 253 244 255 
o convex_8
v 0.047617 -0.208924 -0.037913
v 0.059613 -0.191595 -0.003253
v 0.059613 -0.206255 -0.003253
v 0.036952 -0.191595 -0.043246
v 0.056947 -0.191595 -0.021921
v 0.036952 -0.208924 -0.043246
v 0.056947 -0.206255 -0.003253
v 0.058280 -0.208924 -0.015253
v 0.040951 -0.191595 -0.044585
v 0.056947 -0.191595 -0.003253
v 0.051614 -0.191595 -0.032585
v 0.055614 -0.208924 -0.024579
v 0.040951 -0.208924 -0.044585
v 0.059613 -0.191595 -0.011256
v 0.055614 -0.208924 -0.012587
f 261 263 270 
f 259 257 260 
f 259 261 262 
f 258 257 262 
f 261 256 263 
f 259 260 264 
f 261 259 264 
f 257 259 265 
f 259 262 265 
f 262 257 265 
f 256 264 266 
f 264 260 266 
f 263 256 267 
f 260 263 267 
f 256 266 267 
f 266 260 267 
f 256 261 268 
f 264 256 268 
f 261 264 268 
f 257 258 269 
f 260 257 269 
f 258 263 269 
f 263 260 269 
f 262 261 270 
f 258 262 270 
f 263 258 270 
o convex_9
v -0.051047 -0.191595 0.032738
v -0.059045 -0.208924 -0.003249
v -0.057710 -0.208924 -0.003249
v -0.044380 -0.208924 0.039411
v -0.056378 -0.191595 -0.003249
v -0.057710 -0.208924 0.018079
v -0.059045 -0.191595 0.014086
v -0.044380 -0.191595 0.035410
v -0.044380 -0.208924 0.035410
v -0.060379 -0.191595 -0.003249
v -0.060379 -0.208924 0.002080
v -0.051047 -0.208924 0.032738
v -0.045714 -0.191595 0.039411
v -0.056378 -0.191595 0.022071
f 276 282 284 
f 272 273 274 
f 273 272 275 
f 272 274 276 
f 271 275 277 
f 275 271 278 
f 275 278 279 
f 274 273 279 
f 273 275 279 
f 278 274 279 
f 275 272 280 
f 277 275 280 
f 277 280 281 
f 272 276 281 
f 276 277 281 
f 280 272 281 
f 276 274 282 
f 278 271 283 
f 274 278 283 
f 271 282 283 
f 282 274 283 
f 271 277 284 
f 277 276 284 
f 282 271 284 
o convex_10
v -0.017718 -0.191595 0.058077
v -0.044380 -0.208924 0.036745
v -0.044380 -0.191595 0.036745
v -0.003048 -0.206255 0.056744
v -0.032380 -0.208924 0.051410
v -0.003048 -0.191595 0.056744
v -0.012382 -0.208924 0.059410
v -0.036377 -0.191595 0.048743
v -0.044380 -0.208924 0.040745
v -0.003048 -0.208924 0.059410
v -0.043041 -0.208924 0.036745
v -0.003048 -0.191595 0.059410
v -0.044380 -0.191595 0.040745
v -0.043041 -0.191595 0.036745
v -0.021716 -0.208924 0.056744
v -0.032380 -0.191595 0.051410
f 289 299 300 
f 287 285 290 
f 289 286 291 
f 285 287 292 
f 289 292 293 
f 287 286 293 
f 286 289 293 
f 288 290 294 
f 291 286 294 
f 286 287 295 
f 290 288 295 
f 294 286 295 
f 288 294 295 
f 290 285 296 
f 285 291 296 
f 294 290 296 
f 291 294 296 
f 292 287 297 
f 293 292 297 
f 287 293 297 
f 287 290 298 
f 295 287 298 
f 290 295 298 
f 291 285 299 
f 289 291 299 
f 285 292 300 
f 292 289 300 
f 299 285 300 
o convex_11
v -0.059045 -0.191595 -0.003253
v -0.051047 -0.208924 -0.032585
v -0.052380 -0.206255 -0.031247
v -0.049714 -0.191595 -0.032585
v -0.056379 -0.208924 -0.004589
v -0.059045 -0.204922 -0.013920
v -0.057711 -0.191595 -0.019252
v -0.049714 -0.191595 -0.027251
v -0.049714 -0.208924 -0.027251
v -0.056379 -0.191595 -0.003253
v -0.059045 -0.208924 -0.003253
v -0.056379 -0.208924 -0.021919
v -0.052380 -0.191595 -0.031247
f 307 304 313 
f 306 301 307 
f 301 304 307 
f 304 301 308 
f 302 304 309 
f 305 302 309 
f 304 308 309 
f 308 301 310 
f 305 309 310 
f 309 308 310 
f 302 305 311 
f 301 306 311 
f 310 301 311 
f 305 310 311 
f 303 302 312 
f 306 307 312 
f 307 303 312 
f 302 311 312 
f 311 306 312 
f 302 303 313 
f 304 302 313 
f 303 307 313 
o convex_12
v -0.048379 -0.191595 -0.029921
v -0.036381 -0.208924 -0.048583
v -0.036381 -0.191595 -0.048583
v -0.049713 -0.195593 -0.035253
v -0.047046 -0.208924 -0.031254
v -0.035047 -0.191595 -0.044582
v -0.049713 -0.208924 -0.033921
v -0.035047 -0.208924 -0.044582
v -0.049713 -0.191595 -0.035253
f 320 314 322 
f 316 315 317 
f 316 314 319 
f 315 316 319 
f 314 318 319 
f 317 315 320 
f 318 314 320 
f 315 318 320 
f 318 315 321 
f 315 319 321 
f 319 318 321 
f 314 316 322 
f 316 317 322 
f 317 320 322 
o convex_13
v 0.046283 -0.208924 0.039409
v 0.051615 -0.208924 0.023414
v 0.051615 -0.191595 0.023414
v 0.039616 -0.191595 0.040742
v 0.052949 -0.191595 0.030080
v 0.039616 -0.208924 0.040742
v 0.043618 -0.191595 0.042076
v 0.052949 -0.208924 0.028746
f 325 327 330 
f 325 324 326 
f 325 326 327 
f 324 323 328 
f 326 324 328 
f 326 328 329 
f 323 327 329 
f 327 326 329 
f 328 323 329 
f 323 324 330 
f 324 325 330 
f 327 323 330 
o convex_14
v 0.018286 -0.204922 -0.057916
v 0.039616 -0.191595 -0.044585
v 0.039616 -0.208924 -0.044585
v 0.016952 -0.208924 -0.053917
v 0.015617 -0.191595 -0.055249
v 0.032949 -0.191595 -0.051251
v 0.034279 -0.191595 -0.044585
v 0.030283 -0.208924 -0.052583
v 0.034279 -0.208924 -0.044585
v 0.022284 -0.191595 -0.056583
v 0.015617 -0.208924 -0.057916
v 0.038282 -0.208924 -0.047253
v 0.015617 -0.191595 -0.057916
f 341 335 343 
f 335 332 336 
f 333 332 337 
f 335 334 337 
f 332 335 337 
f 333 334 338 
f 334 333 339 
f 333 337 339 
f 337 334 339 
f 335 336 340 
f 338 331 340 
f 336 338 340 
f 334 335 341 
f 338 334 341 
f 331 338 341 
f 332 333 342 
f 336 332 342 
f 333 338 342 
f 338 336 342 
f 340 331 343 
f 335 340 343 
f 331 341 343 
