o convex_0
v -0.040237 -0.055085 -0.025150
v 0.010763 0.070727 0.005444
v 0.010763 0.070727 0.000912
v 0.066312 -0.026760 -0.005887
v 0.008488 0.012912 -0.078407
v -0.058379 0.011771 0.046261
v 0.036838 -0.047148 0.046261
v -0.053844 0.034440 -0.036481
v 0.048170 0.035569 0.046261
v 0.057241 0.036710 -0.026271
v 0.020971 -0.057367 -0.042147
v -0.025493 -0.057354 0.040583
v -0.027768 0.053712 0.045116
v -0.028905 -0.023337 -0.069354
v -0.068574 -0.019939 -0.005887
v 0.040237 -0.015413 -0.064822
v 0.000554 0.055981 -0.050079
v -0.040237 0.059379 -0.005887
v 0.067436 0.001589 0.028119
v 0.042497 -0.057354 0.009977
v -0.042498 0.012899 -0.063676
v -0.065176 0.027644 0.015642
v -0.050432 -0.032415 0.046261
v 0.033426 0.038979 -0.056878
v -0.000555 -0.041480 -0.065943
v -0.062901 -0.009745 -0.036481
v 0.065175 0.006116 -0.031949
v 0.040237 0.059379 -0.005899
v 0.017559 0.057110 0.046261
v 0.050431 -0.040352 -0.035348
v 0.065175 0.029914 0.005444
v -0.028905 0.042377 -0.056878
v -0.042498 -0.057354 0.009977
v 0.054967 -0.023350 0.046261
v 0.044772 0.014028 -0.061410
v -0.020958 0.068457 -0.005887
v -0.066313 -0.018823 0.023574
v -0.070848 0.008373 -0.007020
v -0.020958 -0.057367 -0.042135
v -0.002830 -0.007476 -0.079565
v -0.008489 0.029914 -0.072741
v -0.051569 -0.027876 -0.046680
v 0.028905 0.060508 -0.028537
v 0.016436 -0.057367 0.046261
v 0.037962 0.057122 0.025840
v -0.015299 0.066188 0.026986
v -0.044773 0.051455 0.026974
v 0.024369 -0.035813 -0.064822
v 0.070848 0.008373 -0.007020
v -0.028905 0.057110 -0.036469
v 0.058365 -0.036942 0.023574
v -0.058379 -0.041493 -0.007020
v -0.001693 0.068457 -0.022872
v 0.062900 -0.013156 -0.035336
v -0.060640 0.037838 -0.008153
v -0.020958 0.010642 -0.076141
v -0.061777 0.016310 -0.036481
v -0.052706 -0.043762 0.025840
v 0.018696 -0.014272 -0.076153
v 0.049308 -0.050546 -0.014952
v -0.030029 -0.044891 -0.053478
v -0.048171 0.035569 0.046261
v 0.018696 0.032171 -0.069342
v 0.058365 0.015169 0.045116
f 34 19 64 
f 6 7 9 
f 7 6 23 
f 3 2 28 
f 6 9 29 
f 10 28 31 
f 21 8 32 
f 9 7 34 
f 24 10 35 
f 10 27 35 
f 2 3 36 
f 6 22 37 
f 23 6 37 
f 26 15 38 
f 37 22 38 
f 15 37 38 
f 25 11 39 
f 33 1 39 
f 25 14 40 
f 32 17 41 
f 21 14 42 
f 15 26 42 
f 26 21 42 
f 10 24 43 
f 24 17 43 
f 3 28 43 
f 28 10 43 
f 20 7 44 
f 11 20 44 
f 7 23 44 
f 23 12 44 
f 12 33 44 
f 39 11 44 
f 33 39 44 
f 28 2 45 
f 29 9 45 
f 2 29 45 
f 9 31 45 
f 31 28 45 
f 29 2 46 
f 13 29 46 
f 2 36 46 
f 36 18 46 
f 13 46 47 
f 46 18 47 
f 11 25 48 
f 30 11 48 
f 16 30 48 
f 19 4 49 
f 27 10 49 
f 31 19 49 
f 10 31 49 
f 8 18 50 
f 17 32 50 
f 32 8 50 
f 18 36 50 
f 4 19 51 
f 7 20 51 
f 34 7 51 
f 19 34 51 
f 1 33 52 
f 37 15 52 
f 42 1 52 
f 15 42 52 
f 36 3 53 
f 3 43 53 
f 43 17 53 
f 17 50 53 
f 50 36 53 
f 30 16 54 
f 4 30 54 
f 16 35 54 
f 35 27 54 
f 49 4 54 
f 27 49 54 
f 18 8 55 
f 38 22 55 
f 22 47 55 
f 47 18 55 
f 14 21 56 
f 21 32 56 
f 5 40 56 
f 40 14 56 
f 41 5 56 
f 32 41 56 
f 8 21 57 
f 21 26 57 
f 26 38 57 
f 55 8 57 
f 38 55 57 
f 12 23 58 
f 33 12 58 
f 23 37 58 
f 52 33 58 
f 37 52 58 
f 5 35 59 
f 35 16 59 
f 40 5 59 
f 25 40 59 
f 48 25 59 
f 16 48 59 
f 20 11 60 
f 11 30 60 
f 30 4 60 
f 4 51 60 
f 51 20 60 
f 14 25 61 
f 39 1 61 
f 25 39 61 
f 1 42 61 
f 42 14 61 
f 22 6 62 
f 6 29 62 
f 29 13 62 
f 13 47 62 
f 47 22 62 
f 17 24 63 
f 35 5 63 
f 24 35 63 
f 5 41 63 
f 41 17 63 
f 31 9 64 
f 19 31 64 
f 9 34 64 
