o convex_0
v -0.072821 0.211602 -0.056549
v 0.012545 0.236966 -0.055394
v 0.012545 0.236966 -0.056549
v 0.001005 0.191985 -0.055394
v -0.055515 0.191985 -0.065776
v -0.062426 0.191985 -0.055394
v -0.067038 0.204680 -0.064620
v -0.008220 0.219665 -0.061160
v -0.049741 0.224280 -0.055394
v -0.015147 0.228895 -0.060009
v 0.001005 0.191985 -0.056549
v -0.064740 0.215050 -0.060009
v -0.009381 0.210449 -0.061160
v -0.013994 0.225434 -0.061160
v -0.072821 0.206988 -0.055394
v -0.061281 0.193143 -0.065776
v -0.009381 0.191985 -0.058855
v -0.049741 0.224280 -0.056549
v -0.067038 0.217358 -0.055394
v -0.060119 0.196604 -0.065776
f 16 7 20 
f 3 2 4 
f 4 2 6 
f 5 4 6 
f 2 3 9 
f 6 2 9 
f 3 4 11 
f 4 5 11 
f 7 1 12 
f 10 7 12 
f 8 3 13 
f 5 8 13 
f 3 11 13 
f 3 8 14 
f 7 10 14 
f 10 3 14 
f 1 7 15 
f 6 9 15 
f 5 6 16 
f 6 15 16 
f 15 7 16 
f 11 5 17 
f 5 13 17 
f 13 11 17 
f 9 3 18 
f 3 10 18 
f 10 12 18 
f 18 12 19 
f 12 1 19 
f 1 15 19 
f 15 9 19 
f 9 18 19 
f 8 5 20 
f 7 14 20 
f 14 8 20 
f 5 16 20 
o convex_1
v 0.059839 0.248498 0.062269
v -0.028984 0.165461 0.050740
v -0.027825 0.165461 0.044971
v 0.040231 0.148159 0.073806
v 0.044843 0.151620 0.040354
v 0.012550 0.247352 0.072651
v 0.010240 0.233510 0.040354
v -0.024363 0.193143 0.064579
v 0.058679 0.232353 0.078423
v 0.003318 0.158540 0.072654
v 0.062149 0.236971 0.050740
v -0.020902 0.195447 0.040354
v 0.017162 0.255429 0.054201
v 0.045994 0.200064 0.040354
v 0.022925 0.151620 0.040354
v 0.045994 0.190840 0.078423
v 0.007938 0.227736 0.073802
v 0.045994 0.250801 0.071499
v -0.011678 0.159697 0.065727
v 0.016012 0.256575 0.062269
v -0.025514 0.165461 0.040354
v 0.027537 0.251958 0.049588
v -0.024363 0.195447 0.051895
v 0.048304 0.164304 0.040354
v 0.054067 0.238117 0.078423
v 0.019464 0.153923 0.074957
v -0.028984 0.178156 0.059962
v 0.062149 0.243881 0.070344
v 0.030998 0.256575 0.061114
v -0.017441 0.206974 0.063424
v -0.026674 0.183919 0.042665
v 0.014861 0.233510 0.040354
v 0.056378 0.248498 0.056508
v 0.016012 0.248508 0.046126
v -0.002445 0.160844 0.071499
v -0.013980 0.209277 0.044971
v 0.021765 0.250801 0.072651
v 0.040231 0.149316 0.040354
v 0.041382 0.152777 0.074961
v 0.062149 0.233510 0.053050
v -0.013980 0.206974 0.068037
v 0.043692 0.150473 0.054198
v -0.003605 0.157394 0.069193
v -0.000144 0.157394 0.040354
v -0.027825 0.166618 0.057656
v 0.021765 0.255429 0.068037
v 0.027537 0.256575 0.055357
v 0.055218 0.249655 0.070344
v 0.022925 0.247352 0.046126
v 0.052916 0.191997 0.042665
v 0.033300 0.156237 0.076112
v 0.016012 0.256575 0.058811
v 0.051757 0.213895 0.043816
v -0.024363 0.178156 0.063424
v 0.033300 0.149316 0.040354
v -0.017441 0.206974 0.054201
v 0.014861 0.245038 0.073802
v 0.054067 0.243881 0.076112
v 0.050606 0.232353 0.078423
v -0.028984 0.180459 0.051895
v 0.055218 0.250801 0.061118
v -0.009368 0.211591 0.040354
v 0.014861 0.254272 0.066882
v 0.033300 0.149316 0.073802
f 63 75 84 
f 27 25 32 
f 25 27 34 
f 32 25 35 
f 32 35 41 
f 25 34 44 
f 36 29 45 
f 37 30 46 
f 36 37 46 
f 31 21 48 
f 43 28 50 
f 41 23 51 
f 32 41 51 
f 43 32 51 
f 34 27 52 
f 21 31 53 
f 31 42 53 
f 33 42 54 
f 52 27 54 
f 30 37 55 
f 32 43 56 
f 33 54 56 
f 35 25 58 
f 29 36 59 
f 44 31 60 
f 31 48 60 
f 48 29 60 
f 37 26 61 
f 26 50 61 
f 50 28 61 
f 55 37 61 
f 28 55 61 
f 25 44 62 
f 24 58 62 
f 58 25 62 
f 59 24 62 
f 29 59 62 
f 44 60 62 
f 60 29 62 
f 46 30 63 
f 30 55 63 
f 55 39 63 
f 22 23 64 
f 39 22 64 
f 23 41 64 
f 41 35 64 
f 35 63 64 
f 63 39 64 
f 22 39 65 
f 47 22 65 
f 38 49 66 
f 49 40 66 
f 57 38 66 
f 42 33 67 
f 40 49 67 
f 53 42 67 
f 48 21 68 
f 49 38 68 
f 42 31 69 
f 31 52 69 
f 54 42 69 
f 52 54 69 
f 31 44 70 
f 44 34 70 
f 46 24 71 
f 36 46 71 
f 24 59 71 
f 59 36 71 
f 50 40 72 
f 33 56 72 
f 67 33 72 
f 40 67 72 
f 34 52 73 
f 52 31 73 
f 31 70 73 
f 70 34 73 
f 28 47 74 
f 55 28 74 
f 39 55 74 
f 65 39 74 
f 47 65 74 
f 58 24 75 
f 35 58 75 
f 63 35 75 
f 43 50 76 
f 56 43 76 
f 50 72 76 
f 72 56 76 
f 26 37 77 
f 57 26 77 
f 45 57 77 
f 45 29 78 
f 29 48 78 
f 38 57 78 
f 57 45 78 
f 68 38 78 
f 48 68 78 
f 37 36 79 
f 36 45 79 
f 77 37 79 
f 45 77 79 
f 23 22 80 
f 28 43 80 
f 22 47 80 
f 47 28 80 
f 51 23 80 
f 43 51 80 
f 21 53 81 
f 67 49 81 
f 53 67 81 
f 68 21 81 
f 49 68 81 
f 27 32 82 
f 54 27 82 
f 32 56 82 
f 56 54 82 
f 50 26 83 
f 40 50 83 
f 26 57 83 
f 66 40 83 
f 57 66 83 
f 24 46 84 
f 46 63 84 
f 75 24 84 
o convex_2
v -0.017446 0.128540 -0.055394
v 0.001002 0.191981 -0.055394
v 0.002156 0.190826 -0.055394
v -0.038211 0.166607 -0.068083
v -0.061285 0.191981 -0.055394
v 0.018311 0.156230 -0.060009
v -0.018601 0.129695 -0.068083
v -0.058976 0.191981 -0.065773
v 0.020620 0.153926 -0.055394
v -0.008242 0.191981 -0.058855
v -0.012828 0.141227 -0.068083
v -0.020902 0.128540 -0.056550
v -0.061285 0.189671 -0.057703
v 0.007929 0.171215 -0.060009
v -0.010527 0.133160 -0.066929
v -0.052049 0.190826 -0.065773
v -0.027828 0.165458 -0.066929
v -0.050886 0.178133 -0.066929
v 0.018311 0.158540 -0.060009
v 0.019466 0.152771 -0.057703
v -0.050886 0.173519 -0.055394
v 0.002156 0.190826 -0.056550
v 0.020620 0.157385 -0.057703
f 106 87 107 
f 87 86 85 
f 85 86 89 
f 89 86 92 
f 87 85 93 
f 92 86 94 
f 91 88 95 
f 91 85 96 
f 89 92 97 
f 91 96 97 
f 85 91 99 
f 91 95 99 
f 95 90 99 
f 88 92 100 
f 92 94 100 
f 100 94 101 
f 95 88 101 
f 94 98 101 
f 98 95 101 
f 88 100 101 
f 88 91 102 
f 92 88 102 
f 97 92 102 
f 91 97 102 
f 90 95 103 
f 95 98 103 
f 93 85 104 
f 85 99 104 
f 99 90 104 
f 85 89 105 
f 96 85 105 
f 89 97 105 
f 97 96 105 
f 86 87 106 
f 94 86 106 
f 98 94 106 
f 103 98 106 
f 103 106 107 
f 87 93 107 
f 90 103 107 
f 93 104 107 
f 104 90 107 
o convex_3
v -0.005910 0.087008 0.032279
v 0.012539 0.121616 0.033433
v 0.014850 0.116999 0.036892
v -0.016292 0.116999 0.035740
v -0.008217 0.107768 0.039201
v 0.007930 0.088164 0.033433
v -0.018602 0.116999 0.032279
v 0.019467 0.107768 0.032279
v 0.009081 0.107768 0.039201
v -0.008217 0.116999 0.039201
v -0.018602 0.107768 0.033433
v -0.012834 0.121616 0.032279
v -0.005910 0.087008 0.033433
v 0.019467 0.116999 0.032279
v 0.009081 0.116999 0.039201
v -0.012834 0.107768 0.038047
v 0.014850 0.107768 0.036892
v -0.010519 0.121616 0.034588
v 0.001002 0.089319 0.034588
v 0.006775 0.087008 0.032279
f 113 120 127 
f 108 114 115 
f 112 116 117 
f 114 108 118 
f 111 114 118 
f 114 111 119 
f 115 114 119 
f 118 108 120 
f 109 110 121 
f 110 115 121 
f 119 109 121 
f 115 119 121 
f 110 109 122 
f 116 110 122 
f 117 116 122 
f 117 111 123 
f 112 117 123 
f 111 118 123 
f 120 112 123 
f 118 120 123 
f 115 110 124 
f 113 115 124 
f 110 116 124 
f 116 113 124 
f 111 117 125 
f 119 111 125 
f 109 119 125 
f 122 109 125 
f 117 122 125 
f 116 112 126 
f 113 116 126 
f 120 113 126 
f 112 120 126 
f 115 113 127 
f 108 115 127 
f 120 108 127 
o convex_4
v 0.014846 0.233503 0.040354
v -0.025523 0.166619 0.039200
v -0.025523 0.166619 0.040354
v 0.045994 0.152775 0.038046
v 0.010235 0.216199 0.032279
v -0.012826 0.121616 0.032279
v 0.040227 0.149314 0.040354
v -0.018593 0.185051 0.032279
v 0.025231 0.152775 0.032279
v 0.044845 0.191973 0.039200
v 0.011391 0.121616 0.034587
v -0.016288 0.201205 0.039200
v -0.009371 0.126249 0.035741
v 0.040227 0.160847 0.034587
v 0.013697 0.122788 0.032279
v -0.023211 0.151625 0.032279
v 0.013697 0.231192 0.036893
v 0.047150 0.182751 0.040354
v -0.024367 0.185051 0.040354
v 0.012540 0.216199 0.032279
v -0.009371 0.148164 0.039200
v -0.012826 0.195434 0.032279
v 0.040227 0.149314 0.034587
v 0.005624 0.227732 0.039200
v 0.041383 0.200055 0.039200
v -0.023211 0.182740 0.035741
v 0.044845 0.151614 0.040354
v 0.048306 0.171229 0.039200
v -0.010520 0.209277 0.040354
v -0.012826 0.121616 0.033433
v 0.014846 0.231192 0.036893
v -0.015138 0.198895 0.035741
v 0.041383 0.200055 0.040354
f 137 152 160 
f 128 130 134 
f 132 133 135 
f 133 132 136 
f 138 134 140 
f 133 136 142 
f 138 133 142 
f 130 129 143 
f 135 133 143 
f 128 134 145 
f 130 128 146 
f 129 130 146 
f 136 132 147 
f 141 136 147 
f 137 141 147 
f 132 144 147 
f 134 130 148 
f 130 140 148 
f 140 134 148 
f 132 135 149 
f 144 132 149 
f 136 141 150 
f 142 136 150 
f 131 142 150 
f 128 144 151 
f 144 149 151 
f 137 147 152 
f 143 129 153 
f 135 143 153 
f 129 146 153 
f 146 139 153 
f 134 138 154 
f 138 142 154 
f 142 131 154 
f 145 134 154 
f 145 154 155 
f 141 137 155 
f 137 145 155 
f 150 141 155 
f 131 150 155 
f 154 131 155 
f 146 128 156 
f 139 146 156 
f 128 151 156 
f 151 139 156 
f 133 138 157 
f 140 130 157 
f 138 140 157 
f 130 143 157 
f 143 133 157 
f 144 128 158 
f 147 144 158 
f 128 152 158 
f 152 147 158 
f 149 135 159 
f 139 151 159 
f 151 149 159 
f 135 153 159 
f 153 139 159 
f 128 145 160 
f 145 137 160 
f 152 128 160 
o convex_5
v -0.054362 0.141234 -0.055393
v -0.043981 0.159685 -0.039243
v -0.045135 0.159685 -0.039243
v -0.049750 0.131998 -0.039243
v -0.058978 0.142381 -0.039243
v -0.045135 0.144690 -0.057699
v -0.056668 0.153909 -0.054240
v -0.045135 0.135459 -0.039243
v -0.043981 0.151609 -0.055393
v -0.058978 0.135459 -0.040399
v -0.057824 0.150454 -0.056547
v -0.057824 0.146988 -0.040399
v -0.054362 0.131998 -0.041555
v -0.049751 0.143538 -0.058854
v -0.047445 0.155069 -0.053084
v -0.043981 0.143535 -0.046169
f 169 162 176 
f 162 163 164 
f 164 163 165 
f 162 164 168 
f 164 166 168 
f 164 165 170 
f 167 169 171 
f 161 170 171 
f 170 165 171 
f 165 163 172 
f 163 167 172 
f 171 165 172 
f 167 171 172 
f 170 161 173 
f 164 170 173 
f 166 164 174 
f 169 166 174 
f 161 171 174 
f 171 169 174 
f 173 161 174 
f 164 173 174 
f 163 162 175 
f 167 163 175 
f 162 169 175 
f 169 167 175 
f 162 168 176 
f 168 166 176 
f 166 169 176 
o convex_6
v 0.040227 0.254269 0.027665
v 0.017162 0.198926 0.026511
v 0.018316 0.188541 0.026511
v 0.035613 0.193148 0.029972
v 0.040231 0.156224 0.026511
v 0.024083 0.250804 0.026511
v 0.024083 0.230043 0.028818
v 0.040227 0.240419 0.029972
v 0.021777 0.173539 0.027665
v 0.040227 0.172397 0.029972
v 0.040227 0.254269 0.026511
v 0.017162 0.224265 0.027665
v 0.024083 0.250804 0.027665
v 0.036769 0.159689 0.028818
v 0.029848 0.159689 0.026511
v 0.017162 0.198926 0.027665
v 0.033308 0.227730 0.029972
f 184 189 193 
f 179 178 181 
f 181 178 182 
f 181 177 184 
f 181 184 186 
f 184 180 186 
f 180 185 186 
f 177 181 187 
f 182 177 187 
f 181 182 187 
f 182 178 188 
f 177 182 189 
f 184 177 189 
f 182 188 189 
f 188 183 189 
f 181 186 190 
f 186 185 190 
f 179 181 191 
f 185 179 191 
f 181 190 191 
f 190 185 191 
f 178 179 192 
f 180 183 192 
f 179 185 192 
f 185 180 192 
f 188 178 192 
f 183 188 192 
f 183 180 193 
f 180 184 193 
f 189 183 193 
o convex_7
v -0.042831 0.138931 -0.024242
v -0.047444 0.164288 0.020739
v -0.048598 0.164288 0.020739
v -0.046290 0.186210 -0.002324
v -0.061282 0.123932 -0.017321
v -0.038213 0.126242 -0.010399
v -0.039369 0.176977 0.004589
v -0.052053 0.179287 -0.005785
v -0.057821 0.117009 -0.011553
v -0.038213 0.125084 -0.024242
v -0.058975 0.136621 -0.024242
v -0.054361 0.172363 0.009203
v -0.038213 0.150461 0.010357
v -0.038213 0.163136 -0.011553
v -0.052053 0.159675 0.019585
v -0.056667 0.121629 -0.024242
v -0.049748 0.117009 -0.011553
v -0.047444 0.156220 0.019585
v -0.061282 0.120470 -0.010399
v -0.049748 0.185052 0.004589
v -0.040523 0.168901 0.016125
v -0.046290 0.180438 -0.006938
v -0.038213 0.143544 -0.021935
v -0.041677 0.183900 -0.002324
v -0.060129 0.133159 -0.024242
v -0.043983 0.185052 0.003435
v -0.054361 0.142386 -0.023089
v -0.049748 0.117009 -0.016167
v -0.052053 0.182749 -0.000026
v -0.045136 0.160833 0.020739
v -0.038213 0.159675 0.011510
v -0.047444 0.120470 -0.009246
v -0.049748 0.156220 0.019585
v -0.038213 0.123932 -0.015014
v -0.061282 0.126242 -0.015014
v -0.057821 0.117009 -0.016167
f 209 221 229 
f 194 203 204 
f 199 203 206 
f 206 203 207 
f 196 205 208 
f 204 203 209 
f 202 210 211 
f 208 205 212 
f 196 195 213 
f 205 196 213 
f 213 195 214 
f 201 197 215 
f 215 207 216 
f 203 194 216 
f 207 203 216 
f 194 215 216 
f 200 207 217 
f 215 197 217 
f 207 215 217 
f 201 204 218 
f 209 198 218 
f 204 209 218 
f 197 213 219 
f 214 200 219 
f 213 214 219 
f 200 217 219 
f 217 197 219 
f 194 204 220 
f 204 201 220 
f 201 215 220 
f 215 194 220 
f 209 203 221 
f 210 202 221 
f 197 201 222 
f 213 197 222 
f 205 213 222 
f 201 218 222 
f 218 205 222 
f 195 196 223 
f 211 206 223 
f 206 214 223 
f 214 195 223 
f 206 207 224 
f 207 200 224 
f 200 214 224 
f 214 206 224 
f 199 206 225 
f 210 199 225 
f 206 211 225 
f 211 210 225 
f 196 208 226 
f 202 211 226 
f 208 212 226 
f 212 202 226 
f 223 196 226 
f 211 223 226 
f 203 199 227 
f 199 210 227 
f 221 203 227 
f 210 221 227 
f 198 212 228 
f 212 205 228 
f 218 198 228 
f 205 218 228 
f 198 209 229 
f 212 198 229 
f 202 212 229 
f 221 202 229 
o convex_8
v 0.070217 0.257719 -0.013867
v 0.005623 0.076626 -0.024247
v 0.011393 0.076626 -0.024247
v 0.012552 0.080113 -0.005789
v 0.022931 0.256575 -0.012714
v 0.026389 0.266960 -0.024247
v 0.055221 0.170087 -0.024247
v 0.055221 0.157397 -0.005789
v 0.005623 0.164295 -0.005789
v 0.069065 0.247353 -0.006944
v 0.073682 0.254270 -0.024247
v 0.029853 0.084724 -0.024247
v 0.005623 0.173499 -0.024247
v 0.033310 0.087029 -0.005789
v 0.021779 0.224278 -0.005789
v 0.005623 0.080113 -0.005789
v 0.036775 0.266960 -0.018478
v 0.063296 0.262330 -0.024247
v 0.049459 0.258881 -0.011558
v 0.005623 0.175823 -0.016169
v 0.055221 0.157397 -0.008096
v 0.072522 0.253107 -0.015018
v 0.051764 0.203509 -0.005789
v 0.025236 0.082418 -0.005789
v 0.057533 0.168925 -0.005789
v 0.024084 0.080094 -0.024247
v 0.026389 0.258881 -0.012714
v 0.065607 0.260024 -0.013867
v 0.039080 0.268122 -0.023092
v 0.019467 0.221954 -0.005789
v 0.019467 0.241580 -0.012714
v 0.065607 0.262330 -0.019629
v 0.052916 0.160846 -0.024247
v 0.070217 0.247353 -0.008096
v 0.032158 0.087029 -0.016169
v 0.073682 0.257719 -0.023092
v 0.057533 0.249658 -0.008096
v 0.028700 0.266960 -0.019629
v 0.019467 0.241580 -0.015018
v 0.064448 0.254270 -0.009251
v 0.032158 0.262330 -0.013867
f 246 267 270 
f 231 232 233 
f 232 231 235 
f 232 235 236 
f 233 237 238 
f 236 235 240 
f 232 236 241 
f 235 231 242 
f 231 238 242 
f 237 233 243 
f 238 237 244 
f 231 233 245 
f 238 231 245 
f 233 238 245 
f 240 235 247 
f 242 238 249 
f 236 240 250 
f 237 243 250 
f 244 237 252 
f 239 244 252 
f 233 232 253 
f 243 233 253 
f 250 240 254 
f 237 250 254 
f 240 251 254 
f 252 237 254 
f 239 252 254 
f 232 241 255 
f 241 243 255 
f 253 232 255 
f 243 253 255 
f 234 244 256 
f 246 248 257 
f 247 235 258 
f 234 238 259 
f 244 234 259 
f 238 244 259 
f 238 234 260 
f 249 238 260 
f 257 230 261 
f 246 257 261 
f 258 246 261 
f 247 258 261 
f 241 236 262 
f 236 250 262 
f 250 241 262 
f 230 239 263 
f 251 230 263 
f 239 254 263 
f 254 251 263 
f 243 241 264 
f 241 250 264 
f 250 243 264 
f 240 247 265 
f 230 251 265 
f 251 240 265 
f 261 230 265 
f 247 261 265 
f 244 239 266 
f 256 244 266 
f 235 234 267 
f 234 256 267 
f 258 235 267 
f 246 258 267 
f 234 235 268 
f 235 242 268 
f 242 249 268 
f 260 234 268 
f 249 260 268 
f 239 230 269 
f 248 256 269 
f 230 257 269 
f 257 248 269 
f 266 239 269 
f 256 266 269 
f 248 246 270 
f 256 248 270 
f 267 256 270 
o convex_9
v -0.004761 0.032785 -0.087693
v -0.031288 0.013187 -0.077313
v -0.027826 0.010874 -0.079620
v -0.003607 0.002796 -0.080775
v -0.011682 0.033939 -0.076159
v -0.024367 0.043167 -0.080773
v 0.001006 0.044326 -0.084233
v -0.013993 0.021252 -0.086539
v -0.019754 0.002796 -0.076159
v -0.003607 0.003955 -0.084233
v -0.030134 0.033939 -0.076159
v -0.013987 0.044326 -0.085386
v -0.024367 0.029325 -0.083078
v -0.020902 0.002796 -0.080775
v -0.011682 0.044326 -0.079620
v -0.010528 0.022407 -0.076159
v 0.001006 0.044326 -0.086540
v -0.003607 0.021252 -0.087693
v -0.028980 0.005105 -0.076159
v 0.001006 0.033939 -0.086540
v -0.008223 0.008565 -0.085385
v -0.027826 0.030476 -0.080775
v -0.015141 0.029325 -0.086539
f 288 278 293 
f 279 275 281 
f 278 273 283 
f 276 282 283 
f 273 278 284 
f 274 279 284 
f 280 274 284 
f 275 277 285 
f 276 281 285 
f 281 275 285 
f 277 282 285 
f 282 276 285 
f 274 277 286 
f 277 275 286 
f 279 274 286 
f 275 279 286 
f 271 282 287 
f 282 277 287 
f 271 287 288 
f 272 273 289 
f 281 272 289 
f 279 281 289 
f 273 284 289 
f 284 279 289 
f 277 274 290 
f 274 280 290 
f 287 277 290 
f 280 288 290 
f 288 287 290 
f 284 278 291 
f 280 284 291 
f 278 288 291 
f 288 280 291 
f 273 272 292 
f 272 281 292 
f 281 276 292 
f 283 273 292 
f 276 283 292 
f 282 271 293 
f 278 283 293 
f 283 282 293 
f 271 288 293 
o convex_10
v -0.018599 0.038559 -0.056549
v -0.027827 0.033943 -0.079617
v -0.030134 0.033943 -0.077309
v -0.025519 0.044326 -0.079617
v 0.001006 0.037405 -0.062317
v 0.001006 0.044326 -0.058857
v -0.011683 0.044326 -0.079617
v -0.027827 0.044326 -0.068082
v -0.024365 0.033943 -0.056549
v -0.011683 0.033943 -0.079617
v -0.010529 0.033943 -0.056549
v -0.031288 0.033943 -0.068082
v -0.022061 0.044326 -0.062317
v 0.001006 0.037405 -0.056549
v 0.001006 0.042018 -0.063471
v -0.028981 0.043170 -0.075001
v -0.008221 0.042018 -0.056549
f 307 299 310 
f 295 296 297 
f 295 297 300 
f 297 299 300 
f 299 297 301 
f 296 295 302 
f 295 300 303 
f 302 295 303 
f 302 303 304 
f 294 302 304 
f 303 298 304 
f 296 302 305 
f 302 301 305 
f 299 301 306 
f 302 294 306 
f 301 302 306 
f 298 299 307 
f 294 304 307 
f 304 298 307 
f 299 298 308 
f 300 299 308 
f 298 303 308 
f 303 300 308 
f 297 296 309 
f 301 297 309 
f 296 305 309 
f 305 301 309 
f 306 294 310 
f 299 306 310 
f 294 307 310 
o convex_11
v 0.025233 0.033943 -0.081928
v -0.003605 0.003950 -0.084232
v 0.007932 0.003950 -0.084232
v 0.013696 0.003950 -0.078466
v 0.001014 0.044326 -0.084232
v 0.009086 0.025861 -0.087694
v 0.011394 0.033943 -0.078466
v 0.027541 0.010878 -0.079621
v -0.003605 0.006258 -0.080775
v 0.027541 0.033943 -0.078466
v -0.003605 0.033943 -0.087694
v 0.013696 0.044326 -0.085385
v 0.021771 0.044326 -0.080773
v 0.018306 0.022403 -0.085385
v 0.024079 0.003950 -0.078466
v -0.003605 0.021253 -0.087694
v -0.003605 0.033943 -0.084232
v 0.019466 0.005104 -0.081928
v 0.007932 0.044326 -0.086540
v 0.011394 0.044326 -0.080773
f 317 323 330 
f 312 313 314 
f 312 314 319 
f 314 317 319 
f 317 314 320 
f 318 311 320 
f 312 319 321 
f 320 311 323 
f 317 320 323 
f 311 322 323 
f 322 315 323 
f 313 316 324 
f 311 318 324 
f 322 311 324 
f 316 322 324 
f 314 313 325 
f 320 314 325 
f 318 320 325 
f 313 312 326 
f 316 313 326 
f 312 321 326 
f 321 316 326 
f 317 315 327 
f 319 317 327 
f 315 321 327 
f 321 319 327 
f 313 324 328 
f 324 318 328 
f 325 313 328 
f 318 325 328 
f 316 321 329 
f 321 315 329 
f 322 316 329 
f 315 322 329 
f 315 317 330 
f 323 315 330 
o convex_12
v 0.029849 0.040864 -0.071542
v 0.011396 0.033943 -0.080770
v 0.011396 0.044326 -0.080770
v 0.001009 0.037405 -0.056550
v 0.024077 0.033943 -0.056550
v 0.016006 0.044326 -0.060011
v 0.026387 0.033943 -0.080770
v 0.001009 0.044326 -0.062318
v 0.027538 0.044326 -0.077308
v 0.027538 0.044326 -0.066932
v 0.031002 0.033943 -0.066932
v 0.011396 0.033943 -0.056550
v 0.001009 0.042018 -0.056550
v 0.001009 0.037405 -0.063471
v 0.024077 0.044326 -0.080770
v 0.031002 0.033943 -0.075001
f 341 337 346 
f 332 333 337 
f 335 332 337 
f 336 333 338 
f 333 336 339 
f 336 335 340 
f 331 339 340 
f 339 336 340 
f 335 337 341 
f 331 340 341 
f 340 335 341 
f 334 332 342 
f 335 334 342 
f 332 335 342 
f 334 335 343 
f 335 336 343 
f 338 334 343 
f 336 338 343 
f 333 332 344 
f 332 334 344 
f 338 333 344 
f 334 338 344 
f 337 333 345 
f 333 339 345 
f 339 337 345 
f 339 331 346 
f 337 339 346 
f 331 341 346 
o convex_13
v 0.012542 0.053552 -0.056552
v -0.007062 0.044327 -0.086540
v -0.012834 0.044327 -0.085385
v -0.010514 0.054708 -0.083074
v -0.023213 0.044327 -0.063479
v 0.027539 0.044327 -0.076147
v -0.025511 0.054708 -0.065781
v 0.022921 0.054708 -0.077305
v 0.016000 0.044327 -0.060013
v -0.008211 0.054708 -0.055397
v -0.027831 0.045481 -0.076147
v 0.025225 0.054708 -0.065781
v 0.012542 0.047785 -0.085385
v -0.005913 0.045481 -0.057708
v -0.023207 0.054708 -0.077305
v 0.027539 0.044327 -0.068089
v 0.005616 0.053553 -0.084229
v 0.017155 0.044327 -0.084229
v -0.022058 0.044327 -0.081921
v 0.019458 0.054708 -0.060016
v -0.027831 0.044327 -0.069247
v 0.006770 0.052400 -0.055397
v -0.019744 0.054708 -0.060016
v -0.016292 0.044327 -0.060013
v 0.014846 0.054708 -0.081924
v 0.021767 0.047785 -0.081921
v -0.005907 0.047786 -0.086540
v -0.020904 0.048940 -0.081921
f 350 373 374 
f 349 348 351 
f 351 348 352 
f 350 353 354 
f 351 352 355 
f 354 353 356 
f 352 354 358 
f 354 356 358 
f 353 350 361 
f 357 353 361 
f 355 352 362 
f 352 358 362 
f 352 348 364 
f 348 359 364 
f 349 351 365 
f 347 355 366 
f 356 347 366 
f 358 356 366 
f 355 362 366 
f 362 358 366 
f 351 353 367 
f 353 357 367 
f 365 351 367 
f 357 365 367 
f 355 347 368 
f 347 356 368 
f 360 355 368 
f 356 360 368 
f 353 351 369 
f 356 353 369 
f 356 369 370 
f 351 355 370 
f 355 360 370 
f 360 356 370 
f 369 351 370 
f 350 354 371 
f 363 350 371 
f 359 363 371 
f 354 352 372 
f 352 364 372 
f 364 359 372 
f 371 354 372 
f 359 371 372 
f 348 349 373 
f 359 348 373 
f 350 363 373 
f 363 359 373 
f 361 350 374 
f 357 361 374 
f 349 365 374 
f 365 357 374 
f 373 349 374 
o convex_14
v 0.026384 0.093929 -0.024247
v -0.018594 0.082394 -0.055394
v -0.020907 0.082394 -0.053086
v 0.027541 0.082394 -0.024247
v -0.030138 0.089318 -0.024247
v 0.005622 0.089318 -0.054238
v -0.013990 0.097391 -0.028863
v 0.018305 0.082394 -0.055394
v -0.026673 0.082394 -0.024247
v 0.018305 0.097391 -0.024247
v -0.019751 0.091620 -0.041546
v 0.011388 0.093929 -0.042695
v -0.009375 0.088165 -0.055394
v -0.002452 0.096237 -0.038094
v 0.022926 0.085856 -0.047317
v -0.024366 0.095083 -0.024247
v 0.029849 0.089318 -0.026555
v 0.026384 0.082394 -0.040393
v 0.016003 0.085856 -0.055394
v 0.020612 0.091620 -0.040393
v -0.008224 0.093929 -0.043851
v -0.026673 0.082394 -0.039247
v -0.027830 0.089318 -0.032323
v 0.004465 0.097391 -0.033475
v -0.022058 0.083548 -0.051930
v -0.017443 0.097391 -0.024247
f 381 390 400 
f 377 376 378 
f 378 375 379 
f 378 376 382 
f 377 378 383 
f 378 379 383 
f 379 375 384 
f 382 376 387 
f 386 380 388 
f 379 384 390 
f 381 385 390 
f 375 378 391 
f 389 375 391 
f 389 391 392 
f 378 382 392 
f 382 389 392 
f 391 378 392 
f 380 386 393 
f 382 387 393 
f 387 380 393 
f 389 382 393 
f 389 393 394 
f 384 375 394 
f 386 384 394 
f 375 389 394 
f 393 386 394 
f 385 381 395 
f 380 387 395 
f 387 385 395 
f 381 388 395 
f 388 380 395 
f 377 383 396 
f 383 379 396 
f 379 390 397 
f 390 385 397 
f 396 379 397 
f 381 384 398 
f 384 386 398 
f 388 381 398 
f 386 388 398 
f 376 377 399 
f 387 376 399 
f 385 387 399 
f 377 396 399 
f 397 385 399 
f 396 397 399 
f 384 381 400 
f 390 384 400 
o convex_15
v 0.020619 0.055865 -0.078461
v 0.010239 0.083545 -0.060008
v 0.007931 0.083545 -0.060008
v 0.019465 0.054711 -0.060008
v 0.007931 0.054711 -0.081926
v 0.011394 0.054711 -0.060008
v 0.022926 0.073163 -0.060008
v 0.013700 0.076624 -0.068083
v 0.025234 0.054711 -0.065777
v 0.007931 0.065093 -0.078461
v 0.021771 0.062787 -0.073851
v 0.025234 0.054711 -0.072694
v 0.018310 0.077775 -0.063473
v 0.012546 0.063941 -0.078461
v 0.007931 0.078930 -0.060008
f 405 406 415 
f 402 403 404 
f 404 403 406 
f 405 404 406 
f 402 404 407 
f 403 402 408 
f 404 405 409 
f 407 404 409 
f 405 403 410 
f 403 408 410 
f 405 401 412 
f 409 405 412 
f 407 409 412 
f 411 407 412 
f 401 411 412 
f 402 407 413 
f 408 402 413 
f 411 408 413 
f 407 411 413 
f 401 405 414 
f 405 410 414 
f 410 408 414 
f 408 411 414 
f 411 401 414 
f 403 405 415 
f 406 403 415 
o convex_16
v -0.013979 0.054718 -0.056547
v 0.005619 0.088162 -0.055394
v 0.005619 0.088162 -0.056547
v 0.019463 0.054714 -0.060008
v -0.020908 0.077776 -0.060008
v 0.020615 0.061636 -0.055394
v 0.021771 0.076620 -0.060008
v -0.023216 0.076623 -0.055394
v -0.019752 0.055870 -0.060008
v 0.022927 0.077776 -0.055394
v -0.009368 0.084698 -0.060008
v 0.010235 0.054714 -0.055394
v -0.013979 0.085850 -0.055394
v -0.019752 0.060484 -0.055394
v 0.012543 0.083542 -0.060008
v -0.023216 0.062789 -0.060008
v 0.022927 0.061636 -0.060008
v 0.018311 0.083542 -0.056547
f 422 430 433 
f 419 420 422 
f 421 417 423 
f 419 416 424 
f 420 419 424 
f 417 421 425 
f 422 420 426 
f 416 419 427 
f 419 421 427 
f 421 423 427 
f 417 418 428 
f 420 423 428 
f 423 417 428 
f 418 426 428 
f 426 420 428 
f 424 416 429 
f 416 427 429 
f 427 423 429 
f 426 418 430 
f 422 426 430 
f 423 420 431 
f 420 424 431 
f 424 429 431 
f 429 423 431 
f 421 419 432 
f 419 422 432 
f 425 421 432 
f 422 425 432 
f 418 417 433 
f 417 425 433 
f 425 422 433 
f 430 418 433 
o convex_17
v 0.010237 0.212750 0.032278
v 0.005623 0.183910 0.026512
v 0.005623 0.183910 0.027666
v 0.005623 0.209289 0.032278
v 0.006778 0.186219 0.032278
v 0.010237 0.203516 0.028819
f 438 435 439 
f 435 436 437 
f 434 437 438 
f 436 435 438 
f 437 436 438 
f 435 437 439 
f 437 434 439 
f 434 438 439 
o convex_18
v 0.010235 0.072012 -0.035785
v -0.023216 0.068550 -0.055394
v -0.023216 0.072012 -0.055394
v 0.022927 0.072012 -0.055394
v 0.004472 0.053554 -0.054237
v -0.012832 0.070856 -0.036942
v -0.012832 0.057016 -0.055394
v 0.017155 0.059323 -0.055394
v 0.020615 0.070856 -0.043860
v 0.006775 0.070856 -0.034631
v -0.004761 0.053554 -0.054237
v -0.019752 0.072012 -0.042706
v -0.018600 0.060480 -0.054237
v 0.014851 0.070856 -0.038094
v -0.007064 0.070856 -0.034631
v 0.013695 0.057016 -0.054237
v 0.022927 0.067392 -0.054237
f 448 447 456 
f 441 442 443 
f 442 440 443 
f 441 443 446 
f 446 443 447 
f 444 446 447 
f 443 440 448 
f 446 444 450 
f 444 449 450 
f 440 442 451 
f 442 441 451 
f 441 446 452 
f 446 450 452 
f 450 445 452 
f 451 441 452 
f 445 451 452 
f 448 440 453 
f 449 444 453 
f 440 449 453 
f 449 440 454 
f 445 450 454 
f 450 449 454 
f 440 451 454 
f 451 445 454 
f 444 447 455 
f 447 448 455 
f 453 444 455 
f 448 453 455 
f 447 443 456 
f 443 448 456 
o convex_19
v 0.009082 0.000485 -0.083080
v -0.003605 -0.028347 -0.068085
v -0.003605 -0.028347 -0.066933
v 0.017159 -0.026040 -0.066933
v 0.014850 0.002793 -0.077310
v -0.003605 0.003947 -0.080770
v -0.003605 -0.007588 -0.080770
v 0.016005 -0.020271 -0.072699
v -0.003605 -0.023732 -0.066933
v 0.017159 0.003947 -0.081924
v 0.017159 -0.019120 -0.066933
v 0.006777 -0.021424 -0.073853
v 0.013698 -0.028347 -0.068085
v -0.003605 0.003947 -0.083080
v 0.011391 -0.005280 -0.080770
v -0.003605 -0.024886 -0.071545
f 469 458 472 
f 458 459 462 
f 458 462 463 
f 459 460 465 
f 462 459 465 
f 461 462 465 
f 462 461 466 
f 460 464 466 
f 465 460 467 
f 461 465 467 
f 460 466 467 
f 466 461 467 
f 468 464 469 
f 459 458 469 
f 460 459 469 
f 464 460 469 
f 457 463 470 
f 463 462 470 
f 462 466 470 
f 466 457 470 
f 463 457 471 
f 457 466 471 
f 466 464 471 
f 468 463 471 
f 464 468 471 
f 458 463 472 
f 463 468 472 
f 468 469 472 
o convex_20
v -0.003603 0.097391 -0.032321
v 0.026384 0.122770 -0.024247
v 0.029849 0.116999 -0.024247
v -0.030138 0.107777 -0.024247
v -0.011677 0.116999 -0.038090
v -0.025523 0.122770 -0.024247
v 0.012545 0.107777 -0.038090
v 0.012539 0.097391 -0.024247
v 0.012545 0.122770 -0.033474
v -0.012834 0.107777 -0.038090
v 0.029849 0.107777 -0.026554
v -0.015141 0.097391 -0.027709
v 0.012545 0.116999 -0.038090
v 0.014846 0.097391 -0.028861
v -0.026673 0.116999 -0.030016
v -0.011677 0.122770 -0.033474
v 0.026384 0.116999 -0.030016
v -0.026673 0.107777 -0.030016
v -0.012834 0.097391 -0.024247
v 0.029849 0.107777 -0.024247
v 0.026384 0.107777 -0.030016
v -0.030138 0.116999 -0.026554
f 487 490 494 
f 475 474 476 
f 476 474 478 
f 475 476 480 
f 478 474 481 
f 479 473 482 
f 477 479 482 
f 473 480 484 
f 482 473 484 
f 479 477 485 
f 477 481 485 
f 473 479 486 
f 480 473 486 
f 477 482 487 
f 478 481 488 
f 481 477 488 
f 477 487 488 
f 487 478 488 
f 474 475 489 
f 481 474 489 
f 475 483 489 
f 479 485 489 
f 485 481 489 
f 484 476 490 
f 482 484 490 
f 487 482 490 
f 480 476 491 
f 476 484 491 
f 484 480 491 
f 475 480 492 
f 483 475 492 
f 480 486 492 
f 486 483 492 
f 486 479 493 
f 483 486 493 
f 489 483 493 
f 479 489 493 
f 476 478 494 
f 478 487 494 
f 490 476 494 
o convex_21
v -0.075115 0.206975 -0.045006
v -0.035904 0.235821 -0.040393
v -0.035904 0.235821 -0.045006
v 0.005616 0.159699 -0.024247
v 0.005616 0.159699 -0.055394
v 0.005616 0.234666 -0.055394
v -0.041673 0.159699 -0.055394
v -0.031296 0.159699 -0.024247
v -0.033603 0.226581 -0.027710
v -0.073969 0.211588 -0.055394
v 0.005616 0.228899 -0.041546
v -0.069353 0.194299 -0.036942
v -0.047435 0.160847 -0.033475
v -0.016294 0.200052 -0.024247
v -0.057813 0.224278 -0.039247
v -0.047435 0.230046 -0.051930
v -0.070507 0.203510 -0.036942
v -0.037057 0.225426 -0.027710
v 0.005616 0.233504 -0.045006
v 0.005616 0.166615 -0.024247
v -0.062437 0.220813 -0.055394
v -0.046281 0.233504 -0.041546
v -0.070507 0.216200 -0.043854
v -0.073969 0.208130 -0.055394
v -0.039365 0.233504 -0.034634
v -0.046281 0.159699 -0.039247
v -0.055513 0.220813 -0.034634
v -0.020910 0.203510 -0.024247
v -0.040519 0.230046 -0.054238
v -0.070507 0.217355 -0.050778
v -0.042827 0.233504 -0.049625
v -0.002454 0.180461 -0.024247
v -0.072815 0.200052 -0.040393
v -0.046281 0.230046 -0.034634
v -0.069353 0.212743 -0.039247
v 0.005616 0.234666 -0.047317
v -0.055513 0.172383 -0.036942
v -0.030142 0.220813 -0.026555
v -0.035904 0.233504 -0.034634
v -0.046281 0.233504 -0.045006
f 525 515 534 
f 497 496 500 
f 498 499 500 
f 500 499 501 
f 499 498 501 
f 501 498 502 
f 500 501 504 
f 498 500 505 
f 502 506 507 
f 502 498 508 
f 506 502 511 
f 511 502 512 
f 505 500 513 
f 503 505 513 
f 498 505 514 
f 508 498 514 
f 500 504 515 
f 496 497 516 
f 504 495 517 
f 509 516 517 
f 495 504 518 
f 504 501 518 
f 512 503 519 
f 496 516 519 
f 501 502 520 
f 502 507 520 
f 511 512 521 
f 502 508 522 
f 512 502 522 
f 500 515 523 
f 515 510 523 
f 515 504 524 
f 504 517 524 
f 517 516 524 
f 497 500 525 
f 510 515 525 
f 500 523 525 
f 523 510 525 
f 505 508 526 
f 514 505 526 
f 508 514 526 
f 511 495 527 
f 506 511 527 
f 495 518 527 
f 516 509 528 
f 512 519 528 
f 519 516 528 
f 521 512 528 
f 521 528 529 
f 495 511 529 
f 517 495 529 
f 509 517 529 
f 511 521 529 
f 528 509 529 
f 500 496 530 
f 513 500 530 
f 507 506 531 
f 518 501 531 
f 501 520 531 
f 520 507 531 
f 506 527 531 
f 527 518 531 
f 505 503 532 
f 508 505 532 
f 503 512 532 
f 522 508 532 
f 512 522 532 
f 503 513 533 
f 519 503 533 
f 496 519 533 
f 530 496 533 
f 513 530 533 
f 516 497 534 
f 515 524 534 
f 524 516 534 
f 497 525 534 
o convex_22
v -0.005913 0.082406 0.021897
v -0.035906 0.151597 0.018436
v -0.032442 0.107784 0.018436
v -0.022060 0.107784 0.032279
v 0.005623 0.208123 0.032279
v 0.005623 0.170057 0.018436
v 0.005623 0.087022 0.032279
v 0.005623 0.082394 0.018436
v -0.018596 0.181589 0.032279
v -0.025519 0.085877 0.020745
v -0.025519 0.156212 0.032279
v -0.030133 0.107784 0.026509
v -0.033597 0.158513 0.018436
v -0.015141 0.088166 0.031125
v 0.004469 0.208123 0.031125
v -0.023210 0.084708 0.018436
v -0.035906 0.156212 0.019591
v -0.011686 0.193133 0.031125
v -0.004763 0.085877 0.032279
v -0.026674 0.107784 0.029970
v -0.026674 0.088166 0.021897
v -0.015141 0.084708 0.026509
v -0.027824 0.156212 0.029970
v -0.032442 0.107784 0.020745
v 0.005623 0.082394 0.021897
f 553 535 559 
f 537 536 540 
f 539 538 541 
f 540 539 541 
f 540 541 542 
f 537 540 542 
f 538 539 543 
f 538 543 545 
f 540 536 547 
f 539 540 549 
f 540 547 549 
f 542 535 550 
f 537 542 550 
f 544 537 550 
f 547 536 551 
f 547 551 552 
f 543 539 552 
f 539 549 552 
f 549 547 552 
f 551 543 552 
f 541 538 553 
f 538 548 553 
f 538 545 554 
f 545 546 554 
f 548 538 554 
f 548 554 555 
f 537 544 555 
f 544 548 555 
f 554 546 555 
f 548 544 556 
f 550 535 556 
f 544 550 556 
f 535 553 556 
f 553 548 556 
f 545 543 557 
f 546 545 557 
f 543 551 557 
f 551 546 557 
f 536 537 558 
f 551 536 558 
f 546 551 558 
f 537 555 558 
f 555 546 558 
f 542 541 559 
f 535 542 559 
f 541 553 559 
o convex_23
v 0.040231 0.249649 0.001134
v 0.066764 0.243883 0.032279
v 0.063302 0.243883 0.032279
v 0.048309 0.153917 -0.001172
v 0.040231 0.158537 0.028817
v 0.071377 0.241584 0.004596
v 0.040231 0.258890 0.024200
v 0.050617 0.155072 0.026507
v 0.040231 0.156227 -0.005789
v 0.058686 0.174689 -0.005789
v 0.072531 0.251959 0.018432
v 0.042542 0.218501 -0.005789
v 0.040231 0.242739 0.029969
v 0.041388 0.260045 0.008058
v 0.058686 0.197761 0.032279
v 0.055227 0.158537 -0.004634
v 0.054076 0.208115 -0.005789
v 0.069069 0.241584 0.031124
v 0.065610 0.255425 0.023045
v 0.041388 0.221967 0.031124
v 0.065610 0.253125 0.009213
v 0.048309 0.153917 0.028817
v 0.071377 0.238118 0.006906
v 0.048309 0.171234 0.031124
v 0.055227 0.258890 0.017277
v 0.065610 0.218512 -0.001172
v 0.040231 0.218501 -0.005789
v 0.041388 0.155072 0.027662
v 0.050617 0.221967 0.032279
v 0.054076 0.156227 -0.005789
v 0.043696 0.256580 0.004596
v 0.066764 0.253125 0.026507
v 0.040231 0.254269 0.027662
v 0.040231 0.261200 0.018432
v 0.065610 0.255425 0.012671
v 0.067915 0.245039 0.004596
v 0.040231 0.167768 0.029969
v 0.056381 0.163148 -0.004634
v 0.059840 0.186219 -0.005789
v 0.072531 0.249659 0.018432
v 0.072531 0.249659 0.011520
v 0.042542 0.249649 0.001134
v 0.059840 0.251970 0.028817
v 0.070223 0.247349 0.028814
v 0.041388 0.155072 -0.005789
f 568 589 604 
f 560 564 566 
f 564 560 568 
f 569 568 571 
f 566 564 572 
f 561 562 574 
f 569 571 576 
f 561 574 577 
f 574 567 577 
f 567 574 581 
f 569 565 582 
f 564 581 583 
f 581 574 583 
f 576 565 585 
f 568 560 586 
f 560 571 586 
f 571 568 586 
f 564 568 587 
f 563 581 587 
f 581 564 587 
f 562 572 588 
f 574 562 588 
f 572 579 588 
f 579 583 588 
f 583 574 588 
f 568 569 589 
f 575 567 589 
f 581 563 589 
f 567 581 589 
f 560 573 590 
f 573 580 590 
f 578 566 591 
f 570 578 591 
f 572 562 592 
f 566 572 592 
f 560 566 593 
f 573 560 593 
f 566 578 593 
f 584 573 593 
f 578 584 593 
f 578 570 594 
f 580 573 594 
f 573 584 594 
f 584 578 594 
f 565 576 595 
f 576 571 595 
f 590 580 595 
f 572 564 596 
f 579 572 596 
f 564 583 596 
f 583 579 596 
f 567 575 597 
f 569 582 597 
f 589 569 597 
f 575 589 597 
f 565 569 598 
f 569 576 598 
f 585 565 598 
f 576 585 598 
f 577 567 599 
f 567 597 599 
f 597 582 599 
f 582 565 600 
f 594 570 600 
f 580 594 600 
f 565 595 600 
f 595 580 600 
f 570 599 600 
f 599 582 600 
f 571 560 601 
f 560 590 601 
f 595 571 601 
f 590 595 601 
f 562 561 602 
f 561 591 602 
f 591 566 602 
f 592 562 602 
f 566 592 602 
f 561 577 603 
f 591 561 603 
f 570 591 603 
f 599 570 603 
f 577 599 603 
f 587 568 604 
f 563 587 604 
f 589 563 604 
o convex_24
v -0.003605 -0.024884 -0.071546
v -0.041674 -0.005279 -0.058856
v -0.040519 -0.005279 -0.061162
v -0.003605 0.002796 -0.079618
v -0.003605 -0.034110 -0.056547
v -0.037053 0.002796 -0.056547
v -0.024365 0.000484 -0.078462
v -0.024365 -0.034110 -0.058856
v -0.023213 -0.015659 -0.072694
v -0.007071 -0.000666 -0.083080
v -0.034750 -0.023734 -0.056547
v -0.034750 0.002796 -0.071546
v -0.005916 -0.041040 -0.057703
v -0.032440 -0.008746 -0.070393
v -0.012835 -0.027193 -0.069242
v -0.034750 -0.023734 -0.058856
v -0.041674 0.002796 -0.056547
v -0.013987 -0.009896 -0.078459
v -0.003605 0.002796 -0.083080
v -0.012835 -0.039877 -0.056547
v -0.012835 -0.039877 -0.058856
v -0.003605 -0.041040 -0.058856
v -0.016297 0.002796 -0.081921
v -0.003605 -0.009896 -0.079618
v -0.018604 -0.029497 -0.065780
v -0.028978 -0.022580 -0.064622
f 613 629 630 
f 605 608 609 
f 609 608 610 
f 609 610 615 
f 607 606 616 
f 610 608 616 
f 611 613 618 
f 607 616 618 
f 616 611 618 
f 606 607 620 
f 615 606 620 
f 612 615 620 
f 607 618 620 
f 606 615 621 
f 615 610 621 
f 616 606 621 
f 610 616 621 
f 613 611 622 
f 619 613 622 
f 605 619 622 
f 608 605 623 
f 616 608 623 
f 609 615 624 
f 615 612 624 
f 617 609 624 
f 617 624 625 
f 624 612 625 
f 625 619 626 
f 605 609 626 
f 609 617 626 
f 619 605 626 
f 617 625 626 
f 611 616 627 
f 622 611 627 
f 614 622 627 
f 623 614 627 
f 616 623 627 
f 605 622 628 
f 622 614 628 
f 623 605 628 
f 614 623 628 
f 613 619 629 
f 625 612 629 
f 619 625 629 
f 618 613 630 
f 612 620 630 
f 620 618 630 
f 629 612 630 
o convex_25
v 0.013698 0.239278 -0.055392
v 0.006778 0.225439 -0.040397
v 0.013698 0.228896 -0.041552
v 0.006778 0.208139 -0.053085
v 0.005623 0.235817 -0.055392
v 0.016006 0.225439 -0.053085
v 0.016006 0.240430 -0.045013
v 0.005623 0.211599 -0.040397
v 0.005623 0.234665 -0.046167
v 0.016006 0.227744 -0.042706
v 0.005623 0.212755 -0.055392
v 0.016006 0.233512 -0.055392
v 0.014851 0.241586 -0.051931
f 637 642 643 
f 632 633 637 
f 633 632 638 
f 632 637 639 
f 638 632 639 
f 635 638 639 
f 634 636 640 
f 637 633 640 
f 636 637 640 
f 633 638 640 
f 638 634 640 
f 635 631 641 
f 636 634 641 
f 634 638 641 
f 638 635 641 
f 637 636 642 
f 641 631 642 
f 636 641 642 
f 631 635 643 
f 639 637 643 
f 635 639 643 
f 642 631 643 
o convex_26
v -0.038210 0.002796 -0.066928
v -0.011682 0.033943 -0.056549
v -0.010527 0.027019 -0.058856
v -0.030134 0.033943 -0.076156
v -0.010527 0.022404 -0.076156
v -0.039366 0.016641 -0.056549
v -0.022067 0.002796 -0.076156
v -0.037058 0.002796 -0.056549
v -0.026673 0.033943 -0.056549
v -0.011682 0.033943 -0.076156
v -0.022067 0.002796 -0.066928
v -0.032445 0.012025 -0.076156
v -0.011682 0.021251 -0.058856
v -0.041674 0.006260 -0.060010
v -0.032445 0.032788 -0.069235
v -0.035905 0.021251 -0.070388
v -0.028978 0.002796 -0.076156
v -0.033597 0.027019 -0.056549
v -0.041674 0.002796 -0.056549
v -0.022067 0.010873 -0.058856
v -0.011682 0.028175 -0.056549
f 651 656 664 
f 647 648 650 
f 645 649 651 
f 644 650 651 
f 645 647 652 
f 649 645 652 
f 645 646 653 
f 647 645 653 
f 648 647 653 
f 646 648 653 
f 650 648 654 
f 651 650 654 
f 647 650 655 
f 648 646 656 
f 654 648 656 
f 652 647 658 
f 655 644 659 
f 647 655 659 
f 657 649 659 
f 644 657 659 
f 658 647 659 
f 649 658 659 
f 650 644 660 
f 644 655 660 
f 655 650 660 
f 649 652 661 
f 652 658 661 
f 658 649 661 
f 644 651 662 
f 651 649 662 
f 649 657 662 
f 657 644 662 
f 651 654 663 
f 656 651 663 
f 654 656 663 
f 646 645 664 
f 645 651 664 
f 656 646 664 
o convex_27
v 0.036770 0.001637 -0.069235
v 0.017159 -0.037579 -0.058857
v 0.017159 -0.037579 -0.056550
v 0.017159 0.003946 -0.077308
v 0.036770 0.003946 -0.056550
v 0.040230 -0.013359 -0.056550
v 0.025236 -0.017965 -0.070387
v 0.017159 -0.017965 -0.058857
v 0.018314 -0.000672 -0.080770
v 0.035615 -0.022579 -0.058857
v 0.021774 0.003946 -0.066932
v 0.041385 0.003946 -0.060011
v 0.027546 0.003946 -0.077308
v 0.017159 -0.024888 -0.069235
v 0.032156 -0.008745 -0.070387
v 0.027546 -0.031811 -0.058857
v 0.017159 -0.024888 -0.056550
v 0.040230 -0.012205 -0.058857
v 0.034463 -0.024888 -0.056550
f 680 674 683 
f 666 667 668 
f 669 667 670 
f 668 667 672 
f 669 668 675 
f 668 672 675 
f 672 669 675 
f 668 669 676 
f 669 670 676 
f 673 668 677 
f 676 665 677 
f 668 676 677 
f 666 668 678 
f 668 673 678 
f 673 671 678 
f 671 673 679 
f 674 671 679 
f 677 665 679 
f 673 677 679 
f 667 666 680 
f 671 674 680 
f 666 678 680 
f 678 671 680 
f 667 669 681 
f 672 667 681 
f 669 672 681 
f 670 674 682 
f 665 676 682 
f 676 670 682 
f 679 665 682 
f 674 679 682 
f 670 667 683 
f 674 670 683 
f 667 680 683 
o convex_28
v 0.012548 0.072012 -0.034634
v 0.026388 0.082394 -0.026555
v 0.025232 0.082394 -0.024247
v 0.011395 0.082394 -0.055394
v -0.000144 0.078932 -0.024247
v 0.022926 0.072012 -0.055394
v -0.000144 0.072012 -0.039247
v 0.020620 0.082394 -0.055394
v 0.011395 0.072012 -0.055394
v 0.006780 0.075474 -0.024247
v 0.011395 0.082394 -0.024247
v 0.022926 0.072012 -0.046165
v 0.021770 0.078932 -0.024247
v 0.026388 0.082394 -0.040393
v -0.000144 0.072012 -0.032323
v 0.024079 0.073167 -0.054238
f 691 697 699 
f 686 685 687 
f 688 687 690 
f 689 684 690 
f 687 685 691 
f 689 687 691 
f 687 689 692 
f 690 687 692 
f 689 690 692 
f 686 688 693 
f 686 687 694 
f 687 688 694 
f 688 686 694 
f 684 689 695 
f 685 686 696 
f 693 684 696 
f 686 693 696 
f 684 695 696 
f 695 685 696 
f 691 685 697 
f 690 684 698 
f 688 690 698 
f 684 693 698 
f 693 688 698 
f 689 691 699 
f 685 695 699 
f 695 689 699 
f 697 685 699 
o convex_29
v 0.032156 0.003950 -0.073849
v 0.031000 0.033943 -0.065778
v 0.031000 0.033943 -0.075001
v 0.010238 0.022402 -0.073849
v 0.041385 0.003950 -0.056549
v 0.011393 0.033943 -0.056549
v 0.021778 0.003950 -0.066932
v 0.011393 0.033943 -0.078465
v 0.018314 0.003950 -0.078465
v 0.011393 0.022402 -0.058858
v 0.032156 0.028174 -0.056549
v 0.029845 0.031636 -0.078465
v 0.041385 0.009719 -0.058858
v 0.037921 0.003950 -0.068080
v 0.029845 0.013184 -0.078465
v 0.036769 0.003950 -0.056549
v 0.026384 0.033943 -0.056549
v 0.039077 0.017799 -0.057703
v 0.034461 0.018947 -0.073849
v 0.010238 0.022402 -0.078465
v 0.022933 0.010876 -0.058858
v 0.026384 0.003950 -0.078465
v 0.010238 0.023556 -0.061164
v 0.032156 0.032790 -0.073849
f 712 718 723 
f 701 702 705 
f 700 704 706 
f 705 702 707 
f 700 706 708 
f 708 706 709 
f 705 704 710 
f 707 702 711 
f 708 707 711 
f 704 700 713 
f 712 704 713 
f 708 711 714 
f 713 700 714 
f 704 705 715 
f 706 704 715 
f 705 709 715 
f 701 705 716 
f 710 701 716 
f 705 710 716 
f 701 710 717 
f 710 704 717 
f 704 712 717 
f 712 713 718 
f 714 711 718 
f 713 714 718 
f 708 703 719 
f 707 708 719 
f 709 706 720 
f 706 715 720 
f 715 709 720 
f 700 708 721 
f 714 700 721 
f 708 714 721 
f 705 707 722 
f 703 708 722 
f 709 705 722 
f 708 709 722 
f 719 703 722 
f 707 719 722 
f 702 701 723 
f 711 702 723 
f 701 717 723 
f 717 712 723 
f 718 711 723 
o convex_30
v 0.066756 0.253119 -0.034633
v 0.013699 0.206996 -0.027712
v 0.016012 0.206984 -0.045009
v 0.026388 0.266967 -0.025402
v 0.063298 0.206990 -0.024249
v 0.060984 0.206990 -0.043854
v 0.027544 0.258882 -0.040394
v 0.073685 0.256578 -0.024249
v 0.034467 0.208145 -0.049622
v 0.013699 0.206996 -0.024247
v 0.071372 0.238121 -0.036936
v 0.040239 0.266961 -0.031172
v 0.017163 0.210449 -0.049625
v 0.039088 0.268122 -0.024249
v 0.049458 0.217373 -0.046159
v 0.065600 0.208145 -0.041546
v 0.066756 0.261192 -0.027712
v 0.072528 0.249654 -0.034633
v 0.042547 0.262347 -0.035785
v 0.073685 0.249654 -0.030017
v 0.026388 0.266967 -0.024247
v 0.031009 0.257733 -0.040394
v 0.022929 0.226595 -0.047317
v 0.029852 0.266961 -0.032325
v 0.026388 0.258882 -0.039241
v 0.054067 0.211610 -0.046159
v 0.017163 0.206984 -0.049625
v 0.013699 0.208151 -0.027712
v 0.042547 0.217373 -0.047314
v 0.069064 0.248505 -0.035785
f 749 738 753 
f 725 726 733 
f 726 728 733 
f 728 729 739 
f 729 734 739 
f 737 731 740 
f 735 737 740 
f 724 740 741 
f 740 731 741 
f 740 724 742 
f 735 740 742 
f 731 728 743 
f 728 739 743 
f 739 734 743 
f 741 731 743 
f 734 741 743 
f 728 731 744 
f 733 728 744 
f 737 727 744 
f 731 737 744 
f 742 724 745 
f 730 742 745 
f 736 730 746 
f 732 736 746 
f 730 745 746 
f 727 737 747 
f 737 735 747 
f 742 730 747 
f 735 742 747 
f 730 736 748 
f 727 747 748 
f 747 730 748 
f 729 732 749 
f 734 729 749 
f 728 726 750 
f 729 728 750 
f 732 729 750 
f 726 736 750 
f 736 732 750 
f 726 725 751 
f 725 733 751 
f 736 726 751 
f 744 727 751 
f 733 744 751 
f 727 748 751 
f 748 736 751 
f 745 738 752 
f 732 746 752 
f 746 745 752 
f 749 732 752 
f 738 749 752 
f 724 741 753 
f 741 734 753 
f 738 745 753 
f 745 724 753 
f 734 749 753 
o convex_31
v 0.016007 0.228901 -0.054240
v 0.027541 0.257740 -0.039243
v 0.027541 0.257740 -0.040397
v 0.027541 0.226593 -0.046168
v 0.020621 0.226593 -0.039243
v 0.026387 0.246203 -0.053084
v 0.016007 0.242742 -0.047318
v 0.016007 0.241590 -0.054240
v 0.027541 0.226593 -0.039243
v 0.016007 0.236977 -0.042705
v 0.016007 0.226593 -0.051931
v 0.026387 0.257740 -0.039243
v 0.027541 0.247355 -0.051931
v 0.016007 0.228901 -0.042705
v 0.022926 0.234669 -0.053084
f 759 757 768 
f 756 755 757 
f 759 754 761 
f 756 759 761 
f 754 760 761 
f 757 755 762 
f 758 757 762 
f 755 758 762 
f 760 754 763 
f 754 757 764 
f 757 758 764 
f 763 754 764 
f 755 756 765 
f 758 755 765 
f 756 761 765 
f 761 760 765 
f 763 758 765 
f 760 763 765 
f 756 757 766 
f 759 756 766 
f 757 759 766 
f 758 763 767 
f 764 758 767 
f 763 764 767 
f 757 754 768 
f 754 759 768 
o convex_32
v -0.022062 0.055865 -0.077309
v -0.010527 0.082391 -0.060008
v -0.010527 0.082391 -0.061162
v -0.010527 0.054711 -0.077309
v -0.019753 0.054711 -0.060008
v -0.023214 0.072010 -0.060008
v -0.011681 0.054711 -0.060008
v -0.013988 0.065092 -0.077309
v -0.025523 0.054711 -0.065777
v -0.018601 0.075471 -0.065777
v -0.010527 0.054711 -0.081926
v -0.024370 0.059326 -0.072694
v -0.010527 0.073162 -0.071540
v -0.020907 0.076622 -0.061162
f 778 780 782 
f 771 770 772 
f 773 770 774 
f 772 770 775 
f 773 772 775 
f 770 773 775 
f 772 773 777 
f 773 774 777 
f 776 769 778 
f 771 772 779 
f 769 776 779 
f 777 769 779 
f 772 777 779 
f 769 777 780 
f 777 774 780 
f 778 769 780 
f 778 771 781 
f 776 778 781 
f 771 779 781 
f 779 776 781 
f 770 771 782 
f 774 770 782 
f 771 778 782 
f 780 774 782 
o convex_33
v -0.007065 0.055865 -0.083080
v 0.004469 0.084701 -0.060012
v -0.004758 0.084701 -0.060012
v -0.010527 0.054714 -0.078462
v 0.007931 0.054714 -0.079616
v 0.004469 0.065094 -0.079616
v 0.007931 0.078930 -0.060012
v -0.010527 0.076622 -0.069239
v -0.010527 0.078930 -0.060012
v 0.007931 0.074315 -0.071545
v -0.010527 0.065094 -0.078462
v 0.006776 0.054714 -0.083080
v -0.004758 0.076622 -0.070393
v 0.007931 0.081237 -0.064626
f 792 795 796 
f 784 785 789 
f 786 787 789 
f 789 785 791 
f 786 789 791 
f 785 790 791 
f 790 786 791 
f 789 787 792 
f 783 786 793 
f 788 783 793 
f 786 790 793 
f 786 783 794 
f 787 786 794 
f 783 788 794 
f 792 787 794 
f 788 792 794 
f 790 785 795 
f 792 788 795 
f 788 793 795 
f 793 790 795 
f 785 784 796 
f 784 789 796 
f 789 792 796 
f 795 785 796 
o convex_34
v 0.029849 0.153906 0.028819
v 0.005623 0.084701 0.026512
v 0.010238 0.084701 0.026512
v 0.005623 0.087010 0.032278
v 0.005623 0.171216 0.031125
v 0.005623 0.159681 0.026512
v 0.028694 0.107778 0.026512
v 0.021772 0.107778 0.032278
v 0.029849 0.172374 0.026512
v 0.024077 0.156223 0.032278
v 0.005623 0.171216 0.032278
v 0.020617 0.088168 0.027666
v 0.028694 0.107778 0.028819
v 0.014853 0.088168 0.031125
v 0.029849 0.172374 0.027666
v 0.022927 0.172374 0.026512
f 811 805 812 
f 798 799 800 
f 798 800 801 
f 798 801 802 
f 799 798 802 
f 799 802 803 
f 803 802 805 
f 797 803 805 
f 800 804 806 
f 801 800 807 
f 800 806 807 
f 799 803 808 
f 803 797 809 
f 797 806 809 
f 806 804 809 
f 808 803 809 
f 800 799 810 
f 804 800 810 
f 799 808 810 
f 809 804 810 
f 808 809 810 
f 797 805 811 
f 806 797 811 
f 807 806 811 
f 807 811 812 
f 802 801 812 
f 805 802 812 
f 801 807 812 
o convex_35
v -0.024365 0.127390 -0.039243
v 0.018312 0.159685 -0.053084
v 0.018312 0.157374 -0.047318
v -0.043981 0.159685 -0.039243
v -0.020900 0.128541 -0.055394
v -0.040509 0.159685 -0.055394
v 0.017155 0.152758 -0.039243
v 0.019463 0.152758 -0.055394
v 0.013696 0.159685 -0.039243
v -0.012825 0.132003 -0.039243
v -0.043981 0.157374 -0.042705
v -0.013976 0.130849 -0.055394
v 0.018312 0.159685 -0.055394
v -0.040509 0.157374 -0.055394
v 0.013696 0.149299 -0.039243
v -0.025523 0.128541 -0.040397
v -0.019749 0.127390 -0.046168
f 824 822 829 
f 816 814 818 
f 816 813 819 
f 814 815 820 
f 817 818 820 
f 815 819 820 
f 815 814 821 
f 814 816 821 
f 819 815 821 
f 816 819 821 
f 819 813 822 
f 813 816 823 
f 816 818 823 
f 817 820 824 
f 818 814 825 
f 814 820 825 
f 820 818 825 
f 818 817 826 
f 823 818 826 
f 820 819 827 
f 819 822 827 
f 824 820 827 
f 822 824 827 
f 817 813 828 
f 813 823 828 
f 826 817 828 
f 823 826 828 
f 813 817 829 
f 822 813 829 
f 817 824 829 
o convex_36
v -0.024368 0.074320 -0.050778
v -0.000144 0.078932 -0.024247
v -0.000144 0.075474 -0.024247
v -0.025521 0.082394 -0.024247
v -0.010531 0.082394 -0.055394
v -0.000144 0.072012 -0.039247
v -0.018597 0.072012 -0.039247
v -0.011681 0.072012 -0.055394
v -0.022062 0.082394 -0.053086
v -0.011681 0.082394 -0.024247
v -0.023215 0.072012 -0.055394
v -0.022062 0.078932 -0.024247
v -0.005913 0.072012 -0.032323
v -0.026677 0.082394 -0.038094
v -0.023215 0.072012 -0.047317
v -0.023215 0.077778 -0.055394
f 843 838 845 
f 832 831 833 
f 834 831 835 
f 831 832 835 
f 834 835 837 
f 835 836 837 
f 833 834 838 
f 833 831 839 
f 834 833 839 
f 831 834 839 
f 837 836 840 
f 834 837 840 
f 832 833 841 
f 835 832 842 
f 836 835 842 
f 832 841 842 
f 841 836 842 
f 833 838 843 
f 830 840 844 
f 840 836 844 
f 841 833 844 
f 836 841 844 
f 843 830 844 
f 833 843 844 
f 838 834 845 
f 840 830 845 
f 834 840 845 
f 830 843 845 
o convex_37
v -0.053202 0.129693 -0.038089
v 0.032156 0.159685 -0.024247
v 0.032156 0.150449 -0.024247
v -0.060131 0.127384 -0.024247
v -0.045126 0.159685 -0.039243
v 0.013691 0.122770 -0.033474
v 0.017151 0.155067 -0.039243
v -0.032443 0.159685 -0.024247
v 0.026384 0.122770 -0.024247
v -0.020898 0.127384 -0.039243
v -0.055515 0.122770 -0.026554
v -0.057819 0.145834 -0.039243
v -0.058975 0.136616 -0.024247
v 0.013691 0.159685 -0.039243
v -0.046283 0.159685 -0.033474
v -0.057819 0.133155 -0.039243
v 0.025227 0.127384 -0.027710
v 0.031000 0.152761 -0.027710
v -0.056662 0.122770 -0.024247
v -0.011693 0.122770 -0.033474
v 0.017151 0.152761 -0.039243
v 0.027540 0.159685 -0.031170
v -0.024367 0.126231 -0.038089
v -0.060131 0.135460 -0.032319
f 857 861 869 
f 848 847 849 
f 849 847 853 
f 847 850 853 
f 848 849 854 
f 850 852 855 
f 851 854 856 
f 850 855 857 
f 849 853 858 
f 850 847 859 
f 852 850 859 
f 853 850 860 
f 850 857 860 
f 858 853 860 
f 857 858 860 
f 855 846 861 
f 846 856 861 
f 857 855 861 
f 854 851 862 
f 854 862 863 
f 847 848 863 
f 848 854 863 
f 854 849 864 
f 856 854 864 
f 861 856 864 
f 849 861 864 
f 851 856 865 
f 851 855 866 
f 855 852 866 
f 862 851 866 
f 863 862 866 
f 863 866 867 
f 859 847 867 
f 852 859 867 
f 847 863 867 
f 866 852 867 
f 846 855 868 
f 855 851 868 
f 856 846 868 
f 851 865 868 
f 865 856 868 
f 849 858 869 
f 858 857 869 
f 861 849 869 
o convex_38
v 0.021777 0.167763 -0.055394
v 0.060995 0.206982 -0.034634
v 0.064457 0.206977 -0.033479
v 0.005623 0.159685 -0.024247
v 0.013703 0.206982 -0.028863
v 0.052916 0.160847 -0.024247
v 0.017164 0.206982 -0.050778
v 0.055219 0.161999 -0.049625
v 0.005623 0.159685 -0.055394
v 0.063299 0.206977 -0.024250
v 0.051764 0.206982 -0.047317
v 0.012551 0.203514 -0.024247
v 0.005623 0.176990 -0.055394
v 0.064457 0.202366 -0.042701
v 0.049455 0.159685 -0.049625
v 0.005623 0.172379 -0.024247
v 0.049455 0.163152 -0.051930
v 0.024087 0.191981 -0.053086
v 0.056377 0.163152 -0.043854
v 0.051764 0.159685 -0.024247
v 0.013703 0.206982 -0.024247
v 0.064457 0.205824 -0.042701
v 0.017164 0.159685 -0.055394
v 0.014855 0.179301 -0.055394
v 0.016013 0.206982 -0.047317
v 0.035610 0.206982 -0.049625
v 0.063299 0.205824 -0.024250
v 0.054067 0.161999 -0.027710
f 896 875 897 
f 874 871 876 
f 872 871 879 
f 871 872 880 
f 876 871 880 
f 873 875 881 
f 878 873 882 
f 870 878 882 
f 881 874 882 
f 873 878 884 
f 873 881 885 
f 882 873 885 
f 881 882 885 
f 877 884 886 
f 886 870 887 
f 880 886 887 
f 877 883 888 
f 875 873 889 
f 873 884 889 
f 884 877 889 
f 888 875 889 
f 877 888 889 
f 871 874 890 
f 879 871 890 
f 875 879 890 
f 881 875 890 
f 874 881 890 
f 880 872 891 
f 872 883 891 
f 883 877 891 
f 886 880 891 
f 877 886 891 
f 878 870 892 
f 884 878 892 
f 870 886 892 
f 886 884 892 
f 870 882 893 
f 882 876 893 
f 876 887 893 
f 887 870 893 
f 874 876 894 
f 876 882 894 
f 882 874 894 
f 876 880 895 
f 887 876 895 
f 880 887 895 
f 872 879 896 
f 879 875 896 
f 883 872 896 
f 888 883 896 
f 888 896 897 
f 875 888 897 
o convex_39
v -0.003609 0.180432 -0.024247
v -0.038209 0.125087 -0.023093
v -0.031284 0.087023 -0.020785
v -0.035901 0.160825 -0.016172
v 0.005619 0.078952 -0.016172
v 0.005619 0.076649 -0.024247
v 0.005619 0.164290 -0.016172
v -0.016295 0.195446 -0.024247
v -0.031284 0.085872 -0.016172
v -0.025518 0.081255 -0.024247
v 0.005619 0.165441 -0.024247
v -0.033592 0.159673 -0.024247
v -0.038209 0.126238 -0.016172
v 0.005619 0.171210 -0.017326
v -0.012837 0.078952 -0.016172
v -0.015145 0.195446 -0.023093
v -0.038209 0.137751 -0.024247
v -0.037055 0.159673 -0.018480
v -0.030135 0.085872 -0.024247
v -0.010529 0.076649 -0.023093
v -0.024364 0.081255 -0.017326
v -0.038209 0.151591 -0.016172
f 901 915 919 
f 901 902 904 
f 902 903 904 
f 898 903 905 
f 899 900 906 
f 902 901 906 
f 905 903 907 
f 903 898 908 
f 904 903 908 
f 905 907 909 
f 899 906 910 
f 906 901 910 
f 901 904 911 
f 908 898 911 
f 904 908 911 
f 902 906 912 
f 905 901 913 
f 898 905 913 
f 901 911 913 
f 911 898 913 
f 909 907 914 
f 899 910 914 
f 901 905 915 
f 905 909 915 
f 909 914 915 
f 900 899 916 
f 906 900 916 
f 907 906 916 
f 899 914 916 
f 914 907 916 
f 903 902 917 
f 907 903 917 
f 902 912 917 
f 917 912 918 
f 906 907 918 
f 912 906 918 
f 907 917 918 
f 910 901 919 
f 914 910 919 
f 915 914 919 
o convex_40
v 0.004469 0.078951 -0.009247
v -0.038209 0.107776 -0.011554
v -0.038209 0.107776 0.011512
v 0.005619 0.168905 0.016126
v -0.037059 0.160837 -0.016172
v 0.005619 0.164290 -0.016172
v 0.005619 0.082403 0.018436
v -0.037059 0.156214 0.018436
v -0.027829 0.083557 -0.016172
v -0.026675 0.085864 0.018436
v 0.005619 0.078951 -0.016172
v 0.004469 0.168905 0.018436
v -0.038209 0.160837 0.010360
v -0.033596 0.087018 0.002281
v -0.016295 0.081250 0.006898
v -0.032442 0.088172 -0.016172
v -0.018599 0.080096 -0.015016
v -0.038209 0.159684 -0.016172
v -0.033596 0.107776 0.018436
v -0.005915 0.164299 -0.016172
v -0.005915 0.081250 0.016126
v -0.031287 0.085864 0.009205
v -0.038209 0.126218 -0.016172
v -0.007069 0.078933 -0.010402
v -0.031287 0.159684 0.018436
v -0.031287 0.089325 0.014971
v -0.019753 0.083557 0.018436
v -0.038209 0.108938 0.012667
v 0.005619 0.081250 0.016126
v -0.038209 0.158521 0.014971
f 932 947 949 
f 925 923 926 
f 924 925 928 
f 926 927 929 
f 925 926 930 
f 928 925 930 
f 923 924 931 
f 926 923 931 
f 927 926 931 
f 921 922 932 
f 931 924 932 
f 922 921 933 
f 924 928 935 
f 933 921 935 
f 928 933 935 
f 928 930 936 
f 921 932 937 
f 932 924 937 
f 924 935 937 
f 929 927 938 
f 924 923 939 
f 923 925 939 
f 925 924 939 
f 933 928 941 
f 928 936 941 
f 936 934 941 
f 935 921 942 
f 921 937 942 
f 937 935 942 
f 930 920 943 
f 936 930 943 
f 934 936 943 
f 920 940 943 
f 940 934 943 
f 927 931 944 
f 931 932 944 
f 922 933 945 
f 929 938 945 
f 941 929 945 
f 933 941 945 
f 926 929 946 
f 940 926 946 
f 934 940 946 
f 929 941 946 
f 941 934 946 
f 932 922 947 
f 938 927 947 
f 922 945 947 
f 945 938 947 
f 920 930 948 
f 930 926 948 
f 940 920 948 
f 926 940 948 
f 927 944 949 
f 944 932 949 
f 947 927 949 
o convex_41
v 0.040230 0.149329 0.002286
v 0.005623 0.080087 -0.005789
v 0.011392 0.080087 -0.005789
v 0.005623 0.083566 0.026511
v 0.026385 0.261177 0.008059
v 0.040230 0.255414 0.026511
v 0.005623 0.175824 0.024203
v 0.029847 0.107795 0.026511
v 0.040230 0.219660 -0.005789
v 0.005623 0.164298 -0.005789
v 0.033309 0.087027 -0.005789
v 0.021775 0.251953 0.026511
v 0.040230 0.156252 0.026511
v 0.020623 0.227724 -0.005789
v 0.031003 0.087027 0.013820
v 0.040230 0.255414 0.003440
v 0.039075 0.107795 0.009210
v 0.037920 0.107795 -0.005789
v 0.025234 0.253112 -0.000019
v 0.019468 0.085868 0.026511
v 0.036768 0.262354 0.018430
v 0.005623 0.159695 0.026511
v 0.024078 0.083566 0.012663
v 0.040230 0.151613 -0.005789
v 0.027540 0.261177 0.020741
v 0.006779 0.182746 0.021895
v 0.021775 0.251953 0.024203
v 0.040230 0.261194 0.009210
v 0.028692 0.254254 -0.000019
v 0.036768 0.107795 0.014974
v 0.011392 0.081264 0.013820
v 0.026385 0.087027 0.021895
v 0.024078 0.082406 -0.002327
v 0.033309 0.087027 0.003440
v 0.040230 0.250811 0.001135
v 0.026385 0.228884 -0.005789
v 0.025234 0.257733 0.006902
v 0.026385 0.262336 0.012663
v 0.019468 0.083566 0.020741
v 0.040230 0.258875 0.024203
v 0.031003 0.257715 0.025357
v 0.014854 0.219660 0.026511
f 961 975 991 
f 951 953 956 
f 955 953 957 
f 952 951 958 
f 955 950 958 
f 951 956 959 
f 958 951 959 
f 952 958 960 
f 953 955 961 
f 950 955 962 
f 955 957 962 
f 958 959 963 
f 955 958 965 
f 950 962 966 
f 960 958 967 
f 966 960 967 
f 963 959 968 
f 957 953 969 
f 956 953 971 
f 953 961 971 
f 958 950 973 
f 950 966 973 
f 967 958 973 
f 966 967 973 
f 959 956 975 
f 975 961 976 
f 959 975 976 
f 955 965 977 
f 968 954 978 
f 963 968 978 
f 954 977 978 
f 977 965 978 
f 962 957 979 
f 966 962 979 
f 964 966 979 
f 951 952 980 
f 953 951 980 
f 957 969 981 
f 979 957 981 
f 964 979 981 
f 952 960 982 
f 980 952 982 
f 972 980 982 
f 960 966 983 
f 966 964 983 
f 964 972 983 
f 982 960 983 
f 972 982 983 
f 965 958 984 
f 958 978 984 
f 978 965 984 
f 958 963 985 
f 978 958 985 
f 963 978 985 
f 954 968 986 
f 968 959 986 
f 959 976 986 
f 986 976 987 
f 961 974 987 
f 974 970 987 
f 976 961 987 
f 977 954 987 
f 970 977 987 
f 954 986 987 
f 969 953 988 
f 972 964 988 
f 953 980 988 
f 980 972 988 
f 981 969 988 
f 964 981 988 
f 970 974 989 
f 955 977 989 
f 977 970 989 
f 961 955 990 
f 974 961 990 
f 955 989 990 
f 989 974 990 
f 956 971 991 
f 971 961 991 
f 975 956 991 
o convex_42
v 0.017159 -0.037577 -0.056548
v -0.003605 -0.041040 -0.058856
v -0.003605 -0.041040 -0.057703
v 0.016005 -0.019122 -0.058856
v 0.017159 -0.028354 -0.066928
v -0.003605 -0.026045 -0.066928
v -0.003605 -0.034114 -0.056548
v 0.017159 -0.019122 -0.066928
v -0.003605 -0.030656 -0.066928
v 0.012543 -0.039883 -0.058856
v 0.017159 -0.026045 -0.056548
f 999 995 1002 
f 993 994 997 
f 995 997 998 
f 994 992 998 
f 997 994 998 
f 992 996 999 
f 996 997 999 
f 997 995 999 
f 993 997 1000 
f 997 996 1000 
f 992 994 1001 
f 994 993 1001 
f 996 992 1001 
f 993 1000 1001 
f 1000 996 1001 
f 995 998 1002 
f 998 992 1002 
f 992 999 1002 
