o convex_0
v 0.010763 -0.023337 0.075209
v 0.010763 0.070727 -0.001843
v 0.010763 0.070727 -0.005243
v -0.070848 -0.000680 0.009476
v 0.035702 -0.048276 -0.046060
v 0.069711 0.007232 0.016274
v -0.048170 -0.035826 -0.046060
v 0.006228 0.059379 -0.046072
v -0.005090 0.042377 0.065011
v -0.031166 -0.057354 0.033271
v -0.053843 0.045775 -0.016599
v 0.040237 -0.056226 0.021928
v 0.053844 0.026516 -0.046060
v -0.045909 0.007232 0.061612
v 0.048171 0.041236 0.037804
v -0.043635 0.051455 0.027593
v -0.057241 0.017438 -0.046060
v -0.016436 -0.057367 -0.046072
v 0.042498 -0.005206 0.065011
v 0.066313 -0.023350 -0.017719
v 0.049308 0.051442 -0.010921
v -0.056104 -0.042621 0.016274
v -0.041374 -0.030158 0.057067
v 0.011901 -0.049430 0.057079
v 0.054967 -0.033544 0.035525
v 0.011901 0.019708 0.076342
v -0.028905 0.061649 -0.026784
v -0.003966 0.067316 0.026473
v -0.018696 0.002730 0.077475
v -0.066312 -0.018823 -0.023385
v -0.043635 -0.056213 -0.013187
v 0.041375 -0.057354 -0.015453
v 0.026631 0.054840 0.042336
v -0.065175 0.026503 0.016274
v 0.068574 0.019708 -0.008654
v 0.059503 -0.004078 -0.046060
v -0.061777 -0.013143 0.037804
v -0.035701 0.036710 0.057067
v -0.014161 -0.035813 0.068410
v -0.035701 0.048045 -0.046060
v -0.068573 0.017438 -0.014320
v 0.043635 0.026503 0.057079
v -0.030028 0.065047 0.004955
v 0.032304 -0.036954 0.059333
v 0.036839 0.053699 -0.035862
v 0.062901 -0.033544 0.009476
v 0.031166 0.062777 0.017395
v 0.062901 -0.005206 0.037791
v -0.009625 -0.057367 0.046869
v 0.061777 0.028773 0.025339
v -0.060639 0.019708 0.036671
v -0.016436 0.055981 0.046869
v 0.017560 0.044647 0.060479
v 0.056105 -0.038095 -0.027918
v -0.062900 -0.033556 -0.010921
v -0.011900 0.069586 -0.015453
v -0.020957 0.025375 0.071810
v 0.030029 0.063906 -0.016586
v 0.054967 0.045775 0.008342
v -0.025493 -0.017682 0.072943
v 0.070848 -0.004078 -0.010921
v 0.025493 -0.057367 0.038937
v -0.067436 -0.023350 0.007209
v 0.016436 -0.057367 -0.046072
f 62 18 64 
f 7 17 18 
f 17 8 18 
f 22 10 23 
f 1 19 26 
f 1 26 29 
f 17 7 30 
f 7 18 31 
f 18 10 31 
f 10 22 31 
f 16 11 34 
f 13 21 35 
f 8 13 36 
f 13 35 36 
f 23 14 37 
f 22 23 37 
f 23 10 39 
f 24 1 39 
f 8 17 40 
f 17 11 40 
f 27 8 40 
f 11 27 40 
f 11 17 41 
f 30 4 41 
f 17 30 41 
f 4 34 41 
f 34 11 41 
f 26 19 42 
f 15 33 42 
f 11 16 43 
f 27 11 43 
f 19 1 44 
f 1 24 44 
f 25 19 44 
f 12 25 44 
f 13 8 45 
f 21 13 45 
f 25 12 46 
f 12 32 46 
f 2 28 47 
f 33 15 47 
f 28 33 47 
f 19 25 48 
f 42 19 48 
f 46 6 48 
f 25 46 48 
f 10 18 49 
f 39 10 49 
f 24 39 49 
f 6 35 50 
f 15 42 50 
f 48 6 50 
f 42 48 50 
f 34 4 51 
f 16 34 51 
f 4 37 51 
f 37 14 51 
f 38 16 51 
f 14 38 51 
f 38 9 52 
f 16 38 52 
f 43 16 52 
f 28 43 52 
f 9 26 53 
f 33 28 53 
f 26 42 53 
f 42 33 53 
f 52 9 53 
f 28 52 53 
f 32 5 54 
f 5 36 54 
f 36 20 54 
f 20 46 54 
f 46 32 54 
f 30 7 55 
f 31 22 55 
f 7 31 55 
f 2 3 56 
f 3 8 56 
f 8 27 56 
f 28 2 56 
f 27 43 56 
f 43 28 56 
f 26 9 57 
f 14 29 57 
f 29 26 57 
f 9 38 57 
f 38 14 57 
f 3 2 58 
f 8 3 58 
f 45 8 58 
f 21 45 58 
f 2 47 58 
f 47 21 58 
f 35 21 59 
f 21 47 59 
f 47 15 59 
f 15 50 59 
f 50 35 59 
f 14 23 60 
f 29 14 60 
f 1 29 60 
f 23 39 60 
f 39 1 60 
f 35 6 61 
f 20 36 61 
f 36 35 61 
f 6 46 61 
f 46 20 61 
f 32 12 62 
f 12 44 62 
f 44 24 62 
f 49 18 62 
f 24 49 62 
f 4 30 63 
f 37 4 63 
f 22 37 63 
f 55 22 63 
f 30 55 63 
f 18 8 64 
f 5 32 64 
f 8 36 64 
f 36 5 64 
f 32 62 64 
