o convex_0
v 0.006909 -0.060109 -0.165509
v -0.060106 -0.005175 -0.182005
v -0.060106 0.005797 -0.182005
v -0.021646 0.044262 -0.068860
v 0.043165 0.043149 -0.181994
v 0.053047 0.000321 -0.116101
v -0.023850 -0.041423 -0.119398
v 0.051945 -0.031534 -0.181994
v -0.041422 0.044262 -0.182005
v 0.037667 0.044262 -0.076549
v 0.026684 -0.039227 -0.118303
v -0.044715 0.044252 -0.086429
v -0.032642 -0.051302 -0.182005
v -0.051315 -0.017251 -0.124874
v 0.059646 0.011294 -0.182005
v 0.004705 -0.029337 -0.105115
v 0.047561 0.044252 -0.098521
v 0.042063 -0.040330 -0.141347
v 0.024480 -0.055706 -0.182005
v -0.008471 -0.054613 -0.133658
v -0.044715 -0.039227 -0.149036
v 0.016790 0.043149 -0.067765
v -0.054609 0.025576 -0.120493
v -0.032642 -0.020551 -0.107306
v 0.058544 -0.007382 -0.142454
v 0.020084 -0.054613 -0.142442
v 0.035475 -0.019448 -0.108401
v -0.053507 0.028876 -0.180899
v -0.059005 -0.009558 -0.150131
v -0.051315 -0.032637 -0.182005
v -0.020545 -0.055706 -0.149036
v -0.039229 0.043149 -0.077645
v -0.006267 -0.060109 -0.182005
v 0.050854 -0.024944 -0.133658
v -0.048021 0.044252 -0.108401
v 0.055250 0.023370 -0.122684
v -0.009561 -0.037030 -0.110602
v 0.055250 0.025576 -0.180888
v -0.052405 0.002497 -0.113899
v -0.009561 0.043149 -0.066659
v 0.040961 0.044262 -0.182005
v -0.034834 -0.040330 -0.127064
v 0.006909 -0.049116 -0.122695
v 0.059646 -0.011765 -0.180899
v 0.038769 -0.046909 -0.166616
v 0.018994 -0.029337 -0.107306
v -0.044715 -0.016158 -0.113899
v 0.044255 -0.018354 -0.114995
v 0.054148 -0.027141 -0.158927
v -0.053507 -0.028234 -0.157820
v -0.015059 -0.027141 -0.105115
v 0.025582 0.043149 -0.069956
v 0.045357 0.043149 -0.087535
v -0.059005 0.004704 -0.141347
v -0.002973 -0.059006 -0.149036
v 0.059646 0.002508 -0.147941
v -0.027144 -0.051302 -0.141347
v 0.035475 -0.040330 -0.128160
v -0.055711 0.004704 -0.121588
v -0.057903 0.017883 -0.161117
v -0.035936 -0.049116 -0.163319
v -0.057903 -0.018354 -0.180899
v -0.028246 0.043149 -0.071062
v 0.056340 0.005797 -0.123790
f 25 56 64 
f 2 3 9 
f 9 4 10 
f 4 9 12 
f 2 9 13 
f 13 9 15 
f 15 8 19 
f 13 15 19 
f 10 4 22 
f 1 19 26 
f 9 3 28 
f 2 13 30 
f 4 12 32 
f 19 1 33 
f 13 19 33 
f 31 13 33 
f 25 6 34 
f 12 9 35 
f 23 12 35 
f 9 28 35 
f 15 5 38 
f 5 17 38 
f 17 36 38 
f 36 15 38 
f 32 12 39 
f 22 4 40 
f 16 22 40 
f 9 10 41 
f 5 15 41 
f 15 9 41 
f 17 5 41 
f 10 17 41 
f 14 21 42 
f 7 24 42 
f 7 20 43 
f 26 11 43 
f 20 26 43 
f 16 37 43 
f 37 7 43 
f 8 15 44 
f 19 8 45 
f 18 26 45 
f 26 19 45 
f 22 16 46 
f 11 27 46 
f 43 11 46 
f 16 43 46 
f 24 32 47 
f 39 14 47 
f 32 39 47 
f 14 42 47 
f 42 24 47 
f 6 10 48 
f 10 27 48 
f 27 11 48 
f 34 6 48 
f 34 18 49 
f 25 34 49 
f 8 44 49 
f 44 25 49 
f 45 8 49 
f 18 45 49 
f 21 14 50 
f 14 29 50 
f 30 21 50 
f 24 7 51 
f 37 16 51 
f 7 37 51 
f 40 4 51 
f 16 40 51 
f 10 22 52 
f 27 10 52 
f 22 46 52 
f 46 27 52 
f 10 6 53 
f 17 10 53 
f 36 17 53 
f 3 2 54 
f 2 29 54 
f 1 26 55 
f 26 20 55 
f 20 31 55 
f 33 1 55 
f 31 33 55 
f 15 36 56 
f 44 15 56 
f 25 44 56 
f 20 7 57 
f 31 20 57 
f 7 42 57 
f 42 21 57 
f 11 26 58 
f 26 18 58 
f 18 34 58 
f 48 11 58 
f 34 48 58 
f 12 23 59 
f 29 14 59 
f 39 12 59 
f 14 39 59 
f 23 54 59 
f 54 29 59 
f 28 3 60 
f 23 35 60 
f 35 28 60 
f 3 54 60 
f 54 23 60 
f 30 13 61 
f 21 30 61 
f 13 31 61 
f 57 21 61 
f 31 57 61 
f 29 2 62 
f 2 30 62 
f 50 29 62 
f 30 50 62 
f 4 32 63 
f 32 24 63 
f 51 4 63 
f 24 51 63 
f 6 25 64 
f 53 6 64 
f 36 53 64 
f 56 36 64 
o convex_1
v 0.015685 0.060741 -0.145754
v -0.040326 0.044262 -0.182002
v -0.041429 0.044262 -0.152346
v 0.042068 0.044262 -0.145754
v 0.033273 0.050856 -0.182002
v -0.010666 0.059642 -0.182002
v -0.024944 0.057444 -0.145754
v 0.039869 0.044262 -0.182002
v -0.041429 0.044262 -0.145754
v 0.011304 0.059642 -0.180902
v -0.010666 0.061841 -0.145754
v -0.031532 0.051955 -0.182002
v 0.034377 0.051955 -0.145754
v -0.035929 0.050856 -0.146853
v 0.025582 0.055245 -0.182002
v -0.022746 0.056345 -0.182002
v 0.009105 0.061841 -0.149050
v 0.042068 0.045362 -0.147953
v 0.022289 0.058544 -0.146853
v -0.039231 0.046460 -0.182002
v 0.036567 0.048657 -0.182002
v -0.019452 0.059642 -0.146853
v -0.001871 0.061841 -0.152346
v 0.020090 0.057444 -0.180902
v -0.041429 0.045362 -0.152346
v 0.028876 0.055245 -0.147953
f 79 83 90 
f 67 66 68 
f 69 66 70 
f 68 65 71 
f 68 66 72 
f 66 69 72 
f 67 68 73 
f 68 71 73 
f 71 65 75 
f 70 66 76 
f 65 68 77 
f 73 71 78 
f 71 76 78 
f 69 70 79 
f 70 74 79 
f 70 76 80 
f 76 71 80 
f 65 74 81 
f 75 65 81 
f 68 72 82 
f 77 68 82 
f 65 77 83 
f 76 66 84 
f 78 76 84 
f 72 69 85 
f 69 77 85 
f 82 72 85 
f 77 82 85 
f 75 70 86 
f 71 75 86 
f 70 80 86 
f 80 71 86 
f 74 70 87 
f 70 75 87 
f 81 74 87 
f 75 81 87 
f 74 65 88 
f 79 74 88 
f 65 83 88 
f 83 79 88 
f 66 67 89 
f 67 73 89 
f 73 78 89 
f 84 66 89 
f 78 84 89 
f 77 69 90 
f 69 79 90 
f 83 77 90 
o convex_2
v -0.029342 0.072821 0.026714
v 0.058547 0.047560 0.005851
v 0.058547 0.045365 0.005851
v -0.041426 0.044262 -0.145750
v 0.020086 0.084911 -0.042496
v -0.048014 0.045365 0.034395
v 0.042064 0.044267 -0.145750
v -0.038131 0.078315 -0.033714
v -0.001870 0.062940 -0.145750
v 0.025580 0.061846 0.043196
v 0.037664 0.079417 -0.009531
v -0.001870 0.088205 0.004751
v 0.005802 0.045365 0.058598
v -0.057909 0.049761 0.001450
v -0.020553 0.082711 -0.053437
v 0.040969 0.072821 -0.049077
v 0.027780 0.056352 -0.145730
v -0.026048 0.057450 -0.144630
v -0.011764 0.064046 0.046497
v 0.047558 0.048663 0.034395
v 0.021191 0.076119 0.027814
v -0.033731 0.081613 -0.006251
v -0.046920 0.044262 -0.117166
v -0.007364 0.087107 -0.040315
v -0.046920 0.065136 0.013532
v 0.044264 0.064038 0.021233
v -0.026048 0.047560 0.053098
v 0.020086 0.044262 -0.066639
v 0.014591 0.088205 -0.004030
v -0.008470 0.081608 0.023413
v 0.054147 0.057450 -0.008431
v -0.042520 0.073923 -0.032614
v 0.032169 0.045365 0.049777
v -0.057909 0.045365 0.010232
v -0.020553 0.087107 -0.006251
v 0.046453 0.045365 -0.120466
v 0.014591 0.080515 -0.068839
v 0.029980 0.080515 -0.049057
v -0.034837 0.073923 -0.065519
v 0.004708 0.068429 0.043216
v 0.016791 0.060744 -0.145750
v -0.038131 0.061842 0.033315
v -0.041426 0.046463 -0.144630
v 0.027780 0.081613 0.009151
v -0.053509 0.058548 -0.009551
v 0.000319 0.089307 -0.023813
v -0.038131 0.044262 -0.075420
v -0.001870 0.082711 -0.064439
v -0.011764 0.061846 -0.145750
v 0.008002 0.081608 0.023413
v 0.048653 0.066238 0.001450
v -0.024942 0.082711 0.009151
v -0.023848 0.086009 -0.024933
v 0.024486 0.086009 -0.021613
v -0.045814 0.070629 -0.004050
v 0.009108 0.056348 0.053098
v -0.013953 0.045365 0.057498
v 0.039864 0.077217 -0.030414
v 0.037664 0.073923 -0.057838
v 0.044264 0.044267 -0.084221
v 0.040969 0.046467 -0.145750
v 0.037664 0.067331 0.026714
v -0.046920 0.045365 -0.117166
v -0.026048 0.079417 -0.061138
f 143 105 154 
f 97 94 99 
f 93 92 110 
f 110 92 116 
f 94 97 118 
f 113 94 118 
f 91 109 120 
f 93 110 123 
f 110 100 123 
f 103 118 123 
f 104 113 124 
f 96 115 124 
f 115 104 124 
f 92 93 126 
f 93 97 126 
f 121 92 126 
f 106 121 126 
f 127 95 128 
f 122 98 129 
f 100 111 130 
f 120 109 130 
f 97 99 131 
f 99 127 131 
f 128 107 131 
f 127 128 131 
f 109 91 132 
f 91 115 132 
f 115 96 132 
f 96 117 132 
f 117 109 132 
f 108 94 133 
f 129 108 133 
f 122 129 133 
f 116 101 134 
f 95 114 136 
f 102 119 136 
f 125 102 136 
f 113 118 137 
f 96 124 137 
f 124 113 137 
f 114 95 138 
f 105 114 138 
f 127 99 138 
f 95 127 138 
f 99 94 139 
f 94 108 139 
f 138 99 139 
f 105 138 139 
f 119 102 140 
f 102 120 140 
f 130 111 140 
f 120 130 140 
f 111 134 140 
f 134 119 140 
f 116 92 141 
f 101 116 141 
f 92 121 141 
f 115 91 142 
f 112 115 142 
f 91 120 142 
f 120 102 142 
f 125 112 142 
f 102 125 142 
f 98 112 143 
f 114 105 143 
f 112 125 143 
f 136 114 143 
f 125 136 143 
f 128 95 144 
f 134 101 144 
f 119 134 144 
f 95 136 144 
f 136 119 144 
f 112 98 145 
f 104 115 145 
f 115 112 145 
f 98 122 145 
f 135 104 145 
f 122 135 145 
f 123 100 146 
f 103 123 146 
f 100 130 146 
f 130 109 146 
f 117 96 147 
f 109 117 147 
f 118 103 147 
f 96 137 147 
f 137 118 147 
f 103 146 147 
f 146 109 147 
f 121 106 148 
f 101 141 148 
f 141 121 148 
f 128 144 148 
f 144 101 148 
f 107 128 149 
f 148 106 149 
f 128 148 149 
f 97 93 150 
f 118 97 150 
f 93 123 150 
f 123 118 150 
f 126 97 151 
f 106 126 151 
f 97 131 151 
f 131 107 151 
f 149 106 151 
f 107 149 151 
f 100 110 152 
f 111 100 152 
f 110 116 152 
f 134 111 152 
f 116 134 152 
f 94 113 153 
f 113 104 153 
f 133 94 153 
f 122 133 153 
f 104 135 153 
f 135 122 153 
f 129 98 154 
f 108 129 154 
f 139 108 154 
f 105 139 154 
f 98 143 154 
