o convex_0
v 0.046001 0.253115 -0.065853
v -0.028984 0.165461 -0.055479
v -0.023213 0.163158 -0.058933
v 0.046001 0.152777 -0.038176
v 0.040229 0.150463 -0.075086
v 0.012549 0.233510 -0.038172
v 0.012549 0.246195 -0.072778
v 0.062147 0.236971 -0.050863
v -0.009368 0.149306 -0.038176
v 0.058685 0.233500 -0.078548
v -0.019752 0.196604 -0.039330
v 0.004476 0.157383 -0.072778
v -0.024363 0.193133 -0.064703
v 0.017161 0.255429 -0.054329
v -0.025514 0.166618 -0.038176
v 0.007937 0.227736 -0.073928
v 0.042540 0.188537 -0.038176
v 0.047151 0.191997 -0.078548
v 0.040229 0.148149 -0.073928
v -0.024363 0.195447 -0.052021
v 0.014860 0.254272 -0.067007
v 0.028686 0.251958 -0.049713
v 0.056375 0.247352 -0.072774
v 0.040229 0.149306 -0.038176
v 0.062147 0.246195 -0.060083
v -0.005907 0.158540 -0.069315
v -0.027825 0.182762 -0.046250
v 0.052914 0.236971 -0.078548
v 0.020613 0.153934 -0.075082
v 0.050604 0.210424 -0.042788
v 0.062147 0.233500 -0.053171
v 0.027535 0.251958 -0.071624
v 0.016010 0.248508 -0.046254
v 0.027535 0.256586 -0.055479
v 0.042540 0.157383 -0.075086
v -0.002446 0.160844 -0.071624
v -0.027825 0.176999 -0.061241
v -0.016290 0.208131 -0.065853
v 0.016010 0.256586 -0.058933
v 0.052914 0.250812 -0.057787
v 0.014860 0.233510 -0.038172
v -0.013980 0.209288 -0.045096
v 0.025234 0.256586 -0.065853
v 0.062147 0.246195 -0.069312
v -0.010528 0.208131 -0.038176
v -0.017441 0.203514 -0.067007
v 0.028686 0.150463 -0.073928
v 0.055224 0.246195 -0.053171
v -0.028984 0.180459 -0.058933
v 0.047151 0.163158 -0.038176
v -0.024363 0.183919 -0.038176
v -0.017441 0.206974 -0.054325
v -0.009368 0.149306 -0.039330
v -0.027825 0.165461 -0.045096
v 0.054065 0.241577 -0.077390
v 0.016010 0.245038 -0.073928
v 0.042540 0.149306 -0.061237
v -0.003597 0.157383 -0.069315
v 0.056375 0.221972 -0.078548
v 0.033307 0.158540 -0.076236
v 0.057526 0.210424 -0.046250
v 0.046001 0.250812 -0.071624
v 0.055224 0.250812 -0.067011
v -0.017441 0.206974 -0.063549
f 52 39 64 
f 9 6 15 
f 6 9 24 
f 9 19 24 
f 11 20 27 
f 10 18 28 
f 18 16 28 
f 12 16 29 
f 16 18 29 
f 5 19 29 
f 25 8 31 
f 7 21 32 
f 22 14 33 
f 14 22 34 
f 5 18 35 
f 19 5 35 
f 16 12 36 
f 12 26 36 
f 36 26 37 
f 3 2 37 
f 26 3 37 
f 13 36 37 
f 21 7 38 
f 14 34 39 
f 1 34 40 
f 34 22 40 
f 24 4 41 
f 6 24 41 
f 30 8 41 
f 17 30 41 
f 33 6 41 
f 22 33 41 
f 20 11 42 
f 33 14 42 
f 14 39 42 
f 32 21 43 
f 34 1 43 
f 21 39 43 
f 39 34 43 
f 10 23 44 
f 31 10 44 
f 25 31 44 
f 6 33 45 
f 42 11 45 
f 33 42 45 
f 7 16 46 
f 16 36 46 
f 36 13 46 
f 38 7 46 
f 13 38 46 
f 12 29 47 
f 29 19 47 
f 8 25 48 
f 40 22 48 
f 25 40 48 
f 41 8 48 
f 22 41 48 
f 20 13 49 
f 2 27 49 
f 27 20 49 
f 37 2 49 
f 13 37 49 
f 30 17 50 
f 41 4 50 
f 17 41 50 
f 15 6 51 
f 27 15 51 
f 11 27 51 
f 6 45 51 
f 45 11 51 
f 20 42 52 
f 42 39 52 
f 2 3 53 
f 9 2 53 
f 19 9 53 
f 47 19 53 
f 2 9 54 
f 9 15 54 
f 27 2 54 
f 15 27 54 
f 23 10 55 
f 10 28 55 
f 32 55 56 
f 16 7 56 
f 28 16 56 
f 7 32 56 
f 55 28 56 
f 4 24 57 
f 24 19 57 
f 31 4 57 
f 19 35 57 
f 3 26 58 
f 26 12 58 
f 12 47 58 
f 53 3 58 
f 47 53 58 
f 18 10 59 
f 10 31 59 
f 35 18 59 
f 31 57 59 
f 57 35 59 
f 18 5 60 
f 5 29 60 
f 29 18 60 
f 8 30 61 
f 4 31 61 
f 31 8 61 
f 50 4 61 
f 30 50 61 
f 43 1 62 
f 32 43 62 
f 23 55 62 
f 55 32 62 
f 40 25 63 
f 1 40 63 
f 44 23 63 
f 25 44 63 
f 62 1 63 
f 23 62 63 
f 13 20 64 
f 38 13 64 
f 21 38 64 
f 39 21 64 
f 20 52 64 
o convex_1
v 0.024076 0.074319 0.051808
v -0.004757 0.073165 0.029890
v -0.009367 0.073165 0.031046
v 0.006774 0.059322 0.051808
v -0.023212 0.074319 0.051808
v -0.012829 0.060478 0.050651
v 0.013694 0.074319 0.032198
v -0.019749 0.074319 0.037965
v 0.019461 0.066245 0.049499
v 0.004469 0.060478 0.048343
v 0.013694 0.073165 0.032198
v -0.020902 0.067396 0.051808
v 0.012541 0.060478 0.050651
v 0.019461 0.073165 0.037965
v -0.019749 0.073165 0.037965
v 0.005621 0.073165 0.029890
v -0.004757 0.060478 0.048343
f 74 68 81 
f 68 65 69 
f 69 65 71 
f 69 71 72 
f 66 67 72 
f 71 66 72 
f 68 69 76 
f 70 68 76 
f 65 68 77 
f 73 65 77 
f 68 74 77 
f 74 75 77 
f 77 75 78 
f 71 65 78 
f 65 73 78 
f 75 71 78 
f 73 77 78 
f 67 70 79 
f 69 72 79 
f 72 67 79 
f 76 69 79 
f 70 76 79 
f 66 71 80 
f 74 66 80 
f 71 75 80 
f 75 74 80 
f 67 66 81 
f 70 67 81 
f 68 70 81 
f 66 74 81 
o convex_2
v 0.009074 0.045481 0.086415
v -0.008212 0.051244 0.056422
v -0.018594 0.037404 0.056425
v 0.029849 0.037404 0.067966
v -0.024366 0.037404 0.081794
v -0.026673 0.052401 0.072564
v 0.026384 0.052401 0.073721
v 0.018305 0.038558 0.056425
v 0.019462 0.037404 0.084099
v -0.010514 0.052401 0.084102
v 0.020607 0.052401 0.061040
v -0.030138 0.037404 0.067963
v -0.020896 0.052401 0.061040
v -0.011671 0.037404 0.086410
v 0.014840 0.052401 0.082945
v 0.028686 0.040866 0.077179
v 0.007923 0.052401 0.056422
v -0.019745 0.047786 0.082942
v -0.028981 0.039712 0.077182
v 0.021763 0.047786 0.081800
v 0.026384 0.052401 0.066812
v -0.007050 0.047786 0.086415
v 0.024071 0.037404 0.061037
v 0.012539 0.037404 0.086410
v -0.023197 0.052401 0.078336
v -0.025511 0.052401 0.065656
v -0.025523 0.038558 0.062191
v 0.005610 0.051244 0.085259
f 91 103 109 
f 84 85 86 
f 84 83 89 
f 86 85 90 
f 88 87 91 
f 87 88 92 
f 84 86 93 
f 83 84 94 
f 87 92 94 
f 86 90 95 
f 88 91 96 
f 85 88 97 
f 90 85 97 
f 89 83 98 
f 92 89 98 
f 83 94 98 
f 94 92 98 
f 86 95 99 
f 93 86 100 
f 87 93 100 
f 86 99 100 
f 82 90 101 
f 96 82 101 
f 88 96 101 
f 97 88 101 
f 90 97 101 
f 88 85 102 
f 92 88 102 
f 95 82 103 
f 91 99 103 
f 99 95 103 
f 85 84 104 
f 84 89 104 
f 89 92 104 
f 102 85 104 
f 92 102 104 
f 90 82 105 
f 82 95 105 
f 95 90 105 
f 91 87 106 
f 99 91 106 
f 87 100 106 
f 100 99 106 
f 93 87 107 
f 87 94 107 
f 107 94 108 
f 84 93 108 
f 94 84 108 
f 93 107 108 
f 82 96 109 
f 96 91 109 
f 103 82 109 
o convex_3
v 0.029840 0.117002 0.026420
v -0.012830 0.107776 -0.038172
v -0.012830 0.117002 -0.038172
v -0.030133 0.107776 0.026420
v 0.032155 0.100852 -0.004717
v 0.029840 0.117002 -0.026635
v -0.038213 0.117002 0.011418
v -0.031283 0.100852 -0.009330
v 0.003315 0.100852 0.032189
v -0.012830 0.117002 0.037965
v 0.009080 0.100852 -0.031249
v -0.038213 0.117002 -0.012788
v 0.039078 0.107776 0.009123
v 0.012537 0.107776 0.037965
v 0.014845 0.107776 -0.037017
v 0.039078 0.117002 -0.009330
v -0.031283 0.100852 0.009115
v 0.036762 0.107776 -0.015091
v -0.038213 0.107776 -0.012788
v 0.028690 0.100852 0.014884
v -0.012830 0.107776 0.037965
v -0.026675 0.107776 -0.030093
v -0.013988 0.100852 -0.028938
v 0.026382 0.107776 0.029879
v 0.012537 0.117002 -0.038172
v -0.013988 0.100852 0.028723
v 0.012537 0.117002 0.037965
v -0.038213 0.107776 0.011418
v 0.026382 0.107776 -0.030086
v -0.026675 0.117002 0.029879
v 0.039078 0.117002 0.009123
v -0.030133 0.117002 -0.026635
v 0.028690 0.100852 -0.015091
v 0.014845 0.100852 0.028723
v 0.039078 0.107776 -0.009330
v 0.036762 0.107776 0.014884
v -0.003600 0.100852 -0.032404
v 0.012537 0.107776 -0.038172
v 0.014845 0.100852 -0.028938
v -0.030133 0.107776 -0.026635
v -0.032440 0.100852 0.003347
v -0.026675 0.107776 0.029879
f 130 139 151 
f 112 110 115 
f 110 112 116 
f 117 114 118 
f 110 116 119 
f 114 117 120 
f 116 112 121 
f 115 110 125 
f 117 118 126 
f 115 125 127 
f 116 121 128 
f 118 114 129 
f 114 122 129 
f 118 123 130 
f 123 119 130 
f 112 111 131 
f 120 117 132 
f 131 111 132 
f 111 112 134 
f 112 115 134 
f 113 126 135 
f 126 118 135 
f 118 130 135 
f 110 119 136 
f 119 123 136 
f 133 110 136 
f 123 133 136 
f 113 116 137 
f 126 113 137 
f 116 128 137 
f 115 127 138 
f 134 115 138 
f 124 134 138 
f 116 113 139 
f 119 116 139 
f 130 119 139 
f 125 110 140 
f 122 125 140 
f 121 112 141 
f 128 121 141 
f 112 131 141 
f 114 120 142 
f 138 127 142 
f 123 118 143 
f 118 129 143 
f 133 123 143 
f 129 133 143 
f 122 114 144 
f 125 122 144 
f 127 125 144 
f 114 142 144 
f 142 127 144 
f 129 122 145 
f 110 133 145 
f 133 129 145 
f 140 110 145 
f 122 140 145 
f 132 111 146 
f 120 132 146 
f 111 134 147 
f 134 124 147 
f 146 111 147 
f 120 146 147 
f 124 138 148 
f 142 120 148 
f 138 142 148 
f 120 147 148 
f 147 124 148 
f 117 128 149 
f 132 117 149 
f 131 132 149 
f 128 141 149 
f 141 131 149 
f 117 126 150 
f 128 117 150 
f 126 137 150 
f 137 128 150 
f 113 135 151 
f 135 130 151 
f 139 113 151 
o convex_4
v 0.006778 0.223135 0.040272
v 0.007931 0.234664 0.057576
v 0.005623 0.234664 0.057576
v 0.006778 0.208139 0.054112
v 0.016006 0.238125 0.043736
v 0.016006 0.225437 0.052960
v 0.005623 0.211600 0.040272
v 0.005623 0.234664 0.046043
v 0.016006 0.241589 0.051805
v 0.016006 0.227742 0.042581
v 0.016006 0.232356 0.055267
v 0.005623 0.218522 0.056421
v 0.014851 0.241589 0.047194
v 0.005623 0.231203 0.042581
v 0.006778 0.211600 0.040272
f 161 155 166 
f 158 154 159 
f 154 153 160 
f 157 156 160 
f 152 156 161 
f 156 157 161 
f 157 155 161 
f 155 157 162 
f 160 153 162 
f 157 160 162 
f 153 154 163 
f 154 158 163 
f 158 155 163 
f 162 153 163 
f 155 162 163 
f 159 154 164 
f 154 160 164 
f 160 156 164 
f 156 152 165 
f 152 158 165 
f 158 159 165 
f 164 156 165 
f 159 164 165 
f 158 152 166 
f 155 158 166 
f 152 161 166 
o convex_5
v -0.022059 0.089316 -0.026634
v 0.001009 0.095084 -0.024325
v -0.022059 0.095084 -0.008179
v 0.001009 0.089316 -0.024325
v -0.009377 0.095084 -0.032403
v 0.001009 0.089316 -0.034711
v -0.023216 0.089316 -0.013950
v -0.023216 0.095084 -0.024325
v 0.001009 0.095084 -0.032403
v -0.012830 0.089316 -0.032403
f 174 171 176 
f 168 169 170 
f 169 168 171 
f 168 170 172 
f 170 167 172 
f 170 169 173 
f 167 170 173 
f 169 171 174 
f 167 173 174 
f 173 169 174 
f 171 168 175 
f 168 172 175 
f 172 171 175 
f 171 172 176 
f 172 167 176 
f 167 174 176 
o convex_6
v -0.015142 0.074315 0.069113
v -0.010529 0.052405 0.056427
v -0.005912 0.052405 0.056427
v -0.005912 0.052405 0.082952
v -0.025523 0.052405 0.074878
v -0.023216 0.074315 0.051811
v -0.005912 0.074315 0.066808
v -0.005912 0.062786 0.051811
v -0.025523 0.052405 0.065653
v -0.008222 0.063934 0.079491
v -0.011683 0.074315 0.051811
v -0.017446 0.062786 0.051811
v -0.022062 0.062786 0.073720
v -0.016294 0.053559 0.081799
v -0.023216 0.074315 0.059884
v -0.005912 0.074315 0.071421
v -0.023216 0.069701 0.051811
v -0.019751 0.052405 0.059884
v -0.008224 0.058173 0.051811
v -0.013990 0.065088 0.077183
f 186 192 196 
f 178 179 180 
f 178 180 181 
f 180 179 183 
f 182 177 183 
f 183 179 184 
f 178 181 185 
f 181 182 185 
f 182 183 187 
f 184 182 187 
f 183 184 187 
f 182 184 188 
f 181 180 190 
f 180 186 190 
f 189 181 190 
f 182 181 191 
f 177 182 191 
f 181 189 191 
f 189 177 191 
f 180 183 192 
f 183 177 192 
f 186 180 192 
f 185 182 193 
f 182 188 193 
f 193 188 194 
f 178 185 194 
f 188 178 194 
f 185 193 194 
f 179 178 195 
f 184 179 195 
f 178 188 195 
f 188 184 195 
f 177 189 196 
f 190 186 196 
f 189 190 196 
f 192 177 196 
o convex_7
v 0.009085 0.085855 -0.031250
v 0.019465 0.100852 -0.023176
v 0.022925 0.095081 -0.023176
v 0.003317 0.085855 -0.023176
v 0.001009 0.100852 -0.032402
v 0.001009 0.100852 -0.024331
v 0.021773 0.088164 -0.026638
v 0.001009 0.085855 -0.032402
v 0.012545 0.090472 -0.032402
v 0.014851 0.100852 -0.028943
v 0.021773 0.085855 -0.023176
f 197 203 207 
f 199 198 200 
f 198 201 202 
f 200 198 202 
f 197 200 204 
f 202 201 204 
f 200 202 204 
f 203 197 205 
f 197 204 205 
f 204 201 205 
f 198 199 206 
f 201 198 206 
f 199 203 206 
f 205 201 206 
f 203 205 206 
f 199 200 207 
f 200 197 207 
f 203 199 207 
o convex_8
v -0.048594 0.156220 -0.019715
v -0.048594 0.140083 0.024117
v -0.054359 0.140083 0.024117
v -0.046291 0.186204 0.002199
v -0.035906 0.132007 -0.005869
v -0.061282 0.120470 0.010276
v -0.035906 0.126242 0.024117
v -0.035906 0.159675 -0.015099
v -0.035906 0.159675 0.018353
v -0.054359 0.172363 -0.009330
v -0.060127 0.133159 0.024117
v -0.049747 0.117002 0.016041
v -0.050899 0.181590 0.005661
v -0.041676 0.180438 -0.005869
v -0.052054 0.161985 -0.019715
v -0.056667 0.121629 0.024117
v -0.037063 0.135469 -0.010484
v -0.035906 0.156220 -0.018561
v -0.050899 0.183900 -0.004711
v -0.045136 0.163136 -0.020864
v -0.041676 0.183900 0.002199
v -0.049747 0.117002 0.011430
v -0.052054 0.182749 -0.000100
v -0.038216 0.123932 0.014891
v -0.057820 0.117002 0.011430
v -0.040523 0.168901 -0.016249
v -0.035906 0.136621 0.024117
v -0.039371 0.176977 -0.004711
v -0.061282 0.126242 0.017199
v -0.043984 0.185052 -0.003561
v -0.049747 0.168901 -0.017402
v -0.058975 0.118167 0.017199
v -0.035906 0.153909 -0.018561
v -0.060127 0.126242 0.024117
f 213 239 241 
f 209 210 214 
f 214 212 215 
f 214 215 216 
f 210 209 216 
f 214 210 218 
f 210 216 220 
f 216 211 220 
f 218 210 220 
f 208 213 222 
f 213 217 222 
f 214 218 223 
f 219 214 223 
f 213 208 224 
f 215 212 225 
f 208 222 227 
f 211 216 228 
f 224 212 229 
f 217 218 230 
f 220 211 230 
f 218 220 230 
f 211 226 230 
f 226 217 230 
f 212 214 231 
f 214 219 231 
f 229 212 231 
f 219 229 231 
f 213 224 232 
f 229 219 232 
f 224 229 232 
f 215 225 233 
f 225 227 233 
f 209 214 234 
f 214 216 234 
f 216 209 234 
f 216 215 235 
f 228 216 235 
f 221 228 235 
f 215 233 235 
f 233 221 235 
f 217 213 236 
f 218 217 236 
f 226 211 237 
f 211 228 237 
f 228 221 237 
f 221 233 237 
f 237 233 238 
f 222 217 238 
f 217 226 238 
f 227 222 238 
f 233 227 238 
f 226 237 238 
f 219 223 239 
f 213 232 239 
f 232 219 239 
f 212 224 240 
f 224 208 240 
f 225 212 240 
f 208 227 240 
f 227 225 240 
f 223 218 241 
f 236 213 241 
f 218 236 241 
f 239 223 241 
o convex_9
v -0.024367 0.095084 0.025271
v -0.033599 0.089316 0.001053
v -0.033599 0.089316 0.007975
v 0.001009 0.089316 0.032194
v -0.024367 0.095084 0.001053
v -0.026674 0.089316 0.032194
v 0.001009 0.095084 0.032194
v 0.001009 0.089316 0.024119
v -0.032443 0.095084 0.009128
v -0.024367 0.089316 0.001053
v 0.001009 0.095084 0.024119
v -0.018602 0.095084 0.032194
v -0.032443 0.095084 0.001053
f 250 246 254 
f 244 243 245 
f 244 245 247 
f 247 245 248 
f 246 242 248 
f 245 243 249 
f 248 245 249 
f 243 244 250 
f 242 246 250 
f 247 242 250 
f 244 247 250 
f 243 246 251 
f 246 249 251 
f 249 243 251 
f 246 248 252 
f 249 246 252 
f 248 249 252 
f 242 247 253 
f 247 248 253 
f 248 242 253 
f 246 243 254 
f 243 250 254 
o convex_10
v -0.023214 0.100852 -0.019707
v 0.001009 0.098543 0.032194
v 0.001009 0.095084 0.032194
v 0.001009 0.095084 -0.032404
v -0.032445 0.095084 0.002203
v -0.001300 0.100852 -0.032404
v -0.013995 0.100852 0.028729
v -0.032445 0.100852 0.003360
v -0.015142 0.095084 0.032194
v -0.013989 0.095084 -0.028939
v 0.001009 0.100852 0.013743
v -0.028984 0.100852 0.013743
v -0.001303 0.100852 0.032194
v -0.023214 0.095084 -0.019707
v -0.028984 0.095084 0.013743
v -0.009378 0.100852 -0.031241
v 0.001009 0.100852 -0.013947
f 260 265 271 
f 256 257 258 
f 258 257 259 
f 260 255 261 
f 255 259 262 
f 261 255 262 
f 257 256 263 
f 259 257 263 
f 258 259 264 
f 256 258 265 
f 260 261 265 
f 261 262 266 
f 263 261 266 
f 261 263 267 
f 263 256 267 
f 256 265 267 
f 265 261 267 
f 259 255 268 
f 255 264 268 
f 264 259 268 
f 262 259 269 
f 259 263 269 
f 266 262 269 
f 263 266 269 
f 255 260 270 
f 260 258 270 
f 264 255 270 
f 258 264 270 
f 258 260 271 
f 265 258 271 
o convex_11
v -0.005912 0.052401 0.055270
v 0.010238 0.062783 0.052963
v 0.010238 0.057017 0.058728
v -0.005912 0.062783 0.052963
v -0.005912 0.053556 0.059883
v 0.010238 0.052401 0.056421
v 0.007928 0.058167 0.051808
v 0.010238 0.052401 0.059883
v -0.005912 0.058167 0.051808
f 275 278 280 
f 274 273 275 
f 275 272 276 
f 274 275 276 
f 273 274 277 
f 277 272 278 
f 275 273 278 
f 273 277 278 
f 276 272 279 
f 274 276 279 
f 277 274 279 
f 272 277 279 
f 272 275 280 
f 278 272 280 
o convex_12
v 0.020616 0.070853 0.067960
v 0.010239 0.052405 0.057579
v 0.010239 0.053559 0.056423
v 0.009084 0.073161 0.071420
v 0.012550 0.052405 0.082953
v 0.026388 0.052405 0.067960
v 0.024079 0.074315 0.051808
v 0.011393 0.074315 0.051808
v 0.025231 0.055867 0.073725
v 0.009084 0.052405 0.082953
v 0.016009 0.061632 0.051808
v 0.016009 0.063934 0.077185
v 0.017160 0.074315 0.067960
v 0.019466 0.052405 0.059884
v 0.010239 0.059327 0.051808
v 0.020616 0.052405 0.079490
v 0.010239 0.065088 0.078337
v 0.022926 0.074315 0.059884
v 0.009084 0.074315 0.066810
v 0.022926 0.069701 0.051808
f 294 291 300 
f 285 282 286 
f 286 287 289 
f 283 282 290 
f 282 285 290 
f 288 287 291 
f 289 281 292 
f 287 288 293 
f 292 281 293 
f 282 283 294 
f 286 282 294 
f 291 294 295 
f 283 290 295 
f 288 291 295 
f 294 283 295 
f 285 286 296 
f 286 289 296 
f 289 292 296 
f 292 285 296 
f 284 290 297 
f 290 285 297 
f 285 292 297 
f 293 284 297 
f 292 293 297 
f 281 289 298 
f 289 287 298 
f 293 281 298 
f 287 293 298 
f 290 284 299 
f 284 293 299 
f 293 288 299 
f 288 295 299 
f 295 290 299 
f 287 286 300 
f 291 287 300 
f 286 294 300 
o convex_13
v -0.005912 0.074317 0.067960
v 0.006775 0.053557 0.084108
v 0.009084 0.054711 0.082953
v -0.005912 0.053557 0.079491
v 0.009084 0.073163 0.066804
v -0.004759 0.065089 0.079491
v 0.009084 0.074317 0.071422
v 0.009084 0.052405 0.079491
v -0.005912 0.052405 0.084108
v -0.005912 0.074317 0.071422
v 0.004469 0.065089 0.079491
f 303 307 311 
f 304 301 305 
f 305 301 307 
f 303 305 307 
f 303 302 308 
f 304 305 308 
f 305 303 308 
f 301 304 309 
f 302 306 309 
f 308 302 309 
f 304 308 309 
f 307 301 310 
f 306 307 310 
f 301 309 310 
f 309 306 310 
f 302 303 311 
f 306 302 311 
f 307 306 311 
o convex_14
v 0.001007 0.205825 -0.031250
v -0.018602 0.166613 -0.032404
v -0.015140 0.165461 -0.032404
v -0.002452 0.165461 -0.025483
v 0.012545 0.164299 -0.032404
v 0.013699 0.204673 -0.025483
v 0.011391 0.212750 -0.032404
v -0.018602 0.181605 -0.031250
v 0.013699 0.179300 -0.025483
v -0.010524 0.178147 -0.027791
v -0.010524 0.195444 -0.032404
v -0.010524 0.195444 -0.031250
v -0.011674 0.166613 -0.027791
v 0.002158 0.165461 -0.025483
v 0.012545 0.204673 -0.025483
f 323 321 326 
f 314 313 316 
f 315 314 316 
f 317 316 318 
f 316 313 318 
f 317 315 320 
f 316 317 320 
f 318 313 322 
f 312 318 322 
f 313 319 322 
f 322 319 323 
f 319 321 323 
f 312 322 323 
f 313 314 324 
f 314 315 324 
f 319 313 324 
f 315 321 324 
f 321 319 324 
f 315 316 325 
f 320 315 325 
f 316 320 325 
f 315 317 326 
f 317 318 326 
f 318 312 326 
f 321 315 326 
f 312 323 326 
o convex_15
v -0.023209 0.080087 0.052956
v -0.007060 0.078933 0.010279
v -0.007060 0.080086 0.010279
v 0.022927 0.078932 0.027585
v -0.023209 0.074319 0.054115
v 0.009084 0.074319 0.028739
v -0.020899 0.074319 0.036814
v -0.011675 0.074319 0.054115
v -0.025523 0.080087 0.034506
v -0.011675 0.080087 0.054115
v 0.015998 0.080086 0.017201
v 0.006769 0.078933 0.010279
v -0.022061 0.078932 0.024122
v -0.007070 0.074319 0.027585
v 0.022927 0.080086 0.027585
v 0.009084 0.074319 0.034506
f 334 332 342 
f 332 331 333 
f 331 332 334 
f 331 327 335 
f 333 331 335 
f 327 331 336 
f 334 330 336 
f 331 334 336 
f 335 327 336 
f 335 336 337 
f 329 335 337 
f 337 330 338 
f 328 329 338 
f 330 332 338 
f 329 337 338 
f 329 328 339 
f 328 333 339 
f 335 329 339 
f 333 335 339 
f 333 328 340 
f 332 333 340 
f 328 338 340 
f 338 332 340 
f 336 330 341 
f 337 336 341 
f 330 337 341 
f 332 330 342 
f 330 334 342 
o convex_16
v -0.057818 0.122774 0.025276
v 0.032156 0.158531 0.026431
v 0.032156 0.158531 0.024122
v 0.024080 0.117002 0.025276
v -0.045126 0.158531 0.034504
v 0.011388 0.117002 0.033348
v -0.032443 0.158531 0.024122
v 0.022924 0.158531 0.034504
v -0.056662 0.128543 0.034504
v -0.060131 0.133153 0.024122
v -0.025523 0.117002 0.024122
v -0.011693 0.117002 0.033348
v 0.024080 0.117002 0.024122
v 0.006772 0.127384 0.034504
v -0.058975 0.141222 0.034504
v 0.022924 0.152763 0.034504
v -0.057818 0.138917 0.025276
v 0.032156 0.152763 0.026431
v -0.060131 0.127384 0.024122
v -0.045126 0.158531 0.033348
v -0.060131 0.133153 0.032196
v 0.024080 0.125083 0.027584
f 360 358 364 
f 344 345 347 
f 347 345 349 
f 344 347 350 
f 350 347 351 
f 349 345 352 
f 346 348 353 
f 352 345 353 
f 351 343 354 
f 353 348 354 
f 343 353 354 
f 353 345 355 
f 346 353 355 
f 350 351 356 
f 354 348 356 
f 351 354 356 
f 351 347 357 
f 344 350 358 
f 356 348 358 
f 350 356 358 
f 349 352 359 
f 352 357 359 
f 345 344 360 
f 355 345 360 
f 346 355 360 
f 344 358 360 
f 353 343 361 
f 352 353 361 
f 347 349 362 
f 357 347 362 
f 349 359 362 
f 359 357 362 
f 343 351 363 
f 351 357 363 
f 357 352 363 
f 361 343 363 
f 352 361 363 
f 348 346 364 
f 358 348 364 
f 346 360 364 
o convex_17
v -0.027832 -0.029503 0.056422
v -0.018602 0.002796 0.080648
v -0.019758 0.002796 0.080648
v -0.040517 0.002796 0.056422
v -0.018602 -0.016815 0.058729
v -0.037055 -0.007589 0.065654
v -0.018602 -0.031807 0.063346
v -0.022066 0.002796 0.066806
v -0.025526 -0.017966 0.070264
v -0.034749 -0.023733 0.058729
v -0.033595 0.002796 0.072571
v -0.018602 -0.035266 0.056422
v -0.041674 -0.005281 0.057579
v -0.037055 0.002796 0.056422
v -0.024370 -0.034118 0.058729
v -0.019758 -0.002974 0.079490
v -0.032444 -0.008741 0.070264
v -0.018602 -0.023733 0.056422
v -0.041674 0.002796 0.059884
v -0.018602 -0.017966 0.072571
v -0.040517 -0.012207 0.057579
v -0.020910 -0.012207 0.058729
f 382 378 386 
f 367 366 368 
f 369 366 371 
f 368 366 372 
f 366 369 372 
f 367 368 375 
f 365 368 376 
f 369 371 376 
f 368 372 378 
f 376 368 378 
f 371 373 379 
f 373 374 379 
f 374 365 379 
f 365 376 379 
f 376 371 379 
f 366 367 380 
f 367 375 380 
f 380 375 381 
f 374 373 381 
f 370 374 381 
f 375 370 381 
f 373 380 381 
f 369 376 382 
f 376 378 382 
f 375 368 383 
f 370 375 383 
f 368 377 383 
f 377 370 383 
f 371 366 384 
f 373 371 384 
f 366 380 384 
f 380 373 384 
f 368 365 385 
f 365 374 385 
f 374 370 385 
f 377 368 385 
f 370 377 385 
f 372 369 386 
f 378 372 386 
f 369 382 386 
o convex_18
v -0.002453 0.036249 0.087569
v -0.030138 0.014335 0.077187
v -0.028980 0.009721 0.077187
v -0.011681 0.037404 0.077187
v -0.001298 0.002796 0.080649
v -0.016294 0.027021 0.086415
v -0.028980 0.036249 0.078341
v -0.009377 0.003952 0.084107
v -0.017443 0.002796 0.077187
v -0.001298 0.037404 0.084107
v -0.001298 0.021252 0.087569
v -0.025519 0.016645 0.081803
v -0.019755 0.037404 0.084107
v -0.020904 0.002796 0.080649
v -0.001298 0.002796 0.084107
v -0.027829 0.037404 0.077187
v -0.027829 0.031632 0.080649
v -0.010532 0.022407 0.077187
v -0.009377 0.023556 0.087569
v -0.023216 0.009721 0.081803
f 394 405 406 
f 389 388 390 
f 389 390 395 
f 391 390 396 
f 396 387 397 
f 391 396 397 
f 388 389 398 
f 392 387 399 
f 387 396 399 
f 396 390 399 
f 389 395 400 
f 395 391 400 
f 391 397 401 
f 397 394 401 
f 400 391 401 
f 394 400 401 
f 390 388 402 
f 388 393 402 
f 399 390 402 
f 393 399 402 
f 393 388 403 
f 388 398 403 
f 398 392 403 
f 392 399 403 
f 399 393 403 
f 390 391 404 
f 395 390 404 
f 391 395 404 
f 387 392 405 
f 397 387 405 
f 394 397 405 
f 398 389 406 
f 392 398 406 
f 400 394 406 
f 389 400 406 
f 405 392 406 
o convex_19
v 0.033310 -0.022578 0.059886
v 0.034464 0.007411 0.072572
v 0.033310 0.007411 0.072572
v 0.040231 0.007411 0.056422
v 0.041385 -0.007586 0.058730
v 0.033310 -0.009891 0.056422
v 0.036772 0.007411 0.056422
v 0.034464 -0.006434 0.069109
v 0.034464 -0.022578 0.056422
v 0.040231 0.007411 0.063346
v 0.040231 -0.013352 0.058730
v 0.037923 0.002795 0.067958
v 0.033310 0.007411 0.066804
f 413 412 419 
f 409 408 410 
f 407 409 412 
f 409 410 413 
f 410 412 413 
f 409 407 414 
f 408 409 414 
f 410 411 415 
f 407 412 415 
f 412 410 415 
f 410 408 416 
f 411 410 416 
f 414 407 417 
f 407 415 417 
f 415 411 417 
f 408 414 418 
f 416 408 418 
f 411 416 418 
f 414 417 418 
f 417 411 418 
f 412 409 419 
f 409 413 419 
o convex_20
v 0.010241 0.023558 0.061038
v 0.031000 0.037404 0.072570
v 0.032152 0.032786 0.073724
v 0.040228 0.007411 0.056426
v 0.020622 0.007411 0.078338
v 0.004470 0.037404 0.056426
v 0.011393 0.037404 0.078338
v 0.027542 0.032786 0.056426
v 0.029843 0.012026 0.078338
v 0.010241 0.022407 0.078338
v 0.022927 0.010872 0.058732
v 0.028694 0.037404 0.078338
v 0.037923 0.007411 0.067956
v 0.039076 0.017795 0.057578
v 0.021775 0.007411 0.066806
v 0.020622 0.037404 0.056426
v 0.004470 0.036247 0.063346
v 0.041385 0.008565 0.059886
v 0.034461 0.020106 0.073724
v 0.029843 0.037404 0.066806
v 0.028694 0.012026 0.056426
v 0.011393 0.021257 0.061038
v 0.029843 0.007411 0.077184
v 0.035614 0.023558 0.056426
f 427 439 443 
f 421 425 426 
f 423 425 427 
f 426 424 428 
f 424 426 429 
f 422 421 431 
f 421 426 431 
f 426 428 431 
f 424 423 432 
f 423 424 434 
f 430 423 434 
f 425 421 435 
f 427 425 435 
f 425 420 436 
f 426 425 436 
f 420 429 436 
f 429 426 436 
f 421 422 437 
f 432 423 437 
f 433 421 437 
f 423 433 437 
f 422 431 438 
f 431 428 438 
f 428 432 438 
f 437 422 438 
f 432 437 438 
f 435 421 439 
f 427 435 439 
f 425 423 440 
f 423 430 440 
f 430 425 440 
f 420 425 441 
f 429 420 441 
f 424 429 441 
f 425 430 441 
f 434 424 441 
f 430 434 441 
f 428 424 442 
f 432 428 442 
f 424 432 442 
f 423 427 443 
f 421 433 443 
f 433 423 443 
f 439 421 443 
o convex_21
v 0.017154 0.007411 0.082955
v 0.027539 0.037404 0.079494
v 0.028695 0.032786 0.079494
v 0.010240 0.022407 0.078340
v -0.001298 0.036247 0.087569
v -0.001298 0.007411 0.081803
v 0.026388 0.007411 0.078340
v 0.011397 0.037404 0.078340
v 0.014847 0.021257 0.086415
v -0.001298 0.007411 0.085262
v 0.012551 0.037404 0.086415
v -0.001298 0.037404 0.084106
v 0.024077 0.021257 0.082955
v 0.006779 0.021257 0.087569
v 0.027539 0.037404 0.078340
v 0.021772 0.031632 0.084106
v 0.018311 0.007411 0.078340
v 0.009086 0.008565 0.085262
v 0.028695 0.014334 0.079494
v -0.001298 0.020106 0.087569
f 461 457 463 
f 444 449 450 
f 447 449 451 
f 450 447 451 
f 449 444 453 
f 448 449 453 
f 445 451 454 
f 449 448 455 
f 451 449 455 
f 454 451 455 
f 448 454 455 
f 452 444 456 
f 454 448 457 
f 452 454 457 
f 445 446 458 
f 451 445 458 
f 450 451 458 
f 446 445 459 
f 445 454 459 
f 454 452 459 
f 456 446 459 
f 452 456 459 
f 449 447 460 
f 447 450 460 
f 450 449 460 
f 444 452 461 
f 453 444 461 
f 452 457 461 
f 444 450 462 
f 456 444 462 
f 446 456 462 
f 458 446 462 
f 450 458 462 
f 448 453 463 
f 457 448 463 
f 453 461 463 
o convex_22
v 0.033310 0.088162 -0.007027
v 0.007931 0.087009 -0.023176
v 0.007931 0.088162 -0.023176
v 0.024078 0.085855 -0.001257
v 0.024078 0.093930 -0.001257
v 0.024078 0.093930 -0.023176
v 0.022923 0.085855 -0.023176
v 0.009086 0.093930 -0.023176
v 0.033310 0.093930 -0.001257
v 0.032154 0.085855 -0.001257
v 0.031002 0.091623 -0.015098
v 0.026386 0.087009 -0.022019
v 0.009086 0.085855 -0.022019
f 470 467 476 
f 466 465 467 
f 466 467 468 
f 465 466 469 
f 465 469 470 
f 466 468 471 
f 469 466 471 
f 468 469 471 
f 468 467 472 
f 469 468 472 
f 467 470 473 
f 464 472 473 
f 472 467 473 
f 472 464 474 
f 469 472 474 
f 470 469 475 
f 464 473 475 
f 473 470 475 
f 474 464 475 
f 469 474 475 
f 467 465 476 
f 465 470 476 
o convex_23
v 0.001009 0.100852 -0.022015
v 0.033310 0.095084 -0.001256
v 0.032152 0.100852 0.004508
v 0.001012 0.095084 0.021807
v 0.024077 0.093930 -0.023176
v 0.001012 0.100852 0.021807
v 0.025228 0.093930 0.022968
v 0.007940 0.093930 -0.023176
v 0.020615 0.100852 -0.023176
v 0.020618 0.100852 0.022968
v 0.001009 0.095084 -0.022015
v 0.031002 0.100852 -0.009332
v 0.007937 0.093930 0.022968
v 0.032152 0.093930 0.010276
v 0.031002 0.093930 -0.012791
v 0.028687 0.100852 0.013736
f 483 490 492 
f 479 477 482 
f 477 480 482 
f 481 483 484 
f 477 479 485 
f 481 484 485 
f 484 477 485 
f 479 482 486 
f 480 477 487 
f 477 484 487 
f 479 478 488 
f 485 479 488 
f 481 485 488 
f 482 480 489 
f 484 483 489 
f 486 482 489 
f 483 486 489 
f 480 487 489 
f 487 484 489 
f 478 479 490 
f 483 481 490 
f 488 478 491 
f 481 488 491 
f 478 490 491 
f 490 481 491 
f 479 486 492 
f 486 483 492 
f 490 479 492 
o convex_24
v 0.016006 0.235820 0.042580
v 0.018314 0.240427 0.055269
v 0.016006 0.240427 0.055269
v 0.027542 0.206982 0.049499
v 0.027542 0.254279 0.040272
v 0.016006 0.206982 0.040272
v 0.027542 0.206982 0.040272
v 0.027542 0.247348 0.051806
v 0.017161 0.206982 0.049499
v 0.016006 0.242737 0.048344
v 0.016006 0.227751 0.054113
v 0.026387 0.247348 0.052961
v 0.026387 0.254279 0.040272
f 504 497 505 
f 495 493 498 
f 498 497 499 
f 497 496 499 
f 496 498 499 
f 496 497 500 
f 498 496 501 
f 493 495 502 
f 494 495 503 
f 496 494 503 
f 495 498 503 
f 501 496 503 
f 498 501 503 
f 495 494 504 
f 494 496 504 
f 496 500 504 
f 500 497 504 
f 498 493 505 
f 497 498 505 
f 493 502 505 
f 502 495 505 
f 495 504 505 
o convex_25
v 0.022926 0.088162 0.043739
v 0.009086 0.074321 0.028740
v 0.005626 0.092772 0.032203
v 0.009086 0.074321 0.070265
v 0.027540 0.082397 0.032203
v 0.024077 0.074321 0.054109
v 0.005626 0.087010 0.057568
v 0.013700 0.096237 0.032203
v 0.022923 0.078934 0.027582
v 0.017157 0.076628 0.065644
v 0.026386 0.090466 0.032203
v 0.005626 0.080090 0.059879
v 0.013700 0.087010 0.055266
v 0.005626 0.096237 0.036816
v 0.021771 0.074321 0.039122
v 0.016008 0.092772 0.042582
v 0.011396 0.080088 0.027582
v 0.022923 0.075473 0.058725
v 0.011396 0.077780 0.067955
v 0.027540 0.085855 0.035663
f 506 523 525 
f 509 507 511 
f 510 514 516 
f 514 513 516 
f 508 507 517 
f 507 509 517 
f 512 508 517 
f 509 512 517 
f 515 506 518 
f 508 512 519 
f 513 508 519 
f 511 507 520 
f 510 511 520 
f 507 514 520 
f 514 510 520 
f 506 516 521 
f 516 513 521 
f 518 506 521 
f 512 518 521 
f 519 512 521 
f 513 519 521 
f 507 508 522 
f 508 513 522 
f 514 507 522 
f 513 514 522 
f 509 511 523 
f 515 509 523 
f 506 515 523 
f 512 509 524 
f 509 515 524 
f 518 512 524 
f 515 518 524 
f 511 510 525 
f 510 516 525 
f 516 506 525 
f 523 511 525 
o convex_26
v -0.033593 0.141222 -0.019711
v 0.056381 0.164294 0.006813
v 0.056381 0.163142 0.006813
v 0.044836 0.151606 -0.038168
v 0.034457 0.117006 0.006813
v -0.035906 0.160832 0.006813
v -0.025517 0.117006 -0.024326
v -0.007061 0.164294 -0.038168
v -0.033593 0.117006 0.006813
v 0.011394 0.117006 -0.033557
v 0.044836 0.164294 -0.038168
v 0.034457 0.117006 -0.009340
v -0.009374 0.141222 -0.038168
v -0.027830 0.156216 -0.030095
v -0.005905 0.164294 0.006813
v -0.035906 0.159679 -0.016250
v 0.050609 0.155064 -0.026634
v -0.035906 0.125084 -0.007032
v -0.011678 0.118164 -0.033557
v 0.025234 0.117006 -0.024326
v 0.055225 0.157374 0.005660
v 0.051765 0.164294 -0.028942
v -0.025517 0.152758 -0.032403
v -0.033593 0.117006 -0.010494
v 0.007934 0.119316 -0.034706
v -0.035906 0.152758 -0.019711
v -0.035906 0.125084 0.006813
v -0.028977 0.161984 -0.010494
v -0.016285 0.156216 -0.037018
v -0.009374 0.119316 -0.034706
v -0.035906 0.160832 -0.011648
v -0.000142 0.141222 -0.038168
v -0.020901 0.117006 -0.027788
v -0.034749 0.126237 -0.012801
v -0.018597 0.163137 0.006813
f 533 553 560 
f 528 527 530 
f 530 527 531 
f 530 531 534 
f 532 530 534 
f 530 532 535 
f 529 533 536 
f 533 527 536 
f 530 535 537 
f 533 529 538 
f 531 527 540 
f 527 533 540 
f 533 539 541 
f 537 529 542 
f 531 541 543 
f 535 529 545 
f 529 537 545 
f 537 535 545 
f 528 530 546 
f 530 537 546 
f 542 528 546 
f 537 542 546 
f 527 528 547 
f 536 527 547 
f 529 536 547 
f 528 542 547 
f 542 529 547 
f 538 544 548 
f 532 534 549 
f 534 543 549 
f 529 535 550 
f 532 526 551 
f 541 539 551 
f 543 541 551 
f 548 532 551 
f 539 548 551 
f 534 531 552 
f 531 543 552 
f 543 534 552 
f 533 538 554 
f 539 533 554 
f 538 548 554 
f 548 539 554 
f 535 544 555 
f 544 538 555 
f 550 535 555 
f 538 550 555 
f 541 531 556 
f 533 541 556 
f 531 553 556 
f 553 533 556 
f 538 529 557 
f 529 550 557 
f 550 538 557 
f 535 532 558 
f 544 535 558 
f 532 548 558 
f 548 544 558 
f 526 532 559 
f 532 549 559 
f 549 543 559 
f 551 526 559 
f 543 551 559 
f 531 540 560 
f 540 533 560 
f 553 531 560 
o convex_27
v -0.009375 0.188512 0.024122
v -0.035906 0.126232 0.006818
v -0.034752 0.119309 0.006818
v 0.004470 0.164295 0.006818
v 0.004470 0.117002 0.024122
v -0.033594 0.152765 0.024122
v -0.035906 0.160829 0.006818
v 0.004470 0.117002 0.006818
v -0.025523 0.117002 0.024122
v 0.004470 0.167752 0.024122
v -0.015149 0.194292 0.022966
v -0.035906 0.159680 0.020658
v -0.033594 0.117002 0.011433
v -0.035906 0.148157 0.019506
v -0.015149 0.194292 0.024122
v -0.005913 0.164295 0.006818
v -0.026673 0.118167 0.024122
v -0.033594 0.159680 0.024122
v -0.033594 0.117002 0.006818
v -0.035906 0.160829 0.019506
f 572 575 580 
f 563 562 564 
f 565 561 566 
f 564 562 567 
f 563 564 568 
f 564 565 568 
f 568 565 569 
f 565 566 569 
f 564 561 570 
f 561 565 570 
f 565 564 570 
f 561 564 571 
f 567 562 572 
f 562 563 573 
f 568 569 573 
f 572 562 574 
f 566 572 574 
f 562 573 574 
f 566 561 575 
f 561 571 575 
f 571 567 575 
f 564 567 576 
f 571 564 576 
f 567 571 576 
f 569 566 577 
f 573 569 577 
f 574 573 577 
f 566 574 577 
f 572 566 578 
f 566 575 578 
f 575 572 578 
f 563 568 579 
f 573 563 579 
f 568 573 579 
f 567 572 580 
f 575 567 580 
o convex_28
v 0.062147 0.261184 0.014894
v 0.004470 0.117002 0.006818
v 0.034470 0.117002 0.006818
v 0.004470 0.117002 0.024122
v 0.022926 0.256569 0.012587
v 0.073685 0.254261 0.024122
v 0.069065 0.247339 0.006818
v 0.026388 0.266968 0.024122
v 0.052913 0.160847 0.024122
v 0.004470 0.164308 0.006818
v 0.055223 0.157400 0.006818
v 0.005628 0.173539 0.024122
v 0.025236 0.117002 0.024122
v 0.019470 0.218508 0.006818
v 0.032160 0.262353 0.013742
v 0.039078 0.268122 0.024122
v 0.004470 0.171231 0.018353
v 0.072527 0.253108 0.014894
v 0.067913 0.261184 0.024122
v 0.034470 0.117002 0.009128
v 0.055223 0.157400 0.009128
v 0.036774 0.266968 0.018353
v 0.065609 0.258877 0.012587
v 0.071375 0.257738 0.014894
v 0.070223 0.247339 0.007973
v 0.065609 0.262338 0.019506
v 0.019470 0.241584 0.014894
v 0.060995 0.254261 0.009128
v 0.031008 0.255415 0.011433
v 0.028698 0.266968 0.019506
v 0.055223 0.170077 0.024122
v 0.032160 0.117002 0.013742
v 0.004470 0.165462 0.024122
v 0.056375 0.163154 0.006818
f 605 598 614 
f 582 583 584 
f 583 582 587 
f 584 586 588 
f 586 584 589 
f 582 584 590 
f 587 582 590 
f 583 587 591 
f 584 588 592 
f 584 583 593 
f 589 584 593 
f 587 590 594 
f 590 585 594 
f 588 586 596 
f 590 584 597 
f 596 586 599 
f 583 591 600 
f 593 583 600 
f 600 591 601 
f 589 600 601 
f 602 581 603 
f 595 602 603 
f 586 598 604 
f 599 586 604 
f 587 603 604 
f 604 598 605 
f 587 604 605 
f 596 599 606 
f 581 602 606 
f 602 596 606 
f 603 581 606 
f 599 604 606 
f 604 603 606 
f 588 585 607 
f 585 590 607 
f 592 588 607 
f 590 597 607 
f 597 592 607 
f 603 587 608 
f 595 603 608 
f 594 585 609 
f 587 594 609 
f 585 595 609 
f 608 587 609 
f 595 608 609 
f 585 588 610 
f 595 585 610 
f 588 596 610 
f 602 595 610 
f 596 602 610 
f 586 589 611 
f 601 586 611 
f 589 601 611 
f 589 593 612 
f 600 589 612 
f 593 600 612 
f 584 592 613 
f 597 584 613 
f 592 597 613 
f 591 587 614 
f 598 586 614 
f 586 601 614 
f 601 591 614 
f 587 605 614 
o convex_29
v -0.055515 0.128541 0.034504
v -0.049750 0.146991 0.058729
v -0.045135 0.148145 0.057572
v -0.045135 0.158528 0.034504
v -0.056669 0.153913 0.054112
v -0.045135 0.134309 0.034504
v -0.058978 0.142385 0.034504
v -0.057822 0.146991 0.056422
v -0.042827 0.158528 0.042583
v -0.046289 0.143533 0.057572
v -0.054361 0.143533 0.058729
v -0.058978 0.132002 0.035661
v -0.047443 0.129694 0.035661
v -0.043983 0.151606 0.055267
v -0.042827 0.155067 0.034504
v -0.043983 0.144684 0.050650
v -0.050902 0.129694 0.037966
v -0.056669 0.152760 0.048343
f 621 619 632 
f 615 618 620 
f 618 615 621 
f 619 621 622 
f 616 619 622 
f 618 619 623 
f 617 616 624 
f 616 622 625 
f 624 616 625 
f 621 615 626 
f 622 621 626 
f 625 622 626 
f 615 625 626 
f 615 620 627 
f 616 617 628 
f 619 616 628 
f 623 619 628 
f 620 618 629 
f 618 623 629 
f 620 629 630 
f 617 624 630 
f 627 620 630 
f 624 627 630 
f 628 617 630 
f 623 628 630 
f 629 623 630 
f 625 615 631 
f 624 625 631 
f 615 627 631 
f 627 624 631 
f 619 618 632 
f 618 621 632 
o convex_30
v 0.012534 0.158531 0.061036
v -0.042827 0.152761 0.034504
v -0.042827 0.152761 0.035659
v -0.022059 0.126231 0.036814
v -0.027822 0.146994 0.069112
v 0.016006 0.155066 0.034504
v -0.016289 0.129696 0.067956
v -0.037058 0.158531 0.066801
v -0.042827 0.158531 0.034504
v 0.019465 0.152761 0.057573
v -0.026667 0.128539 0.034504
v 0.013689 0.158531 0.034504
v 0.010236 0.146994 0.034504
v -0.018594 0.129696 0.067956
v 0.019465 0.158531 0.058725
v -0.026667 0.158531 0.067956
v -0.012824 0.142381 0.067956
v -0.013985 0.130850 0.067956
v -0.040517 0.157374 0.055263
v 0.014844 0.153912 0.061036
v 0.018310 0.152761 0.041432
v -0.023214 0.127388 0.046042
v -0.017438 0.128539 0.055263
v -0.023214 0.126231 0.034504
v 0.020620 0.156223 0.052960
v -0.028984 0.144683 0.066801
f 654 646 658 
f 634 635 641 
f 638 634 641 
f 640 633 641 
f 635 634 643 
f 634 638 643 
f 638 641 644 
f 641 633 644 
f 643 638 645 
f 636 639 646 
f 639 637 646 
f 644 633 647 
f 640 637 648 
f 633 640 648 
f 633 648 649 
f 648 637 649 
f 637 639 650 
f 649 637 650 
f 641 635 651 
f 640 641 651 
f 647 633 652 
f 642 647 652 
f 633 649 652 
f 650 642 652 
f 649 650 652 
f 645 638 653 
f 642 645 653 
f 635 643 654 
f 636 646 654 
f 639 636 655 
f 636 645 655 
f 645 642 655 
f 650 639 655 
f 642 650 655 
f 645 636 656 
f 643 645 656 
f 654 643 656 
f 636 654 656 
f 638 644 657 
f 647 642 657 
f 644 647 657 
f 653 638 657 
f 642 653 657 
f 637 640 658 
f 646 637 658 
f 651 635 658 
f 640 651 658 
f 635 654 658 
o convex_31
v -0.034757 0.232349 0.051803
v -0.075128 0.206977 0.044890
v -0.075128 0.206977 0.048340
v -0.027835 0.158546 0.024122
v -0.027835 0.158546 0.067958
v -0.027835 0.217356 0.026430
v -0.067049 0.205819 0.064495
v -0.046294 0.158546 0.036814
v -0.027835 0.226585 0.055265
v -0.072818 0.200055 0.037973
v -0.047442 0.231199 0.036814
v -0.039372 0.160846 0.066804
v -0.068202 0.217356 0.055265
v -0.035909 0.226585 0.027584
v -0.032446 0.158546 0.024122
v -0.035909 0.235821 0.040277
v -0.070512 0.213891 0.041427
v -0.046294 0.233507 0.044890
v -0.067049 0.201205 0.064495
v -0.046294 0.158546 0.033351
v -0.060123 0.197747 0.065645
v -0.043984 0.227735 0.055265
v -0.027835 0.224277 0.031047
v -0.070512 0.217356 0.048340
v -0.065896 0.205819 0.035660
v -0.073970 0.210434 0.056420
v -0.035909 0.158546 0.067958
v -0.047442 0.225427 0.032197
v -0.042835 0.233507 0.049498
v -0.064739 0.213891 0.061028
v -0.028988 0.173540 0.065645
v -0.027835 0.228900 0.054111
v -0.063586 0.185069 0.035660
v -0.035909 0.233507 0.034510
v -0.033599 0.225427 0.056420
v -0.039372 0.158546 0.062187
v -0.068202 0.211584 0.037973
v -0.069359 0.194298 0.039119
v -0.041683 0.166618 0.067958
v -0.075128 0.211584 0.049498
f 684 682 698 
f 663 662 664 
f 662 663 666 
f 663 664 667 
f 661 660 668 
f 664 662 673 
f 662 666 673 
f 672 664 673 
f 668 660 675 
f 674 669 676 
f 673 666 678 
f 665 677 679 
f 667 664 681 
f 664 672 681 
f 669 675 682 
f 671 676 682 
f 676 669 682 
f 673 668 683 
f 672 673 683 
f 661 677 684 
f 677 665 684 
f 671 682 684 
f 666 663 685 
f 669 672 686 
f 675 669 686 
f 672 683 686 
f 659 674 687 
f 676 671 687 
f 674 676 687 
f 680 659 687 
f 680 687 688 
f 684 665 688 
f 671 684 688 
f 687 671 688 
f 663 667 689 
f 679 663 689 
f 674 659 690 
f 659 680 690 
f 667 681 690 
f 681 674 690 
f 668 673 691 
f 678 666 691 
f 673 678 691 
f 672 669 692 
f 669 674 692 
f 681 672 692 
f 674 681 692 
f 665 679 693 
f 680 688 693 
f 688 665 693 
f 689 667 693 
f 679 689 693 
f 690 680 693 
f 667 690 693 
f 677 666 694 
f 670 677 694 
f 666 685 694 
f 685 670 694 
f 668 675 695 
f 683 668 695 
f 675 686 695 
f 686 683 695 
f 661 668 696 
f 677 661 696 
f 666 677 696 
f 691 666 696 
f 668 691 696 
f 677 670 697 
f 663 679 697 
f 679 677 697 
f 685 663 697 
f 670 685 697 
f 660 661 698 
f 675 660 698 
f 682 675 698 
f 661 684 698 
o convex_32
v 0.032161 0.158536 0.026431
v 0.057529 0.206982 0.044881
v 0.057529 0.206982 0.024122
v 0.013703 0.206982 0.024122
v 0.005623 0.158536 0.061037
v 0.055219 0.161998 0.049499
v 0.017164 0.206982 0.050648
v 0.005623 0.158536 0.024122
v 0.052916 0.160845 0.024122
v 0.064457 0.205825 0.033354
v 0.005623 0.176992 0.058728
v 0.017164 0.158536 0.059880
v 0.051764 0.206982 0.047190
v 0.005623 0.172378 0.024122
v 0.064457 0.206977 0.042579
v 0.050606 0.160845 0.051808
v 0.062147 0.201211 0.024122
v 0.057529 0.167764 0.044881
v 0.049455 0.159693 0.049499
v 0.006787 0.172378 0.059880
v 0.036768 0.206982 0.049499
v 0.051764 0.159693 0.024122
v 0.017164 0.160845 0.059880
v 0.050606 0.188520 0.049499
v 0.016013 0.206982 0.047190
v 0.011400 0.198901 0.024122
v 0.054067 0.161998 0.027583
v 0.064457 0.202363 0.042579
v 0.063299 0.206977 0.025278
v 0.013703 0.206982 0.028736
f 724 709 728 
f 700 701 702 
f 700 702 705 
f 702 701 706 
f 699 703 706 
f 706 701 707 
f 706 703 709 
f 703 699 710 
f 700 705 711 
f 702 706 712 
f 706 709 712 
f 701 700 713 
f 700 711 713 
f 704 713 714 
f 707 701 715 
f 710 699 717 
f 704 714 717 
f 714 710 717 
f 709 703 718 
f 705 709 718 
f 718 711 719 
f 711 705 719 
f 705 718 719 
f 699 706 720 
f 707 704 720 
f 706 707 720 
f 717 699 720 
f 704 717 720 
f 703 710 721 
f 710 714 721 
f 718 703 721 
f 711 718 721 
f 713 711 722 
f 714 713 722 
f 711 721 722 
f 721 714 722 
f 705 702 723 
f 709 705 723 
f 702 712 724 
f 712 709 724 
f 704 707 725 
f 707 715 725 
f 715 708 725 
f 708 716 725 
f 716 704 725 
f 708 713 726 
f 713 704 726 
f 716 708 726 
f 704 716 726 
f 701 713 727 
f 713 708 727 
f 715 701 727 
f 708 715 727 
f 723 702 728 
f 709 723 728 
f 702 724 728 
o convex_33
v -0.001298 -0.023736 0.066803
v -0.018602 -0.036423 0.057577
v -0.017447 -0.037578 0.057577
v -0.017447 -0.024891 0.069112
v -0.018602 -0.017972 0.058730
v -0.001298 -0.041040 0.057577
v -0.001298 -0.034118 0.056422
v -0.018602 -0.016815 0.069112
v -0.001298 -0.027201 0.069112
v -0.010526 -0.036423 0.062192
v -0.018602 -0.024891 0.056422
v -0.003608 -0.021431 0.069112
v -0.011678 -0.021431 0.058730
v -0.017447 -0.036423 0.056422
f 739 735 742 
f 730 731 732 
f 729 734 735 
f 730 732 736 
f 733 730 736 
f 734 729 737 
f 736 732 737 
f 732 731 738 
f 731 734 738 
f 737 732 738 
f 734 737 738 
f 730 733 739 
f 733 736 740 
f 737 729 740 
f 736 737 740 
f 729 735 741 
f 739 733 741 
f 735 739 741 
f 740 729 741 
f 733 740 741 
f 731 730 742 
f 734 731 742 
f 735 734 742 
f 730 739 742 
o convex_34
v -0.011678 0.002796 0.082955
v -0.018602 -0.022582 0.069112
v -0.017447 -0.023731 0.069112
v -0.001298 -0.020270 0.069112
v -0.018602 0.002796 0.077185
v -0.001298 -0.001822 0.082955
v -0.001298 0.002796 0.079494
v -0.007067 -0.021428 0.073727
v -0.018602 -0.004128 0.079494
v -0.001298 -0.026043 0.070266
v -0.018602 -0.015657 0.069112
v -0.009374 -0.014503 0.077185
v -0.017447 -0.023731 0.070266
v -0.015138 0.002796 0.077185
f 753 747 756 
f 745 744 746 
f 747 743 749 
f 743 748 749 
f 748 746 749 
f 743 747 751 
f 747 744 751 
f 748 743 751 
f 745 746 752 
f 746 748 752 
f 748 750 752 
f 746 744 753 
f 744 747 753 
f 750 748 754 
f 748 751 754 
f 754 751 755 
f 744 745 755 
f 751 744 755 
f 745 752 755 
f 752 750 755 
f 750 754 755 
f 747 749 756 
f 749 746 756 
f 746 753 756 
o convex_35
v -0.040514 0.002796 0.062191
v -0.020912 0.037404 0.066804
v -0.020912 0.037404 0.058731
v -0.020912 0.002796 0.076032
v -0.004760 0.036246 0.056422
v -0.028984 0.037404 0.077187
v -0.011683 0.037401 0.077187
v -0.040514 0.002796 0.056422
v -0.037052 0.021252 0.056422
v -0.022064 0.002796 0.066804
v -0.031289 0.012028 0.077187
v -0.010531 0.022407 0.077187
v -0.011683 0.021255 0.058731
v -0.030136 0.037404 0.066804
v -0.027831 0.002796 0.077187
v -0.034747 0.024711 0.071414
v -0.004760 0.037401 0.063349
v -0.020908 0.037401 0.056422
v -0.037052 0.002796 0.056422
v -0.040514 0.013179 0.058731
v -0.038212 0.003952 0.067953
v -0.031289 0.036249 0.071414
v -0.031289 0.029328 0.056422
v -0.022064 0.010873 0.058731
v -0.032442 0.024711 0.076032
v -0.010531 0.022407 0.062191
f 766 769 782 
f 758 759 762 
f 758 762 763 
f 760 757 764 
f 761 764 765 
f 760 764 766 
f 763 762 767 
f 763 767 768 
f 762 759 770 
f 757 760 771 
f 768 767 771 
f 760 768 771 
f 759 758 773 
f 758 763 773 
f 763 768 773 
f 768 761 773 
f 761 765 774 
f 770 759 774 
f 759 773 774 
f 773 761 774 
f 764 761 775 
f 766 764 775 
f 761 769 775 
f 764 757 776 
f 765 764 776 
f 757 772 776 
f 757 771 777 
f 771 767 777 
f 772 757 777 
f 762 770 778 
f 770 765 778 
f 772 762 778 
f 765 776 778 
f 776 772 778 
f 765 770 779 
f 774 765 779 
f 770 774 779 
f 769 766 780 
f 766 775 780 
f 775 769 780 
f 767 762 781 
f 762 772 781 
f 777 767 781 
f 772 777 781 
f 760 766 782 
f 768 760 782 
f 761 768 782 
f 769 761 782 
o convex_36
v -0.010527 0.088160 -0.032403
v 0.001009 0.081242 0.018351
v 0.001009 0.080088 0.018351
v -0.010527 0.080088 0.021814
v 0.001009 0.081242 -0.016251
v 0.001009 0.089316 -0.024327
v -0.010527 0.081242 -0.013942
v -0.010527 0.083549 0.012584
v 0.001009 0.085854 -0.032403
v -0.010527 0.089316 -0.023173
v -0.009373 0.083549 -0.026631
v -0.003607 0.080088 -0.004723
v 0.001009 0.089316 -0.033558
f 792 788 795 
f 785 784 786 
f 784 785 787 
f 784 787 788 
f 786 783 789 
f 786 784 790 
f 783 786 790 
f 784 788 790 
f 788 787 791 
f 783 790 792 
f 790 788 792 
f 789 783 793 
f 787 789 793 
f 783 791 793 
f 791 787 793 
f 785 786 794 
f 787 785 794 
f 786 789 794 
f 789 787 794 
f 791 783 795 
f 788 791 795 
f 783 792 795 
o convex_37
v 0.017158 0.007411 0.082951
v 0.032154 -0.007586 0.064497
v 0.032154 -0.005278 0.064497
v -0.001298 -0.007586 0.076030
v 0.021771 0.007411 0.066808
v -0.001298 0.007411 0.081800
v 0.012550 -0.007586 0.079493
v 0.033310 0.007411 0.073729
v 0.030999 -0.007586 0.071422
v -0.001298 -0.001817 0.082951
v 0.004471 0.006257 0.085262
v 0.033310 0.007411 0.069115
v 0.025234 0.005103 0.079493
v 0.021771 -0.007586 0.066808
v -0.001298 -0.007586 0.080644
v 0.033310 -0.006432 0.070266
f 808 804 811 
f 798 797 800 
f 796 800 801 
f 800 799 801 
f 799 797 802 
f 800 796 803 
f 802 797 804 
f 801 799 805 
f 805 802 806 
f 796 801 806 
f 802 796 806 
f 801 805 806 
f 797 798 807 
f 798 800 807 
f 800 803 807 
f 796 802 808 
f 803 796 808 
f 802 804 808 
f 797 799 809 
f 799 800 809 
f 800 797 809 
f 799 802 810 
f 805 799 810 
f 802 805 810 
f 804 797 811 
f 797 807 811 
f 807 803 811 
f 803 808 811 
o convex_38
v -0.033599 0.093932 -0.002413
v -0.024372 0.089316 -0.024329
v -0.023216 0.089316 -0.024329
v -0.024372 0.100852 -0.018561
v -0.024372 0.089316 0.001050
v -0.024372 0.100852 -0.001258
v -0.032443 0.089316 -0.011640
v -0.031290 0.100852 -0.009334
v -0.032443 0.098542 0.001050
v -0.033599 0.089316 0.001050
v -0.023216 0.095084 -0.003566
v -0.028984 0.095084 -0.017406
v -0.023216 0.100852 -0.018561
f 817 822 824 
f 814 813 815 
f 813 814 816 
f 813 816 818 
f 817 815 819 
f 818 812 819 
f 816 817 820 
f 817 819 820 
f 819 812 820 
f 812 818 821 
f 818 816 821 
f 820 812 821 
f 816 820 821 
f 816 814 822 
f 817 816 822 
f 815 813 823 
f 813 818 823 
f 819 815 823 
f 818 819 823 
f 814 815 824 
f 815 817 824 
f 822 814 824 
o convex_39
v -0.017447 0.201220 0.024122
v -0.012833 0.218512 0.062190
v -0.015141 0.218512 0.062190
v 0.005623 0.234668 0.047188
v 0.003315 0.195450 0.055263
v -0.027831 0.225431 0.034514
v -0.027831 0.195454 0.059880
v 0.001006 0.195446 0.034511
v -0.027831 0.227738 0.055263
v -0.027831 0.195454 0.026432
v 0.005623 0.233512 0.057569
v 0.005623 0.225431 0.040275
v -0.026675 0.220820 0.028742
v 0.005623 0.208142 0.041427
v -0.024369 0.227738 0.058721
v -0.010527 0.195454 0.026432
v -0.009375 0.209294 0.061035
v 0.005623 0.221971 0.057569
v -0.024369 0.211602 0.025277
v 0.003315 0.234668 0.056414
v -0.018599 0.225431 0.061035
v 0.005623 0.203531 0.054111
v 0.005623 0.233508 0.044885
v -0.003605 0.195450 0.057569
v -0.024369 0.227738 0.042582
v -0.027831 0.216205 0.026432
v 0.003315 0.195446 0.046036
v -0.020905 0.195454 0.024122
v 0.003315 0.234668 0.048347
v -0.008222 0.230049 0.059880
f 839 845 854 
f 826 827 831 
f 830 831 833 
f 831 830 834 
f 832 831 834 
f 828 835 836 
f 832 836 838 
f 836 835 838 
f 833 831 839 
f 825 836 840 
f 836 832 840 
f 826 831 841 
f 835 826 842 
f 838 835 842 
f 826 841 842 
f 836 825 843 
f 837 836 843 
f 835 828 844 
f 833 839 844 
f 827 826 845 
f 831 827 845 
f 839 831 845 
f 842 829 846 
f 838 842 846 
f 830 828 847 
f 828 836 847 
f 837 830 847 
f 836 837 847 
f 841 831 848 
f 829 842 848 
f 842 841 848 
f 830 833 849 
f 834 830 850 
f 830 837 850 
f 843 834 850 
f 837 843 850 
f 831 832 851 
f 832 838 851 
f 846 829 851 
f 838 846 851 
f 829 848 851 
f 848 831 851 
f 832 834 852 
f 825 840 852 
f 840 832 852 
f 843 825 852 
f 834 843 852 
f 828 830 853 
f 844 828 853 
f 833 844 853 
f 830 849 853 
f 849 833 853 
f 826 835 854 
f 835 844 854 
f 844 839 854 
f 845 826 854 
o convex_40
v -0.031290 0.089316 -0.013946
v -0.010527 0.089316 0.031040
v -0.011681 0.089316 0.032197
v -0.025523 0.080088 0.032197
v -0.010527 0.083549 -0.025480
v -0.010527 0.089316 -0.032404
v -0.011681 0.080088 0.032197
v -0.027828 0.089316 0.032197
v -0.032444 0.085854 -0.002405
v -0.013989 0.081242 -0.010481
v -0.024366 0.084702 -0.018556
v -0.033599 0.089316 0.007971
v -0.010527 0.080088 0.004506
v -0.022063 0.088160 -0.026631
v -0.023214 0.080088 0.020656
v -0.027828 0.082396 0.032197
v -0.030136 0.085854 -0.012789
f 865 869 871 
f 857 856 855 
f 856 859 860 
f 855 856 860 
f 856 857 861 
f 857 858 861 
f 857 855 862 
f 858 857 862 
f 859 864 865 
f 862 855 866 
f 855 863 866 
f 859 856 867 
f 856 861 867 
f 861 858 867 
f 864 859 867 
f 860 859 868 
f 855 860 868 
f 859 865 868 
f 858 863 869 
f 865 864 869 
f 867 858 869 
f 864 867 869 
f 858 862 870 
f 863 858 870 
f 862 866 870 
f 866 863 870 
f 863 855 871 
f 855 868 871 
f 868 865 871 
f 869 863 871 
o convex_41
v 0.005625 0.082395 -0.022014
v 0.029849 0.085854 0.024113
v 0.028691 0.085854 0.031036
v 0.025230 0.080087 0.032191
v 0.001009 0.081241 0.019500
v 0.001009 0.085854 -0.023169
v 0.026388 0.084700 -0.013943
v 0.011392 0.085854 0.032191
v 0.001009 0.080087 -0.004716
v 0.014853 0.081241 -0.009329
v 0.020618 0.085854 -0.023169
v 0.011392 0.080087 0.032191
v 0.029849 0.084700 -0.002406
v 0.001009 0.084700 -0.028937
v 0.020618 0.083547 -0.019705
v 0.022927 0.080087 0.020654
v 0.029849 0.085854 -0.002406
f 884 878 888 
f 873 874 875 
f 874 873 877 
f 875 874 879 
f 874 877 879 
f 877 876 879 
f 876 877 880 
f 880 872 881 
f 877 873 882 
f 875 879 883 
f 879 876 883 
f 880 875 883 
f 876 880 883 
f 873 875 884 
f 872 880 885 
f 880 877 885 
f 877 882 885 
f 885 882 886 
f 881 872 886 
f 882 878 886 
f 872 885 886 
f 881 886 887 
f 875 880 887 
f 880 881 887 
f 884 875 887 
f 878 884 887 
f 886 878 887 
f 882 873 888 
f 878 882 888 
f 873 884 888 
o convex_42
v -0.025519 0.088163 0.039123
v 0.005623 0.081245 0.064492
v 0.003315 0.081245 0.065651
v 0.004468 0.097389 0.033356
v -0.011680 0.080089 0.032197
v -0.017450 0.081243 0.059878
v -0.009375 0.091619 0.048351
v -0.026675 0.081243 0.032197
v -0.020905 0.093928 0.032197
v 0.005623 0.092773 0.032197
v 0.005623 0.080092 0.059878
v -0.023210 0.080089 0.051806
v 0.005623 0.090466 0.051806
v -0.005913 0.088165 0.056420
v -0.019752 0.090466 0.043737
v -0.005913 0.095079 0.041428
v -0.009375 0.080092 0.064492
v -0.027831 0.088163 0.033356
v 0.002159 0.089313 0.032197
v -0.004761 0.097389 0.032197
v -0.025519 0.080089 0.032197
v -0.015141 0.087011 0.054111
f 905 902 910 
f 893 896 897 
f 893 897 898 
f 890 891 899 
f 898 890 899 
f 894 889 900 
f 893 899 900 
f 891 890 901 
f 890 898 901 
f 898 892 901 
f 891 901 902 
f 889 894 903 
f 897 889 903 
f 901 892 904 
f 895 902 904 
f 902 901 904 
f 903 895 904 
f 897 903 904 
f 899 891 905 
f 894 900 905 
f 900 899 905 
f 891 902 905 
f 889 897 906 
f 897 896 906 
f 900 889 906 
f 896 900 906 
f 893 898 907 
f 899 893 907 
f 898 899 907 
f 892 898 908 
f 898 897 908 
f 904 892 908 
f 897 904 908 
f 896 893 909 
f 900 896 909 
f 893 900 909 
f 902 895 910 
f 903 894 910 
f 895 903 910 
f 894 905 910 
o convex_43
v -0.024363 0.166617 -0.037018
v 0.014850 0.231207 -0.037018
v 0.014850 0.231207 -0.038172
v 0.043685 0.164299 -0.037018
v -0.013979 0.194302 -0.032405
v 0.020612 0.164299 -0.032405
v 0.012539 0.217355 -0.032405
v -0.023204 0.185067 -0.038172
v 0.043685 0.164299 -0.038172
v -0.019747 0.166617 -0.032405
v -0.016283 0.164299 -0.038172
v 0.040222 0.183921 -0.037018
v 0.037917 0.165458 -0.034712
v -0.013979 0.202364 -0.037018
v -0.019747 0.182768 -0.032405
v 0.012539 0.231207 -0.037018
v 0.040222 0.183921 -0.038172
v -0.007058 0.164299 -0.032405
v -0.008210 0.209280 -0.038172
v -0.010522 0.198906 -0.032405
f 926 924 930 
f 915 916 917 
f 914 916 919 
f 918 913 919 
f 916 915 920 
f 911 918 921 
f 919 916 921 
f 918 919 921 
f 920 911 921 
f 913 912 922 
f 912 917 922 
f 914 919 922 
f 916 914 923 
f 917 916 923 
f 922 917 923 
f 914 922 923 
f 924 918 925 
f 918 911 925 
f 920 915 925 
f 911 920 925 
f 915 924 925 
f 912 913 926 
f 917 912 926 
f 919 913 927 
f 913 922 927 
f 922 919 927 
f 916 920 928 
f 921 916 928 
f 920 921 928 
f 913 918 929 
f 918 924 929 
f 926 913 929 
f 924 926 929 
f 915 917 930 
f 924 915 930 
f 917 926 930 
o convex_44
v 0.067915 0.254272 -0.012793
v 0.003316 0.164299 -0.023175
v 0.003316 0.164299 -0.019708
v 0.056371 0.164299 0.003355
v 0.020626 0.224259 0.006818
v 0.051764 0.165460 -0.030093
v 0.021785 0.251969 -0.026634
v 0.067908 0.242735 -0.032404
v 0.007937 0.164299 0.006818
v 0.071370 0.242735 -0.004723
v 0.025233 0.254272 -0.001264
v 0.055226 0.193151 0.006818
v 0.036771 0.262354 -0.018556
v 0.033316 0.224278 -0.030093
v 0.071370 0.248494 -0.024323
v 0.006785 0.168916 -0.025482
v 0.056371 0.164299 0.006818
v 0.048295 0.173532 -0.031249
v 0.063295 0.254272 -0.026634
v 0.029854 0.254272 -0.000112
v 0.047143 0.210466 0.006818
v 0.007937 0.171229 0.006818
v 0.026392 0.261183 -0.008182
v 0.052915 0.164299 -0.024323
v 0.051764 0.221955 -0.032404
v 0.020626 0.241584 -0.027789
v 0.071370 0.238119 -0.007034
v 0.063295 0.216196 -0.032404
v 0.032157 0.257737 -0.025482
v 0.039074 0.260041 -0.007034
v 0.025233 0.261183 -0.012793
v 0.065598 0.219652 0.001044
v 0.063288 0.251959 -0.007034
v 0.006785 0.182785 -0.022019
v 0.042536 0.164299 -0.030093
v 0.060991 0.242735 -0.032404
v 0.064446 0.256576 -0.020863
v 0.017171 0.208153 -0.027789
v 0.072529 0.251959 -0.018556
v 0.037923 0.262354 -0.012793
v 0.027550 0.261183 -0.020863
v 0.028702 0.250807 0.001044
v 0.059833 0.182775 0.005662
v 0.055219 0.249656 -0.030093
v 0.018323 0.218510 0.006818
v 0.057522 0.196616 -0.032404
v 0.025240 0.250807 -0.027789
v 0.060991 0.256576 -0.011638
v 0.014861 0.219652 -0.026634
v 0.025233 0.224259 0.006818
v 0.070219 0.243887 -0.026634
v 0.039074 0.260041 -0.023175
v 0.070219 0.253121 -0.023175
v 0.058688 0.176997 -0.001264
f 981 957 984 
f 933 932 934 
f 933 934 939 
f 935 939 942 
f 939 934 947 
f 942 939 947 
f 935 942 951 
f 933 939 952 
f 939 935 952 
f 941 950 953 
f 934 932 954 
f 948 944 955 
f 955 944 956 
f 947 934 957 
f 954 936 958 
f 955 938 958 
f 953 950 960 
f 941 953 961 
f 951 942 962 
f 940 951 962 
f 940 931 963 
f 950 940 963 
f 960 950 963 
f 932 933 964 
f 933 952 964 
f 961 937 964 
f 932 946 965 
f 948 936 965 
f 946 948 965 
f 954 932 965 
f 936 954 965 
f 938 955 966 
f 955 956 966 
f 944 948 968 
f 948 946 968 
f 956 944 968 
f 931 940 969 
f 940 957 969 
f 957 945 969 
f 967 931 969 
f 953 960 970 
f 961 953 970 
f 943 961 970 
f 967 943 970 
f 959 937 971 
f 937 961 971 
f 961 943 971 
f 941 935 972 
f 940 950 972 
f 950 941 972 
f 951 940 972 
f 942 947 973 
f 957 940 973 
f 947 957 973 
f 940 962 973 
f 962 942 973 
f 949 938 974 
f 959 949 974 
f 938 966 974 
f 935 941 975 
f 952 935 975 
f 941 961 975 
f 964 952 975 
f 961 964 975 
f 936 948 976 
f 948 955 976 
f 958 936 976 
f 955 958 976 
f 956 937 977 
f 937 959 977 
f 966 956 977 
f 959 974 977 
f 974 966 977 
f 963 931 978 
f 960 963 978 
f 931 967 978 
f 970 960 978 
f 967 970 978 
f 946 932 979 
f 937 956 979 
f 932 964 979 
f 964 937 979 
f 968 946 979 
f 956 968 979 
f 935 951 980 
f 972 935 980 
f 951 972 980 
f 938 945 981 
f 945 957 981 
f 954 958 981 
f 958 938 981 
f 949 959 982 
f 943 967 982 
f 967 949 982 
f 959 971 982 
f 971 943 982 
f 945 938 983 
f 938 949 983 
f 949 967 983 
f 969 945 983 
f 967 969 983 
f 934 954 984 
f 957 934 984 
f 954 981 984 
o convex_45
v 0.001003 0.179293 0.059881
v -0.027831 0.158535 0.024122
v -0.027831 0.160843 0.024122
v -0.027831 0.158535 0.066804
v -0.027831 0.195442 0.061035
v 0.005623 0.158535 0.024122
v -0.013982 0.195442 0.024122
v 0.003315 0.195442 0.047189
v 0.005623 0.158535 0.062184
v -0.027831 0.195442 0.026432
v 0.001003 0.195442 0.033355
v 0.003315 0.195442 0.055265
v 0.005623 0.166609 0.024122
v -0.024366 0.163152 0.066804
v 0.005623 0.179293 0.057571
v -0.003608 0.195442 0.057571
v -0.022061 0.194286 0.024122
v -0.004761 0.183907 0.024122
f 995 997 1002 
f 987 986 988 
f 987 988 989 
f 986 987 990 
f 988 986 990 
f 990 987 991 
f 991 989 992 
f 988 990 993 
f 987 989 994 
f 989 991 994 
f 991 992 995 
f 992 989 996 
f 985 993 996 
f 990 991 997 
f 993 990 997 
f 995 992 997 
f 989 988 998 
f 993 985 998 
f 988 993 998 
f 992 996 999 
f 996 993 999 
f 993 997 999 
f 997 992 999 
f 985 996 1000 
f 996 989 1000 
f 998 985 1000 
f 989 998 1000 
f 991 987 1001 
f 987 994 1001 
f 994 991 1001 
f 991 995 1002 
f 997 991 1002 
o convex_46
v 0.062147 0.253124 0.035658
v 0.013699 0.206982 0.024122
v 0.063298 0.206982 0.024122
v 0.027544 0.206982 0.049500
v 0.026394 0.266967 0.024122
v 0.026394 0.257732 0.040271
v 0.065606 0.208143 0.041424
v 0.073685 0.256583 0.024122
v 0.016006 0.210459 0.040271
v 0.052917 0.215067 0.046037
v 0.040239 0.266967 0.031045
v 0.072529 0.245045 0.035658
v 0.029852 0.258888 0.040271
v 0.066762 0.261198 0.027585
v 0.027544 0.211608 0.049500
v 0.055218 0.206982 0.046037
v 0.039094 0.268122 0.024122
v 0.027544 0.266967 0.031045
v 0.067907 0.256583 0.032198
v 0.073685 0.249647 0.029892
v 0.014855 0.208137 0.036811
v 0.039094 0.263496 0.035658
v 0.041390 0.218526 0.047192
v 0.066762 0.250808 0.035658
v 0.013699 0.209298 0.025279
v 0.035624 0.208143 0.049500
v 0.073685 0.251969 0.032198
v 0.069064 0.227749 0.039116
v 0.028701 0.231208 0.046037
f 1028 1025 1031 
f 1004 1005 1006 
f 1005 1004 1007 
f 1005 1007 1010 
f 1011 1006 1017 
f 1008 1011 1017 
f 1006 1005 1018 
f 1005 1009 1018 
f 1010 1007 1019 
f 1016 1010 1019 
f 1013 1016 1019 
f 1007 1008 1020 
f 1008 1015 1020 
f 1019 1007 1020 
f 1013 1019 1020 
f 1009 1005 1022 
f 1005 1010 1022 
f 1014 1009 1022 
f 1004 1006 1023 
f 1008 1007 1023 
f 1006 1011 1023 
f 1011 1008 1023 
f 1015 1003 1024 
f 1016 1013 1024 
f 1020 1015 1024 
f 1013 1020 1024 
f 1003 1021 1024 
f 1021 1016 1024 
f 1012 1015 1025 
f 1012 1014 1026 
f 1015 1012 1026 
f 1003 1015 1026 
f 1021 1003 1026 
f 1007 1004 1027 
f 1004 1023 1027 
f 1023 1007 1027 
f 1017 1006 1028 
f 1006 1018 1028 
f 1018 1012 1028 
f 1012 1025 1028 
f 1010 1016 1029 
f 1016 1021 1029 
f 1022 1010 1029 
f 1014 1022 1029 
f 1026 1014 1029 
f 1021 1026 1029 
f 1009 1014 1030 
f 1014 1012 1030 
f 1018 1009 1030 
f 1012 1018 1030 
f 1015 1008 1031 
f 1008 1017 1031 
f 1025 1015 1031 
f 1017 1028 1031 
o convex_47
v 0.006778 -0.024889 0.071418
v 0.033310 -0.007586 0.069105
v 0.033310 -0.007586 0.064498
v -0.001298 -0.007586 0.076027
v -0.001298 -0.038728 0.056422
v 0.026385 -0.032961 0.058730
v 0.028692 -0.011050 0.056422
v 0.016006 -0.008742 0.078340
v 0.033310 -0.023737 0.056422
v -0.001298 -0.038728 0.061038
v -0.001298 -0.034117 0.056422
v -0.001298 -0.009898 0.079494
v 0.018313 -0.028347 0.066811
v 0.012547 -0.039884 0.058730
v 0.021771 -0.011050 0.058730
v 0.028692 -0.014515 0.070264
v 0.033310 -0.026035 0.058730
v 0.018313 -0.036423 0.056422
v 0.033310 -0.011050 0.056422
v -0.000143 -0.015668 0.077186
v 0.014854 -0.019126 0.073726
v 0.021771 -0.007586 0.065652
v 0.010240 -0.007586 0.079494
f 1043 1051 1054 
f 1033 1034 1035 
f 1034 1033 1040 
f 1036 1038 1040 
f 1035 1036 1041 
f 1036 1035 1042 
f 1038 1036 1042 
f 1035 1041 1043 
f 1032 1041 1045 
f 1041 1036 1045 
f 1037 1044 1045 
f 1044 1032 1045 
f 1042 1035 1046 
f 1038 1042 1046 
f 1033 1039 1047 
f 1044 1037 1047 
f 1040 1033 1048 
f 1037 1040 1048 
f 1033 1047 1048 
f 1047 1037 1048 
f 1036 1040 1049 
f 1040 1037 1049 
f 1045 1036 1049 
f 1037 1045 1049 
f 1038 1034 1050 
f 1034 1040 1050 
f 1040 1038 1050 
f 1041 1032 1051 
f 1043 1041 1051 
f 1032 1044 1052 
f 1047 1039 1052 
f 1044 1047 1052 
f 1051 1032 1052 
f 1039 1051 1052 
f 1035 1034 1053 
f 1034 1038 1053 
f 1046 1035 1053 
f 1038 1046 1053 
f 1033 1035 1054 
f 1039 1033 1054 
f 1035 1043 1054 
f 1051 1039 1054 
o convex_48
v -0.007066 0.077779 0.069110
v -0.023213 0.074319 0.054115
v -0.023213 0.074319 0.058732
v 0.009081 0.074319 0.070264
v 0.009081 0.080087 0.059886
v -0.022059 0.080087 0.054115
v -0.011678 0.074319 0.054115
v 0.005620 0.080087 0.066803
v -0.017444 0.074319 0.066803
v -0.016290 0.080087 0.062191
v 0.009081 0.074319 0.065650
v -0.011678 0.080087 0.054115
v -0.003608 0.075473 0.071419
f 1055 1063 1067 
f 1057 1056 1058 
f 1056 1057 1060 
f 1058 1056 1061 
f 1056 1060 1061 
f 1058 1059 1062 
f 1059 1060 1062 
f 1057 1058 1063 
f 1060 1057 1064 
f 1055 1062 1064 
f 1062 1060 1064 
f 1057 1063 1064 
f 1063 1055 1064 
f 1059 1058 1065 
f 1058 1061 1065 
f 1061 1059 1065 
f 1060 1059 1066 
f 1059 1061 1066 
f 1061 1060 1066 
f 1062 1055 1067 
f 1058 1062 1067 
f 1063 1058 1067 
o convex_49
v 0.004470 0.089316 0.022968
v 0.019466 0.100852 0.024122
v 0.024079 0.092778 0.032197
v 0.001009 0.100852 0.032197
v 0.029849 0.085855 0.022968
v 0.011392 0.085855 0.032197
v 0.001009 0.100852 0.024122
v 0.001009 0.089316 0.032197
v 0.027540 0.085855 0.032197
v 0.029849 0.090472 0.022968
v 0.011392 0.085855 0.022968
v 0.016005 0.100852 0.022968
v 0.001009 0.089316 0.024122
v 0.014853 0.100852 0.028734
f 1069 1071 1081 
f 1070 1071 1073 
f 1071 1069 1074 
f 1071 1074 1075 
f 1073 1071 1075 
f 1070 1073 1076 
f 1073 1072 1076 
f 1069 1070 1077 
f 1072 1068 1077 
f 1070 1076 1077 
f 1076 1072 1077 
f 1068 1072 1078 
f 1072 1073 1078 
f 1073 1075 1078 
f 1074 1069 1079 
f 1068 1074 1079 
f 1069 1077 1079 
f 1077 1068 1079 
f 1074 1068 1080 
f 1075 1074 1080 
f 1068 1078 1080 
f 1078 1075 1080 
f 1070 1069 1081 
f 1071 1070 1081 
o convex_50
v 0.032154 0.090468 0.017196
v 0.024080 0.085855 -0.001257
v 0.011393 0.085855 0.020661
v 0.007931 0.093930 0.021811
v 0.033305 0.093930 -0.001257
v 0.029845 0.085855 0.022968
v 0.027539 0.093930 0.022968
v 0.033305 0.087009 -0.001257
v 0.024080 0.093930 -0.001257
v 0.011393 0.085855 0.022968
f 1088 1085 1091 
f 1083 1084 1085 
f 1084 1083 1087 
f 1087 1082 1088 
f 1082 1086 1088 
f 1086 1085 1088 
f 1086 1082 1089 
f 1083 1086 1089 
f 1087 1083 1089 
f 1082 1087 1089 
f 1083 1085 1090 
f 1085 1086 1090 
f 1086 1083 1090 
f 1085 1084 1091 
f 1084 1087 1091 
f 1087 1088 1091 
