o convex_0
v 0.059992 0.010394 -0.148027
v -0.060256 -0.009644 -0.174732
v -0.060256 -0.009644 -0.162714
v -0.013480 0.087867 -0.081238
v 0.011885 0.059801 -0.192099
v 0.010555 -0.057747 -0.145347
v -0.009478 -0.000284 -0.079887
v 0.037274 -0.048387 -0.192099
v 0.050634 0.055788 -0.079887
v -0.049569 0.035764 -0.192099
v -0.050899 0.054470 -0.079887
v -0.037539 -0.048387 -0.192099
v -0.037539 -0.039042 -0.132011
v 0.057308 0.021073 -0.192099
v 0.042618 -0.028349 -0.125332
v 0.030589 0.081187 -0.079887
v 0.046620 0.022391 -0.079887
v -0.045555 0.021058 -0.079887
v -0.021508 0.057121 -0.192099
v 0.057308 -0.020337 -0.156035
v 0.010555 -0.043041 -0.119982
v 0.039946 0.046457 -0.192099
v -0.036197 0.077174 -0.079887
v -0.060256 0.009061 -0.192099
v -0.006806 -0.060428 -0.190770
v -0.016164 -0.053734 -0.137328
v 0.059992 -0.010977 -0.192099
v -0.054901 -0.021670 -0.144006
v 0.038605 -0.044388 -0.144006
v 0.021243 0.002382 -0.079887
v 0.013227 0.087867 -0.081238
v 0.043948 0.069161 -0.081238
v -0.022838 -0.037694 -0.118642
v -0.054901 -0.027016 -0.190770
v -0.038869 -0.047054 -0.157364
v 0.057308 -0.005630 -0.134680
v -0.050899 0.033084 -0.079887
v 0.019901 -0.057747 -0.192099
v -0.016164 -0.059080 -0.165383
v 0.029259 -0.039027 -0.123992
v -0.060256 0.001034 -0.148016
v -0.036197 0.049123 -0.192099
v 0.049292 -0.036361 -0.190770
v -0.032195 0.007728 -0.079887
v 0.051964 0.039763 -0.079887
v 0.021243 0.057121 -0.192099
v -0.012150 0.059816 -0.192099
v -0.002804 0.089214 -0.081238
v -0.042883 0.070494 -0.081238
v -0.056243 0.023739 -0.192099
v 0.025245 -0.055067 -0.154695
v -0.028182 0.082520 -0.081238
v 0.049292 -0.029682 -0.138668
v 0.050634 0.034431 -0.190770
v -0.048227 -0.024350 -0.129330
v -0.008148 -0.047054 -0.123992
v 0.035933 0.010394 -0.079887
v -0.049569 -0.035028 -0.154695
v 0.003870 -0.060428 -0.157364
v 0.047962 -0.037709 -0.158704
v 0.015899 -0.051053 -0.132011
v 0.059992 -0.000299 -0.145347
v 0.059992 0.010394 -0.192099
v -0.060256 0.010394 -0.157364
f 41 11 64 
f 5 8 10 
f 7 9 11 
f 10 8 12 
f 8 5 14 
f 11 9 16 
f 9 7 17 
f 7 11 18 
f 5 10 19 
f 14 5 22 
f 11 16 23 
f 2 3 24 
f 10 12 24 
f 8 14 27 
f 17 7 30 
f 7 21 30 
f 9 14 32 
f 16 9 32 
f 22 16 32 
f 13 26 33 
f 3 2 34 
f 2 24 34 
f 24 12 34 
f 28 3 34 
f 26 13 35 
f 18 11 37 
f 12 8 38 
f 25 12 38 
f 12 25 39 
f 35 12 39 
f 26 35 39 
f 29 15 40 
f 30 21 40 
f 24 3 41 
f 3 28 41 
f 37 11 41 
f 28 37 41 
f 19 10 42 
f 8 27 43 
f 27 20 43 
f 7 18 44 
f 18 13 44 
f 33 7 44 
f 13 33 44 
f 1 9 45 
f 9 17 45 
f 17 36 45 
f 22 5 46 
f 16 22 46 
f 5 31 46 
f 31 16 46 
f 19 4 47 
f 5 19 47 
f 4 23 48 
f 23 16 48 
f 31 5 48 
f 16 31 48 
f 47 4 48 
f 5 47 48 
f 11 23 49 
f 42 10 49 
f 23 42 49 
f 24 11 50 
f 10 24 50 
f 49 10 50 
f 11 49 50 
f 8 29 51 
f 38 8 51 
f 4 19 52 
f 23 4 52 
f 19 42 52 
f 42 23 52 
f 17 15 53 
f 15 29 53 
f 36 17 53 
f 20 36 53 
f 14 22 54 
f 32 14 54 
f 22 32 54 
f 13 18 55 
f 18 37 55 
f 37 28 55 
f 21 7 56 
f 26 6 56 
f 7 33 56 
f 33 26 56 
f 15 17 57 
f 17 30 57 
f 40 15 57 
f 30 40 57 
f 34 12 58 
f 28 34 58 
f 12 35 58 
f 35 13 58 
f 13 55 58 
f 55 28 58 
f 6 26 59 
f 25 38 59 
f 39 25 59 
f 26 39 59 
f 51 6 59 
f 38 51 59 
f 29 8 60 
f 8 43 60 
f 43 20 60 
f 53 29 60 
f 20 53 60 
f 40 21 61 
f 29 40 61 
f 6 51 61 
f 51 29 61 
f 56 6 61 
f 21 56 61 
f 27 1 62 
f 20 27 62 
f 36 20 62 
f 1 45 62 
f 45 36 62 
f 9 1 63 
f 14 9 63 
f 1 27 63 
f 27 14 63 
f 11 24 64 
f 24 41 64 
o convex_1
v -0.012154 0.001032 -0.079885
v 0.011889 0.095895 -0.059847
v 0.017236 0.094557 -0.059847
v -0.020168 0.009055 -0.059847
v -0.049558 0.059820 -0.079885
v 0.051972 0.049123 -0.079885
v 0.043958 0.023754 -0.059847
v -0.053576 0.046476 -0.059847
v 0.009211 0.089209 -0.079885
v -0.034858 0.086535 -0.059847
v 0.046626 0.074510 -0.059847
v 0.022582 0.003716 -0.079885
v -0.044212 0.019743 -0.079885
v -0.020168 0.086535 -0.079885
v 0.038601 0.075847 -0.079885
v 0.019904 0.009064 -0.059847
v 0.045286 0.021080 -0.079885
v 0.053311 0.043793 -0.059847
v -0.038865 0.018406 -0.059847
v -0.012154 0.095895 -0.061185
v -0.050897 0.066496 -0.059847
v -0.042883 0.071845 -0.078547
v -0.050897 0.033114 -0.079885
v -0.030851 0.007718 -0.078547
v 0.030597 0.089200 -0.061185
v -0.046890 0.027756 -0.059847
v 0.005204 0.001032 -0.077211
v 0.033265 0.009064 -0.078547
v 0.051972 0.062485 -0.063857
v 0.023911 0.085198 -0.079885
v 0.046626 0.066487 -0.078547
v -0.052226 0.049113 -0.078547
v 0.033265 0.014404 -0.059847
v 0.050633 0.033105 -0.079885
v -0.046890 0.074510 -0.061185
v -0.033529 0.079849 -0.079885
v -0.025515 0.091883 -0.061185
v -0.001461 0.091883 -0.074539
v 0.049294 0.031777 -0.059847
v 0.042618 0.079849 -0.061185
v -0.053576 0.057146 -0.061185
v 0.053311 0.058473 -0.059847
v -0.009486 0.089209 -0.079885
v -0.022836 0.003707 -0.079885
v -0.028183 0.011729 -0.059847
v 0.002536 0.095895 -0.063857
v 0.011889 0.001032 -0.078547
v -0.050897 0.035789 -0.059847
v 0.015897 0.094557 -0.062521
v -0.038865 0.081186 -0.066528
v -0.046890 0.023754 -0.077211
v -0.012154 0.095895 -0.059847
f 84 101 116 
f 67 66 68 
f 65 69 70 
f 67 68 71 
f 68 66 72 
f 70 69 73 
f 72 66 74 
f 67 71 75 
f 65 70 76 
f 69 65 77 
f 73 69 78 
f 70 73 79 
f 71 68 80 
f 76 70 81 
f 75 71 82 
f 68 72 83 
f 72 74 85 
f 69 77 87 
f 83 77 88 
f 67 75 89 
f 83 72 90 
f 77 83 90 
f 68 65 91 
f 80 68 91 
f 81 71 92 
f 76 81 92 
f 79 73 94 
f 89 79 94 
f 70 79 95 
f 93 70 95 
f 75 93 95 
f 69 87 96 
f 87 72 96 
f 71 80 97 
f 80 76 97 
f 92 71 97 
f 76 92 97 
f 81 70 98 
f 70 82 98 
f 69 85 99 
f 85 74 99 
f 86 69 99 
f 78 69 100 
f 69 86 100 
f 84 78 101 
f 78 100 101 
f 100 74 101 
f 71 81 103 
f 82 71 103 
f 81 98 103 
f 98 82 103 
f 89 75 104 
f 79 89 104 
f 95 79 104 
f 75 95 104 
f 85 69 105 
f 72 85 105 
f 69 96 105 
f 96 72 105 
f 82 70 106 
f 75 82 106 
f 70 93 106 
f 93 75 106 
f 73 78 107 
f 78 84 107 
f 102 73 107 
f 84 102 107 
f 65 68 108 
f 77 65 108 
f 88 77 108 
f 88 108 109 
f 68 83 109 
f 83 88 109 
f 108 68 109 
f 84 66 110 
f 73 102 110 
f 102 84 110 
f 65 76 111 
f 76 80 111 
f 91 65 111 
f 80 91 111 
f 72 87 112 
f 90 72 112 
f 66 67 113 
f 67 89 113 
f 94 73 113 
f 89 94 113 
f 110 66 113 
f 73 110 113 
f 99 74 114 
f 86 99 114 
f 74 100 114 
f 100 86 114 
f 87 77 115 
f 77 90 115 
f 112 87 115 
f 90 112 115 
f 74 66 116 
f 66 84 116 
f 101 74 116 
o convex_2
v 0.022572 0.097224 -0.050494
v -0.054912 0.043806 -0.045149
v -0.054912 0.043806 -0.042476
v 0.041275 -0.008320 -0.042476
v -0.008148 -0.008320 -0.059845
v -0.044220 0.078520 -0.059845
v 0.053302 0.058482 -0.059845
v 0.046626 0.082526 -0.042476
v -0.025516 0.098559 -0.042476
v -0.041549 -0.008320 -0.042476
v -0.050896 0.035773 -0.059845
v 0.003868 0.097224 -0.059845
v 0.043956 0.023756 -0.059845
v 0.055983 0.053119 -0.042476
v -0.052231 0.073180 -0.042476
v 0.037269 0.085196 -0.059845
v 0.023918 -0.008320 -0.055836
v 0.011890 0.102575 -0.042476
v -0.053566 0.058482 -0.059845
v -0.029522 -0.008320 -0.053163
v 0.051967 0.038443 -0.059845
v -0.014824 0.095888 -0.059845
v -0.009483 0.102575 -0.045149
v -0.034863 0.093218 -0.045149
v 0.007885 -0.008320 -0.059845
v 0.030593 0.095888 -0.043812
v -0.042885 0.022410 -0.059845
v 0.050632 0.069163 -0.058509
v 0.053302 0.070487 -0.043812
v 0.035934 -0.008320 -0.049158
v -0.033527 0.087877 -0.059845
v 0.054637 0.042471 -0.045149
v 0.019912 0.094553 -0.059845
v -0.045555 0.083861 -0.042476
v -0.054912 0.063822 -0.045149
v -0.037533 -0.008320 -0.047821
v -0.053566 0.043806 -0.058509
v -0.020165 -0.008320 -0.057173
v -0.050896 0.067828 -0.059845
v 0.045291 0.077185 -0.059845
v 0.039940 0.089202 -0.045149
v 0.041275 -0.008320 -0.043812
v -0.021500 0.097224 -0.051827
v 0.053302 0.042471 -0.058509
v 0.009220 0.102575 -0.045149
v -0.041549 -0.008320 -0.043812
v -0.049560 0.078520 -0.043812
v 0.029258 0.090548 -0.059845
v 0.049297 0.031767 -0.059845
v 0.015896 -0.008320 -0.058509
f 133 141 166 
f 121 122 123 
f 119 120 124 
f 119 124 125 
f 119 118 126 
f 120 119 126 
f 121 120 126 
f 122 121 127 
f 123 122 128 
f 121 123 129 
f 124 120 130 
f 119 125 131 
f 123 128 132 
f 120 121 133 
f 125 124 134 
f 122 127 135 
f 121 126 136 
f 129 123 137 
f 128 122 138 
f 125 134 139 
f 128 138 139 
f 121 129 141 
f 133 121 141 
f 117 134 142 
f 134 124 142 
f 127 121 143 
f 130 123 145 
f 124 130 145 
f 123 144 145 
f 144 124 145 
f 120 133 146 
f 133 129 146 
f 138 122 147 
f 122 140 147 
f 130 120 148 
f 132 128 149 
f 131 125 150 
f 125 140 150 
f 140 122 150 
f 118 119 151 
f 119 131 151 
f 135 118 151 
f 136 126 152 
f 127 143 152 
f 143 136 152 
f 118 135 153 
f 135 127 153 
f 121 136 154 
f 143 121 154 
f 136 143 154 
f 122 135 155 
f 151 131 155 
f 135 151 155 
f 123 132 156 
f 144 123 156 
f 124 144 156 
f 142 124 157 
f 156 132 157 
f 124 156 157 
f 120 146 158 
f 148 120 158 
f 125 139 159 
f 139 138 159 
f 140 125 159 
f 138 147 159 
f 147 140 159 
f 123 130 160 
f 137 123 160 
f 130 148 160 
f 158 137 160 
f 148 158 160 
f 134 117 161 
f 139 134 161 
f 128 139 161 
f 149 128 161 
f 117 149 161 
f 126 118 162 
f 152 126 162 
f 127 152 162 
f 118 153 162 
f 153 127 162 
f 131 150 163 
f 150 122 163 
f 122 155 163 
f 155 131 163 
f 117 142 164 
f 132 149 164 
f 149 117 164 
f 142 157 164 
f 157 132 164 
f 129 137 165 
f 146 129 165 
f 137 158 165 
f 158 146 165 
f 129 133 166 
f 141 129 166 
o convex_3
v -0.006815 0.086527 0.053720
v -0.048231 -0.008320 0.035020
v -0.044222 -0.008320 0.035020
v 0.001203 -0.002973 0.060400
v 0.003876 0.007721 0.035020
v 0.003876 0.105247 0.035020
v -0.041545 0.066484 0.041700
v -0.026845 0.018404 0.055056
v -0.037536 0.086527 0.035020
v 0.003876 0.053144 0.060400
v -0.018842 0.054455 0.057727
v -0.034868 -0.008320 0.049712
v 0.003876 -0.008320 0.057727
v -0.025514 0.089206 0.045707
v -0.013497 -0.008320 0.059064
v 0.003876 0.095887 0.048376
v -0.038877 0.043795 0.047044
v -0.016169 0.102568 0.037693
v -0.048231 0.047808 0.036356
v -0.026845 0.069163 0.052383
v -0.046895 -0.008320 0.039029
v -0.009488 0.037125 0.060400
v -0.001469 0.069163 0.059064
v -0.013497 0.079857 0.055056
v -0.008151 0.098555 0.045707
v -0.028186 0.054455 0.053720
v 0.003876 0.079846 0.056390
v -0.045559 0.066484 0.035020
v -0.025514 0.098555 0.035020
v -0.034868 0.081180 0.043037
v -0.022836 -0.008320 0.056390
v -0.016169 0.026419 0.059064
v -0.037536 0.007721 0.048376
v -0.010824 0.061148 0.059064
v -0.048231 0.026419 0.037693
v -0.002806 0.105247 0.037693
v -0.034868 0.062470 0.048376
v -0.016169 0.087861 0.051049
v -0.033527 0.043795 0.051049
v -0.025514 0.081180 0.049712
v -0.042886 0.075833 0.036356
v -0.029523 0.093219 0.039029
v -0.018842 0.095887 0.044371
v -0.017511 0.069163 0.056390
v 0.003876 -0.008320 0.059064
f 181 179 211 
f 169 168 171 
f 171 168 172 
f 172 168 175 
f 171 172 176 
f 168 169 178 
f 169 171 179 
f 171 176 179 
f 178 169 179 
f 178 179 181 
f 176 172 182 
f 183 173 185 
f 168 178 187 
f 170 176 188 
f 181 170 188 
f 189 167 190 
f 167 182 191 
f 174 177 192 
f 182 167 193 
f 176 182 193 
f 167 189 193 
f 189 176 193 
f 175 168 194 
f 168 185 194 
f 185 173 194 
f 172 175 195 
f 184 172 195 
f 174 178 197 
f 178 181 197 
f 177 174 198 
f 188 177 198 
f 181 188 198 
f 174 197 198 
f 197 181 198 
f 178 174 199 
f 187 178 199 
f 183 187 199 
f 188 176 200 
f 177 188 200 
f 176 189 200 
f 189 190 200 
f 185 168 201 
f 183 185 201 
f 168 187 201 
f 187 183 201 
f 182 172 202 
f 172 184 202 
f 191 182 202 
f 184 191 202 
f 173 183 203 
f 192 186 203 
f 186 196 203 
f 196 173 203 
f 190 167 204 
f 167 191 204 
f 174 192 205 
f 199 174 205 
f 183 199 205 
f 203 183 205 
f 192 203 205 
f 180 196 206 
f 196 186 206 
f 204 180 206 
f 190 204 206 
f 175 194 207 
f 194 173 207 
f 196 175 207 
f 173 196 207 
f 195 175 208 
f 184 195 208 
f 175 196 208 
f 196 180 208 
f 191 184 209 
f 180 204 209 
f 204 191 209 
f 208 180 209 
f 184 208 209 
f 192 177 210 
f 186 192 210 
f 177 200 210 
f 200 190 210 
f 206 186 210 
f 190 206 210 
f 176 170 211 
f 179 176 211 
f 170 181 211 
o convex_4
v 0.054642 0.073167 -0.029111
v 0.007886 0.107914 0.031009
v 0.003876 0.107914 0.031009
v 0.051972 -0.008320 0.031009
v 0.003876 0.007723 -0.042476
v 0.003876 0.103900 -0.042476
v 0.003876 0.007723 0.031009
v 0.042618 -0.008320 -0.042476
v 0.046627 0.075839 0.031009
v 0.059992 -0.004307 -0.003734
v 0.043958 0.086539 -0.042476
v 0.031934 0.103900 0.008293
v 0.058651 0.055806 0.008293
v 0.055982 0.050474 -0.042476
v 0.018575 0.109244 -0.015754
v 0.049297 0.086539 0.002948
v 0.055982 -0.008320 -0.023767
v 0.033269 0.095884 0.031009
v 0.057317 0.034442 0.020313
v 0.038613 -0.008320 -0.041138
v 0.059992 0.046460 -0.010402
v 0.003876 0.111928 -0.013078
v 0.035938 0.098556 -0.026443
v 0.059992 0.009065 0.010962
v 0.017235 0.110586 0.010962
v 0.026595 0.098556 -0.042476
v 0.045287 0.091871 -0.017084
v 0.055982 0.071837 0.002941
v 0.050637 0.058478 0.031009
v 0.049297 -0.008320 0.031009
v 0.057317 -0.008320 0.018975
v 0.046627 0.087869 0.014975
v 0.054642 0.066482 -0.042476
v 0.058651 0.061150 -0.015746
v 0.054642 0.069165 0.016306
v 0.023920 0.105242 0.024326
v 0.049297 -0.006967 -0.035794
v 0.003876 0.111928 0.016306
v 0.059992 0.007723 -0.010402
v 0.031934 0.103900 -0.011740
v 0.038613 0.098556 0.009631
v 0.051972 0.082513 -0.014416
v 0.013230 0.105242 -0.035794
v 0.049297 0.081183 -0.038462
v 0.053307 0.031770 0.029671
v 0.058651 -0.006978 -0.014416
v 0.025254 0.105242 -0.023767
v 0.059992 0.050474 -0.001065
v 0.011896 0.111928 -0.006388
v 0.025254 0.107914 -0.005079
v 0.055982 0.007723 0.024326
v 0.041283 0.091871 0.022988
v 0.055982 0.053134 0.020313
v 0.050637 0.078511 0.018982
v 0.033269 0.099886 0.022988
v 0.057317 0.055806 -0.033118
v 0.054642 0.041128 -0.042476
v 0.009221 0.109244 -0.025105
v 0.055982 0.071837 -0.019753
v 0.038613 0.098556 -0.017084
v 0.026595 0.101228 0.031009
v 0.041283 0.087869 0.029671
v 0.059992 0.026426 0.009624
v 0.013230 0.107914 0.028333
f 272 247 275 
f 213 214 215 
f 216 214 217 
f 215 214 218 
f 214 216 218 
f 216 217 219 
f 213 215 220 
f 219 217 222 
f 219 222 225 
f 215 219 228 
f 213 220 229 
f 218 216 231 
f 216 219 231 
f 219 215 231 
f 217 214 233 
f 221 232 235 
f 222 217 237 
f 234 222 237 
f 220 215 240 
f 215 218 241 
f 231 215 241 
f 218 231 241 
f 215 228 242 
f 221 235 242 
f 225 222 244 
f 224 239 246 
f 220 240 246 
f 223 236 247 
f 228 219 248 
f 214 213 249 
f 233 214 249 
f 232 221 250 
f 227 238 252 
f 243 227 252 
f 251 223 252 
f 238 227 253 
f 227 239 253 
f 237 217 254 
f 222 238 255 
f 212 244 255 
f 244 222 255 
f 253 212 255 
f 238 253 255 
f 240 215 256 
f 228 225 257 
f 242 228 257 
f 221 242 257 
f 250 221 257 
f 225 250 257 
f 234 237 258 
f 251 234 258 
f 254 226 258 
f 237 254 258 
f 235 232 259 
f 239 224 259 
f 232 245 259 
f 245 239 259 
f 233 249 260 
f 249 236 260 
f 236 223 261 
f 223 251 261 
f 258 226 261 
f 251 258 261 
f 226 260 261 
f 260 236 261 
f 235 230 262 
f 215 242 262 
f 242 235 262 
f 256 215 262 
f 230 256 262 
f 243 252 263 
f 230 224 264 
f 224 246 264 
f 246 240 264 
f 240 256 264 
f 256 230 264 
f 239 227 265 
f 227 243 265 
f 246 239 265 
f 220 246 265 
f 223 247 266 
f 252 223 266 
f 229 263 266 
f 263 252 266 
f 225 244 267 
f 245 232 267 
f 244 245 267 
f 250 225 267 
f 232 250 267 
f 219 225 268 
f 225 228 268 
f 248 219 268 
f 228 248 268 
f 217 233 269 
f 254 217 269 
f 226 254 269 
f 260 226 269 
f 233 260 269 
f 244 212 270 
f 239 245 270 
f 245 244 270 
f 212 253 270 
f 253 239 270 
f 222 234 271 
f 238 222 271 
f 234 251 271 
f 252 238 271 
f 251 252 271 
f 213 229 272 
f 229 266 272 
f 266 247 272 
f 229 220 273 
f 263 229 273 
f 243 263 273 
f 265 243 273 
f 220 265 273 
f 224 230 274 
f 230 235 274 
f 259 224 274 
f 235 259 274 
f 247 236 275 
f 249 213 275 
f 236 249 275 
f 213 272 275 
o convex_5
v 0.037271 0.090535 0.032347
v 0.003876 -0.008298 0.057730
v 0.047964 -0.008320 0.031009
v 0.003876 0.007728 0.031009
v 0.003876 0.106572 0.031009
v 0.019912 0.063814 0.056392
v 0.003876 0.086531 0.053722
v 0.038613 -0.008298 0.047041
v 0.045294 0.058472 0.039028
v 0.009224 0.018412 0.060403
v 0.050638 0.050453 0.031009
v 0.023924 0.090535 0.045706
v 0.031928 0.035788 0.052384
v 0.022586 -0.008298 0.056392
v 0.050638 -0.008320 0.033682
v 0.003876 0.066490 0.059065
v 0.034602 0.070494 0.047041
v 0.011899 0.103895 0.037690
v 0.025251 0.101219 0.031009
v 0.015905 0.042468 0.059065
v 0.047964 0.035777 0.037690
v 0.046631 0.073171 0.032347
v 0.019912 0.077174 0.053722
v 0.038613 0.047810 0.047041
v 0.005218 0.095877 0.048376
v 0.033269 0.081178 0.044371
v 0.003876 0.009067 0.060403
v 0.013231 -0.008298 0.059065
v 0.026588 0.062475 0.053722
v 0.018580 0.089197 0.049714
v 0.023924 0.041130 0.056392
v 0.026588 0.095877 0.039028
v 0.010562 0.071832 0.057730
v 0.041283 0.085193 0.031009
v 0.031928 0.011732 0.052384
v 0.051975 0.013070 0.032347
v 0.005218 0.046472 0.060403
v 0.015905 0.097215 0.044371
v 0.046631 -0.008320 0.039028
v 0.003876 0.101219 0.043036
v 0.038613 0.078513 0.040363
v 0.011899 0.059810 0.059065
v 0.050638 0.050453 0.032347
v 0.026588 0.079851 0.049714
v 0.050638 -0.008320 0.031009
v 0.009224 0.082516 0.055057
v 0.034602 0.089197 0.037690
f 316 309 322 
f 278 277 279 
f 278 279 280 
f 279 277 280 
f 280 277 282 
f 278 280 286 
f 282 277 291 
f 286 280 294 
f 280 293 294 
f 288 283 299 
f 284 292 299 
f 296 284 299 
f 291 277 302 
f 295 285 303 
f 289 295 303 
f 302 277 303 
f 285 302 303 
f 298 281 304 
f 288 299 304 
f 299 292 304 
f 281 295 306 
f 295 289 306 
f 304 281 306 
f 288 304 306 
f 294 293 307 
f 276 294 307 
f 281 298 308 
f 294 276 309 
f 286 294 309 
f 297 286 309 
f 283 288 310 
f 289 283 310 
f 288 306 310 
f 306 289 310 
f 285 295 312 
f 302 285 312 
f 291 302 312 
f 305 287 313 
f 300 305 313 
f 307 293 313 
f 287 307 313 
f 277 278 314 
f 283 289 314 
f 278 290 314 
f 299 283 314 
f 296 299 314 
f 303 277 314 
f 289 303 314 
f 290 311 314 
f 311 296 314 
f 280 282 315 
f 293 280 315 
f 282 300 315 
f 313 293 315 
f 300 313 315 
f 292 284 316 
f 284 297 316 
f 301 292 316 
f 297 309 316 
f 295 281 317 
f 308 291 317 
f 281 308 317 
f 312 295 317 
f 291 312 317 
f 284 296 318 
f 297 284 318 
f 286 297 318 
f 311 286 318 
f 296 311 318 
f 301 287 319 
f 292 301 319 
f 298 304 319 
f 304 292 319 
f 287 305 319 
f 305 298 319 
f 278 286 320 
f 290 278 320 
f 286 311 320 
f 311 290 320 
f 282 291 321 
f 300 282 321 
f 298 305 321 
f 305 300 321 
f 291 308 321 
f 308 298 321 
f 287 301 322 
f 276 307 322 
f 307 287 322 
f 309 276 322 
f 301 316 322 
o convex_6
v -0.054910 0.073174 -0.026440
v -0.037543 0.085195 0.035017
v -0.037543 0.087874 0.032339
v -0.038879 -0.008320 -0.042476
v -0.056246 -0.008320 0.022987
v -0.037543 0.090542 -0.042476
v -0.037543 0.007719 0.035017
v -0.054910 0.042466 -0.042476
v -0.058918 0.055795 0.006958
v -0.058918 -0.008320 -0.013075
v -0.049565 0.043795 0.035017
v -0.045562 0.091881 0.004281
v -0.045562 -0.008320 0.035017
v -0.052238 0.074513 0.018981
v -0.056246 0.057134 -0.041133
v -0.037543 0.007719 -0.042476
v -0.048234 -0.008320 -0.037128
v -0.060254 0.023758 0.008293
v -0.038879 0.098567 -0.014417
v -0.048234 0.081188 -0.042476
v -0.060254 0.038459 -0.009070
v -0.056246 0.043795 0.021651
v -0.057582 0.067827 -0.010405
v -0.060254 -0.008320 0.004281
v -0.049565 0.086535 -0.015752
v -0.048234 0.063820 0.033674
v -0.038879 0.094549 0.022987
v -0.049565 -0.008320 0.035017
v -0.054910 0.075842 -0.002394
v -0.056246 -0.008320 -0.022428
v -0.037543 0.098567 0.008293
v -0.045562 0.083867 0.025664
v -0.053574 0.018412 0.029669
v -0.060254 0.009058 -0.009070
v -0.058918 0.059813 -0.013075
v -0.042889 -0.008320 -0.042476
v -0.041551 0.091881 -0.034451
v -0.053574 0.057134 0.025664
v -0.050902 0.082527 0.009629
v -0.057582 0.026426 0.020316
v -0.054910 0.065149 -0.042476
v -0.056246 0.066488 0.012299
v -0.042889 0.078520 0.035017
v -0.058918 -0.008320 0.013634
v -0.060254 0.043795 0.001611
v -0.057582 0.049120 0.016311
v -0.052238 0.075842 -0.038463
v -0.044223 0.093220 -0.017080
v -0.056246 0.051788 -0.041133
v -0.046895 0.086535 0.017646
v -0.053574 0.078520 -0.019758
v -0.053574 0.042466 0.028334
v -0.050902 -0.008320 -0.033123
v -0.038879 0.098567 0.008293
v -0.056246 0.070495 0.005616
v -0.057582 0.063820 -0.023770
f 323 363 378 
f 325 324 328 
f 328 324 329 
f 328 326 330 
f 326 327 332 
f 329 324 333 
f 327 326 335 
f 326 329 335 
f 329 333 335 
f 326 328 338 
f 329 326 338 
f 328 329 338 
f 326 332 339 
f 328 330 342 
f 332 327 346 
f 340 343 346 
f 327 335 350 
f 335 333 350 
f 339 332 352 
f 325 328 353 
f 328 341 353 
f 349 325 353 
f 325 349 354 
f 327 350 355 
f 350 333 355 
f 343 337 356 
f 332 346 356 
f 346 343 356 
f 337 343 357 
f 331 345 357 
f 330 326 358 
f 326 339 358 
f 339 330 358 
f 341 328 359 
f 328 342 359 
f 348 336 360 
f 334 347 361 
f 347 351 361 
f 327 355 362 
f 330 337 363 
f 342 330 363 
f 360 336 364 
f 324 325 365 
f 333 324 365 
f 348 333 365 
f 336 348 365 
f 325 354 365 
f 354 336 365 
f 346 327 366 
f 340 346 366 
f 327 362 366 
f 362 340 366 
f 340 331 367 
f 343 340 367 
f 331 357 367 
f 357 343 367 
f 331 340 368 
f 344 360 368 
f 340 362 368 
f 362 344 368 
f 364 331 368 
f 360 364 368 
f 347 342 369 
f 342 363 369 
f 363 323 369 
f 347 334 370 
f 342 347 370 
f 341 359 370 
f 359 342 370 
f 337 330 371 
f 330 352 371 
f 352 332 371 
f 332 356 371 
f 356 337 371 
f 349 334 372 
f 336 354 372 
f 354 349 372 
f 334 361 372 
f 361 336 372 
f 323 345 373 
f 345 351 373 
f 351 347 373 
f 347 369 373 
f 369 323 373 
f 333 348 374 
f 355 333 374 
f 360 344 374 
f 348 360 374 
f 344 362 374 
f 362 355 374 
f 330 339 375 
f 352 330 375 
f 339 352 375 
f 334 349 376 
f 353 341 376 
f 349 353 376 
f 370 334 376 
f 341 370 376 
f 345 331 377 
f 351 345 377 
f 336 361 377 
f 361 351 377 
f 331 364 377 
f 364 336 377 
f 345 323 378 
f 337 357 378 
f 357 345 378 
f 363 337 378 
o convex_7
v -0.026850 0.106579 -0.011740
v 0.002538 0.106569 0.035017
v -0.002809 0.106569 0.035017
v 0.003876 0.007713 -0.042476
v -0.037541 0.007713 0.035017
v -0.037541 0.007713 -0.042476
v 0.003876 0.103903 -0.042476
v 0.003876 0.007713 0.035017
v -0.037541 0.089201 0.033674
v -0.037541 0.091877 -0.042476
v 0.003876 0.111921 0.017639
v -0.030860 0.103903 0.013634
v -0.010820 0.109255 -0.023770
v -0.037541 0.099894 -0.013075
v -0.012158 0.111921 0.009629
v -0.026850 0.098551 0.035017
v 0.003876 0.111921 -0.013075
v -0.021507 0.101227 -0.041133
v -0.016168 0.107902 0.025664
v 0.003876 0.105236 0.035017
v -0.037541 0.097218 0.018981
v -0.012158 0.111921 -0.005065
v -0.033531 0.099894 -0.027775
v -0.037541 0.087868 0.035017
v -0.025516 0.107912 0.002946
v -0.001471 0.113264 -0.002394
v -0.024178 0.106579 -0.019758
v -0.014830 0.102570 -0.042476
v -0.006815 0.110588 0.022987
v -0.025516 0.105236 0.021651
v -0.002809 0.109255 -0.026440
v -0.036203 0.101227 0.002946
v -0.016168 0.103903 0.035017
v -0.017501 0.110588 -0.007735
v -0.033531 0.097218 0.028334
v -0.018835 0.109255 0.016311
v -0.008149 0.111921 -0.011740
f 412 400 415 
f 380 381 383 
f 382 383 384 
f 382 384 385 
f 383 382 386 
f 380 383 386 
f 382 385 386 
f 384 383 387 
f 384 387 388 
f 385 384 388 
f 386 385 389 
f 388 387 392 
f 383 381 394 
f 389 385 395 
f 380 386 398 
f 389 380 398 
f 386 389 398 
f 392 387 399 
f 388 392 401 
f 392 379 401 
f 396 388 401 
f 387 383 402 
f 383 394 402 
f 394 387 402 
f 379 392 403 
f 393 389 404 
f 389 395 404 
f 400 393 404 
f 391 396 405 
f 401 379 405 
f 396 401 405 
f 385 388 406 
f 388 396 406 
f 396 391 406 
f 381 380 407 
f 380 389 407 
f 389 393 407 
f 397 381 407 
f 395 385 409 
f 385 406 409 
f 406 391 409 
f 392 399 410 
f 399 390 410 
f 403 392 410 
f 390 403 410 
f 394 381 411 
f 381 397 411 
f 397 408 411 
f 408 394 411 
f 393 400 412 
f 379 403 412 
f 403 393 412 
f 391 405 412 
f 405 379 412 
f 387 394 413 
f 399 387 413 
f 390 399 413 
f 394 408 413 
f 408 390 413 
f 403 390 414 
f 393 403 414 
f 407 393 414 
f 397 407 414 
f 408 397 414 
f 390 408 414 
f 404 395 415 
f 400 404 415 
f 395 409 415 
f 409 391 415 
f 391 412 415 
