o convex_0
v 0.020948 -0.013720 0.108864
v -0.060379 -0.008386 0.007562
v -0.060379 -0.008386 0.023572
v 0.051605 0.078263 0.036895
v 0.035607 -0.049715 0.007562
v -0.043042 0.078263 0.071547
v -0.013702 0.078263 0.002222
v -0.033705 -0.039047 0.088868
v 0.059615 -0.012390 0.007562
v 0.022276 0.078263 0.086203
v 0.046272 -0.024388 0.083539
v -0.023039 -0.056380 0.007573
v 0.010271 -0.055063 0.082206
v -0.036371 0.011593 0.100881
v 0.054271 0.030256 0.074201
v -0.049714 0.078263 0.030223
v -0.056374 0.015597 0.071547
v 0.031613 0.078263 0.008894
v -0.011047 0.034260 0.106210
v -0.008369 -0.028379 0.108875
v -0.051041 -0.031053 0.054216
v 0.031613 0.015584 0.103535
v 0.043606 -0.041721 0.052894
v -0.003048 -0.060397 0.054238
v 0.043606 0.076919 0.071537
v 0.059615 -0.003052 0.052894
v 0.059615 0.012923 0.007562
v -0.019046 0.078263 0.087547
v -0.027045 -0.052389 0.068872
v -0.048375 -0.037717 0.007562
v -0.059040 0.015597 0.007562
v -0.052369 0.078263 0.046222
v 0.024942 -0.044381 0.091544
v 0.014277 -0.059053 0.007562
v -0.051041 -0.017724 0.078209
v 0.000945 0.016927 0.111540
v 0.012950 0.078263 0.002222
v 0.026281 -0.053719 0.063532
v -0.008369 -0.051059 0.091544
v -0.033705 0.078263 0.010226
v -0.024378 -0.013720 0.107543
v 0.048938 0.000939 0.087547
v -0.040376 0.034246 0.092865
v 0.052944 -0.029722 0.039560
v -0.060379 0.004943 0.042236
v 0.042279 0.036920 0.090211
v 0.051605 0.078263 0.052894
v 0.010271 0.042254 0.103535
v -0.045709 -0.005712 0.091544
v 0.010271 -0.039061 0.103535
v 0.032941 -0.024388 0.099538
v -0.051041 0.038250 0.078209
v 0.058276 0.023592 0.058213
v -0.039037 -0.047041 0.038238
v 0.048938 -0.036387 0.007562
v 0.043606 0.078263 0.019564
v -0.024378 0.020918 0.106200
v -0.057701 -0.011046 0.059545
v -0.005703 -0.008386 0.112883
v 0.006278 0.078263 0.090200
v 0.055610 -0.019054 0.060878
v 0.040940 -0.039061 0.075534
v -0.005703 -0.060397 0.007562
v -0.043042 -0.037717 0.072880
f 21 54 64 
f 6 4 7 
f 4 6 10 
f 6 7 16 
f 7 4 18 
f 26 9 27 
f 10 6 28 
f 12 24 29 
f 3 2 30 
f 2 7 30 
f 7 12 30 
f 21 3 30 
f 7 2 31 
f 6 16 32 
f 16 31 32 
f 1 22 36 
f 7 18 37 
f 27 9 37 
f 18 27 37 
f 5 34 37 
f 5 23 38 
f 13 24 38 
f 33 13 38 
f 34 5 38 
f 24 34 38 
f 20 8 39 
f 24 13 39 
f 8 29 39 
f 29 24 39 
f 16 7 40 
f 7 31 40 
f 31 16 40 
f 8 20 41 
f 26 15 42 
f 28 6 43 
f 2 3 45 
f 31 2 45 
f 17 32 45 
f 32 31 45 
f 10 22 46 
f 25 10 46 
f 15 25 46 
f 22 42 46 
f 42 15 46 
f 4 10 47 
f 10 25 47 
f 25 15 47 
f 27 4 47 
f 22 10 48 
f 19 36 48 
f 36 22 48 
f 35 8 49 
f 17 35 49 
f 41 14 49 
f 8 41 49 
f 14 43 49 
f 1 20 50 
f 13 33 50 
f 20 39 50 
f 39 13 50 
f 22 1 51 
f 33 11 51 
f 11 42 51 
f 42 22 51 
f 1 50 51 
f 50 33 51 
f 6 32 52 
f 32 17 52 
f 43 6 52 
f 17 49 52 
f 49 43 52 
f 15 26 53 
f 26 27 53 
f 47 15 53 
f 27 47 53 
f 12 29 54 
f 30 12 54 
f 21 30 54 
f 23 5 55 
f 5 37 55 
f 37 9 55 
f 9 44 55 
f 44 23 55 
f 18 4 56 
f 4 27 56 
f 27 18 56 
f 19 28 57 
f 36 19 57 
f 14 41 57 
f 43 14 57 
f 28 43 57 
f 3 21 58 
f 35 17 58 
f 21 35 58 
f 45 3 58 
f 17 45 58 
f 20 1 59 
f 1 36 59 
f 41 20 59 
f 36 57 59 
f 57 41 59 
f 10 28 60 
f 28 19 60 
f 48 10 60 
f 19 48 60 
f 9 26 61 
f 42 11 61 
f 26 42 61 
f 44 9 61 
f 23 44 61 
f 11 33 62 
f 38 23 62 
f 33 38 62 
f 61 11 62 
f 23 61 62 
f 12 7 63 
f 24 12 63 
f 34 24 63 
f 7 37 63 
f 37 34 63 
f 29 8 64 
f 8 35 64 
f 35 21 64 
f 54 29 64 
o convex_1
v -0.056373 0.132922 -0.007102
v 0.058282 0.138260 0.016887
v 0.056942 0.138260 0.023540
v 0.051606 0.078263 0.052872
v -0.016372 0.138260 0.066205
v -0.045711 0.078263 0.067530
v 0.008948 0.119585 -0.043100
v -0.021708 0.078263 0.003568
v 0.024946 0.079608 0.084867
v -0.023037 0.138260 -0.051106
v 0.047609 0.136915 -0.031106
v 0.034279 0.078263 0.010235
v -0.053705 0.138260 0.032871
v 0.035608 0.138260 0.056875
v -0.048368 0.078263 0.026204
v -0.011035 0.078263 0.088884
v -0.041703 0.130256 -0.033755
v 0.011616 0.138260 0.067544
v 0.050277 0.078263 0.031546
v 0.030283 0.138260 -0.047089
v -0.033710 0.138260 0.058214
v -0.051036 0.078263 0.054197
v 0.043612 0.079608 0.070194
v 0.058282 0.136915 -0.003099
v 0.010276 0.078263 0.000890
v -0.015043 0.119585 -0.041775
v -0.029713 0.079608 0.082203
v -0.057713 0.138260 -0.005763
v 0.028943 0.122257 -0.037772
v -0.036378 0.078263 0.011560
v 0.008948 0.136915 -0.055109
v 0.048949 0.138260 0.042216
v 0.002272 0.082268 0.088884
v -0.057713 0.134249 0.019537
v -0.051036 0.135588 -0.024425
v -0.043043 0.138260 0.050208
v -0.031042 0.120924 -0.035109
v 0.042273 0.126256 -0.029767
v -0.051036 0.078263 0.034196
v -0.011035 0.078263 0.000890
v 0.054274 0.132922 -0.015094
v 0.047609 0.078263 0.024879
v -0.004382 0.136915 0.068884
v 0.024946 0.078263 0.004893
v 0.035608 0.078263 0.078214
v -0.008379 0.131583 -0.052431
v -0.037706 0.082268 0.075536
v 0.048949 0.079608 0.060878
v 0.022278 0.136915 0.064866
v -0.036378 0.138260 -0.043100
v 0.011616 0.079608 0.088884
v -0.021708 0.079608 0.086206
v 0.020949 0.123590 -0.043100
v 0.051606 0.138260 -0.024425
v -0.057713 0.130256 0.008910
v -0.008379 0.115591 -0.039097
v -0.024377 0.138260 0.063527
v 0.051606 0.078263 0.036874
v -0.027045 0.132922 -0.047089
v -0.013704 0.082268 0.087545
v 0.058282 0.132922 0.011574
v 0.031611 0.132922 -0.044425
v -0.056373 0.138260 0.026204
v -0.049708 0.079608 0.059539
f 127 86 128 
f 66 67 68 
f 67 66 69 
f 68 70 72 
f 69 66 74 
f 68 72 76 
f 69 74 77 
f 67 69 78 
f 72 70 79 
f 70 68 80 
f 78 69 82 
f 68 76 83 
f 74 66 84 
f 69 77 85 
f 79 70 86 
f 76 72 89 
f 70 80 91 
f 77 74 92 
f 72 79 94 
f 79 81 94 
f 74 84 95 
f 67 78 96 
f 78 87 96 
f 79 65 99 
f 81 79 99 
f 65 92 99 
f 77 70 100 
f 85 77 100 
f 90 72 101 
f 72 94 101 
f 94 81 101 
f 76 93 102 
f 65 79 103 
f 79 86 103 
f 92 65 103 
f 89 72 104 
f 72 90 104 
f 83 76 106 
f 102 75 106 
f 76 102 106 
f 75 105 106 
f 105 83 106 
f 82 69 107 
f 97 82 107 
f 89 71 108 
f 76 89 108 
f 93 76 108 
f 78 73 109 
f 80 68 109 
f 68 87 109 
f 87 78 109 
f 74 95 110 
f 95 71 110 
f 70 91 111 
f 91 85 111 
f 100 70 111 
f 85 100 111 
f 68 67 112 
f 87 68 112 
f 67 96 112 
f 96 87 112 
f 73 78 113 
f 78 82 113 
f 92 74 114 
f 81 99 114 
f 99 92 114 
f 97 80 115 
f 82 97 115 
f 109 73 115 
f 80 109 115 
f 73 113 115 
f 113 82 115 
f 91 80 116 
f 71 95 117 
f 108 71 117 
f 93 108 117 
f 84 66 118 
f 75 84 118 
f 66 88 118 
f 105 75 118 
f 88 105 118 
f 86 98 119 
f 98 92 119 
f 103 86 119 
f 92 103 119 
f 71 89 120 
f 89 104 120 
f 104 90 120 
f 110 71 120 
f 90 110 120 
f 69 85 121 
f 85 91 121 
f 116 69 121 
f 91 116 121 
f 68 83 122 
f 83 105 122 
f 105 88 122 
f 101 81 123 
f 90 101 123 
f 110 90 123 
f 74 110 123 
f 114 74 123 
f 81 114 123 
f 80 97 124 
f 107 69 124 
f 97 107 124 
f 69 116 124 
f 116 80 124 
f 66 68 125 
f 88 66 125 
f 68 122 125 
f 122 88 125 
f 84 75 126 
f 95 84 126 
f 75 102 126 
f 102 93 126 
f 93 117 126 
f 117 95 126 
f 77 92 127 
f 98 86 127 
f 92 98 127 
f 70 77 128 
f 86 70 128 
f 77 127 128 
o convex_2
v -0.060367 0.150262 -0.000442
v 0.060949 0.166257 0.003555
v 0.059607 0.183588 0.012901
v -0.007043 0.191591 -0.060442
v -0.021710 0.191591 0.056865
v 0.015605 0.138260 0.066211
v 0.016947 0.138260 -0.053764
v -0.047030 0.138260 0.044875
v -0.060379 0.191591 0.007564
v 0.048942 0.191591 -0.036437
v -0.044358 0.139597 -0.036437
v 0.056934 0.138260 -0.011104
v 0.036923 0.191591 0.048884
v 0.048930 0.138260 0.042206
v -0.051032 0.191591 -0.033756
v -0.023040 0.148931 -0.055105
v -0.020368 0.138260 0.064871
v 0.035605 0.160932 -0.049768
v -0.044358 0.191591 0.042206
v 0.011615 0.191591 0.059546
v -0.055035 0.138260 -0.017769
v 0.059607 0.191591 -0.012444
v 0.023610 0.191591 -0.056433
v 0.048942 0.146263 -0.033756
v -0.033693 0.191591 -0.051108
v 0.004940 0.158270 -0.060442
v -0.056353 0.138260 0.026219
v 0.051602 0.191591 0.032885
v 0.056934 0.138260 0.023563
v -0.012375 0.138260 -0.055105
v -0.059025 0.191591 -0.015101
v -0.056353 0.191591 0.023563
v 0.036923 0.139597 0.055537
v -0.007031 0.140928 0.067552
v -0.044358 0.156939 -0.041774
v -0.056365 0.156939 -0.023106
v 0.056934 0.158270 -0.021766
v -0.035035 0.139597 0.056865
v 0.036935 0.138260 -0.043102
v 0.022280 0.155607 -0.056433
v -0.016378 0.167588 -0.059102
v -0.012363 0.191586 0.059546
v 0.022268 0.191591 0.056877
v 0.059607 0.144927 -0.004439
v 0.056934 0.190255 0.022223
v -0.031045 0.156939 -0.052436
v 0.028930 0.139597 0.060861
v 0.043597 0.191591 -0.043102
v 0.048942 0.156939 -0.036437
v -0.035035 0.138260 -0.044430
v -0.059025 0.138260 0.010220
v -0.032375 0.191591 0.051540
v 0.008954 0.182257 -0.060442
v -0.003029 0.147594 -0.059102
v -0.060367 0.159601 -0.008435
v -0.060379 0.156939 0.010220
v 0.055604 0.179590 -0.025763
v 0.048930 0.191591 0.036881
v -0.052363 0.150262 -0.029772
v 0.008943 0.139597 0.067552
v -0.023040 0.191591 -0.056433
v 0.035605 0.150262 -0.048440
v -0.052363 0.191591 0.031557
v -0.053693 0.144927 0.032885
f 136 191 192 
f 135 134 136 
f 133 132 137 
f 132 133 138 
f 134 135 140 
f 138 133 141 
f 134 140 142 
f 137 132 143 
f 136 134 145 
f 133 137 147 
f 141 133 148 
f 135 136 149 
f 131 130 150 
f 138 141 150 
f 132 138 151 
f 143 132 153 
f 149 136 155 
f 150 141 156 
f 130 131 157 
f 142 140 157 
f 135 149 158 
f 137 143 159 
f 147 137 160 
f 134 142 161 
f 143 153 163 
f 159 143 164 
f 140 152 165 
f 136 145 166 
f 147 136 166 
f 140 135 167 
f 152 140 167 
f 151 146 168 
f 135 154 168 
f 132 154 169 
f 133 145 170 
f 148 133 170 
f 145 162 170 
f 162 148 170 
f 148 134 171 
f 141 148 171 
f 150 130 172 
f 130 157 172 
f 157 140 172 
f 140 165 172 
f 165 150 172 
f 131 150 173 
f 156 142 173 
f 150 156 173 
f 157 131 173 
f 142 157 173 
f 163 153 174 
f 169 144 174 
f 134 161 175 
f 161 141 175 
f 171 134 175 
f 141 171 175 
f 151 138 176 
f 146 151 176 
f 165 152 177 
f 176 138 177 
f 146 176 177 
f 149 139 178 
f 144 158 178 
f 158 149 178 
f 139 163 178 
f 174 144 178 
f 163 174 178 
f 129 149 179 
f 149 155 179 
f 145 133 180 
f 133 147 180 
f 166 145 180 
f 147 166 180 
f 132 151 181 
f 154 132 181 
f 151 168 181 
f 168 154 181 
f 154 135 182 
f 158 144 182 
f 135 158 182 
f 144 169 182 
f 169 154 182 
f 149 129 183 
f 137 159 183 
f 164 149 183 
f 159 164 183 
f 160 137 184 
f 155 160 184 
f 129 179 184 
f 179 155 184 
f 183 129 184 
f 137 183 184 
f 138 150 185 
f 150 165 185 
f 177 138 185 
f 165 177 185 
f 142 156 186 
f 156 141 186 
f 141 161 186 
f 161 142 186 
f 139 149 187 
f 163 139 187 
f 143 163 187 
f 149 164 187 
f 164 143 187 
f 145 134 188 
f 134 148 188 
f 162 145 188 
f 148 162 188 
f 153 132 189 
f 132 169 189 
f 174 153 189 
f 169 174 189 
f 167 135 190 
f 152 167 190 
f 168 146 190 
f 135 168 190 
f 177 152 190 
f 146 177 190 
f 136 147 191 
f 147 160 191 
f 191 160 192 
f 155 136 192 
f 160 155 192 
o convex_3
v 0.011621 0.191591 0.059552
v 0.036945 0.208924 0.047553
v 0.036945 0.208924 0.046219
v 0.008954 0.208924 0.056885
v 0.031613 0.191591 0.046219
v 0.038283 0.191591 0.047553
v 0.020955 0.208924 0.056885
v 0.010286 0.191591 0.055551
v 0.030281 0.191591 0.052886
v 0.032948 0.208924 0.046219
v 0.008954 0.208924 0.059552
v 0.030281 0.208924 0.052886
f 199 201 204 
f 194 195 196 
f 197 195 198 
f 195 194 198 
f 193 197 198 
f 194 196 199 
f 197 193 200 
f 193 198 201 
f 199 193 201 
f 196 195 202 
f 195 197 202 
f 200 196 202 
f 197 200 202 
f 193 199 203 
f 199 196 203 
f 200 193 203 
f 196 200 203 
f 198 194 204 
f 194 199 204 
f 201 198 204 
o convex_4
v 0.050282 0.208924 0.034220
v 0.034283 0.191591 0.044885
v 0.034283 0.191591 0.046219
v 0.051616 0.191591 0.031555
v 0.047613 0.208924 0.030220
v 0.039619 0.208924 0.046219
v 0.034283 0.208924 0.044885
v 0.039619 0.191591 0.046219
v 0.047613 0.191591 0.030220
v 0.047613 0.191591 0.038220
v 0.051616 0.208924 0.030220
f 213 209 215 
f 207 206 208 
f 205 209 210 
f 206 207 211 
f 209 206 211 
f 210 209 211 
f 207 210 211 
f 207 208 212 
f 210 207 212 
f 208 206 213 
f 206 209 213 
f 208 205 214 
f 205 210 214 
f 212 208 214 
f 210 212 214 
f 205 208 215 
f 209 205 215 
f 208 213 215 
o convex_5
v -0.007047 0.194260 0.052886
v 0.008951 0.208924 0.059552
v 0.008951 0.191591 0.059552
v -0.011048 0.191591 0.059552
v -0.011048 0.208924 0.056885
v -0.000383 0.200921 0.052886
v -0.011048 0.208924 0.059552
v 0.008951 0.191591 0.056885
v 0.008951 0.208924 0.056885
v -0.011048 0.191591 0.055553
f 216 223 225 
f 218 217 219 
f 216 220 221 
f 219 217 222 
f 220 219 222 
f 217 220 222 
f 217 218 223 
f 218 219 223 
f 216 221 223 
f 223 221 224 
f 220 217 224 
f 221 220 224 
f 217 223 224 
f 220 216 225 
f 219 220 225 
f 223 219 225 
o convex_6
v -0.060379 0.208924 -0.001782
v -0.047047 0.191591 -0.039110
v -0.045713 0.191591 -0.039110
v -0.056377 0.191591 0.003555
v -0.045713 0.208924 -0.033773
v -0.057712 0.191591 -0.019106
v -0.053712 0.208924 -0.028444
v -0.057712 0.208924 0.003555
v -0.060379 0.191591 0.002218
v -0.045713 0.191591 -0.032440
v -0.059045 0.208924 -0.013785
v -0.047047 0.208924 -0.037773
v -0.052380 0.191591 -0.031108
v -0.060379 0.191591 -0.003115
f 236 231 239 
f 227 228 229 
f 227 229 231 
f 226 230 232 
f 230 226 233 
f 229 230 233 
f 231 229 234 
f 233 226 234 
f 229 233 234 
f 229 228 235 
f 230 229 235 
f 228 230 235 
f 226 232 236 
f 232 231 236 
f 228 227 237 
f 230 228 237 
f 232 230 237 
f 227 232 237 
f 227 231 238 
f 232 227 238 
f 231 232 238 
f 231 234 239 
f 234 226 239 
f 226 236 239 
o convex_7
v -0.041708 0.203590 -0.044446
v -0.013718 0.191591 -0.059109
v -0.013718 0.207588 -0.059109
v -0.044374 0.208924 -0.035110
v -0.005715 0.191591 -0.056440
v -0.045713 0.191591 -0.035110
v -0.005715 0.207588 -0.056440
v -0.031043 0.191591 -0.052442
v -0.031043 0.208924 -0.052442
v -0.005715 0.208924 -0.059109
v -0.045713 0.191591 -0.040447
v -0.045713 0.208924 -0.039111
v -0.023048 0.195592 -0.056440
v -0.044374 0.191591 -0.035110
v -0.005715 0.191591 -0.059109
v -0.039045 0.191591 -0.047110
f 247 250 255 
f 241 244 245 
f 243 244 246 
f 241 245 247 
f 241 242 249 
f 243 246 249 
f 246 244 249 
f 248 243 249 
f 242 248 249 
f 247 245 250 
f 245 243 251 
f 248 240 251 
f 243 248 251 
f 240 250 251 
f 250 245 251 
f 242 241 252 
f 241 247 252 
f 248 242 252 
f 247 248 252 
f 244 243 253 
f 243 245 253 
f 245 244 253 
f 244 241 254 
f 241 249 254 
f 249 244 254 
f 240 248 255 
f 248 247 255 
f 250 240 255 
o convex_8
v -0.048381 0.208924 0.036883
v -0.059046 0.191591 0.003555
v -0.059046 0.208924 0.003555
v -0.045713 0.191591 0.034219
v -0.056378 0.191591 0.022214
v -0.056378 0.208924 0.004892
v -0.057712 0.208924 0.018227
v -0.045713 0.208924 0.034219
v -0.056378 0.191591 0.003555
v -0.047047 0.191591 0.038220
v -0.059046 0.191591 0.014223
f 260 262 266 
f 257 259 260 
f 258 256 261 
f 256 258 262 
f 260 256 262 
f 261 256 263 
f 261 263 264 
f 257 258 264 
f 259 257 264 
f 258 261 264 
f 263 259 264 
f 256 260 265 
f 260 259 265 
f 263 256 265 
f 259 263 265 
f 258 257 266 
f 257 260 266 
f 262 258 266 
o convex_9
v -0.021720 0.208924 0.056884
v -0.045713 0.191591 0.035553
v -0.045713 0.208924 0.035553
v -0.011048 0.191591 0.055552
v -0.036378 0.191591 0.048882
v -0.011048 0.208924 0.055552
v -0.012385 0.191591 0.059552
v -0.045713 0.208924 0.039554
v -0.032378 0.208924 0.051551
v -0.044376 0.208924 0.035553
v -0.021720 0.191591 0.056884
v -0.045713 0.191591 0.039554
v -0.011048 0.208924 0.058218
v -0.044376 0.191591 0.035553
f 276 270 280 
f 268 270 271 
f 269 267 272 
f 271 270 273 
f 267 269 274 
f 269 268 274 
f 274 271 275 
f 267 274 275 
f 268 269 276 
f 269 272 276 
f 272 270 276 
f 273 267 277 
f 271 273 277 
f 275 271 277 
f 267 275 277 
f 268 271 278 
f 274 268 278 
f 271 274 278 
f 272 267 279 
f 270 272 279 
f 273 270 279 
f 267 273 279 
f 270 268 280 
f 268 276 280 
o convex_10
v -0.001714 0.191591 -0.060441
v 0.015617 0.208924 -0.055110
v 0.015617 0.208924 -0.057775
v -0.005715 0.208924 -0.057775
v 0.000952 0.194260 -0.052443
v 0.015617 0.191591 -0.055110
v -0.005715 0.191591 -0.056442
v 0.012951 0.191591 -0.059108
v 0.000952 0.202254 -0.060441
v 0.000952 0.200921 -0.052443
v 0.012951 0.208924 -0.059108
v -0.005715 0.208924 -0.059108
v 0.006283 0.194260 -0.052443
f 290 285 293 
f 282 283 284 
f 283 282 286 
f 286 285 287 
f 281 286 287 
f 286 281 288 
f 283 286 288 
f 288 281 289 
f 282 284 290 
f 284 287 290 
f 287 285 290 
f 284 283 291 
f 283 288 291 
f 288 289 291 
f 291 289 292 
f 281 287 292 
f 287 284 292 
f 289 281 292 
f 284 291 292 
f 286 282 293 
f 285 286 293 
f 282 290 293 
o convex_11
v 0.018285 0.191591 -0.057776
v 0.040950 0.208924 -0.043110
v 0.040950 0.208924 -0.044445
v 0.015617 0.208924 -0.055108
v 0.036947 0.191591 -0.043110
v 0.022285 0.208924 -0.056441
v 0.036947 0.191591 -0.048443
v 0.016954 0.191591 -0.053773
v 0.036947 0.208924 -0.043110
v 0.032948 0.208924 -0.051109
v 0.040950 0.191591 -0.043110
v 0.015617 0.208924 -0.057776
v 0.032948 0.191591 -0.051109
f 303 300 306 
f 295 296 297 
f 297 296 299 
f 298 294 300 
f 294 298 301 
f 301 298 302 
f 295 297 302 
f 298 295 302 
f 297 301 302 
f 299 296 303 
f 296 300 303 
f 296 295 304 
f 295 298 304 
f 298 300 304 
f 300 296 304 
f 299 294 305 
f 297 299 305 
f 294 301 305 
f 301 297 305 
f 294 299 306 
f 300 294 306 
f 299 303 306 
o convex_12
v 0.055615 0.208924 -0.024446
v 0.038283 0.191591 -0.043108
v 0.042285 0.191591 -0.043108
v 0.055615 0.191591 -0.021779
v 0.038283 0.208924 -0.041773
v 0.051613 0.208924 -0.023114
v 0.047613 0.208924 -0.037775
v 0.051613 0.191591 -0.032442
v 0.051613 0.191591 -0.023114
v 0.042285 0.208924 -0.043108
f 311 313 316 
f 308 309 310 
f 310 307 312 
f 307 311 312 
f 311 307 313 
f 310 309 314 
f 307 310 314 
f 309 313 314 
f 313 307 314 
f 308 310 315 
f 311 308 315 
f 312 311 315 
f 310 312 315 
f 309 308 316 
f 308 311 316 
f 313 309 316 
o convex_13
v 0.058282 0.206255 0.003555
v 0.052949 0.191591 -0.021777
v 0.056948 0.191591 -0.021777
v 0.055616 0.208924 -0.021777
v 0.059615 0.191591 0.003555
v 0.059615 0.206255 -0.007115
v 0.052949 0.208924 -0.020441
v 0.056948 0.191591 0.003555
v 0.059615 0.191591 -0.011107
v 0.058282 0.208924 -0.016444
v 0.056948 0.204923 0.003555
f 323 324 327 
f 319 318 320 
f 318 319 321 
f 317 321 322 
f 320 318 323 
f 321 317 324 
f 318 321 324 
f 323 318 324 
f 321 319 325 
f 322 321 325 
f 322 325 326 
f 319 320 326 
f 317 322 326 
f 323 317 326 
f 320 323 326 
f 325 319 326 
f 317 323 327 
f 324 317 327 
o convex_14
v 0.054282 0.206255 0.027553
v 0.056947 0.191591 0.003555
v 0.056947 0.206255 0.003555
v 0.048949 0.191591 0.027553
v 0.059615 0.191591 0.011555
v 0.048949 0.208924 0.028886
v 0.052950 0.191591 0.030220
v 0.058281 0.208924 0.015556
v 0.059615 0.206255 0.003555
f 330 335 336 
f 330 329 331 
f 331 329 332 
f 330 331 333 
f 333 331 334 
f 332 328 334 
f 331 332 334 
f 328 333 334 
f 328 332 335 
f 333 328 335 
f 330 333 335 
f 329 330 336 
f 332 329 336 
f 335 332 336 
