o convex_0
v 0.014082 -0.049659 -0.139498
v -0.067516 0.083655 -0.117607
v -0.067516 0.083655 -0.115618
v 0.014082 0.161287 -0.081790
v -0.035671 -0.051645 -0.083784
v 0.014082 0.107547 -0.143475
v 0.014082 -0.059609 -0.083791
v -0.065519 0.119460 -0.081790
v -0.047612 -0.017825 -0.129550
v -0.057564 0.117474 -0.123578
v -0.065519 0.002095 -0.083784
v -0.055567 0.059763 -0.131538
v 0.010097 -0.031746 -0.145470
v -0.021749 -0.055638 -0.121590
v 0.012086 0.143374 -0.119595
v -0.055567 -0.019811 -0.119601
v -0.031693 0.143352 -0.103688
v -0.065519 0.023980 -0.121590
v 0.008108 0.091597 -0.145470
v -0.065519 0.037922 -0.081790
v -0.061534 0.091597 -0.129550
v -0.065519 0.121467 -0.109653
v -0.029696 -0.045667 -0.129550
v -0.051589 -0.035717 -0.087767
v 0.014082 0.059785 -0.081790
v -0.019760 0.151316 -0.081790
v -0.003833 -0.061616 -0.097716
v -0.039648 -0.045667 -0.115618
v 0.014082 0.125460 -0.135515
v -0.059545 0.129409 -0.105682
v 0.014082 -0.055638 -0.131538
v -0.019760 -0.059609 -0.083784
v -0.011789 0.153323 -0.095728
v -0.033682 0.135388 -0.115618
v -0.035671 -0.023782 -0.133533
v -0.003833 -0.045688 -0.139498
v -0.005822 -0.057623 -0.127555
v -0.061534 0.027973 -0.127555
v -0.055567 0.103532 -0.129550
v 0.014082 -0.033753 -0.145470
v 0.014082 0.153323 -0.105676
v -0.065519 0.010059 -0.113630
v -0.057564 -0.023782 -0.083784
v -0.047612 -0.035717 -0.119601
v -0.065519 0.091597 -0.125567
v -0.057564 0.129409 -0.089756
v -0.059545 0.125460 -0.115618
v -0.013785 0.149330 -0.103688
v -0.053578 0.037922 -0.131538
v 0.012086 0.133402 -0.129544
v -0.055567 0.091597 -0.131538
v -0.065519 0.115489 -0.117607
v -0.067516 0.089611 -0.109653
v -0.001844 0.159280 -0.083791
v -0.057564 -0.017825 -0.113630
v -0.039648 -0.029761 -0.131538
v 0.000145 -0.059609 -0.121584
v 0.006119 -0.061616 -0.083791
v 0.012086 0.097575 -0.145470
v 0.012086 0.117496 -0.139498
v -0.011789 -0.051645 -0.133527
v -0.031693 0.145337 -0.095728
f 54 33 62 
f 4 1 6 
f 1 4 7 
f 3 2 11 
f 13 12 19 
f 4 8 20 
f 7 4 25 
f 4 20 25 
f 20 7 25 
f 8 4 26 
f 14 5 28 
f 23 14 28 
f 5 24 28 
f 4 6 29 
f 22 8 30 
f 1 7 31 
f 5 14 32 
f 20 5 32 
f 14 27 32 
f 35 13 36 
f 1 31 37 
f 9 16 38 
f 16 18 38 
f 21 12 38 
f 21 10 39 
f 6 1 40 
f 13 19 40 
f 1 36 40 
f 36 13 40 
f 4 29 41 
f 29 15 41 
f 11 2 42 
f 2 18 42 
f 18 16 42 
f 5 20 43 
f 20 11 43 
f 24 5 43 
f 16 9 44 
f 23 28 44 
f 28 24 44 
f 18 2 45 
f 38 18 45 
f 21 38 45 
f 8 26 46 
f 30 8 46 
f 30 17 47 
f 22 30 47 
f 34 10 47 
f 17 34 47 
f 17 33 48 
f 15 34 48 
f 34 17 48 
f 41 15 48 
f 33 41 48 
f 12 13 49 
f 35 9 49 
f 13 35 49 
f 9 38 49 
f 38 12 49 
f 29 10 50 
f 15 29 50 
f 10 34 50 
f 34 15 50 
f 19 12 51 
f 12 21 51 
f 21 39 51 
f 10 21 52 
f 2 22 52 
f 45 2 52 
f 21 45 52 
f 47 10 52 
f 22 47 52 
f 2 3 53 
f 3 11 53 
f 20 8 53 
f 11 20 53 
f 22 2 53 
f 8 22 53 
f 26 4 54 
f 4 41 54 
f 41 33 54 
f 11 42 55 
f 42 16 55 
f 43 11 55 
f 24 43 55 
f 16 44 55 
f 44 24 55 
f 9 35 56 
f 36 23 56 
f 35 36 56 
f 44 9 56 
f 23 44 56 
f 27 14 57 
f 14 37 57 
f 37 31 57 
f 7 20 58 
f 31 7 58 
f 20 32 58 
f 32 27 58 
f 27 57 58 
f 57 31 58 
f 39 6 59 
f 6 40 59 
f 40 19 59 
f 19 51 59 
f 51 39 59 
f 29 6 60 
f 10 29 60 
f 6 39 60 
f 39 10 60 
f 14 23 61 
f 23 36 61 
f 36 1 61 
f 37 14 61 
f 1 37 61 
f 17 30 62 
f 33 17 62 
f 46 26 62 
f 30 46 62 
f 26 54 62 
o convex_1
v 0.012091 0.161270 -0.018107
v -0.081448 0.077709 -0.012140
v -0.079456 0.067760 -0.020096
v -0.061539 0.123454 -0.081790
v 0.014082 0.059793 -0.081790
v 0.014082 0.059793 -0.000191
v -0.065523 0.037911 -0.081790
v 0.014082 0.161270 -0.081790
v -0.077464 0.103568 -0.000191
v -0.073480 0.035904 -0.000191
v 0.014082 0.153315 -0.000191
v -0.007818 0.157293 -0.067852
v -0.065523 0.117482 -0.081790
v -0.067515 0.035904 -0.000191
v -0.003834 0.149325 -0.000191
v -0.081448 0.095613 -0.014129
v -0.073480 0.035904 -0.038011
v -0.001842 0.159287 -0.081790
v -0.067515 0.035904 -0.049944
v -0.067515 0.075727 -0.077804
v -0.081448 0.077709 -0.000191
v 0.008107 0.161270 -0.026078
v -0.067515 0.037911 -0.075807
v 0.008107 0.163277 -0.065863
v -0.015785 0.153315 -0.077804
v 0.014082 0.163277 -0.034033
v -0.077464 0.051838 -0.022084
v -0.079456 0.101560 -0.012140
v -0.063531 0.037911 -0.081790
f 81 69 91 
f 66 67 69 
f 67 66 70 
f 68 67 70 
f 68 71 72 
f 68 70 73 
f 71 68 73 
f 66 69 75 
f 67 68 76 
f 68 72 76 
f 73 63 77 
f 71 73 77 
f 76 72 79 
f 70 66 80 
f 67 76 81 
f 79 69 81 
f 76 79 81 
f 75 69 82 
f 78 75 82 
f 72 71 83 
f 78 64 83 
f 71 78 83 
f 74 71 84 
f 77 63 84 
f 71 77 84 
f 65 64 85 
f 64 78 85 
f 79 65 85 
f 69 79 85 
f 82 69 85 
f 78 82 85 
f 70 80 86 
f 80 74 86 
f 74 84 86 
f 66 71 87 
f 71 74 87 
f 80 66 87 
f 74 80 87 
f 63 73 88 
f 73 70 88 
f 84 63 88 
f 70 86 88 
f 86 84 88 
f 64 65 89 
f 65 79 89 
f 79 72 89 
f 72 83 89 
f 83 64 89 
f 71 66 90 
f 66 75 90 
f 78 71 90 
f 75 78 90 
f 69 67 91 
f 67 81 91 
o convex_2
v 0.185227 0.119487 -0.030048
v 0.014082 0.059808 -0.081790
v 0.016076 0.057814 -0.081790
v 0.014082 0.059808 -0.000191
v 0.151400 -0.001899 -0.000191
v 0.049920 0.165260 -0.000191
v 0.169310 0.131416 -0.081790
v 0.131496 -0.007881 -0.081790
v 0.014082 0.163266 -0.081790
v 0.141448 0.157284 -0.000191
v 0.191208 0.029952 -0.000191
v 0.181256 0.047862 -0.081790
v 0.101657 0.169230 -0.081790
v 0.014082 0.155308 -0.000191
v 0.123538 -0.007881 -0.000191
v 0.183233 0.131416 -0.000191
v 0.139454 0.157284 -0.081790
v 0.191208 0.089630 -0.041981
v 0.153377 0.004065 -0.081790
v 0.043939 0.169248 -0.014129
v 0.115580 0.167237 -0.010143
v 0.123538 -0.007881 -0.081790
v 0.024052 0.169248 -0.075807
v 0.183233 0.091607 -0.081790
v 0.171304 0.023970 -0.081790
v 0.175275 0.012041 -0.006174
v 0.163329 0.147332 -0.014129
v 0.014082 0.163266 -0.026078
v 0.191208 0.057814 -0.040000
v 0.155371 0.147332 -0.077804
v 0.141448 0.159278 -0.016118
v 0.095693 0.169230 -0.010143
v 0.179262 0.111528 -0.081790
v 0.119550 0.165243 -0.081790
v 0.016076 0.057814 -0.000191
v 0.113586 0.165243 -0.000191
v 0.191208 0.047862 -0.000191
v 0.133490 -0.007881 -0.000191
v 0.187221 0.023970 -0.006174
v 0.159358 0.002072 -0.010143
v 0.032010 0.169248 -0.024081
v 0.183233 0.061802 -0.081790
v 0.189214 0.103553 -0.040000
v 0.028022 0.169248 -0.081790
v 0.191208 0.035916 -0.014129
v 0.183233 0.131416 -0.004177
v 0.173298 0.010047 -0.000191
v 0.165323 0.145338 -0.000191
v 0.014082 0.165260 -0.051933
f 119 132 140 
f 93 94 95 
f 95 96 97 
f 94 93 98 
f 94 98 99 
f 93 95 100 
f 98 93 100 
f 97 96 101 
f 101 96 102 
f 99 98 103 
f 98 100 104 
f 95 97 105 
f 100 95 105 
f 96 95 106 
f 101 102 107 
f 98 104 108 
f 99 103 110 
f 105 97 111 
f 94 99 113 
f 106 94 113 
f 99 106 113 
f 103 98 115 
f 110 103 116 
f 100 105 119 
f 109 102 120 
f 98 108 121 
f 108 118 121 
f 112 101 122 
f 118 108 122 
f 111 97 123 
f 104 111 123 
f 112 104 123 
f 98 92 124 
f 115 98 124 
f 108 104 125 
f 104 112 125 
f 122 108 125 
f 112 122 125 
f 95 94 126 
f 94 106 126 
f 106 95 126 
f 97 101 127 
f 101 112 127 
f 123 97 127 
f 112 123 127 
f 107 102 128 
f 102 109 128 
f 109 107 128 
f 99 96 129 
f 96 106 129 
f 106 99 129 
f 110 116 130 
f 117 110 130 
f 96 99 131 
f 99 110 131 
f 105 111 132 
f 111 114 132 
f 119 105 132 
f 103 115 133 
f 115 109 133 
f 120 103 133 
f 109 120 133 
f 107 109 134 
f 109 115 134 
f 124 92 134 
f 115 124 134 
f 104 100 135 
f 111 104 135 
f 100 114 135 
f 114 111 135 
f 116 103 136 
f 120 102 136 
f 103 120 136 
f 102 130 136 
f 130 116 136 
f 92 98 137 
f 118 107 137 
f 98 121 137 
f 121 118 137 
f 134 92 137 
f 107 134 137 
f 102 96 138 
f 110 117 138 
f 130 102 138 
f 117 130 138 
f 96 131 138 
f 131 110 138 
f 101 107 139 
f 107 118 139 
f 122 101 139 
f 118 122 139 
f 114 100 140 
f 100 119 140 
f 132 114 140 
o convex_3
v 0.012091 0.155310 0.001805
v -0.081448 0.077709 -0.000191
v -0.081448 0.077709 0.011755
v 0.014082 0.059793 0.083398
v -0.059547 0.125462 0.083398
v 0.014082 0.059793 -0.000191
v -0.065523 0.037911 0.083398
v 0.014082 0.161270 0.083398
v -0.073480 0.035904 -0.000191
v -0.077455 0.103568 -0.000191
v -0.003834 0.159287 0.063482
v -0.065523 0.117482 0.083398
v -0.003834 0.149325 -0.000191
v 0.014082 0.161270 0.017728
v -0.067505 0.035904 -0.000191
v -0.073480 0.035904 0.039623
v -0.081448 0.095613 0.013751
v -0.007818 0.157293 0.083398
v -0.061530 0.037911 0.083398
v 0.014082 0.153315 -0.000191
v 0.008107 0.161270 0.025689
v 0.008107 0.163277 0.067475
v -0.081448 0.085664 0.015731
v -0.067505 0.091636 0.077425
v -0.019759 0.151320 0.081401
v -0.075463 0.041889 -0.000191
v -0.067505 0.035904 0.051545
v -0.079446 0.101560 0.011755
f 157 152 168 
f 144 145 147 
f 145 144 148 
f 144 146 148 
f 142 146 149 
f 146 142 150 
f 147 145 152 
f 146 150 153 
f 148 146 154 
f 141 153 154 
f 146 144 155 
f 149 146 155 
f 149 155 156 
f 142 143 157 
f 150 142 157 
f 145 148 158 
f 144 147 159 
f 153 141 160 
f 146 153 160 
f 141 154 160 
f 154 146 160 
f 150 151 161 
f 153 150 161 
f 154 153 161 
f 154 161 162 
f 148 154 162 
f 158 148 162 
f 151 158 162 
f 161 151 162 
f 143 156 163 
f 156 147 163 
f 157 143 163 
f 152 157 163 
f 147 152 164 
f 163 147 164 
f 152 163 164 
f 150 145 165 
f 151 150 165 
f 145 158 165 
f 158 151 165 
f 143 142 166 
f 142 149 166 
f 149 156 166 
f 156 143 166 
f 155 144 167 
f 156 155 167 
f 147 156 167 
f 144 159 167 
f 159 147 167 
f 145 150 168 
f 152 145 168 
f 150 157 168 
o convex_4
v 0.155376 0.000081 0.013751
v 0.077769 0.023962 -0.000191
v 0.077769 0.025953 -0.000191
v 0.085741 0.017991 0.083398
v 0.187230 0.025953 0.005782
v 0.171298 0.025953 0.083398
v 0.123564 -0.007881 0.083398
v 0.123564 -0.007881 -0.000191
v 0.077769 0.025953 0.081401
v 0.153383 0.004065 0.083398
v 0.175284 0.012020 -0.000191
v 0.131525 -0.007881 0.083398
v 0.187230 0.023962 -0.000191
v 0.133475 -0.007881 -0.000191
v 0.187230 0.023962 0.005782
v 0.171298 0.023962 0.083398
v 0.079773 0.021972 -0.000191
v 0.173291 0.010030 0.003794
v 0.151401 -0.001909 -0.000191
v 0.079773 0.021972 0.079405
v 0.111606 0.000081 0.029665
f 175 188 189 
f 173 171 174 
f 174 172 175 
f 170 171 176 
f 171 170 177 
f 174 171 177 
f 172 174 177 
f 174 175 178 
f 176 171 179 
f 175 176 180 
f 169 178 180 
f 178 175 180 
f 171 173 181 
f 179 171 181 
f 176 179 182 
f 180 176 182 
f 173 174 183 
f 181 173 183 
f 179 181 183 
f 174 178 184 
f 183 174 184 
f 178 183 184 
f 170 176 185 
f 178 169 186 
f 183 178 186 
f 179 183 186 
f 169 180 187 
f 182 179 187 
f 180 182 187 
f 186 169 187 
f 179 186 187 
f 175 172 188 
f 177 170 188 
f 172 177 188 
f 170 185 188 
f 188 185 189 
f 176 175 189 
f 185 176 189 
o convex_5
v 0.018063 0.115507 0.141106
v -0.065526 0.002092 0.085392
v -0.061541 -0.011821 0.085392
v 0.018063 0.163277 0.083398
v 0.018063 -0.059613 0.085392
v 0.006117 -0.041694 0.143101
v -0.061541 0.111501 0.125184
v -0.065526 0.117488 0.083398
v -0.043622 -0.033747 0.127179
v 0.018063 -0.027781 0.147084
v -0.057556 0.051821 0.131156
v -0.019755 -0.059613 0.085392
v 0.012090 0.087638 0.147084
v -0.033681 0.141373 0.107286
v -0.065526 0.021992 0.121207
v -0.005821 -0.057632 0.127179
v 0.016066 0.141373 0.123196
v 0.018063 -0.055629 0.129168
v -0.065526 0.037908 0.083398
v -0.037666 -0.049663 0.095348
v -0.059553 0.129420 0.097337
v 0.018063 0.057765 0.083398
v -0.065526 0.117488 0.115241
v -0.055568 -0.021793 0.115241
v -0.011794 0.155308 0.083398
v -0.045619 -0.015805 0.131156
v -0.061541 0.093603 0.129168
v -0.057556 0.121473 0.121207
v -0.027708 -0.051644 0.123196
v 0.014078 -0.023797 0.147084
v -0.049595 -0.037709 0.085392
v 0.016066 0.107538 0.145089
v 0.018063 0.153283 0.107286
v -0.017767 -0.045678 0.135134
v -0.047607 -0.035728 0.119212
v 0.000152 -0.061616 0.097331
v 0.016066 0.127417 0.135134
v -0.013782 0.151324 0.099319
v -0.057556 0.089619 0.131156
v -0.065526 0.091600 0.125184
v 0.016066 -0.049663 0.139117
v -0.061541 0.025977 0.127179
v -0.053580 -0.019812 0.123196
v -0.059553 0.129420 0.105298
v 0.018063 0.097588 0.147084
v -0.059553 0.125457 0.083398
v -0.065526 0.012042 0.115241
v -0.035669 0.133404 0.117223
v -0.055568 0.111501 0.127179
v -0.007809 -0.053647 0.133151
v -0.019755 -0.057610 0.109275
v -0.001844 -0.059613 0.121207
v -0.035669 -0.047660 0.121207
v 0.016066 0.161274 0.091358
v -0.033681 -0.031744 0.133151
v -0.035669 -0.051644 0.085392
v 0.008105 -0.061616 0.085392
f 241 225 246 
f 193 190 194 
f 194 190 199 
f 197 191 204 
f 194 199 207 
f 192 191 208 
f 197 193 208 
f 191 197 208 
f 193 194 211 
f 208 193 211 
f 194 208 211 
f 197 204 212 
f 210 197 212 
f 193 197 214 
f 212 196 217 
f 195 199 219 
f 199 202 219 
f 202 200 219 
f 200 215 219 
f 192 208 220 
f 213 192 220 
f 190 193 222 
f 206 190 222 
f 203 206 222 
f 220 209 224 
f 213 220 224 
f 190 206 226 
f 221 190 226 
f 214 203 227 
f 203 222 227 
f 200 202 228 
f 216 200 228 
f 196 212 229 
f 212 204 229 
f 216 196 229 
f 199 195 230 
f 207 199 230 
f 205 207 230 
f 215 200 231 
f 200 216 231 
f 229 204 231 
f 216 229 231 
f 198 215 232 
f 224 198 232 
f 213 224 232 
f 215 231 232 
f 231 204 232 
f 210 212 233 
f 203 214 233 
f 214 210 233 
f 217 203 233 
f 212 217 233 
f 199 190 234 
f 202 199 234 
f 190 221 234 
f 228 202 234 
f 221 228 234 
f 197 210 235 
f 214 197 235 
f 210 214 235 
f 191 192 236 
f 204 191 236 
f 192 213 236 
f 232 204 236 
f 213 232 236 
f 206 203 237 
f 203 217 237 
f 226 206 237 
f 217 226 237 
f 196 216 238 
f 217 196 238 
f 226 217 238 
f 221 226 238 
f 216 228 238 
f 228 221 238 
f 218 205 239 
f 195 223 239 
f 223 218 239 
f 230 195 239 
f 205 230 239 
f 205 218 240 
f 207 205 241 
f 201 225 241 
f 240 201 241 
f 205 240 241 
f 223 198 242 
f 218 223 242 
f 198 224 242 
f 224 209 242 
f 209 240 242 
f 240 218 242 
f 193 214 243 
f 222 193 243 
f 214 227 243 
f 227 222 243 
f 215 198 244 
f 195 219 244 
f 219 215 244 
f 223 195 244 
f 198 223 244 
f 208 201 245 
f 220 208 245 
f 209 220 245 
f 201 240 245 
f 240 209 245 
f 194 207 246 
f 208 194 246 
f 201 208 246 
f 225 201 246 
f 207 241 246 
o convex_6
v 0.047916 0.039890 -0.161384
v 0.037964 0.169248 -0.081797
v 0.047916 0.169248 -0.081805
v 0.018067 -0.059626 -0.083786
v 0.014082 0.109520 -0.143478
v 0.047916 -0.043675 -0.083794
v 0.014082 -0.049657 -0.139500
v 0.014082 0.163244 -0.081797
v 0.047916 0.149309 -0.139492
v 0.047916 -0.037715 -0.133526
v 0.045922 0.089626 -0.163380
v 0.014082 -0.059626 -0.083786
v 0.014082 -0.019815 -0.147455
v 0.014082 0.143372 -0.119606
v 0.045922 0.163244 -0.125564
v 0.043932 -0.003886 -0.153429
v 0.047916 0.041884 -0.081805
v 0.026028 -0.053644 -0.125564
v 0.014082 0.089626 -0.147455
v 0.047916 0.109520 -0.159395
v 0.014082 0.059762 -0.081797
v 0.047916 -0.029762 -0.141489
v 0.014082 0.123455 -0.137504
v 0.047916 0.169248 -0.107674
v 0.014082 -0.057632 -0.119606
v 0.014082 0.151325 -0.109654
v 0.024038 0.167254 -0.087771
v 0.045922 0.123455 -0.153429
v 0.035974 -0.051650 -0.089760
v 0.018067 -0.027746 -0.147455
v 0.041945 0.025978 -0.159395
v 0.045922 0.149309 -0.139492
v 0.020057 -0.045691 -0.141489
v 0.045922 -0.041681 -0.125564
v 0.045922 0.103561 -0.161384
v 0.030002 -0.047663 -0.135515
f 279 268 282 
f 247 249 252 
f 251 253 254 
f 249 247 255 
f 247 252 256 
f 254 253 258 
f 253 251 259 
f 251 254 260 
f 249 248 263 
f 252 249 263 
f 250 252 263 
f 258 250 263 
f 259 251 265 
f 257 259 265 
f 255 247 266 
f 247 257 266 
f 248 254 267 
f 254 258 267 
f 263 248 267 
f 258 263 267 
f 247 256 268 
f 262 247 268 
f 251 260 269 
f 248 249 270 
f 249 255 270 
f 255 261 270 
f 250 258 271 
f 258 253 271 
f 264 250 271 
f 253 264 271 
f 260 254 272 
f 261 260 272 
f 261 272 273 
f 254 248 273 
f 248 270 273 
f 270 261 273 
f 272 254 273 
f 255 266 274 
f 251 269 274 
f 252 250 275 
f 250 264 275 
f 253 259 276 
f 262 276 277 
f 257 247 277 
f 259 257 277 
f 247 262 277 
f 276 259 277 
f 261 255 278 
f 260 261 278 
f 269 260 278 
f 255 274 278 
f 274 269 278 
f 262 268 279 
f 253 276 279 
f 276 262 279 
f 256 252 280 
f 264 256 280 
f 252 275 280 
f 275 264 280 
f 265 251 281 
f 257 265 281 
f 266 257 281 
f 274 266 281 
f 251 274 281 
f 256 264 282 
f 264 253 282 
f 268 256 282 
f 253 279 282 
o convex_7
v 0.093686 0.025953 0.073440
v 0.014082 0.059799 -0.000191
v 0.014082 0.059799 0.083398
v 0.103634 0.169248 0.047560
v 0.105632 0.025953 -0.000191
v 0.014082 0.155305 -0.000191
v 0.022049 0.167256 0.083398
v 0.105632 0.165264 -0.000191
v 0.105632 0.167256 0.083398
v 0.073783 0.025953 0.083398
v 0.105632 0.025953 0.065471
v 0.033995 0.169248 0.021704
v 0.073783 0.025953 -0.000191
v 0.014082 0.163272 0.083398
v 0.028017 0.169248 0.083398
v 0.057868 0.169248 0.009767
v 0.014082 0.165264 0.049548
v 0.016081 0.057807 -0.000191
v 0.105632 0.151336 0.083398
v 0.049910 0.165264 -0.000191
v 0.099655 0.169248 0.011755
v 0.047921 0.039895 0.083398
v 0.099655 0.169248 0.083398
v 0.014082 0.161281 0.015731
v 0.065817 0.029936 -0.000191
v 0.075773 0.025953 0.083398
v 0.016081 0.057807 0.083398
v 0.024039 0.169248 0.055529
f 299 289 310 
f 287 284 288 
f 284 285 288 
f 287 288 290 
f 289 285 291 
f 290 286 291 
f 287 290 291 
f 287 283 292 
f 291 285 292 
f 283 287 293 
f 287 291 293 
f 284 287 295 
f 287 292 295 
f 288 285 296 
f 285 289 296 
f 289 291 297 
f 286 294 297 
f 294 286 298 
f 288 296 299 
f 296 289 299 
f 285 284 300 
f 284 295 300 
f 291 292 301 
f 283 293 301 
f 293 291 301 
f 290 288 302 
f 288 294 302 
f 298 290 302 
f 294 298 302 
f 286 290 303 
f 298 286 303 
f 290 298 303 
f 292 285 304 
f 291 286 305 
f 286 297 305 
f 297 291 305 
f 294 288 306 
f 288 299 306 
f 299 294 306 
f 295 292 307 
f 300 295 307 
f 292 304 307 
f 304 300 307 
f 292 283 308 
f 283 301 308 
f 301 292 308 
f 285 300 309 
f 304 285 309 
f 300 304 309 
f 289 297 310 
f 297 294 310 
f 294 299 310 
o convex_8
v 0.183246 0.089634 -0.087765
v 0.141460 0.039889 -0.083785
v 0.141460 0.039889 -0.081790
v 0.179266 0.041880 -0.087765
v 0.159373 0.039889 -0.111640
v 0.165333 0.091625 -0.081790
v 0.173293 0.091625 -0.099698
v 0.177274 0.039889 -0.081790
v 0.175286 0.049841 -0.103678
v 0.183246 0.091625 -0.081790
v 0.177274 0.077692 -0.101688
v 0.183246 0.061784 -0.087765
v 0.153400 0.041880 -0.103678
v 0.163345 0.039889 -0.111640
v 0.165333 0.091625 -0.085775
v 0.141460 0.041880 -0.083785
f 325 317 326 
f 313 312 315 
f 313 315 318 
f 316 313 318 
f 311 317 320 
f 317 316 320 
f 316 318 320 
f 317 311 321 
f 319 321 322 
f 318 314 322 
f 314 319 322 
f 311 320 322 
f 320 318 322 
f 321 311 322 
f 315 312 323 
f 317 315 323 
f 315 317 324 
f 314 318 324 
f 318 315 324 
f 319 314 324 
f 317 321 324 
f 321 319 324 
f 316 317 325 
f 312 313 326 
f 313 316 326 
f 323 312 326 
f 317 323 326 
f 316 325 326 
o convex_9
v 0.121560 0.165266 0.049548
v 0.189221 0.093628 0.047560
v 0.189221 0.091637 0.047560
v 0.105639 0.165266 -0.000191
v 0.105639 0.091645 0.065471
v 0.105639 0.091645 -0.000191
v 0.183248 0.131428 -0.000191
v 0.169307 0.131428 0.083398
v 0.105639 0.167258 0.083398
v 0.181252 0.091645 0.083398
v 0.181252 0.091645 -0.000191
v 0.139478 0.157293 0.083398
v 0.141466 0.159292 0.009767
v 0.105639 0.149335 0.083398
v 0.165331 0.091645 0.083398
v 0.179264 0.111536 0.083398
v 0.169307 0.143361 0.007770
v 0.155382 0.147351 0.079405
v 0.115596 0.167258 0.009767
v 0.141466 0.157293 -0.000191
v 0.187224 0.113527 0.033658
v 0.189221 0.095612 0.037635
v 0.125545 0.163275 0.083398
v 0.183248 0.131428 0.003794
v 0.163343 0.147351 0.013751
v 0.105639 0.167258 0.007770
v 0.165331 0.145352 -0.000191
v 0.183248 0.093628 0.081401
v 0.189221 0.103578 0.039623
f 354 328 355 
f 329 331 332 
f 331 330 332 
f 332 330 333 
f 330 331 335 
f 334 335 336 
f 329 332 337 
f 332 333 337 
f 335 334 338 
f 335 331 340 
f 336 335 340 
f 336 340 341 
f 331 329 341 
f 329 336 341 
f 340 331 341 
f 334 336 342 
f 338 334 344 
f 335 327 345 
f 327 339 345 
f 345 339 346 
f 333 330 346 
f 330 345 346 
f 334 342 347 
f 328 329 348 
f 329 337 348 
f 337 333 348 
f 327 335 349 
f 335 338 349 
f 339 327 349 
f 338 339 349 
f 333 343 350 
f 344 334 350 
f 343 344 350 
f 347 333 350 
f 334 347 350 
f 339 338 351 
f 338 344 351 
f 344 343 351 
f 330 335 352 
f 335 345 352 
f 345 330 352 
f 343 333 353 
f 346 339 353 
f 333 346 353 
f 339 351 353 
f 351 343 353 
f 329 328 354 
f 336 329 354 
f 342 336 354 
f 342 354 355 
f 333 347 355 
f 347 342 355 
f 328 348 355 
f 348 333 355 
o convex_10
v 0.073783 -0.005879 0.143099
v 0.018063 -0.057621 0.105302
v 0.020056 -0.057621 0.105302
v 0.033989 0.095595 0.105302
v 0.018063 0.091606 0.149066
v 0.077769 0.025946 0.105290
v 0.061837 0.095595 0.164990
v 0.018063 -0.027761 0.147079
v 0.018063 0.095595 0.105302
v 0.077769 -0.025781 0.111262
v 0.022049 -0.051637 0.135140
v 0.077769 0.035889 0.153051
v 0.041955 0.023951 0.159018
v 0.077769 -0.021806 0.131166
v 0.053883 0.023951 0.159018
v 0.045929 0.091606 0.162998
v 0.047916 -0.027761 0.143099
v 0.061837 0.095595 0.159018
v 0.045929 -0.043688 0.105302
v 0.018063 -0.013843 0.149066
v 0.018063 0.095595 0.147079
v 0.063830 0.073699 0.164990
v 0.030015 -0.051637 0.125200
v 0.035982 -0.021791 0.149066
v 0.077769 0.041859 0.149072
v 0.018063 -0.045668 0.141107
v 0.077769 0.004064 0.105290
v 0.047916 0.053797 0.162998
v 0.045929 0.002085 0.155038
v 0.073783 -0.019812 0.137127
v 0.077769 0.027926 0.107283
v 0.051890 0.093600 0.164990
v 0.075776 -0.023786 0.131166
v 0.077769 0.012028 0.147079
f 385 369 389 
f 360 357 363 
f 357 360 364 
f 361 357 364 
f 359 361 364 
f 362 359 364 
f 357 358 366 
f 365 361 367 
f 365 367 369 
f 359 362 373 
f 360 363 375 
f 363 368 375 
f 371 360 375 
f 364 360 376 
f 362 364 376 
f 367 362 377 
f 370 367 377 
f 366 358 378 
f 358 374 378 
f 374 365 378 
f 367 361 380 
f 362 367 380 
f 373 362 380 
f 363 357 381 
f 357 366 381 
f 366 372 381 
f 379 363 381 
f 372 379 381 
f 358 357 382 
f 357 361 382 
f 361 365 382 
f 374 358 382 
f 365 374 382 
f 368 370 383 
f 375 368 383 
f 371 375 383 
f 370 377 383 
f 368 363 384 
f 356 370 384 
f 370 368 384 
f 372 356 384 
f 363 379 384 
f 379 372 384 
f 372 366 385 
f 356 372 385 
f 361 359 386 
f 359 373 386 
f 380 361 386 
f 373 380 386 
f 360 371 387 
f 376 360 387 
f 362 376 387 
f 377 362 387 
f 371 383 387 
f 383 377 387 
f 365 369 388 
f 366 378 388 
f 378 365 388 
f 369 385 388 
f 385 366 388 
f 369 367 389 
f 370 356 389 
f 367 370 389 
f 356 385 389 
o convex_11
v 0.039956 0.169248 0.101305
v 0.018063 0.095610 0.083398
v 0.071790 0.095610 0.083398
v 0.018063 0.095610 0.107280
v 0.018063 0.163272 0.083398
v 0.077769 0.169248 0.107280
v 0.077769 0.169248 0.083398
v 0.018063 0.153318 0.107280
v 0.077769 0.147342 0.107280
v 0.033989 0.095610 0.107280
v 0.069803 0.095610 0.087381
v 0.030009 0.169248 0.083398
v 0.039956 0.167251 0.107280
v 0.077769 0.149332 0.085389
v 0.018063 0.161283 0.095339
f 397 402 404 
f 391 392 393 
f 392 391 394 
f 391 393 394 
f 392 394 396 
f 390 395 396 
f 394 393 397 
f 393 395 397 
f 395 393 398 
f 396 395 398 
f 393 392 399 
f 398 393 399 
f 398 399 400 
f 392 398 400 
f 399 392 400 
f 390 396 401 
f 396 394 401 
f 395 390 402 
f 397 395 402 
f 392 396 403 
f 398 392 403 
f 396 398 403 
f 394 397 404 
f 390 401 404 
f 401 394 404 
f 402 390 404 
o convex_12
v 0.077769 0.149332 0.155036
v 0.018063 0.095610 0.107280
v 0.031996 0.095610 0.107280
v 0.077769 0.169248 0.107280
v 0.018063 0.153318 0.109280
v 0.061843 0.095610 0.164996
v 0.018063 0.101586 0.147076
v 0.077769 0.145360 0.109280
v 0.063836 0.153318 0.151064
v 0.061843 0.169248 0.123206
v 0.018063 0.125466 0.137127
v 0.077769 0.129452 0.159025
v 0.053883 0.109543 0.162996
v 0.041949 0.167251 0.107280
v 0.020056 0.095610 0.149070
v 0.061843 0.095610 0.159025
v 0.049903 0.159286 0.135149
v 0.077769 0.167251 0.131166
v 0.057863 0.141374 0.155036
v 0.037969 0.095610 0.115246
v 0.069803 0.139392 0.159025
v 0.055876 0.165255 0.131166
v 0.018063 0.153318 0.107280
v 0.020056 0.107554 0.147076
v 0.047916 0.097614 0.162996
v 0.018063 0.133424 0.131166
v 0.077769 0.147342 0.107280
v 0.069803 0.161283 0.143098
v 0.077769 0.129452 0.153053
v 0.033989 0.163272 0.111263
v 0.047916 0.169248 0.111263
v 0.057863 0.151336 0.149070
f 421 430 436 
f 407 406 408 
f 406 407 410 
f 409 406 411 
f 408 405 412 
f 409 411 415 
f 412 405 416 
f 408 406 418 
f 406 410 419 
f 411 406 419 
f 410 407 420 
f 416 410 420 
f 405 408 422 
f 408 414 422 
f 407 412 424 
f 420 407 424 
f 412 420 424 
f 405 413 425 
f 416 405 425 
f 410 416 425 
f 417 410 425 
f 413 423 425 
f 423 417 425 
f 421 413 426 
f 422 414 426 
f 406 409 427 
f 418 406 427 
f 415 411 428 
f 423 415 428 
f 417 423 428 
f 410 417 429 
f 419 410 429 
f 411 419 429 
f 428 411 429 
f 417 428 429 
f 409 415 430 
f 421 409 430 
f 407 408 431 
f 412 407 431 
f 408 412 431 
f 413 405 432 
f 405 422 432 
f 426 413 432 
f 422 426 432 
f 412 416 433 
f 420 412 433 
f 416 420 433 
f 409 421 434 
f 421 426 434 
f 427 409 434 
f 418 427 434 
f 414 408 435 
f 408 418 435 
f 426 414 435 
f 418 434 435 
f 434 426 435 
f 413 421 436 
f 423 413 436 
f 415 423 436 
f 430 415 436 
o convex_13
v 0.117571 -0.007881 0.099319
v 0.129514 0.029933 0.091358
v 0.129514 0.029933 0.083398
v 0.077769 0.023959 0.099319
v 0.085731 0.017989 0.083398
v 0.129514 -0.007881 0.083398
v 0.129514 0.027938 0.099319
v 0.129514 -0.005886 0.099319
v 0.085731 0.021971 0.083398
v 0.077769 0.019976 0.097326
v 0.123543 -0.007881 0.083398
f 442 437 447 
f 438 439 440 
f 441 439 442 
f 439 438 442 
f 438 440 443 
f 440 437 443 
f 442 438 443 
f 437 442 444 
f 443 437 444 
f 442 443 444 
f 440 439 445 
f 439 441 445 
f 445 441 446 
f 437 440 446 
f 441 437 446 
f 440 445 446 
f 437 441 447 
f 441 442 447 
o convex_14
v 0.079760 -0.021807 0.129168
v 0.079760 0.039884 0.151065
v 0.077769 0.039884 0.151065
v 0.129514 0.025951 0.099319
v 0.077769 0.023963 0.099319
v 0.129514 0.006052 0.123211
v 0.121552 -0.009869 0.099319
v 0.077769 -0.023802 0.111263
v 0.129514 0.023963 0.125192
v 0.077769 -0.009869 0.139121
v 0.129514 -0.005886 0.109277
v 0.081755 0.033912 0.151065
v 0.105622 -0.003897 0.131154
v 0.077769 0.015996 0.099319
v 0.077769 0.025951 0.101310
v 0.127524 -0.003897 0.117240
v 0.129514 -0.005886 0.099319
v 0.081755 -0.023802 0.117240
v 0.125533 0.012018 0.127177
v 0.115580 -0.009869 0.099319
v 0.089713 0.000086 0.139121
v 0.079760 -0.017830 0.135135
v 0.077769 0.039884 0.149074
v 0.129514 0.025951 0.113258
f 456 451 471 
f 452 451 454 
f 450 452 455 
f 453 451 456 
f 455 448 457 
f 450 455 457 
f 451 453 458 
f 449 450 459 
f 456 449 459 
f 450 457 459 
f 452 454 461 
f 455 452 461 
f 451 452 462 
f 452 450 462 
f 448 458 463 
f 458 453 463 
f 453 460 463 
f 454 451 464 
f 451 458 464 
f 458 454 464 
f 455 454 465 
f 448 455 465 
f 458 448 465 
f 454 458 465 
f 453 456 466 
f 456 459 466 
f 460 453 466 
f 454 455 467 
f 461 454 467 
f 455 461 467 
f 459 457 468 
f 466 459 468 
f 460 466 468 
f 457 448 469 
f 448 463 469 
f 463 460 469 
f 468 457 469 
f 460 468 469 
f 450 449 470 
f 449 451 470 
f 462 450 470 
f 451 462 470 
f 451 449 471 
f 449 456 471 
o convex_15
v 0.131510 -0.005888 0.107277
v 0.131510 0.023974 0.125188
v 0.137480 0.025941 0.123196
v 0.157372 0.057796 0.083402
v 0.129514 0.031914 0.083402
v 0.159365 0.010036 0.083402
v 0.159365 0.023974 0.111256
v 0.129514 -0.007881 0.083402
v 0.159365 0.039879 0.113248
v 0.129514 0.004064 0.121208
v 0.147423 0.002071 0.105289
v 0.129514 0.023974 0.125188
v 0.159365 0.057796 0.085394
v 0.159365 0.012023 0.101313
v 0.135490 0.004064 0.119216
v 0.143449 -0.001908 0.083402
f 482 472 487 
f 476 475 477 
f 476 477 479 
f 473 474 480 
f 474 478 480 
f 478 477 480 
f 479 472 481 
f 476 479 481 
f 475 476 483 
f 473 480 483 
f 481 473 483 
f 476 481 483 
f 477 475 484 
f 480 477 484 
f 475 483 484 
f 483 480 484 
f 477 478 485 
f 482 477 485 
f 482 485 486 
f 474 473 486 
f 478 474 486 
f 473 481 486 
f 481 472 486 
f 472 482 486 
f 485 478 486 
f 472 479 487 
f 479 477 487 
f 477 482 487 
o convex_16
v 0.169322 0.021978 0.083398
v 0.163349 0.043869 0.111260
v 0.167330 0.049835 0.109270
v 0.165341 0.083659 0.083398
v 0.183250 0.087649 0.087382
v 0.159368 0.014013 0.083398
v 0.175288 0.033919 0.095344
v 0.159368 0.021978 0.109270
v 0.177277 0.087649 0.099315
v 0.159368 0.061769 0.085389
v 0.183250 0.061769 0.083398
v 0.177277 0.053803 0.101306
v 0.159368 0.041877 0.111260
v 0.161362 0.014013 0.099315
v 0.169322 0.087649 0.091359
v 0.183250 0.087649 0.083398
v 0.161362 0.021978 0.109270
v 0.181256 0.065752 0.095344
v 0.179269 0.041877 0.087382
f 498 505 506 
f 491 488 493 
f 489 490 496 
f 491 493 497 
f 493 495 497 
f 488 491 498 
f 496 490 499 
f 489 496 500 
f 491 497 500 
f 497 495 500 
f 493 488 501 
f 488 494 501 
f 495 493 501 
f 496 492 502 
f 500 496 502 
f 491 500 502 
f 498 491 503 
f 492 498 503 
f 491 502 503 
f 502 492 503 
f 490 489 504 
f 494 499 504 
f 499 490 504 
f 489 500 504 
f 500 495 504 
f 501 494 504 
f 495 501 504 
f 492 496 505 
f 498 492 505 
f 496 499 505 
f 505 499 506 
f 494 488 506 
f 488 498 506 
f 499 494 506 
o convex_17
v 0.099660 0.165265 0.131151
v 0.077769 0.131434 0.153042
v 0.079761 0.131434 0.153042
v 0.101652 0.151333 0.083398
v 0.077769 0.169248 0.083398
v 0.077769 0.161286 0.143095
v 0.077769 0.151333 0.083398
v 0.101652 0.149349 0.143095
v 0.101652 0.167253 0.083398
v 0.077769 0.169248 0.125190
v 0.101652 0.169248 0.115243
v 0.081753 0.147361 0.155039
v 0.095676 0.157300 0.143095
v 0.083744 0.135417 0.157035
v 0.099660 0.169248 0.083398
v 0.077769 0.143382 0.157035
f 520 518 522 
f 509 508 510 
f 511 508 512 
f 510 508 513 
f 511 510 513 
f 508 511 513 
f 509 510 514 
f 510 511 515 
f 514 510 515 
f 511 512 516 
f 512 507 516 
f 507 514 517 
f 514 515 517 
f 511 516 517 
f 516 507 517 
f 518 514 519 
f 507 512 519 
f 514 507 519 
f 512 518 519 
f 508 509 520 
f 509 514 520 
f 514 518 520 
f 515 511 521 
f 511 517 521 
f 517 515 521 
f 512 508 522 
f 518 512 522 
f 508 520 522 
o convex_18
v 0.111603 0.167258 0.089375
v 0.125534 0.155319 0.123199
v 0.121551 0.157304 0.125187
v 0.101652 0.151340 0.083398
v 0.101652 0.153326 0.141114
v 0.125534 0.145365 0.083398
v 0.101652 0.167258 0.123199
v 0.125534 0.163276 0.083398
v 0.101652 0.149347 0.141114
v 0.101652 0.167258 0.083398
v 0.115582 0.165267 0.117222
v 0.125534 0.151340 0.123199
v 0.103643 0.161283 0.135142
v 0.125534 0.161283 0.111261
v 0.121551 0.145365 0.083398
f 528 531 537 
f 524 525 527 
f 526 527 529 
f 524 528 530 
f 528 526 530 
f 527 526 531 
f 524 527 531 
f 529 523 532 
f 526 529 532 
f 523 530 532 
f 530 526 532 
f 523 529 533 
f 530 523 533 
f 528 524 534 
f 524 531 534 
f 531 528 534 
f 527 525 535 
f 529 527 535 
f 525 533 535 
f 533 529 535 
f 525 524 536 
f 524 530 536 
f 533 525 536 
f 530 533 536 
f 526 528 537 
f 531 526 537 
o convex_19
v 0.135486 0.151335 0.117229
v 0.151406 0.125463 0.083398
v 0.153397 0.125463 0.083398
v 0.125534 0.161287 0.083398
v 0.153397 0.147355 0.083398
v 0.125534 0.143375 0.085393
v 0.125534 0.151335 0.121212
v 0.153397 0.137410 0.107279
v 0.129519 0.161287 0.103297
v 0.153397 0.147355 0.097330
v 0.151406 0.125463 0.087380
v 0.139466 0.157303 0.083398
v 0.127525 0.159295 0.115234
f 547 546 550 
f 540 539 541 
f 540 541 542 
f 541 539 543 
f 541 543 544 
f 540 542 545 
f 538 544 545 
f 538 545 547 
f 545 542 547 
f 539 540 548 
f 543 539 548 
f 544 543 548 
f 545 544 548 
f 540 545 548 
f 542 541 549 
f 541 546 549 
f 547 542 549 
f 546 547 549 
f 541 544 550 
f 544 538 550 
f 546 541 550 
f 538 547 550 
o convex_20
v 0.181255 0.101581 0.087379
v 0.153400 0.121473 0.083398
v 0.153400 0.121473 0.085391
v 0.155392 0.145365 0.083398
v 0.153400 0.139394 0.105290
v 0.175286 0.087649 0.099315
v 0.165341 0.089649 0.083398
v 0.167330 0.125456 0.101308
v 0.183247 0.087649 0.083398
v 0.169317 0.131428 0.083398
v 0.153400 0.133416 0.105290
v 0.163351 0.137399 0.095338
v 0.177275 0.095615 0.099315
v 0.173296 0.123468 0.091361
v 0.169317 0.087649 0.091361
f 561 557 565 
f 552 553 555 
f 554 552 555 
f 553 552 557 
f 552 554 557 
f 557 554 559 
f 551 559 560 
f 559 554 560 
f 555 553 561 
f 553 557 561 
f 554 555 562 
f 555 558 562 
f 560 554 562 
f 558 555 563 
f 559 551 563 
f 556 559 563 
f 555 561 563 
f 561 556 563 
f 551 560 564 
f 562 558 564 
f 560 562 564 
f 563 551 564 
f 558 563 564 
f 559 556 565 
f 557 559 565 
f 556 561 565 
o convex_21
v 0.075779 0.091630 -0.083783
v 0.047916 0.029938 -0.097711
v 0.047916 0.029938 -0.083783
v 0.075779 0.027943 -0.083783
v 0.047916 0.091630 -0.081790
v 0.051898 0.091630 -0.097711
v 0.075779 0.027943 -0.081790
v 0.047916 0.091630 -0.097711
v 0.075779 0.091630 -0.081790
v 0.051898 0.033921 -0.097711
v 0.047916 0.039887 -0.081790
f 572 570 576 
f 568 567 569 
f 567 568 570 
f 566 569 571 
f 570 566 571 
f 568 569 572 
f 569 566 572 
f 567 570 573 
f 571 567 573 
f 570 571 573 
f 566 570 574 
f 572 566 574 
f 570 572 574 
f 569 567 575 
f 567 571 575 
f 571 569 575 
f 570 568 576 
f 568 572 576 
o convex_22
v 0.047919 0.117513 -0.157407
v 0.077766 0.169240 -0.099702
v 0.077766 0.169240 -0.125581
v 0.047919 0.169240 -0.099702
v 0.049911 0.091637 -0.139498
v 0.077766 0.129455 -0.159400
v 0.077766 0.147346 -0.099702
v 0.057870 0.159288 -0.141491
v 0.047919 0.133413 -0.099702
v 0.061849 0.091637 -0.165372
v 0.071794 0.149336 -0.155421
v 0.047919 0.091637 -0.163379
v 0.047919 0.161279 -0.129560
v 0.065825 0.143365 -0.157407
v 0.077766 0.161279 -0.143478
v 0.057870 0.167250 -0.127574
v 0.061849 0.091637 -0.161386
v 0.055880 0.149336 -0.149449
v 0.055880 0.099599 -0.165372
v 0.051901 0.133413 -0.099702
v 0.047919 0.091637 -0.139498
v 0.077766 0.129455 -0.153428
v 0.047919 0.169240 -0.111652
v 0.047919 0.143365 -0.145470
v 0.077766 0.143365 -0.157407
f 595 590 601 
f 578 579 580 
f 579 578 582 
f 578 580 583 
f 582 578 583 
f 580 577 585 
f 583 580 585 
f 585 577 588 
f 586 581 588 
f 577 580 589 
f 579 582 591 
f 587 584 591 
f 584 589 592 
f 579 591 592 
f 591 584 592 
f 583 581 593 
f 581 586 593 
f 586 582 593 
f 584 587 594 
f 589 584 594 
f 590 577 594 
f 587 590 594 
f 582 586 595 
f 586 588 595 
f 588 577 595 
f 577 590 595 
f 581 583 596 
f 585 581 596 
f 583 585 596 
f 581 585 597 
f 585 588 597 
f 588 581 597 
f 582 583 598 
f 583 593 598 
f 593 582 598 
f 580 579 599 
f 589 580 599 
f 579 592 599 
f 592 589 599 
f 577 589 600 
f 594 577 600 
f 589 594 600 
f 590 587 601 
f 591 582 601 
f 587 591 601 
f 582 595 601 
o convex_23
v 0.077766 0.169240 -0.099702
v 0.047919 0.091637 -0.097710
v 0.047919 0.091637 -0.081790
v 0.047919 0.169240 -0.081790
v 0.075774 0.091637 -0.081790
v 0.047919 0.169240 -0.099702
v 0.077766 0.169240 -0.081790
v 0.077766 0.147346 -0.099702
v 0.065825 0.091637 -0.089751
v 0.047919 0.133413 -0.099702
v 0.051901 0.091637 -0.097710
f 603 611 612 
f 603 604 605 
f 604 603 606 
f 605 604 606 
f 603 605 607 
f 605 602 607 
f 602 605 608 
f 605 606 608 
f 608 606 609 
f 607 602 609 
f 602 608 609 
f 606 603 610 
f 609 606 610 
f 603 607 611 
f 607 609 611 
f 611 609 612 
f 610 603 612 
f 609 610 612 
o convex_24
v 0.127534 -0.001908 -0.119597
v 0.177279 0.039884 -0.081795
v 0.177279 0.037894 -0.081795
v 0.109626 0.023960 -0.081795
v 0.109626 0.021969 -0.133535
v 0.123554 -0.007880 -0.081795
v 0.159358 0.039884 -0.113626
v 0.109626 -0.011861 -0.113626
v 0.155377 0.008045 -0.101699
v 0.139475 0.039884 -0.081795
v 0.153390 0.004064 -0.081795
v 0.165332 0.027941 -0.107665
v 0.111613 0.004064 -0.131540
v 0.109626 0.002073 -0.081795
v 0.139475 -0.003899 -0.101699
v 0.139475 0.015992 -0.121588
v 0.169312 0.021969 -0.091747
v 0.175279 0.037894 -0.097718
v 0.131515 -0.007880 -0.081795
v 0.109626 -0.011861 -0.101699
v 0.153390 0.014012 -0.111636
v 0.111613 -0.009871 -0.121588
v 0.113599 0.017988 -0.133535
v 0.139475 -0.001908 -0.109645
v 0.155377 0.039884 -0.111636
v 0.111613 0.025945 -0.083785
f 622 617 638 
f 615 614 616 
f 615 616 618 
f 616 617 620 
f 616 614 622 
f 614 619 622 
f 615 618 623 
f 620 617 625 
f 618 616 626 
f 616 620 626 
f 621 623 627 
f 619 624 628 
f 613 625 628 
f 615 623 629 
f 623 621 629 
f 621 624 629 
f 629 624 630 
f 614 615 630 
f 619 614 630 
f 624 619 630 
f 615 629 630 
f 623 618 631 
f 620 627 631 
f 627 623 631 
f 618 626 632 
f 626 620 632 
f 631 618 632 
f 620 631 632 
f 624 621 633 
f 613 628 633 
f 628 624 633 
f 625 613 634 
f 620 625 634 
f 627 620 634 
f 617 619 635 
f 625 617 635 
f 619 628 635 
f 628 625 635 
f 621 627 636 
f 613 633 636 
f 633 621 636 
f 634 613 636 
f 627 634 636 
f 619 617 637 
f 617 622 637 
f 622 619 637 
f 617 616 638 
f 616 622 638 
o convex_25
v 0.087724 0.163274 -0.139497
v 0.077769 0.131434 -0.157410
v 0.079760 0.131434 -0.157410
v 0.077769 0.151333 -0.081797
v 0.105632 0.151333 -0.081797
v 0.077769 0.169248 -0.081797
v 0.105632 0.165265 -0.127557
v 0.105632 0.151333 -0.139497
v 0.077769 0.167253 -0.131540
v 0.101647 0.169248 -0.081797
v 0.079760 0.151333 -0.153428
v 0.095677 0.169248 -0.123575
v 0.105632 0.167253 -0.081797
v 0.103641 0.153320 -0.141488
v 0.077769 0.169248 -0.123575
v 0.085730 0.141391 -0.155419
f 649 652 654 
f 640 641 642 
f 642 641 643 
f 640 642 644 
f 642 643 644 
f 643 641 646 
f 645 643 646 
f 640 644 647 
f 644 643 648 
f 640 647 649 
f 647 639 649 
f 645 639 650 
f 639 647 650 
f 648 645 650 
f 644 648 650 
f 643 645 651 
f 645 648 651 
f 648 643 651 
f 639 645 652 
f 645 646 652 
f 649 639 652 
f 647 644 653 
f 650 647 653 
f 644 650 653 
f 641 640 654 
f 646 641 654 
f 640 649 654 
f 652 646 654 
o convex_26
v 0.109616 0.167258 -0.115617
v 0.123541 0.145365 -0.089758
v 0.125534 0.145365 -0.089758
v 0.107625 0.151340 -0.137510
v 0.105632 0.151340 -0.081790
v 0.125534 0.163276 -0.081790
v 0.125534 0.155319 -0.123574
v 0.105632 0.167258 -0.081790
v 0.105632 0.163276 -0.129547
v 0.119561 0.145365 -0.081790
v 0.125534 0.161283 -0.111635
v 0.125534 0.151340 -0.123574
v 0.105632 0.151340 -0.137510
f 664 659 667 
f 657 656 658 
f 660 657 661 
f 660 655 662 
f 659 660 662 
f 661 658 663 
f 662 655 663 
f 659 662 663 
f 656 657 664 
f 657 660 664 
f 660 659 664 
f 655 660 665 
f 660 661 665 
f 661 663 665 
f 663 655 665 
f 657 658 666 
f 661 657 666 
f 658 661 666 
f 658 656 667 
f 663 658 667 
f 659 663 667 
f 656 664 667 
o convex_27
v 0.139466 0.157304 -0.085775
v 0.151406 0.123473 -0.083784
v 0.153397 0.123473 -0.083784
v 0.127525 0.151330 -0.121594
v 0.125534 0.143372 -0.081794
v 0.153397 0.139400 -0.107658
v 0.153397 0.147351 -0.081794
v 0.125534 0.161287 -0.081794
v 0.139466 0.155313 -0.107658
v 0.125534 0.161287 -0.107658
v 0.125534 0.149339 -0.115618
v 0.151406 0.135421 -0.105667
v 0.153397 0.147351 -0.095725
v 0.127525 0.155313 -0.121594
v 0.153397 0.123473 -0.081794
f 670 674 682 
f 670 673 674 
f 674 668 675 
f 672 674 675 
f 675 668 677 
f 672 675 677 
f 668 676 677 
f 671 669 678 
f 669 672 678 
f 672 677 678 
f 670 669 679 
f 669 671 679 
f 673 670 679 
f 671 673 679 
f 668 674 680 
f 674 673 680 
f 673 676 680 
f 676 668 680 
f 673 671 681 
f 676 673 681 
f 677 676 681 
f 671 678 681 
f 678 677 681 
f 669 670 682 
f 672 669 682 
f 674 672 682 
o convex_28
v 0.181260 0.099599 -0.089754
v 0.153397 0.119492 -0.083784
v 0.153397 0.119492 -0.081792
v 0.155388 0.145365 -0.081792
v 0.153397 0.139385 -0.105670
v 0.173296 0.091630 -0.099697
v 0.181260 0.091630 -0.081792
v 0.163349 0.093623 -0.083784
v 0.169317 0.131426 -0.083784
v 0.171308 0.117503 -0.099697
v 0.153397 0.133420 -0.105670
v 0.163349 0.137396 -0.095719
v 0.179269 0.111539 -0.081792
v 0.177275 0.091630 -0.099697
v 0.173296 0.123468 -0.091743
v 0.165340 0.091630 -0.081792
v 0.153397 0.145365 -0.095719
v 0.157382 0.137396 -0.105670
f 687 699 700 
f 684 685 687 
f 686 685 689 
f 685 684 690 
f 684 687 693 
f 688 690 693 
f 690 684 693 
f 686 691 694 
f 686 689 695 
f 689 683 695 
f 691 686 695 
f 683 689 696 
f 689 688 696 
f 692 683 696 
f 688 693 696 
f 683 692 697 
f 694 691 697 
f 695 683 697 
f 691 695 697 
f 689 685 698 
f 688 689 698 
f 690 688 698 
f 685 690 698 
f 685 686 699 
f 687 685 699 
f 686 694 699 
f 699 694 700 
f 693 687 700 
f 692 696 700 
f 696 693 700 
f 697 692 700 
f 694 697 700 
o convex_29
v 0.185230 0.047852 0.057520
v 0.105632 0.025959 -0.000191
v 0.105632 0.025959 0.065486
v 0.105632 0.091623 -0.000191
v 0.189209 0.025959 -0.000191
v 0.185230 0.091623 0.065486
v 0.105632 0.091623 0.065486
v 0.181252 0.091623 -0.000191
v 0.173286 0.025959 0.065486
v 0.191203 0.089631 0.039610
v 0.191203 0.047852 -0.000191
v 0.191203 0.057801 0.039610
v 0.185230 0.059781 0.065486
v 0.191203 0.037902 0.017726
v 0.177265 0.031930 0.065486
v 0.187215 0.085652 0.061500
f 713 712 716 
f 702 703 704 
f 703 702 705 
f 702 704 705 
f 704 703 707 
f 703 706 707 
f 706 704 707 
f 705 704 708 
f 704 706 708 
f 703 705 709 
f 706 703 709 
f 708 706 710 
f 708 710 711 
f 705 708 711 
f 711 710 712 
f 706 709 713 
f 701 712 713 
f 705 711 714 
f 711 712 714 
f 712 701 714 
f 709 705 715 
f 701 713 715 
f 713 709 715 
f 714 701 715 
f 705 714 715 
f 710 706 716 
f 712 710 716 
f 706 713 716 
o convex_30
v 0.171300 0.025959 0.083398
v 0.185233 0.091623 0.067477
v 0.185233 0.091623 0.065486
v 0.107630 0.027952 0.065486
v 0.165329 0.091623 0.083398
v 0.173290 0.025959 0.065486
v 0.117582 0.025959 0.083398
v 0.155377 0.091623 0.065486
v 0.183242 0.061774 0.083398
v 0.183242 0.047852 0.065486
v 0.183242 0.091623 0.083398
v 0.107630 0.027952 0.067477
v 0.107630 0.025959 0.065486
v 0.179261 0.041880 0.083398
v 0.163338 0.091623 0.081406
v 0.117582 0.027952 0.083398
f 721 731 732 
f 718 719 721 
f 720 719 722 
f 717 721 723 
f 722 717 723 
f 719 720 724 
f 721 719 724 
f 721 717 725 
f 719 718 726 
f 722 719 726 
f 718 725 726 
f 718 721 727 
f 725 718 727 
f 721 725 727 
f 724 720 728 
f 720 722 729 
f 722 723 729 
f 728 720 729 
f 723 728 729 
f 717 722 730 
f 725 717 730 
f 722 726 730 
f 726 725 730 
f 721 724 731 
f 724 728 731 
f 731 728 732 
f 723 721 732 
f 728 723 732 
o convex_31
v 0.047916 0.025946 0.105290
v 0.018063 -0.057621 0.085391
v 0.024036 -0.057621 0.085391
v 0.018063 0.095595 0.083398
v 0.018063 -0.057621 0.105290
v 0.047916 -0.043688 0.085391
v 0.018063 0.095595 0.105290
v 0.047916 0.095595 0.083398
v 0.045923 -0.043688 0.105290
v 0.047916 0.095595 0.099315
v 0.037963 0.095595 0.105290
v 0.047916 0.041859 0.083398
v 0.047916 -0.041693 0.103297
v 0.018063 0.057786 0.083398
v 0.033980 -0.051637 0.103297
f 738 741 747 
f 734 735 737 
f 736 734 737 
f 737 733 739 
f 736 737 739 
f 733 738 740 
f 736 739 740 
f 733 737 741 
f 733 740 742 
f 740 739 742 
f 739 733 743 
f 733 742 743 
f 742 739 743 
f 735 734 744 
f 738 735 744 
f 736 740 744 
f 740 738 744 
f 738 733 745 
f 733 741 745 
f 741 738 745 
f 734 736 746 
f 744 734 746 
f 736 744 746 
f 737 735 747 
f 735 738 747 
f 741 737 747 
o convex_32
v 0.047919 0.002075 -0.153432
v 0.049911 0.039877 -0.097711
v 0.049911 0.041867 -0.099712
v 0.077766 -0.021805 -0.131540
v 0.071794 0.049835 -0.157409
v 0.047919 -0.039724 -0.109661
v 0.077766 0.025946 -0.097711
v 0.047919 0.049835 -0.161392
v 0.077766 -0.025785 -0.111649
v 0.049911 -0.035735 -0.135517
v 0.077766 0.037886 -0.153432
v 0.047919 0.049835 -0.115632
v 0.077766 -0.011846 -0.139500
v 0.055880 0.027936 -0.159397
v 0.047919 0.029926 -0.097711
v 0.047919 -0.025785 -0.143477
v 0.051901 0.049835 -0.117621
v 0.077766 0.021958 -0.097711
v 0.049911 -0.039724 -0.121598
v 0.057870 0.014006 -0.155420
v 0.071794 0.049835 -0.153432
v 0.077766 0.041867 -0.149449
v 0.061849 0.047837 -0.161392
v 0.063836 -0.019815 -0.141488
f 763 767 771 
f 750 749 754 
f 748 753 755 
f 751 754 756 
f 754 751 758 
f 749 750 759 
f 752 755 759 
f 755 753 759 
f 758 751 760 
f 748 755 761 
f 754 749 762 
f 749 759 762 
f 759 753 762 
f 753 748 763 
f 757 753 763 
f 750 754 764 
f 759 750 764 
f 752 759 764 
f 753 756 765 
f 756 754 765 
f 762 753 765 
f 754 762 765 
f 751 756 766 
f 756 753 766 
f 757 751 766 
f 753 757 766 
f 758 760 767 
f 761 758 767 
f 748 761 767 
f 763 748 767 
f 764 754 768 
f 752 764 768 
f 758 752 769 
f 754 758 769 
f 752 768 769 
f 768 754 769 
f 755 752 770 
f 752 758 770 
f 758 761 770 
f 761 755 770 
f 751 757 771 
f 760 751 771 
f 757 763 771 
f 767 760 771 
o convex_33
v 0.057868 0.091630 -0.153434
v 0.047916 0.049835 -0.161391
v 0.047916 0.059789 -0.163382
v 0.047916 0.051832 -0.117618
v 0.069808 0.049835 -0.159399
v 0.047916 0.091630 -0.163382
v 0.061847 0.091630 -0.165374
v 0.047916 0.091630 -0.139511
v 0.069808 0.051832 -0.151442
v 0.049907 0.049835 -0.117618
v 0.059856 0.053820 -0.163382
v 0.049907 0.091630 -0.139511
f 781 780 783 
f 774 773 775 
f 774 775 777 
f 774 777 778 
f 777 772 778 
f 777 775 779 
f 772 777 779 
f 778 772 780 
f 776 778 780 
f 775 773 781 
f 773 776 781 
f 776 780 781 
f 773 774 782 
f 776 773 782 
f 778 776 782 
f 774 778 782 
f 772 779 783 
f 779 775 783 
f 780 772 783 
f 775 781 783 
o convex_34
v 0.103637 -0.007881 -0.129547
v 0.087725 0.023963 -0.099707
v 0.079761 0.025951 -0.101697
v 0.079761 0.039884 -0.151447
v 0.077769 -0.023802 -0.123591
v 0.109612 0.021968 -0.099707
v 0.107621 -0.013847 -0.103687
v 0.109612 0.021968 -0.135519
v 0.077769 -0.023802 -0.111649
v 0.077769 0.002075 -0.143480
v 0.077769 0.015996 -0.099707
v 0.109612 -0.011858 -0.117620
v 0.079761 -0.017830 -0.135519
v 0.109612 -0.003897 -0.099707
v 0.077769 0.039884 -0.149451
v 0.109612 0.002075 -0.131538
v 0.081753 0.027940 -0.149451
v 0.085736 -0.003897 -0.139499
f 793 800 801 
f 786 785 789 
f 787 789 791 
f 788 790 792 
f 788 792 793 
f 793 792 794 
f 785 786 794 
f 789 785 794 
f 790 788 795 
f 791 789 795 
f 788 793 796 
f 784 795 796 
f 795 788 796 
f 792 790 797 
f 794 792 797 
f 789 794 797 
f 790 795 797 
f 795 789 797 
f 786 789 798 
f 789 787 798 
f 787 793 798 
f 793 794 798 
f 794 786 798 
f 795 784 799 
f 791 795 799 
f 787 791 800 
f 793 787 800 
f 791 799 800 
f 800 799 801 
f 784 796 801 
f 796 793 801 
f 799 784 801 
o convex_35
v 0.079761 0.017990 -0.099702
v 0.109612 0.023963 -0.081790
v 0.109612 0.004061 -0.081790
v 0.109612 0.021969 -0.099702
v 0.109612 0.000080 -0.099702
v 0.085736 0.021969 -0.081790
v 0.077769 0.023963 -0.099702
v 0.085736 0.017990 -0.081790
v 0.103637 0.002074 -0.097710
f 809 802 810 
f 803 804 805 
f 802 805 806 
f 805 804 806 
f 804 803 807 
f 803 805 808 
f 805 802 808 
f 807 803 808 
f 807 808 809 
f 804 807 809 
f 808 802 809 
f 804 809 810 
f 802 806 810 
f 806 804 810 
o convex_36
v 0.055878 0.037905 0.095339
v 0.047916 0.029937 0.085388
v 0.047916 0.029937 0.095339
v 0.047916 0.095610 0.095339
v 0.071798 0.095610 0.083398
v 0.071798 0.027943 0.083398
v 0.047916 0.095610 0.083398
v 0.069807 0.095610 0.087379
v 0.055878 0.095610 0.095339
v 0.069807 0.029937 0.087379
v 0.047916 0.039885 0.083398
f 817 816 821 
f 812 813 814 
f 813 811 814 
f 813 812 816 
f 812 814 817 
f 814 815 817 
f 815 816 817 
f 815 814 818 
f 816 815 818 
f 814 811 819 
f 811 818 819 
f 818 814 819 
f 811 813 820 
f 813 816 820 
f 818 811 820 
f 816 818 820 
f 816 812 821 
f 812 817 821 
o convex_37
v 0.077766 0.008050 0.105290
v 0.047919 0.023973 0.103299
v 0.049911 0.021985 0.103299
v 0.051901 0.095602 0.095339
v 0.049911 0.029946 0.095339
v 0.077766 0.021985 0.097330
v 0.047919 0.043873 0.105290
v 0.077766 0.025961 0.105290
v 0.047919 0.095602 0.097330
v 0.047919 0.029946 0.095339
v 0.075774 0.008050 0.103299
f 824 831 832 
f 822 823 824 
f 826 825 827 
f 823 822 828 
f 822 827 829 
f 827 825 829 
f 828 822 829 
f 828 829 830 
f 823 828 830 
f 829 825 830 
f 823 830 831 
f 824 823 831 
f 825 826 831 
f 826 827 831 
f 830 825 831 
f 831 827 832 
f 822 824 832 
f 827 822 832 
