o convex_0
v 0.144404 0.020045 -0.086361
v -0.145575 -0.007100 -0.086361
v -0.145575 -0.007100 -0.085066
v 0.007170 -0.145647 -0.086361
v 0.108164 -0.064041 -0.064356
v -0.040704 0.083488 -0.064356
v -0.040704 -0.083459 -0.064356
v -0.019974 0.144336 -0.086361
v 0.096502 0.075704 -0.064356
v 0.112042 -0.093838 -0.086361
v -0.097645 -0.108095 -0.082477
v 0.087435 0.117162 -0.086361
v -0.106712 0.099028 -0.082477
v 0.027899 0.143053 -0.082477
v 0.057667 -0.132674 -0.081182
v -0.144264 -0.012261 -0.082477
v 0.131459 -0.017450 -0.069534
v -0.027759 -0.143053 -0.082477
v 0.073207 -0.084771 -0.064356
v 0.134054 0.056286 -0.081182
v -0.105429 -0.101622 -0.086361
v -0.054932 0.135268 -0.082477
v 0.134054 -0.056286 -0.081182
v -0.120968 0.082176 -0.086361
v -0.133913 0.057597 -0.082477
v -0.133913 -0.057597 -0.082477
v 0.112042 0.058881 -0.064356
v 0.074490 0.084771 -0.064356
v 0.087435 0.115851 -0.081182
v -0.001869 0.145647 -0.082477
v 0.002009 -0.145647 -0.082477
v 0.104286 -0.101594 -0.081182
v 0.143121 -0.030395 -0.086361
v 0.131459 0.017450 -0.069534
v 0.122392 0.080893 -0.085066
v -0.054932 -0.135268 -0.082477
v 0.080962 -0.122323 -0.086361
v -0.080822 0.122323 -0.086361
v -0.056243 -0.135268 -0.086361
v 0.144404 0.008383 -0.081182
v -0.142981 0.025206 -0.082477
v 0.088747 -0.080893 -0.064356
v 0.104286 0.101594 -0.081182
v 0.057667 0.133957 -0.082477
v 0.030466 0.143053 -0.086361
v -0.114496 -0.084771 -0.081184
v -0.079539 0.122323 -0.082477
v 0.112042 -0.058881 -0.064356
v -0.135196 -0.056286 -0.086361
v -0.142981 0.030395 -0.086361
v 0.082274 -0.119729 -0.081182
v 0.121109 -0.080893 -0.081182
v 0.141810 -0.030395 -0.081182
v 0.027899 -0.143053 -0.082477
v 0.121109 0.080893 -0.081182
v -0.117091 0.080893 -0.081184
v -0.079539 -0.122323 -0.082477
v -0.027759 0.143053 -0.082477
v 0.135337 0.056286 -0.086361
v 0.056384 -0.135268 -0.086361
v -0.141669 -0.031707 -0.082477
v 0.135337 -0.056286 -0.086361
v 0.141810 0.030395 -0.081182
v 0.121109 0.045935 -0.066945
f 34 63 64 
f 2 1 4 
f 5 6 7 
f 1 2 8 
f 6 5 9 
f 4 1 10 
f 1 8 12 
f 7 6 16 
f 5 7 19 
f 2 4 21 
f 8 2 24 
f 13 24 25 
f 9 5 27 
f 6 9 28 
f 6 28 30 
f 28 14 30 
f 18 4 31 
f 7 18 31 
f 19 7 31 
f 10 1 33 
f 27 17 34 
f 18 7 36 
f 4 10 37 
f 10 32 37 
f 22 8 38 
f 8 24 38 
f 24 13 38 
f 4 18 39 
f 21 4 39 
f 18 36 39 
f 33 1 40 
f 34 17 40 
f 3 16 41 
f 16 6 41 
f 6 25 41 
f 19 15 42 
f 5 19 42 
f 32 5 42 
f 9 27 43 
f 12 29 43 
f 29 9 43 
f 35 12 43 
f 28 9 44 
f 14 28 44 
f 29 12 44 
f 9 29 44 
f 12 8 45 
f 8 30 45 
f 30 14 45 
f 44 12 45 
f 14 44 45 
f 11 7 46 
f 21 11 46 
f 7 26 46 
f 26 21 46 
f 13 6 47 
f 6 22 47 
f 38 13 47 
f 22 38 47 
f 23 17 48 
f 27 5 48 
f 17 27 48 
f 2 21 49 
f 21 26 49 
f 2 3 50 
f 24 2 50 
f 25 24 50 
f 3 41 50 
f 41 25 50 
f 37 32 51 
f 42 15 51 
f 32 42 51 
f 5 32 52 
f 32 10 52 
f 23 48 52 
f 48 5 52 
f 17 23 53 
f 23 33 53 
f 33 40 53 
f 40 17 53 
f 15 19 54 
f 31 4 54 
f 19 31 54 
f 27 20 55 
f 20 35 55 
f 43 27 55 
f 35 43 55 
f 6 13 56 
f 25 6 56 
f 13 25 56 
f 7 11 57 
f 11 21 57 
f 36 7 57 
f 21 39 57 
f 39 36 57 
f 22 6 58 
f 8 22 58 
f 30 8 58 
f 6 30 58 
f 1 12 59 
f 12 35 59 
f 35 20 59 
f 4 37 60 
f 51 15 60 
f 37 51 60 
f 15 54 60 
f 54 4 60 
f 3 2 61 
f 16 3 61 
f 7 16 61 
f 26 7 61 
f 2 49 61 
f 49 26 61 
f 10 33 62 
f 33 23 62 
f 52 10 62 
f 23 52 62 
f 40 1 63 
f 34 40 63 
f 1 59 63 
f 59 20 63 
f 20 27 64 
f 27 34 64 
f 63 20 64 
o convex_1
v 0.099100 -0.073149 -0.063056
v -0.039407 -0.083504 -0.064351
v -0.043299 -0.083504 -0.039758
v -0.039407 -0.065379 -0.064351
v 0.083565 -0.065379 -0.038461
v 0.073217 -0.083504 -0.038461
v -0.043299 -0.066675 -0.038461
v 0.080985 -0.083504 -0.064351
v 0.105585 -0.065379 -0.064351
v 0.083565 -0.080912 -0.038461
v -0.043299 -0.083504 -0.038461
v -0.039407 -0.065379 -0.048821
v 0.104288 -0.066675 -0.060466
v 0.090035 -0.079619 -0.064351
v 0.035661 -0.065379 -0.038461
f 76 71 79 
f 66 67 68 
f 67 66 70 
f 68 67 71 
f 70 69 71 
f 66 68 72 
f 70 66 72 
f 68 69 73 
f 72 68 73 
f 69 70 74 
f 70 72 74 
f 67 70 75 
f 71 67 75 
f 70 71 75 
f 69 68 76 
f 68 71 76 
f 73 69 77 
f 65 73 77 
f 69 74 77 
f 74 65 77 
f 73 65 78 
f 72 73 78 
f 65 74 78 
f 74 72 78 
f 71 69 79 
f 69 76 79 
o convex_2
v -0.039400 -0.065379 -0.050116
v 0.109455 -0.042076 -0.063057
v 0.109455 -0.061495 -0.063057
v 0.088735 -0.065379 -0.046229
v 0.021447 -0.042076 -0.046229
v -0.039400 -0.042076 -0.064352
v -0.039400 -0.065379 -0.064352
v 0.088735 -0.042076 -0.046229
v -0.039400 -0.042076 -0.048821
v 0.105564 -0.065379 -0.064352
v 0.021447 -0.065379 -0.046229
v 0.109455 -0.042076 -0.064352
f 89 85 91 
f 82 81 83 
f 84 81 85 
f 83 80 86 
f 80 85 86 
f 83 81 87 
f 84 83 87 
f 81 84 87 
f 84 85 88 
f 85 80 88 
f 82 83 89 
f 86 85 89 
f 83 86 89 
f 80 83 90 
f 83 84 90 
f 88 80 90 
f 84 88 90 
f 81 82 91 
f 85 81 91 
f 82 89 91 
o convex_3
v 0.069333 -0.042076 -0.006095
v 0.025318 -0.065379 -0.046229
v 0.025318 -0.065379 -0.044932
v 0.087460 -0.065379 -0.046229
v 0.025318 -0.042076 -0.046229
v 0.087460 -0.042076 -0.046229
v 0.069333 -0.065379 -0.007391
v 0.062855 -0.042076 -0.009980
v 0.066742 -0.065379 -0.007391
v 0.025318 -0.042076 -0.044932
v 0.087460 -0.065379 -0.044932
f 98 95 102 
f 94 93 95 
f 93 94 96 
f 95 93 96 
f 96 92 97 
f 95 96 97 
f 94 95 98 
f 92 96 99 
f 98 92 100 
f 94 98 100 
f 92 99 100 
f 99 94 100 
f 96 94 101 
f 99 96 101 
f 94 99 101 
f 97 92 102 
f 95 97 102 
f 92 98 102 
o convex_4
v 0.109469 -0.042064 -0.064352
v 0.079686 0.083504 -0.063057
v 0.080980 0.082201 -0.042347
v -0.040709 -0.042076 -0.042347
v -0.039401 0.083504 -0.064354
v -0.039401 -0.042076 -0.064354
v 0.086155 -0.042076 -0.042347
v -0.040709 0.083504 -0.042347
v 0.109469 0.061476 -0.064352
v 0.086155 0.079620 -0.042347
v 0.109469 0.061476 -0.063057
v 0.090050 0.079608 -0.064352
v 0.109469 -0.042064 -0.063057
v 0.073204 0.083504 -0.042347
v -0.040709 0.083504 -0.046231
v 0.097812 0.074433 -0.063057
v 0.079686 0.083504 -0.064354
v -0.040709 -0.042076 -0.046231
f 117 108 120 
f 105 106 109 
f 108 103 109 
f 106 108 109 
f 106 105 110 
f 104 107 110 
f 105 109 112 
f 103 111 113 
f 112 109 113 
f 104 105 114 
f 105 112 114 
f 109 103 115 
f 103 113 115 
f 113 109 115 
f 105 104 116 
f 110 105 116 
f 104 110 116 
f 107 108 117 
f 106 110 117 
f 110 107 117 
f 113 111 118 
f 112 113 118 
f 114 112 118 
f 111 114 118 
f 107 104 119 
f 103 108 119 
f 108 107 119 
f 111 103 119 
f 104 114 119 
f 114 111 119 
f 108 106 120 
f 106 117 120 
o convex_5
v 0.058987 -0.065379 -0.013858
v 0.082282 -0.065379 -0.035871
v 0.082282 -0.080912 -0.035871
v 0.036969 -0.065379 -0.038461
v 0.058987 -0.083504 0.012030
v 0.036969 -0.083504 -0.038461
v 0.062855 -0.066675 0.012030
v 0.073216 -0.083504 -0.038461
v 0.064154 -0.083504 0.012030
v 0.058987 -0.066675 0.012030
v 0.082282 -0.065379 -0.038461
v 0.036969 -0.065379 -0.037166
v 0.080987 -0.082209 -0.038461
v 0.064154 -0.073149 0.012030
f 127 129 134 
f 121 122 124 
f 122 121 127 
f 125 126 128 
f 126 124 128 
f 123 122 129 
f 127 125 129 
f 125 128 129 
f 127 121 130 
f 125 127 130 
f 122 123 131 
f 124 122 131 
f 128 124 131 
f 121 124 132 
f 126 125 132 
f 124 126 132 
f 130 121 132 
f 125 130 132 
f 123 129 133 
f 129 128 133 
f 131 123 133 
f 128 131 133 
f 122 127 134 
f 129 122 134 
o convex_6
v -0.060128 -0.083503 -0.011274
v -0.036825 -0.066676 -0.037161
v -0.036825 -0.083503 -0.037161
v -0.057535 -0.066676 -0.000918
v -0.053654 -0.066676 -0.025508
v -0.057535 -0.083503 -0.000918
v -0.043300 -0.083503 -0.038461
v -0.061424 -0.066676 -0.003507
v -0.043300 -0.066676 -0.038461
v -0.053654 -0.083503 -0.025508
v -0.061424 -0.083503 0.000378
f 138 142 145 
f 137 136 138 
f 138 136 139 
f 135 137 140 
f 137 138 140 
f 137 135 141 
f 136 137 141 
f 139 135 142 
f 138 139 142 
f 139 136 143 
f 136 141 143 
f 141 139 143 
f 135 139 144 
f 141 135 144 
f 139 141 144 
f 135 140 145 
f 140 138 145 
f 142 135 145 
o convex_7
v -0.054951 -0.066676 0.037921
v -0.061422 -0.083503 0.000378
v -0.058833 -0.083503 0.000378
v -0.049772 -0.083503 0.039218
v -0.058833 -0.066676 0.000378
v -0.061422 -0.083503 0.021087
v -0.062718 -0.066676 0.006853
v -0.049772 -0.066676 0.037921
v -0.054951 -0.083503 0.037921
v -0.061422 -0.066676 0.021087
v -0.049772 -0.083503 0.036625
f 150 153 156 
f 147 148 149 
f 148 147 150 
f 147 149 151 
f 146 150 152 
f 150 147 152 
f 147 151 152 
f 146 149 153 
f 150 146 153 
f 149 146 154 
f 151 149 154 
f 146 151 154 
f 151 146 155 
f 146 152 155 
f 152 151 155 
f 149 148 156 
f 148 150 156 
f 153 149 156 
o convex_8
v -0.031649 -0.066676 0.061227
v -0.052361 -0.083503 0.039218
v -0.052361 -0.083503 0.041809
v -0.025175 -0.083503 0.059932
v -0.048475 -0.066676 0.039218
v -0.023879 -0.066676 0.059932
v -0.036826 -0.083503 0.058635
v -0.049771 -0.066676 0.045694
v -0.048475 -0.083503 0.039218
f 161 162 165 
f 159 158 160 
f 157 160 162 
f 161 157 162 
f 159 160 163 
f 160 157 163 
f 158 159 164 
f 157 161 164 
f 161 158 164 
f 163 157 164 
f 159 163 164 
f 160 158 165 
f 158 161 165 
f 162 160 165 
o convex_9
v -0.027763 -0.083503 0.063817
v 0.021434 -0.066676 0.066404
v 0.021434 -0.066676 0.062522
v -0.029057 -0.066676 0.062522
v -0.012224 -0.066676 0.068994
v 0.011074 -0.083503 0.068994
v 0.021434 -0.083503 0.062522
v -0.029057 -0.083503 0.061227
v -0.012224 -0.083503 0.068994
v -0.021288 -0.066676 0.061227
v 0.011074 -0.066676 0.068994
v 0.021434 -0.083503 0.066404
f 171 172 177 
f 167 168 169 
f 169 166 170 
f 167 169 170 
f 168 167 172 
f 171 166 172 
f 166 169 173 
f 172 166 173 
f 170 166 174 
f 171 170 174 
f 166 171 174 
f 169 168 175 
f 168 172 175 
f 173 169 175 
f 172 173 175 
f 167 170 176 
f 171 167 176 
f 170 171 176 
f 167 171 177 
f 172 167 177 
o convex_10
v 0.034378 -0.066676 0.059931
v 0.044736 -0.083503 0.044400
v 0.044736 -0.066676 0.044400
v 0.021434 -0.066676 0.061224
v 0.024027 -0.083503 0.065109
v 0.046032 -0.083503 0.049578
v 0.021434 -0.083503 0.061224
v 0.046032 -0.066676 0.049578
v 0.021434 -0.066676 0.065109
v 0.039555 -0.083503 0.056047
f 183 185 187 
f 180 179 181 
f 178 180 181 
f 182 179 183 
f 179 180 183 
f 181 179 184 
f 179 182 184 
f 180 178 185 
f 183 180 185 
f 178 181 186 
f 182 178 186 
f 181 184 186 
f 184 182 186 
f 178 182 187 
f 182 183 187 
f 185 178 187 
o convex_11
v 0.047328 -0.083503 0.048280
v 0.062861 -0.066676 0.015916
v 0.061566 -0.066676 0.021093
v 0.046034 -0.066676 0.041804
v 0.058977 -0.083503 0.012030
v 0.061566 -0.083503 0.021093
v 0.055093 -0.066676 0.037919
v 0.057682 -0.066676 0.013325
v 0.046034 -0.083503 0.043096
v 0.046034 -0.066676 0.048280
v 0.055093 -0.083503 0.037919
v 0.062861 -0.083503 0.012030
f 192 195 199 
f 190 189 191 
f 189 190 193 
f 188 192 193 
f 193 190 194 
f 190 191 194 
f 191 189 195 
f 195 192 196 
f 192 188 196 
f 191 195 196 
f 191 196 197 
f 194 191 197 
f 188 194 197 
f 196 188 197 
f 188 193 198 
f 193 194 198 
f 194 188 198 
f 189 193 199 
f 193 192 199 
f 195 189 199 
o convex_12
v -0.042008 -0.042076 -0.042345
v -0.054949 0.083504 -0.013863
v -0.057540 0.083504 -0.013863
v -0.054949 -0.042076 -0.013863
v -0.031647 0.083504 -0.041046
v -0.042008 0.083504 -0.042345
v -0.031647 -0.042076 -0.041046
v -0.056244 -0.042076 -0.020336
v -0.053652 0.083504 -0.025516
v -0.031647 0.083504 -0.042345
v -0.057540 -0.042076 -0.013863
v -0.053652 -0.042076 -0.025516
v -0.031647 -0.042076 -0.042345
v -0.057540 0.083504 -0.016453
v -0.053652 0.083504 -0.015159
v -0.053652 -0.042076 -0.015159
f 214 203 215 
f 201 202 203 
f 202 201 204 
f 202 204 205 
f 203 200 206 
f 200 203 207 
f 205 200 208 
f 202 205 208 
f 200 205 209 
f 205 204 209 
f 204 206 209 
f 203 202 210 
f 207 203 210 
f 200 207 211 
f 208 200 211 
f 207 208 211 
f 206 200 212 
f 200 209 212 
f 209 206 212 
f 202 208 213 
f 208 207 213 
f 210 202 213 
f 207 210 213 
f 201 203 214 
f 204 201 214 
f 206 204 214 
f 206 214 215 
f 203 206 215 
o convex_13
v -0.062718 -0.042076 0.004264
v -0.056246 0.083504 0.024977
v -0.054950 0.083504 -0.011270
v -0.056246 -0.042076 0.024977
v -0.054950 -0.042076 -0.013863
v -0.061423 0.083504 -0.003503
v -0.061423 0.083504 0.021091
v -0.058834 -0.042076 -0.013863
v -0.060128 -0.042076 0.024977
v -0.058834 0.083504 -0.013863
v -0.060128 -0.042076 -0.011270
v -0.062718 0.029122 0.004264
v -0.061423 -0.042076 0.021091
v -0.060128 0.083504 0.024977
v -0.054950 0.083504 -0.013863
v -0.060128 0.083504 -0.011270
f 226 227 231 
f 218 217 219 
f 219 216 220 
f 218 219 220 
f 217 218 221 
f 217 221 222 
f 220 216 223 
f 219 217 224 
f 216 219 224 
f 221 218 225 
f 220 223 225 
f 225 223 226 
f 223 216 226 
f 216 222 227 
f 222 221 227 
f 226 216 227 
f 222 216 228 
f 216 224 228 
f 224 222 228 
f 217 222 229 
f 224 217 229 
f 222 224 229 
f 218 220 230 
f 225 218 230 
f 220 225 230 
f 221 225 231 
f 225 226 231 
f 227 221 231 
o convex_14
v -0.057539 -0.042076 0.032748
v -0.035531 0.083504 0.058634
v -0.036826 0.083504 0.058634
v -0.056241 0.083504 0.024980
v -0.035531 -0.042076 0.053455
v -0.054950 0.083504 0.037926
v -0.056241 -0.042076 0.024980
v -0.049769 -0.042076 0.045688
v -0.035531 0.083504 0.053455
v -0.036826 -0.042076 0.058634
v -0.058834 0.083504 0.024980
v -0.049769 0.083504 0.045688
v -0.058834 -0.042076 0.024980
v -0.058834 0.083504 0.028864
v -0.054950 0.083504 0.026275
v -0.054950 -0.042076 0.026275
v -0.054950 -0.042076 0.037926
v -0.035531 -0.042076 0.058634
v -0.058834 -0.042076 0.028864
f 232 245 250 
f 234 233 235 
f 234 235 237 
f 236 232 238 
f 232 236 239 
f 235 233 240 
f 233 236 240 
f 233 234 241 
f 239 236 241 
f 234 239 241 
f 237 235 242 
f 235 238 242 
f 234 237 243 
f 239 234 243 
f 237 239 243 
f 238 232 244 
f 242 238 244 
f 242 244 245 
f 232 237 245 
f 237 242 245 
f 238 235 246 
f 235 240 246 
f 240 236 246 
f 236 238 247 
f 238 246 247 
f 246 236 247 
f 237 232 248 
f 232 239 248 
f 239 237 248 
f 236 233 249 
f 233 241 249 
f 241 236 249 
f 244 232 250 
f 245 244 250 
o convex_15
v -0.021283 0.083504 0.066404
v -0.035531 -0.042076 0.054753
v -0.035531 -0.042076 0.058638
v -0.000575 -0.042076 0.066404
v -0.032940 0.083504 0.054753
v -0.000575 0.083504 0.066404
v -0.012229 -0.042076 0.068994
v -0.035531 0.083504 0.058638
v -0.000575 0.083504 0.068994
v -0.025173 -0.042076 0.065109
v -0.012229 0.083504 0.068994
v -0.000575 -0.042076 0.068994
v -0.032940 -0.042076 0.054753
v -0.027757 0.083504 0.063814
v -0.035531 0.083504 0.054753
v -0.034234 -0.042076 0.059932
f 260 264 266 
f 253 252 254 
f 255 251 256 
f 254 255 256 
f 253 254 257 
f 252 253 258 
f 251 255 258 
f 256 251 259 
f 254 256 259 
f 257 251 260 
f 253 257 260 
f 251 257 261 
f 259 251 261 
f 257 259 261 
f 257 254 262 
f 254 259 262 
f 259 257 262 
f 254 252 263 
f 255 254 263 
f 252 255 263 
f 251 258 264 
f 260 251 264 
f 255 252 265 
f 252 258 265 
f 258 255 265 
f 258 253 266 
f 253 260 266 
f 264 258 266 
o convex_16
v 0.055094 0.083504 -0.013863
v 0.031791 -0.042076 -0.042345
v 0.084871 -0.042076 -0.042345
v 0.031791 0.083504 -0.042345
v 0.053800 -0.042076 -0.013863
v 0.084871 0.079620 -0.042345
v 0.071923 -0.042076 -0.013863
v 0.071923 0.083504 -0.013863
v 0.084871 0.079620 -0.039755
v 0.031791 0.083504 -0.041046
v 0.073217 0.083504 -0.042345
v 0.084871 -0.042076 -0.039755
v 0.031791 -0.042076 -0.041046
v 0.053800 0.017494 -0.013863
v 0.052506 0.083504 -0.016453
f 280 267 281 
f 269 268 270 
f 268 269 271 
f 269 270 272 
f 267 271 273 
f 271 269 273 
f 270 267 274 
f 267 273 274 
f 269 272 275 
f 274 273 275 
f 270 268 276 
f 267 270 276 
f 272 270 277 
f 270 274 277 
f 275 272 277 
f 274 275 277 
f 273 269 278 
f 269 275 278 
f 275 273 278 
f 268 271 279 
f 276 268 279 
f 271 276 279 
f 271 267 280 
f 276 271 280 
f 276 280 281 
f 267 276 281 
o convex_17
v 0.070630 -0.042076 -0.013863
v 0.060276 0.083504 0.024977
v 0.061569 0.083504 0.021091
v 0.055096 0.083504 -0.013863
v 0.056391 -0.042076 0.024977
v 0.055096 -0.042076 -0.013863
v 0.071923 0.083504 -0.013859
v 0.060276 -0.042076 0.024977
v 0.056391 0.083504 0.024977
v 0.071923 -0.042076 -0.012566
v 0.071923 0.083504 -0.012566
v 0.055096 0.007143 -0.009977
f 286 290 293 
f 283 284 285 
f 285 282 287 
f 282 286 287 
f 285 284 288 
f 282 285 288 
f 284 283 289 
f 286 282 289 
f 283 286 289 
f 283 285 290 
f 286 283 290 
f 282 288 291 
f 284 289 291 
f 289 282 291 
f 288 284 292 
f 291 288 292 
f 284 291 292 
f 285 287 293 
f 287 286 293 
f 290 285 293 
o convex_18
v 0.034375 0.083504 0.059934
v -0.000575 -0.042076 0.066405
v -0.000575 -0.042076 0.068994
v 0.036969 -0.042076 0.057346
v 0.035672 0.083504 0.053459
v -0.000575 0.083504 0.066405
v 0.011078 0.083504 0.068994
v 0.021431 -0.042076 0.066405
v 0.034375 -0.042076 0.053459
v 0.021431 0.083504 0.066405
v -0.000575 0.083504 0.068994
v 0.011078 -0.042076 0.068994
v 0.034375 -0.042076 0.059934
v 0.036969 0.083504 0.057346
v 0.036969 -0.042076 0.053459
v 0.034375 -0.003219 0.053459
v 0.036969 0.083504 0.053459
f 307 308 310 
f 296 295 297 
f 295 296 299 
f 294 298 299 
f 294 299 300 
f 296 297 301 
f 297 295 302 
f 295 299 302 
f 294 300 303 
f 301 294 303 
f 300 301 303 
f 299 296 304 
f 296 300 304 
f 300 299 304 
f 300 296 305 
f 301 300 305 
f 296 301 305 
f 297 294 306 
f 294 301 306 
f 301 297 306 
f 294 297 307 
f 298 294 307 
f 297 302 308 
f 302 298 308 
f 307 297 308 
f 299 298 309 
f 298 302 309 
f 302 299 309 
f 298 307 310 
f 308 298 310 
o convex_19
v 0.058978 -0.042076 0.024980
v 0.038264 0.083504 0.057340
v 0.046035 0.083504 0.049573
v 0.056389 0.083504 0.024980
v 0.036969 -0.042076 0.052161
v 0.048618 -0.042076 0.046982
v 0.056389 0.083504 0.035338
v 0.036969 0.083504 0.052161
v 0.055094 -0.042076 0.026275
v 0.038264 -0.042076 0.057340
v 0.055094 -0.042076 0.037926
v 0.058978 0.083504 0.028863
v 0.049913 0.083504 0.045689
v 0.036969 -0.042076 0.057340
v 0.058978 -0.042076 0.027571
v 0.058978 0.083504 0.024980
v 0.055094 0.083504 0.026275
v 0.036969 0.083504 0.057340
f 318 324 328 
f 312 313 314 
f 315 311 316 
f 314 313 317 
f 312 314 318 
f 315 318 319 
f 314 311 319 
f 311 315 319 
f 313 312 320 
f 315 316 320 
f 316 313 320 
f 316 311 321 
f 317 321 322 
f 314 317 322 
f 313 316 323 
f 317 313 323 
f 316 321 323 
f 321 317 323 
f 318 315 324 
f 320 312 324 
f 315 320 324 
f 321 311 325 
f 322 321 325 
f 311 322 325 
f 311 314 326 
f 322 311 326 
f 314 322 326 
f 318 314 327 
f 319 318 327 
f 314 319 327 
f 312 318 328 
f 324 312 328 
