# https://github.com/mikedh/trimesh

o torso3.stl
v 0.05934548 0.00883812 -0.11200001
v 0.05886948 0.01159197 -0.11200000
v 0.05780404 0.01608335 -0.10925300
v 0.05589425 0.02181315 -0.11200000
v 0.05540807 0.02308671 -0.10600916
v 0.05239665 0.02923297 -0.11200000
v 0.04964458 0.03369569 -0.11200000
v 0.05175155 0.02887309 -0.11434700
v 0.04090905 0.04389095 -0.11200001
v 0.04040539 0.04335057 -0.11434700
v 0.02534365 0.05438435 -0.11200001
v 0.02508568 0.05383086 -0.11413500
v 0.00727874 0.05955660 -0.11200001
v 0.00720465 0.05895036 -0.11413500
v -0.01150006 0.05888730 -0.11200001
v -0.01138299 0.05828785 -0.11413500
v -0.02915090 0.05244225 -0.11200001
v -0.02885419 0.05190849 -0.11413500
v -0.04394268 0.04085355 -0.11200001
v -0.04349535 0.04043775 -0.11413500
v -0.05442446 0.02525788 -0.11200001
v -0.05387049 0.02500075 -0.11413500
v -0.05956816 0.00718492 -0.11200001
v -0.05896186 0.00711179 -0.11413500
v -0.05886948 -0.01159274 -0.11200001
v -0.05827027 -0.01147478 -0.11413500
v -0.05239665 -0.02923357 -0.11200001
v -0.05186337 -0.02893596 -0.11413500
v -0.04090905 -0.04389154 -0.11200001
v -0.04040539 -0.04335117 -0.11434700
v -0.02555401 -0.05428567 -0.11200002
v -0.03803208 -0.04646467 -0.09349989
v -0.02144133 -0.05607650 -0.09349990
v -0.05073427 -0.03212127 -0.09349990
v -0.05826615 -0.01450491 -0.09349995
v -0.05987328 0.00460401 -0.09349994
v -0.05538074 0.02324460 -0.09350007
v -0.04522648 0.03950291 -0.09350008
v -0.03047060 0.05174479 -0.09350008
v -0.01260238 0.05871146 -0.09350014
v 0.00653319 0.05968660 -0.09350019
v 0.02500337 0.05459118 -0.09350007
v 0.04093830 0.04392244 -0.09350006
v 0.04839956 0.03546065 -0.09925347
v 0.04904985 0.03455555 -0.09991287
v 0.04090905 0.04389107 -0.09212636
v 0.05936985 -0.00496566 -0.11377801
v 0.05814468 0.01144945 -0.11434601
v 0.05598819 0.01102489 -0.11663501
v 0.04983216 0.02780216 -0.11663501
v 0.05245310 0.01032865 -0.11880989
v 0.04668575 0.02604669 -0.11880989
v 0.04762649 0.00937825 -0.12081699
v 0.04238975 0.02364987 -0.12081699
v 0.04162704 0.00819683 -0.12260700
v 0.03705006 0.02067077 -0.12260700
v 0.03460271 0.00681358 -0.12413500
v 0.03079795 0.01718258 -0.12413500
v 0.02672618 0.00526255 -0.12536500
v 0.02378755 0.01327127 -0.12536500
v 0.01819169 0.00358194 -0.12626600
v 0.01619148 0.00903326 -0.12626600
v 0.00920921 0.00181311 -0.12681501
v 0.00819659 0.00457275 -0.12681501
v 0.00000000 -0.00000032 -0.12700003
v 0.00639957 0.00686574 -0.12681501
v 0.00360674 0.00773942 -0.12684700
v 0.00714010 0.01532155 -0.12639202
v 0.00205064 0.01677876 -0.12639202
v 0.00302368 0.02474045 -0.12564400
v -0.00477725 0.02446246 -0.12564400
v -0.00621736 0.03183668 -0.12461901
v -0.01576018 0.02835226 -0.12461901
v -0.01908975 0.03434229 -0.12333601
v -0.02877628 0.02675330 -0.12333601
v -0.03320968 0.03087496 -0.12182300
v -0.04113125 0.01908856 -0.12182300
v -0.04578477 0.02124828 -0.12011000
v -0.05011194 0.00604427 -0.12011000
v -0.05418514 0.00653559 -0.11823089
v -0.05354946 -0.01054519 -0.11823089
v -0.05648475 -0.01112329 -0.11622601
v -0.05027425 -0.02804934 -0.11622601
v -0.05715526 0.00689381 -0.11622601
v -0.04950618 0.02297538 -0.11823089
v -0.03696686 0.03436815 -0.12011000
v -0.02203077 0.03963309 -0.12182300
v -0.00753093 0.03856289 -0.12333601
v 0.00393516 0.03219854 -0.12461901
v 0.01052814 0.02259188 -0.12564400
v 0.01264154 0.01356285 -0.12626600
v 0.01857227 0.01992589 -0.12536500
v 0.02404576 0.02579838 -0.12413500
v 0.02892708 0.03103548 -0.12260700
v 0.03309607 0.03550845 -0.12081699
v 0.03645026 0.03910708 -0.11880989
v 0.03890687 0.04174280 -0.11663501
v 0.01370179 0.02940225 -0.12461901
v 0.01659655 0.03561407 -0.12333601
v 0.01915347 0.04110085 -0.12182300
v 0.02132046 0.04575097 -0.12011000
v 0.02305334 0.04946977 -0.11823089
v 0.02431708 0.05218136 -0.11622601
v 0.00698394 0.05714411 -0.11622601
v -0.01103419 0.05650186 -0.11622601
v -0.02797007 0.05031800 -0.11622601
v -0.04216265 0.03919869 -0.11622601
v -0.05221986 0.02423477 -0.11622601
v -0.03997164 0.03716164 -0.11823089
v -0.02452325 0.04411715 -0.12011000
v -0.00869113 0.04450398 -0.12182300
v 0.00476658 0.03900104 -0.12333601
v 0.00550091 0.04500979 -0.12182300
v 0.00612324 0.05010206 -0.12011000
v 0.00662100 0.05417448 -0.11823089
v -0.01046079 0.05356568 -0.11823089
v -0.02651655 0.04770308 -0.11823089
v -0.00967443 0.04953908 -0.12011000
v 0.05901056 -0.00719225 -0.11403100
v 0.05730736 -0.00691277 -0.11609301
v 0.05438590 -0.00656038 -0.11811902
v 0.05034124 -0.00607252 -0.12001900
v 0.04525727 -0.00545931 -0.12175299
v 0.03923869 -0.00473332 -0.12328600
v 0.03240978 -0.00390959 -0.12458601
v 0.02491170 -0.00300521 -0.12562500
v 0.01689916 -0.00203872 -0.12638400
v 0.00853771 -0.00103015 -0.12684500
v 0.00818729 -0.00379997 -0.12682900
v 0.00619823 -0.00576282 -0.12684999
v 0.01227247 -0.01141017 -0.12640302
v 0.00450689 -0.00810826 -0.12682000
v 0.00890541 -0.01602119 -0.12628300
v 0.00179899 -0.00921232 -0.12681501
v 0.00355369 -0.01819759 -0.12626600
v -0.00113863 -0.00931704 -0.12681501
v -0.00224924 -0.01840436 -0.12626600
v -0.00396460 -0.00850791 -0.12681501
v -0.00783157 -0.01680606 -0.12626600
v -0.00639957 -0.00686639 -0.12681501
v -0.01264154 -0.01356345 -0.12626600
v -0.01476186 -0.00823629 -0.12639202
v -0.02176636 -0.01214414 -0.12564400
v -0.01658535 -0.00326627 -0.12639202
v -0.02445524 -0.00481600 -0.12564400
v -0.01678228 0.00202393 -0.12639202
v -0.02474546 0.00298452 -0.12564400
v -0.01533305 0.00711572 -0.12639202
v -0.02260869 0.01049238 -0.12564400
v -0.01238006 0.01150959 -0.12639202
v -0.01825439 0.01697099 -0.12564400
v -0.00821275 0.01477450 -0.12639202
v -0.01210969 0.02178508 -0.12564400
v -0.00323993 0.01659029 -0.12639202
v -0.02375715 0.02208697 -0.12461901
v -0.03564035 0.01654028 -0.12333601
v -0.04501867 0.00542986 -0.12182300
v -0.04952406 -0.00975251 -0.12011000
v -0.04766165 -0.02659177 -0.11823089
v -0.03890687 -0.04174339 -0.11663501
v -0.02503168 -0.05371534 -0.11434700
v -0.00845051 -0.05940216 -0.11200001
v -0.02142405 -0.05604487 -0.09190447
v -0.01444870 -0.05823445 -0.09563751
v -0.00727874 -0.05955719 -0.11200001
v -0.00451904 -0.05982989 -0.10051900
v 0.00974589 -0.05920350 -0.11200000
v 0.01023685 -0.05912059 -0.10634301
v 0.01150006 -0.05888789 -0.11200001
v 0.01884227 -0.05696487 -0.10917801
v 0.02704608 -0.05355864 -0.11200000
v -0.00718915 -0.05882389 -0.11434700
v -0.02942407 0.01365530 -0.12461901
v -0.03900885 0.00470495 -0.12333601
v -0.04449057 -0.00876135 -0.12182300
v -0.04407888 -0.02459287 -0.12011000
v -0.03645026 -0.03910768 -0.11880989
v -0.02410328 -0.05172318 -0.11663501
v -0.03220498 0.00388425 -0.12461901
v -0.03855127 -0.00759178 -0.12333601
v -0.03959876 -0.02209329 -0.12182300
v -0.03309607 -0.03550904 -0.12081699
v -0.02258139 -0.04845738 -0.11880989
v -0.00692248 -0.05664217 -0.11663501
v 0.01135849 -0.05816286 -0.11434700
v 0.02949386 -0.05223417 -0.11232901
v -0.03182715 -0.00626767 -0.12461901
v -0.03431248 -0.01914399 -0.12333601
v -0.02892708 -0.03103607 -0.12260700
v -0.02050346 -0.04399847 -0.12081699
v -0.00648540 -0.05306577 -0.11880989
v 0.01093715 -0.05600565 -0.11663501
v 0.02871209 -0.05165339 -0.11459301
v 0.03870874 -0.04535657 -0.11366590
v 0.04341185 -0.04031378 -0.11437400
v 0.04201775 -0.03906470 -0.11639100
v 0.04595655 -0.03700006 -0.11472701
v 0.05199557 -0.02700525 -0.11523300
v 0.05316567 -0.02463108 -0.11522792
v 0.05088299 -0.02361500 -0.11732300
v 0.05660116 -0.01625800 -0.11487200
v -0.02832776 -0.01580494 -0.12461901
v -0.02404576 -0.02579897 -0.12413500
v -0.01792067 -0.03845608 -0.12260700
v -0.00588864 -0.04818278 -0.12081699
v 0.01024657 -0.05246949 -0.11880989
v 0.02758777 -0.04963076 -0.11684601
v -0.01857227 -0.01992648 -0.12536500
v -0.01489669 -0.03196680 -0.12413500
v -0.00514686 -0.04211336 -0.12260700
v 0.00930369 -0.04764139 -0.12081699
v 0.02580004 -0.04641455 -0.11898200
v 0.03978335 -0.03698730 -0.11836991
v -0.01150578 -0.02469038 -0.12536500
v -0.00427830 -0.03500688 -0.12413500
v 0.00813174 -0.04164010 -0.12260700
v 0.02339190 -0.04208236 -0.12095091
v 0.03675335 -0.03417026 -0.12022201
v 0.04739874 -0.02199798 -0.11937200
v 0.04283589 -0.01988029 -0.12125301
v 0.03729796 -0.01731020 -0.12292401
v 0.03091108 -0.01434606 -0.12434600
v 0.02382075 -0.01105546 -0.12548700
v 0.01618826 -0.00751323 -0.12632100
v 0.01810139 -0.01682937 -0.12566800
v 0.01308977 -0.02354890 -0.12540300
v 0.00522089 -0.02673465 -0.12536500
v -0.00330448 -0.02703845 -0.12536500
v 0.00675952 -0.03461354 -0.12413500
v 0.02042114 -0.03673809 -0.12270400
v 0.03298848 -0.03066998 -0.12190900
v 0.02856397 -0.02655649 -0.12339900
v 0.02356839 -0.02191197 -0.12466000
v 0.01695948 -0.03051036 -0.12420000
v -0.00745678 -0.00416064 -0.12684700
v -0.00837797 -0.00165009 -0.12684700
v -0.00847739 0.00102222 -0.12684700
v -0.00774539 0.00359428 -0.12684700
v -0.00625366 0.00581378 -0.12684700
v -0.00414860 0.00746304 -0.12684700
v -0.00163662 0.00838023 -0.12684700
v 0.00103587 0.00847548 -0.12684700
v 0.05934548 0.00883847 0.11200001
v 0.05780148 0.01609325 0.10924999
v 0.05886948 0.01159268 0.11200000
v 0.05589437 0.02181345 0.11200000
v 0.05540353 0.02309843 0.10604864
v 0.05239665 0.02923357 0.11200001
v 0.05175155 0.02887369 0.11434700
v 0.04040539 0.04335117 0.11434700
v 0.03890687 0.04174339 0.11663501
v 0.02431708 0.05218195 0.11622601
v 0.02305334 0.04947036 0.11823089
v 0.00662100 0.05417508 0.11823089
v 0.00612324 0.05010265 0.12011000
v -0.00967443 0.04953969 0.12011000
v -0.00869113 0.04450458 0.12182300
v -0.02203077 0.03963369 0.12182300
v -0.01908975 0.03434288 0.12333601
v -0.02877628 0.02675390 0.12333601
v -0.02375715 0.02208757 0.12461901
v -0.02942407 0.01365590 0.12461901
v -0.02260869 0.01049298 0.12564400
v -0.02474546 0.00298512 0.12564400
v -0.01678228 0.00202459 0.12639202
v -0.01658535 -0.00326568 0.12639202
v -0.00837797 -0.00164944 0.12684700
v -0.00745678 -0.00415999 0.12684700
v 0.00000000 0.00000032 0.12700003
v -0.00639957 -0.00686574 0.12681501
v -0.00396460 -0.00850731 0.12681501
v -0.01264154 -0.01356285 0.12626600
v -0.00783157 -0.01680546 0.12626600
v -0.01857227 -0.01992589 0.12536500
v -0.01150578 -0.02468979 0.12536500
v -0.02404576 -0.02579838 0.12413500
v -0.01489669 -0.03196614 0.12413500
v -0.02892708 -0.03103548 0.12260700
v -0.01792067 -0.03845548 0.12260700
v -0.03309607 -0.03550845 0.12081699
v -0.02050346 -0.04399788 0.12081699
v -0.03645026 -0.03910708 0.11880989
v -0.02258139 -0.04845678 0.11880989
v -0.03890687 -0.04174280 0.11663501
v -0.02410328 -0.05172258 0.11663501
v -0.04040539 -0.04335057 0.11434700
v -0.02503168 -0.05371475 0.11434700
v -0.04090905 -0.04389095 0.11200001
v -0.02558266 -0.05427159 0.11200002
v -0.03803250 -0.04646431 0.09400009
v -0.02144286 -0.05608016 0.09400011
v -0.05073648 -0.03211781 0.09400009
v -0.05239665 -0.02923297 0.11200001
v -0.05827132 -0.01450103 0.09399998
v -0.05886948 -0.01159214 0.11200001
v -0.05987304 0.00460333 0.09399998
v -0.05956816 0.00718546 0.11200001
v -0.05537018 0.02324137 0.09399989
v -0.05442446 0.02525848 0.11200001
v -0.04522763 0.03951573 0.09399989
v -0.04394268 0.04085415 0.11200001
v -0.03046202 0.05174987 0.09399989
v -0.02915090 0.05244284 0.11200001
v -0.01260134 0.05871902 0.09399983
v -0.01150006 0.05888790 0.11200001
v 0.00653828 0.05972994 0.09399984
v 0.00727874 0.05955719 0.11200001
v 0.02501736 0.05462458 0.09399989
v 0.02534365 0.05438494 0.11200000
v 0.04090905 0.04389154 0.11200001
v 0.02508568 0.05383145 0.11413500
v 0.04093635 0.04392076 0.09399989
v 0.04964457 0.03369617 0.11200001
v 0.04090905 0.04389148 0.09212620
v 0.04891447 0.03474591 0.09977520
v -0.05186337 -0.02893537 0.11413500
v -0.05827027 -0.01147419 0.11413500
v -0.05896186 0.00711232 0.11413500
v -0.05387049 0.02500134 0.11413500
v -0.04349535 0.04043835 0.11413500
v -0.02885419 0.05190908 0.11413500
v -0.01138299 0.05828845 0.11413500
v 0.00720465 0.05895097 0.11413500
v 0.05814468 0.01145005 0.11434601
v 0.05937659 -0.00491369 0.11377300
v 0.05900937 -0.00719935 0.11403201
v 0.05730700 -0.00691217 0.11609401
v 0.05661737 -0.01620668 0.11487000
v 0.05316674 -0.02462708 0.11522900
v 0.02704626 -0.05355799 0.11200001
v 0.01150006 -0.05888730 0.11200001
v 0.01883947 -0.05696517 0.10917700
v 0.01023679 -0.05911999 0.10634300
v 0.02947837 -0.05224227 0.11233000
v 0.01135849 -0.05816227 0.11434700
v 0.00974637 -0.05920279 0.11200000
v -0.00727874 -0.05955660 0.11200000
v -0.00342691 -0.05990177 0.10101689
v -0.00845015 -0.05940169 0.11200000
v -0.01341688 -0.05848050 0.09617197
v -0.02143007 -0.05604219 0.09189629
v -0.00718915 -0.05882329 0.11434700
v -0.00692248 -0.05664157 0.11663501
v 0.01093715 -0.05600506 0.11663501
v 0.01024657 -0.05246889 0.11880989
v 0.02758777 -0.04963010 0.11684601
v 0.02579998 -0.04641395 0.11898200
v 0.03978246 -0.03698575 0.11837099
v 0.03675240 -0.03416877 0.12022201
v 0.04739798 -0.02199697 0.11937200
v 0.04283487 -0.01987928 0.12125301
v 0.05034077 -0.00607186 0.12001900
v 0.04525667 -0.00545859 0.12175299
v 0.04762637 0.00937885 0.12081699
v 0.04162698 0.00819743 0.12260700
v 0.03705006 0.02067136 0.12260700
v 0.03079795 0.01718318 0.12413500
v 0.02404576 0.02579897 0.12413500
v 0.01857227 0.01992648 0.12536500
v 0.01370179 0.02940285 0.12461901
v 0.01052814 0.02259248 0.12564400
v 0.00302368 0.02474105 0.12564400
v 0.00205064 0.01677936 0.12639202
v -0.00323993 0.01659089 0.12639202
v -0.00163662 0.00838089 0.12684700
v -0.00414860 0.00746363 0.12684700
v -0.00625366 0.00581443 0.12684700
v -0.00774539 0.00359493 0.12684700
v -0.01238006 0.01151019 0.12639202
v -0.01533305 0.00711638 0.12639202
v -0.01825439 0.01697158 0.12564400
v -0.00847739 0.00102287 0.12684700
v -0.00648540 -0.05306518 0.11880989
v -0.00588864 -0.04818218 0.12081699
v -0.00514686 -0.04211276 0.12260700
v -0.00427830 -0.03500628 0.12413500
v -0.00330448 -0.02703785 0.12536500
v -0.00224924 -0.01840376 0.12626600
v -0.00113863 -0.00931638 0.12681501
v 0.00930369 -0.04764081 0.12081699
v 0.00813174 -0.04163944 0.12260700
v 0.00675952 -0.03461295 0.12413500
v 0.00522089 -0.02673405 0.12536500
v 0.00355369 -0.01819700 0.12626600
v 0.00179899 -0.00921172 0.12681501
v 0.02339190 -0.04208165 0.12095091
v 0.02042114 -0.03673738 0.12270400
v 0.01695936 -0.03050965 0.12420000
v 0.01308977 -0.02354830 0.12540300
v 0.00890541 -0.01602059 0.12628300
v 0.00450689 -0.00810760 0.12682000
v 0.00619793 -0.00576198 0.12684999
v 0.00818700 -0.00379926 0.12682900
v 0.01227200 -0.01140910 0.12640302
v 0.01618778 -0.00751233 0.12632100
v 0.01810067 -0.01682806 0.12566800
v 0.02382010 -0.01105445 0.12548700
v 0.02356749 -0.02191060 0.12466000
v 0.03091025 -0.01434504 0.12434600
v 0.02856296 -0.02655500 0.12339900
v 0.03729695 -0.01730906 0.12292401
v 0.03298747 -0.03066849 0.12190999
v 0.03923809 -0.00473261 0.12328600
v 0.03240925 -0.00390893 0.12458601
v 0.02491128 -0.00300449 0.12562500
v 0.01689887 -0.00203806 0.12638400
v 0.00853759 -0.00102949 0.12684500
v 0.00920921 0.00181377 0.12681501
v 0.00819659 0.00457340 0.12681501
v 0.01819169 0.00358260 0.12626600
v 0.01619148 0.00903386 0.12626600
v 0.02672618 0.00526321 0.12536500
v 0.02378755 0.01327186 0.12536500
v 0.03460258 0.00681424 0.12413500
v 0.01264154 0.01356345 0.12626600
v 0.00639957 0.00686639 0.12681501
v 0.00714010 0.01532214 0.12639202
v 0.00360674 0.00774002 0.12684700
v 0.00103587 0.00847614 0.12684700
v 0.02871209 -0.05165278 0.11459301
v 0.04201716 -0.03906339 0.11639201
v 0.05088227 -0.02361398 0.11732301
v 0.05438536 -0.00655973 0.11812001
v 0.05245310 0.01032924 0.11880989
v 0.04238975 0.02365046 0.12081699
v 0.02892708 0.03103607 0.12260700
v 0.01659655 0.03561466 0.12333601
v 0.00393516 0.03219920 0.12461901
v -0.00477725 0.02446305 0.12564400
v -0.00821275 0.01477509 0.12639202
v -0.01210969 0.02178567 0.12564400
v -0.01576018 0.02835285 0.12461901
v -0.00621736 0.03183728 0.12461901
v -0.00753093 0.03856348 0.12333601
v 0.00476658 0.03900170 0.12333601
v 0.00550091 0.04501038 0.12182300
v 0.01915347 0.04110145 0.12182300
v 0.02132046 0.04575156 0.12011000
v 0.03309607 0.03550904 0.12081699
v 0.03645026 0.03910768 0.11880989
v 0.04668575 0.02604728 0.11880989
v 0.04983216 0.02780276 0.11663501
v 0.05598819 0.01102548 0.11663501
v 0.05201840 -0.02696180 0.11523200
v 0.04598367 -0.03695869 0.11473301
v 0.04340654 -0.04031980 0.11437400
v 0.03870177 -0.04536247 0.11366590
v 0.00026964 0.06004090 0.08299974
v 0.00039597 0.06005184 0.08493570
v 0.00182226 0.06002621 0.08462447
v 0.00166985 0.06002007 0.08299973
v 0.00287044 0.05998526 0.08462450
v 0.00271704 0.05998182 0.08299973
v -0.02146427 -0.05613624 0.08300003
v 0.00375379 0.05992760 0.08299977
v 0.00392779 0.05992315 0.08463037
v 0.00448757 0.05988222 0.08449978
v 0.00479912 0.05985291 0.08299977
v 0.00584975 0.05975940 0.08299977
v 0.00522171 0.05982465 0.08553045
v 0.00629283 0.05972365 0.08462445
v 0.00689456 0.05964616 0.08299973
v 0.00793447 0.05951675 0.08299973
v 0.00731765 0.05960779 0.08462754
v 0.00835681 0.05947098 0.08462754
v 0.00897197 0.05936922 0.08299973
v 0.01000411 0.05920577 0.08299977
v 0.01011276 -0.06696735 0.08300020
v 0.01104181 0.05902071 0.08299974
v 0.00938379 0.05931760 0.08463340
v 0.01042178 0.05914601 0.08513340
v 0.01207018 0.05881901 0.08299974
v 0.01309483 0.05859938 0.08299985
v 0.01145782 0.05895213 0.08462755
v 0.01248493 0.05874316 0.08462760
v 0.01411557 0.05836195 0.08299989
v 0.01513198 0.05810671 0.08299989
v 0.01351484 0.05851578 0.08462492
v 0.01451706 0.05827322 0.08463659
v 0.01614379 0.05783378 0.08299989
v 0.01684248 0.05765026 0.08299989
v 0.02971816 0.05223757 0.08299988
v 0.04097729 0.04396468 0.08299988
v 0.04237648 -0.07553314 0.08300018
v 0.05746860 0.03052836 0.08299989
v 0.05200088 -0.05068576 0.08300006
v 0.05591875 -0.02438294 0.08300006
v 0.07556474 0.01933766 0.08300000
v 0.01553136 0.05801505 0.08553068
v 0.01653823 0.05773104 0.08463360
v -0.00410404 0.05990411 0.08299974
v -0.00514891 0.05982337 0.08299974
v -0.00305796 0.05996664 0.08299974
v -0.00201092 0.06001088 0.08299974
v -0.00104769 0.06002507 0.08299976
v -0.00104931 0.06004609 0.08462754
v -0.00209707 0.06001864 0.08462754
v -0.00314422 0.05997290 0.08462754
v -0.00419041 0.05990888 0.08462754
v -0.00524751 0.05982834 0.08553056
v -0.00628217 0.05972373 0.08463964
v -0.00619219 0.05972439 0.08299974
v -0.02373605 0.05521357 0.08299989
v -0.03691965 -0.04742187 0.08300006
v -0.03882050 0.04587966 0.08299988
v -0.04915535 -0.03457880 0.08300006
v -0.05053055 0.03253728 0.08299988
v -0.05711334 -0.01871007 0.08300001
v -0.05782729 0.01636368 0.08300000
v -0.06008559 -0.00121736 0.08300000
v 0.07557014 0.01934758 -0.08300000
v 0.05746859 0.03052794 -0.08300006
v 0.05591875 -0.02438336 -0.08299988
v 0.04097729 0.04396426 -0.08300006
v 0.05200088 -0.05068618 -0.08299988
v 0.04237993 -0.07551854 -0.08299976
v 0.02503246 0.05463767 -0.08300006
v 0.01011276 -0.06696778 -0.08299976
v 0.00654310 0.05974179 -0.08300019
v -0.01261949 0.05875998 -0.08300019
v -0.02146428 -0.05613654 -0.08299988
v -0.03050547 0.05178159 -0.08300006
v -0.03806215 -0.04651039 -0.08299988
v -0.04526489 0.03953176 -0.08300006
v -0.05077725 -0.03214949 -0.08299988
v -0.05541026 0.02326750 -0.08300006
v -0.05832278 -0.01450765 -0.08300001
v -0.05992120 0.00462484 -0.08300000
v 0.27458474 -0.07129819 0.08078584
v 0.27586299 -0.07053649 0.08145428
v 0.27458599 -0.07124847 0.08670181
v 0.27458599 -0.07124847 0.09108877
v 0.27621499 -0.07014149 0.09108878
v 0.27667600 -0.06923019 0.08250015
v 0.27680600 -0.06826317 0.09108877
v 0.27674800 -0.06775850 0.08250016
v 0.27610603 -0.06642299 0.09108877
v 0.27610600 -0.06642299 0.08250016
v 0.29897800 -0.06252145 0.08250016
v 0.29329300 0.05821245 0.08249987
v 0.27524701 0.05311465 0.08249986
v 0.26004499 0.04286736 0.08249987
v 0.25327101 -0.03920979 0.08250011
v 0.24343100 0.02932798 0.08249986
v 0.24639091 -0.02910399 0.08250010
v 0.24166399 -0.01782965 0.08249998
v 0.23499601 0.00008089 0.08249998
v 0.22606544 0.01729164 0.08249997
v 0.22518502 0.01811647 0.08249998
v 0.31205398 0.05734640 0.08249987
v 0.32092899 -0.05473506 0.08250010
v 0.32960001 0.05057477 0.08249987
v 0.33682501 -0.04558229 0.08250010
v 0.34409803 0.03858935 0.08249987
v 0.34933913 -0.03161168 0.08250007
v 0.35404500 0.02264767 0.08249987
v 0.35680795 -0.01437957 0.08250003
v 0.35843799 0.00435692 0.08249998
v 0.27458602 -0.07124889 -0.09108834
v 0.27621499 -0.07014197 -0.09108835
v 0.27458602 -0.07124888 -0.08673095
v 0.27457911 -0.07128879 -0.08103168
v 0.27586299 -0.07053685 -0.08145385
v 0.27667603 -0.06923055 -0.08249981
v 0.27680600 -0.06826370 -0.09108835
v 0.27674800 -0.06775885 -0.08249980
v 0.27610603 -0.06642335 -0.09108835
v 0.27610600 -0.06642335 -0.08249980
v 0.25906321 0.04392143 0.08171351
v 0.24160498 0.02975344 0.08110046
v 0.22372100 0.01852989 0.08145660
v 0.22230892 0.01820659 0.08110058
v 0.22542220 0.01793342 -0.08249998
v 0.24343097 0.02932757 -0.08250009
v 0.22624500 0.01706105 -0.08249998
v 0.23499599 0.00008047 -0.08249998
v 0.24166399 -0.01783007 -0.08249998
v 0.24639092 -0.02910435 -0.08249987
v 0.26004499 0.04286700 -0.08250010
v 0.25327101 -0.03921020 -0.08249986
v 0.27524701 0.05311429 -0.08250010
v 0.29329300 0.05821210 -0.08250010
v 0.29897800 -0.06252187 -0.08249980
v 0.31205398 0.05734598 -0.08250010
v 0.32092899 -0.05473548 -0.08249987
v 0.32960004 0.05057436 -0.08250011
v 0.33682501 -0.04558265 -0.08249987
v 0.34409803 0.03858900 -0.08250010
v 0.34933901 -0.03161209 -0.08249987
v 0.35404500 0.02264726 -0.08250010
v 0.35680801 -0.01437997 -0.08249998
v 0.35843799 0.00435650 -0.08249998
v 0.29823303 -0.06434226 -0.08099968
v 0.32146400 -0.05613654 -0.08099991
v 0.33776700 -0.04675108 -0.08099980
v 0.35060698 -0.03241795 -0.08099991
v 0.35826501 -0.01473897 -0.08099998
v 0.35993400 0.00446618 -0.08099998
v 0.35543099 0.02322518 -0.08100008
v 0.34522504 0.03958117 -0.08100009
v 0.33035401 0.05187106 -0.08100009
v 0.31237099 0.05881279 -0.08100020
v 0.29312500 0.05970525 -0.08100020
v 0.27460998 0.05447340 -0.08099998
v 0.25902304 0.04396426 -0.08100008
v 0.27197966 -0.07191060 -0.09228300
v 0.27108571 -0.07225311 -0.09103739
v 0.27283242 -0.07150034 -0.09350824
v 0.21964103 -0.08227158 -0.09351233
v 0.21797800 -0.08296239 -0.09043800
v 0.16528350 -0.08703273 -0.09351343
v 0.16400699 -0.08759486 -0.09016877
v 0.11074001 -0.08568967 -0.09351314
v 0.10985999 -0.08611840 -0.09025526
v 0.05676603 -0.07826540 -0.09351137
v 0.05621856 -0.07855069 -0.09068907
v 0.00406854 -0.06492284 -0.09350449
v 0.00377357 -0.06494400 -0.09143180
v 0.00390042 -0.06492443 -0.09246458
v 0.25288799 0.03853315 -0.08100067
v 0.24649201 0.03343009 -0.08100069
v 0.24518400 0.03241497 -0.08102935
v 0.24391001 0.03139346 -0.08110070
v 0.23387899 0.02468389 -0.08110070
v 0.22338760 0.01872564 -0.08114427
v 0.05756452 0.03027289 -0.09350434
v 0.04899031 0.03691417 -0.09350008
v 0.05747372 0.03047497 -0.09145766
v 0.07557614 0.01935899 -0.08529996
v 0.08274978 0.01586419 -0.09078819
v 0.10012914 0.00895129 -0.08529996
v 0.11024101 0.00605649 -0.09036600
v 0.12610231 0.00277670 -0.08529995
v 0.13906300 0.00140905 -0.09017199
v 0.15273538 0.00100154 -0.08529996
v 0.16825201 0.00207961 -0.09019975
v 0.17930043 0.00368472 -0.08529996
v 0.19683202 0.00804645 -0.09045018
v 0.20501910 0.01074015 -0.08529996
v 0.20765771 0.01173327 -0.08512732
v 0.21025902 0.01276973 -0.08460968
v 0.21668068 0.01554370 -0.08288856
v 0.22386321 0.01906990 -0.08572447
v 0.22951052 0.02214991 -0.07800006
v 0.23006701 0.02246701 -0.08404702
v 0.23651053 0.02640826 -0.07800006
v 0.23609731 0.02614368 -0.08241455
v 0.23836294 0.02760806 -0.07785058
v 0.24023797 0.02886969 -0.07780007
v 0.22365890 0.01882396 -0.09091919
v 0.24116996 0.02957218 -0.08137905
v 0.24993807 0.03603313 -0.07780008
v 0.25893852 0.04379644 -0.07781255
v 0.27499041 0.05459648 -0.07800006
v 0.29345968 0.05969948 -0.07800017
v 0.31260899 0.05871056 -0.07800012
v 0.33047152 0.05174302 -0.07800006
v 0.34521890 0.03950373 -0.07800005
v 0.35536951 0.02323996 -0.07800006
v 0.35986382 0.00461093 -0.07799999
v 0.35827401 -0.01449498 -0.07799999
v 0.35073403 -0.03212332 -0.07799988
v 0.33802530 -0.04645913 -0.07799987
v 0.32145333 -0.05606868 -0.07778876
v 0.28136760 -0.06942815 -0.07779980
v 0.24027689 -0.07919148 -0.07779979
v 0.27283350 -0.07176808 -0.08100026
v 0.27107951 -0.07222893 -0.08100026
v 0.23574030 -0.08002567 -0.07809722
v 0.23129071 -0.08081178 -0.07898249
v 0.21935064 -0.08271801 -0.08218187
v 0.20736247 -0.08430512 -0.08539337
v 0.19640219 -0.08549677 -0.08757224
v 0.18528467 -0.08644690 -0.08829980
v 0.13736944 -0.08758269 -0.08829982
v 0.08956455 -0.08391937 -0.08829981
v 0.04237510 -0.07553953 -0.08829981
v -0.00888956 -0.06068687 -0.09349978
v 0.22229706 0.01822965 -0.08117899
v 0.22229773 0.01822846 -0.07799999
v 0.29823297 -0.06434190 0.08100021
v 0.32146403 -0.05613619 0.08100009
v 0.33458596 -0.04915088 0.08100008
v 0.34580901 -0.03890437 0.08100008
v 0.35424224 -0.02578160 0.08116350
v 0.35472852 -0.02472958 0.08116200
v 0.35517618 -0.02369827 0.08138429
v 0.35562125 -0.02263467 0.08138429
v 0.35604525 -0.02156276 0.08138429
v 0.35644862 -0.02048284 0.08138429
v 0.35683179 -0.01939540 0.08138423
v 0.35719365 -0.01830078 0.08138419
v 0.35753429 -0.01719945 0.08138419
v 0.35785177 -0.01609620 0.08140890
v 0.35815203 -0.01498262 0.08140711
v 0.35844654 -0.01381373 0.08117367
v 0.35858208 -0.01336907 0.07620003
v 0.35418203 -0.02586690 0.08200006
v 0.35461286 -0.02493184 0.08200007
v 0.35142550 -0.03100386 0.07620005
v 0.33914998 -0.04553163 0.07620005
v 0.32295695 -0.05583233 0.07620006
v 0.32117912 -0.05624488 0.07620006
v 0.32026547 -0.05683181 0.07620006
v 0.28071299 -0.06962748 0.07620018
v 0.27283525 -0.07177192 0.08050005
v 0.27108294 -0.07224171 0.08050005
v 0.24027394 -0.07917590 0.07620019
v 0.35833216 -0.01421217 0.08199997
v 0.04248198 0.04251247 0.09399986
v 0.04403492 0.04111482 0.09399987
v 0.04403539 0.04111535 0.09198128
v 0.06602016 0.02480491 0.09119232
v 0.07558460 0.01937553 0.08519997
v 0.09049411 0.01246601 0.09064183
v 0.10521111 0.00739889 0.08519997
v 0.11666984 0.00450054 0.09030258
v 0.11296600 0.00538307 0.08519995
v 0.12078201 0.00372767 0.08519996
v 0.14382622 0.00110857 0.09016153
v 0.13663819 0.00155435 0.08519994
v 0.15263700 0.00105739 0.08519996
v 0.17167901 0.00251138 0.09021760
v 0.16860217 0.00208133 0.08519994
v 0.17651901 0.00324958 0.08519995
v 0.19847500 0.00855988 0.09047198
v 0.18435401 0.00476938 0.08519995
v 0.19981508 0.00894472 0.08519997
v 0.22370955 0.01885162 0.09091906
v 0.20244183 0.00982141 0.08502851
v 0.20503856 0.01074754 0.08451247
v 0.21378392 0.01424382 0.08216852
v 0.22228646 0.01825118 0.07988840
v 0.22228646 0.01825118 0.07799999
v 0.22387025 0.01905660 0.08683300
v 0.22583337 0.02010914 0.07799988
v 0.22916682 0.02195581 0.08524180
v 0.22933049 0.02204417 0.07799988
v 0.23434441 0.02504401 0.08368687
v 0.23066747 0.02281642 0.07764148
v 0.23199649 0.02360125 0.07728517
v 0.23603553 0.02609479 0.07647844
v 0.23994790 0.02867807 0.08243614
v 0.24024010 0.02886690 0.07619987
v 0.24584599 0.03287142 0.08199988
v 0.24850142 0.03491312 0.07619987
v 0.25259417 0.03822792 0.08199990
v 0.25618225 0.04168328 0.07619989
v 0.25745600 0.04252368 0.07619988
v 0.25873461 0.04377395 0.07619990
v 0.27377999 0.05400667 0.08173517
v 0.27485925 0.05452894 0.07619987
v 0.29080519 0.05933050 0.08169978
v 0.29317242 0.05966799 0.07619976
v 0.30864868 0.05940677 0.08169978
v 0.31217849 0.05880194 0.07619976
v 0.32571775 0.05424457 0.08169988
v 0.32997245 0.05203490 0.07619987
v 0.34051800 0.04429739 0.08169988
v 0.34474301 0.04004773 0.07619987
v 0.35174772 0.03043297 0.08169988
v 0.35501352 0.02404792 0.07619987
v 0.35840535 0.01388561 0.08169995
v 0.35981840 0.00564025 0.07620003
v 0.35989374 -0.00424633 0.08170949
v 0.35986465 -0.00468617 0.08105134
v 0.35976657 -0.00583485 0.08104864
v 0.35964406 -0.00698680 0.08104721
v 0.35949892 -0.00813052 0.08104721
v 0.35933191 -0.00927126 0.08104721
v 0.35914344 -0.01039856 0.08104856
v 0.35893714 -0.01152418 0.08104570
v 0.35870534 -0.01265348 0.08104570
v 0.35860309 -0.01308978 0.08199995
v 0.35884342 -0.01196232 0.08199995
v 0.35906222 -0.01083049 0.08199995
v 0.35925922 -0.00969463 0.08199995
v 0.35943463 -0.00855520 0.08199995
v 0.35958770 -0.00741263 0.08199995
v 0.35971919 -0.00626733 0.08199995
v 0.35980594 -0.00533722 0.08199995
v 0.27316734 -0.07128500 0.09400830
v 0.22572826 -0.08121610 0.09401706
v 0.27216950 -0.07184687 0.09254736
v 0.27107945 -0.07222853 0.09103781
v 0.22675398 -0.08162379 0.09051525
v 0.18170743 -0.08670894 0.09020820
v 0.17708591 -0.08641130 0.09403187
v 0.15263301 -0.08774158 0.09020019
v 0.12824491 -0.08667636 0.09403199
v 0.12352976 -0.08702238 0.09020001
v 0.08002468 -0.08207828 0.09401518
v 0.07594777 -0.08205348 0.09048997
v 0.03193044 -0.07265627 0.09402519
v 0.02909886 -0.07232659 0.09103506
v -0.01453775 -0.05847772 0.09389127
v -0.01586505 -0.05811944 0.09291737
v -0.01654485 -0.05794366 0.09180035
v -0.01653788 -0.05792966 0.09400010
v -0.01899537 -0.05701896 0.09400010
v 0.04237632 -0.07553381 0.09020002
v 0.08270949 -0.08300929 0.09020003
v 0.18641321 -0.08636130 0.08935946
v 0.19131859 -0.08596286 0.08819491
v 0.21173783 -0.08375397 0.08272383
v 0.23204170 -0.08068170 0.07728386
v 0.23611601 -0.07995702 0.07647321
v 0.05751267 0.03038197 -0.09247710
v 0.08287701 0.01541443 -0.09351332
v 0.11017750 0.00558937 -0.09351299
v 0.13883199 0.00090199 -0.09351397
v 0.16845599 0.00163323 -0.09352737
v 0.19699198 0.00768024 -0.09352539
v 0.22390403 0.01900285 -0.09222868
v 0.22384913 0.01872267 -0.09350758
v 0.00698394 0.05714471 0.11622601
v -0.01103419 0.05650247 0.11622601
v -0.01046079 0.05356627 0.11823089
v -0.02651655 0.04770368 0.11823089
v -0.02452325 0.04411774 0.12011000
v -0.03696686 0.03436875 0.12011000
v -0.03320968 0.03087556 0.12182300
v -0.04113125 0.01908916 0.12182300
v -0.03564035 0.01654088 0.12333601
v -0.03900885 0.00470561 0.12333601
v -0.03220498 0.00388491 0.12461901
v -0.03182715 -0.00626707 0.12461901
v -0.02445524 -0.00481534 0.12564400
v -0.02176636 -0.01214355 0.12564400
v -0.01476186 -0.00823563 0.12639202
v -0.02832776 -0.01580435 0.12461901
v -0.03431248 -0.01914340 0.12333601
v -0.03959876 -0.02209270 0.12182300
v -0.04407888 -0.02459228 0.12011000
v -0.04766165 -0.02659118 0.11823089
v -0.05027425 -0.02804875 0.11622601
v -0.05648475 -0.01112270 0.11622601
v -0.05715526 0.00689441 0.11622601
v -0.05221986 0.02423536 0.11622601
v -0.04216265 0.03919929 0.11622601
v -0.02797007 0.05031860 0.11622601
v -0.03997164 0.03716230 0.11823089
v -0.04578477 0.02124887 0.12011000
v -0.04501867 0.00543052 0.12182300
v -0.03855127 -0.00759119 0.12333601
v -0.04449057 -0.00876069 0.12182300
v -0.04952406 -0.00975192 0.12011000
v -0.05354946 -0.01054459 0.11823089
v -0.05418514 0.00653619 0.11823089
v -0.04950618 0.02297598 0.11823089
v -0.05011194 0.00604486 0.12011000
v 0.18751702 0.00539553 0.08519995
v 0.17497101 0.00289649 0.08519996
v 0.16224401 0.00140423 0.08519995
v 0.14943101 0.00093628 0.08519996
v 0.12391900 0.00307524 0.08519996
v 0.11136501 0.00566971 0.08519996
v 0.09906589 0.00925952 0.08519995
v 0.17464802 -0.08644485 0.09400070
v 0.12710699 -0.08653051 0.09400058
v 0.03090417 -0.07229876 0.09400088
v -0.00887030 -0.06064540 -0.09165948
v 0.04894858 0.03688365 -0.09177279
v 0.24001691 0.02865868 -0.08156388
v 0.22230890 0.01820617 -0.09089601
v 0.17055900 0.00226140 0.09021151
v 0.19710301 0.00802559 0.09045349
v 0.22230889 0.01820659 0.09089602
v 0.16720501 0.00139540 -0.09349994
v 0.19553402 0.00713468 -0.09350007
v 0.22243902 0.01795178 -0.09349995
v 0.22233902 0.01814067 -0.09220541
v 0.27283299 -0.07171648 -0.09106278
v 0.27282700 -0.07171767 0.09106308
v 0.32014397 -0.05653220 -0.07759988
v 0.32293901 -0.05544197 -0.07759988
v 0.25752601 0.04245138 -0.07760006
v 0.25609601 0.04177191 -0.07760006
v 0.03020566 -0.05643999 -0.10655301
v 0.02784597 -0.05371338 -0.10969400
v 0.02896159 -0.05473154 -0.10777201
v 0.25091600 -0.04174369 -0.11187490
v 0.24730700 -0.03693544 -0.11260100
v 0.25217700 -0.04064047 -0.11163901
v 0.24437600 -0.03224974 -0.11298000
v 0.24363600 -0.03092247 -0.11303401
v 0.23877600 -0.01956957 -0.11262999
v 0.23842403 -0.01849335 -0.11251500
v 0.24496099 -0.02997887 -0.11274399
v 0.25305599 -0.03969579 -0.11054400
v 0.23998299 -0.01804935 -0.11222102
v 0.24601999 -0.02937078 -0.11163801
v 0.24648198 -0.02927249 -0.11005100
v 0.24716800 -0.03049337 -0.10999800
v 0.25327101 -0.03921049 -0.10893701
v 0.24166396 -0.01782959 -0.10954600
v 0.24118301 -0.01780366 -0.11112090
v 0.03817987 -0.05151045 -0.10903900
v 0.03924196 -0.05065047 -0.10938000
v 0.04674917 -0.04281038 -0.11168100
v 0.05138027 -0.03610885 -0.11277701
v 0.05284589 -0.03366166 -0.11301000
v 0.05790877 -0.02385777 -0.11313400
v 0.05999487 -0.01899796 -0.11274501
v 0.06193804 -0.01361107 -0.11199401
v 0.06422489 -0.00295269 -0.10966900
v 0.06441360 -0.00039144 -0.10896999
v 0.06159496 0.00828516 -0.10926400
v 0.06384731 0.00773549 -0.10652301
v 0.27110901 -0.06622058 -0.10130699
v 0.23127292 -0.07422560 -0.10120700
v 0.26134032 -0.05439839 -0.10798633
v 0.25947800 -0.05214005 -0.10890900
v 0.22215900 -0.06088948 -0.10711200
v 0.18615901 -0.07940221 -0.10110701
v 0.18536600 -0.06597447 -0.10614600
v 0.21459199 -0.04490906 -0.11039900
v 0.18192899 -0.04985785 -0.10918000
v 0.20931500 -0.02818077 -0.11037000
v 0.17940798 -0.03337830 -0.10915401
v 0.20492503 -0.01152396 -0.10696699
v 0.17670199 -0.01718676 -0.10604300
v 0.19963691 0.00189495 -0.10118101
v 0.16943800 -0.00489545 -0.10109399
v 0.22518101 0.01294368 -0.10128900
v 0.23239090 -0.00199592 -0.10874600
v 0.01214545 -0.06184697 -0.10133601
v 0.02139848 -0.05980044 -0.10394700
v 0.04890334 -0.07065516 -0.10125900
v 0.05895745 0.02282458 -0.10134900
v 0.07269346 0.01411837 -0.10129900
v 0.05984157 0.02082836 -0.10206300
v 0.06065177 0.01885926 -0.10276101
v 0.06138449 0.01691359 -0.10344300
v 0.06165975 0.01530482 -0.10420325
v 0.06277960 0.01246356 -0.10497400
v 0.06338828 0.01005506 -0.10577200
v 0.09005724 0.00570965 -0.10122201
v 0.09132540 -0.01049309 -0.10715900
v 0.11191700 -0.00144279 -0.10114001
v 0.11946800 -0.01667004 -0.10613100
v 0.13868991 -0.00569093 -0.10108500
v 0.14807200 -0.01890444 -0.10577801
v 0.08932489 -0.02785819 -0.11044901
v 0.08396136 -0.04461085 -0.11047600
v 0.07540035 -0.06042754 -0.10720300
v 0.11221701 -0.06574797 -0.10618790
v 0.09156507 -0.07735108 -0.10115000
v 0.13843600 -0.08054219 -0.10108101
v 0.11921801 -0.03321766 -0.10919000
v 0.11662500 -0.04971027 -0.10921500
v 0.14879501 -0.06757349 -0.10585501
v 0.14931101 -0.03505259 -0.10878001
v 0.14927700 -0.05144727 -0.10880400
v 0.06384807 0.00773197 0.10652400
v 0.06335270 0.01020574 0.10572301
v 0.05966266 0.01533281 0.10644610
v 0.05895745 0.02282518 0.10134900
v 0.05799579 0.02266359 0.10193200
v 0.06007385 0.02034997 0.10222300
v 0.06105250 0.01783335 0.10312001
v 0.05675637 0.02259154 0.10314580
v 0.06192785 0.01527196 0.10401990
v 0.05763548 0.02025598 0.10447200
v 0.06270897 0.01271599 0.10489000
v 0.05866777 0.01787644 0.10547800
v 0.05586016 0.02274358 0.10456290
v 0.05639016 0.02261179 0.10361700
v 0.07269519 0.01411807 0.10129900
v 0.05573470 0.02747255 0.09981651
v 0.07704526 0.01480674 0.09917235
v 0.07060099 0.02103358 0.09552347
v 0.09455239 0.00993115 0.09503593
v 0.04852169 0.03620326 0.09607077
v 0.05031046 0.03419660 0.09701368
v 0.04244780 0.04247605 0.09205378
v 0.09005987 0.00570905 0.10122201
v 0.10055400 0.00527227 0.09876555
v 0.11997901 0.00289923 0.09473925
v 0.11191901 -0.00144279 0.10114001
v 0.12524191 -0.00050498 0.09852694
v 0.14620499 0.00011780 0.09462440
v 0.13869099 -0.00569045 0.10108500
v 0.15052301 -0.00239140 0.09845030
v 0.17253500 0.00165939 0.09468788
v 0.16943800 -0.00489497 0.10109399
v 0.17579402 -0.00034259 0.09853358
v 0.19826792 0.00748557 0.09493167
v 0.22268251 0.01750707 0.09518224
v 0.19963691 0.00189549 0.10118101
v 0.20045102 0.00559515 0.09877897
v 0.22376706 0.01553890 0.09887075
v 0.22518101 0.01294416 0.10128899
v 0.23239090 -0.00199538 0.10874601
v 0.20492601 -0.01153194 0.10697000
v 0.23292400 -0.00325972 0.10918400
v 0.23842400 -0.01849275 0.11251501
v 0.23879591 -0.01962929 0.11263601
v 0.20932499 -0.02823179 0.11037499
v 0.24363600 -0.03092187 0.11303401
v 0.24437600 -0.03224915 0.11298000
v 0.27110901 -0.06622016 0.10130700
v 0.26134500 -0.05440347 0.10798387
v 0.25951499 -0.05218470 0.10889101
v 0.22213604 -0.06094479 0.10709502
v 0.25091600 -0.04174309 0.11187490
v 0.24734101 -0.03698426 0.11259500
v 0.21961901 -0.07594978 0.10117700
v 0.18528202 -0.06603020 0.10613101
v 0.16752300 -0.08037257 0.10108500
v 0.14865200 -0.06762015 0.10584201
v 0.11528602 -0.07950127 0.10110500
v 0.11201300 -0.06577640 0.10617800
v 0.07513427 -0.06042748 0.10719699
v 0.08391029 -0.04465335 0.11047201
v 0.05134385 -0.03616935 0.11277000
v 0.05618667 -0.02743697 0.11323491
v 0.04949146 -0.03903126 0.11238401
v 0.04096549 -0.04912608 0.10993300
v 0.03797626 -0.05168604 0.10896701
v 0.06332695 -0.07333189 0.10122199
v 0.03020548 -0.05643917 0.10655300
v 0.02139556 -0.05980056 0.10394700
v 0.01214438 -0.06184655 0.10133500
v 0.06442648 -0.00033380 0.10895100
v 0.09130126 -0.01052975 0.10717200
v 0.06419855 -0.00325006 0.10974600
v 0.06141436 -0.01518309 0.11224601
v 0.05999666 -0.01898926 0.11274399
v 0.06159549 0.00828511 0.10926400
v -0.00058437 -0.06125235 -0.09830516
v 0.01167654 -0.06066238 -0.10225300
v 0.01117986 -0.05977660 -0.10345000
v -0.00335389 -0.06086540 -0.09753400
v -0.00501221 -0.06059008 -0.09705741
v 0.01068890 -0.05925065 -0.10484501
v -0.01341449 -0.05868356 -0.09450049
v 0.27415508 -0.07064305 -0.09511441
v 0.22659399 -0.08052909 -0.09532570
v 0.27294320 -0.06889319 -0.09865901
v 0.17828600 -0.08565287 -0.09545706
v 0.18196000 -0.08304076 -0.09877508
v 0.13590300 -0.08384859 -0.09877950
v 0.22776900 -0.07806807 -0.09873641
v 0.12971400 -0.08604289 -0.09546654
v 0.08995449 -0.08049255 -0.09875781
v 0.08133065 -0.08169960 -0.09535690
v 0.04447728 -0.07296836 -0.09867681
v 0.03359949 -0.07261866 -0.09509778
v 0.05980422 0.01537383 -0.10617320
v 0.05805100 0.02267688 -0.10188701
v 0.05723357 0.02259147 -0.10258700
v 0.05633304 0.02262117 -0.10373583
v 0.05574029 0.02279818 -0.10483700
v 0.06057870 0.01535815 -0.10511489
v 0.05570566 0.02751100 -0.09980225
v 0.05060607 0.03385716 -0.09716929
v 0.04979115 0.03478854 -0.09674048
v 0.04855209 0.03616946 -0.09608716
v 0.22375663 0.01555758 -0.09884642
v 0.20044801 0.00559366 -0.09877897
v 0.22342099 0.01616770 -0.09799188
v 0.22267641 0.01751852 -0.09514716
v 0.19827402 0.00748700 -0.09493191
v 0.17254300 0.00165993 -0.09468798
v 0.14621399 0.00011708 -0.09462445
v 0.11998899 0.00289684 -0.09473925
v 0.09456299 0.00992673 -0.09503580
v 0.07061189 0.02102696 -0.09552347
v 0.07703256 0.01481264 -0.09917266
v 0.10054199 0.00527537 -0.09876568
v 0.12523200 -0.00050402 -0.09852707
v 0.15051500 -0.00239193 -0.09845030
v 0.17578892 -0.00034395 -0.09853358
v 0.02895975 -0.05472886 0.10777400
v 0.02784454 -0.05371189 0.10969700
v 0.01167649 -0.06066167 0.10225300
v 0.01117980 -0.05977594 0.10345000
v 0.01068878 -0.05925005 0.10484500
v -0.00033431 -0.06128299 0.09837299
v -0.00219649 -0.06103789 0.09786075
v -0.00504988 -0.06058305 0.09704667
v -0.01291452 -0.05882155 0.09465899
v 0.27416110 -0.07065119 0.09508713
v 0.22659500 -0.08052849 0.09532599
v 0.22777802 -0.07806640 0.09873658
v 0.18198100 -0.08303915 0.09877526
v 0.27294582 -0.06889594 0.09865501
v 0.17829201 -0.08565205 0.09545737
v 0.12972592 -0.08604300 0.09546679
v 0.08134775 -0.08170157 0.09535728
v 0.03361827 -0.07262289 0.09509819
v -0.01897805 -0.05697208 0.09184825
v 0.13593601 -0.08384920 0.09877968
v 0.08999966 -0.08049756 0.09875812
v 0.04453146 -0.07297956 0.09867709
v 0.22658801 0.01349437 -0.10094000
v 0.22509100 0.01618427 -0.09834046
v 0.22781301 0.01354575 -0.09998965
v 0.22643101 0.01598900 -0.09763675
v 0.22852902 0.01308417 -0.09869265
v 0.22733000 0.01520419 -0.09668546
v 0.27573514 -0.06598080 0.09410740
v 0.27466887 -0.06471062 0.09676352
v 0.27304301 -0.06277287 0.09874558
v 0.26350087 -0.05140090 0.10518610
v 0.26340002 -0.05206584 0.10679301
v 0.25305602 -0.03969520 0.11054401
v 0.25217700 -0.04063987 0.11163901
v 0.25327101 -0.03920991 0.10893701
v 0.27316204 -0.06373488 0.10023590
v 0.22519092 0.01811307 0.09089601
v 0.22624500 0.01706147 0.09089601
v 0.22652702 0.01658487 0.09397280
v 0.22686800 0.01600188 0.09539437
v 0.22732902 0.01520645 0.09668308
v 0.22852902 0.01308465 0.09869265
v 0.23572201 -0.00158727 0.10590100
v 0.23624800 -0.00282985 0.10632800
v 0.24166399 -0.01782900 0.10954599
v 0.24716800 -0.03049278 0.10999800
v 0.24648198 -0.02927190 0.11005100
v 0.27243200 -0.06503636 0.10120299
v 0.24496099 -0.02997827 0.11274400
v 0.23998299 -0.01804888 0.11222100
v 0.24602000 -0.02937018 0.11163801
v 0.24118300 -0.01780307 0.11112089
v 0.27503902 -0.06606715 0.09801298
v 0.27437699 -0.06766618 0.09874570
v 0.27633801 -0.06768286 0.09483945
v 0.27572599 -0.06948828 0.09523630
v 0.22781304 0.01354616 0.09998961
v 0.23508801 -0.00121999 0.10735491
v 0.23386002 -0.00136965 0.10840501
v 0.22658801 0.01349478 0.10094000
v 0.22550902 0.01757109 0.09447361
v 0.22642902 0.01599156 0.09763407
v 0.22409901 0.01792865 0.09484667
v 0.22508901 0.01618707 0.09833736
v 0.27572700 -0.06949007 -0.09523201
v 0.27573401 -0.06597975 -0.09411190
v 0.27633902 -0.06768459 -0.09483557
v 0.27467003 -0.06471204 -0.09676180
v 0.27437800 -0.06766897 -0.09874231
v 0.27243200 -0.06503690 -0.10120301
v 0.27504000 -0.06606966 -0.09800988
v 0.27304301 -0.06277341 -0.09874517
v 0.27316201 -0.06373530 -0.10023590
v 0.26349327 -0.05139242 -0.10519001
v 0.26340002 -0.05206650 -0.10679301
v 0.26259300 -0.05319626 -0.10784301
v 0.22519092 0.01811259 -0.09089601
v 0.22624500 0.01706105 -0.09089601
v 0.22652701 0.01658350 -0.09397566
v 0.22686800 0.01600140 -0.09539437
v 0.23572201 -0.00158781 -0.10590102
v 0.23624802 -0.00283039 -0.10632801
v 0.23386002 -0.00137019 -0.10840501
v 0.23508801 -0.00122052 -0.10735491
v 0.22550899 0.01757019 -0.09447736
v 0.22409700 0.01792699 -0.09485095
v 0.26259300 -0.05319565 0.10784301
v 0.08928834 -0.02790290 0.11045499
v 0.11945400 -0.01670008 0.10614000
v 0.11919300 -0.03326445 0.10919600
v 0.11659099 -0.04975658 0.10921101
v 0.14929689 -0.03510105 0.10878502
v 0.14925902 -0.05149596 0.10880000
v 0.17940602 -0.03342825 0.10915800
v 0.18192700 -0.04990780 0.10917500
v 0.21460702 -0.04495888 0.11039400
v 0.14806500 -0.01892757 0.10578500
v 0.17670101 -0.01720255 0.10604700
v 0.32053301 -0.05749488 -0.07759988
v 0.32331499 -0.05637109 -0.07759988
v 0.25793800 0.04418206 -0.07760006
f 1 2 3
f 3 2 4
f 3 4 5
f 5 4 6
f 5 6 7
f 7 6 8
f 7 8 9
f 9 8 10
f 9 10 11
f 11 10 12
f 11 12 13
f 13 12 14
f 13 14 15
f 15 14 16
f 15 16 17
f 17 16 18
f 17 18 19
f 19 18 20
f 19 20 21
f 21 20 22
f 21 22 23
f 23 22 24
f 23 24 25
f 25 24 26
f 25 26 27
f 27 26 28
f 27 28 29
f 29 28 30
f 29 30 31
f 32 31 33
f 31 32 29
f 29 32 34
f 29 34 27
f 27 34 35
f 27 35 25
f 25 35 36
f 25 36 23
f 23 36 37
f 23 37 21
f 21 37 38
f 21 38 19
f 19 38 39
f 19 39 17
f 17 39 40
f 17 40 15
f 15 40 41
f 15 41 13
f 13 41 42
f 13 42 11
f 11 42 43
f 11 43 9
f 9 43 44
f 9 44 45
f 43 46 44
f 9 45 7
f 7 45 5
f 1 47 2
f 2 47 48
f 2 48 4
f 4 48 6
f 6 48 8
f 8 48 49
f 8 49 50
f 50 49 51
f 50 51 52
f 52 51 53
f 52 53 54
f 54 53 55
f 54 55 56
f 56 55 57
f 56 57 58
f 58 57 59
f 58 59 60
f 60 59 61
f 60 61 62
f 62 61 63
f 62 63 64
f 64 63 65
f 64 65 66
f 66 65 67
f 66 67 68
f 68 67 69
f 68 69 70
f 70 69 71
f 70 71 72
f 72 71 73
f 72 73 74
f 74 73 75
f 74 75 76
f 76 75 77
f 76 77 78
f 78 77 79
f 78 79 80
f 80 79 81
f 80 81 82
f 82 81 83
f 82 83 28
f 28 83 30
f 28 26 82
f 82 26 84
f 82 84 80
f 80 84 85
f 80 85 78
f 78 85 86
f 78 86 76
f 76 86 87
f 76 87 74
f 74 87 88
f 74 88 72
f 72 88 89
f 72 89 70
f 70 89 90
f 70 90 68
f 68 90 91
f 68 91 66
f 66 91 64
f 64 91 62
f 62 91 92
f 62 92 60
f 60 92 93
f 60 93 58
f 58 93 94
f 58 94 56
f 56 94 95
f 56 95 54
f 54 95 96
f 54 96 52
f 52 96 97
f 52 97 50
f 50 97 10
f 50 10 8
f 91 90 92
f 92 90 98
f 92 98 93
f 93 98 99
f 93 99 94
f 94 99 100
f 94 100 95
f 95 100 101
f 95 101 96
f 96 101 102
f 96 102 97
f 97 102 103
f 97 103 10
f 10 103 12
f 12 103 14
f 14 103 104
f 14 104 16
f 16 104 105
f 16 105 18
f 18 105 106
f 18 106 20
f 20 106 107
f 20 107 22
f 22 107 108
f 22 108 24
f 24 108 84
f 24 84 26
f 84 108 85
f 85 108 109
f 85 109 86
f 86 109 110
f 86 110 87
f 87 110 111
f 87 111 88
f 88 111 112
f 88 112 89
f 89 112 98
f 89 98 90
f 98 112 99
f 99 112 113
f 99 113 100
f 100 113 114
f 100 114 101
f 101 114 115
f 101 115 102
f 102 115 104
f 102 104 103
f 104 115 105
f 105 115 116
f 105 116 106
f 106 116 117
f 106 117 107
f 107 117 109
f 107 109 108
f 109 117 110
f 110 117 118
f 110 118 111
f 111 118 113
f 111 113 112
f 113 118 114
f 114 118 116
f 114 116 115
f 117 116 118
f 47 119 48
f 48 119 120
f 48 120 49
f 49 120 121
f 49 121 51
f 51 121 122
f 51 122 53
f 53 122 123
f 53 123 55
f 55 123 124
f 55 124 57
f 57 124 125
f 57 125 59
f 59 125 126
f 59 126 61
f 61 126 127
f 61 127 63
f 63 127 128
f 63 128 65
f 65 128 129
f 65 129 130
f 130 129 131
f 130 131 132
f 132 131 133
f 132 133 134
f 134 133 135
f 134 135 136
f 136 135 137
f 136 137 138
f 138 137 139
f 138 139 140
f 140 139 141
f 140 141 142
f 142 141 143
f 142 143 144
f 144 143 145
f 144 145 146
f 146 145 147
f 146 147 148
f 148 147 149
f 148 149 150
f 150 149 151
f 150 151 152
f 152 151 153
f 152 153 154
f 154 153 71
f 154 71 69
f 71 153 73
f 73 153 155
f 73 155 75
f 75 155 156
f 75 156 77
f 77 156 157
f 77 157 79
f 79 157 158
f 79 158 81
f 81 158 159
f 81 159 83
f 83 159 160
f 83 160 30
f 30 160 161
f 30 161 31
f 31 161 162
f 31 162 33
f 33 162 163
f 163 162 164
f 164 162 165
f 164 165 166
f 166 165 167
f 166 167 168
f 168 167 169
f 168 169 170
f 170 169 171
f 162 161 165
f 165 161 172
f 165 172 167
f 167 172 169
f 153 151 155
f 155 151 173
f 155 173 156
f 156 173 174
f 156 174 157
f 157 174 175
f 157 175 158
f 158 175 176
f 158 176 159
f 159 176 177
f 159 177 160
f 160 177 178
f 160 178 161
f 161 178 172
f 151 149 173
f 173 149 179
f 173 179 174
f 174 179 180
f 174 180 175
f 175 180 181
f 175 181 176
f 176 181 182
f 176 182 177
f 177 182 183
f 177 183 178
f 178 183 184
f 178 184 172
f 172 184 185
f 172 185 169
f 169 185 186
f 169 186 171
f 149 147 179
f 179 147 187
f 179 187 180
f 180 187 188
f 180 188 181
f 181 188 189
f 181 189 182
f 182 189 190
f 182 190 183
f 183 190 191
f 183 191 184
f 184 191 192
f 184 192 185
f 185 192 193
f 185 193 186
f 186 193 194
f 194 193 195
f 195 193 196
f 195 196 197
f 197 196 198
f 198 196 199
f 199 196 200
f 199 200 120
f 120 200 121
f 199 120 201
f 201 120 119
f 147 145 187
f 187 145 202
f 187 202 188
f 188 202 203
f 188 203 189
f 189 203 204
f 189 204 190
f 190 204 205
f 190 205 191
f 191 205 206
f 191 206 192
f 192 206 207
f 192 207 193
f 193 207 196
f 145 143 202
f 202 143 208
f 202 208 203
f 203 208 209
f 203 209 204
f 204 209 210
f 204 210 205
f 205 210 211
f 205 211 206
f 206 211 212
f 206 212 207
f 207 212 213
f 207 213 196
f 196 213 200
f 143 141 208
f 208 141 214
f 208 214 209
f 209 214 215
f 209 215 210
f 210 215 216
f 210 216 211
f 211 216 217
f 211 217 212
f 212 217 218
f 212 218 213
f 213 218 219
f 213 219 200
f 200 219 121
f 121 219 122
f 122 219 220
f 122 220 123
f 123 220 221
f 123 221 124
f 124 221 222
f 124 222 125
f 125 222 223
f 125 223 126
f 126 223 224
f 126 224 127
f 127 224 129
f 127 129 128
f 129 224 131
f 131 224 225
f 131 225 133
f 133 225 226
f 133 226 135
f 135 226 227
f 135 227 137
f 137 227 228
f 137 228 139
f 139 228 214
f 139 214 141
f 214 228 215
f 215 228 229
f 215 229 216
f 216 229 230
f 216 230 217
f 217 230 231
f 217 231 218
f 218 231 220
f 218 220 219
f 220 231 221
f 221 231 232
f 221 232 222
f 222 232 233
f 222 233 223
f 223 233 225
f 223 225 224
f 225 233 226
f 226 233 234
f 226 234 227
f 227 234 229
f 227 229 228
f 229 234 230
f 230 234 232
f 230 232 231
f 232 234 233
f 130 132 65
f 65 132 134
f 65 134 136
f 136 138 65
f 65 138 140
f 65 140 235
f 235 140 142
f 235 142 236
f 236 142 144
f 236 144 237
f 237 144 146
f 237 146 238
f 238 146 148
f 238 148 239
f 239 148 150
f 239 150 240
f 240 150 152
f 240 152 241
f 241 152 154
f 241 154 242
f 242 154 69
f 242 69 67
f 67 65 242
f 242 65 241
f 241 65 240
f 240 65 239
f 239 65 238
f 238 65 237
f 237 65 236
f 236 65 235
f 243 244 245
f 245 244 246
f 244 247 246
f 246 247 248
f 246 248 249
f 249 248 250
f 249 250 251
f 251 250 252
f 251 252 253
f 253 252 254
f 253 254 255
f 255 254 256
f 255 256 257
f 257 256 258
f 257 258 259
f 259 258 260
f 259 260 261
f 261 260 262
f 261 262 263
f 263 262 264
f 263 264 265
f 265 264 266
f 265 266 267
f 267 266 268
f 267 268 269
f 269 268 270
f 269 270 271
f 271 270 272
f 271 272 273
f 273 272 274
f 273 274 275
f 275 274 276
f 275 276 277
f 277 276 278
f 277 278 279
f 279 278 280
f 279 280 281
f 281 280 282
f 281 282 283
f 283 282 284
f 283 284 285
f 285 284 286
f 285 286 287
f 287 286 288
f 287 288 289
f 289 288 290
f 289 290 291
f 290 288 292
f 292 288 293
f 292 293 294
f 294 293 295
f 294 295 296
f 296 295 297
f 296 297 298
f 298 297 299
f 298 299 300
f 300 299 301
f 300 301 302
f 302 301 303
f 302 303 304
f 304 303 305
f 304 305 306
f 306 305 307
f 306 307 308
f 308 307 309
f 308 309 310
f 310 309 311
f 310 311 250
f 250 311 252
f 308 310 312
f 312 310 313
f 312 313 314
f 314 313 315
f 315 313 248
f 315 248 247
f 248 313 250
f 250 313 310
f 288 286 293
f 293 286 316
f 293 316 295
f 295 316 317
f 295 317 297
f 297 317 318
f 297 318 299
f 299 318 319
f 299 319 301
f 301 319 320
f 301 320 303
f 303 320 321
f 303 321 305
f 305 321 322
f 305 322 307
f 307 322 323
f 307 323 309
f 309 323 311
f 246 249 245
f 245 249 324
f 245 324 243
f 243 324 325
f 325 324 326
f 326 324 327
f 326 327 328
f 328 327 329
f 330 331 332
f 332 331 333
f 330 334 331
f 331 334 335
f 331 335 336
f 336 335 337
f 336 337 338
f 338 337 339
f 338 339 340
f 340 339 289
f 340 289 291
f 291 341 340
f 287 289 342
f 287 342 343
f 343 342 344
f 343 344 345
f 345 344 346
f 345 346 347
f 347 346 348
f 347 348 349
f 349 348 350
f 349 350 351
f 351 350 352
f 351 352 353
f 353 352 354
f 353 354 355
f 355 354 356
f 355 356 357
f 357 356 358
f 357 358 359
f 359 358 360
f 359 360 361
f 361 360 362
f 361 362 363
f 363 362 364
f 363 364 365
f 365 364 366
f 365 366 269
f 269 366 367
f 269 367 368
f 368 367 369
f 368 369 370
f 370 369 371
f 370 371 263
f 263 371 261
f 263 265 370
f 370 265 372
f 370 372 368
f 368 372 269
f 269 372 267
f 267 372 265
f 287 343 285
f 285 343 373
f 285 373 283
f 283 373 374
f 283 374 281
f 281 374 375
f 281 375 279
f 279 375 376
f 279 376 277
f 277 376 377
f 277 377 275
f 275 377 378
f 275 378 273
f 273 378 379
f 273 379 271
f 271 379 269
f 343 345 373
f 373 345 380
f 373 380 374
f 374 380 381
f 374 381 375
f 375 381 382
f 375 382 376
f 376 382 383
f 376 383 377
f 377 383 384
f 377 384 378
f 378 384 385
f 378 385 379
f 379 385 269
f 345 347 380
f 380 347 386
f 380 386 381
f 381 386 387
f 381 387 382
f 382 387 388
f 382 388 383
f 383 388 389
f 383 389 384
f 384 389 390
f 384 390 385
f 385 390 391
f 385 391 269
f 269 391 392
f 269 392 393
f 393 392 394
f 393 394 395
f 395 394 396
f 395 396 397
f 397 396 398
f 397 398 399
f 399 398 400
f 399 400 401
f 401 400 402
f 401 402 351
f 351 402 349
f 351 353 401
f 401 353 403
f 401 403 399
f 399 403 404
f 399 404 397
f 397 404 405
f 397 405 395
f 395 405 406
f 395 406 393
f 393 406 407
f 393 407 269
f 269 407 408
f 269 408 409
f 409 408 410
f 409 410 411
f 411 410 412
f 411 412 413
f 413 412 414
f 413 414 357
f 357 414 355
f 357 359 413
f 413 359 415
f 413 415 411
f 411 415 416
f 411 416 409
f 409 416 269
f 359 361 415
f 415 361 417
f 415 417 416
f 416 417 418
f 416 418 269
f 269 418 419
f 269 419 365
f 365 419 363
f 418 417 419
f 419 417 363
f 363 417 361
f 407 406 408
f 408 406 410
f 406 405 410
f 410 405 412
f 405 404 412
f 412 404 414
f 404 403 414
f 414 403 355
f 355 403 353
f 392 391 394
f 394 391 390
f 394 390 396
f 396 390 389
f 396 389 398
f 398 389 388
f 398 388 400
f 400 388 387
f 400 387 402
f 402 387 386
f 402 386 349
f 349 386 347
f 289 339 342
f 342 339 337
f 342 337 335
f 342 335 344
f 344 335 420
f 344 420 346
f 346 420 421
f 346 421 348
f 348 421 422
f 348 422 350
f 350 422 423
f 350 423 352
f 352 423 424
f 352 424 354
f 354 424 425
f 354 425 356
f 356 425 426
f 356 426 358
f 358 426 427
f 358 427 360
f 360 427 428
f 360 428 362
f 362 428 429
f 362 429 364
f 364 429 430
f 364 430 366
f 366 430 367
f 367 430 369
f 369 430 431
f 369 431 371
f 371 431 432
f 371 432 261
f 261 432 259
f 430 429 431
f 431 429 433
f 431 433 432
f 432 433 434
f 432 434 259
f 259 434 257
f 429 428 433
f 433 428 435
f 433 435 434
f 434 435 436
f 434 436 257
f 257 436 255
f 428 427 435
f 435 427 437
f 435 437 436
f 436 437 438
f 436 438 255
f 255 438 253
f 427 426 437
f 437 426 439
f 437 439 438
f 438 439 440
f 438 440 253
f 253 440 251
f 426 425 439
f 439 425 441
f 439 441 440
f 440 441 442
f 440 442 251
f 251 442 249
f 249 442 324
f 324 442 443
f 324 443 327
f 327 443 423
f 327 423 422
f 327 422 329
f 329 422 444
f 422 421 444
f 444 421 445
f 445 421 446
f 446 421 420
f 446 420 447
f 447 420 334
f 334 420 335
f 423 443 424
f 424 443 441
f 424 441 425
f 441 443 442
f 338 333 336
f 336 333 331
f 448 449 450
f 448 450 451
f 451 450 452
f 451 452 453
f 451 454 448
f 454 451 453
f 454 453 455
f 453 452 456
f 453 456 455
f 455 456 457
f 455 457 458
f 454 455 458
f 454 458 459
f 458 460 459
f 459 461 462
f 454 459 462
f 454 462 463
f 462 464 463
f 463 465 466
f 454 463 466
f 454 466 467
f 454 467 468
f 467 469 468
f 466 470 467
f 467 471 469
f 468 469 472
f 472 473 468
f 469 474 472
f 472 475 473
f 468 473 476
f 476 477 468
f 473 478 476
f 476 479 477
f 468 477 480
f 480 481 468
f 468 481 482
f 482 483 468
f 468 483 484
f 483 485 484
f 484 485 486
f 486 485 487
f 487 485 488
f 477 489 480
f 480 490 481
f 491 454 492
f 491 493 454
f 454 493 494
f 494 495 454
f 454 495 448
f 449 306 450
f 450 306 452
f 306 449 496
f 496 449 495
f 495 449 448
f 306 496 497
f 497 496 494
f 496 495 494
f 306 497 498
f 498 497 493
f 497 494 493
f 306 498 499
f 499 498 491
f 498 493 491
f 306 499 500
f 500 499 492
f 491 492 499
f 306 500 304
f 304 500 501
f 501 500 502
f 502 500 492
f 492 454 502
f 502 454 503
f 454 504 503
f 503 504 505
f 504 506 505
f 505 506 507
f 506 508 507
f 507 508 509
f 508 510 509
f 464 462 461
f 464 461 308
f 308 461 306
f 306 461 459
f 459 460 306
f 306 460 458
f 306 458 457
f 457 456 306
f 470 466 465
f 470 465 308
f 470 308 471
f 471 308 474
f 471 474 469
f 470 471 467
f 308 465 464
f 464 465 463
f 456 455 306
f 306 456 452
f 511 512 513
f 512 514 513
f 513 514 515
f 515 514 516
f 514 517 516
f 516 517 518
f 517 519 518
f 518 519 520
f 518 520 521
f 521 520 522
f 521 522 523
f 523 522 524
f 523 524 525
f 525 524 526
f 525 526 527
f 527 526 528
f 529 530 531
f 531 530 532
f 532 530 533
f 533 530 534
f 533 534 535
f 535 534 536
f 535 536 537
f 537 536 538
f 534 539 536
f 536 539 540
f 536 540 541
f 536 541 538
f 538 541 542
f 538 542 543
f 543 542 544
f 543 544 545
f 545 544 546
f 546 544 547
f 547 544 548
f 548 544 549
f 540 539 550
f 550 539 551
f 550 551 552
f 552 551 553
f 552 553 554
f 554 553 555
f 554 555 556
f 556 555 557
f 556 557 558
f 559 560 561
f 561 560 562
f 562 560 563
f 563 560 564
f 560 565 564
f 564 565 566
f 565 567 566
f 566 567 568
f 569 570 542
f 542 570 544
f 544 570 549
f 549 570 571
f 570 572 571
f 573 574 575
f 575 574 576
f 576 574 577
f 577 574 578
f 578 574 579
f 578 579 580
f 580 579 581
f 580 581 568
f 568 581 582
f 568 582 566
f 566 582 564
f 564 582 583
f 583 582 584
f 583 584 585
f 585 584 586
f 585 586 587
f 587 586 588
f 587 588 589
f 589 588 590
f 589 590 591
f 591 590 592
f 562 563 593
f 563 564 593
f 593 564 583
f 593 583 585
f 593 585 594
f 594 585 587
f 594 587 595
f 595 587 589
f 595 589 596
f 596 589 591
f 596 591 597
f 597 591 592
f 597 592 598
f 598 592 590
f 598 590 599
f 599 590 588
f 599 588 600
f 600 588 586
f 600 586 601
f 601 586 602
f 586 584 602
f 602 584 603
f 584 582 603
f 603 582 604
f 582 581 604
f 604 581 579
f 604 579 605
f 606 607 608
f 608 607 609
f 607 610 609
f 609 610 611
f 610 612 611
f 611 612 613
f 612 614 613
f 613 614 615
f 614 616 615
f 615 616 617
f 616 618 617
f 617 618 619
f 579 574 605
f 605 574 620
f 620 574 621
f 621 574 622
f 622 574 623
f 623 574 624
f 574 573 624
f 624 573 625
f 626 627 628
f 628 627 512
f 628 512 511
f 511 629 628
f 628 629 630
f 629 631 630
f 630 631 632
f 631 633 632
f 632 633 634
f 633 635 634
f 634 635 636
f 635 637 636
f 636 637 638
f 637 639 638
f 638 639 640
f 638 640 641
f 641 642 638
f 638 642 625
f 638 625 643
f 643 625 644
f 643 644 645
f 645 644 646
f 645 646 647
f 647 646 648
f 647 648 649
f 643 650 638
f 647 649 651
f 651 649 652
f 651 652 621
f 621 652 620
f 652 653 620
f 620 653 605
f 605 653 654
f 605 654 604
f 604 654 603
f 654 655 603
f 603 655 602
f 655 656 602
f 602 656 601
f 656 657 601
f 601 657 600
f 657 658 600
f 600 658 659
f 600 659 599
f 599 659 660
f 599 660 598
f 598 660 661
f 598 661 597
f 597 661 662
f 597 662 596
f 596 662 663
f 596 663 595
f 595 663 664
f 595 664 594
f 594 664 665
f 594 665 593
f 593 665 562
f 665 666 562
f 562 666 667
f 667 666 668
f 668 666 607
f 666 669 607
f 607 669 670
f 607 670 671
f 607 671 610
f 610 671 672
f 610 672 673
f 673 674 610
f 610 674 612
f 674 675 612
f 612 675 614
f 675 676 614
f 614 676 616
f 676 677 616
f 616 677 518
f 616 518 618
f 618 518 521
f 618 521 617
f 617 521 678
f 516 518 677
f 678 521 33
f 33 521 523
f 33 523 32
f 32 523 525
f 32 525 34
f 34 525 527
f 34 527 35
f 35 527 36
f 527 528 36
f 36 528 37
f 528 526 37
f 37 526 524
f 37 524 38
f 38 524 522
f 38 522 39
f 39 522 520
f 39 520 40
f 40 520 519
f 40 519 41
f 41 519 42
f 519 517 42
f 42 517 514
f 42 514 43
f 43 514 512
f 43 512 627
f 644 625 679
f 644 679 680
f 530 529 681
f 530 681 534
f 534 681 539
f 681 682 539
f 539 682 551
f 682 683 551
f 551 683 553
f 683 684 553
f 553 684 555
f 684 685 555
f 555 685 686
f 555 686 687
f 555 687 688
f 555 688 689
f 555 689 690
f 555 690 691
f 555 691 692
f 555 692 693
f 555 693 694
f 555 694 695
f 555 695 557
f 557 695 696
f 697 695 694
f 694 693 697
f 693 692 697
f 692 691 697
f 691 690 697
f 690 689 697
f 689 688 697
f 688 687 697
f 687 686 697
f 686 685 697
f 698 685 699
f 697 685 700
f 700 685 684
f 700 684 701
f 701 684 683
f 701 683 702
f 702 683 682
f 702 682 703
f 682 681 703
f 703 681 704
f 704 681 705
f 681 529 705
f 705 529 706
f 706 707 705
f 705 707 708
f 695 697 696
f 696 697 709
f 475 472 474
f 475 474 308
f 478 473 475
f 478 475 308
f 489 477 479
f 489 479 478
f 489 478 308
f 478 479 476
f 490 480 489
f 490 489 308
f 490 308 481
f 481 308 482
f 308 312 482
f 482 312 483
f 312 710 483
f 483 710 711
f 483 711 712
f 483 712 485
f 485 712 713
f 485 713 714
f 714 713 715
f 714 715 716
f 716 715 717
f 716 717 718
f 718 717 719
f 488 485 714
f 717 720 719
f 719 720 721
f 721 720 722
f 722 720 723
f 722 723 724
f 724 723 725
f 723 726 725
f 725 726 727
f 727 726 728
f 728 726 729
f 728 729 730
f 730 729 731
f 731 729 732
f 732 729 733
f 733 729 734
f 734 729 735
f 734 735 736
f 736 735 737
f 736 737 738
f 738 737 739
f 738 739 740
f 740 739 741
f 741 739 742
f 742 739 743
f 742 743 744
f 744 743 745
f 744 745 746
f 746 745 747
f 746 747 748
f 748 747 569
f 748 569 749
f 749 569 750
f 569 751 750
f 750 751 752
f 751 753 752
f 752 753 754
f 753 755 754
f 754 755 756
f 755 757 756
f 756 757 758
f 757 759 758
f 758 759 760
f 759 761 760
f 760 761 762
f 761 763 762
f 762 763 764
f 763 765 764
f 764 765 766
f 764 766 767
f 764 767 768
f 764 768 769
f 764 769 770
f 764 770 771
f 764 771 772
f 764 772 773
f 764 773 696
f 764 696 697
f 709 696 774
f 773 775 774
f 772 776 775
f 771 777 776
f 770 778 777
f 769 779 778
f 768 780 779
f 767 781 780
f 781 766 765
f 696 773 557
f 557 773 772
f 772 771 557
f 557 771 770
f 557 770 769
f 769 768 557
f 557 768 767
f 557 767 766
f 557 766 765
f 557 765 558
f 558 765 763
f 558 763 556
f 556 763 761
f 556 761 554
f 554 761 759
f 554 759 552
f 552 759 757
f 552 757 550
f 550 757 755
f 550 755 540
f 540 755 753
f 540 753 541
f 541 753 751
f 541 751 569
f 542 541 569
f 782 783 784
f 784 783 785
f 785 783 786
f 786 783 787
f 783 788 787
f 787 788 789
f 788 790 789
f 789 790 791
f 790 792 791
f 791 792 793
f 792 794 793
f 793 794 795
f 794 796 795
f 795 796 797
f 795 797 798
f 799 800 798
f 798 800 291
f 798 291 454
f 454 291 290
f 454 290 504
f 504 290 506
f 290 292 506
f 506 292 508
f 292 294 508
f 508 294 510
f 294 296 510
f 510 296 509
f 296 298 509
f 509 298 507
f 298 300 507
f 507 300 505
f 300 302 505
f 505 302 503
f 302 304 503
f 503 304 501
f 503 501 502
f 454 468 798
f 798 468 795
f 468 484 795
f 795 484 801
f 795 801 793
f 793 801 802
f 793 802 791
f 787 803 786
f 786 803 804
f 786 804 805
f 805 806 786
f 786 806 807
f 786 807 708
f 708 707 786
f 786 707 785
f 628 630 808
f 808 630 626
f 626 630 809
f 809 630 632
f 809 632 810
f 810 632 634
f 810 634 811
f 811 634 636
f 811 636 812
f 812 636 638
f 812 638 813
f 813 638 650
f 813 650 814
f 814 815 813
f 311 323 816
f 816 323 817
f 816 817 818
f 818 817 819
f 818 819 820
f 820 819 821
f 820 821 822
f 822 821 823
f 822 823 824
f 824 823 825
f 824 825 826
f 826 825 827
f 826 827 828
f 828 827 829
f 828 829 830
f 830 829 272
f 830 272 270
f 270 268 830
f 830 268 266
f 830 266 828
f 828 266 264
f 828 264 826
f 826 264 262
f 826 262 824
f 824 262 260
f 824 260 822
f 822 260 258
f 822 258 820
f 820 258 256
f 820 256 818
f 818 256 254
f 818 254 816
f 816 254 252
f 816 252 311
f 272 829 274
f 274 829 831
f 274 831 276
f 276 831 832
f 276 832 278
f 278 832 833
f 278 833 280
f 280 833 834
f 280 834 282
f 282 834 835
f 282 835 284
f 284 835 836
f 284 836 286
f 286 836 316
f 316 836 317
f 317 836 837
f 317 837 318
f 318 837 838
f 318 838 319
f 319 838 839
f 319 839 320
f 320 839 840
f 320 840 321
f 321 840 841
f 321 841 322
f 322 841 817
f 322 817 323
f 817 841 819
f 819 841 842
f 819 842 821
f 821 842 843
f 821 843 823
f 823 843 844
f 823 844 825
f 825 844 845
f 825 845 827
f 827 845 831
f 827 831 829
f 831 845 832
f 832 845 846
f 832 846 833
f 833 846 847
f 833 847 834
f 834 847 848
f 834 848 835
f 835 848 837
f 835 837 836
f 837 848 838
f 838 848 849
f 838 849 839
f 839 849 850
f 839 850 840
f 840 850 842
f 840 842 841
f 842 850 843
f 843 850 851
f 843 851 844
f 844 851 846
f 844 846 845
f 846 851 847
f 847 851 849
f 847 849 848
f 850 849 851
f 728 852 727
f 852 853 727
f 727 853 725
f 725 853 724
f 724 854 722
f 722 854 855
f 722 855 721
f 721 856 719
f 719 856 857
f 719 857 718
f 718 857 716
f 716 858 714
f 783 859 788
f 788 859 790
f 790 859 860
f 790 860 792
f 792 861 794
f 794 861 796
f 163 862 33
f 33 862 678
f 862 618 678
f 678 618 617
f 43 627 46
f 46 627 863
f 627 626 863
f 863 626 628
f 642 679 625
f 621 622 651
f 651 622 623
f 651 623 864
f 864 647 651
f 865 650 679
f 679 650 625
f 625 650 643
f 643 645 625
f 625 645 624
f 645 647 624
f 624 647 864
f 624 864 623
f 720 866 723
f 866 867 723
f 723 867 726
f 867 868 726
f 726 868 729
f 312 711 710
f 869 811 812
f 869 812 870
f 870 812 813
f 870 813 871
f 871 813 815
f 871 815 872
f 815 814 872
f 872 814 650
f 650 865 872
f 561 562 559
f 559 562 873
f 873 562 667
f 873 667 668
f 668 607 873
f 707 706 785
f 785 706 874
f 706 529 874
f 874 529 531
f 531 532 874
f 677 676 516
f 516 676 484
f 484 676 801
f 801 676 802
f 802 676 791
f 791 676 675
f 791 675 789
f 789 675 674
f 789 674 787
f 787 674 803
f 674 673 803
f 803 673 804
f 673 672 804
f 804 672 805
f 672 671 805
f 805 671 670
f 805 670 806
f 806 670 669
f 806 669 807
f 807 669 666
f 807 666 708
f 708 666 665
f 708 665 705
f 705 665 875
f 705 875 704
f 665 664 875
f 664 663 876
f 876 663 702
f 702 663 701
f 663 662 701
f 701 662 700
f 662 661 700
f 700 661 697
f 661 660 697
f 697 660 764
f 660 659 764
f 764 659 762
f 659 658 762
f 762 658 760
f 658 657 760
f 760 657 758
f 657 656 758
f 758 656 756
f 656 655 756
f 756 655 754
f 655 654 754
f 754 654 752
f 654 653 752
f 752 653 750
f 653 652 877
f 877 652 878
f 878 652 748
f 748 652 746
f 746 652 649
f 746 649 744
f 744 649 648
f 744 648 646
f 744 646 742
f 742 646 644
f 742 644 741
f 741 644 740
f 740 644 738
f 738 644 680
f 738 680 736
f 736 680 734
f 488 511 487
f 487 511 513
f 171 879 880
f 880 879 881
f 882 883 884
f 884 883 885
f 884 885 886
f 887 888 886
f 886 888 889
f 886 889 884
f 884 889 890
f 888 891 889
f 889 891 892
f 889 892 890
f 890 892 893
f 890 893 894
f 894 895 890
f 893 892 896
f 896 892 897
f 897 892 891
f 171 186 879
f 879 186 898
f 186 194 898
f 898 194 899
f 194 195 899
f 899 195 900
f 195 197 900
f 900 197 901
f 197 198 901
f 901 198 902
f 198 199 902
f 902 199 903
f 199 201 903
f 903 201 904
f 904 201 905
f 905 201 119
f 905 119 47
f 905 47 906
f 906 47 1
f 906 1 907
f 907 1 908
f 907 908 909
f 910 911 912
f 912 911 913
f 913 911 914
f 913 914 882
f 882 914 883
f 911 915 914
f 914 915 916
f 914 916 917
f 917 916 918
f 917 918 919
f 919 918 920
f 919 920 921
f 921 920 922
f 921 922 923
f 923 922 924
f 923 925 921
f 921 925 926
f 921 926 888
f 888 887 921
f 921 887 919
f 919 887 917
f 917 887 885
f 917 885 883
f 883 914 917
f 887 886 885
f 927 928 929
f 929 928 879
f 929 879 898
f 930 931 932
f 932 931 933
f 933 931 934
f 934 931 935
f 935 931 936
f 936 931 937
f 937 931 909
f 909 931 907
f 907 931 938
f 907 938 939
f 939 938 940
f 939 940 941
f 941 940 942
f 941 942 943
f 943 942 924
f 943 924 922
f 907 939 906
f 906 939 905
f 905 939 904
f 904 939 944
f 904 944 903
f 903 944 902
f 902 944 901
f 901 944 945
f 901 945 946
f 946 945 947
f 946 947 948
f 948 947 949
f 948 929 946
f 946 929 898
f 946 898 899
f 899 900 946
f 946 900 901
f 939 941 944
f 944 941 950
f 944 950 945
f 945 950 951
f 945 951 947
f 947 951 952
f 947 952 949
f 949 952 915
f 915 952 916
f 916 952 918
f 941 943 950
f 950 943 953
f 950 953 951
f 951 953 954
f 951 954 952
f 952 954 918
f 918 954 920
f 920 954 953
f 920 953 922
f 922 953 943
f 955 956 957
f 958 959 960
f 960 959 961
f 959 962 961
f 961 962 963
f 963 962 964
f 963 964 965
f 965 964 966
f 965 966 956
f 956 966 957
f 957 966 247
f 247 966 967
f 967 966 964
f 967 964 968
f 968 964 962
f 958 969 970
f 970 969 971
f 970 971 972
f 972 971 973
f 972 973 715
f 715 973 717
f 715 713 972
f 972 713 974
f 972 974 975
f 972 975 970
f 713 712 974
f 974 712 976
f 974 976 314
f 969 977 971
f 971 977 978
f 971 978 973
f 973 978 979
f 973 979 717
f 717 979 720
f 977 980 978
f 978 980 981
f 978 981 979
f 979 981 982
f 979 982 720
f 720 982 866
f 980 983 981
f 981 983 984
f 981 984 982
f 982 984 985
f 982 985 866
f 866 985 867
f 983 986 984
f 984 986 987
f 984 987 985
f 985 987 988
f 985 988 867
f 867 988 868
f 868 988 989
f 986 990 987
f 987 990 991
f 987 991 988
f 988 991 989
f 989 991 992
f 992 991 993
f 993 991 990
f 993 990 994
f 994 990 995
f 994 995 996
f 996 995 997
f 997 995 998
f 998 995 999
f 998 999 1000
f 1000 999 1001
f 1002 1003 1004
f 1002 1004 1005
f 1005 1004 1006
f 1005 1006 1007
f 1002 1005 1008
f 1008 1005 1009
f 1008 1009 1010
f 1010 1009 1011
f 1010 1011 1012
f 1012 1011 1013
f 1012 1013 1014
f 1014 1013 1015
f 1014 1015 1016
f 1016 1015 1017
f 1016 1018 1014
f 1014 1018 1019
f 1014 1019 1020
f 1012 1014 1021
f 1021 1014 1020
f 1021 1020 1022
f 1022 1023 1021
f 1021 1023 1024
f 958 960 969
f 969 960 961
f 969 961 963
f 963 965 969
f 969 965 956
f 969 956 955
f 955 1025 969
f 969 1025 1026
f 969 1026 977
f 977 1026 980
f 1025 1027 1026
f 1026 1027 1028
f 1026 1028 1029
f 955 1030 1025
f 1025 1030 243
f 1025 243 325
f 1025 325 1027
f 1027 325 326
f 1027 326 1028
f 1028 326 328
f 1028 328 1029
f 1029 328 329
f 1029 329 1017
f 1017 329 444
f 1017 444 1016
f 1016 444 445
f 1016 445 1018
f 1018 445 446
f 1018 446 447
f 1018 447 1019
f 1019 447 334
f 1019 334 1020
f 1020 334 1022
f 334 330 1022
f 927 1031 1032
f 1032 1031 1033
f 1031 1034 1033
f 1033 1034 1035
f 1033 1035 1036
f 1036 1035 168
f 168 1035 166
f 166 1035 1037
f 166 1037 164
f 164 1037 163
f 607 606 873
f 873 606 608
f 873 608 1038
f 1038 608 1039
f 1038 1039 1040
f 873 1038 559
f 608 609 1039
f 1039 609 1041
f 1039 1041 1042
f 1042 1041 1043
f 1042 1043 949
f 949 1043 948
f 949 915 1042
f 1042 915 1044
f 1042 1044 1039
f 1039 1044 1040
f 1040 1044 910
f 910 1044 911
f 911 1044 915
f 609 611 1041
f 1041 611 1045
f 1041 1045 1043
f 1043 1045 1046
f 1043 1046 948
f 948 1046 929
f 611 613 1045
f 1045 613 1047
f 1045 1047 1046
f 1046 1047 1048
f 1046 1048 929
f 929 1048 927
f 927 1048 1031
f 1031 1048 1049
f 1031 1049 1034
f 1034 1049 1035
f 1035 1049 1037
f 1037 1049 617
f 1037 617 862
f 862 617 619
f 862 619 618
f 1037 862 163
f 617 1049 615
f 615 1049 1047
f 615 1047 613
f 1047 1049 1048
f 928 927 879
f 879 927 881
f 927 1032 881
f 881 1032 1033
f 881 1033 880
f 880 1033 1036
f 880 1036 170
f 170 1036 168
f 170 171 880
f 1 3 908
f 908 3 909
f 909 3 1050
f 3 5 1050
f 930 932 1051
f 1051 932 933
f 1051 933 1052
f 1052 933 934
f 1052 934 1053
f 1053 934 935
f 1053 935 1054
f 1054 935 1055
f 1054 1055 5
f 5 1055 1050
f 909 1050 937
f 1050 1055 937
f 937 1055 936
f 1055 935 936
f 5 45 1054
f 1054 45 1053
f 930 1051 1056
f 1056 1051 1057
f 1051 1052 1057
f 1057 1052 1053
f 1057 1053 45
f 1057 45 1058
f 1058 45 1059
f 45 44 1059
f 1059 44 46
f 925 923 1060
f 1060 923 1061
f 1060 1061 1062
f 1062 1061 1063
f 1063 1061 1064
f 1063 1064 871
f 871 1064 870
f 870 1064 1065
f 870 1065 869
f 869 1065 1066
f 869 1066 811
f 811 1066 1067
f 811 1067 810
f 810 1067 1068
f 810 1068 809
f 809 1068 1069
f 809 1069 626
f 626 1069 1059
f 626 1059 808
f 808 1059 628
f 628 1059 863
f 863 1059 46
f 1059 1069 1058
f 1058 1069 1057
f 1057 1069 1056
f 1056 1069 1070
f 1056 1070 930
f 930 1070 931
f 931 1070 938
f 938 1070 1071
f 938 1071 940
f 940 1071 1072
f 940 1072 942
f 942 1072 1073
f 942 1073 924
f 924 1073 1074
f 924 1074 923
f 923 1074 1061
f 1061 1074 1064
f 1064 1074 1065
f 1074 1073 1065
f 1065 1073 1066
f 1073 1072 1066
f 1066 1072 1067
f 1072 1071 1067
f 1067 1071 1068
f 1071 1070 1068
f 1068 1070 1069
f 314 315 974
f 974 315 975
f 975 315 970
f 970 315 958
f 958 315 959
f 959 315 962
f 962 315 968
f 968 315 967
f 967 315 247
f 955 957 1030
f 1030 957 243
f 243 957 244
f 244 957 247
f 1022 330 1075
f 1075 330 1076
f 1022 1075 1023
f 1023 1075 1024
f 1024 1075 1077
f 1077 1075 1076
f 1077 1076 1078
f 1078 1076 1079
f 1076 330 1079
f 1079 330 332
f 1079 332 333
f 1080 1024 1081
f 1081 1024 1077
f 1081 1077 1082
f 1082 1077 1078
f 1082 1078 338
f 338 1078 1079
f 338 1079 333
f 338 340 1082
f 1082 340 1083
f 1083 340 341
f 785 874 784
f 784 874 782
f 874 532 782
f 782 532 1084
f 782 1084 1085
f 1085 1084 1086
f 1085 1086 1087
f 1087 1086 1008
f 1087 1008 1010
f 1008 1086 1002
f 1002 1086 1088
f 1086 1084 1088
f 782 1085 783
f 783 1085 1089
f 783 1089 859
f 859 1089 1090
f 859 1090 860
f 860 1090 1091
f 860 1091 792
f 792 1091 1092
f 792 1092 861
f 861 1092 1083
f 861 1083 796
f 796 1083 341
f 796 341 797
f 797 341 798
f 798 341 1093
f 1083 1092 1082
f 1082 1092 1081
f 1081 1092 1080
f 1085 1087 1089
f 1089 1087 1094
f 1089 1094 1090
f 1090 1094 1095
f 1090 1095 1091
f 1091 1095 1096
f 1091 1096 1092
f 1092 1096 1080
f 1080 1096 1024
f 1024 1096 1021
f 1096 1095 1021
f 1021 1095 1012
f 1095 1094 1012
f 1012 1094 1010
f 1010 1094 1087
f 925 1060 1097
f 1062 1063 1098
f 1062 1098 1060
f 1060 1098 1097
f 1097 1098 1099
f 1099 1098 1100
f 1099 1100 1101
f 1101 1100 1102
f 484 486 516
f 516 486 515
f 486 487 515
f 515 487 513
f 538 543 537
f 537 543 1103
f 1103 543 1104
f 1104 543 1105
f 1105 543 1106
f 1107 1106 1108
f 1107 1108 1109
f 1106 1110 1108
f 543 1110 1106
f 1106 1107 1105
f 1105 1107 1111
f 868 729 572
f 572 729 571
f 571 729 549
f 549 729 1112
f 549 1112 548
f 548 1112 1113
f 548 1113 1114
f 548 1114 1115
f 1115 1116 548
f 548 1116 1117
f 548 1117 547
f 547 1117 1118
f 547 1118 1119
f 1119 1120 547
f 547 1120 546
f 1110 543 1121
f 1121 543 545
f 1121 545 1122
f 1122 545 546
f 1122 546 1120
f 1002 1123 1003
f 1006 1109 1007
f 1007 1109 1001
f 1001 1109 1000
f 1000 1109 1124
f 1000 1124 998
f 998 1124 997
f 997 1124 1125
f 1125 1124 1126
f 1125 1126 1127
f 1127 1126 1122
f 1127 1122 1120
f 1122 1126 1121
f 1121 1126 1110
f 1110 1126 1108
f 1108 1126 1124
f 1108 1124 1109
f 532 533 1084
f 1105 1111 1104
f 1104 1111 1128
f 1104 1128 1103
f 1111 1123 1128
f 1128 1123 1129
f 1128 1129 1130
f 1130 1129 1131
f 1130 1131 535
f 535 1131 533
f 533 1131 1084
f 1084 1131 1088
f 1088 1131 1129
f 1088 1129 1002
f 1002 1129 1123
f 535 537 1130
f 1130 537 1103
f 1130 1103 1128
f 997 1125 996
f 996 1125 994
f 1117 1132 1118
f 1118 1132 1133
f 1118 1133 1119
f 1119 1133 1120
f 1120 1133 1127
f 1127 1133 1134
f 1127 1134 1125
f 1125 1134 994
f 994 1134 993
f 993 1134 1135
f 1134 1133 1135
f 1135 1133 1132
f 1113 1112 1114
f 1114 1112 1136
f 1114 1136 1116
f 1116 1136 1137
f 1116 1137 1117
f 1117 1137 1132
f 1116 1115 1114
f 1112 729 1136
f 1136 729 1138
f 1136 1138 1137
f 1137 1138 1139
f 1137 1139 1132
f 1132 1139 1135
f 729 868 1138
f 1138 868 989
f 1138 989 1139
f 1139 989 992
f 1139 992 1135
f 1135 992 993
f 559 1038 560
f 1038 1040 1140
f 1038 1140 560
f 560 1140 565
f 1141 567 1142
f 1141 1142 1143
f 567 565 1142
f 1142 565 1140
f 1142 1140 1144
f 1144 1140 1040
f 1144 1040 910
f 910 1145 1144
f 1144 1145 1146
f 1144 1146 1142
f 1142 1146 1143
f 1143 1146 1147
f 1147 1146 1148
f 1148 1146 1145
f 567 1141 568
f 568 1141 1143
f 568 1143 1147
f 568 1147 1149
f 568 1149 895
f 568 895 580
f 910 912 1145
f 1149 1147 1150
f 1149 1150 895
f 895 1150 890
f 890 1150 884
f 884 1150 1151
f 884 1151 882
f 882 1151 913
f 913 1151 912
f 912 1151 1145
f 1145 1151 1148
f 1148 1151 1150
f 1148 1150 1147
f 895 894 580
f 580 894 893
f 580 893 578
f 578 893 896
f 578 896 577
f 714 858 488
f 488 858 511
f 511 858 629
f 629 858 631
f 858 716 631
f 631 716 857
f 631 857 856
f 631 856 633
f 633 856 721
f 633 721 855
f 633 855 635
f 635 855 854
f 635 854 724
f 724 853 635
f 635 853 637
f 853 852 637
f 637 852 728
f 637 728 730
f 637 730 639
f 639 730 731
f 639 731 640
f 640 731 732
f 640 732 641
f 641 732 642
f 732 733 642
f 642 733 734
f 642 734 680
f 680 679 642
f 679 625 865
f 865 625 650
f 650 625 573
f 650 573 1152
f 1152 573 575
f 1152 575 1153
f 1153 575 576
f 1153 576 1154
f 1154 576 1155
f 1155 576 1102
f 1102 576 1101
f 1101 576 1156
f 1156 576 577
f 1156 577 1157
f 1157 577 896
f 888 926 891
f 891 926 1158
f 891 1158 897
f 897 1158 1159
f 897 1159 896
f 896 1159 1156
f 896 1156 1157
f 1156 1159 1101
f 1101 1159 1099
f 1099 1159 1097
f 1097 1159 1158
f 1097 1158 925
f 925 1158 926
f 1155 1102 1154
f 1154 1102 1160
f 1154 1160 1153
f 1153 1160 1152
f 1152 1160 650
f 650 1160 1161
f 650 1161 865
f 865 1161 872
f 872 1161 871
f 871 1161 1063
f 1063 1161 1098
f 1098 1161 1100
f 1161 1160 1100
f 1100 1160 1102
f 1003 1123 1162
f 1162 1123 1111
f 1162 1111 1107
f 1107 1109 1162
f 1162 1109 1006
f 1162 1006 1004
f 1004 1003 1162
f 1029 1163 1026
f 1026 1163 1164
f 1026 1164 980
f 980 1164 983
f 1029 1017 1163
f 1163 1017 1015
f 1163 1015 1165
f 1165 1015 1166
f 1165 1166 1167
f 1167 1166 1168
f 1167 1168 1169
f 1169 1168 1170
f 1169 1170 999
f 999 1170 1171
f 999 1171 1001
f 1001 1171 1007
f 1007 1171 1005
f 1005 1171 1009
f 1171 1170 1009
f 1009 1170 1168
f 1009 1168 1011
f 1011 1168 1166
f 1011 1166 1013
f 1013 1166 1015
f 1163 1165 1164
f 1164 1165 1172
f 1164 1172 983
f 983 1172 986
f 1165 1167 1172
f 1172 1167 1173
f 1172 1173 986
f 986 1173 990
f 990 1173 995
f 995 1173 999
f 999 1173 1169
f 1169 1173 1167
f 704 1174 702
f 702 1174 1175
f 750 1176 748
f 748 1176 878
f 875 1174 704
f 653 1176 750
f 653 877 1176
f 1176 877 878
f 875 664 1174
f 664 876 1174
f 1174 876 1175
f 314 976 312
f 312 976 710
f 976 712 710
f 710 712 711
f 341 291 1093
f 1093 291 800
f 1093 800 799
f 799 798 1093
f 876 702 1175
f 703 704 702
f 750 748 749
f 569 747 745
f 569 745 570
f 570 745 743
f 570 743 739
f 739 737 570
f 570 737 735
f 570 735 572
f 572 735 868
f 868 735 729

