# https://github.com/mikedh/trimesh

o torso1.stl
v -0.10910600 0.00002188 -0.07891386
v -0.10855900 -0.01505249 -0.07886545
v -0.10854501 0.01509135 -0.07886648
v -0.10671290 0.02978068 -0.07870405
v -0.10673900 -0.02972644 -0.07870197
v -0.10331200 0.04365235 -0.07838225
v -0.10336201 -0.04354602 -0.07838028
v -0.09815509 0.05606801 -0.07784819
v -0.09824305 -0.05591368 -0.07784825
v -0.09126477 -0.06650954 -0.07703368
v -0.09113924 0.06667846 -0.07703059
v -0.08227643 -0.07509536 -0.07583097
v -0.08212165 0.07525268 -0.07582575
v -0.07172036 -0.08100532 -0.07419705
v -0.07157075 0.08112776 -0.07419306
v -0.06387650 -0.08339090 -0.07282686
v -0.06374371 0.08349246 -0.07282686
v -0.05979771 -0.08409798 -0.07206059
v -0.05965399 0.08419436 -0.07205849
v -0.04808002 -0.08436018 -0.06965726
v -0.04794561 0.08443666 -0.06965721
v -0.04606711 -0.08420360 -0.06921368
v -0.04593288 0.08427685 -0.06921362
v -0.04403662 -0.08403599 -0.06875699
v -0.04390275 0.08410596 -0.06875693
v -0.04214763 -0.08377302 -0.06802755
v -0.04201292 0.08383988 -0.06802649
v -0.04048800 -0.08338618 -0.06672620
v -0.04034131 0.08344668 -0.06671220
v -0.03924089 -0.08299839 -0.06488615
v -0.03910022 0.08305776 -0.06486713
v -0.03862756 -0.08271503 -0.06268769
v -0.03849571 0.08277647 -0.06268763
v -0.03830069 -0.08250117 -0.05866646
v -0.03816920 0.08256196 -0.05866444
v -0.03823268 -0.08246958 -0.05463040
v -0.03810119 0.08253038 -0.05463033
v -0.03852975 -0.06546920 -0.05013066
v -0.03851222 -0.04346925 -0.05013066
v -0.03854495 -0.04247170 -0.04986369
v -0.03864580 -0.04173779 -0.04913175
v -0.03880739 -0.04146903 -0.04813081
v -0.03886699 0.08253096 -0.04728889
v -0.04078781 -0.04146742 -0.04127949
v -0.04083985 0.08253246 -0.04092550
v -0.04397332 -0.04146492 -0.03563499
v -0.04387455 0.08253496 -0.03563493
v -0.03899836 -0.08246898 -0.04728895
v -0.03856402 -0.06646710 -0.04986369
v -0.03866648 -0.06720238 -0.04912877
v -0.03882807 -0.06746906 -0.04813081
v -0.04080849 -0.06746752 -0.04127949
v -0.04097121 -0.08246738 -0.04092556
v -0.04400599 -0.08246499 -0.03563499
v -0.04399400 -0.06746500 -0.03563499
v -0.14492799 0.00011020 -0.08571535
v -0.14210901 0.02839660 -0.08571320
v -0.14215200 -0.02817970 -0.08571320
v -0.13385402 0.05557888 -0.08570659
v -0.13393900 -0.05537318 -0.08570659
v -0.12041099 0.08065949 -0.08569599
v -0.12053601 -0.08047270 -0.08569599
v -0.10237600 0.10261400 -0.08568148
v -0.10253601 -0.10245291 -0.08568155
v -0.08033376 0.12065300 -0.08566409
v -0.08052469 -0.12052600 -0.08566409
v -0.05525708 0.13402902 -0.08564400
v -0.05547130 -0.13394091 -0.08564406
v -0.02825319 -0.14219798 -0.08562237
v -0.02802509 0.14224200 -0.08562237
v 0.00018362 0.14500003 -0.08559989
v -0.00004730 -0.14500003 -0.08559995
v 0.02838957 0.14219700 -0.08557741
v 0.02816140 -0.14224200 -0.08557748
v 0.05539333 -0.13402900 -0.08555579
v 0.05560749 0.13394091 -0.08555579
v 0.08066099 0.12052600 -0.08553582
v 0.08047008 -0.12065300 -0.08553588
v 0.10267300 0.10245301 -0.08551830
v 0.10251201 -0.10261400 -0.08551830
v 0.12067200 0.08047258 -0.08550392
v 0.12054689 -0.08065949 -0.08550399
v 0.13407500 0.05537318 -0.08549319
v 0.13399000 -0.05557888 -0.08549326
v 0.14228900 0.02817970 -0.08548671
v 0.14224599 -0.02839660 -0.08548671
v 0.14506391 -0.00011030 -0.08548450
v -0.05347713 -0.13380766 -0.08264245
v -0.02727302 -0.14154115 -0.08262266
v -0.04761409 -0.12139600 -0.08312988
v -0.07763588 -0.12130201 -0.08266180
v -0.07073073 -0.11289033 -0.08249891
v -0.08230901 -0.10538891 -0.08213747
v -0.07545901 -0.09893501 -0.08089811
v -0.06576466 -0.10659800 -0.08182430
v -0.06427299 -0.10467300 -0.08150208
v -0.04234755 -0.11017702 -0.08247768
v -0.06162828 -0.10123100 -0.08076209
v -0.03779458 -0.10046100 -0.08068508
v -0.05897390 -0.09775024 -0.07975590
v -0.05747306 -0.09578001 -0.07904071
v -0.06502449 -0.08820779 -0.07627880
v -0.05443018 -0.09181625 -0.07716327
v -0.05774223 -0.08579577 -0.07317698
v -0.05361860 -0.09077554 -0.07653868
v -0.05071722 -0.08719093 -0.07368220
v -0.03395569 -0.09260010 -0.07775199
v -0.03083091 -0.08694911 -0.07367957
v -0.01501536 -0.09418749 -0.07845097
v -0.01252985 -0.08768481 -0.07433390
v 0.00770605 -0.08824921 -0.07469588
v 0.00877947 -0.08519321 -0.07119500
v 0.03030288 -0.08764022 -0.07377785
v 0.03077495 -0.08402431 -0.06853747
v 0.05135738 -0.08395410 -0.06716406
v 0.05108958 -0.08273851 -0.06132930
v 0.07017236 -0.08268892 -0.06036406
v 0.06997772 -0.08255565 -0.05454415
v 0.07835788 -0.08175570 -0.06126660
v 0.07772195 -0.08165867 -0.05453807
v 0.08582615 -0.07879091 -0.05453157
v -0.02394402 -0.12728892 -0.08342409
v -0.02072280 -0.11439200 -0.08299648
v 0.00291091 -0.11735700 -0.08316166
v 0.00374579 -0.11078301 -0.08252495
v 0.02898085 -0.11431190 -0.08253891
v 0.02940547 -0.10315291 -0.08077860
v 0.05290573 -0.10036401 -0.07906490
v 0.05226570 -0.09266973 -0.07603229
v 0.07375448 -0.09354240 -0.07566726
v 0.07271546 -0.08975768 -0.07335305
v 0.08534777 -0.09289646 -0.07636696
v 0.08267176 -0.08671772 -0.07208520
v 0.09554971 -0.08605288 -0.07558786
v 0.09253138 -0.08118541 -0.07120728
v 0.10508600 -0.07716672 -0.07507127
v 0.10189702 -0.07329624 -0.07062780
v 0.11354300 -0.06660646 -0.07473158
v 0.11025801 -0.06349951 -0.07024717
v 0.12072499 -0.05473881 -0.07449990
v 0.11739702 -0.05222350 -0.06998849
v 0.12648501 -0.04188722 -0.07433527
v 0.12314590 -0.03984290 -0.06980496
v 0.13072400 -0.02833104 -0.07422387
v 0.12744400 -0.02658671 -0.06974847
v 0.13334100 -0.01432961 -0.07415587
v 0.12912101 -0.01984930 -0.06998717
v 0.13095801 -0.00677299 -0.07022279
v 0.12543400 -0.03273069 -0.06941515
v 0.11927499 -0.04598230 -0.06812006
v 0.11068350 -0.05806370 -0.06534366
v 0.10380600 -0.06678080 -0.06554025
v 0.09622185 -0.07403482 -0.06589639
v 0.08801436 -0.07961231 -0.06640785
v 0.07964718 -0.08319694 -0.06714350
v 0.07121920 -0.08483690 -0.06821829
v 0.07070195 -0.08355969 -0.06533968
v 0.05174952 -0.08711177 -0.07206577
v 0.10186500 -0.06717264 -0.06077378
v 0.10113800 -0.06784297 -0.06029438
v 0.09398496 -0.07407581 -0.06049906
v 0.08628529 -0.07880890 -0.06081825
v 0.07029426 -0.08283812 -0.06190097
v 0.09403729 -0.07378620 -0.05452507
v -0.01774638 -0.10322401 -0.08133809
v 0.00103951 -0.13377801 -0.08331710
v 0.00202423 -0.12487500 -0.08345432
v 0.02857261 -0.12719302 -0.08313918
v 0.05367028 -0.10986791 -0.08116316
v 0.07489670 -0.09778333 -0.07758836
v -0.00004903 -0.14417990 -0.08260101
v 0.02818149 -0.14138789 -0.08257849
v 0.05455952 -0.12085500 -0.08232648
v 0.07669639 -0.10443690 -0.07977187
v 0.07523566 -0.09904372 -0.07806807
v 0.08891588 -0.10077501 -0.07984621
v 0.05557371 -0.13299902 -0.08255666
v 0.07854260 -0.11109791 -0.08129847
v 0.07754480 -0.10752401 -0.08054621
v 0.10224400 -0.10143699 -0.08251959
v 0.09962779 -0.09216045 -0.07935565
v 0.11980190 -0.07980614 -0.08250261
v 0.10941601 -0.08189696 -0.07903076
v 0.08089089 -0.11923100 -0.08253551
v -0.10002201 -0.10351190 -0.08267957
v -0.09294289 -0.09672623 -0.08196800
v -0.10246101 -0.08675265 -0.08193761
v -0.09424889 -0.08283157 -0.08053808
v -0.10199801 -0.07264113 -0.08065022
v -0.09430141 -0.06996841 -0.07863205
v -0.10037600 -0.05922591 -0.07889889
v -0.08709055 -0.07928569 -0.07849037
v -0.07412075 -0.08263099 -0.07586097
v -0.02842062 -0.08379453 -0.06846660
v -0.01029026 -0.08403992 -0.06898719
v -0.02672451 -0.08263922 -0.06211315
v -0.00829595 -0.08268910 -0.06241059
v -0.00649673 -0.08249479 -0.05460506
v 0.01247769 -0.08250993 -0.05458998
v -0.00002405 -0.08249998 -0.05229997
v 0.01425498 -0.08251129 -0.05055564
v -0.01430583 -0.08248853 -0.05057835
v -0.01247179 -0.08249002 -0.05460989
v -0.02566903 -0.08247953 -0.05462038
v -0.02776396 -0.08247785 -0.04548805
v -0.03961515 -0.08246850 -0.03732347
v -0.04916931 -0.08246089 -0.02655905
v -0.05309516 -0.08245778 -0.02375620
v -0.05586993 -0.08245545 -0.01381945
v -0.05904865 -0.08245296 -0.01003098
v -0.05932670 -0.08245277 0.00015481
v -0.06033748 -0.08245199 0.01964592
v -0.05933827 -0.08245277 0.01455074
v -0.05590367 -0.08245545 0.02853041
v -0.06151187 -0.08245098 0.00472695
v -0.05559408 -0.08245575 0.03384071
v -0.04922336 -0.08246076 0.04128080
v -0.04756231 -0.08246219 0.04646909
v -0.03968626 -0.08246840 0.05206030
v -0.03671693 -0.08247077 0.05678468
v -0.02784818 -0.08247785 0.06024384
v -0.02370095 -0.08248120 0.06417512
v -0.01439809 -0.08248858 0.06535553
v -0.00928545 -0.08249258 0.06820261
v -0.00011912 -0.08249987 0.06709980
v 0.00567526 -0.08250452 0.06862753
v 0.01416260 -0.08251130 0.06537824
v 0.02029508 -0.08251619 0.06542712
v 0.02762079 -0.08252197 0.06028789
v 0.03370761 -0.08252687 0.05879080
v 0.03947198 -0.08253145 0.05212342
v 0.04511898 -0.08253598 0.04911291
v 0.04902619 -0.08253908 0.04135900
v 0.05385428 -0.08254289 0.03696680
v 0.05572670 -0.08254438 0.02861928
v 0.05918354 -0.08254719 0.01464509
v 0.05939733 -0.08254730 0.02307420
v 0.06486660 -0.08255165 0.00368255
v 0.06994366 -0.08255565 -0.01176124
v 0.07340085 -0.08237767 -0.02084249
v 0.07729697 -0.08174729 -0.02973836
v 0.08186155 -0.08043168 -0.03846377
v 0.08736706 -0.07800680 -0.04688739
v 0.05919510 -0.08254718 0.00024919
v 0.05576050 -0.08254439 -0.01373058
v 0.05079740 -0.08254046 -0.05455946
v 0.04908019 -0.08253908 -0.02648085
v 0.04071707 -0.08253240 -0.05456745
v 0.03954314 -0.08253145 -0.03726047
v 0.03162139 -0.08252519 -0.05457479
v 0.02770495 -0.08252209 -0.04544389
v 0.01119863 -0.08262038 -0.06113106
v 0.03126305 -0.08270519 -0.06213605
v 0.00996685 -0.08335006 -0.06663210
v -0.08538389 -0.09161603 -0.08059698
v -0.07881988 -0.08704389 -0.07856780
v -0.06953908 -0.09320725 -0.07895427
v -0.11844902 -0.08162100 -0.08269429
v -0.11079100 -0.07556188 -0.08200520
v -0.11784000 -0.06329709 -0.08212876
v -0.10853989 -0.06118351 -0.08086150
v -0.11379300 -0.04867291 -0.08110660
v -0.10522901 -0.04729539 -0.07920980
v -0.10884400 -0.03443211 -0.07950770
v -0.13233900 -0.05620050 -0.08270436
v -0.12352800 -0.05014264 -0.08227139
v -0.12781900 -0.03629028 -0.08240778
v -0.11773200 -0.03533613 -0.08133965
v -0.12034401 -0.02140241 -0.08152186
v -0.11122601 -0.02089422 -0.07973855
v -0.11239700 -0.00695002 -0.07986849
v -0.14088200 -0.02845489 -0.08271117
v -0.13068300 -0.02193409 -0.08251309
v -0.13210990 -0.00727469 -0.08257216
v -0.12163701 -0.00710922 -0.08162386
v -0.12162500 0.00730300 -0.08162386
v -0.11238600 0.00712901 -0.07986849
v -0.11119302 0.02107137 -0.07973855
v -0.14371499 0.00009801 -0.08271348
v -0.13209800 0.00748509 -0.08257217
v -0.13064800 0.02214229 -0.08251308
v -0.12030999 0.02159404 -0.08152186
v -0.11767600 0.03552359 -0.08133965
v -0.10878900 0.03460550 -0.07950770
v -0.10515301 0.04746299 -0.07920980
v -0.14084400 0.02864229 -0.08271116
v -0.12776101 0.03649389 -0.08240777
v -0.12344800 0.05033928 -0.08227132
v -0.11371601 0.04885416 -0.08110660
v -0.10844301 0.06135636 -0.08086144
v -0.10028200 0.05938577 -0.07889884
v -0.09418977 0.07011848 -0.07863200
v -0.08696419 0.07942427 -0.07849030
v -0.10188201 0.07280349 -0.08065022
v -0.09411685 0.08298157 -0.08053803
v -0.11067000 0.07573831 -0.08200520
v -0.10232300 0.08691579 -0.08193761
v -0.11834101 0.08177782 -0.08269429
v -0.09278869 0.09687416 -0.08196794
v -0.09986567 0.10366298 -0.08267951
v -0.08214099 0.10552000 -0.08213739
v -0.07052835 0.11297460 -0.08249703
v -0.06559479 0.10670200 -0.08182430
v -0.04739779 0.12147899 -0.08313083
v -0.06410616 0.10477500 -0.08150202
v -0.04215109 0.11025099 -0.08247870
v -0.06146699 0.10132900 -0.08076202
v -0.05881816 0.09784405 -0.07975590
v -0.07530140 0.09905518 -0.08089804
v -0.06939059 0.09331787 -0.07895422
v -0.08523787 0.09175199 -0.08059698
v -0.07868117 0.08716928 -0.07856780
v -0.13226692 0.05637007 -0.08270431
v -0.11773900 0.06348466 -0.08212876
v -0.06147855 -0.04145103 0.00471300
v -0.05901139 -0.04145300 -0.01004594
v -0.06030738 -0.04145199 0.01963388
v -0.05962021 -0.04145240 0.01110047
v -0.05682617 -0.04145479 0.02580773
v -0.05556619 -0.04145580 0.03383070
v -0.05046212 -0.04145980 0.03935569
v -0.04753531 -0.04146218 0.04646211
v -0.04092931 -0.04146736 0.05089433
v -0.03669035 -0.04147076 0.05678069
v -0.02882868 -0.04147708 0.05969804
v -0.02367365 -0.04148119 0.06417316
v -0.01492249 -0.04148806 0.06521415
v -0.00925714 -0.04149259 0.06820160
v -0.00008648 -0.04149985 0.06709986
v 0.00570494 -0.04150455 0.06862759
v 0.01490151 -0.04151189 0.06519985
v 0.02032583 -0.04151618 0.06542819
v 0.02893996 -0.04152310 0.05959309
v 0.03373932 -0.04152685 0.05879080
v 0.04112392 -0.04153275 0.05063569
v 0.04515135 -0.04153597 0.04911291
v 0.05066859 -0.04154038 0.03890234
v 0.05388689 -0.04154288 0.03696686
v 0.05695885 -0.04154539 0.02514630
v 0.05943006 -0.04154724 0.02307420
v 0.05959051 -0.04154741 0.01025539
v 0.06362706 -0.04155063 0.00794357
v 0.06798118 -0.04155409 -0.00599283
v 0.05839830 -0.04154646 -0.00481045
v 0.05346518 -0.04154253 -0.01908338
v 0.05291980 -0.04158926 -0.02015787
v 0.05222058 -0.04177933 -0.02145829
v 0.06833637 -0.04183435 -0.00704658
v 0.05132826 -0.04221913 -0.02301844
v 0.06858938 -0.04257881 -0.00779438
v 0.05067098 -0.04282307 -0.02410262
v 0.05039280 -0.04354006 -0.02454584
v 0.06867796 -0.04355466 -0.00805628
v 0.06866049 -0.06555468 -0.00805628
v 0.05044108 -0.06579828 -0.02444130
v 0.05094063 -0.06657766 -0.02363283
v 0.06856918 -0.06653636 -0.00779033
v 0.05173842 -0.06710903 -0.02228037
v 0.06831408 -0.06727790 -0.00703955
v 0.05237841 -0.06736999 -0.02113628
v 0.05288547 -0.06749260 -0.02018487
v 0.05344456 -0.06754255 -0.01908338
v 0.06796050 -0.06755405 -0.00599283
v 0.06360639 -0.06755065 0.00794357
v 0.05837768 -0.06754648 -0.00481045
v 0.05956989 -0.06754750 0.01025539
v 0.05940932 -0.06754727 0.02307420
v 0.05693818 -0.06754535 0.02514630
v 0.05386608 -0.06754291 0.03696686
v 0.05064797 -0.06754040 0.03890234
v 0.04513068 -0.06753600 0.04911291
v 0.04110330 -0.06753277 0.05063569
v 0.03371870 -0.06752687 0.05879080
v 0.02891921 -0.06752300 0.05959309
v 0.02030509 -0.06751620 0.06542813
v 0.01488083 -0.06751185 0.06519985
v 0.00568414 -0.06750446 0.06862753
v -0.00010718 -0.06749987 0.06709980
v -0.00927788 -0.06749260 0.06820160
v -0.01494330 -0.06748807 0.06521409
v -0.02369439 -0.06748116 0.06417316
v -0.02884936 -0.06747698 0.05969804
v -0.03671103 -0.06747078 0.05678069
v -0.04095000 -0.06746739 0.05089433
v -0.04755598 -0.06746220 0.04646211
v -0.05048280 -0.06745976 0.03935569
v -0.05558687 -0.06745576 0.03383070
v -0.05684679 -0.06745475 0.02580773
v -0.05964088 -0.06745249 0.01110041
v -0.06032800 -0.06745195 0.01963388
v -0.06149923 -0.06745105 0.00471300
v -0.05903227 -0.06745297 -0.01004594
v -0.05868893 -0.06745326 -0.00383770
v -0.05405139 -0.06745697 -0.01806896
v -0.05307406 -0.06745779 -0.02377128
v -0.04602259 -0.06746339 -0.03069657
v -0.03511339 -0.06747210 -0.04092484
v -0.02201169 -0.06748247 -0.04811745
v -0.02086889 -0.06743478 -0.04855555
v -0.01946377 -0.06724066 -0.04905646
v -0.01778196 -0.06680597 -0.04960742
v -0.01656886 -0.06619859 -0.04997062
v -0.01606965 -0.06548714 -0.05011278
v -0.01616401 -0.04326324 -0.05008126
v -0.01724970 -0.04237386 -0.04976411
v -0.01852637 -0.04192441 -0.04936576
v -0.01951837 -0.04170721 -0.04903256
v -0.02066308 -0.04154878 -0.04862439
v -0.02199107 -0.04148238 -0.04811745
v -0.03509265 -0.04147201 -0.04092484
v -0.04600186 -0.04146331 -0.03069657
v -0.05305331 -0.04145777 -0.02377128
v -0.05403071 -0.04145693 -0.01806896
v -0.05866819 -0.04145330 -0.00383770
v -0.05296385 0.08254218 -0.02375614
v -0.05891728 0.08254687 -0.01003092
v -0.06138050 0.08254884 0.00472802
v -0.06020593 0.08254796 0.01964700
v -0.05546230 0.08254420 0.03384178
v -0.04742938 0.08253778 0.04647105
v -0.03658330 0.08252912 0.05678677
v -0.02356666 0.08251869 0.06417620
v -0.00915056 0.08250725 0.06820267
v 0.00581062 0.08249540 0.06862759
v 0.02043008 0.08248370 0.06542618
v 0.03384208 0.08247302 0.05878889
v 0.04525256 0.08246397 0.04910999
v 0.05398661 0.08245700 0.03696489
v 0.05952870 0.08245260 0.02307426
v 0.06499797 0.08244830 0.00368261
v 0.07007509 0.08244419 -0.01176118
v 0.07356590 0.08225697 -0.02092641
v 0.07750278 0.08160716 -0.02989733
v 0.08208620 0.08026646 -0.03863161
v 0.08756649 0.07782769 -0.04698818
v 0.09415448 0.07363660 -0.05452501
v 0.10124590 0.06768178 -0.06029438
v 0.10196900 0.06701338 -0.06077182
v 0.11078946 0.05787083 -0.06534924
v 0.11934301 0.04579986 -0.06811898
v 0.12548302 0.03254026 -0.06941516
v 0.12748700 0.02638310 -0.06974847
v 0.12915100 0.01965016 -0.06998717
v 0.13096800 0.00657147 -0.07022279
v 0.08595126 0.07865417 -0.05453151
v 0.07785177 0.08153486 -0.05453801
v 0.07010906 0.08244419 -0.05454410
v 0.05094760 0.08245949 -0.05455941
v 0.05932642 0.08245277 0.00024920
v 0.05931490 0.08245277 0.01464515
v 0.05585819 0.08245545 0.02861934
v 0.04915751 0.08246089 0.04135906
v 0.03960335 0.08246845 0.05212348
v 0.02775216 0.08247780 0.06028795
v 0.01429402 0.08248853 0.06537830
v 0.00001226 0.08249998 0.06709986
v -0.01426672 0.08251130 0.06535559
v -0.02771675 0.08252202 0.06024390
v -0.03955495 0.08253145 0.05206036
v -0.04909199 0.08253908 0.04128086
v -0.05577230 0.08254438 0.02853047
v -0.05920691 0.08254719 0.01455080
v -0.05919533 0.08254718 0.00015483
v -0.05573850 0.08254437 -0.01381939
v -0.04903799 0.08253908 -0.02655899
v -0.03948372 0.08253145 -0.03732341
v -0.02763259 0.08252198 -0.04548799
v -0.02551829 0.08252036 -0.05462032
v -0.02657449 0.08268178 -0.06211424
v -0.00814563 0.08270227 -0.06241149
v -0.01013773 0.08405637 -0.06898719
v 0.01009953 0.08333408 -0.06663210
v 0.00891513 0.08517919 -0.07119494
v 0.03079473 0.08472465 -0.07015150
v 0.03027129 0.09003407 -0.07566792
v 0.05161161 0.08453649 -0.06865793
v 0.05211849 0.08912732 -0.07387758
v 0.07161086 0.08547056 -0.06934201
v 0.07260197 0.08873957 -0.07266920
v 0.07977938 0.08307015 -0.06714344
v 0.07285827 0.08964180 -0.07335305
v 0.08280986 0.08658587 -0.07208520
v 0.07390338 0.09342485 -0.07566726
v 0.07505226 0.09766399 -0.07758831
v 0.05279237 0.09673905 -0.07787704
v 0.07539337 0.09892386 -0.07806801
v 0.05363285 0.10689601 -0.08065635
v 0.07686257 0.10431500 -0.07977181
v 0.07771586 0.10740001 -0.08054620
v 0.08549559 0.09276050 -0.07636696
v 0.08907628 0.10063300 -0.07984621
v 0.09568666 0.08590066 -0.07558779
v 0.09977437 0.09200167 -0.07935560
v 0.10520901 0.07699935 -0.07507120
v 0.10954599 0.08172254 -0.07903075
v 0.11364789 0.06642557 -0.07473152
v 0.11812400 0.07005786 -0.07881498
v 0.12081189 0.05454659 -0.07449984
v 0.12534501 0.05728507 -0.07866822
v 0.12655100 0.04168576 -0.07433527
v 0.13109089 0.04365795 -0.07856369
v 0.13076900 0.02812290 -0.07422388
v 0.13527890 0.02940565 -0.07849227
v 0.13336299 0.01411730 -0.07415586
v 0.13783289 0.01474815 -0.07845027
v 0.13424191 -0.00010689 -0.07413309
v 0.13869099 -0.00011043 -0.07843560
v 0.13781001 -0.01496750 -0.07845027
v 0.13523200 -0.02962100 -0.07849228
v 0.13102201 -0.04386663 -0.07856369
v 0.12525401 -0.05748462 -0.07866829
v 0.11801200 -0.07024586 -0.07881498
v 0.13301502 -0.05489671 -0.08249706
v 0.14113301 -0.02785420 -0.08248669
v 0.14384702 -0.00009476 -0.08248347
v 0.14116791 0.02767330 -0.08248668
v 0.13308200 0.05473297 -0.08249706
v 0.11990401 0.07965369 -0.08250261
v 0.10239401 0.10128501 -0.08251959
v 0.08108068 0.11910200 -0.08253544
v 0.07871949 0.11097200 -0.08129847
v 0.05463933 0.11911300 -0.08221656
v 0.05581188 0.13289990 -0.08255660
v 0.02843457 0.14133699 -0.08257849
v 0.02885591 0.12521300 -0.08312410
v 0.00125253 0.13377599 -0.08331710
v 0.00222307 0.12487100 -0.08345432
v -0.02371680 0.12733100 -0.08342398
v -0.02051818 0.11442601 -0.08299630
v -0.03761500 0.10052501 -0.08068609
v -0.05732047 0.09587150 -0.07904064
v -0.05428391 0.09190285 -0.07716321
v -0.06488239 0.08831197 -0.07627874
v -0.05347388 0.09086090 -0.07653868
v -0.05055322 0.08724192 -0.07365181
v -0.03378957 0.09265607 -0.07775294
v -0.03067433 0.08699899 -0.07368046
v -0.02826917 0.08383995 -0.06846749
v -0.07398641 0.08275108 -0.07586091
v -0.02698865 0.14159550 -0.08262255
v -0.05320393 0.13391754 -0.08264235
v 0.00018058 0.14417990 -0.08260101
v 0.02930224 0.11088100 -0.08215374
v 0.02977395 0.09895129 -0.07966840
v 0.09266077 0.08103775 -0.07120722
v 0.10201500 0.07313370 -0.07062774
v 0.11035900 0.06332349 -0.07024717
v 0.11747999 0.05203604 -0.06998842
v 0.12320890 0.03964614 -0.06980496
v -0.01417446 0.08251131 -0.05057829
v -0.01234030 0.08250988 -0.05460983
v -0.00634611 0.08250511 -0.05460500
v 0.01133018 0.08260250 -0.06113100
v 0.01260918 0.08248996 -0.05458992
v 0.03134447 0.08274699 -0.06312109
v 0.03177213 0.08247470 -0.05457472
v 0.05127149 0.08274668 -0.06221812
v 0.04084837 0.08246749 -0.05456739
v 0.04921155 0.08246075 -0.02648079
v 0.05589187 0.08245546 -0.01373052
v 0.03967458 0.08246840 -0.03726041
v 0.02783638 0.08247785 -0.04544383
v 0.01438629 0.08248859 -0.05055558
v 0.00010734 0.08249986 -0.05229991
v 0.07083499 0.08344698 -0.06533962
v 0.07135421 0.08472347 -0.06821829
v 0.07848787 0.08163088 -0.06126655
v 0.08641046 0.07867144 -0.06081819
v 0.08814060 0.07947230 -0.06640779
v 0.09410256 0.07392638 -0.06050014
v 0.09633899 0.07388211 -0.06589639
v 0.07042610 0.08272618 -0.06190091
v 0.07030397 0.08257710 -0.06036400
v 0.10391100 0.06661635 -0.06554019
v 0.00689507 0.09217095 -0.07732050
v 0.00589025 0.09746158 -0.07958835
v -0.01484560 0.09421234 -0.07845091
v -0.01756113 0.10325301 -0.08133805
v 0.00392222 0.11077701 -0.08252490
v 0.00309783 0.11735301 -0.08316166
v -0.01237136 0.08770495 -0.07433384
v 0.00784653 0.08823686 -0.07469582
v 0.00480610 0.10435000 -0.08145231
v -0.07744258 0.12142600 -0.08266174
v -0.05760550 0.08588768 -0.07317698
v 0.00573498 -0.09747081 -0.07958835
v 0.00674832 -0.09218186 -0.07732057
v 0.02984625 -0.09412689 -0.07785819
v 0.00463992 -0.10435800 -0.08145231
v 0.07246059 -0.08885502 -0.07266926
v 0.07147467 -0.08558446 -0.06934207
v 0.00018209 0.14458400 -0.08409500
v -0.00004817 -0.14458400 -0.08409500
f 1 2 3
f 3 2 4
f 2 5 4
f 4 5 6
f 5 7 6
f 6 7 8
f 7 9 8
f 8 9 10
f 8 10 11
f 11 10 12
f 11 12 13
f 13 12 14
f 13 14 15
f 15 14 16
f 15 16 17
f 17 16 18
f 17 18 19
f 19 18 20
f 19 20 21
f 21 20 22
f 21 22 23
f 23 22 24
f 23 24 25
f 25 24 26
f 25 26 27
f 27 26 28
f 27 28 29
f 29 28 30
f 29 30 31
f 31 30 32
f 31 32 33
f 33 32 34
f 33 34 35
f 35 34 36
f 35 36 37
f 37 36 38
f 37 38 39
f 39 40 37
f 37 40 41
f 37 41 42
f 37 42 43
f 43 42 44
f 43 44 45
f 45 44 46
f 45 46 47
f 36 48 38
f 38 48 49
f 49 48 50
f 50 48 51
f 51 48 52
f 52 48 53
f 52 53 54
f 55 52 54
f 56 57 58
f 58 57 59
f 58 59 60
f 60 59 61
f 60 61 62
f 62 61 63
f 62 63 64
f 64 63 65
f 64 65 66
f 66 65 67
f 66 67 68
f 68 67 69
f 67 70 69
f 69 70 71
f 69 71 72
f 72 71 73
f 72 73 74
f 74 73 75
f 73 76 75
f 75 76 77
f 75 77 78
f 78 77 79
f 78 79 80
f 80 79 81
f 80 81 82
f 82 81 83
f 82 83 84
f 84 83 85
f 84 85 86
f 86 85 87
f 88 89 90
f 88 90 91
f 91 90 92
f 91 92 93
f 93 92 94
f 94 92 95
f 94 95 96
f 96 95 97
f 96 97 98
f 98 97 99
f 98 99 100
f 100 99 101
f 100 101 102
f 102 101 103
f 102 103 104
f 104 103 105
f 104 105 106
f 106 105 107
f 106 107 108
f 108 107 109
f 108 109 110
f 110 109 111
f 110 111 112
f 112 111 113
f 112 113 114
f 114 113 115
f 114 115 116
f 116 115 117
f 116 117 118
f 118 117 119
f 118 119 120
f 120 119 121
f 105 103 107
f 107 103 101
f 107 101 99
f 92 90 95
f 95 90 97
f 97 90 122
f 97 122 123
f 123 122 124
f 123 124 125
f 125 124 126
f 125 126 127
f 127 126 128
f 127 128 129
f 129 128 130
f 129 130 131
f 131 130 132
f 131 132 133
f 133 132 134
f 133 134 135
f 135 134 136
f 135 136 137
f 137 136 138
f 137 138 139
f 139 138 140
f 139 140 141
f 141 140 142
f 141 142 143
f 143 142 144
f 143 144 145
f 145 144 146
f 145 146 147
f 147 146 148
f 145 149 143
f 143 149 150
f 143 150 141
f 141 150 151
f 141 151 139
f 139 151 152
f 139 152 137
f 137 152 153
f 137 153 135
f 135 153 154
f 135 154 133
f 133 154 155
f 133 155 156
f 156 155 157
f 156 157 158
f 158 157 115
f 158 115 113
f 151 159 152
f 152 159 160
f 152 160 153
f 153 160 161
f 153 161 154
f 154 161 162
f 154 162 155
f 155 162 119
f 155 119 163
f 163 119 117
f 163 117 115
f 115 157 163
f 163 157 155
f 119 162 121
f 121 162 161
f 121 161 164
f 164 161 160
f 97 123 99
f 99 123 165
f 99 165 107
f 107 165 109
f 90 89 122
f 122 89 166
f 122 166 167
f 167 166 168
f 167 168 126
f 126 168 169
f 126 169 128
f 128 169 170
f 128 170 130
f 130 170 132
f 126 124 167
f 167 124 122
f 166 89 171
f 166 171 172
f 166 172 168
f 168 172 173
f 168 173 169
f 169 173 174
f 169 174 175
f 175 174 176
f 175 176 170
f 170 176 132
f 170 169 175
f 172 177 173
f 173 177 178
f 173 178 179
f 179 178 180
f 179 180 176
f 176 180 181
f 176 181 132
f 132 181 134
f 180 182 181
f 181 182 183
f 181 183 134
f 134 183 136
f 176 174 179
f 179 174 173
f 180 178 184
f 184 178 177
f 91 93 185
f 185 93 186
f 185 186 187
f 187 186 188
f 187 188 189
f 189 188 190
f 189 190 191
f 191 190 10
f 191 10 9
f 10 190 12
f 12 190 192
f 12 192 193
f 12 193 14
f 14 193 102
f 14 102 16
f 16 102 104
f 16 104 18
f 18 104 106
f 106 108 20
f 20 108 194
f 20 194 22
f 22 194 24
f 20 18 106
f 24 194 26
f 26 194 28
f 108 110 194
f 194 110 195
f 194 195 196
f 196 195 197
f 196 197 198
f 198 197 199
f 198 199 200
f 200 199 201
f 200 202 198
f 198 202 203
f 198 203 196
f 196 203 204
f 196 204 34
f 34 204 36
f 34 32 196
f 196 32 30
f 196 30 28
f 28 194 196
f 203 202 204
f 204 202 205
f 204 205 36
f 36 205 206
f 36 206 48
f 48 206 53
f 206 207 53
f 53 207 54
f 54 207 208
f 208 207 209
f 208 209 210
f 210 209 211
f 210 211 212
f 212 211 213
f 212 213 214
f 215 210 212
f 212 214 216
f 216 214 217
f 216 217 218
f 218 217 219
f 218 219 220
f 220 219 221
f 220 221 222
f 222 221 223
f 222 223 224
f 224 223 225
f 224 225 226
f 226 225 227
f 226 227 228
f 228 227 229
f 228 229 230
f 230 229 231
f 230 231 232
f 232 231 233
f 232 233 234
f 234 233 235
f 234 235 236
f 234 236 237
f 237 236 118
f 237 118 238
f 238 118 239
f 118 120 239
f 239 120 240
f 240 120 241
f 241 120 242
f 120 121 242
f 242 121 243
f 243 121 164
f 236 244 118
f 118 244 245
f 118 245 246
f 246 245 247
f 246 247 248
f 248 247 249
f 248 249 250
f 250 249 251
f 250 251 201
f 201 199 250
f 250 199 252
f 250 252 253
f 253 252 254
f 253 254 114
f 114 254 112
f 114 116 253
f 253 116 246
f 253 246 248
f 250 253 248
f 246 116 118
f 199 197 252
f 252 197 254
f 197 195 254
f 254 195 112
f 195 110 112
f 190 188 192
f 192 188 255
f 192 255 256
f 256 255 94
f 256 94 257
f 257 94 96
f 257 96 98
f 98 100 257
f 257 100 102
f 257 102 256
f 256 102 193
f 256 193 192
f 94 255 93
f 93 255 186
f 186 255 188
f 185 187 258
f 258 187 259
f 258 259 260
f 260 259 261
f 260 261 262
f 262 261 263
f 262 263 264
f 264 263 7
f 264 7 5
f 7 263 9
f 9 263 191
f 263 261 191
f 191 261 189
f 261 259 189
f 189 259 187
f 258 260 265
f 265 260 266
f 265 266 267
f 267 266 268
f 267 268 269
f 269 268 270
f 269 270 271
f 271 270 2
f 271 2 1
f 2 270 5
f 5 270 264
f 270 268 264
f 264 268 262
f 268 266 262
f 262 266 260
f 265 267 272
f 272 267 273
f 272 273 274
f 274 273 275
f 274 275 276
f 276 275 277
f 276 277 278
f 278 277 3
f 278 3 4
f 3 277 1
f 1 277 271
f 277 275 271
f 271 275 269
f 275 273 269
f 269 273 267
f 272 274 279
f 279 274 280
f 279 280 281
f 281 280 282
f 281 282 283
f 283 282 284
f 283 284 285
f 285 284 6
f 285 6 8
f 6 284 4
f 4 284 278
f 284 282 278
f 278 282 276
f 282 280 276
f 276 280 274
f 279 281 286
f 286 281 287
f 286 287 288
f 288 287 289
f 288 289 290
f 290 289 291
f 290 291 292
f 292 291 11
f 292 11 13
f 292 13 293
f 292 293 294
f 294 293 295
f 294 295 296
f 296 295 297
f 296 297 298
f 298 297 299
f 298 299 300
f 300 299 301
f 300 301 302
f 302 301 303
f 302 303 304
f 304 303 305
f 304 305 306
f 306 305 307
f 306 307 308
f 308 307 309
f 308 309 310
f 310 309 311
f 310 311 312
f 312 311 295
f 312 295 293
f 295 311 297
f 297 311 299
f 311 309 299
f 299 309 301
f 307 305 309
f 309 305 301
f 301 305 303
f 298 313 296
f 296 313 314
f 296 314 294
f 294 314 290
f 294 290 292
f 290 314 288
f 288 314 313
f 288 313 286
f 11 291 8
f 8 291 285
f 291 289 285
f 285 289 283
f 289 287 283
f 283 287 281
f 315 316 317
f 317 316 318
f 317 318 319
f 317 319 320
f 320 319 321
f 320 321 322
f 322 321 323
f 322 323 324
f 324 323 325
f 324 325 326
f 326 325 327
f 326 327 328
f 328 327 329
f 328 329 330
f 330 329 331
f 330 331 332
f 332 331 333
f 332 333 334
f 334 333 335
f 334 335 336
f 336 335 337
f 336 337 338
f 338 337 339
f 338 339 340
f 340 339 341
f 340 341 342
f 342 341 343
f 341 344 343
f 343 344 345
f 343 345 346
f 346 347 343
f 343 347 348
f 348 347 349
f 348 349 350
f 350 349 351
f 351 352 350
f 350 352 353
f 353 352 354
f 354 352 355
f 355 356 354
f 354 356 357
f 357 356 358
f 357 358 359
f 359 358 360
f 359 360 361
f 361 362 359
f 359 362 363
f 363 362 364
f 364 362 365
f 364 365 366
f 364 366 367
f 367 366 368
f 367 368 369
f 369 368 370
f 369 370 371
f 371 370 372
f 371 372 373
f 373 372 374
f 373 374 375
f 375 374 376
f 375 376 377
f 377 376 378
f 377 378 379
f 379 378 380
f 379 380 381
f 381 380 382
f 381 382 383
f 383 382 384
f 383 384 385
f 385 384 386
f 385 386 387
f 387 386 388
f 387 388 389
f 387 389 390
f 390 389 391
f 391 389 392
f 392 389 393
f 392 393 394
f 392 394 395
f 395 394 396
f 395 396 55
f 55 396 397
f 55 397 52
f 52 397 51
f 397 398 51
f 51 398 399
f 51 399 400
f 51 400 50
f 50 400 401
f 50 401 49
f 401 402 49
f 49 402 403
f 49 403 38
f 38 403 39
f 403 404 39
f 39 404 405
f 39 405 40
f 40 405 406
f 40 406 41
f 41 406 407
f 41 407 408
f 408 409 41
f 41 409 42
f 409 410 42
f 42 410 44
f 410 411 44
f 44 411 46
f 46 411 412
f 412 411 413
f 412 413 414
f 412 414 316
f 316 414 318
f 46 412 47
f 47 412 415
f 412 316 415
f 415 316 416
f 316 315 416
f 416 315 417
f 315 317 417
f 417 317 418
f 317 320 418
f 418 320 419
f 320 322 419
f 419 322 420
f 322 324 420
f 420 324 421
f 324 326 421
f 421 326 422
f 326 328 422
f 422 328 423
f 328 330 423
f 423 330 424
f 330 332 424
f 424 332 425
f 332 334 425
f 425 334 426
f 334 336 426
f 426 336 427
f 336 338 427
f 427 338 428
f 338 340 428
f 428 340 429
f 340 342 429
f 429 342 430
f 342 343 430
f 430 343 348
f 430 348 350
f 350 353 430
f 430 353 239
f 430 239 431
f 431 239 240
f 431 240 432
f 432 240 241
f 432 241 433
f 433 241 242
f 433 242 434
f 434 242 243
f 434 243 435
f 435 243 164
f 435 164 436
f 436 164 437
f 164 160 437
f 437 160 438
f 160 159 438
f 438 159 439
f 159 151 439
f 439 151 440
f 151 150 440
f 440 150 441
f 150 149 441
f 441 149 145
f 441 145 442
f 442 145 147
f 442 147 443
f 443 147 444
f 444 147 148
f 353 354 239
f 239 354 357
f 239 357 359
f 359 363 239
f 239 363 238
f 363 364 238
f 238 364 367
f 238 367 237
f 237 367 369
f 237 369 234
f 234 369 371
f 234 371 232
f 232 371 230
f 371 373 230
f 230 373 228
f 373 375 228
f 228 375 226
f 375 377 226
f 226 377 224
f 377 379 224
f 224 379 222
f 379 381 222
f 222 381 220
f 381 383 220
f 220 383 218
f 383 385 218
f 218 385 216
f 385 387 216
f 216 387 212
f 387 390 212
f 212 390 215
f 390 391 215
f 215 391 210
f 391 392 210
f 210 392 208
f 392 395 208
f 208 395 55
f 208 55 54
f 436 445 435
f 435 445 434
f 445 446 434
f 434 446 433
f 446 447 433
f 433 447 432
f 432 447 431
f 431 447 448
f 431 448 430
f 430 448 449
f 430 449 429
f 429 449 450
f 429 450 451
f 429 451 428
f 428 451 452
f 428 452 427
f 427 452 453
f 427 453 426
f 426 453 454
f 426 454 425
f 425 454 455
f 425 455 424
f 424 455 456
f 424 456 423
f 423 456 457
f 423 457 422
f 422 457 458
f 422 458 421
f 421 458 459
f 421 459 420
f 420 459 460
f 420 460 419
f 419 460 461
f 419 461 462
f 419 462 418
f 418 462 417
f 462 463 417
f 417 463 416
f 463 464 416
f 416 464 415
f 464 465 415
f 415 465 47
f 465 466 47
f 47 466 45
f 45 466 43
f 43 466 467
f 43 467 37
f 37 467 468
f 37 468 469
f 469 468 470
f 469 470 471
f 471 470 472
f 471 472 473
f 473 472 474
f 473 474 475
f 475 474 476
f 475 476 477
f 477 476 478
f 477 478 479
f 479 478 480
f 479 480 481
f 481 480 482
f 481 482 483
f 483 482 484
f 483 484 485
f 485 484 486
f 485 486 487
f 487 486 488
f 487 488 489
f 489 488 490
f 489 490 491
f 491 490 492
f 491 492 493
f 493 492 494
f 493 494 495
f 495 494 496
f 495 496 497
f 497 496 498
f 497 498 499
f 499 498 500
f 499 500 501
f 501 500 502
f 501 502 503
f 503 502 504
f 503 504 505
f 505 504 506
f 505 506 507
f 507 506 146
f 507 146 508
f 508 146 144
f 508 144 509
f 509 144 142
f 509 142 510
f 510 142 140
f 510 140 511
f 511 140 138
f 511 138 512
f 512 138 136
f 512 136 183
f 183 182 512
f 512 182 513
f 512 513 511
f 511 513 510
f 513 514 510
f 510 514 509
f 509 514 508
f 508 514 515
f 508 515 507
f 507 515 505
f 515 516 505
f 505 516 503
f 516 517 503
f 503 517 501
f 501 517 499
f 499 517 518
f 499 518 497
f 497 518 495
f 518 519 495
f 495 519 493
f 493 519 491
f 491 519 520
f 491 520 521
f 521 520 522
f 521 522 489
f 489 522 487
f 489 491 521
f 520 523 522
f 522 523 524
f 522 524 525
f 525 524 526
f 525 526 527
f 527 526 528
f 527 528 529
f 529 528 306
f 529 306 530
f 530 306 308
f 530 308 531
f 531 308 310
f 531 310 532
f 532 310 533
f 532 533 534
f 534 533 535
f 534 535 536
f 536 535 537
f 537 535 21
f 537 21 23
f 23 25 537
f 537 25 27
f 537 27 538
f 538 27 29
f 538 29 31
f 31 33 538
f 538 33 469
f 538 469 471
f 33 35 469
f 469 35 37
f 310 312 533
f 533 312 539
f 533 539 17
f 17 539 15
f 15 539 13
f 13 539 293
f 293 539 312
f 531 532 530
f 530 532 534
f 530 534 536
f 306 528 304
f 304 528 540
f 304 540 541
f 304 541 302
f 540 528 526
f 540 526 542
f 542 526 524
f 522 525 487
f 487 525 543
f 487 543 485
f 485 543 544
f 485 544 477
f 477 544 475
f 146 506 148
f 148 506 444
f 506 504 444
f 444 504 443
f 504 502 443
f 443 502 442
f 488 486 490
f 490 486 484
f 490 484 482
f 490 482 492
f 492 482 545
f 492 545 494
f 494 545 546
f 494 546 496
f 496 546 547
f 496 547 498
f 498 547 548
f 498 548 500
f 500 548 549
f 500 549 502
f 502 549 442
f 442 549 441
f 441 549 440
f 549 548 440
f 440 548 439
f 548 547 439
f 483 485 481
f 481 485 477
f 481 477 479
f 467 550 468
f 468 550 551
f 468 551 470
f 470 551 552
f 470 552 553
f 553 552 554
f 553 554 555
f 555 554 556
f 555 556 557
f 557 556 558
f 557 558 448
f 448 558 559
f 448 559 560
f 449 448 560
f 559 558 561
f 561 558 556
f 561 556 562
f 562 556 554
f 562 554 563
f 563 554 564
f 554 552 564
f 564 552 551
f 564 551 550
f 470 553 472
f 472 553 555
f 472 555 474
f 474 555 557
f 474 557 476
f 476 557 565
f 476 565 566
f 566 565 567
f 566 567 480
f 480 567 568
f 480 568 569
f 569 568 570
f 569 570 571
f 571 570 437
f 571 437 438
f 437 570 436
f 436 570 568
f 436 568 445
f 445 568 567
f 445 567 446
f 446 567 572
f 446 572 573
f 573 572 557
f 573 557 448
f 448 447 573
f 573 447 446
f 557 572 565
f 565 572 567
f 480 569 482
f 482 569 545
f 569 571 545
f 545 571 546
f 480 478 566
f 566 478 476
f 546 571 574
f 574 571 438
f 574 438 439
f 439 547 574
f 574 547 546
f 475 544 575
f 575 544 576
f 575 576 577
f 577 576 578
f 577 578 536
f 536 578 530
f 530 578 529
f 529 578 579
f 529 579 580
f 580 579 543
f 580 543 525
f 525 527 580
f 580 527 529
f 536 537 577
f 577 537 581
f 577 581 575
f 575 581 582
f 575 582 475
f 475 582 473
f 582 581 473
f 473 581 471
f 471 581 538
f 538 581 537
f 579 583 543
f 543 583 544
f 544 583 576
f 576 583 578
f 579 578 583
f 302 541 584
f 302 584 300
f 17 585 533
f 533 585 535
f 535 585 21
f 21 585 19
f 19 585 17
f 165 586 109
f 109 586 587
f 109 587 111
f 111 587 113
f 113 587 588
f 588 587 586
f 588 586 127
f 127 586 589
f 127 589 125
f 125 589 123
f 123 589 165
f 165 589 586
f 127 129 588
f 588 129 158
f 588 158 113
f 129 590 158
f 158 590 591
f 158 591 156
f 156 591 133
f 591 590 133
f 133 590 131
f 590 129 131
f 89 88 69
f 69 88 68
f 68 88 91
f 68 91 66
f 66 91 185
f 66 185 64
f 64 185 258
f 64 258 62
f 62 258 265
f 62 265 60
f 60 265 272
f 60 272 58
f 58 272 279
f 58 279 56
f 56 279 286
f 56 286 57
f 57 286 59
f 286 313 59
f 59 313 61
f 313 298 61
f 61 298 63
f 298 300 63
f 63 300 65
f 300 584 65
f 65 584 67
f 584 541 67
f 67 541 70
f 70 541 540
f 540 542 70
f 70 542 592
f 70 592 71
f 71 592 524
f 71 524 73
f 73 524 76
f 524 592 542
f 524 523 76
f 76 523 77
f 523 520 77
f 77 520 79
f 520 519 79
f 79 519 81
f 519 518 81
f 81 518 83
f 518 517 83
f 83 517 85
f 517 516 85
f 85 516 515
f 85 515 87
f 87 515 514
f 87 514 86
f 86 514 513
f 86 513 84
f 84 513 182
f 84 182 82
f 82 182 180
f 82 180 80
f 80 180 184
f 80 184 78
f 78 184 177
f 78 177 75
f 75 177 172
f 75 172 74
f 74 172 171
f 74 171 593
f 593 171 89
f 593 89 72
f 72 89 69
f 72 74 593
f 382 380 221
f 221 380 223
f 380 378 223
f 223 378 225
f 378 376 225
f 225 376 227
f 227 376 229
f 229 376 374
f 229 374 231
f 231 374 372
f 231 372 233
f 233 372 370
f 233 370 235
f 235 370 368
f 235 368 236
f 236 368 366
f 236 366 244
f 244 366 365
f 244 365 245
f 245 365 362
f 245 362 361
f 361 360 245
f 245 360 358
f 358 356 245
f 245 356 355
f 245 355 247
f 247 355 559
f 559 355 352
f 559 352 351
f 559 351 349
f 349 347 559
f 559 347 346
f 346 345 559
f 559 345 560
f 345 344 560
f 560 344 449
f 344 341 449
f 449 341 450
f 341 339 450
f 450 339 451
f 339 337 451
f 451 337 452
f 337 335 452
f 452 335 453
f 335 333 453
f 453 333 454
f 333 331 454
f 454 331 455
f 331 329 455
f 455 329 456
f 329 327 456
f 456 327 457
f 457 327 458
f 458 327 325
f 458 325 459
f 459 325 323
f 459 323 460
f 460 323 321
f 460 321 461
f 461 321 319
f 461 319 462
f 462 319 318
f 462 318 463
f 463 318 414
f 463 414 464
f 464 414 413
f 464 413 465
f 465 413 411
f 465 411 466
f 466 411 410
f 466 410 467
f 467 410 409
f 467 409 408
f 408 407 467
f 467 407 406
f 467 406 405
f 467 405 404
f 467 404 550
f 550 404 202
f 550 202 200
f 550 200 564
f 564 200 201
f 564 201 563
f 563 201 251
f 563 251 562
f 562 251 249
f 562 249 561
f 561 249 247
f 561 247 559
f 404 403 202
f 202 403 402
f 402 401 202
f 202 401 400
f 202 400 399
f 202 399 398
f 202 398 205
f 205 398 397
f 205 397 206
f 206 397 396
f 206 396 207
f 207 396 394
f 207 394 209
f 209 394 393
f 209 393 211
f 211 393 389
f 211 389 213
f 213 389 388
f 213 388 214
f 214 388 386
f 214 386 217
f 217 386 384
f 217 384 219
f 219 384 382
f 219 382 221

