o convex_0
v 0.358972 0.018679 0.077244
v 0.278423 -0.071439 -0.081920
v 0.278423 -0.069509 -0.083847
v 0.278423 0.057048 0.083010
v 0.330201 0.053214 -0.083847
v 0.278423 -0.071439 0.083010
v 0.351295 -0.034988 -0.081920
v 0.278423 0.057048 -0.081920
v 0.345547 -0.042669 0.083010
v 0.324445 0.057048 0.083010
v 0.360885 0.005259 -0.083847
v 0.324445 -0.057994 -0.078082
v 0.360885 -0.011982 0.083010
v 0.349381 0.037877 -0.081920
v 0.309115 0.060883 -0.081920
v 0.318706 -0.059924 0.077244
v 0.347468 0.039794 0.083010
v 0.288014 0.060895 0.083010
v 0.358972 -0.015803 -0.083847
v 0.339791 -0.048421 -0.081920
v 0.357050 -0.025402 0.083010
v 0.286100 0.058965 -0.083847
v 0.295691 -0.067579 -0.081920
v 0.357050 0.024444 -0.081920
v 0.334035 -0.052255 0.083010
v 0.312950 0.060883 0.079172
v 0.337878 0.049380 0.081082
v 0.282266 -0.071439 0.081082
v 0.332114 0.053214 -0.081920
v 0.360885 0.011011 0.081082
v 0.353216 0.032112 0.083010
v 0.289935 0.060895 -0.081920
v 0.318706 0.058965 -0.081920
v 0.360885 -0.008135 -0.081920
v 0.357050 -0.023472 -0.081920
v 0.324445 -0.056089 -0.083847
v 0.353216 -0.033071 0.036967
v 0.339791 0.047463 -0.081920
v 0.295691 -0.067579 0.081082
v 0.282266 -0.071439 -0.081920
v 0.360885 0.009107 -0.081920
v 0.324445 -0.057994 0.056158
v 0.278423 0.055131 -0.083847
v 0.358972 -0.017720 -0.081920
v 0.282266 0.058965 -0.081920
v 0.339791 -0.048421 0.079172
v 0.347468 -0.040739 0.083010
v 0.357050 0.024444 0.081082
f 31 30 48 
f 3 2 4 
f 4 2 6 
f 3 4 8 
f 4 6 9 
f 4 9 10 
f 3 5 11 
f 10 9 13 
f 11 5 14 
f 10 13 17 
f 4 10 18 
f 3 11 19 
f 19 7 20 
f 13 9 21 
f 5 3 22 
f 15 5 22 
f 12 16 23 
f 11 14 24 
f 9 6 25 
f 12 20 25 
f 18 10 26 
f 10 17 27 
f 17 14 27 
f 6 2 28 
f 10 27 29 
f 13 11 30 
f 17 13 31 
f 14 17 31 
f 24 14 31 
f 13 30 31 
f 15 22 32 
f 26 15 32 
f 18 26 32 
f 5 15 33 
f 26 10 33 
f 15 26 33 
f 29 5 33 
f 10 29 33 
f 11 13 34 
f 19 11 34 
f 7 19 35 
f 3 19 36 
f 20 12 36 
f 19 20 36 
f 23 3 36 
f 12 23 36 
f 7 35 37 
f 35 21 37 
f 14 5 38 
f 27 14 38 
f 5 29 38 
f 29 27 38 
f 23 16 39 
f 25 6 39 
f 16 25 39 
f 6 28 39 
f 28 23 39 
f 2 3 40 
f 3 23 40 
f 28 2 40 
f 23 28 40 
f 24 1 41 
f 11 24 41 
f 30 11 41 
f 1 30 41 
f 16 12 42 
f 25 16 42 
f 12 25 42 
f 3 8 43 
f 22 3 43 
f 8 22 43 
f 13 21 44 
f 34 13 44 
f 19 34 44 
f 35 19 44 
f 21 35 44 
f 8 4 45 
f 4 18 45 
f 22 8 45 
f 18 32 45 
f 32 22 45 
f 20 9 46 
f 9 25 46 
f 25 20 46 
f 20 7 47 
f 9 20 47 
f 21 9 47 
f 7 37 47 
f 37 21 47 
f 1 24 48 
f 30 1 48 
f 24 31 48 
o convex_1
v 0.057867 -0.013912 0.079174
v 0.124983 -0.088701 -0.080012
v 0.148006 -0.088701 -0.080012
v 0.078977 0.020620 -0.080012
v 0.148006 0.001433 0.079174
v 0.040604 -0.077165 0.079174
v 0.148006 -0.088701 0.079174
v 0.040604 -0.077165 -0.080012
v 0.148006 0.001433 -0.080012
v 0.075129 0.020620 0.079174
v 0.054050 -0.023500 -0.080012
v 0.080890 -0.084848 0.079174
v 0.073226 0.018693 -0.080012
v 0.082814 -0.084848 -0.080012
v 0.146082 0.003348 -0.005202
v 0.119232 -0.088701 0.079174
v 0.040604 -0.073355 0.079174
v 0.078977 0.020620 0.079174
v 0.054050 -0.023500 0.079174
v 0.040604 -0.073355 -0.080012
v 0.146082 0.003348 -0.080012
v 0.067465 0.007179 0.079174
v 0.057867 -0.013912 -0.080012
v 0.098132 -0.086774 -0.039732
v 0.144158 0.003348 0.048477
v 0.050203 -0.079102 -0.080012
v 0.067465 0.007179 -0.080012
v 0.073226 0.018693 0.079174
f 61 70 76 
f 51 50 52 
f 53 49 54 
f 50 51 55 
f 51 53 55 
f 53 54 55 
f 52 50 56 
f 51 52 57 
f 53 51 57 
f 49 53 58 
f 52 56 59 
f 55 54 60 
f 58 52 61 
f 52 59 61 
f 56 50 62 
f 53 57 63 
f 50 55 64 
f 55 60 64 
f 54 49 65 
f 56 54 65 
f 52 58 66 
f 58 53 66 
f 63 52 66 
f 49 59 67 
f 65 49 67 
f 59 65 67 
f 59 56 68 
f 56 65 68 
f 65 59 68 
f 57 52 69 
f 52 63 69 
f 63 57 69 
f 49 58 70 
f 59 49 71 
f 61 59 71 
f 49 70 71 
f 62 50 72 
f 60 62 72 
f 50 64 72 
f 64 60 72 
f 53 63 73 
f 66 53 73 
f 63 66 73 
f 54 56 74 
f 60 54 74 
f 56 62 74 
f 62 60 74 
f 70 61 75 
f 61 71 75 
f 71 70 75 
f 58 61 76 
f 70 58 76 
o convex_2
v 0.075135 -0.025420 0.113696
v 0.065537 -0.081009 0.079174
v 0.071301 -0.082934 0.079174
v 0.148006 0.001428 0.079174
v 0.148006 -0.082934 0.102186
v 0.065537 0.026362 0.081097
v 0.148006 -0.008156 0.104103
v 0.148006 -0.088689 0.079174
v 0.065537 -0.073339 0.104103
v 0.065537 0.018681 0.104103
v 0.148006 -0.058001 0.109857
v 0.148006 0.001428 0.096435
v 0.124991 -0.088689 0.094522
v 0.065537 -0.040747 0.113696
v 0.148006 -0.029249 0.109857
v 0.075135 0.020607 0.079174
v 0.067458 -0.004327 0.111773
v 0.067458 0.026362 0.096435
v 0.069387 -0.081009 0.098348
v 0.103898 -0.067596 0.107938
v 0.148006 -0.000486 0.100267
v 0.121149 -0.082934 0.102186
v 0.119236 -0.088689 0.079174
v 0.080883 -0.084849 0.090684
v 0.148006 -0.088689 0.094522
v 0.065537 -0.015825 0.113696
v 0.067458 0.003343 0.109857
v 0.144156 -0.017751 0.107938
v 0.065537 -0.058001 0.109857
v 0.065537 0.001428 0.079174
v 0.148006 -0.067596 0.107938
f 90 96 107 
f 79 78 80 
f 81 80 83 
f 79 80 84 
f 80 81 84 
f 82 78 85 
f 82 85 86 
f 81 83 87 
f 83 80 88 
f 86 85 90 
f 87 77 90 
f 77 87 91 
f 87 83 91 
f 80 78 92 
f 82 80 92 
f 80 82 94 
f 82 86 94 
f 88 80 94 
f 78 79 95 
f 85 78 95 
f 86 83 97 
f 83 88 97 
f 94 86 97 
f 88 94 97 
f 89 81 98 
f 85 95 98 
f 95 89 98 
f 81 96 98 
f 96 85 98 
f 79 84 99 
f 84 89 99 
f 99 89 100 
f 95 79 100 
f 89 95 100 
f 79 99 100 
f 84 81 101 
f 89 84 101 
f 81 89 101 
f 86 90 102 
f 90 77 102 
f 77 91 102 
f 91 93 102 
f 102 93 103 
f 83 86 103 
f 86 102 103 
f 91 83 104 
f 93 91 104 
f 103 93 104 
f 83 103 104 
f 90 85 105 
f 85 96 105 
f 96 90 105 
f 78 82 106 
f 92 78 106 
f 82 92 106 
f 81 87 107 
f 87 90 107 
f 96 81 107 
o convex_3
v 0.148006 -0.086777 -0.097265
v 0.278423 -0.067590 0.094506
v 0.278423 -0.069514 0.094506
v 0.148006 -0.029259 0.109854
v 0.278411 0.018702 -0.083838
v 0.148006 0.003353 -0.093422
v 0.278411 0.018702 0.083000
v 0.274581 -0.069514 -0.101085
v 0.148006 -0.088701 0.094506
v 0.218960 0.018702 0.096405
v 0.240062 -0.017747 -0.114534
v 0.148006 0.001439 0.096427
v 0.218960 -0.084863 -0.091501
v 0.251564 -0.042663 0.113696
v 0.220874 0.018702 -0.097265
v 0.226632 -0.082929 0.096405
v 0.148006 -0.052251 -0.110691
v 0.278423 -0.071438 -0.087658
v 0.234304 0.001429 0.109831
v 0.148006 -0.067590 0.107932
v 0.261151 -0.054175 -0.110669
v 0.148006 -0.004322 -0.103006
v 0.180623 -0.088701 -0.089579
v 0.274581 -0.073351 0.094506
v 0.180623 -0.088701 0.090663
v 0.263079 -0.056089 0.109831
v 0.190198 -0.081026 -0.103006
v 0.234304 0.003353 -0.108770
v 0.241977 -0.081015 -0.079995
v 0.149934 0.003353 0.090663
v 0.176781 -0.082939 0.102168
v 0.241977 -0.015834 0.113674
v 0.148006 -0.033086 -0.110691
v 0.218960 -0.084863 0.086821
v 0.148006 -0.088701 -0.093422
v 0.148006 -0.000485 0.100247
v 0.217045 0.018702 -0.093422
v 0.217045 0.018702 0.092562
v 0.274581 -0.067590 0.102168
v 0.148006 -0.071427 -0.106849
v 0.274581 -0.073351 -0.095321
v 0.247734 -0.036913 -0.114534
v 0.241977 -0.081015 0.081057
v 0.228547 0.012941 0.104067
v 0.222802 0.014854 -0.103006
v 0.148006 -0.058002 0.109854
v 0.230474 -0.000485 -0.110691
v 0.263079 -0.048414 0.109831
v 0.261151 -0.046490 -0.110669
v 0.203628 -0.086766 -0.089579
v 0.230474 -0.079102 -0.101107
v 0.226632 -0.033086 0.113674
v 0.232389 -0.077189 0.102146
v 0.186368 -0.086766 -0.097242
v 0.151849 -0.017747 0.107932
v 0.276496 -0.063753 -0.099163
v 0.259236 -0.077189 -0.087658
v 0.194040 -0.067590 0.107910
v 0.236219 -0.013921 0.113674
v 0.148006 -0.079102 0.104090
v 0.148006 -0.084853 -0.101085
v 0.180623 -0.086766 0.098326
v 0.270751 -0.058002 -0.104927
v 0.148006 -0.015834 -0.106849
f 129 154 171 
f 108 111 113 
f 109 112 114 
f 111 108 116 
f 114 112 117 
f 113 111 119 
f 117 112 122 
f 108 113 124 
f 109 110 125 
f 112 109 125 
f 111 116 127 
f 124 113 129 
f 125 110 131 
f 116 130 132 
f 112 118 135 
f 113 119 137 
f 119 117 137 
f 114 126 139 
f 118 124 140 
f 124 129 140 
f 123 132 141 
f 120 136 141 
f 116 108 142 
f 130 116 142 
f 119 111 143 
f 117 119 143 
f 122 113 144 
f 117 122 144 
f 113 137 145 
f 137 117 145 
f 144 113 145 
f 117 144 145 
f 110 109 146 
f 109 114 146 
f 131 110 146 
f 123 131 146 
f 108 124 147 
f 128 134 147 
f 115 125 148 
f 125 131 148 
f 124 118 149 
f 147 124 149 
f 128 147 149 
f 131 123 150 
f 123 141 150 
f 141 136 150 
f 114 117 151 
f 126 114 151 
f 117 143 151 
f 143 126 151 
f 113 122 152 
f 122 112 152 
f 129 113 152 
f 112 135 152 
f 111 127 153 
f 127 121 153 
f 135 118 154 
f 118 140 154 
f 129 152 154 
f 152 135 154 
f 121 133 155 
f 139 121 155 
f 114 139 155 
f 146 114 155 
f 133 146 155 
f 118 112 156 
f 149 118 156 
f 128 149 156 
f 132 130 157 
f 120 141 157 
f 141 132 157 
f 128 115 158 
f 134 128 158 
f 115 148 158 
f 148 120 158 
f 111 153 159 
f 153 121 159 
f 133 138 160 
f 123 146 160 
f 146 133 160 
f 142 108 161 
f 130 142 161 
f 120 157 161 
f 157 130 161 
f 158 120 161 
f 134 158 161 
f 143 111 162 
f 126 143 162 
f 112 125 163 
f 125 115 163 
f 136 120 164 
f 120 148 164 
f 148 131 164 
f 131 150 164 
f 150 136 164 
f 121 127 165 
f 133 121 165 
f 138 133 165 
f 121 139 166 
f 139 126 166 
f 111 159 166 
f 159 121 166 
f 162 111 166 
f 126 162 166 
f 127 116 167 
f 116 138 167 
f 165 127 167 
f 138 165 167 
f 108 147 168 
f 147 134 168 
f 161 108 168 
f 134 161 168 
f 132 123 169 
f 116 132 169 
f 138 116 169 
f 123 160 169 
f 160 138 169 
f 115 128 170 
f 156 112 170 
f 128 156 170 
f 112 163 170 
f 163 115 170 
f 140 129 171 
f 154 140 171 
o convex_4
v 0.268830 0.053222 -0.081924
v 0.278423 0.051303 0.082995
v 0.278423 0.018705 0.082995
v 0.222804 0.020624 0.092599
v 0.222804 0.018705 -0.095355
v 0.278423 0.018705 -0.083838
v 0.270741 0.055141 0.082995
v 0.278418 0.057059 -0.081906
v 0.222804 0.020624 -0.095355
v 0.222804 0.018705 0.092599
v 0.278418 0.057059 0.082995
v 0.224732 0.022543 0.086841
v 0.257321 0.045547 -0.081924
v 0.278418 0.055141 -0.083838
v 0.276502 0.057059 -0.081906
f 179 185 186 
f 174 173 175 
f 174 176 177 
f 173 174 177 
f 173 177 179 
f 176 175 180 
f 177 176 180 
f 174 175 181 
f 175 176 181 
f 176 174 181 
f 175 173 182 
f 178 175 182 
f 173 179 182 
f 175 178 183 
f 180 175 183 
f 180 183 184 
f 178 172 184 
f 172 180 184 
f 183 178 184 
f 179 177 185 
f 177 180 185 
f 185 180 186 
f 172 178 186 
f 180 172 186 
f 178 182 186 
f 182 179 186 
o convex_5
v 0.042512 0.016773 -0.124120
v -0.061045 -0.008150 -0.110697
v -0.061045 -0.008150 -0.101113
v 0.065533 -0.081029 -0.095359
v 0.017571 0.058964 -0.081936
v -0.039932 -0.048410 -0.081936
v -0.013095 -0.054161 -0.120285
v 0.065533 -0.002412 -0.080012
v -0.030342 0.047462 -0.120285
v -0.047601 0.039793 -0.081936
v 0.065533 -0.081029 -0.080012
v 0.052102 0.034042 -0.114527
v 0.065533 -0.046506 -0.112612
v -0.015015 -0.017721 -0.127959
v 0.009901 0.060895 -0.114531
v 0.065533 0.028276 -0.081931
v -0.051442 -0.029224 -0.118366
v -0.053363 0.026359 -0.118366
v -0.061045 0.009105 -0.081936
v 0.021411 -0.040741 -0.124120
v -0.026513 -0.056078 -0.114531
v -0.018844 0.058964 -0.081936
v -0.009266 0.035959 -0.126039
v 0.027173 0.055130 -0.116446
v 0.040604 -0.077181 -0.080012
v 0.065533 0.003353 -0.110692
v -0.032262 0.053213 -0.112612
v -0.036103 0.007188 -0.126039
v 0.065533 -0.075264 -0.103028
v -0.057191 -0.023473 -0.081936
v 0.021411 -0.008150 -0.127959
v 0.050181 -0.011984 -0.122200
v -0.022672 -0.057995 -0.081936
v 0.007981 0.051296 -0.122205
v -0.049522 -0.036893 -0.114531
v -0.055271 0.028290 -0.114531
v 0.009901 0.020608 -0.127959
v -0.015015 0.058964 -0.116451
v 0.065533 0.028276 -0.095359
v 0.057851 0.012939 -0.118366
v -0.032262 -0.033059 -0.124120
v -0.055271 -0.008150 -0.120285
v 0.031014 0.053213 -0.081931
v 0.031014 0.041696 -0.122200
v -0.061045 0.009105 -0.114531
v -0.011174 -0.059913 -0.116451
v 0.011822 -0.050327 -0.122205
v 0.011822 -0.069498 -0.091524
v -0.005425 -0.036893 -0.126039
v -0.057191 0.024442 -0.081936
v 0.042512 0.045544 -0.114527
v -0.009266 0.060895 -0.081936
v -0.047601 0.039793 -0.114531
v -0.039932 -0.046493 -0.116451
v 0.048261 -0.079098 -0.091520
v 0.040604 -0.021556 -0.124120
v -0.028434 0.024442 -0.126039
v -0.032262 0.053213 -0.081936
v -0.018844 0.012939 -0.127959
v -0.059112 -0.017721 -0.112612
v 0.065533 -0.056078 -0.110692
v 0.065533 -0.023487 -0.114527
v -0.047601 0.020608 -0.122205
v -0.039932 -0.023473 -0.124120
f 203 228 250 
f 190 194 197 
f 194 190 199 
f 194 199 202 
f 188 189 205 
f 201 191 210 
f 197 194 211 
f 202 199 212 
f 199 190 215 
f 205 189 216 
f 192 211 216 
f 211 205 216 
f 192 207 219 
f 211 192 219 
f 209 195 220 
f 201 210 220 
f 192 216 221 
f 187 217 223 
f 217 200 223 
f 209 220 223 
f 195 213 224 
f 213 208 224 
f 220 195 224 
f 201 220 224 
f 202 212 225 
f 225 212 226 
f 218 187 226 
f 198 225 226 
f 191 194 229 
f 194 202 229 
f 210 191 229 
f 220 210 230 
f 187 223 230 
f 223 220 230 
f 226 187 230 
f 198 226 230 
f 188 205 231 
f 222 204 231 
f 204 228 231 
f 207 193 232 
f 215 190 232 
f 215 232 233 
f 232 193 233 
f 219 207 234 
f 211 219 234 
f 207 232 234 
f 217 206 235 
f 200 217 235 
f 193 227 235 
f 227 200 235 
f 206 233 235 
f 233 193 235 
f 194 196 236 
f 211 194 236 
f 205 211 236 
f 196 222 236 
f 231 205 236 
f 222 231 236 
f 225 198 237 
f 202 225 237 
f 229 202 237 
f 210 229 237 
f 198 230 237 
f 230 210 237 
f 194 191 238 
f 191 201 238 
f 208 194 238 
f 201 224 238 
f 224 208 238 
f 195 204 239 
f 213 195 239 
f 196 213 239 
f 204 222 239 
f 222 196 239 
f 193 207 240 
f 207 192 240 
f 221 203 240 
f 192 221 240 
f 227 193 240 
f 203 227 240 
f 190 197 241 
f 197 211 241 
f 232 190 241 
f 211 234 241 
f 234 232 241 
f 217 187 242 
f 206 217 242 
f 218 199 242 
f 187 218 242 
f 195 209 243 
f 196 194 244 
f 194 208 244 
f 213 196 244 
f 208 213 244 
f 200 214 245 
f 223 200 245 
f 209 223 245 
f 243 209 245 
f 214 243 245 
f 189 188 246 
f 216 189 246 
f 203 221 246 
f 221 216 246 
f 228 203 246 
f 188 231 246 
f 231 228 246 
f 199 215 247 
f 215 233 247 
f 233 206 247 
f 242 199 247 
f 206 242 247 
f 212 199 248 
f 199 218 248 
f 226 212 248 
f 218 226 248 
f 204 195 249 
f 214 228 249 
f 228 204 249 
f 195 243 249 
f 243 214 249 
f 214 200 250 
f 200 227 250 
f 227 203 250 
f 228 214 250 
o convex_6
v 0.082804 -0.021580 -0.112616
v 0.065537 -0.081009 -0.095358
v 0.077048 -0.082934 -0.097269
v 0.146085 0.003343 -0.080015
v 0.065537 0.026362 -0.081933
v 0.148006 -0.088689 -0.080015
v 0.148006 -0.052246 -0.110695
v 0.065537 -0.081009 -0.080015
v 0.148006 -0.004327 -0.103023
v 0.065537 0.020607 -0.103023
v 0.065537 -0.046502 -0.112616
v 0.148006 -0.084849 -0.101105
v 0.069387 0.026362 -0.095358
v 0.067458 -0.008156 -0.112616
v 0.073214 0.018681 -0.080015
v 0.148006 -0.033078 -0.110695
v 0.080883 -0.063755 -0.108777
v 0.148006 0.003343 -0.091522
v 0.121149 -0.088689 -0.089604
v 0.065537 -0.075265 -0.103023
v 0.148006 -0.071425 -0.106859
v 0.082804 -0.084849 -0.080015
v 0.069387 -0.000486 -0.110695
v 0.088552 -0.079094 -0.103023
v 0.148006 0.003343 -0.081933
v 0.148006 0.001428 -0.097269
v 0.148006 -0.015825 -0.106859
v 0.115393 -0.086763 -0.097269
v 0.148006 -0.088689 -0.093440
v 0.069387 0.022522 -0.101105
f 263 276 280 
f 255 252 258 
f 256 254 258 
f 256 257 259 
f 252 255 260 
f 251 257 261 
f 252 260 261 
f 257 256 262 
f 260 255 263 
f 251 261 264 
f 261 260 264 
f 254 255 265 
f 258 254 265 
f 255 258 265 
f 257 251 266 
f 259 257 266 
f 251 264 266 
f 256 259 268 
f 253 252 270 
f 252 261 270 
f 261 267 270 
f 261 257 271 
f 257 262 271 
f 267 261 271 
f 252 253 272 
f 258 252 272 
f 256 258 272 
f 253 269 272 
f 269 256 272 
f 260 259 273 
f 264 260 273 
f 253 270 274 
f 270 267 274 
f 271 262 274 
f 267 271 274 
f 255 254 275 
f 254 256 275 
f 263 255 275 
f 256 268 275 
f 268 263 275 
f 268 259 276 
f 263 268 276 
f 259 266 277 
f 266 264 277 
f 273 259 277 
f 264 273 277 
f 269 253 278 
f 253 274 278 
f 274 262 278 
f 262 256 279 
f 256 269 279 
f 269 278 279 
f 278 262 279 
f 259 260 280 
f 260 263 280 
f 276 259 280 
o convex_7
v 0.027173 0.012939 0.127121
v -0.061045 -0.010067 0.086848
v -0.061045 -0.010067 0.090687
v 0.065533 -0.081029 0.094526
v 0.029093 0.055130 0.081094
v -0.024593 -0.052244 0.119448
v -0.043773 0.041710 0.117528
v 0.040604 -0.077181 0.079174
v 0.065533 0.028276 0.081094
v -0.047601 0.039793 0.081094
v 0.046353 0.037876 0.117523
v 0.065533 -0.040741 0.113694
v -0.036103 -0.050327 0.081094
v 0.004152 0.060895 0.115609
v -0.055271 -0.015804 0.119448
v 0.013742 -0.038824 0.125202
v -0.026513 0.014856 0.127121
v -0.024593 0.057047 0.081094
v 0.065533 -0.081029 0.079174
v -0.059112 0.014856 0.115609
v 0.057851 0.014856 0.117523
v -0.049522 -0.036893 0.113694
v 0.009901 0.047462 0.123282
v -0.026513 -0.056078 0.113694
v -0.061045 0.007188 0.081094
v -0.016936 -0.025390 0.127121
v 0.063612 -0.002412 0.079174
v 0.065533 -0.075264 0.102190
v 0.027173 0.055130 0.115609
v 0.065533 0.026359 0.098360
v -0.028434 0.053213 0.117528
v 0.040604 -0.008163 0.125202
v -0.051442 -0.034976 0.081094
v 0.011822 0.060895 0.081094
v -0.011174 -0.056078 0.119448
v -0.022672 -0.057995 0.081094
v -0.047601 0.009105 0.123282
v -0.020752 0.035959 0.125202
v -0.059112 -0.017721 0.113694
v 0.025252 -0.073346 0.094526
v -0.011174 0.060895 0.111774
v 0.027173 -0.046493 0.121367
v -0.055271 0.028290 0.113694
v 0.042512 0.024442 0.123282
v -0.041852 -0.025390 0.123282
v 0.042512 0.045531 0.113694
v -0.032262 0.053213 0.113694
v 0.023332 -0.019639 0.127121
v -0.059112 0.018690 0.081094
v 0.009901 0.028290 0.127121
v -0.043773 -0.044575 0.113694
v 0.065533 -0.000495 0.111769
v -0.011174 -0.059913 0.115609
v 0.011822 -0.056078 0.119448
v -0.061045 0.009105 0.113694
v 0.065533 -0.063761 0.107935
v 0.038683 -0.029224 0.123282
v -0.059112 -0.019639 0.081094
v -0.009266 0.060895 0.081094
v 0.031014 0.037876 0.123282
v -0.013095 -0.046493 0.123282
v 0.048261 -0.006246 0.123282
v -0.041852 0.034042 0.121363
v -0.053363 -0.031141 0.115609
f 319 338 344 
f 284 289 292 
f 284 288 299 
f 289 284 299 
f 282 283 305 
f 281 297 306 
f 285 289 307 
f 290 298 307 
f 299 288 307 
f 289 299 307 
f 284 292 308 
f 294 303 309 
f 292 289 310 
f 291 301 310 
f 303 294 311 
f 288 293 313 
f 285 307 314 
f 309 285 314 
f 294 309 314 
f 293 288 316 
f 304 293 316 
f 300 295 317 
f 303 311 318 
f 288 284 320 
f 316 288 320 
f 304 316 320 
f 311 294 321 
f 294 314 321 
f 287 290 323 
f 300 287 323 
f 301 291 324 
f 281 312 324 
f 306 297 325 
f 297 317 325 
f 317 295 325 
f 289 285 326 
f 285 309 326 
f 309 291 326 
f 310 289 326 
f 291 310 326 
f 290 287 327 
f 298 290 327 
f 287 311 327 
f 321 298 327 
f 311 321 327 
f 306 296 328 
f 281 306 328 
f 312 281 328 
f 288 305 329 
f 290 307 329 
f 307 288 329 
f 323 290 329 
f 297 281 330 
f 318 297 330 
f 303 318 330 
f 304 286 331 
f 293 304 331 
f 313 293 331 
f 302 313 331 
f 301 292 332 
f 292 310 332 
f 310 301 332 
f 286 304 333 
f 284 308 333 
f 315 286 333 
f 308 315 333 
f 320 284 333 
f 304 320 333 
f 315 308 334 
f 322 296 334 
f 295 300 335 
f 305 283 335 
f 283 319 335 
f 319 295 335 
f 300 323 335 
f 329 305 335 
f 323 329 335 
f 308 292 336 
f 334 308 336 
f 322 334 336 
f 296 322 337 
f 328 296 337 
f 312 328 337 
f 336 292 337 
f 322 336 337 
f 283 282 338 
f 282 305 338 
f 305 288 338 
f 288 313 338 
f 319 283 338 
f 307 298 339 
f 314 307 339 
f 298 321 339 
f 321 314 339 
f 291 309 340 
f 309 303 340 
f 324 291 340 
f 281 324 340 
f 330 281 340 
f 303 330 340 
f 296 306 341 
f 286 315 341 
f 325 286 341 
f 306 325 341 
f 334 296 341 
f 315 334 341 
f 292 301 342 
f 301 324 342 
f 324 312 342 
f 337 292 342 
f 312 337 342 
f 287 300 343 
f 311 287 343 
f 317 297 343 
f 300 317 343 
f 297 318 343 
f 318 311 343 
f 313 302 344 
f 295 319 344 
f 286 325 344 
f 325 295 344 
f 331 286 344 
f 302 331 344 
f 338 313 344 
