# https://github.com/mikedh/trimesh

o UCX_OvenDoorHandle_003.stl
v 0.01220006 0.00000000 -0.23961005
v 0.01220006 0.00000000 0.23961005
v 0.01196564 -0.00238011 0.23961005
v 0.01196564 -0.00238011 -0.23961005
v 0.01127139 -0.00466876 0.23961005
v 0.01127139 -0.00466876 -0.23961005
v 0.01014398 -0.00677799 0.23961005
v 0.01014398 -0.00677799 -0.23961005
v 0.00862675 -0.00862675 0.23961005
v 0.00862675 -0.00862675 -0.23961005
v 0.00677799 -0.01014398 0.23961005
v 0.00677799 -0.01014398 -0.23961005
v 0.00466876 -0.01127139 0.23961005
v 0.00466876 -0.01127139 -0.23961005
v 0.00238011 -0.01196564 0.23961005
v 0.00238011 -0.01196564 -0.23961005
v -0.00000000 -0.01220006 0.23961005
v -0.00000000 -0.01220006 -0.23961005
v -0.00238011 -0.01196564 0.23961005
v -0.00238011 -0.01196564 -0.23961005
v -0.00466876 -0.01127139 0.23961005
v -0.00466876 -0.01127139 -0.23961005
v -0.00677799 -0.01014398 0.23961005
v -0.00677799 -0.01014398 -0.23961005
v -0.00862675 -0.00862675 0.23961005
v -0.00862675 -0.00862675 -0.23961005
v -0.01014398 -0.00677799 0.23961005
v -0.01014398 -0.00677799 -0.23961005
v -0.01127139 -0.00466876 0.23961005
v -0.01127139 -0.00466876 -0.23961005
v -0.01196564 -0.00238011 0.23961005
v -0.01196564 -0.00238011 -0.23961005
v -0.01220006 0.00000000 0.23961005
v -0.01220006 0.00000000 -0.23961005
v -0.01196564 0.00238011 0.23961005
v -0.01196564 0.00238011 -0.23961005
v -0.01127139 0.00466876 0.23961005
v -0.01127139 0.00466876 -0.23961005
v -0.01014398 0.00677799 0.23961005
v -0.01014398 0.00677799 -0.23961005
v -0.00862675 0.00862675 0.23961005
v -0.00862675 0.00862675 -0.23961005
v -0.00677799 0.01014398 0.23961005
v -0.00677799 0.01014398 -0.23961005
v -0.00466876 0.01127139 0.23961005
v -0.00466876 0.01127139 -0.23961005
v -0.00238011 0.01196564 0.23961005
v -0.00238011 0.01196564 -0.23961005
v -0.00000000 0.01220006 0.23961005
v -0.00000000 0.01220006 -0.23961005
v 0.00238011 0.01196564 0.23961005
v 0.00238011 0.01196564 -0.23961005
v 0.00466876 0.01127139 0.23961005
v 0.00466876 0.01127139 -0.23961005
v 0.00677799 0.01014398 0.23961005
v 0.00677799 0.01014398 -0.23961005
v 0.00862675 0.00862675 0.23961005
v 0.00862675 0.00862675 -0.23961005
v 0.01014398 0.00677799 0.23961005
v 0.01014398 0.00677799 -0.23961005
v 0.01127139 0.00466876 0.23961005
v 0.01127139 0.00466876 -0.23961005
v 0.01196564 0.00238011 0.23961005
v 0.01196564 0.00238011 -0.23961005
f 1 2 3
f 1 3 4
f 4 3 5
f 4 5 6
f 6 5 7
f 6 7 8
f 8 7 9
f 8 9 10
f 10 9 11
f 10 11 12
f 12 11 13
f 12 13 14
f 14 13 15
f 14 15 16
f 16 15 17
f 16 17 18
f 18 17 19
f 18 19 20
f 20 19 21
f 20 21 22
f 22 21 23
f 22 23 24
f 24 23 25
f 24 25 26
f 26 25 27
f 26 27 28
f 28 27 29
f 28 29 30
f 30 29 31
f 30 31 32
f 32 31 33
f 32 33 34
f 34 33 35
f 34 35 36
f 36 35 37
f 36 37 38
f 38 37 39
f 38 39 40
f 40 39 41
f 40 41 42
f 42 41 43
f 42 43 44
f 44 43 45
f 44 45 46
f 46 45 47
f 46 47 48
f 48 47 49
f 48 49 50
f 50 49 51
f 50 51 52
f 52 51 53
f 52 53 54
f 54 53 55
f 54 55 56
f 56 55 57
f 56 57 58
f 58 57 59
f 58 59 60
f 60 59 61
f 60 61 62
f 5 3 2
f 2 63 61
f 61 59 57
f 57 55 53
f 53 51 49
f 49 47 45
f 45 43 41
f 41 39 37
f 37 35 33
f 33 31 29
f 29 27 25
f 25 23 21
f 21 19 17
f 17 15 13
f 13 11 9
f 9 7 5
f 5 2 61
f 61 57 53
f 53 49 45
f 45 41 37
f 37 33 29
f 29 25 21
f 21 17 13
f 13 9 5
f 5 61 53
f 53 45 37
f 37 29 21
f 21 13 5
f 5 53 37
f 37 21 5
f 62 61 63
f 62 63 64
f 64 63 2
f 64 2 1
f 64 1 4
f 4 6 8
f 8 10 12
f 12 14 16
f 16 18 20
f 20 22 24
f 24 26 28
f 28 30 32
f 32 34 36
f 36 38 40
f 40 42 44
f 44 46 48
f 48 50 52
f 52 54 56
f 56 58 60
f 60 62 64
f 64 4 8
f 8 12 16
f 16 20 24
f 24 28 32
f 32 36 40
f 40 44 48
f 48 52 56
f 56 60 64
f 64 8 16
f 16 24 32
f 32 40 48
f 48 56 64
f 64 16 32
f 32 48 64

